<?xml version="1.0" encoding="utf-8"?>
<!-- Generator: Adobe Illustrator 19.0.0, SVG Export Plug-In . SVG Version: 6.00 Build 0)  -->
<svg version="1.1" id="Calque_1" xmlns="http://www.w3.org/2000/svg" xmlns:xlink="http://www.w3.org/1999/xlink" x="0px" y="0px"
	 viewBox="0 0 180 70" style="enable-background:new 0 0 180 70;" xml:space="preserve">
<style type="text/css">
	.st0{fill:#2897D4;}
	.st1{fill:none;stroke:#2897D4;stroke-miterlimit:10;}
</style>
<g id="XMLID_3_">
	<path id="XMLID_6_" class="st0" d="M95.5,19.4c-0.2,0.2-0.3,0.4-0.5,0.5c-0.7,0.6-1.6,1.1-2.6,1.5c-1,0.4-2,0.7-3.1,1
		c-1.1,0.2-2.2,0.4-3.2,0.4c-1.1,0-2.1-0.1-3-0.3c-0.6-0.1-1.2-0.4-1.8-0.7c-0.6-0.3-1-0.7-1.4-1.1c-0.4-0.4-0.7-1-0.9-1.6
		c-0.2-0.6-0.2-1.2,0-1.9c0.1-0.2,0.2-0.5,0.3-0.7c0.2-0.2,0.4-0.3,0.7-0.2c0.3,0.1,0.4,0.2,0.5,0.4s0,0.4-0.1,0.7
		c-0.1,0.5-0.1,1,0.1,1.4c0.2,0.4,0.4,0.8,0.7,1.1c0.3,0.3,0.7,0.6,1.1,0.8c0.4,0.2,0.9,0.4,1.4,0.5c0.7,0.2,1.5,0.2,2.5,0.2
		c0.9,0,1.8-0.1,2.8-0.3c0.9-0.2,1.8-0.4,2.7-0.7c0.9-0.3,1.6-0.7,2.2-1.2c0.1-0.1,0.2-0.2,0.3-0.3c0.1-0.1,0.2-0.2,0.2-0.4
		c0.1-0.3,0-0.5-0.1-0.7c-0.1-0.2-0.3-0.4-0.5-0.6c-0.2-0.2-0.5-0.3-0.7-0.4c-0.3-0.1-0.5-0.2-0.7-0.3c-0.9-0.3-1.8-0.6-2.6-0.9
		c-0.9-0.2-1.8-0.5-2.7-0.8c-0.9-0.3-1.8-0.6-2.6-0.9c-0.8-0.4-1.6-0.8-2.4-1.4c-0.2-0.1-0.4-0.3-0.6-0.5c-0.2-0.2-0.4-0.4-0.6-0.7
		c-0.2-0.2-0.3-0.5-0.4-0.7c-0.1-0.3-0.1-0.5,0-0.8c0.1-0.5,0.4-0.9,0.8-1.2c0.5-0.3,1-0.5,1.7-0.7c0.7-0.2,1.4-0.2,2.1-0.3
		c0.8,0,1.5,0,2.3,0c0.7,0,1.4,0.1,2.1,0.2c0.6,0.1,1.1,0.2,1.5,0.3c0.4,0.1,1,0.2,1.7,0.5c0.7,0.2,1.4,0.5,2.1,0.9
		c0.7,0.3,1.2,0.8,1.7,1.2c0.4,0.5,0.6,1,0.5,1.5c0,0.2-0.1,0.3-0.2,0.5c-0.1,0.1-0.3,0.3-0.4,0.4s-0.3,0.2-0.5,0.3
		c-0.2,0.1-0.4,0.1-0.5,0c-0.2,0-0.3-0.1-0.5-0.3c-0.1-0.1-0.2-0.3-0.1-0.5c0-0.2,0.1-0.3,0.3-0.4c0.1-0.1,0.3-0.2,0.4-0.3
		c-0.2-0.3-0.4-0.6-0.8-0.9c-0.4-0.3-0.8-0.5-1.3-0.7c-0.5-0.2-1-0.4-1.5-0.5c-0.5-0.2-0.9-0.3-1.2-0.3c-0.5-0.1-1.1-0.2-1.8-0.3
		c-0.6-0.1-1.3-0.1-2-0.1s-1.3,0-2,0.1c-0.6,0.1-1.2,0.2-1.7,0.3c-0.2,0.1-0.4,0.1-0.6,0.2c-0.2,0.1-0.3,0.3-0.4,0.5
		c-0.1,0.3,0.1,0.6,0.5,1c0.4,0.4,0.8,0.7,1.3,1c0.5,0.3,1,0.6,1.6,0.8c0.5,0.2,0.9,0.4,1.2,0.5c0.9,0.3,1.8,0.6,2.7,0.8
		c0.9,0.2,1.8,0.5,2.8,0.7c0.4,0.1,0.8,0.3,1.3,0.5c0.5,0.2,1,0.4,1.4,0.7c0.4,0.3,0.8,0.6,1.1,1c0.3,0.4,0.3,0.9,0.2,1.4
		C95.7,19,95.6,19.2,95.5,19.4z"/>
	<path id="XMLID_8_" class="st0" d="M105.8,22.4c-0.1,0.4-0.4,0.8-0.6,1.2c-0.3,0.4-0.6,0.7-1,1c-0.4,0.3-0.8,0.5-1.2,0.6
		s-0.9,0.2-1.3,0.1c-0.4-0.1-0.7-0.3-1-0.6c-0.3-0.3-0.5-0.6-0.6-1c-0.4,0.4-0.9,0.8-1.4,1c-0.6,0.3-1.1,0.4-1.7,0.2
		c-0.6-0.1-1.1-0.5-1.5-1c-0.3-0.5-0.4-1.1-0.3-1.7c0.1-0.5,0.4-1,0.8-1.6c0.4-0.6,0.9-1,1.4-1.5s1.1-0.8,1.7-1
		c0.6-0.2,1.2-0.3,1.7-0.2c0.3,0.1,0.6,0.2,0.9,0.5s0.4,0.6,0.3,0.9c0,0.1-0.1,0.3-0.2,0.4c0.1,0.1,0.1,0.3,0.1,0.5
		c-0.1,0.2-0.1,0.5-0.2,0.7c-0.1,0.2-0.2,0.5-0.2,0.7c0,0.2-0.1,0.4-0.1,0.7c0,0.3,0,0.5,0,0.7c0,0.2,0.1,0.5,0.2,0.7
		c0.1,0.2,0.3,0.3,0.5,0.4c0.3,0.1,0.6,0,0.8-0.1c0.2-0.1,0.5-0.3,0.7-0.4c0.2-0.2,0.4-0.4,0.6-0.6c0.2-0.2,0.3-0.5,0.5-0.7
		c0.2-0.2,0.3-0.4,0.5-0.5c0.2-0.1,0.3-0.2,0.5-0.1c0.2,0,0.3,0.1,0.3,0.3c0.1,0.1,0.1,0.3,0,0.4L105.8,22.4z M100.1,19.2
		c-0.3-0.1-0.7,0-1.1,0.2c-0.4,0.2-0.8,0.5-1.2,0.8c-0.4,0.3-0.7,0.7-1,1.1c-0.3,0.4-0.4,0.7-0.5,1c-0.1,0.3,0,0.6,0.1,0.8
		s0.4,0.4,0.7,0.5c0.3,0.1,0.6,0,0.9-0.1c0.3-0.1,0.6-0.3,0.8-0.5s0.5-0.5,0.7-0.8c0.2-0.3,0.3-0.6,0.4-0.8c0-0.1,0-0.3,0.1-0.4
		c0-0.1,0-0.3,0.1-0.4c0-0.2,0.1-0.4,0.2-0.6c0.1-0.2,0.2-0.4,0.4-0.5C100.5,19.3,100.3,19.2,100.1,19.2z"/>
	<path id="XMLID_11_" class="st0" d="M113,24.6c-0.2,0.2-0.5,0.4-0.8,0.5c-0.3,0.1-0.6,0.2-0.9,0.3c-0.3,0-0.6,0-0.8,0
		c-0.5-0.1-0.9-0.3-1.2-0.6c-0.2,0.3-0.4,0.5-0.6,0.8c-0.2,0.2-0.5,0.5-0.8,0.6s-0.6,0.3-0.9,0.4c-0.3,0.1-0.7,0.1-1,0
		c-0.4-0.1-0.7-0.2-1-0.5s-0.4-0.5-0.6-0.8c-0.1-0.3-0.2-0.6-0.2-1c0-0.4,0-0.7,0.1-1.1c0-0.2,0.2-0.5,0.3-1
		c0.2-0.4,0.4-0.9,0.6-1.3c0.2-0.4,0.5-0.8,0.8-1.1c0.3-0.3,0.6-0.4,0.9-0.3c0.2,0,0.3,0.1,0.4,0.3c0.1,0.2,0.1,0.3,0.1,0.5
		c0,0.1-0.1,0.2-0.3,0.4c-0.2,0.2-0.3,0.5-0.5,0.7c-0.2,0.3-0.4,0.6-0.6,0.9c-0.2,0.3-0.3,0.7-0.4,1c0,0.2-0.1,0.3-0.1,0.5
		c0,0.2,0,0.4,0.1,0.6c0,0.2,0.1,0.3,0.2,0.5c0.1,0.1,0.2,0.2,0.4,0.3c0.2,0,0.3,0,0.6-0.1c0.2-0.1,0.4-0.2,0.7-0.4s0.4-0.4,0.6-0.6
		c0.2-0.2,0.3-0.4,0.3-0.5c0-0.1,0-0.4-0.1-0.7c-0.1-0.4-0.1-0.7,0-1.1c0-0.2,0.1-0.3,0.1-0.5c0.1-0.2,0.1-0.3,0.2-0.4
		s0.2-0.2,0.4-0.3c0.1-0.1,0.3-0.1,0.5,0c0.2,0,0.4,0.2,0.5,0.3c0.1,0.2,0.2,0.3,0.2,0.5c0,0.2,0,0.4,0,0.6c0,0.2,0,0.4-0.1,0.6
		c-0.1,0.3-0.2,0.6-0.3,0.8c0.1,0.2,0.2,0.3,0.4,0.4c0.2,0.1,0.3,0.2,0.5,0.2c0.3,0.1,0.5,0,0.7,0c0.2-0.1,0.4-0.2,0.5-0.3
		s0.3-0.3,0.4-0.4c0.1-0.1,0.3-0.1,0.4-0.1c0.4,0.1,0.5,0.3,0.4,0.6C113.4,24.2,113.2,24.4,113,24.6z"/>
	<path id="XMLID_13_" class="st0" d="M119.2,25.5c-0.3,0.3-0.6,0.6-1,0.9s-0.8,0.5-1.2,0.7c-0.4,0.2-0.9,0.3-1.3,0.4
		c-0.5,0.1-0.9,0.1-1.3,0c-0.4-0.1-0.8-0.3-1.1-0.5c-0.3-0.3-0.5-0.5-0.7-0.9c-0.2-0.3-0.3-0.7-0.3-1.1c0-0.4,0-0.8,0.1-1.2
		c0.1-0.4,0.3-0.9,0.5-1.3c0.2-0.4,0.5-0.8,0.9-1.2c0.3-0.3,0.7-0.6,1.2-0.8c0.4-0.2,0.9-0.2,1.4-0.1c0.4,0.1,0.8,0.3,0.9,0.7
		c0.2,0.3,0.2,0.7,0.1,1.2c-0.1,0.4-0.3,0.7-0.5,1.1c-0.3,0.3-0.6,0.6-0.9,0.8c-0.3,0.2-0.7,0.4-1.1,0.5c-0.4,0.1-0.8,0.1-1.2,0.1
		c0,0.4,0.1,0.8,0.3,1c0.2,0.3,0.5,0.5,0.9,0.5c0.4,0.1,0.7,0.1,1,0c0.3-0.1,0.6-0.2,0.9-0.3c0.3-0.2,0.6-0.3,0.9-0.6
		c0.3-0.2,0.5-0.4,0.8-0.6c0.1-0.1,0.2-0.1,0.2-0.2c0.1,0,0.1,0,0.3,0c0.2,0,0.3,0.1,0.3,0.2s0.1,0.3,0.1,0.4
		C119.3,25.3,119.2,25.4,119.2,25.5z M115.9,21.9c0-0.2-0.1-0.3-0.2-0.3c-0.2,0-0.4,0-0.6,0.1c-0.2,0.1-0.4,0.3-0.6,0.4
		c-0.2,0.2-0.3,0.4-0.4,0.6c-0.1,0.2-0.2,0.4-0.3,0.6c0.1,0.1,0.2,0.1,0.3,0.1c0.2,0,0.4,0,0.5,0c0.2,0,0.4-0.1,0.6-0.2
		s0.3-0.2,0.5-0.4c0.1-0.1,0.2-0.3,0.3-0.5C116,22.2,116,22.1,115.9,21.9z"/>
	<path id="XMLID_16_" class="st0" d="M130.3,19.8c-0.2,0.5-0.4,1-0.5,1.6c-0.3,1-0.7,2.1-1,3.2c-0.3,1.1-0.6,2.1-0.8,3.2l-0.1,0.4
		c0,0.2-0.1,0.3-0.1,0.6c0,0.2-0.1,0.4-0.1,0.7c0,0.2,0,0.5,0,0.7c0,0.2,0,0.4,0.1,0.6c0,0.1,0.1,0.2,0.1,0.3c0,0.1,0,0.2,0,0.3
		c0,0.2-0.2,0.4-0.3,0.5c-0.2,0.1-0.4,0.2-0.6,0.1c-0.3-0.1-0.5-0.3-0.6-0.6c-0.1-0.3-0.1-0.7-0.1-1.2c0-0.4,0.1-0.9,0.1-1.3
		c0.1-0.4,0.1-0.7,0.2-1c0.3-1.4,0.6-2.7,1-4c0.4-1.3,0.8-2.6,1.2-3.9c-0.1,0.1-0.2,0.2-0.4,0.3c-0.1,0.1-0.3,0.1-0.4,0.1
		c-0.2,0-0.4-0.2-0.5-0.4c-0.1-0.2-0.1-0.4-0.1-0.6c0-0.1,0.2-0.3,0.4-0.6s0.5-0.5,0.8-0.7c0.3-0.2,0.6-0.4,0.9-0.6
		c0.3-0.1,0.5-0.2,0.7-0.2c0.3,0.1,0.4,0.2,0.5,0.4c0.1,0.2,0.1,0.4,0,0.7C130.7,18.7,130.5,19.3,130.3,19.8z"/>
	<path id="XMLID_18_" class="st0" d="M141.7,30.1c-0.5,0.8-1.1,1.4-1.8,1.9c-0.7,0.5-1.5,0.9-2.4,1.1c-0.9,0.2-1.8,0.2-2.8,0
		c-0.8-0.2-1.4-0.5-2-1s-1.1-1.1-1.4-1.8c-0.4-0.7-0.6-1.4-0.7-2.2c-0.1-0.8-0.1-1.5,0-2.3c0.2-1,0.6-1.9,1.1-2.7
		c0.5-0.9,1.2-1.6,1.9-2.2s1.6-1,2.5-1.3c0.9-0.3,1.9-0.3,3-0.1c0.9,0.2,1.7,0.6,2.3,1.1c0.6,0.5,1,1.2,1.3,1.9
		c0.3,0.7,0.4,1.5,0.4,2.4c0,0.9-0.1,1.7-0.3,2.5C142.6,28.5,142.2,29.3,141.7,30.1z M141.6,25.4c0-0.7-0.1-1.3-0.3-2
		c-0.2-0.6-0.6-1.1-1-1.6c-0.5-0.5-1-0.8-1.8-0.9c-0.8-0.2-1.5-0.1-2.3,0.1s-1.4,0.6-2,1.1c-0.6,0.5-1.1,1.1-1.5,1.8
		c-0.4,0.7-0.7,1.4-0.9,2.1c-0.1,0.6-0.1,1.2,0,1.8c0.1,0.6,0.3,1.2,0.6,1.8c0.3,0.6,0.7,1.1,1.2,1.5c0.5,0.4,1,0.7,1.6,0.8
		c0.8,0.2,1.5,0.2,2.2,0c0.7-0.2,1.3-0.5,1.8-0.9c0.5-0.4,1-0.9,1.4-1.6c0.4-0.6,0.6-1.3,0.8-2.1C141.6,26.7,141.6,26.1,141.6,25.4z
		"/>
	<path id="XMLID_21_" class="st0" d="M153.5,27.1c-0.3,0.4-0.6,0.8-0.9,1.2c-0.3,0.4-0.7,0.7-1.1,1.1c-0.4,0.3-0.7,0.7-1,0.9
		c-0.2,0.2-0.5,0.5-0.8,0.9c-0.4,0.4-0.7,0.8-1.1,1.2c-0.4,0.4-0.7,0.8-0.9,1.2c-0.3,0.4-0.4,0.7-0.5,1c0,0.1,0,0.2,0.1,0.3
		s0.1,0.1,0.2,0.2c0.1,0.1,0.2,0.1,0.2,0.2c0.1,0.1,0.1,0.2,0,0.4c-0.1,0.2-0.2,0.4-0.4,0.5c-0.2,0.1-0.4,0.1-0.6,0.1
		c-0.2,0-0.4-0.1-0.5-0.3c-0.1-0.1-0.2-0.3-0.3-0.5c-0.1-0.2-0.1-0.4-0.1-0.6c0-0.2,0-0.4,0.1-0.6c0.1-0.5,0.4-1,0.7-1.6
		c0.4-0.5,0.8-1,1.3-1.6c0.5-0.5,1-1,1.5-1.5c0.5-0.5,1-1,1.5-1.4c0.5-0.5,0.9-0.9,1.2-1.3c0.3-0.4,0.5-0.8,0.6-1.2
		c0.1-0.4,0-0.6-0.2-0.8c-0.2-0.2-0.5-0.3-0.8-0.4c-0.3-0.1-0.7-0.2-1-0.2c-0.4,0-0.6-0.1-0.8-0.2c-0.1,0.3-0.3,0.6-0.6,1
		c-0.3,0.4-0.6,0.7-1,1c-0.4,0.3-0.7,0.5-1.1,0.7c-0.4,0.2-0.8,0.2-1.1,0.1c-0.4-0.1-0.6-0.3-0.8-0.6s-0.1-0.7-0.1-1
		c0.1-0.4,0.3-0.8,0.5-1.3c0.3-0.5,0.6-0.9,1-1.3c0.4-0.4,0.8-0.7,1.3-0.9c0.4-0.2,0.9-0.3,1.3-0.2c0.7,0.2,1.1,0.6,1.1,1.3
		c0,0,0,0,0.2,0.1c0.1,0,0.2,0.1,0.4,0.1c0.1,0,0.3,0.1,0.4,0.1c0.1,0,0.2,0,0.2,0c0.4,0.1,0.8,0.2,1.1,0.3c0.4,0.1,0.7,0.3,0.9,0.5
		c0.3,0.2,0.4,0.5,0.6,0.8c0.1,0.3,0.1,0.7,0,1.2C154,26.3,153.8,26.7,153.5,27.1z M148.6,23.3c0-0.1,0-0.1-0.1-0.1
		c-0.1,0-0.3,0-0.5,0.2c-0.2,0.2-0.4,0.4-0.6,0.6c-0.2,0.2-0.4,0.5-0.6,0.7s-0.3,0.4-0.3,0.6c0,0.1,0,0.1,0,0.2l0.1,0
		c0.2,0,0.3,0,0.6-0.2c0.2-0.1,0.4-0.3,0.6-0.5c0.2-0.2,0.4-0.4,0.5-0.7c0.2-0.2,0.2-0.4,0.3-0.6C148.5,23.4,148.6,23.3,148.6,23.3z
		 M154.8,34.5c-0.3,0.4-0.6,0.7-1,1s-0.8,0.5-1.3,0.6c-0.5,0.1-0.9,0.1-1.4,0c-0.5-0.1-0.8-0.3-1-0.7c-0.2-0.3-0.3-0.7-0.1-1.2
		c0.1-0.4,0.3-0.8,0.5-1.2s0.6-0.7,1-1s0.8-0.5,1.2-0.6c0.4-0.1,0.9-0.2,1.3-0.1c0.5,0.1,0.9,0.3,1.2,0.7c0.3,0.3,0.4,0.8,0.3,1.3
		C155.2,33.7,155.1,34.1,154.8,34.5z M153.3,32.6c-0.2,0-0.4,0-0.6,0.1c-0.2,0.1-0.4,0.3-0.6,0.4c-0.2,0.2-0.3,0.4-0.4,0.6
		c-0.1,0.2-0.2,0.4-0.2,0.6c0,0.1,0,0.3,0,0.4c0,0.1,0.1,0.2,0.3,0.3c0.2,0,0.4,0,0.7-0.1s0.4-0.2,0.6-0.4c0.2-0.2,0.4-0.3,0.5-0.6
		c0.1-0.2,0.2-0.4,0.3-0.6C153.8,32.9,153.7,32.6,153.3,32.6z"/>
</g>
<path id="XMLID_1_" class="st1" d="M20.3,54.8"/>
<path id="XMLID_26_" class="st1" d="M110.8,32c0,0,11.2,21.7-15.7,30.1"/>
</svg>
