<?xml version="1.0" encoding="utf-8"?>
<!-- Generator: Adobe Illustrator 19.0.0, SVG Export Plug-In . SVG Version: 6.00 Build 0)  -->
<svg version="1.1" xmlns="http://www.w3.org/2000/svg" xmlns:xlink="http://www.w3.org/1999/xlink" x="0px" y="0px"
	 viewBox="0 0 580 370" style="enable-background:new 0 0 580 370;" xml:space="preserve">
<style type="text/css">
	.st0{fill:#FFFFFF;}
	.st1{font-family:'BebasNeueRegular';}
	.st2{font-size:29.3078px;}
	.st3{fill:#353535;}
	.st4{fill:#046648;}
	.st5{fill:#068460;}
	.st6{fill:#FABB86;}
	.st7{fill:#068963;}
	.st8{fill:#06F4B6;}
	.st9{fill:#00B289;}
	.st10{fill:#08724F;}
	.st11{fill:#059972;}
	.st12{fill:#303030;}
	.st13{fill:#8C8C8C;}
	.st14{fill:#515151;}
	.st15{fill:#048C65;}
	.st16{fill:#04A077;}
	.st17{fill:#DBDBDB;}
	.st18{fill:#545454;}
	.st19{fill:#999999;}
	.st20{fill:#CE8757;}
	.st21{fill:#D67838;}
	.st22{fill:#E5A576;}
	.st23{fill:#ADADAD;}
	.st24{fill:#6D6D6D;}
	.st25{fill:#A3A3A3;}
	.st26{fill:#F9AE7A;}
	.st27{fill:#B7B7B7;}
</style>
<g id="BACKGROUND">
	<rect x="40" y="-65" class="st0" width="500" height="500"/>
</g>
<g id="OBJECTS">
	<text transform="matrix(1 0 0 1 237.2759 378.5088)" class="st0 st1 st2">TEAM WORK</text>
	<g>
		<g>
			<g>
				<rect x="282.4" y="298.8" class="st3" width="4.3" height="49"/>
				<path class="st3" d="M316.4,298.8c0,1.6-1.3,2.9-2.9,2.9H255c-1.6,0-2.9-1.3-2.9-2.9l0,0c0-1.6,1.3-2.9,2.9-2.9h58.6
					C315.1,295.9,316.4,297.2,316.4,298.8L316.4,298.8z"/>
			</g>
			<g>
				<path class="st4" d="M262.8,277.3c0,0-4.2,2.5-5.8,8c-1.6,5.4,2.3,17.3,10.2,17.9c13.5,0.9,14.9-6.2,24.2-1.5s18.1,1.5,19.5-2.4
					c1.3-3.9,7.3-20.4-9.3-21.5C283.2,277,262.8,277.3,262.8,277.3z"/>
				<g>
					<path class="st5" d="M264.8,217.5c0,0,2-12.4,8.9-13.6c6.9-1.3,16.6,1.4,16.6,1.4s7.3,6.3,9.6,11.2
						C302.2,221.4,269.9,226.4,264.8,217.5z"/>
					<g>
						<path class="st6" d="M273.3,181.9c0,0,7,1.4,9.1-1.8c2.1-3.2,4.1-1.6,6.8,1.9c2.7,3.5,7.2,10.8,7.7,16.7
							c0.7,3.4-0.6,5.6-0.6,5.6s-1,1.3-3,1.3c-2,0.1-4.2,3.1-4.2,7.9c0,6-3,6.7-3,6.7s-11.4,3.9-11.8-6.2c-0.2-6,0.5-7.1-0.2-8.9
							c-0.6-1.8-4.7-1.8-6.9-5.1C265.1,196.7,258.6,183.3,273.3,181.9z"/>
						<path class="st7" d="M288.6,174.8c0,0,1.2,4,0,6.4c-0.6,1.1-4.6,4.5-8.1,4.4c-3.5-0.1-6.2,1-6.2,1h3.9c0,0,1.1,2.8,1.6,4.7
							s-1.6,2.1-1.3,3.7c0.3,1.6,2.5,4.6,2.5,4.6l-2.1,1.1c0,0-2.3-5-4-5.4c-2.6-0.6-4.5,2.2-2.5,4.3c2.3,2.4,3,2.8,2,9.2
							c-0.5-2.4-6.9-4.4-10.5-11.1c-3.6-6.7-1.4-11.9,1.5-14.4c-0.3-3.9,4.3-7,7.4-6.6c3.2,0.3,6-3.3,6-3.3s-0.3,2-1.6,2.8
							c1.4,0.2,2.5-1.5,2.5-1.9c0.3,0.9-0.4,1.9-0.4,1.9s2.6,0,3.3-1.4c0.1,0.4-0.3,1.4-0.7,1.6c1.1,0.1,2.2,0,3.1-1.3
							c0.1,0.8-0.3,1.6-1.3,2.1c2.1,0.3,3.1-2,3.2-2.5c0.2,0.8-0.1,2.5-0.6,3.3C287.4,178.1,288.4,176.2,288.6,174.8z"/>
					</g>
					<path class="st8" d="M314.1,248.7c-2.6-9.3-8-29.1-9.8-30.1c-1.9-1-5.5-1.2-9.3-2.4c-3.9-1.2-5.7-4.3-5.7-4.3
						c-1,6.8-4.2,8.2-7.4,8.4c-3.8-0.3-6.5-1.9-7.5-8.8c0,0-1.7,3.5-5.6,4.7c-3.9,1.2-7.5,1.4-9.3,2.4c-1.9,1-7.3,20.8-9.8,30.1
						c-2.6,9.3-3.6,11.4,0,13c2.3,1,8.5,1.8,12.4,2.2c-0.1,5.4-0.1,10.2,0.1,12.7c12.5,5.3,28.1,7.2,39.6,0
						c0.2-2.5,0.2-7.3,0.1-12.7c3.9-0.4,10-1.2,12.4-2.2C317.7,260.2,316.7,258,314.1,248.7z M262.2,255.6c-2-0.2-3.9-0.4-4.2-0.6
						c-0.8-0.4,4.7-15.2,4.7-15.2S262.4,247.3,262.2,255.6z M305.8,255c-0.4,0.2-2.2,0.4-4.2,0.6c-0.2-8.4-0.5-15.8-0.5-15.8
						S306.6,254.6,305.8,255z"/>
					<path class="st9" d="M314.1,248.7c-2.6-9.3-8-29.1-9.8-30.1c-1.9-1-4.9-2.7-8.8-3.8c-0.5-0.1-1.8-1.1-2.2-1.3
						c-4.7,22.3-2.8,65.7,0.9,71.3c4.5-2.6,7.5-6,13.5-5.6c1.3,0.1-5.8-8.3-5.9-15.2c3.9-0.4,10-1.2,12.4-2.2
						C317.7,260.2,316.7,258,314.1,248.7z M305.8,255c-0.4,0.2-2.2,0.4-4.2,0.6c-0.2-8.4-0.5-15.8-0.5-15.8S306.6,254.6,305.8,255z"
						/>
					<path class="st5" d="M295.8,213.5c-0.5-0.1-2.1,0.2-2.6,0c-1.4,6.7-2.4,13.7-3,20.8c2.2-6.7,5.7-12.5,9.6-17.8
						C298.6,215.9,297.5,214,295.8,213.5z"/>
					<path class="st9" d="M271.7,213c-0.8,0.6-2.5,2.1-3.7,2.5c-3.9,1.2-6.7,2.3-8.5,3.2c-1.9,1-7.3,20.8-9.8,30.1
						c-2.6,9.3-3.6,11.4,0,13c2.3,1,8.5,1.8,12.4,2.2c-0.1,6.9-6.7,15.7-4.7,20.3c0,0,1.2-6.6,16.9,0
						C279.1,271.9,278.9,235.5,271.7,213z M262.2,255.6c-2-0.2-3.9-0.4-4.2-0.6c-0.8-0.4,4.7-15.2,4.7-15.2S262.4,247.3,262.2,255.6
						z"/>
					<path class="st5" d="M271.7,213c-0.8,0.6-2.8,0.2-3.9,0.6c-1,0.3-1.7,2.5-2.5,2.8c4.5,4.6,8.1,9.6,10.8,15.1
						C275,225.2,273.6,219,271.7,213z"/>
				</g>
				<g>
					<path class="st10" d="M283.2,348.1c0,0,12.6-22.7,18.7-32.4c6.1-9.7,11.3-19.4,11.1-26.1c-0.2-6.7-1.7-8.1-4.5-8.9
						c-2.8-0.8-9.1,1.6-11.9,5.5c-2.8,4-8.3,21.4-14,38l-7.1,20.6C275.4,344.8,278,348.1,283.2,348.1z"/>
					<path class="st11" d="M276.7,340.4c0,0-5,8.9-9.3,11.9c-4.4,3-8.8,4.5-10.8,8c-0.6,2.3,17.2,1.7,23.3-1.5
						c2.8-1.4,4.2-8,5.6-13.6C286.7,339.6,276.7,340.4,276.7,340.4z"/>
					<path class="st11" d="M289.2,339.3c0,0-8.9,1-10.4-5.5c-2.2,2.1-5.3,6.1-5.3,6.1s4.1,6.6,13.7,6.3
						C288.3,344,289.2,339.3,289.2,339.3z"/>
				</g>
				<g>
					<path class="st5" d="M286.3,348.1c0,0-12.6-22.7-18.7-32.4c-6.1-9.7-11.3-19.4-11.1-26.1c0.2-6.7,1.7-8.1,4.5-8.9
						c2.8-0.8,9.1,1.6,11.9,5.5c2.8,4,8.3,21.4,14,38l7.1,20.6C294.1,344.8,291.6,348.1,286.3,348.1z"/>
					<path class="st9" d="M292.8,340.4c0,0,5,8.9,9.3,11.9c4.4,3,8.8,4.5,10.8,8c0.6,2.3-17.2,1.7-23.3-1.5c-2.8-1.4-4.2-8-5.6-13.6
						C282.8,339.6,292.8,340.4,292.8,340.4z"/>
					<path class="st9" d="M280.8,338.3c0,0,8.3,3,9.8-3.6c2.4,0,5.5,5.2,5.5,5.2s-4.1,6.6-13.7,6.3
						C280,342.7,280.8,338.3,280.8,338.3z"/>
				</g>
			</g>
			<g>
				<path class="st9" d="M174.5,340.6c0,0-1.6,4.9,0.9,12.2c1.7,2.8,13.2,6.9,13.2,6.9s1.9,3.3-9.9,2.6
					c-6.1-0.3-14.8-11.4-16.5-14.7c-1.7-3.3,0.7-4.6,2.8-5.6c2.1-1,3.5-3,3.5-3S173.6,338.7,174.5,340.6z"/>
				<path class="st4" d="M148.5,289.7c0,0,2.8-3.6-2.3,5.1c-5.1,8.7,49.6-6.2,50.8-3.3c-1.4,4.4-7.7-0.2-14.1,17.4
					c-6.1,16.7-15.4,30.4-15.4,30.4l7.4,6c0,0,12.8-17.1,24.9-31.1c12.1-14,18.8-26.3,12.6-31.1c0,0,0.8-5.5-54.2,3.3
					C149.3,287.7,148.5,289.7,148.5,289.7z"/>
			</g>
			<g>
				<rect x="198" y="266.6" class="st12" width="41.2" height="0.9"/>
				<path class="st13" d="M252.2,227.1c0.1-0.4,0.6-0.7,1-0.5l0,0c0.4,0.1,0.7,0.6,0.5,1l-12.3,40c-0.1,0.4-0.6,0.7-1,0.5l0,0
					c-0.4-0.1-0.7-0.6-0.5-1L252.2,227.1z"/>
				<path class="st14" d="M196.6,267.2c0,0.1,0,0.2,0,0.4c0,1.2,0.8,2.1,1.7,2.1h40.1c0.9,0,1.7-1,1.7-2.1c0-0.1,0-0.2,0-0.4H196.6z
					"/>
			</g>
			<g>
				<g>
					<path class="st15" d="M370.5,340.9c0,0-1.4,7.3-10.4,12c-9,4.7-0.7,6.9,7.7,5.6s9.5-6.1,12.2-7.7c2.6-1.6-0.5-6-1.4-8.9
						C377.7,338.8,370.5,340.9,370.5,340.9z"/>
					<path class="st15" d="M336.9,342.1c0,0-3.5,6.5-13.5,8.2c-10,1.7-2.8,6.4,5.6,7.7c8.3,1.3,10.9-2.9,13.9-3.6
						c3-0.7,1.4-5.9,1.4-8.9C344.4,342.3,336.9,342.1,336.9,342.1z"/>
					<path class="st16" d="M330.4,233.6c0,0-1.1,33.7,0.3,51.4c1.5,17.7,3.6,43.8,2,59.8c8.2,1.4,12.9,0,12.9,0s3.5-30.6,3.6-45.3
						c0.2-14.7,4.3-36.3,5.2-38.8c3,10.2,12.7,71.8,14.2,82.3c8.1,0.6,10.8-1.2,10.8-1.2s-0.2-31.5-3.3-48
						c-3.1-16.5-0.1-52.3-3.9-65.8C356.9,221,330.4,233.6,330.4,233.6z"/>
					<path class="st9" d="M336.3,162c0,0-5.7,2.1-9,4c-3.3,1.9-14.2,29.8-18.1,35.4c-3.8,5.5-24.3,30-24.3,30v8.1
						c0,0,20-14.6,31.7-28.2c5.7-6.6,13.4-19.1,13.4-19.1s5,22.3-2.6,47.1c24.6,7.2,47-1,47-1s-3.9-18.2-3.4-52.6l5.3,25l4.7,31.5
						l8.1-6.3c0,0-0.7-26.9-3.3-37.2c-8.1-25.6-15.1-36.2-20.6-39.5c-5.5-3.3-13-4.4-17.5-3.9C343,155.8,336.3,162,336.3,162z"/>
				</g>
				<g>
					<g>
						<path class="st6" d="M325.6,132.1c0,0-3.8,6-7.6,5.4c-3.8-0.6-4,1.9-3.3,6.2c0.7,4.3,2.9,12.7,6.8,17.1c2,2.8,4.5,3.5,4.5,3.5
							s1.6,0.2,3-1.2c1.4-1.4,5.1-0.9,8.6,2.4c4.3,4.1,8.4-2.5,8.4-2.5s3.8-6.2,2.1-7.8c-4.3-4.3-5.5-4.6-6.3-6.2
							c-0.9-1.7,1.9-4.7,1.1-8.6C342,136.4,336.8,122.5,325.6,132.1z"/>
					</g>
					<path class="st7" d="M315.3,140.9c0,0,3.3,1.5,8.7-0.1c6-1.8,6.9-2.9,7.5,0c0.6,2.9,1.5,3.3,3.1,3.8c1.6,0.6,2.5,3.9,2.5,3.9
						l1.5-1.5c0,0-1.1-1.8-0.9-4.3s2.7-2.7,3.8-0.5c1.2,2.2-1.4,5.4,1.5,8c1-4.6,2.2-13.9-4.3-19.9c-6.5-6-21.3,0.2-22.9,4.2
						C314.2,138.6,315.6,140.2,315.3,140.9z"/>
					<path class="st9" d="M314.8,144.4c0,0,5.5-3.1,15-3.7c8.7-0.5,13.9,2.1,13.9,2.1s1.3-9.7-4.1-14c-5.4-4.3-17-3.6-21.9,0
						C312.7,132.4,313,138.2,314.8,144.4z"/>
					<path class="st16" d="M331.5,140.6c0,0-9.9-2.4-17.1-1.9s-14.6,5.6-10.1,9.1c4.5,3.5,11.9,2.6,11.9,2.6s-1.1-4.4-1-5.2
						C318.7,142.3,329.1,140.6,331.5,140.6z"/>
				</g>
			</g>
			<g>
				<path class="st17" d="M310.8,265.3c0,0.9-0.7,1.6-1.6,1.6h-53.6c-0.9,0-1.6-0.7-1.6-1.6v-34.6c0-0.9,0.7-1.6,1.6-1.6h53.6
					c0.9,0,1.6,0.7,1.6,1.6V265.3z"/>
				<path class="st14" d="M310.8,269.4c0,0.2-0.3,0.3-0.7,0.3h-55.3c-0.4,0-0.7-0.1-0.7-0.3v-2.1c0-0.2,0.3-0.3,0.7-0.3h55.3
					c0.4,0,0.7,0.1,0.7,0.3V269.4z"/>
			</g>
			<g>
				<path class="st9" d="M398.4,332.2c0,0,2.3,4.4,1.2,11.8c-1.2,3-13,9.6-13,9.6s0,2.5,11.4,1.2c7.5-0.8,12.3-14.5,13.4-17.9
					c1.1-3.4-1.4-4.3-3.6-4.9c-2.2-0.6-3.9-2.3-3.9-2.3S398.9,330.2,398.4,332.2z"/>
				<path class="st4" d="M416.6,277.1c0,0-3.3-3,3.1,4.5c6.4,7.5-48.5,2.3-49.2,5.3c2.1,3.9,7.3-1.5,16.4,14.3
					c8.6,15,19.9,29.6,19.9,29.6l-7.8,5.7c0,0-13.6-16-27.5-27.4c-13.9-11.4-22.4-22-17.2-27.7c0,0-1.6-5.2,52.5-5.9
					C415.5,275.3,416.6,277.1,416.6,277.1z"/>
			</g>
			<g>
				<g>
					<path class="st3" d="M409.3,355.8c0,0-30.4,3.7-31.2,3.8c-0.8,0.1-1-2.6,2.6-3.8c3.6-1.2,25.6-5.1,25.6-5.1L409.3,355.8z"/>
					<path class="st3" d="M409.3,355.8c0,0,30.4,3.7,31.2,3.8c0.8,0.1,1-2.6-2.6-3.8c-3.6-1.2-25.6-5.1-25.6-5.1L409.3,355.8z"/>
					<rect x="405.3" y="309" class="st18" width="7.9" height="47.3"/>
				</g>
				<rect x="403.3" y="302.3" class="st3" width="11.9" height="8.1"/>
				<g>
					<polygon class="st3" points="375.9,304.8 441.4,304.7 461,225.5 457.5,224.6 438,300.3 376,300.4 					"/>
					<path class="st18" d="M457.3,225.5c0,0-9.6-2.4-11.4,13s-6.5,44.9-10.3,49.6c-3.8,4.7,1.1,10.9,2.4,12.2
						C440.8,289.3,457.3,225.5,457.3,225.5z"/>
					<path class="st18" d="M377.7,300.4H438c0,0-0.7-6.8-7.2-6.8c-6.5,0-21.2,4.7-27.4,3.7C397.3,296.2,377,290.2,377.7,300.4z"/>
				</g>
			</g>
			<g>
				<g>
					<g>
						<path class="st9" d="M340.4,347.8c0,0-7.7,5.8-22.3,7.9c-7.5,0.8-8.6,1.3-8.6,1.3s-1.4,3.4,4.4,3.8c5.7,0.4,23.2,0.9,26.7,0.7
							c3.6-0.2,3.5-2.8,3.3-5.1c-0.2-2.3,0.8-4.4,0.8-4.4S342.4,347.6,340.4,347.8z"/>
						<path class="st5" d="M433.6,276.4c0,0,5.7,8.3-0.1,16.2c-5.8,7.9-54.1,9.5-57.1,9.6c-3.3,2.9,3.2,12.2-10.1,24.7
							c-12.6,11.9-21.3,25.5-21.3,25.5l-8.2-4.3c0,0,10.3-23.5,18.2-39.7c7.9-16.2,12.4-25.3,20.1-25.4l35.3-7.5
							C418.9,273.1,433.6,276.4,433.6,276.4z"/>
						<path class="st19" d="M435.3,276.4l0.1,4.5c0,0-11.5-7.9-26.3-7.1c0.8-1.8,1.3-3.5,1.3-3.5L435.3,276.4z"/>
						<g>
							<path class="st6" d="M401.3,186.5c0,0-2.2,8-0.7,10.3c-1.4,3.3-2.7,5.1-2.7,5.1l3,1.6c0,0,1.2,2.5,0.9,3.5
								c-0.4,1-0.7,2.3,1,3.6c1.7,1.2,8.8,0.3,8.8,0.3s1.1,4.6,1.6,7.5c0.5,2.9,9.7,0.2,9.7,0.2l-1.2-9.7c0,0,5.7-11,5.9-17.6
								c0.3-6.6-5.3-12.6-11.8-12.8C409.4,178.3,402.2,182,401.3,186.5z"/>
							<path class="st7" d="M406.2,206.8c0,0-1.1-3.2-2-3.8c-1-0.6-2.8,0.5-3.7,0.1c-1-0.4,0,1.5,0.6,1.8c0.9-0.4,1.9-0.7,3-0.2
								c1.1,0.5,1.5,2.5,1.2,3c-0.3,0.5-1.1,1.4-2.1,0.9c-1.1-0.6-1.4-1-1.3-1.6c-0.7,0.2-1.1,1.4-0.7,3.1c0.4,1.7,2.8,1.8,2.8,1.8
								l5.7-0.9C409.6,211.1,406.2,209.6,406.2,206.8z"/>
							<path class="st7" d="M401,195.6c0,0-0.3-1.7,0.4-2.3c0.7-0.6,4.8,2.2,6.3,1.9C405.2,196,401.3,194.5,401,195.6z"/>
						</g>
						<path class="st16" d="M422.3,213.7c0,0-5.1,7.7-8.7,4.7c-1.3,2.1-7.2,12.6-8.3,17.6c-1.1,5-2,12.1-0.5,18.7
							c1.4,6.6-1.6,15.5-3.3,20.7c8.3,0,33.4,5,36.6,8.8c-0.2-7.8-0.2-15.4,0.6-21C440,253.5,441.1,222.5,422.3,213.7z"/>
					</g>
					<path class="st6" d="M433.2,260.7c0,0-4.6-22.9-7.4-28.6c-2.8-5.6-1.9-9.1,3.3-8.4c5.1,0.7,7.1,6.4,7.1,6.4s6.5,27.6,5,35.8
						c-1.6,8.2-16.1,3.5-23.6,3.5c-7.5-0.1-20.9,0-20.9,0l-4-4.9C396.3,262.1,433.2,260.7,433.2,260.7z"/>
					<path class="st9" d="M427.8,219.9c-5.1-0.7-6.8,6.3-4,11.9c1.2,2.4,2.6,7.5,3.9,12.6c3.5-2.1,7.5-3.3,11.6-3.9
						c-1.4-6.8-2.8-12.2-2.8-12.2S432.9,220.6,427.8,219.9z"/>
				</g>
				<path class="st7" d="M401.8,184.9c0,0,7.5,0.7,11.1,1.9s1.2,4.1,0.7,4.5s-1.2,2.9,0.2,4.4c1.4,1.5,1.1,3.5,1.1,3.5h1.5
					c0,0,0.2-4.7,3-3.9c2.8,0.8,1.3,3.7,1.3,5.7c0,2,0.1,7.2,0.9,8.1c1.7-2.6,6.5-12.7,6.4-19.1c-0.1-6.4-5.9-11.4-12.1-11.9
					C409.7,177.6,402.8,181.6,401.8,184.9z"/>
			</g>
			<g>
				<path class="st6" d="M377.6,237.3c0,0-3.3-2.9-5.1-5.9c-1.8-3-2.6-4.4-2.6-4.4s-5.7-2.8-7.1-3.3c-1.4-0.6-8.7,1-10.9,0.8
					c-0.6,1.2,2.8,1.3,4.5,1.2c1.7-0.1,4,0,4,0l-3.7,1.3c0,0-1.7,3-2.1,3.3c0.3,0.6,1.3,0.7,2.8-1.7c1.4-0.8,4.7-0.4,4.7-0.4
					s-2.8,0.7-3.5,1c-0.6,0.3-2.3,2.3-2.3,2.3s-0.1,1.4,2.8-1c1.7-1.4,2.7-0.2,5,2.2c2.3,2.4,3.5,2.1,3.5,2.1l6.6,7.5l3.6-4.8"/>
				<g>
					<path class="st17" d="M414.9,266.1c0,0.7-0.6,1.3-1.3,1.3H370c-0.7,0-1.3-0.6-1.3-1.3V238c0-0.7,0.6-1.3,1.3-1.3h43.6
						c0.7,0,1.3,0.6,1.3,1.3V266.1z"/>
					<path class="st14" d="M414.9,269.4c0,0.2-0.3,0.3-0.6,0.3h-45.1c-0.3,0-0.6-0.1-0.6-0.3v-1.7c0-0.2,0.3-0.3,0.6-0.3h45.1
						c0.3,0,0.6,0.1,0.6,0.3V269.4z"/>
				</g>
			</g>
			<g>
				<rect x="214" y="274.3" class="st20" width="5.7" height="87.5"/>
				<path class="st21" d="M223.7,361.7c0,0.4-0.3,0.6-0.6,0.6h-12.5c-0.4,0-0.6-0.3-0.6-0.6l0,0c0-0.4,0.3-0.6,0.6-0.6h12.5
					C223.4,361.1,223.7,361.4,223.7,361.7L223.7,361.7z"/>
			</g>
			<g>
				<g>
					<g>
						<path class="st3" d="M160.3,361.9c0,0,30.4,3.7,31.2,3.8c0.8,0.1,1-2.6-2.6-3.8c-3.6-1.2-25.6-5.1-25.6-5.1L160.3,361.9z"/>
						<path class="st3" d="M160.3,361.9c0,0-30.4,3.7-31.2,3.8c-0.8,0.1-1-2.6,2.6-3.8c3.6-1.2,25.6-5.1,25.6-5.1L160.3,361.9z"/>
						<rect x="156.4" y="315.2" class="st18" width="7.9" height="47.3"/>
					</g>
					<rect x="154.4" y="317.6" class="st3" width="11.9" height="8.1"/>
					<polygon class="st3" points="193.7,320.1 128.2,320 108.6,240.9 112.1,240 131.6,315.6 193.6,315.8 					"/>
					<path class="st18" d="M112.3,240.9c0,0,9.6-2.4,11.4,13c1.8,15.4,6.5,44.9,10.3,49.6c3.8,4.7-1.1,10.9-2.4,12.2
						C128.8,304.7,112.3,240.9,112.3,240.9z"/>
					<path class="st18" d="M191.9,315.8h-60.3c0,0,0.7-6.8,7.2-6.8c6.5,0,21.2,4.7,27.4,3.7C172.3,311.5,192.6,305.6,191.9,315.8z"
						/>
				</g>
				<g>
					<path class="st22" d="M206.6,257.8c0,0,4.2-1.3,7.1-3.2c2.9-2,4.2-2.9,4.2-2.9s6.4-0.1,7.9-0.1c1.5,0,7.5,4.5,9.6,5.3
						c0,1.4-3.1,0-4.6-0.8c-1.5-0.8-3.7-1.7-3.7-1.7l2.8,2.7c0,0,0.3,3.4,0.6,3.9c-0.6,0.4-1.5,0.1-1.8-2.7c-1-1.3-4.1-2.3-4.1-2.3
						s2.3,1.8,2.7,2.3c0.4,0.5,1.1,3.1,1.1,3.1s-0.5,1.3-2.2-2.1c-0.9-1.9-2.3-1.3-5.5-0.1c-3.1,1.2-4,0.5-4,0.5l-9.1,4l-1.2-5.9"/>
					<path class="st9" d="M245.4,347c0,0,8.3,6.6,24.2,9.4c8.2,1.1,9.3,1.7,9.3,1.7s1.4,3.8-4.9,4c-6.3,0.2-25.3,0.3-29.2,0
						c-3.9-0.3-3.8-3.2-3.5-5.7c0.3-2.5-0.7-4.9-0.7-4.9S243.2,346.6,245.4,347z"/>
					<path class="st5" d="M131.1,291.5c0,0-4.8,10,2.8,17.5c7.6,7.6,60.1,1.1,63.3,0.7c4.1,2.6-2.3,7.8,14.2,19.1
						c15.6,10.7,27.3,23.9,27.3,23.9l8.1-6.1c0,0-14.2-17.7-25.5-33.9c-11.3-16.2-17.7-25.2-26.1-24l-39.4-2.1
						C146.5,285.4,131.1,291.5,131.1,291.5z"/>
					<path class="st4" d="M130.3,289.8l-0.1,5.1c0,0,13-9,29.9-8.1c-0.9-2-1.5-4-1.5-4L130.3,289.8z"/>
					<path class="st9" d="M208.8,256.5c-13.1,0.7-38.2,3.3-38.2,3.3s-14.6-21-17-27.8c-2.4-6.8-9.4-10.9-12.9-6.2
						c-3.5,4.8,0,13.8,0,13.8s16.9,25.2,24.8,30.3c7.9,5.2,14.4,0.9,25.4-1.6c7.2-1.6,14.5-3.3,19.1-4.4
						C209.9,262.9,208.7,257.1,208.8,256.5z"/>
					<g>
						<path class="st6" d="M176.3,191.7c0,0,0.4,9.4-1.9,11.6c0.7,4,1.7,6.4,1.7,6.4l-3.8,1c0,0-2,2.5-1.8,3.6
							c0.1,1.2,0.2,2.8-2,3.7c-2.2,0.9-9.8-2-9.8-2s-2.4,4.8-3.7,7.9c-1.3,3-10.8-2.2-10.8-2.2l3.8-10.4c0,0-3.4-13.7-2-21.1
							c1.4-7.4,9.1-12.6,16.4-11.2C169.5,180.5,176.4,186.4,176.3,191.7z"/>
						<path class="st7" d="M159.7,190.8c0,0,1.2,2.9,6.8,3c5.6,0,7.5,1.9,6.7,3.4c1.6-0.9,1.1-2.7,1.1-2.7s2.6,1,2,3.9
							c0.8-0.7,1.4-3.3,0.5-5.5c0.8,0,1.4,1.4,1.8,2.8c0.1-1.3-1.4-9.6-7-13.2c1.7-0.1,2.3-1.4,2.1-2.8c-0.2,0.8-1.4,4.3-5.6,0.2
							c-4.2-4.1-12-3.5-14.7-0.9c0.5-1.8,2.4-3.1,3.8-3.4c-1-0.2-5.5,1.5-6.2,4.5c0-2.6,1.1-4.1,1.1-4.1s-2.5,1.5-2.8,4.7
							c-2-0.2-5.9,1.4-6.7,6.6c-0.8,5.2-3.1,8.1-3.5,7.5c1.2,0.5,2.9-0.8,3.3-1.3c-0.6,2.5-1.8,4.7-0.6,7.3c1.1,2.6,3.1,6.6,1.2,8.8
							c1.1-0.4,2-2.2,1.9-3.7c0.6,1.5-0.3,4.5,0.5,6.2c0.9,1.7-0.4,4.3-1.2,5c1.4-0.3,2.9-1.5,3.1-3.1c0.4,0,1,2.3,0.2,3.2
							c1-0.7,2.2-1.7,2.3-4.2c0.5,0.2,1.1,1.1,0.6,3c0.6-0.3,5.2-3.1,4.3-7.2c-0.9-4.1-0.3-8.5,0.2-9.5c0.8,0.5,0.7,3.2,0,5.1
							c0.9-0.4,2-2.6,1.9-4.6c1,0.4,1.5,2.6,0.9,3.2c0.8-1.1,1.1-3.4,0.6-4.5C157.8,197.3,162.3,197.3,159.7,190.8z"/>
						<path class="st7" d="M165.7,212.9c0,0,2-3.3,3.2-3.6c1.2-0.4,3,1.3,4.1,1.1c1.2-0.2-0.4,1.7-1.1,1.9c-0.9-0.6-1.9-1.2-3.2-1
							s-2.3,2.4-2.1,3c0.2,0.6,0.8,1.9,2.2,1.5c1.3-0.3,1.8-0.8,1.8-1.4c0.7,0.4,0.9,1.8,0,3.6c-0.9,1.8-3.6,1.3-3.6,1.3l-6.1-2.4
							C160.8,216.7,164.9,216,165.7,212.9z"/>
						<path class="st7" d="M174.3,201.9c0,0,0.8-1.8,0.1-2.7c-0.6-0.8-5.9,1.2-7.5,0.5C169.5,201.2,174.2,200.5,174.3,201.9z"/>
					</g>
					<path class="st9" d="M145,218.5c0,0,5.8,8.8,9.9,5.4c1.4,2.4,8.2,14.4,9.4,20.1c1.2,5.7-3.4,12.3-5,19.8s-0.9,16.8,1.1,22.7
						c-9.5,0-27.2,1.1-30.8,5.3c0.3-8.9,2-13.3,1.1-19.6C129.2,261.2,123.7,228.5,145,218.5z"/>
					<path class="st8" d="M129.9,266.2c0.1,1,0.2,1.9,0.4,2.8c8.9-3.5,19.4-3.5,28.4,0.1c0.1-1,0.2-2.1,0.3-3.1
						C149.8,262.7,139.2,263.7,129.9,266.2z"/>
					<path class="st8" d="M130.6,271.7c0,0.2,0,0.3,0.1,0.5c0.3,2,0.3,3.8,0.2,5.6c8.8-3.2,18.2-3.9,27.6-3.2c0-1.3,0-2.5,0-3.8
						C149.2,268.6,139.9,269.4,130.6,271.7z"/>
					<path class="st6" d="M207.8,260.2c0,0,4.4-0.7,7.5-2.2c3.1-1.5,4.6-2.3,4.6-2.3s6.3,0.8,7.8,1c1.5,0.3,6.8,5.5,8.7,6.6
						c-0.2,1.4-3.1-0.4-4.5-1.4c-1.4-1-3.4-2.2-3.4-2.2l2.4,3.1c0,0-0.2,3.4,0,3.9c-0.6,0.3-1.5-0.2-1.4-3c-0.8-1.4-3.8-2.9-3.8-2.9
						s2,2.1,2.4,2.7c0.4,0.6,0.7,3.2,0.7,3.2s-0.7,1.2-1.8-2.4c-0.7-2.1-2.1-1.6-5.4-0.8c-3.3,0.8-4.1-0.1-4.1-0.1l-9.6,2.7l-0.4-6"
						/>
					<path class="st8" d="M169.7,262.6c0,0-14.6-21-17-27.8c-2.4-6.8-9.4-10.9-12.9-6.2c-3.5,4.8,0,13.8,0,13.8s16.9,25.2,24.8,30.3
						c7.9,5.2,14.4,0.9,25.4-1.6c8.4-1.9,17.6-4,21.6-4.9l-0.9-7.2C198.3,259.6,169.7,262.6,169.7,262.6z"/>
					<g>
						<path class="st23" d="M157.9,195.4c-0.2,0.9-1.1,1.4-2,1.2l0,0c-0.9-0.2-1.4-1.1-1.2-2l4.6-18.6c0.2-0.9,1.1-1.4,2-1.2l0,0
							c0.9,0.2,1.4,1.1,1.2,2L157.9,195.4z"/>
						<circle class="st24" cx="155.3" cy="198.9" r="5.3"/>
					</g>
				</g>
			</g>
			<g>
				<path class="st17" d="M325.1,257.1v7c0,2.2,1.1,4.2,2.8,5.4h7.8c1.7-1.2,2.8-3.2,2.8-5.4v-7H325.1z"/>
				<path class="st25" d="M342.3,269.8c0,0.3-0.3,0.6-0.6,0.6h-19.3c-0.3,0-0.6-0.3-0.6-0.6l0,0c0-0.3,0.3-0.6,0.6-0.6h19.3
					C342,269.2,342.3,269.5,342.3,269.8L342.3,269.8z"/>
				<g>
					<path class="st17" d="M337.7,267.4c-0.4,0-0.6,0-0.6,0l0.2-0.9c0,0,1.1,0.2,2.8-0.4c1-0.4,1.6-3.4,1.3-5.1
						c-0.1-0.6-0.3-0.7-0.3-0.7h-3.8v-0.9h3.8c0.3,0,1,0.2,1.2,1.5c0.3,1.8-0.2,5.5-1.9,6.1C339.2,267.3,338.3,267.4,337.7,267.4z"
						/>
				</g>
			</g>
			<g>
				<path class="st17" d="M232.2,257.2v7c0,2.2,1.1,4.2,2.8,5.4h7.8c1.7-1.2,2.8-3.2,2.8-5.4v-7H232.2z"/>
				<path class="st25" d="M249.4,270c0,0.3-0.3,0.6-0.6,0.6h-19.3c-0.3,0-0.6-0.3-0.6-0.6l0,0c0-0.3,0.3-0.6,0.6-0.6h19.3
					C249.2,269.3,249.4,269.6,249.4,270L249.4,270z"/>
				<g>
					<path class="st17" d="M244.9,267.5c-0.4,0-0.6,0-0.6,0l0.2-0.9c0,0,1.1,0.2,2.8-0.4c1-0.4,1.6-3.4,1.3-5.1
						c-0.1-0.6-0.3-0.7-0.3-0.7h-3.8v-0.9h3.8c0.3,0,1,0.2,1.2,1.5c0.3,1.8-0.2,5.5-1.9,6.1C246.4,267.4,245.4,267.5,244.9,267.5z"
						/>
				</g>
			</g>
			<g>
				<path class="st21" d="M443,361.7c0,0.4-0.3,0.6-0.6,0.6h-12.5c-0.4,0-0.6-0.3-0.6-0.6l0,0c0-0.4,0.3-0.6,0.6-0.6h12.5
					C442.7,361.1,443,361.4,443,361.7L443,361.7z"/>
				<rect x="433.3" y="274.3" class="st20" width="5.7" height="87.5"/>
			</g>
			<rect x="182.2" y="270.4" class="st26" width="289.2" height="7"/>
		</g>
		<g>
			<g>
				<g>
					<path class="st27" d="M240.7,71.6V52.9c0-6.6-5.3-11.9-11.9-11.9c-6.6,0-11.9,5.3-11.9,11.9v18.7H240.7z"/>
				</g>
				<g>
					<rect x="228.1" y="-0.3" class="st27" width="1.4" height="51.1"/>
				</g>
			</g>
			<g>
				<g>
					<path class="st27" d="M363.1,89.2V70.5c0-6.6-5.3-11.9-11.9-11.9s-11.9,5.3-11.9,11.9v18.7H363.1z"/>
				</g>
				<g>
					<rect x="350.5" y="-0.3" class="st27" width="1.4" height="62.8"/>
				</g>
			</g>
			<g>
				<g>
					<path class="st27" d="M300.6,115.7V97c0-6.6-5.3-11.9-11.9-11.9c-6.6,0-11.9,5.3-11.9,11.9v18.7H300.6z"/>
				</g>
				<g>
					<rect x="288" y="-0.3" class="st27" width="1.4" height="95.2"/>
				</g>
			</g>
		</g>
	</g>
</g>
<g id="DESIGNED_BY_FREEPIK">
</g>
</svg>
