<?xml version="1.0" encoding="utf-8"?>
<!-- Generator: Adobe Illustrator 19.0.0, SVG Export Plug-In . SVG Version: 6.00 Build 0)  -->
<svg version="1.1" id="Calque_1" xmlns="http://www.w3.org/2000/svg" xmlns:xlink="http://www.w3.org/1999/xlink" x="0px" y="0px"
	 viewBox="0 0 580 370" style="enable-background:new 0 0 580 370;" xml:space="preserve">
<style type="text/css">
	.st0{opacity:0.2;fill:none;stroke:#CDE5F8;stroke-width:2;stroke-miterlimit:10;}
	.st1{fill:#FFFFFF;stroke:#CDE5F8;stroke-width:2;stroke-miterlimit:10;}
	.st2{fill:none;stroke:#1EAE88;stroke-width:3;stroke-miterlimit:10;}
</style>
<circle id="XMLID_8_" class="st0" cx="283" cy="198.2" r="60.8"/>
<circle id="XMLID_9_" class="st0" cx="283" cy="198.2" r="125.5"/>
<path id="XMLID_1_" class="st1" d="M430.8,285.5H173.2h-23.7h-23h-9.6c-13.5,0-24.4-12.3-24.4-27.5v-39.3
	c0-15.2,10.9-27.5,24.4-27.5h289.5c13.5,0,24.4,12.3,24.4,27.5V285.5z"/>
<path id="XMLID_2_" class="st1" d="M430.8,175.5H157.9c-12.5,0-22.7-10.1-22.7-22.7v-8c0-12.5,10.1-22.7,22.7-22.7h250.2
	c12.5,0,22.7,10.1,22.7,22.7V175.5z"/>
<path id="XMLID_3_" class="st1" d="M430.8,110.2H250.5c-8.4,0-15.3-6.8-15.3-15.3V81.4c0-8.4,6.8-15.3,15.3-15.3h165.1
	c8.4,0,15.3,6.8,15.3,15.3V110.2z"/>
<line id="XMLID_5_" class="st2" x1="185" y1="220.7" x2="377" y2="220.7"/>
<line id="XMLID_6_" class="st2" x1="185" y1="236.7" x2="343.8" y2="236.7"/>
<line id="XMLID_7_" class="st2" x1="185" y1="252.7" x2="304.3" y2="252.7"/>
</svg>
