<?xml version="1.0" encoding="utf-8"?>
<!-- Generator: Adobe Illustrator 19.0.0, SVG Export Plug-In . SVG Version: 6.00 Build 0)  -->
<svg version="1.1" id="Layer_1" xmlns="http://www.w3.org/2000/svg" xmlns:xlink="http://www.w3.org/1999/xlink" x="0px" y="0px"
	 viewBox="-168 284.9 257.2 273" style="enable-background:new -168 284.9 257.2 273;" xml:space="preserve">
<style type="text/css">
	.st0{fill:#FFFFFF;}
</style>
<g id="XMLID_10_">
	<path id="XMLID_22_" class="st0" d="M-32,284.9H86.9c1.3,0,2.3,1,2.3,2.3v124.5c0,1.3-1,2.3-2.3,2.3H-32c-1.3,0-2.3-1-2.3-2.3
		V287.2C-34.3,285.9-33.3,284.9-32,284.9z"/>
	<path id="XMLID_1_" class="st0" d="M-32,427.5H86.9c1.3,0,2.3,1,2.3,2.3v124.5c0,1.3-1,2.3-2.3,2.3H-32c-1.3,0-2.3-1-2.3-2.3V429.8
		C-34.3,428.5-33.3,427.5-32,427.5z"/>
	<path id="XMLID_17_" class="st0" d="M-165.7,284.9h118.9c1.3,0,2.3,1,2.3,2.3v124.5c0,1.3-1,2.3-2.3,2.3h-118.9
		c-1.3,0-2.3-1-2.3-2.3V287.2C-168,285.9-167,284.9-165.7,284.9z"/>
	<path id="XMLID_16_" class="st0" d="M-165.7,426.2h118.9c1.3,0,2.3,1,2.3,2.3v127.1c0,1.3-1,2.3-2.3,2.3h-118.9
		c-1.3,0-2.3-1-2.3-2.3V428.5C-168,427.2-167,426.2-165.7,426.2z"/>
</g>
</svg>
