<?xml version="1.0" encoding="utf-8"?>
<!-- Generator: Adobe Illustrator 19.0.0, SVG Export Plug-In . SVG Version: 6.00 Build 0)  -->
<svg version="1.1" id="Capa_1" xmlns="http://www.w3.org/2000/svg" xmlns:xlink="http://www.w3.org/1999/xlink" x="0px" y="0px"
	 viewBox="105 -105 460 460" style="enable-background:new 105 -105 460 460;" xml:space="preserve">
<style type="text/css">
	.st0{fill:#6EBDFF;}
</style>
<path class="st0" d="M335-105c-109.2,0-198,88.8-198,198v242c0,5.2,4,9.6,9.2,10l125.2,10c2.8,0.2,5.5-0.7,7.6-2.6
	c2.1-1.9,3.2-4.6,3.2-7.3V171.8c0-4.4-2.9-8.3-7.1-9.6c-2-0.6-3.9-1.3-5.7-2c-24.8-10-39.8-33-32.8-50.2
	c4.5-11.2,17.6-18.2,34.1-18.2c8,0,16.4,1.7,24.4,4.9c14.1,5.7,25.5,15.6,31.1,27c1.7,3.4,5.2,5.6,9,5.6c3.8,0,7.3-2.2,9-5.6
	c5.6-11.5,16.9-21.3,31.1-27c7.9-3.2,16.4-4.9,24.4-4.9c16.5,0,29.6,7,34.1,18.2c6.9,17.2-8.1,40.2-32.8,50.2
	c-1.8,0.7-3.7,1.4-5.8,2c-4.2,1.3-7.1,5.2-7.1,9.6V345c0,2.8,1.2,5.5,3.2,7.3c1.9,1.7,4.3,2.7,6.8,2.7c0.3,0,0.5,0,0.8,0l125.2-10
	c5.2-0.4,9.2-4.8,9.2-10V93C533-16.2,444.2-105,335-105z M335-85c98.2,0,178,79.9,178,178v202h-65.2v-92.5
	c13.7-9.4,25.1-21.4,33.3-34.8c15.4-25.4,18.3-54.6,8-80.2c-10.1-24.9-30.9-43.2-58.1-51.2c3.7-16.5,3.8-32.1,0.3-45.6
	c-1.2-4.8-5.8-7.9-10.7-7.4C391-13.5,358.2,9.1,335,42.5c-23.2-33.4-56-56.1-85.7-59.2c-4.9-0.5-9.5,2.6-10.7,7.4
	c-3.5,13.4-3.4,29,0.3,45.6c-27.1,8-48,26.3-58.1,51.2c-10.3,25.6-7.4,54.8,8,80.2c8.2,13.4,19.6,25.4,33.3,34.8V295H157V93
	C157-5.1,236.8-85,335-85z M407.8,334.2V178.8c0.1,0,0.2-0.1,0.3-0.1c16.7-6.7,30.4-18,38.8-31.8c8.9-14.7,10.7-30.5,5.1-44.4
	c-7.6-18.9-27.8-30.7-52.6-30.7c-10.5,0-21.6,2.2-31.9,6.4c-13,5.2-24.3,13.4-32.6,23.1c-8.3-9.8-19.6-17.9-32.6-23.1
	c-10.3-4.2-21.3-6.4-31.9-6.4c-24.8,0-45,11.8-52.6,30.7c-5.6,13.9-3.8,29.7,5.1,44.4c8.4,13.8,22.1,25,38.8,31.8
	c0.1,0,0.2,0.1,0.3,0.1v155.3L157,325.8V315h75.2c5.5,0,10-4.5,10-10V197.1c0-3.4-1.8-6.7-4.7-8.5c-13.2-8.2-24-19.1-31.5-31.3
	c-12.1-19.9-14.5-42.6-6.6-62.3c8.7-21.6,28.3-36.7,53.7-41.6c2.8-0.5,5.2-2.2,6.7-4.7c1.5-2.4,1.8-5.4,1-8.1
	c-3.9-12.7-5.4-25.1-4.4-35.8c21.5,5.9,45.1,24.3,62.3,49.1c2.7,3.9,5.3,8,7.6,12.1c1.8,3.1,5.1,5.1,8.7,5.1s6.9-1.9,8.7-5.1
	c2.3-4.2,4.9-8.2,7.6-12.1c17.2-24.8,40.8-43.2,62.3-49.1c1,10.7-0.5,23-4.4,35.8c-0.8,2.7-0.5,5.7,1,8.1s3.9,4.1,6.7,4.7
	c25.4,4.8,44.9,20,53.7,41.6c7.9,19.7,5.6,42.4-6.6,62.3c-7.5,12.3-18.4,23.1-31.5,31.3c-2.9,1.8-4.7,5-4.7,8.5V305
	c0,5.5,4.5,10,10,10H513v10.8L407.8,334.2z"/>
</svg>
