<?xml version="1.0" encoding="utf-8"?>
<!-- Generator: Adobe Illustrator 19.0.0, SVG Export Plug-In . SVG Version: 6.00 Build 0)  -->
<svg version="1.1" id="Capa_1" xmlns="http://www.w3.org/2000/svg" xmlns:xlink="http://www.w3.org/1999/xlink" x="0px" y="0px"
	 viewBox="105 -105 460 460" style="enable-background:new 105 -105 460 460;" xml:space="preserve">
<style type="text/css">
	.st0{fill:#6EBDFF;}
</style>
<g>
	<path class="st0" d="M464.5-49.3c-17.1-17.7-37.1-31.6-59.4-41.2c-22.3-9.6-45.9-14.5-70-14.5s-47.7,4.9-70,14.5
		c-22.3,9.6-42.3,23.5-59.4,41.2c-36.4,37.7-56.5,90.5-56.5,148.5c0,59.5,20.2,122.6,55.5,173.1C241.2,324.9,288.8,355,335,355
		s93.8-30.1,130.5-82.7c35.2-50.5,55.5-113.6,55.5-173.1C520.9,41.1,500.9-11.6,464.5-49.3z M449.1,260.9
		C416.2,308,374.6,335,335,335s-81.2-27-114.1-74.1c-32.5-46.5-51.9-106.9-51.9-161.7C169.1-20.4,254.6-85,335-85
		S500.9-20.4,500.9,99.2C500.9,153.9,481.5,214.4,449.1,260.9z"/>
	<path class="st0" d="M248.9,8.8c-1.8,0-3.7,0.1-5.5,0.3c-39.6,4.7-64.6,58.6-57,122.6c7.2,60.5,41.1,106,78.8,106
		c1.8,0,3.7-0.1,5.5-0.3c19.9-2.4,36.7-17.2,47.3-41.6c9.8-22.7,13.2-51.4,9.7-81C320.5,54.4,286.6,8.8,248.9,8.8z M299.6,187.9
		c-7.6,17.7-18.7,28.2-31.3,29.7c-1,0.1-2.1,0.2-3.1,0.2c-26.7,0-53.1-39.7-58.9-88.4c-6.1-51.1,12-97.1,39.5-100.4
		c1-0.1,2.1-0.2,3.1-0.2c26.7,0,53.1,39.7,58.9,88.4c0.1,1.2,0.3,2.4,0.4,3.5L235,90c-3-1.2-6.3-1-9.1,0.7c-2.7,1.7-4.5,4.5-4.8,7.7
		c-1.9,23.5,11.5,45.4,33.2,54.6c6.7,2.8,13.8,4.2,21,4.2c12.2,0,23.9-4.1,33.4-11.5C308,161.3,304.9,175.7,299.6,187.9z
		 M289.2,134.4c-4.3,1.9-8.9,2.8-13.7,2.8c-4.6,0-9-0.9-13.3-2.7c-8.9-3.7-15.5-10.8-18.8-19.4L289.2,134.4z"/>
	<path class="st0" d="M426.6,9.1c-1.8-0.2-3.7-0.3-5.5-0.3c-37.7,0-71.6,45.6-78.8,106c-3.5,29.6-0.1,58.3,9.7,81
		c10.6,24.5,27.4,39.2,47.3,41.6c1.8,0.2,3.7,0.3,5.5,0.3c0,0,0,0,0,0c37.7,0,71.6-45.6,78.8-106C491.2,67.7,466.2,13.8,426.6,9.1z
		 M463.7,129.3c-5.8,48.8-32.3,88.4-58.9,88.4c-1,0-2.1-0.1-3.1-0.2c-12.5-1.5-23.6-12-31.3-29.7c-5.3-12.2-8.4-26.6-9.2-42.1
		c9.5,7.4,21.2,11.5,33.4,11.5c7.2,0,14.3-1.4,21-4.2c21.8-9.1,35.1-31,33.2-54.6c-0.3-3.2-2-6.1-4.8-7.7s-6.1-1.9-9.1-0.7
		l-73.2,30.7c0.1-1.2,0.2-2.4,0.4-3.5c5.8-48.8,32.3-88.4,58.9-88.4c1,0,2.1,0.1,3.1,0.2C451.7,32.2,469.8,78.2,463.7,129.3z
		 M380.8,134.4l45.8-19.2c-3.3,8.6-10,15.6-18.8,19.4c-4.3,1.8-8.7,2.7-13.3,2.7C389.8,137.3,385.1,136.3,380.8,134.4z"/>
</g>
</svg>
