<?xml version="1.0" standalone="no"?>
<!DOCTYPE svg PUBLIC "-//W3C//DTD SVG 1.1//EN" "http://www.w3.org/Graphics/SVG/1.1/DTD/svg11.dtd" >
<svg xmlns="http://www.w3.org/2000/svg">
<metadata>Generated by IcoMoon</metadata>
<defs>
<font id="mainfont" horiz-adv-x="1024">
<font-face units-per-em="1024" ascent="960" descent="-64" />
<missing-glyph horiz-adv-x="1024" />
<glyph unicode="&#x20;" horiz-adv-x="512" d="" />
<glyph unicode="&#xe900;" glyph-name="Achive" horiz-adv-x="1105" d="M1060.283-64h-1015.937c-20.037 0-36.283 16.247-36.283 36.283v725.669c0 20.037 16.247 36.283 36.283 36.283h362.835c20.037 0 36.283-16.247 36.283-36.283 0-60.021 48.829-108.85 108.85-108.85s108.85 48.829 108.85 108.85c0 20.037 16.247 36.283 36.283 36.283h362.835c20.037 0 36.283-16.247 36.283-36.283v-725.669c0-20.037-16.247-36.283-36.283-36.283zM80.63 8.567h943.37v653.102h-293.912c-16.86-82.702-90.168-145.134-177.773-145.134-87.612 0-160.913 62.432-177.773 145.134h-293.912v-653.102zM1060.283 871.307h-1015.937c-24.495 0-44.346 19.851-44.346 44.346s19.851 44.346 44.346 44.346h1015.937c24.487 0 44.346-19.851 44.346-44.346s-19.859-44.346-44.346-44.346z" />
<glyph unicode="&#xe901;" glyph-name="Activity" horiz-adv-x="1707" d="M853.321-64c-19.848 0-38.432 10.379-48.773 27.623l-288.009 480.016-181.21-362.42c-9.633-19.266-29.329-31.441-50.884-31.441h-227.556c-31.415 0-56.889 25.474-56.889 56.889s25.474 56.889 56.889 56.889h192.398l211.829 423.671c9.279 18.571 27.951 30.606 48.697 31.403 20.783 0.872 40.29-9.772 50.972-27.572l280.677-467.804 299.931 799.832c8.344 22.237 29.595 36.915 53.261 36.915 0.354 0 0.721 0 1.062-0.013 24.096-0.442 45.296-16.030 52.932-38.887l214.572-643.767h186.558c31.415 0 56.889-25.474 56.889-56.889s-25.474-56.889-56.889-56.889h-227.556c-24.488 0-46.219 15.663-53.981 38.899l-176.735 530.23-284.9-759.77c-7.661-20.442-26.371-34.702-48.115-36.674-1.732-0.164-3.451-0.24-5.171-0.24z" />
<glyph unicode="&#xe902;" glyph-name="Add" d="M512-64c-31.415 0-56.889 25.474-56.889 56.889v910.222c0 31.415 25.474 56.889 56.889 56.889s56.889-25.474 56.889-56.889v-910.222c0-31.415-25.474-56.889-56.889-56.889zM967.111 391.111h-910.222c-31.415 0-56.889 25.474-56.889 56.889s25.474 56.889 56.889 56.889h910.222c31.415 0 56.889-25.474 56.889-56.889s-25.474-56.889-56.889-56.889z" />
<glyph unicode="&#xe903;" glyph-name="Add_User" horiz-adv-x="1075" d="M467.54 422.938c-134.782 0-243.312 160.702-243.312 293.759 0 134.155 109.148 243.303 243.312 243.303 134.146 0 243.285-109.148 243.285-243.303 0-133.057-108.521-293.759-243.285-293.759zM467.54 876.983c-88.394 0-160.296-71.902-160.296-160.287 0-92.886 75.471-210.733 160.296-210.733 84.806 0 160.268 117.847 160.268 210.733 0 88.385-71.892 160.287-160.268 160.287zM470.676-64c-2.011 0-4.040 0.157-6.097 0.452-205.706 30.255-427.655 108.89-436.999 112.22-18.651 6.641-30.006 25.532-27.128 45.124 11.014 75.121 33.871 206.499 63.157 242.445 8.744 10.681 20.090 21.022 33.779 30.845 82.851 59.080 199.286 95.192 204.202 96.705 21.907 6.715 45.133-5.59 51.858-27.506s-5.59-45.143-27.506-51.858c-1.946-0.6-108.927-34-180.257-84.861-7.591-5.442-13.781-10.949-17.793-15.847-10.211-15.404-27.58-93.384-39.968-167.878 68.941-22.783 236.044-74.779 388.748-97.249 22.673-3.33 38.354-24.425 35.024-47.107-3.044-20.643-20.773-35.476-41.019-35.485zM470.566-64c-20.247 0-37.975 14.842-41.010 35.476-3.339 22.682 12.342 43.768 35.024 47.107 55.944 8.237 119.138 21.206 187.83 38.557 22.221 5.59 44.783-7.868 50.409-30.089 5.608-22.221-7.859-44.783-30.089-50.409-71.394-18.033-137.365-31.556-196.067-40.189-2.048-0.304-4.086-0.452-6.097-0.452zM690.227 359.744c-5.193 0-10.469 0.978-15.57 3.053-33.908 13.735-59.117 21.547-59.375 21.63-21.898 6.743-34.194 29.969-27.46 51.867 6.734 21.907 29.941 34.203 51.848 27.478 1.153-0.36 28.678-8.846 66.164-24.047 21.252-8.615 31.491-32.819 22.866-54.053-6.531-16.142-22.073-25.929-38.474-25.929zM867.256 6.73c-22.922 0-41.508 18.586-41.508 41.508v332.066c0 22.922 18.586 41.508 41.508 41.508s41.508-18.586 41.508-41.508v-332.066c0-22.931-18.586-41.508-41.508-41.508zM1033.289 172.763h-332.066c-22.922 0-41.508 18.586-41.508 41.508s18.586 41.508 41.508 41.508h332.066c22.922 0 41.508-18.586 41.508-41.508s-18.586-41.508-41.508-41.508z" />
<glyph unicode="&#xe904;" glyph-name="Advanced_Search" d="M472.615 14.769c-260.604 0-472.615 212.021-472.615 472.615 0 260.604 212.012 472.615 472.615 472.615 260.595 0 472.615-212.012 472.615-472.615 0-260.595-212.021-472.615-472.615-472.615zM472.615 881.231c-217.167 0-393.846-176.679-393.846-393.846s176.679-393.846 393.846-393.846c217.167 0 393.846 176.679 393.846 393.846s-176.679 393.846-393.846 393.846zM984.615-64c-10.074 0-20.165 3.842-27.849 11.535l-205.658 205.658c-15.386 15.378-15.386 40.312 0 55.69 15.369 15.386 40.321 15.386 55.69 0l205.658-205.658c15.386-15.378 15.386-40.312 0-55.69-7.676-7.693-17.767-11.535-27.841-11.535zM634.53 566.154h-323.829c-21.749 0-39.385 17.636-39.385 39.385s17.636 39.385 39.385 39.385h323.829c21.749 0 39.385-17.636 39.385-39.385s-17.636-39.385-39.385-39.385zM512 329.846h-201.299c-21.749 0-39.385 17.636-39.385 39.385s17.636 39.385 39.385 39.385h201.299c21.749 0 39.385-17.636 39.385-39.385s-17.636-39.385-39.385-39.385z" />
<glyph unicode="&#xe905;" glyph-name="Already_Bookmarked" horiz-adv-x="709" d="M39.385-24.615v945.231h630.154v-945.231l-315.077 315.077-315.077-315.077zM669.547-64c-10.249 0-20.322 4-27.858 11.535l-287.228 287.228-287.228-287.228c-11.264-11.273-28.208-14.634-42.912-8.542-14.721 6.1-24.322 20.462-24.322 36.391v945.231c0 21.749 17.636 39.385 39.385 39.385h630.154c21.749 0 39.385-17.636 39.385-39.385v-945.231c0-15.929-9.601-30.291-24.313-36.383-4.875-2.022-9.986-3.002-15.062-3.002zM354.462 329.846c10.074 0 20.165-3.842 27.849-11.535l247.843-247.843v810.763h-551.385v-810.763l247.843 247.834c7.684 7.702 17.776 11.544 27.849 11.544z" />
<glyph unicode="&#xe906;" glyph-name="Arrow_Below" horiz-adv-x="1843" d="M921.6-64c-26.192 0-52.429 9.99-72.408 29.992l-819.2 819.2c-39.982 39.982-39.982 104.835 0 144.816 40.004 39.982 104.812 39.982 144.816 0l746.792-746.769 746.792 746.792c39.959 39.982 104.835 39.982 144.794 0 40.004-39.982 40.004-104.835 0-144.816l-819.2-819.2c-19.957-20.002-46.194-30.015-72.385-30.015z" />
<glyph unicode="&#xe907;" glyph-name="Arrow_Down" d="M512-64c-282.313 0-512 229.687-512 512 0 282.321 229.687 512 512 512s512-229.679 512-512c0-282.313-229.679-512-512-512zM512 891.733c-244.675 0-443.733-199.058-443.733-443.733s199.058-443.733 443.733-443.733c244.675 0 443.733 199.058 443.733 443.733s-199.058 443.733-443.733 443.733zM512 277.333c-8.731 0-17.476 3.33-24.136 9.997l-204.8 204.792c-13.327 13.327-13.327 34.937 0 48.272 13.335 13.327 34.937 13.327 48.272 0l180.664-180.649 180.664 180.656c13.32 13.327 34.945 13.327 48.265 0 13.335-13.327 13.335-34.945 0-48.272l-204.8-204.792c-6.652-6.667-15.39-10.005-24.128-10.005z" />
<glyph unicode="&#xe908;" glyph-name="Arrow_Left" horiz-adv-x="569" d="M512-64c-14.551 0-29.127 5.55-40.227 16.662l-455.111 455.111c-22.212 22.212-22.212 58.229 0 80.454l455.111 455.111c22.199 22.212 58.242 22.212 80.441 0 22.225-22.212 22.225-58.242 0-80.454l-414.872-414.884 414.872-414.884c22.225-22.212 22.225-58.229 0-80.441-11.087-11.112-25.663-16.675-40.214-16.675z" />
<glyph unicode="&#xe909;" glyph-name="Arrow_Right" horiz-adv-x="569" d="M56.889 960c14.551 0 29.127-5.55 40.227-16.662l455.111-455.111c22.225-22.199 22.225-58.229 0-80.454l-455.111-455.111c-22.199-22.212-58.242-22.212-80.441 0-22.225 22.225-22.225 58.242 0 80.454l414.872 414.884-414.884 414.884c-22.225 22.212-22.225 58.229 0 80.441 11.1 11.125 25.676 16.675 40.227 16.675z" />
<glyph unicode="&#xe90a;" glyph-name="Arrow_Up" horiz-adv-x="922" d="M870.4 448c-13.096 0-26.214 4.995-36.204 14.996l-373.396 373.396-373.396-373.396c-20.002-19.991-52.406-19.991-72.408 0-19.991 19.991-19.991 52.417 0 72.408l409.6 409.6c19.979 19.991 52.429 19.991 72.408 0l409.6-409.6c20.002-19.991 20.002-52.417 0-72.408-9.99-10.001-23.108-14.996-36.204-14.996zM460.8-64c-28.274 0-51.2 22.926-51.2 51.2v921.6c0 28.274 22.926 51.2 51.2 51.2s51.2-22.926 51.2-51.2v-921.6c0-28.274-22.926-51.2-51.2-51.2z" />
<glyph unicode="&#xe90b;" glyph-name="Arrow_Up2" horiz-adv-x="1843" d="M921.6 960c26.192 0 52.429-9.99 72.408-29.992l819.2-819.2c40.004-39.982 40.004-104.812 0-144.816-40.004-39.982-104.812-39.982-144.816 0l-746.792 746.792-746.792-746.792c-39.959-39.982-104.835-39.982-144.794 0-40.004 40.004-40.004 104.835 0 144.816l819.2 819.2c19.957 20.002 46.194 29.992 72.385 29.992z" />
<glyph unicode="&#xe90c;" glyph-name="Badge" horiz-adv-x="977" d="M488.705-64c-8.944 0-17.887 3.346-24.809 10.038l-105.207 101.782-144.97-20.528c-19.077-2.577-36.821 10.212-40.143 29.17l-25.285 144.2-129.326 68.623c-17.007 9.015-23.786 29.899-15.334 47.184l64.294 131.53-64.294 131.514c-8.452 17.293-1.665 38.161 15.326 47.184l129.334 68.647 25.277 144.177c3.322 18.95 21.043 31.866 40.143 29.162l144.977-20.504 105.207 101.782c13.836 13.384 35.798 13.376 49.618 0l105.191-101.782 144.985 20.504c19.053 2.72 36.821-10.212 40.143-29.162l25.277-144.177 129.326-68.647c16.999-9.023 23.778-29.891 15.334-47.184l-64.271-131.514 64.271-131.538c8.444-17.293 1.665-38.161-15.334-47.176l-129.326-68.623-25.277-144.208c-3.322-18.958-21.083-31.778-40.143-29.17l-144.977 20.528-105.191-101.782c-6.922-6.684-15.873-10.030-24.817-10.030zM370.963 121.264c9.197 0 18.109-3.552 24.809-10.038l92.933-89.904 92.917 89.904c7.905 7.651 18.847 11.211 29.812 9.689l128.065-18.133 22.327 127.384c1.903 10.839 8.706 20.195 18.419 25.348l114.246 60.623-56.778 116.196c-4.829 9.887-4.829 21.447 0 31.327l56.778 116.18-114.246 60.639c-9.729 5.154-16.516 14.518-18.419 25.348l-22.327 127.36-128.073-18.117c-10.902-1.538-21.899 2.038-29.804 9.689l-92.925 89.912-92.925-89.904c-7.913-7.651-18.902-11.227-29.804-9.681l-128.065 18.117-22.335-127.36c-1.895-10.839-8.698-20.195-18.411-25.348l-114.254-60.639 56.794-116.172c4.829-9.887 4.829-21.455 0-31.342l-56.794-116.188 114.246-60.615c9.721-5.162 16.516-14.518 18.419-25.356l22.327-127.384 128.057 18.133c1.673 0.222 3.346 0.333 5.011 0.333z" />
<glyph unicode="&#xe90d;" glyph-name="Blocked" d="M512-64c-282.313 0-512 229.687-512 512 0 282.321 229.687 512 512 512s512-229.679 512-512c0-282.313-229.679-512-512-512zM512 891.733c-244.675 0-443.733-199.058-443.733-443.733s199.058-443.733 443.733-443.733c244.675 0 443.733 199.058 443.733 443.733s-199.058 443.733-443.733 443.733zM178.252 80.119c-8.738 0-17.469 3.33-24.136 9.997-13.327 13.327-13.327 34.937 0 48.265l667.496 667.496c13.32 13.327 34.945 13.327 48.265 0 13.335-13.327 13.335-34.945 0-48.272l-667.496-667.496c-6.652-6.652-15.39-9.99-24.128-9.99z" />
<glyph unicode="&#xe90e;" glyph-name="BlockQuote" horiz-adv-x="1195" d="M1066.667 448h-256c-93.905 0-128 76.544-128 128v256c0 93.914 76.544 128 128 128h256c93.905 0 128-76.544 128-128v-256c0-93.914-76.544-128-128-128zM810.667-64c-23.552 0-42.667 19.115-42.667 42.667s19.115 42.667 42.667 42.667c295.282 0 298.667 286.473 298.667 298.667v256c0 23.561 19.115 42.667 42.667 42.667s42.667-19.105 42.667-42.667v-256c0-3.897-0.54-96.484-47.17-189.762-44.307-88.585-138.705-194.238-336.83-194.238zM384 448h-256c-93.914 0-128 76.544-128 128v256c0 93.914 76.544 128 128 128h256c93.914 0 128-76.544 128-128v-256c0-93.914-76.544-128-128-128zM128-64c-23.561 0-42.667 19.115-42.667 42.667s19.105 42.667 42.667 42.667c295.272 0 298.667 286.473 298.667 298.667v256c0 23.561 19.105 42.667 42.667 42.667s42.667-19.105 42.667-42.667v-256c0-3.897-0.54-96.484-47.17-189.762-44.307-88.585-138.714-194.238-336.83-194.238z" />
<glyph unicode="&#xe90f;" glyph-name="Bold" horiz-adv-x="788" d="M512-64h-393.846c-21.749 0-39.385 17.636-39.385 39.385v945.231c0 21.749 17.636 39.385 39.385 39.385h393.846c152.016 0 275.692-123.676 275.692-275.692 0-100.159-53.703-188.022-133.811-236.308 80.108-48.286 133.811-136.148 133.811-236.308 0-152.016-123.676-275.692-275.692-275.692zM157.538 14.769h354.462c108.579 0 196.923 88.344 196.923 196.923s-88.344 196.923-196.923 196.923h-157.538c-21.749 0-39.385 17.636-39.385 39.385s17.636 39.385 39.385 39.385h157.538c108.579 0 196.923 88.335 196.923 196.923s-88.344 196.923-196.923 196.923h-354.462v-866.462zM118.154 881.231h-78.769c-21.749 0-39.385 17.636-39.385 39.385s17.636 39.385 39.385 39.385h78.769c21.749 0 39.385-17.636 39.385-39.385s-17.636-39.385-39.385-39.385zM118.154-64h-78.769c-21.749 0-39.385 17.636-39.385 39.385s17.636 39.385 39.385 39.385h78.769c21.749 0 39.385-17.636 39.385-39.385s-17.636-39.385-39.385-39.385z" />
<glyph unicode="&#xe910;" glyph-name="Bookmark" horiz-adv-x="709" d="M669.547-64c-10.249 0-20.322 4-27.858 11.535l-287.228 287.228-287.228-287.228c-11.264-11.264-28.217-14.616-42.92-8.542-14.721 6.1-24.313 20.462-24.313 36.391v945.231c0 21.749 17.636 39.385 39.385 39.385h630.154c21.749 0 39.385-17.636 39.385-39.385v-945.231c0-15.929-9.601-30.291-24.313-36.383-4.875-2.022-9.986-3.002-15.062-3.002zM354.462 329.846c10.074 0 20.165-3.842 27.849-11.535l247.843-247.843v810.763h-551.385v-810.763l247.843 247.834c7.684 7.702 17.776 11.544 27.849 11.544z" />
<glyph unicode="&#xe911;" glyph-name="Bullet_List" horiz-adv-x="1067" d="M170.667 874.667c0-47.128-38.205-85.333-85.333-85.333s-85.333 38.205-85.333 85.333c0 47.128 38.205 85.333 85.333 85.333s85.333-38.205 85.333-85.333zM1024 832h-682.667c-23.561 0-42.667 19.105-42.667 42.667s19.105 42.667 42.667 42.667h682.667c23.561 0 42.667-19.105 42.667-42.667s-19.105-42.667-42.667-42.667zM170.667 448c0-47.128-38.205-85.333-85.333-85.333s-85.333 38.205-85.333 85.333c0 47.128 38.205 85.333 85.333 85.333s85.333-38.205 85.333-85.333zM853.333 405.333h-512c-23.561 0-42.667 19.105-42.667 42.667s19.105 42.667 42.667 42.667h512c23.561 0 42.667-19.105 42.667-42.667s-19.105-42.667-42.667-42.667zM170.667 21.333c0-47.128-38.205-85.333-85.333-85.333s-85.333 38.205-85.333 85.333c0 47.128 38.205 85.333 85.333 85.333s85.333-38.205 85.333-85.333zM1024-21.333h-682.667c-23.561 0-42.667 19.105-42.667 42.667s19.105 42.667 42.667 42.667h682.667c23.561 0 42.667-19.105 42.667-42.667s-19.105-42.667-42.667-42.667z" />
<glyph unicode="&#xe912;" glyph-name="Calender" horiz-adv-x="963" d="M284.444 723.692c-21.749 0-39.385 17.636-39.385 39.385v157.538c0 21.749 17.636 39.385 39.385 39.385s39.385-17.636 39.385-39.385v-157.538c0-21.749-17.636-39.385-39.385-39.385zM678.291 723.692c-21.749 0-39.385 17.636-39.385 39.385v157.538c0 21.749 17.636 39.385 39.385 39.385s39.385-17.636 39.385-39.385v-157.538c0-21.749-17.636-39.385-39.385-39.385zM835.829-64h-708.923c-69.973 0-126.906 56.933-126.906 126.906v691.419c0 69.973 56.933 126.906 126.906 126.906h708.923c69.973 0 126.906-56.933 126.906-126.906v-691.419c0-69.973-56.933-126.906-126.906-126.906zM126.906 802.462c-26.545 0-48.137-21.592-48.137-48.137v-691.419c0-26.536 21.592-48.137 48.137-48.137h708.923c26.536 0 48.137 21.6 48.137 48.137v691.419c0 26.545-21.6 48.137-48.137 48.137h-708.923zM923.35 548.65h-875.214c-21.749 0-39.385 17.636-39.385 39.385s17.636 39.385 39.385 39.385h875.214c21.749 0 39.385-17.636 39.385-39.385s-17.636-39.385-39.385-39.385zM284.444 356.103h-78.769c-21.749 0-39.385 17.636-39.385 39.385s17.636 39.385 39.385 39.385h78.769c21.749 0 39.385-17.636 39.385-39.385s-17.636-39.385-39.385-39.385zM520.752 356.103h-78.769c-21.749 0-39.385 17.636-39.385 39.385s17.636 39.385 39.385 39.385h78.769c21.749 0 39.385-17.636 39.385-39.385s-17.636-39.385-39.385-39.385zM757.060 356.103h-78.769c-21.749 0-39.385 17.636-39.385 39.385s17.636 39.385 39.385 39.385h78.769c21.749 0 39.385-17.636 39.385-39.385s-17.636-39.385-39.385-39.385zM284.444 154.803h-78.769c-21.749 0-39.385 17.636-39.385 39.385s17.636 39.385 39.385 39.385h78.769c21.749 0 39.385-17.636 39.385-39.385s-17.636-39.385-39.385-39.385zM520.752 154.803h-78.769c-21.749 0-39.385 17.636-39.385 39.385s17.636 39.385 39.385 39.385h78.769c21.749 0 39.385-17.636 39.385-39.385s-17.636-39.385-39.385-39.385z" />
<glyph unicode="&#xe913;" glyph-name="Cancel" d="M967.111-64c-14.551 0-29.127 5.55-40.227 16.662l-910.222 910.222c-22.212 22.212-22.212 58.242 0 80.454 22.225 22.212 58.229 22.212 80.454 0l910.222-910.222c22.225-22.212 22.225-58.229 0-80.441-11.1-11.112-25.676-16.675-40.227-16.675zM56.889-64c-14.564 0-29.114 5.55-40.227 16.662-22.212 22.212-22.212 58.229 0 80.441l910.222 910.222c22.199 22.212 58.242 22.212 80.441 0 22.225-22.212 22.225-58.242 0-80.454l-910.222-910.222c-11.1-11.087-25.651-16.649-40.214-16.649z" />
<glyph unicode="&#xe914;" glyph-name="Color_Picker" horiz-adv-x="1025" d="M563.793 656.567c-16.287 16.287-16.287 42.69 0 58.969l209.338 209.347c47.944 47.944 124.35 46.651 173.954-2.952l41.281-41.281c48.769-48.778 48.769-128.137-0.008-176.906l-206.386-206.395c-8.148-8.139-18.822-12.209-29.489-12.209s-21.357 4.070-29.48 12.209zM805.563 436.229c-9.599 0-19.223 3.661-26.545 10.991l-265.363 265.363c-14.661 14.653-14.661 38.42 0 53.073 14.653 14.653 38.42 14.653 53.064 0l265.363-265.363c14.661-14.653 14.661-38.42 0-53.073-7.314-7.33-16.921-10.991-26.52-10.991zM290.382 11.664h-137.227l-75.056 75.056v137.227l488.645 488.645c14.644 14.653 38.42 14.653 53.064 0 14.661-14.653 14.661-38.42 0-53.073l-466.662-466.671v-75.039l31.090-31.098h75.056l466.662 466.662c14.653 14.653 38.42 14.653 53.064 0 14.661-14.653 14.661-38.42 0-53.073l-488.637-488.637zM54.207-64c-13.877 0-27.746 5.304-38.328 15.878-21.174 21.166-21.174 55.483 0 76.648l70.994 71.003c21.166 21.157 55.491 21.157 76.657 0 21.174-21.174 21.174-55.491 0-76.665l-70.994-70.986c-10.583-10.574-24.451-15.878-38.328-15.878z" />
<glyph unicode="&#xe915;" glyph-name="Copy" horiz-adv-x="878" d="M841.143-64h-585.143c-20.196 0-36.571 16.376-36.571 36.571v731.429c0 20.196 16.376 36.571 36.571 36.571h585.143c20.196 0 36.571-16.376 36.571-36.571v-731.429c0-20.196-16.376-36.571-36.571-36.571zM292.571 9.143h512v658.286h-512v-658.286zM36.571 374.857c-20.196 0-36.571 16.376-36.571 36.571v512c0 20.196 16.376 36.571 36.571 36.571h438.857c20.196 0 36.571-16.376 36.571-36.571s-16.376-36.571-36.571-36.571h-402.286v-475.429c0-20.196-16.376-36.571-36.571-36.571z" />
<glyph unicode="&#xe916;" glyph-name="Download" horiz-adv-x="939" d="M469.333 192c-10.913 0-21.845 4.162-30.17 12.497l-341.333 341.333c-16.659 16.659-16.659 43.681 0 60.34 16.668 16.659 43.672 16.659 60.34 0l311.163-311.163 311.163 311.163c16.649 16.659 43.681 16.659 60.331 0 16.668-16.659 16.668-43.681 0-60.34l-341.333-341.333c-8.315-8.334-19.247-12.497-30.161-12.497zM469.333 192c-23.561 0-42.667 19.105-42.667 42.667v682.667c0 23.561 19.105 42.667 42.667 42.667s42.667-19.105 42.667-42.667v-682.667c0-23.561-19.105-42.667-42.667-42.667zM896-64h-853.333c-23.561 0-42.667 19.105-42.667 42.667v85.333c0 23.561 19.105 42.667 42.667 42.667s42.667-19.105 42.667-42.667v-42.667h768v42.667c0 23.561 19.105 42.667 42.667 42.667s42.667-19.105 42.667-42.667v-85.333c0-23.561-19.105-42.667-42.667-42.667z" />
<glyph unicode="&#xe917;" glyph-name="Downvote" horiz-adv-x="866" d="M433.231-64c-11.693 0-22.773 5.19-30.256 14.17l-393.846 472.615c-9.785 11.745-11.894 28.077-5.409 41.923 6.485 13.837 20.384 22.677 35.665 22.677h196.923v433.231c0 21.749 17.636 39.385 39.385 39.385h315.077c21.749 0 39.385-17.636 39.385-39.385v-433.231h196.923c15.281 0 29.188-8.84 35.665-22.677 6.477-13.846 4.376-30.177-5.409-41.923l-393.846-472.615c-7.483-8.98-18.563-14.17-30.256-14.17zM123.475 408.615l309.756-371.712 309.764 371.712h-152.226c-21.749 0-39.385 17.636-39.385 39.385v433.231h-236.308v-433.231c0-21.749-17.636-39.385-39.385-39.385h-152.217z" />
<glyph unicode="&#xe918;" glyph-name="Email" horiz-adv-x="1339" d="M1299.692-64h-1260.308c-21.749 0-39.385 17.636-39.385 39.385v945.231c0 21.749 17.636 39.385 39.385 39.385h1260.308c21.749 0 39.385-17.636 39.385-39.385v-945.231c0-21.749-17.627-39.385-39.385-39.385zM78.769 14.769h1181.538v866.462h-1181.538v-866.462zM669.538 408.615c-8.315 0-16.629 2.626-23.631 7.877l-630.154 472.615c-17.399 13.049-20.926 37.739-7.877 55.138s37.739 20.918 55.138 7.877l606.523-454.892 606.523 454.892c17.417 13.049 42.098 9.514 55.138-7.877 13.049-17.399 9.531-42.089-7.868-55.138l-630.154-472.615c-7.002-5.251-15.316-7.877-23.64-7.877z" />
<glyph unicode="&#xe919;" glyph-name="Emoticon" d="M512-64c-282.313 0-512 229.687-512 512 0 282.321 229.687 512 512 512s512-229.679 512-512c0-282.313-229.679-512-512-512zM512 891.733c-244.675 0-443.733-199.058-443.733-443.733s199.058-443.733 443.733-443.733c244.675 0 443.733 199.058 443.733 443.733s-199.058 443.733-443.733 443.733zM728.178 482.133c-37.645 0-68.267 30.629-68.267 68.267s30.621 68.267 68.267 68.267 68.267-30.629 68.267-68.267-30.621-68.267-68.267-68.267zM295.822 482.133c-37.638 0-68.267 30.629-68.267 68.267s30.629 68.267 68.267 68.267 68.267-30.629 68.267-68.267-30.621-68.267-68.267-68.267zM519.752 155.978c-35.461 0-67.819 6.796-95.338 15.959-83.483 27.83-139.021 82.724-141.342 85.053-13.327 13.327-13.327 34.937 0 48.265 13.312 13.312 34.877 13.335 48.211 0.068v0c7.418-7.342 183.706-177.736 361.396-0.068 13.32 13.335 34.945 13.335 48.265 0 13.335-13.327 13.335-34.937 0-48.265-77.073-77.065-154.609-101.012-221.192-101.012z" />
<glyph unicode="&#xe91a;" glyph-name="Favorite_Topic" horiz-adv-x="1158" d="M578.783-64c-88.074 0-234.729 82.721-348.704 196.697-148.366 148.366-230.078 331.499-230.078 515.651 0 171.844 139.808 311.652 311.652 311.652 113.224 0 212.547-60.708 267.13-151.265 54.584 90.557 153.907 151.265 267.13 151.265 171.844 0 311.652-139.808 311.652-311.652 0-184.152-81.712-367.285-230.088-515.651-113.966-113.976-260.62-196.697-348.694-196.697zM311.652 870.957c-122.751 0-222.609-99.857-222.609-222.609 0-216.376 127.817-376.506 204.009-452.697 116.38-116.39 239.299-170.607 285.731-170.607 46.421 0 169.351 54.218 285.741 170.607 76.182 76.192 203.999 236.321 203.999 452.697 0 122.751-99.867 222.609-222.609 222.609s-222.609-99.857-222.609-222.609c0-24.586-19.936-44.522-44.522-44.522s-44.522 19.936-44.522 44.522c0 122.751-99.857 222.609-222.609 222.609z" />
<glyph unicode="&#xe91b;" glyph-name="Flag_Topic" horiz-adv-x="709" d="M39.385-64c-21.749 0-39.385 17.636-39.385 39.385v945.231c0 13.653 7.072 26.326 18.677 33.503 11.614 7.177 26.116 7.824 38.317 1.724l630.154-315.077c13.347-6.669 21.775-20.305 21.775-35.227s-8.428-28.558-21.767-35.227l-608.387-304.189v-290.737c0-21.749-17.636-39.385-39.385-39.385zM78.769 856.891v-502.705l502.705 251.353-502.705 251.353z" />
<glyph unicode="&#xe91c;" glyph-name="Group" horiz-adv-x="1315" d="M841.262 423.451c-134.625 0-243.037 160.573-243.037 293.521 0 134.005 109.023 243.028 243.037 243.028 133.987 0 243.001-109.023 243.001-243.028 0-132.939-108.394-293.521-243.001-293.521zM841.262 877.973c-88.781 0-161.010-72.22-161.010-161.001 0-93.228 75.802-211.493 161.010-211.493 85.19 0 160.974 118.274 160.974 211.493 0 88.781-72.211 161.001-160.974 161.001zM844.397-64c-1.987 0-3.992 0.155-6.024 0.447-205.87 30.286-428 108.978-437.351 112.313-18.429 6.562-29.648 25.228-26.805 44.586 11.019 75.137 33.877 206.544 63.106 242.445 8.713 10.636 20.033 20.963 33.713 30.778 82.866 59.087 199.344 95.215 204.257 96.719 21.637 6.635 44.605-5.505 51.24-27.169 6.644-21.646-5.514-44.586-27.151-51.24v0c-1.075-0.328-108.841-33.85-180.615-85.026-7.647-5.487-13.872-11.028-17.909-15.95-10.308-15.448-27.789-93.93-40.202-168.775 68.748-22.74 236.457-74.982 389.675-97.521 22.412-3.29 37.897-24.134 34.606-46.546-3.008-20.397-20.525-35.062-40.54-35.062zM844.297-64c-20.006 0-37.523 14.665-40.521 35.053-3.29 22.412 12.195 43.256 34.606 46.546 153.391 22.567 320.963 74.781 389.684 97.512-12.441 74.873-29.976 153.436-40.731 169.45-3.518 4.256-9.743 9.798-17.49 15.366-71.664 51.094-179.439 84.616-180.524 84.944-21.637 6.662-33.795 29.612-27.151 51.249 6.644 21.646 29.521 33.823 51.231 27.16 4.913-1.504 121.391-37.632 204.157-96.646 13.781-9.889 25.091-20.206 33.731-30.751 29.311-35.992 52.169-167.399 63.197-242.536 2.844-19.349-8.385-38.024-26.805-44.586-9.351-3.336-231.481-82.027-437.36-112.313-2.032-0.292-4.038-0.447-6.024-0.447zM366.516 446.118c-114.856 0-203.947 131.526-203.947 244.669 0 112.45 91.488 203.938 203.947 203.938 112.45 0 203.929-91.488 203.929-203.938 0-113.152-89.082-244.669-203.929-244.669zM366.516 812.697c-67.226 0-121.92-54.685-121.92-121.911 0-71.017 59.123-162.642 121.92-162.642 62.787 0 121.902 91.624 121.902 162.642 0 67.226-54.685 121.911-121.902 121.911zM424.463 117.608c-1.987 0-3.992 0.155-6.024 0.447-166.488 24.481-381.499 96.892-390.577 99.964-17.381 5.888-28.737 22.594-27.807 40.922 1.103 21.765 6.836 95.434 34.515 129.393 7.446 9.114 17.098 17.937 28.71 26.267 67.891 48.414 163.024 77.917 167.044 79.147 21.655 6.626 44.595-5.532 51.24-27.178s-5.514-44.586-27.16-51.24v0c-0.866-0.255-86.602-26.95-143.411-67.445-7.082-5.086-10.928-9.014-12.878-11.411-4.575-6.152-9.807-27.324-13.115-50.793 65.421-20.844 222.166-68.356 345.38-86.475 22.412-3.29 37.906-24.134 34.606-46.537-2.999-20.397-20.516-35.053-40.521-35.062z" />
<glyph unicode="&#xe91d;" glyph-name="heading" horiz-adv-x="866" d="M196.923 881.231h-157.538c-21.749 0-39.385 17.636-39.385 39.385s17.636 39.385 39.385 39.385h157.538c21.749 0 39.385-17.636 39.385-39.385s-17.636-39.385-39.385-39.385zM118.154-64c-21.749 0-39.385 17.636-39.385 39.385v945.231c0 21.749 17.636 39.385 39.385 39.385s39.385-17.636 39.385-39.385v-945.231c0-21.749-17.636-39.385-39.385-39.385zM196.923-64h-157.538c-21.749 0-39.385 17.636-39.385 39.385s17.636 39.385 39.385 39.385h157.538c21.749 0 39.385-17.636 39.385-39.385s-17.636-39.385-39.385-39.385zM827.077 881.231h-157.538c-21.749 0-39.385 17.636-39.385 39.385s17.636 39.385 39.385 39.385h157.538c21.749 0 39.385-17.636 39.385-39.385s-17.636-39.385-39.385-39.385zM748.308-64c-21.749 0-39.385 17.636-39.385 39.385v945.231c0 21.749 17.636 39.385 39.385 39.385s39.385-17.636 39.385-39.385v-945.231c0-21.749-17.636-39.385-39.385-39.385zM827.077-64h-157.538c-21.749 0-39.385 17.636-39.385 39.385s17.636 39.385 39.385 39.385h157.538c21.749 0 39.385-17.636 39.385-39.385s-17.636-39.385-39.385-39.385zM748.308 408.615h-630.154c-21.749 0-39.385 17.636-39.385 39.385s17.636 39.385 39.385 39.385h630.154c21.749 0 39.385-17.636 39.385-39.385s-17.636-39.385-39.385-39.385z" />
<glyph unicode="&#xe91e;" glyph-name="Horizontal_Line" horiz-adv-x="13312" d="M12800-64h-12288c-282.738 0-512 229.262-512 512s229.262 512 512 512h12288c282.738 0 512-229.262 512-512s-229.262-512-512-512z" />
<glyph unicode="&#xe91f;" glyph-name="Info" d="M512-64c-282.313 0-512 229.687-512 512 0 282.321 229.687 512 512 512s512-229.679 512-512c0-282.313-229.679-512-512-512zM512 891.733c-244.675 0-443.733-199.058-443.733-443.733s199.058-443.733 443.733-443.733c244.675 0 443.733 199.058 443.733 443.733s-199.058 443.733-443.733 443.733zM512 140.8c-18.849 0-34.133 15.284-34.133 34.133v341.333c0 18.849 15.284 34.133 34.133 34.133s34.133-15.284 34.133-34.133v-341.333c0-18.849-15.277-34.133-34.133-34.133zM512 618.667c-37.638 0-68.267 30.629-68.267 68.267s30.629 68.267 68.267 68.267c37.645 0 68.267-30.629 68.267-68.267s-30.621-68.267-68.267-68.267z" />
<glyph unicode="&#xe920;" glyph-name="Italic" horiz-adv-x="709" d="M669.527 881.223h-393.839c-21.749 0-39.384 17.635-39.384 39.384s17.635 39.384 39.384 39.384h393.839c21.749 0 39.384-17.635 39.384-39.384s-17.635-39.384-39.384-39.384zM433.223-63.991h-393.839c-21.749 0-39.384 17.635-39.384 39.384s17.635 39.384 39.384 39.384h393.839c21.749 0 39.384-17.635 39.384-39.384s-17.635-39.384-39.384-39.384zM196.92-64c-4.131 0-8.323 0.648-12.454 2.022-20.637 6.879-31.787 29.188-24.908 49.816l315.072 945.215c6.879 20.637 29.197 31.787 49.816 24.908 20.637-6.879 31.787-29.179 24.917-49.816l-315.072-945.215c-5.505-16.497-20.873-26.93-37.371-26.93z" />
<glyph unicode="&#xe921;" glyph-name="Locked" horiz-adv-x="779" d="M664.787-64h-550.711c-62.899 0-114.076 51.177-114.076 114.076v409.1c0 62.899 51.177 114.076 114.076 114.076h550.711c62.899 0 114.076-51.177 114.076-114.076v-409.1c0-62.899-51.177-114.076-114.076-114.076zM593.91 453.991c-23.893 0-43.27 19.369-43.27 43.27v214.99c0 88.893-72.316 161.209-161.209 161.209s-161.209-72.316-161.209-161.209v-214.998c0-23.901-19.369-43.27-43.27-43.27s-43.27 19.369-43.27 43.27v214.998c0 136.616 111.141 247.749 247.749 247.749s247.749-111.133 247.749-247.749v-214.998c0-23.893-19.377-43.262-43.27-43.262z" />
<glyph unicode="&#xe922;" glyph-name="Login_signup" horiz-adv-x="838" d="M605.091-64h-558.545c-25.703 0-46.545 20.842-46.545 46.545v930.909c0 25.703 20.842 46.545 46.545 46.545h558.545c25.703 0 46.545-20.842 46.545-46.545v-186.182c0-25.703-20.842-46.545-46.545-46.545s-46.545 20.842-46.545 46.545v139.636h-465.455v-837.818h465.455v139.636c0 25.703 20.842 46.545 46.545 46.545s46.545-20.842 46.545-46.545v-186.182c0-25.703-20.842-46.545-46.545-46.545zM791.273 401.455h-465.455c-25.703 0-46.545 20.842-46.545 46.545s20.842 46.545 46.545 46.545h465.455c25.703 0 46.545-20.842 46.545-46.545s-20.842-46.545-46.545-46.545zM418.909 215.273c-11.905 0-23.831 4.541-32.913 13.633l-186.182 186.182c-18.173 18.173-18.173 47.652 0 65.826l186.182 186.182c18.163 18.173 47.663 18.173 65.826 0 18.184-18.173 18.184-47.652 0-65.826l-153.269-153.269 153.269-153.269c18.184-18.173 18.184-47.642 0-65.815-9.082-9.102-21.008-13.643-32.913-13.643z" />
<glyph unicode="&#xe923;" d="M31.165 127.443v801.391h961.67v-961.67l-160.278 160.278h-560.974z" />
<glyph unicode="&#xe924;" d="M992.844-64c-8.112 0-16.090 3.161-22.047 9.127l-151.151 151.151h-227.506c-17.212 0-31.165 13.953-31.165 31.165s13.953 31.165 31.165 31.165h240.417c8.272 0 16.188-3.286 22.038-9.127l107.075-107.075v855.263h-899.339v-739.061h129.113c17.212 0 31.165-13.953 31.165-31.165s-13.953-31.165-31.165-31.165h-160.278c-17.212 0-31.165 13.953-31.165 31.165v801.391c0 17.212 13.953 31.165 31.165 31.165h961.67c17.212 0 31.165-13.953 31.165-31.165v-961.67c0-12.609-7.595-23.962-19.233-28.788-3.864-1.603-7.916-2.377-11.923-2.377z" />
<glyph unicode="&#xe925;" d="M512 416.835h-240.417c-17.212 0-31.165 13.953-31.165 31.165s13.953 31.165 31.165 31.165h240.417c17.212 0 31.165-13.953 31.165-31.165s-13.953-31.165-31.165-31.165z" />
<glyph unicode="&#xe926;" d="M752.417 657.252h-480.835c-17.212 0-31.165 13.953-31.165 31.165s13.953 31.165 31.165 31.165h480.835c17.212 0 31.165-13.953 31.165-31.165s-13.953-31.165-31.165-31.165z" />
<glyph unicode="&#xe927;" d="M431.861 96.278h-80.139c-17.212 0-31.165 13.953-31.165 31.165s13.953 31.165 31.165 31.165h80.139c17.212 0 31.165-13.953 31.165-31.165s-13.953-31.165-31.165-31.165z" />
<glyph unicode="&#xe928;" glyph-name="Logout" d="M606.041-64h-564.245c-23.082 0-41.796 18.714-41.796 41.796v940.408c0 23.082 18.714 41.796 41.796 41.796h564.245c23.082 0 41.796-18.714 41.796-41.796v-188.082c0-23.082-18.714-41.796-41.796-41.796s-41.796 18.714-41.796 41.796v146.286h-480.653v-856.816h480.653v146.286c0 23.082 18.714 41.796 41.796 41.796s41.796-18.714 41.796-41.796v-188.082c0-23.082-18.714-41.796-41.796-41.796zM888.163 406.204h-470.204c-23.082 0-41.796 18.714-41.796 41.796s18.714 41.796 41.796 41.796h470.204c23.082 0 41.796-18.714 41.796-41.796s-18.714-41.796-41.796-41.796zM794.122 218.122c-10.689 0-21.4 4.086-29.55 12.246-16.332 16.321-16.332 42.789 0 59.099l158.521 158.532-158.521 158.521c-16.332 16.332-16.332 42.789 0 59.11 16.311 16.321 42.799 16.321 59.099 0l188.082-188.082c16.332-16.332 16.332-42.789 0-59.11l-188.082-188.082c-8.15-8.15-18.86-12.236-29.55-12.236z" />
<glyph unicode="&#xe929;" glyph-name="Menu_Icon" horiz-adv-x="1187" d="M1113.397 813.714h-1040.254c-40.391 0-73.143 32.752-73.143 73.143s32.752 73.143 73.143 73.143h1040.254c40.391 0 73.143-32.752 73.143-73.143s-32.752-73.143-73.143-73.143zM1113.397 374.857h-1040.254c-40.391 0-73.143 32.752-73.143 73.143s32.752 73.143 73.143 73.143h1040.254c40.391 0 73.143-32.752 73.143-73.143s-32.752-73.143-73.143-73.143zM1113.397-64h-1040.254c-40.391 0-73.143 32.752-73.143 73.143s32.752 73.143 73.143 73.143h1040.254c40.391 0 73.143-32.752 73.143-73.143s-32.752-73.143-73.143-73.143z" />
<glyph unicode="&#xe92a;" glyph-name="Message" d="M982.215-64c-10.877 0-21.567 4.242-29.56 12.246l-175.846 175.835h-735.013c-23.082 0-41.796 18.714-41.796 41.796v752.327c0 23.082 18.714 41.796 41.796 41.796h940.408c23.082 0 41.796-18.714 41.796-41.796v-940.408c0-16.906-10.188-32.141-25.809-38.609-5.162-2.142-10.595-3.187-15.976-3.187zM83.592 207.673h710.531c11.086 0 21.713-4.409 29.55-12.246l116.736-116.726v797.706h-856.816v-668.735zM647.837 609.959h-344.816c-20.198 0-36.571 16.374-36.571 36.571s16.374 36.571 36.571 36.571h344.816c20.198 0 36.571-16.374 36.571-36.571s-16.374-36.571-36.571-36.571zM459.755 380.082h-156.735c-20.198 0-36.571 16.374-36.571 36.571s16.374 36.571 36.571 36.571h156.735c20.198 0 36.571-16.374 36.571-36.571s-16.374-36.571-36.571-36.571z" />
<glyph unicode="&#xe92b;" glyph-name="More_Options" horiz-adv-x="171" d="M170.667 874.667c0-47.128-38.205-85.333-85.333-85.333s-85.333 38.205-85.333 85.333c0 47.128 38.205 85.333 85.333 85.333s85.333-38.205 85.333-85.333zM170.667 448c0-47.128-38.205-85.333-85.333-85.333s-85.333 38.205-85.333 85.333c0 47.128 38.205 85.333 85.333 85.333s85.333-38.205 85.333-85.333zM170.667 21.333c0-47.128-38.205-85.333-85.333-85.333s-85.333 38.205-85.333 85.333c0 47.128 38.205 85.333 85.333 85.333s85.333-38.205 85.333-85.333z" />
<glyph unicode="&#xe92c;" glyph-name="Muted" horiz-adv-x="882" d="M814.816 242.491c-9.561 0-19.137 3.648-26.425 10.951-71.666 71.666-108.827 318.967-114.777 361.704-58.323 171.052-164.212 173.048-165.288 173.048-20.647 0-37.377 16.737-37.377 37.377v50.1c-23.936 16.648-45.697 8.993-59.803-0.449v-49.659c0-20.64-16.737-37.377-37.377-37.377-0.688-0.030-29.498-1.136-65.096-25.446-17.044-11.647-40.3-7.251-51.946 9.793-11.639 17.044-7.259 40.307 9.793 51.946 26.291 17.948 50.855 27.532 69.872 32.638v35.732c0 9.912 3.94 19.421 10.944 26.433 37.676 37.661 118.672 68.751 187.415 0 7.019-7.019 10.951-16.521 10.951-26.433v-35.807c52.298-14.046 146.577-61.485 199.914-221.488 0.74-2.213 1.271-4.5 1.585-6.81 13.829-102.136 51.58-279.99 94.040-322.451 14.599-14.592 14.599-38.259 0-52.851-7.288-7.303-16.864-10.951-26.425-10.951zM440.382 47.839c-222.953 0-377.574 59.078-386.724 62.666-4.799 1.876-9.165 4.732-12.805 8.38-68.751 68.744-37.668 149.747 0 187.408 42.46 42.468 80.218 220.314 94.048 322.451 0.314 2.31 0.845 4.597 1.577 6.81 7.864 23.585 17.014 45.809 27.21 66.052 9.284 18.442 31.755 25.857 50.19 16.573s25.857-31.755 16.573-50.19c-8.118-16.124-15.504-33.886-21.97-52.843-5.95-42.737-43.111-290.037-114.777-361.704-11.265-11.706-33.662-42.131-5.18-76.062 49.106-16.977 328.416-103.99 656.376-14.226 19.899 5.457 40.472-6.272 45.921-26.179 5.45-19.914-6.272-40.472-26.179-45.921-116.803-31.98-227.035-43.215-324.26-43.215zM444.785-64c-77.55 0-138.295 45.966-138.295 104.655 0 20.647 16.737 37.377 37.377 37.377s37.377-16.73 37.377-37.377c0-10.54 24.123-29.902 63.541-29.902 39.41 0 63.541 19.361 63.541 29.902 0 20.647 16.73 37.377 37.377 37.377s37.377-16.73 37.377-37.377c0-58.689-60.745-104.655-138.295-104.655zM844.718-0.22c-9.561 0-19.137 3.648-26.425 10.951l-807.341 807.341c-14.599 14.599-14.599 38.266 0 52.858s38.259 14.592 52.858 0l807.341-807.341c14.599-14.592 14.599-38.259 0-52.851-7.296-7.311-16.872-10.959-26.433-10.959z" />
<glyph unicode="&#xe92d;" d="M31.165 127.443v801.391h961.67v-961.67l-160.278 160.278h-560.974z" />
<glyph unicode="&#xe92e;" d="M351.722 96.278h-320.557c-17.212 0-31.165 13.953-31.165 31.165v240.417c0 17.212 13.953 31.165 31.165 31.165s31.165-13.953 31.165-31.165v-209.252h289.391c17.212 0 31.165-13.953 31.165-31.165s-13.953-31.165-31.165-31.165z" />
<glyph unicode="&#xe92f;" d="M992.844-64c-8.112 0-16.090 3.161-22.047 9.127l-151.151 151.151h-67.228c-17.212 0-31.165 13.953-31.165 31.165s13.953 31.165 31.165 31.165h80.139c8.272 0 16.188-3.286 22.038-9.127l107.075-107.075v855.263h-369.53c-17.212 0-31.165 13.953-31.165 31.165s13.953 31.165 31.165 31.165h400.696c17.212 0 31.165-13.953 31.165-31.165v-961.67c0-12.609-7.595-23.962-19.233-28.788-3.864-1.603-7.916-2.377-11.923-2.377z" />
<glyph unicode="&#xe930;" d="M592.139 96.278h-80.139c-17.212 0-31.165 13.953-31.165 31.165s13.953 31.165 31.165 31.165h80.139c17.212 0 31.165-13.953 31.165-31.165s-13.953-31.165-31.165-31.165z" />
<glyph unicode="&#xe931;" d="M31.165 608.278v160.278h160.278v160.278h160.278v-160.278h160.278v-160.278h-160.278v-160.278h-160.278v160.278z" />
<glyph unicode="&#xe932;" d="M351.722 416.835h-160.278c-17.212 0-31.165 13.953-31.165 31.165v129.113h-129.113c-17.212 0-31.165 13.953-31.165 31.165v160.278c0 17.212 13.953 31.165 31.165 31.165h129.113v129.113c0 17.212 13.953 31.165 31.165 31.165h160.278c17.212 0 31.165-13.953 31.165-31.165v-129.113h129.113c17.212 0 31.165-13.953 31.165-31.165v-160.278c0-17.212-13.953-31.165-31.165-31.165h-129.113v-129.113c0-17.212-13.953-31.165-31.165-31.165zM222.609 479.165h97.948v129.113c0 17.212 13.953 31.165 31.165 31.165h129.113v97.948h-129.113c-17.212 0-31.165 13.953-31.165 31.165v129.113h-97.948v-129.113c0-17.212-13.953-31.165-31.165-31.165h-129.113v-97.948h129.113c17.212 0 31.165-13.953 31.165-31.165v-129.113z" />
<glyph unicode="&#xe933;" glyph-name="Notification" horiz-adv-x="882" d="M441.426 48.117c-225.93 0-381.391 59.818-387.894 62.367-4.799 1.876-9.164 4.731-12.804 8.379-68.743 68.735-37.664 149.728 0 187.385 42.455 42.462 80.208 220.295 94.036 322.411 0.314 2.31 0.845 4.597 1.577 6.809 53.33 159.983 147.598 207.416 199.897 221.461v35.803c0 9.911 3.939 19.419 10.95 26.43 4.163 4.178 42.388 40.84 96.166 40.84 32.947 0 64.49-14.127 91.203-40.84 7.019-7.011 10.95-16.519 10.95-26.43v-35.803c52.291-14.044 146.559-61.477 199.889-221.461 0.74-2.212 1.271-4.5 1.585-6.809 13.828-102.123 51.574-279.956 94.029-322.411 37.664-37.656 68.743-118.649 0-187.385-4.103-4.103-9.104-7.198-14.605-9.029-122.843-40.953-252.375-61.717-384.979-61.717zM88.4 177.335c32.903-11.421 169.139-54.474 353.026-54.474 121.318 0 239.81 18.477 352.346 54.922 13.177 15.584 16.421 30.698 10.599 48.18-5.292 15.868-16.092 27.327-16.197 27.439-71.658 71.658-108.813 318.927-114.763 361.659-57.284 167.936-161.366 172.899-165.798 173.026-20.644 0-36.849 16.728-36.849 37.372v50.213c-9.052 6.436-18.088 9.582-27.409 9.582-12.565 0-24.307-5.621-32.387-10.748v-49.047c0-20.637-16.735-37.372-37.372-37.372-3.909-0.127-107.991-5.090-165.268-173.026-5.95-42.731-43.105-290.001-114.763-361.659-11.257-11.712-33.665-42.133-5.165-76.068zM444.603-64c-77.54 0-138.277 45.96-138.277 104.642 0 20.644 16.735 37.372 37.372 37.372s37.372-16.728 37.372-37.372c0-10.539 24.12-29.898 63.533-29.898 39.405 0 63.533 19.359 63.533 29.898 0 20.644 16.728 37.372 37.372 37.372s37.372-16.728 37.372-37.372c0-58.682-60.737-104.642-138.277-104.642z" />
<glyph unicode="&#xe934;" glyph-name="Pencil" d="M40.543-64c-10.649 0-20.992 4.198-28.668 11.875-9.586 9.577-13.74 23.326-11.082 36.615l57.337 286.675c2.937 14.659 13.695 26.515 28.002 30.849 14.316 4.325 29.849 0.432 40.417-10.136l229.347-229.338c10.568-10.568 14.46-26.101 10.136-40.408-4.334-14.316-16.19-25.074-30.858-28.011l-286.675-57.337c-2.649-0.532-5.316-0.784-7.955-0.784zM122.773 180.979l-30.551-152.757 152.766 30.56-122.215 122.197zM327.218-6.663c-10.379 0-20.749 3.955-28.668 11.875-15.83 15.83-15.83 41.498 0 57.328l487.354 487.363-171.993 172.011-487.363-487.363c-15.839-15.839-41.498-15.839-57.337 0-15.83 15.83-15.83 41.498 0 57.328l516.032 516.041c7.604 7.604 17.911 11.875 28.668 11.875v0c10.748 0 21.064-4.271 28.668-11.875l229.338-229.347c15.839-15.83 15.839-41.507 0-57.337l-516.023-516.023c-7.919-7.919-18.298-11.875-28.677-11.875zM843.25 509.36c-10.37 0-20.758 3.955-28.668 11.875-15.839 15.83-15.839 41.498 0 57.337l114.683 114.674c12.559 13.226 23.092 34.245 0 57.337l-114.683 114.674c-13.235 12.559-34.254 23.083-57.337 0l-114.674-114.674c-15.821-15.83-41.489-15.83-57.328 0s-15.839 41.498 0 57.337l114.674 114.674c34.543 34.534 77.266 45.642 120.323 31.29 29.101-9.703 48.156-27.776 51.67-31.299l114.683-114.674c34.543-34.534 45.651-77.266 31.299-120.323-9.694-29.11-27.767-48.165-31.299-51.688l-114.683-114.665c-7.91-7.91-18.289-11.875-28.659-11.875z" />
<glyph unicode="&#xe935;" glyph-name="Performatted" horiz-adv-x="1339" d="M984.599 93.545c-10.074 0-20.165 3.842-27.849 11.535-15.386 15.377-15.386 40.312 0 55.689l287.214 287.223-287.214 287.223c-15.386 15.377-15.386 40.32 0 55.698 15.368 15.377 40.32 15.377 55.689 0l315.072-315.072c15.386-15.377 15.386-40.32 0-55.698l-315.072-315.072c-7.675-7.684-17.767-11.526-27.84-11.526zM354.455 93.545c-10.082 0-20.156 3.842-27.849 11.535l-315.072 315.072c-15.377 15.377-15.377 40.312 0 55.698l315.072 315.072c15.386 15.377 40.312 15.377 55.698 0 15.377-15.377 15.377-40.32 0-55.698l-287.223-287.223 287.223-287.223c15.377-15.377 15.377-40.312 0-55.689-7.693-7.702-17.767-11.544-27.849-11.544zM511.991-64c-4.131 0-8.323 0.648-12.454 2.022-20.637 6.879-31.787 29.188-24.908 49.816l315.072 945.215c6.879 20.637 29.197 31.787 49.816 24.908 20.637-6.879 31.787-29.179 24.917-49.816l-315.072-945.215c-5.505-16.497-20.873-26.93-37.371-26.93z" />
<glyph unicode="&#xe936;" glyph-name="Pinned" horiz-adv-x="674" d="M561.951 414.699l-74.927 416.26h74.927v91.577h-449.561v-91.577h74.927l-74.927-416.26h-74.927v-91.577h599.415v91.577h-74.927zM299.707 510.439c0-20.68-16.775-37.463-37.463-37.463s-37.463 16.784-37.463 37.463v224.78c0 20.688 16.775 37.463 37.463 37.463s37.463-16.767 37.463-37.463v-224.78zM636.878 285.659h-599.415c-20.688 0-37.463 16.775-37.463 37.463v91.577c0 20.696 16.775 37.463 37.463 37.463h43.607l61.44 341.333h-30.121c-20.688 0-37.463 16.775-37.463 37.463v91.577c0 20.688 16.775 37.463 37.463 37.463h449.561c20.688 0 37.463-16.775 37.463-37.463v-91.577c0-20.688-16.775-37.463-37.463-37.463h-30.121l61.448-341.333h43.599c20.688 0 37.463-16.775 37.463-37.463v-91.577c0-20.688-16.775-37.463-37.463-37.463zM74.927 360.585h524.488v16.65h-37.463c-18.132 0-33.659 12.987-36.872 30.828l-74.927 416.26c-1.965 10.923 1.007 22.153 8.134 30.67 7.11 8.517 17.641 13.429 28.739 13.429h37.463v16.65h-374.634v-16.65h37.463c11.097 0 21.621-4.92 28.739-13.437 7.118-8.508 10.098-19.747 8.134-30.67l-74.927-416.26c-3.214-17.833-18.74-30.82-36.872-30.82h-37.463v-16.65z" />
<glyph unicode="&#xe937;" glyph-name="Preferences" horiz-adv-x="1018" d="M144.797-64c0 0 0 0 0 0-56.579 0.010-96.919 38.579-101.331 42.971-72.899 72.889-40.573 162.513-1.072 204.968 0.334 0.354 0.668 0.698 1.012 1.052l303.607 303.597c-6.921 18.050-12.324 36.677-16.148 55.658-23.028 114.322 12.394 231.76 94.754 314.13 65.533 65.533 152.669 101.624 245.348 101.624 24.364 0 48.778-2.57 72.576-7.639 12.394-2.641 22.836-10.927 28.209-22.391 5.383-11.464 5.079-24.799-0.809-36.010l-110.396-210.249 81.186-81.186 210.158 110.467c11.231 5.899 24.566 6.192 36.020 0.82 11.474-5.383 19.76-15.824 22.401-28.219 24.617-115.607-10.523-234.451-93.995-317.904-65.533-65.533-152.648-101.624-245.328-101.624-23.615 0-47.311 2.418-70.42 7.194-18.232 3.754-36.141 8.995-53.524 15.632l-306.531-310.032c-28.087-28.097-61.132-42.859-95.715-42.859zM101.351 128.462c-10.523-11.848-40.451-52.451-0.688-92.204 5.373-5.14 24.465-19.305 44.134-19.305v0c13.012 0 25.548 6.212 38.316 18.981l325.765 329.499c12.182 12.303 30.819 15.521 46.38 7.983 19.598-9.46 40.33-16.482 61.668-20.883 17.737-3.653 35.918-5.514 54.060-5.514 71.048 0 137.856 27.672 188.101 77.908 50.782 50.782 78.221 118.652 77.968 188.83l-184.034-96.737c-15.673-8.246-34.917-5.322-47.443 7.204l-123.337 123.327c-12.526 12.526-15.45 31.75-7.214 47.433l96.656 184.075c-0.233 0-0.476 0-0.718 0-71.058 0-137.866-27.662-188.112-77.908-63.146-63.156-90.302-153.225-72.636-240.917 4.411-21.895 11.565-43.153 21.268-63.196 7.507-15.511 4.381-34.067-7.801-46.249l-322.335-322.325z" />
<glyph unicode="&#xe938;" glyph-name="Quote" d="M982.215-64c-10.877 0-21.567 4.242-29.56 12.246l-175.846 175.835h-735.013c-23.082 0-41.796 18.714-41.796 41.796v752.327c0 23.082 18.714 41.796 41.796 41.796h940.408c23.082 0 41.796-18.714 41.796-41.796v-940.408c0-16.906-10.188-32.141-25.809-38.609-5.162-2.142-10.595-3.187-15.976-3.187zM83.592 207.673h710.531c11.086 0 21.713-4.409 29.55-12.246l116.736-116.726v797.706h-856.816v-668.735z" />
<glyph unicode="&#xe939;" glyph-name="Reply_Empty" horiz-adv-x="1180" d="M1134.141-64c-19.236 0-36.757 12.269-43.018 31.021-67.445 202.346-203.687 304.956-404.934 304.956-54.218 0-100.271-7.914-128.832-14.366v-276.244c0-18.348-11.049-34.892-28.006-41.909-16.937-7.027-36.455-3.156-49.44 9.84l-466.623 466.613c-8.509 8.509-13.287 20.052-13.287 32.079s4.779 23.571 13.287 32.079l466.633 466.633c12.975 12.975 32.483 16.876 49.44 9.829 16.957-7.017 28.006-23.561 28.006-41.909v-268.269c60.459-5.595 172.767-23.389 286.013-80.007 152.695-76.347 334.596-239.013 336.158-580.564 0.141-1.452 0.212-2.924 0.212-4.416 0-24.831-19.951-45.004-44.691-45.357-0.313-0.010-0.615-0.010-0.917-0.010zM109.526 447.99l357.108-357.097v201.56c0 19.538 12.501 36.858 31.021 43.048 3.337 1.099 82.86 27.21 188.545 27.21 148.985 0 273.078-51.174 364.386-147.634-44.349 119.375-127.168 209.806-247.773 270.104-144.297 72.143-289.36 72.98-290.801 72.98-25.053 0-45.367 20.314-45.367 45.367v201.57l-357.118-357.108z" />
<glyph unicode="&#xe93a;" glyph-name="Reply_Fill" horiz-adv-x="1180" d="M1134.141-64c-19.236 0-36.757 12.279-43.028 31.021-67.435 202.346-203.687 304.956-404.934 304.956-54.218 0-100.261-7.914-128.822-14.366v-276.244c0-18.338-11.059-34.892-28.006-41.909-16.937-7.017-36.455-3.156-49.44 9.85l-466.623 466.603c-8.509 8.509-13.287 20.062-13.287 32.079 0 12.027 4.779 23.571 13.277 32.079l466.643 466.633c12.975 12.975 32.493 16.876 49.44 9.829 16.957-7.017 28.006-23.561 28.006-41.909v-268.269c60.459-5.595 172.767-23.389 286.013-80.007 152.695-76.347 334.596-239.013 336.158-580.564 0.141-1.462 0.212-2.924 0.212-4.416 0-24.831-19.951-45.004-44.691-45.357-0.313-0.010-0.615-0.010-0.917-0.010z" />
<glyph unicode="&#xe93b;" glyph-name="Search" d="M472.615 14.769c-260.604 0-472.615 212.021-472.615 472.615 0 260.604 212.012 472.615 472.615 472.615 260.595 0 472.615-212.012 472.615-472.615 0-260.595-212.021-472.615-472.615-472.615zM472.615 881.231c-217.167 0-393.846-176.679-393.846-393.846s176.679-393.846 393.846-393.846c217.167 0 393.846 176.679 393.846 393.846s-176.679 393.846-393.846 393.846zM984.615-64c-10.074 0-20.165 3.842-27.849 11.535l-205.658 205.658c-15.386 15.378-15.386 40.312 0 55.69 15.369 15.386 40.321 15.386 55.69 0l205.658-205.658c15.386-15.378 15.386-40.312 0-55.69-7.676-7.693-17.767-11.535-27.841-11.535z" />
<glyph unicode="&#xe93c;" glyph-name="Settings" horiz-adv-x="976" d="M488.072 251.086c-108.579 0-196.914 88.335-196.914 196.914s88.335 196.914 196.914 196.914c108.579 0 196.914-88.335 196.914-196.914s-88.335-196.914-196.914-196.914zM488.072 566.145c-65.142 0-118.145-53.003-118.145-118.145s53.003-118.145 118.145-118.145 118.145 53.003 118.145 118.145-53.003 118.145-118.145 118.145zM645.636 713.128c-14.8 0-28.996 8.385-35.691 22.677l-68.153 145.426h-109.664l-84.931-148.279c-10.809-18.878-34.869-25.416-53.747-14.599-18.878 10.809-25.416 34.877-14.599 53.747l96.274 168.094c7.019 12.244 20.051 19.806 34.177 19.806h157.538c15.281 0 29.18-8.84 35.665-22.668l78.769-168.094c9.225-19.692 0.744-43.148-18.957-52.373-5.4-2.538-11.089-3.737-16.682-3.737zM148.961 408.607c-12.874 0-25.486 6.31-33.031 17.889l-109.542 168.094c-8.096 12.428-8.533 28.348-1.112 41.196l78.769 136.428c7.037 12.183 20.034 19.692 34.107 19.692h194.875c21.749 0 39.385-17.636 39.385-39.385s-17.636-39.385-39.385-39.385h-172.137l-55.314-95.801 96.335-147.832c11.877-18.222 6.73-42.623-11.492-54.508-6.634-4.324-14.091-6.389-21.46-6.389zM330.533 104.085h-212.379c-14.073 0-27.070 7.501-34.107 19.692l-78.769 136.437c-7.422 12.848-6.984 28.768 1.112 41.196l109.542 168.094c11.868 18.222 36.26 23.359 54.5 11.492 18.222-11.877 23.368-36.278 11.492-54.5l-96.344-147.841 55.314-95.801h189.633c21.749 0 39.385-17.636 39.385-39.385s-17.627-39.385-39.376-39.385zM566.841-64h-157.538c-15.281 0-29.18 8.84-35.665 22.677l-78.769 168.085c-9.234 19.692-0.744 43.148 18.948 52.373 19.692 9.216 43.148 0.753 52.373-18.957l68.144-145.408h107.459l68.135 145.408c9.234 19.692 32.698 28.164 52.373 18.957 19.701-9.234 28.182-32.68 18.957-52.373l-78.76-168.085c-6.477-13.837-20.375-22.677-35.656-22.677zM857.981 104.085h-212.379c-21.749 0-39.385 17.636-39.385 39.385s17.636 39.385 39.385 39.385h189.65l55.191 95.591-98.216 147.754c-12.034 18.117-7.115 42.562 11.001 54.605 18.117 12.052 42.553 7.115 54.605-10.993l111.73-168.094c8.28-12.463 8.787-28.541 1.304-41.494l-78.769-136.437c-7.037-12.2-20.042-19.701-34.116-19.701zM824.994 408.615c-7.483-0.009-15.062 2.127-21.767 6.582-18.108 12.043-23.036 36.488-11.001 54.605l98.216 147.745-55.191 95.591h-189.641c-21.749 0-39.385 17.636-39.385 39.385s17.636 39.385 39.385 39.385h212.379c14.065 0 27.079-7.509 34.107-19.692l78.769-136.437c7.474-12.953 6.975-29.031-1.304-41.494l-111.73-168.085c-7.597-11.413-20.095-17.583-32.838-17.583z" />
<glyph unicode="&#xe93d;" glyph-name="Share_Topic" d="M758.677-64c-67.994 0-135.969 25.873-187.715 77.629l-103.863 103.853c-17.633 17.633-17.633 46.226 0 63.859 17.643 17.643 46.236 17.643 63.87 0l103.853-103.853c68.295-68.275 179.405-68.275 247.72 0.010 68.285 68.285 68.285 179.395-0.010 247.7l-155.79 155.78c-33.089 33.089-77.067 51.304-123.855 51.304s-90.766-18.215-123.855-51.304c-17.643-17.633-46.226-17.633-63.87 0-17.633 17.633-17.633 46.226 0 63.87 50.14 50.15 116.81 77.769 187.725 77.769s137.584-27.619 187.725-77.769l155.79-155.79c103.502-103.512 103.502-271.937 0-375.429-51.746-51.746-119.76-77.619-187.725-77.629zM421.133 273.392c-70.915 0-137.584 27.619-187.725 77.759l-155.79 155.78c-103.502 103.512-103.502 271.927 0 375.439 103.522 103.492 271.947 103.502 375.459 0l112.504-112.514c17.633-17.633 17.633-46.226-0.010-63.87-17.653-17.633-46.236-17.633-63.87 0l-112.484 112.524c-68.305 68.285-179.425 68.285-247.73 0-68.275-68.295-68.275-179.415 0-247.71l155.79-155.78c33.079-33.079 77.057-51.304 123.845-51.304s90.776 18.215 123.865 51.304c17.643 17.633 46.226 17.633 63.87 0 17.633-17.633 17.633-46.226-0.010-63.87-50.13-50.15-116.8-77.759-187.715-77.759zM758.677 467.751c-11.552 0-23.123 4.406-31.945 13.228-33.079 33.079-77.057 51.294-123.845 51.294s-90.766-18.215-123.855-51.304c-17.643-17.633-46.226-17.633-63.87 0-17.633 17.633-17.633 46.226 0 63.87 50.14 50.15 116.81 77.759 187.725 77.759s137.584-27.609 187.725-77.759c17.633-17.633 17.633-46.226-0.010-63.87-8.822-8.802-20.373-13.218-31.925-13.218z" />
<glyph unicode="&#xe93e;" glyph-name="Support" horiz-adv-x="951" d="M914.448 374.857c-0.033-0.008-0.098-0.008-0.163 0-20.196 0-36.571 16.376-36.571 36.571 0 60.497-49.217 109.714-109.714 109.714s-109.714-49.217-109.714-109.714c0-20.196-16.376-36.571-36.571-36.571s-36.571 16.376-36.571 36.571c0 60.497-49.217 109.714-109.714 109.714s-109.714-49.217-109.714-109.714c0-20.196-16.376-36.571-36.571-36.571s-36.571 16.376-36.571 36.571c0 60.497-49.217 109.714-109.714 109.714s-109.714-49.217-109.714-109.714c0-20.196-16.376-36.571-36.571-36.571s-36.571 16.376-36.571 36.571c0 262.152 213.276 475.429 475.429 475.429 260.949 0 473.478-211.31 475.412-471.82 0.122-1.187 0.171-2.397 0.171-3.608 0.008-20.196-16.368-36.571-36.563-36.571zM475.429 594.286c59.75 0 112.9-28.802 146.286-73.257 33.386 44.455 86.536 73.257 146.286 73.257 25.982 0 50.712-5.445 73.118-15.254-63.667 138.378-203.646 234.683-365.69 234.683s-302.023-96.305-365.69-234.683c22.398 9.809 47.137 15.254 73.118 15.254 59.75 0 112.9-28.802 146.286-73.257 33.386 44.455 86.536 73.257 146.286 73.257zM475.429 813.714c-20.196 0-36.571 16.376-36.571 36.571v73.143c0 20.196 16.376 36.571 36.571 36.571s36.571-16.376 36.571-36.571v-73.143c0-20.196-16.376-36.571-36.571-36.571zM402.286-64c-44.105 0-109.714 29.225-109.714 109.714 0 20.196 16.376 36.571 36.571 36.571s36.571-16.376 36.571-36.571c0-29.452 20.122-36.141 37.002-36.571 29.021 0 35.718 20.122 36.141 37.002v365.284c0 20.196 16.376 36.571 36.571 36.571s36.571-16.376 36.571-36.571v-365.714c0-44.105-29.225-109.714-109.714-109.714z" />
<glyph unicode="&#xe93f;" glyph-name="Track" d="M512.012-64c-282.33 0-512.012 229.682-512.012 511.996 0 282.322 229.682 512.004 512.012 512.004 282.314 0 512.004-229.682 512.004-512.004-0.008-282.314-229.69-511.996-512.004-511.996zM512.012 840.254c-216.302 0-392.266-175.963-392.266-392.258s175.963-392.258 392.266-392.258c216.294 0 392.258 175.963 392.258 392.258s-175.971 392.258-392.258 392.258z" />
<glyph unicode="&#xe940;" glyph-name="Tracking" horiz-adv-x="1219" d="M609.282-64c-156.406 0-303.908 17.53-415.331 49.364-128.698 36.772-193.951 87.346-193.951 150.313 0 43.757 32.192 81.962 95.669 113.557 17.729 8.817 39.233 1.593 48.058-16.12 8.817-17.729 1.601-39.241-16.12-48.050-41.28-20.548-55.927-39.448-55.927-49.388 0-43.446 189.754-127.997 537.602-127.997s537.602 84.551 537.602 127.997c0 9.279-12.281 25.869-46.759 44.617-17.394 9.454-23.822 31.213-14.368 48.607s31.229 23.846 48.607 14.368c55.871-30.384 84.2-66.583 84.2-107.592 0-62.967-65.253-113.541-193.951-150.313-111.423-31.834-258.917-49.364-415.331-49.364zM967.683 171.517h-716.802c-19.792 0-35.84 16.048-35.84 35.84v716.802c0 19.792 16.048 35.84 35.84 35.84h716.802c19.792 0 35.84-16.048 35.84-35.84v-716.802c0-19.792-16.048-35.84-35.84-35.84zM286.721 243.198h645.122v645.122h-645.122v-645.122zM792.465 673.279h-358.401c-19.792 0-35.84 16.048-35.84 35.84s16.048 35.84 35.84 35.84h358.401c19.792 0 35.84-16.048 35.84-35.84s-16.048-35.84-35.84-35.84zM649.104 458.238h-215.041c-19.792 0-35.84 16.048-35.84 35.84s16.048 35.84 35.84 35.84h215.041c19.792 0 35.84-16.048 35.84-35.84s-16.048-35.84-35.84-35.84z" />
<glyph unicode="&#xe941;" glyph-name="Upload_Files" horiz-adv-x="939" d="M810.667 533.333c-10.913 0-21.845 4.162-30.17 12.497l-311.163 311.163-311.163-311.163c-16.668-16.659-43.672-16.659-60.34 0-16.659 16.659-16.659 43.681 0 60.34l341.333 341.333c16.649 16.659 43.691 16.659 60.34 0l341.333-341.333c16.668-16.659 16.668-43.681 0-60.34-8.325-8.334-19.257-12.497-30.17-12.497zM469.333 192c-23.561 0-42.667 19.105-42.667 42.667v682.667c0 23.561 19.105 42.667 42.667 42.667s42.667-19.105 42.667-42.667v-682.667c0-23.561-19.105-42.667-42.667-42.667zM896-64h-853.333c-23.561 0-42.667 19.105-42.667 42.667v85.333c0 23.561 19.105 42.667 42.667 42.667s42.667-19.105 42.667-42.667v-42.667h768v42.667c0 23.561 19.105 42.667 42.667 42.667s42.667-19.105 42.667-42.667v-85.333c0-23.561-19.105-42.667-42.667-42.667z" />
<glyph unicode="&#xe942;" glyph-name="Upvote" horiz-adv-x="866" d="M433.231 960c11.693 0 22.773-5.19 30.256-14.17l393.846-472.615c9.776-11.745 11.885-28.077 5.409-41.923-6.485-13.828-20.384-22.677-35.665-22.677h-196.923v-433.231c0-21.749-17.636-39.385-39.385-39.385h-315.077c-21.749 0-39.385 17.636-39.385 39.385v433.231h-196.923c-15.281 0-29.188 8.848-35.665 22.677-6.477 13.846-4.376 30.177 5.409 41.923l393.846 472.615c7.483 8.98 18.563 14.17 30.256 14.17zM742.986 487.385l-309.756 371.712-309.764-371.712h152.226c21.749 0 39.385-17.636 39.385-39.385v-433.231h236.308v433.231c0 21.749 17.636 39.385 39.385 39.385h152.217z" />
<glyph unicode="&#xe943;" glyph-name="User" horiz-adv-x="941" d="M467.54 422.938c-134.782 0-243.312 160.702-243.312 293.759 0 134.155 109.148 243.303 243.312 243.303 134.146 0 243.285-109.148 243.285-243.303 0-133.057-108.521-293.759-243.285-293.759zM467.54 876.983c-88.394 0-160.296-71.902-160.296-160.287 0-92.886 75.471-210.733 160.296-210.733 84.806 0 160.268 117.847 160.268 210.733 0 88.385-71.892 160.287-160.268 160.287zM470.676-64c-2.011 0-4.040 0.157-6.097 0.452-205.706 30.255-427.655 108.89-436.999 112.22-18.651 6.641-30.006 25.532-27.128 45.124 11.014 75.121 33.871 206.499 63.157 242.445 8.744 10.681 20.090 21.022 33.779 30.845 82.851 59.080 199.286 95.192 204.202 96.705 21.907 6.715 45.133-5.59 51.858-27.506s-5.59-45.143-27.506-51.858c-1.946-0.6-108.927-34-180.257-84.861-7.591-5.442-13.781-10.949-17.793-15.847-10.211-15.404-27.58-93.384-39.968-167.878 68.941-22.783 236.044-74.779 388.748-97.249 22.673-3.33 38.354-24.425 35.024-47.107-3.044-20.643-20.773-35.476-41.019-35.485zM470.566-64c-20.247 0-37.975 14.842-41.010 35.476-3.339 22.682 12.342 43.777 35.024 47.107 152.861 22.488 319.844 74.457 388.748 97.249-12.388 74.503-29.821 152.575-40.521 168.588-3.459 4.188-9.648 9.694-17.341 15.201-71.523 51-179.094 84.456-180.174 84.788-21.898 6.743-34.203 29.969-27.478 51.867 6.724 21.907 29.858 34.23 51.848 27.497 4.907-1.513 121.352-37.625 204.101-96.631 13.79-9.897 25.136-20.238 33.797-30.818 29.36-36.048 52.227-167.426 63.24-242.547 2.878-19.583-8.486-38.483-27.128-45.124-9.344-3.33-231.293-81.965-437.008-112.22-2.048-0.286-4.086-0.434-6.097-0.434z" />
<glyph unicode="&#xe944;" d="M1024 448c0-282.77-229.23-512-512-512s-512 229.23-512 512c0 282.77 229.23 512 512 512s512-229.23 512-512z" />
<glyph unicode="&#xe945;" d="M402.286 229.463c-9.127 0-18.268 3.482-25.225 10.447l-146.286 146.286c-13.936 13.929-13.936 36.521 0 50.458 13.922 13.929 36.529 13.929 50.451 0l121.060-121.060 340.489 340.489c13.922 13.929 36.529 13.929 50.451 0 13.936-13.936 13.936-36.529 0-50.458l-365.714-365.714c-6.957-6.957-16.099-10.447-25.225-10.447z" />
<glyph unicode="&#xe946;" glyph-name="Watch_Later" d="M715.294 199.529c-11.558 0-23.123 4.412-31.94 13.237l-203.294 203.294c-17.641 17.641-17.641 46.246 0 63.887l135.529 135.529c17.634 17.641 46.253 17.641 63.88 0 17.649-17.641 17.649-46.246 0-63.887l-103.582-103.59 171.347-171.354c17.649-17.641 17.649-46.246 0-63.88-8.817-8.824-20.382-13.237-31.94-13.237zM512-64c-282.315 0-512 229.685-512 512s229.685 512 512 512 512-229.685 512-512-229.685-512-512-512zM512 884.706c-240.798 0-436.706-195.908-436.706-436.706s195.908-436.706 436.706-436.706 436.706 195.908 436.706 436.706-195.908 436.706-436.706 436.706z" />
<glyph unicode="&#xe947;" glyph-name="Watching" horiz-adv-x="1583" d="M791.273-64c-250.58 0-455.38 130.069-555.163 207.603-117.336 91.188-236.11 225.011-236.11 304.397 0 79.376 118.774 213.209 236.11 304.387 99.783 77.534 304.583 207.613 555.163 207.613 250.59 0 455.38-130.079 555.163-207.613 117.336-91.177 236.11-225.011 236.11-304.387 0-79.386-118.774-213.209-236.11-304.397-99.783-77.534-304.573-207.603-555.163-207.603zM791.273 866.909c-384.91 0-693.869-351.842-698.182-419.157 4.313-66.819 313.272-418.661 698.182-418.661s693.879 351.842 698.192 419.157c-4.313 66.819-313.282 418.661-698.192 418.661zM1070.545 448c0-154.238-125.035-279.273-279.273-279.273s-279.273 125.035-279.273 279.273c0 154.238 125.035 279.273 279.273 279.273s279.273-125.035 279.273-279.273zM791.273 122.182c-179.655 0-325.818 146.163-325.818 325.818s146.163 325.818 325.818 325.818 325.818-146.163 325.818-325.818-146.163-325.818-325.818-325.818zM791.273 680.727c-128.331 0-232.727-104.396-232.727-232.727 0-128.321 104.396-232.727 232.727-232.727 128.321 0 232.727 104.407 232.727 232.727 0 128.331-104.407 232.727-232.727 232.727z" />
</font>
</defs>
</svg>
