<?xml version="1.0" encoding="utf-8"?>
<!-- Generator: Adobe Illustrator 19.0.0, SVG Export Plug-In . SVG Version: 6.00 Build 0)  -->
<svg version="1.1" id="Calque_1" xmlns="http://www.w3.org/2000/svg" xmlns:xlink="http://www.w3.org/1999/xlink" x="0px" y="0px"
	 viewBox="-124 126 200 200" style="enable-background:new -124 126 200 200;" xml:space="preserve">
<style type="text/css">
	.st0{fill:none;stroke:#7700F4;stroke-width:3;stroke-linecap:round;stroke-linejoin:round;stroke-miterlimit:10;}
	.st1{fill:none;stroke:#7700F4;stroke-width:2;stroke-linecap:round;stroke-linejoin:round;stroke-miterlimit:10;}
	.st2{fill:none;stroke:#C0D7F1;stroke-linecap:round;stroke-linejoin:round;stroke-miterlimit:10;}
	.st3{fill:none;stroke:#C0D7F1;stroke-miterlimit:10;}
	.st4{fill:#C0D7F1;}
	.st5{fill:none;}
	.st6{fill:#7700F4;}
	.st7{fill:#FFFFFF;}
</style>
<g id="Layer_1_99_">
</g>
<g id="processor_1_">
</g>
<g id="cpu_1_">
</g>
<g id="printer_1_">
</g>
<g id="box_1_">
</g>
<g id="touch-pad_1_">
</g>
<g id="keyboard_1_">
</g>
<g id="cam-6_1_">
</g>
<g id="headphone_1_">
</g>
<g id="floppy_1_">
</g>
<g id="flat-wifi_1_">
</g>
<g id="two-line-wifi_1_">
</g>
<g id="i-phone-iol_1_">
</g>
<g id="responsive_1_">
</g>
<g id="tabs_1_">
</g>
<g id="wide_1_">
</g>
<g id="rotate_1_">
</g>
<g id="storager-load_1_">
</g>
<g id="storager-close_1_">
</g>
<g id="storager-download_2_">
</g>
<g id="storager-upload_1_">
</g>
<g id="storager-setting_1_">
</g>
<g id="storager-unloack_1_">
</g>
<g id="storager-lock_1_">
</g>
<g id="storager-refresh_1_">
</g>
<g id="storager_1_">
</g>
<g id="microsim_1_">
</g>
<g id="game-remote-3_1_">
</g>
<g id="game-remote-2_1_">
</g>
<g id="game-remote-1_1_">
</g>
<g id="game-remote_1_">
</g>
<g id="nano-sim_1_">
</g>
<g id="sim-card_1_">
</g>
<g id="plug-2_1_">
</g>
<g id="plug_1_">
</g>
<g id="wifi-adaptor-s_1_">
</g>
<g id="wifi-adaptor-r_1_">
</g>
<g id="socket_1_">
</g>
<g id="broken-link_1_">
</g>
<g id="link_1_">
</g>
<g id="network-tred_1_">
</g>
<g id="cloud-down_1_">
</g>
<g id="cloud-success_1_">
</g>
<g id="channel_1_">
</g>
<g id="locate-network_1_">
</g>
<g id="group-share_1_">
</g>
<g id="network-desktop_1_">
</g>
<g id="network-3_1_">
</g>
<g id="network-2_1_">
</g>
<g id="network-1_1_">
</g>
<g id="home-adaptor_1_">
</g>
<g id="wifi-adaptor_1_">
</g>
<g id="adoptor_1_">
</g>
<g id="drive-shelve_1_">
</g>
<g id="drive-3_1_">
</g>
<g id="drive_1_">
</g>
<g id="wifi-laptop_1_">
</g>
<g id="wifi-tab_1_">
</g>
<g id="wifi-mob_1_">
</g>
<g id="wifi_1_">
</g>
<g id="laptop-1_1_">
</g>
<g id="computer-2_1_">
</g>
<g id="old-computer_1_">
</g>
<g id="battery-connected_1_">
</g>
<g id="charging-3_1_">
</g>
<g id="charging-2_1_">
</g>
<g id="charging-1_1_">
</g>
<g id="battery_1_">
</g>
<g id="cam-4_1_">
</g>
<g id="radio-2_1_">
</g>
<g id="radio-1_1_">
</g>
<g id="radio_1_">
</g>
<g id="tape_1_">
</g>
<g id="magic-mouse_1_">
</g>
<g id="pendrive_1_">
</g>
<g id="button-mouse_1_">
</g>
<g id="ipod-pack_1_">
</g>
<g id="i-pod_1_">
</g>
<g id="flat-tv_1_">
</g>
<g id="watch-2_1_">
</g>
<g id="watch_1_">
</g>
<g id="cam-2_1_">
</g>
<g id="cam-1_1_">
</g>
<g id="tv_1_">
</g>
<g id="wirellesss_1_">
</g>
<g id="small-phone_1_">
</g>
<g id="phone_3_">
</g>
<g id="android-phone_1_">
</g>
<g id="i-phone_1_">
</g>
<g id="large_phone_1_">
</g>
<g id="i-pad_1_">
</g>
<g id="tesktop_1_">
</g>
<g id="laptop_1_">
</g>
<g id="cloud-close_1_">
</g>
<g id="plug-1_1_">
</g>
<g id="storager-leg_1_">
</g>
<g id="phone_2_">
</g>
<g id="cold-wifi_1_">
</g>
<g id="handycam_1_">
</g>
<g id="Layer_1_2_">
</g>
<g id="medium-box_2_">
</g>
<g id="minuse_2_">
</g>
<g id="timer_2_">
</g>
<g id="drawer-2_2_">
</g>
<g id="trash-box_2_">
</g>
<g id="book-label_2_">
</g>
<g id="folder-label_2_">
</g>
<g id="page-back_2_">
</g>
<g id="close-page_5_">
</g>
<g id="pages_2_">
</g>
<g id="list_2_">
</g>
<g id="wave_2_">
</g>
<g id="close-page_4_">
</g>
<g id="add-page_2_">
</g>
<g id="code_2_">
</g>
<g id="shift-mode_2_">
</g>
<g id="bookmarks_5_">
</g>
<g id="bookmarks_4_">
</g>
<g id="open-pages_2_">
</g>
<g id="note_2_">
</g>
<g id="locater_2_">
</g>
<g id="navigater_2_">
</g>
<g id="alarm_2_">
</g>
<g id="clock_2_">
</g>
<g id="time-3_2_">
</g>
<g id="time-1_2_">
</g>
<g id="time_2_">
</g>
<g id="downloads_2_">
</g>
<g id="uploads_2_">
</g>
<g id="drawer-1_2_">
</g>
<g id="mail_drawer_2_">
</g>
<g id="drawer_2_">
</g>
<g id="mail_5_">
</g>
<g id="mail-open_2_">
</g>
<g id="open_2_">
</g>
<g id="card_2_">
</g>
<g id="mails_2_">
</g>
<g id="mail_4_">
</g>
<g id="drag-l-t_2_">
</g>
<g id="comment_2_">
</g>
<g id="folder_2_">
</g>
<g id="trash_2_">
</g>
<g id="report-flag_2_">
</g>
<g id="setting-roll_2_">
</g>
<g id="spects_2_">
</g>
<g id="search_5_">
</g>
<g id="game-2_2_">
</g>
<g id="game_2_">
</g>
<g id="unloack_2_">
</g>
<g id="loack_2_">
</g>
<g id="settings-ui_2_">
</g>
<g id="abacuse_2_">
</g>
<g id="browser-check-box_2_">
</g>
<g id="browser-reload_2_">
</g>
<g id="browser-check_2_">
</g>
<g id="browser-close_2_">
</g>
<g id="browser-inus_2_">
</g>
<g id="browser-add_2_">
</g>
<g id="flowtting_2_">
</g>
<g id="popup_2_">
</g>
<g id="latter_2_">
</g>
<g id="details_2_">
</g>
<g id="blocks_2_">
</g>
<g id="locate_2_">
</g>
<g id="parabolla_2_">
</g>
<g id="check-box_2_">
</g>
<g id="slide-nav_2_">
</g>
<g id="share_2_">
</g>
<g id="profile_2_">
</g>
<g id="settings_2_">
</g>
<g id="expand_2_">
</g>
<g id="image_2_">
</g>
<g id="pause_2_">
</g>
<g id="player_2_">
</g>
<g id="imager_2_">
</g>
<g id="slider_2_">
</g>
<g id="slide-count_2_">
</g>
<g id="progress-bar_2_">
</g>
<g id="graph_2_">
</g>
<g id="statistics_2_">
</g>
<g id="cloud-reload_2_">
</g>
<g id="cloud-down_3_">
</g>
<g id="cloud-up_2_">
</g>
<g id="cloud_2_">
</g>
<g id="masonary_2_">
</g>
<g id="column_2_">
</g>
<g id="grid-block_2_">
</g>
<g id="horizontal_2_">
</g>
<g id="_x35_-column_2_">
</g>
<g id="_x31_-column_2_">
</g>
<g id="_x33_-column_2_">
</g>
<g id="sidebar_3_">
</g>
<g id="favorite_2_">
</g>
<g id="load_2_">
</g>
<g id="search-list_2_">
</g>
<g id="search_4_">
</g>
<g id="browser_3_">
</g>
<g id="change-mode_2_">
</g>
<g id="tick_2_">
</g>
<g id="XMLID_13_">
	<line id="XMLID_8_" class="st0" x1="-98.2" y1="165.5" x2="-98.2" y2="171.4"/>
	<line id="XMLID_2_" class="st0" x1="-95.3" y1="168.5" x2="-101.1" y2="168.5"/>
</g>
<g id="XMLID_17_">
	<line id="XMLID_27_" class="st1" x1="-67.8" y1="149.7" x2="-67.8" y2="154.6"/>
	<line id="XMLID_26_" class="st1" x1="-65.3" y1="152.1" x2="-70.3" y2="152.1"/>
</g>
<g id="XMLID_28_">
	<line id="XMLID_30_" class="st2" x1="-48.7" y1="177.7" x2="-48.7" y2="180.3"/>
	<line id="XMLID_29_" class="st2" x1="-47.4" y1="179" x2="-50" y2="179"/>
</g>
<path id="XMLID_14_" class="st3" d="M-51.3,146.7c-0.1,0-0.2,0.1-0.2,0.1c-0.2,0-0.3,0-0.6,0c-0.7-0.2-1.1-0.9-0.9-1.6
	s0.9-1.1,1.6-0.9c0.7,0.2,1.1,0.9,0.9,1.6"/>
<path id="XMLID_16_" class="st3" d="M-26.5,132.2c-0.1,0-0.2,0.1-0.2,0.1c-0.2,0-0.3,0-0.4,0c-0.6-0.2-0.9-0.7-0.7-1.3
	c0.2-0.6,0.7-0.9,1.3-0.7c0.6,0.2,0.9,0.7,0.7,1.3"/>
<g>
	<g>
		<path class="st4" d="M-84.1,139.2c-1,0-1.9-0.8-1.9-1.9v-8.3c0-1,0.8-1.9,1.9-1.9c1,0,1.9,0.8,1.9,1.9v8.3
			C-82.2,138.3-83.1,139.2-84.1,139.2L-84.1,139.2z"/>
	</g>
	<g>
		<path class="st4" d="M-79.9,135h-8.3c-1,0-1.9-0.8-1.9-1.9s0.8-1.9,1.9-1.9h8.3c1,0,1.9,0.8,1.9,1.9S-78.9,135-79.9,135L-79.9,135
			z"/>
	</g>
</g>
<line class="st5" x1="81.9" y1="220.6" x2="81.9" y2="-334.2"/>
<path class="st5" d="M636.7,220.6"/>
<line class="st5" x1="-90.2" y1="220.6" x2="-90.2" y2="-334.2"/>
<g>
	<g>
		<path class="st6" d="M1.3,298.5h-50.6c-0.4,0-0.8-0.2-1-0.5l-31.5-39.6c-0.3-0.3-0.4-0.7-0.3-1.1l11.3-49.3
			c0.1-0.4,0.4-0.7,0.7-0.9l45.6-22c0.4-0.2,0.8-0.2,1.2,0l45.6,22c0.4,0.2,0.6,0.5,0.7,0.9l11.3,49.3c0.1,0.4,0,0.8-0.3,1.1
			L2.3,298C2,298.3,1.7,298.5,1.3,298.5z M-48.7,295.8H0.7l30.8-38.5l-11-48.1L-24,187.8l-44.4,21.4l-11,48.1L-48.7,295.8z"/>
	</g>
	<g>
		<path class="st6" d="M-24,298.5c-0.7,0-1.3-0.6-1.3-1.3v-32.4c0-0.7,0.6-1.3,1.3-1.3s1.3,0.6,1.3,1.3v32.4
			C-22.7,297.9-23.3,298.5-24,298.5z"/>
	</g>
	<g>
		<path class="st6" d="M1.1,298.5c-0.7,0-1.3-0.6-1.3-1.3v-32.4c0-0.7,0.6-1.3,1.3-1.3s1.3,0.6,1.3,1.3v32.4
			C2.4,297.9,1.8,298.5,1.1,298.5z"/>
	</g>
	<g>
		<path class="st6" d="M-11.5,242.6c-0.3,0-0.7-0.1-0.9-0.4c-0.5-0.5-0.5-1.3,0-1.9l33-33c0.5-0.5,1.3-0.5,1.9,0
			c0.5,0.5,0.5,1.3,0,1.9l-33.1,33C-10.8,242.5-11.1,242.6-11.5,242.6z"/>
	</g>
	<g>
		<path class="st6" d="M-36.4,242.6c-0.3,0-0.7-0.1-0.9-0.4l-33-33c-0.5-0.5-0.5-1.3,0-1.9c0.5-0.5,1.3-0.5,1.9,0l33,33
			c0.5,0.5,0.5,1.3,0,1.9C-35.7,242.5-36.1,242.6-36.4,242.6z"/>
	</g>
	<g>
		<path class="st6" d="M-49.1,298.5c-0.7,0-1.3-0.6-1.3-1.3v-32.4c0-0.7,0.6-1.3,1.3-1.3c0.7,0,1.3,0.6,1.3,1.3v32.4
			C-47.8,297.9-48.4,298.5-49.1,298.5z"/>
	</g>
	<g>
		<path class="st6" d="M-24,215.9c-0.7,0-1.3-0.6-1.3-1.3v-28.3c0-0.7,0.6-1.3,1.3-1.3s1.3,0.6,1.3,1.3v28.3
			C-22.7,215.4-23.3,215.9-24,215.9z"/>
	</g>
	<g>
		<path class="st7" d="M-4.3,241.3c0,3.9-3.2,7.1-7.1,7.1s-7.2-3.2-7.2-7.1s3.2-7.2,7.2-7.2S-4.3,237.3-4.3,241.3z"/>
		<path class="st6" d="M-11.5,249.8c-4.7,0-8.5-3.8-8.5-8.5c0-4.7,3.8-8.5,8.5-8.5s8.4,3.8,8.4,8.5C-3,246-6.8,249.8-11.5,249.8z
			 M-11.5,235.5c-3.2,0-5.8,2.6-5.8,5.8c0,3.2,2.6,5.8,5.8,5.8c3.2,0,5.8-2.6,5.8-5.8C-5.6,238.1-8.2,235.5-11.5,235.5z"/>
	</g>
	<g>
		<path class="st7" d="M-43.5,241.3c0,3.9,3.2,7.1,7.1,7.1s7.2-3.2,7.2-7.1s-3.2-7.2-7.2-7.2C-40.3,234.2-43.5,237.3-43.5,241.3z"/>
		<path class="st6" d="M-36.4,249.8c-4.7,0-8.4-3.8-8.4-8.5c0-4.7,3.8-8.5,8.4-8.5s8.5,3.8,8.5,8.5C-27.9,246-31.7,249.8-36.4,249.8
			z M-36.4,235.5c-3.2,0-5.8,2.6-5.8,5.8c0,3.2,2.6,5.8,5.8,5.8c3.2,0,5.8-2.6,5.8-5.8C-30.6,238.1-33.2,235.5-36.4,235.5z"/>
	</g>
	<g>
		<path class="st7" d="M8.2,264.8c0,3.9-3.2,7.1-7.1,7.1s-7.1-3.2-7.1-7.1c0-3.9,3.2-7.2,7.1-7.2C5,257.6,8.2,260.8,8.2,264.8z"/>
		<path class="st6" d="M1.1,273.2c-4.7,0-8.5-3.8-8.5-8.5c0-4.7,3.8-8.5,8.5-8.5s8.4,3.8,8.4,8.5C9.5,269.4,5.7,273.2,1.1,273.2z
			 M1.1,258.9c-3.2,0-5.8,2.6-5.8,5.8c0,3.2,2.6,5.8,5.8,5.8c3.2,0,5.8-2.6,5.8-5.8C6.9,261.5,4.3,258.9,1.1,258.9z"/>
	</g>
	<g>
		<path class="st7" d="M-42,264.8c0,3.9-3.2,7.1-7.1,7.1s-7.1-3.2-7.1-7.1c0-3.9,3.2-7.2,7.1-7.2C-45.1,257.6-42,260.8-42,264.8z"/>
		<path class="st6" d="M-49.1,273.2c-4.7,0-8.5-3.8-8.5-8.5c0-4.7,3.8-8.5,8.5-8.5s8.4,3.8,8.4,8.5
			C-40.6,269.4-44.4,273.2-49.1,273.2z M-49.1,258.9c-3.2,0-5.8,2.6-5.8,5.8c0,3.2,2.6,5.8,5.8,5.8c3.2,0,5.8-2.6,5.8-5.8
			C-43.3,261.5-45.9,258.9-49.1,258.9z"/>
	</g>
	<g>
		<path class="st7" d="M-16.9,264.8c0,3.9-3.2,7.1-7.1,7.1s-7.1-3.2-7.1-7.1c0-3.9,3.2-7.2,7.1-7.2S-16.9,260.8-16.9,264.8z"/>
		<path class="st6" d="M-24,273.2c-4.7,0-8.5-3.8-8.5-8.5c0-4.7,3.8-8.5,8.5-8.5s8.4,3.8,8.4,8.5C-15.6,269.4-19.3,273.2-24,273.2z
			 M-24,258.9c-3.2,0-5.8,2.6-5.8,5.8c0,3.2,2.6,5.8,5.8,5.8c3.2,0,5.8-2.6,5.8-5.8C-18.2,261.5-20.8,258.9-24,258.9z"/>
	</g>
	<g>
		<path class="st7" d="M-16.9,214.6c0,3.9-3.2,7.1-7.1,7.1s-7.1-3.2-7.1-7.1c0-3.9,3.2-7.2,7.1-7.2S-16.9,210.7-16.9,214.6z"/>
		<path class="st6" d="M-24,223.1c-4.7,0-8.5-3.8-8.5-8.4s3.8-8.5,8.5-8.5s8.4,3.8,8.4,8.5S-19.3,223.1-24,223.1z M-24,208.8
			c-3.2,0-5.8,2.6-5.8,5.8c0,3.2,2.6,5.8,5.8,5.8c3.2,0,5.8-2.6,5.8-5.8C-18.2,211.4-20.8,208.8-24,208.8z"/>
	</g>
</g>
</svg>
