<?xml version="1.0" encoding="utf-8"?>
<!-- Generator: Adobe Illustrator 19.0.0, SVG Export Plug-In . SVG Version: 6.00 Build 0)  -->
<svg version="1.1" id="Calque_1" xmlns="http://www.w3.org/2000/svg" xmlns:xlink="http://www.w3.org/1999/xlink" x="0px" y="0px"
	 viewBox="-124 126 200 200" style="enable-background:new -124 126 200 200;" xml:space="preserve">
<style type="text/css">
	.st0{fill:none;stroke:#7700F4;stroke-width:3;stroke-linecap:round;stroke-linejoin:round;stroke-miterlimit:10;}
	.st1{fill:none;stroke:#7700F4;stroke-width:2;stroke-linecap:round;stroke-linejoin:round;stroke-miterlimit:10;}
	.st2{fill:none;stroke:#C0D7F1;stroke-linecap:round;stroke-linejoin:round;stroke-miterlimit:10;}
	.st3{fill:none;stroke:#C0D7F1;stroke-miterlimit:10;}
	.st4{fill:#C0D7F1;}
	.st5{fill:none;}
	.st6{clip-path:url(#SVGID_2_);}
	.st7{fill:#7700F4;}
	.st8{fill:#FFFFFF;}
	.st9{fill:none;stroke:#7700F4;stroke-width:3;stroke-miterlimit:10;}
</style>
<g id="Layer_1_99_">
</g>
<g id="processor_1_">
</g>
<g id="cpu_1_">
</g>
<g id="printer_1_">
</g>
<g id="box_1_">
</g>
<g id="touch-pad_1_">
</g>
<g id="keyboard_1_">
</g>
<g id="cam-6_1_">
</g>
<g id="headphone_1_">
</g>
<g id="floppy_1_">
</g>
<g id="flat-wifi_1_">
</g>
<g id="two-line-wifi_1_">
</g>
<g id="i-phone-iol_1_">
</g>
<g id="responsive_1_">
</g>
<g id="tabs_1_">
</g>
<g id="wide_1_">
</g>
<g id="rotate_1_">
</g>
<g id="storager-load_1_">
</g>
<g id="storager-close_1_">
</g>
<g id="storager-download_2_">
</g>
<g id="storager-upload_1_">
</g>
<g id="storager-setting_1_">
</g>
<g id="storager-unloack_1_">
</g>
<g id="storager-lock_1_">
</g>
<g id="storager-refresh_1_">
</g>
<g id="storager_1_">
</g>
<g id="microsim_1_">
</g>
<g id="game-remote-3_1_">
</g>
<g id="game-remote-2_1_">
</g>
<g id="game-remote-1_1_">
</g>
<g id="game-remote_1_">
</g>
<g id="nano-sim_1_">
</g>
<g id="sim-card_1_">
</g>
<g id="plug-2_1_">
</g>
<g id="plug_1_">
</g>
<g id="wifi-adaptor-s_1_">
</g>
<g id="wifi-adaptor-r_1_">
</g>
<g id="socket_1_">
</g>
<g id="broken-link_1_">
</g>
<g id="link_1_">
</g>
<g id="network-tred_1_">
</g>
<g id="cloud-down_1_">
</g>
<g id="cloud-success_1_">
</g>
<g id="channel_1_">
</g>
<g id="locate-network_1_">
</g>
<g id="group-share_1_">
</g>
<g id="network-desktop_1_">
</g>
<g id="network-3_1_">
</g>
<g id="network-2_1_">
</g>
<g id="network-1_1_">
</g>
<g id="home-adaptor_1_">
</g>
<g id="wifi-adaptor_1_">
</g>
<g id="adoptor_1_">
</g>
<g id="drive-shelve_1_">
</g>
<g id="drive-3_1_">
</g>
<g id="drive_1_">
</g>
<g id="wifi-laptop_1_">
</g>
<g id="wifi-tab_1_">
</g>
<g id="wifi-mob_1_">
</g>
<g id="wifi_1_">
</g>
<g id="laptop-1_1_">
</g>
<g id="computer-2_1_">
</g>
<g id="old-computer_1_">
</g>
<g id="battery-connected_1_">
</g>
<g id="charging-3_1_">
</g>
<g id="charging-2_1_">
</g>
<g id="charging-1_1_">
</g>
<g id="battery_1_">
</g>
<g id="cam-4_1_">
</g>
<g id="radio-2_1_">
</g>
<g id="radio-1_1_">
</g>
<g id="radio_1_">
</g>
<g id="tape_1_">
</g>
<g id="magic-mouse_1_">
</g>
<g id="pendrive_1_">
</g>
<g id="button-mouse_1_">
</g>
<g id="ipod-pack_1_">
</g>
<g id="i-pod_1_">
</g>
<g id="flat-tv_1_">
</g>
<g id="watch-2_1_">
</g>
<g id="watch_1_">
</g>
<g id="cam-2_1_">
</g>
<g id="cam-1_1_">
</g>
<g id="tv_1_">
</g>
<g id="wirellesss_1_">
</g>
<g id="small-phone_1_">
</g>
<g id="phone_3_">
</g>
<g id="android-phone_1_">
</g>
<g id="i-phone_1_">
</g>
<g id="large_phone_1_">
</g>
<g id="i-pad_1_">
</g>
<g id="tesktop_1_">
</g>
<g id="laptop_1_">
</g>
<g id="cloud-close_1_">
</g>
<g id="plug-1_1_">
</g>
<g id="storager-leg_1_">
</g>
<g id="phone_2_">
</g>
<g id="cold-wifi_1_">
</g>
<g id="handycam_1_">
</g>
<g id="Layer_1_2_">
</g>
<g id="medium-box_2_">
</g>
<g id="minuse_2_">
</g>
<g id="timer_2_">
</g>
<g id="drawer-2_2_">
</g>
<g id="trash-box_2_">
</g>
<g id="book-label_2_">
</g>
<g id="folder-label_2_">
</g>
<g id="page-back_2_">
</g>
<g id="close-page_5_">
</g>
<g id="pages_2_">
</g>
<g id="list_2_">
</g>
<g id="wave_2_">
</g>
<g id="close-page_4_">
</g>
<g id="add-page_2_">
</g>
<g id="code_2_">
</g>
<g id="shift-mode_2_">
</g>
<g id="bookmarks_5_">
</g>
<g id="bookmarks_4_">
</g>
<g id="open-pages_2_">
</g>
<g id="note_2_">
</g>
<g id="locater_2_">
</g>
<g id="navigater_2_">
</g>
<g id="alarm_2_">
</g>
<g id="clock_2_">
</g>
<g id="time-3_2_">
</g>
<g id="time-1_2_">
</g>
<g id="time_2_">
</g>
<g id="downloads_2_">
</g>
<g id="uploads_2_">
</g>
<g id="drawer-1_2_">
</g>
<g id="mail_drawer_2_">
</g>
<g id="drawer_2_">
</g>
<g id="mail_5_">
</g>
<g id="mail-open_2_">
</g>
<g id="open_2_">
</g>
<g id="card_2_">
</g>
<g id="mails_2_">
</g>
<g id="mail_4_">
</g>
<g id="drag-l-t_2_">
</g>
<g id="comment_2_">
</g>
<g id="folder_2_">
</g>
<g id="trash_2_">
</g>
<g id="report-flag_2_">
</g>
<g id="setting-roll_2_">
</g>
<g id="spects_2_">
</g>
<g id="search_5_">
</g>
<g id="game-2_2_">
</g>
<g id="game_2_">
</g>
<g id="unloack_2_">
</g>
<g id="loack_2_">
</g>
<g id="settings-ui_2_">
</g>
<g id="abacuse_2_">
</g>
<g id="browser-check-box_2_">
</g>
<g id="browser-reload_2_">
</g>
<g id="browser-check_2_">
</g>
<g id="browser-close_2_">
</g>
<g id="browser-inus_2_">
</g>
<g id="browser-add_2_">
</g>
<g id="flowtting_2_">
</g>
<g id="popup_2_">
</g>
<g id="latter_2_">
</g>
<g id="details_2_">
</g>
<g id="blocks_2_">
</g>
<g id="locate_2_">
</g>
<g id="parabolla_2_">
</g>
<g id="check-box_2_">
</g>
<g id="slide-nav_2_">
</g>
<g id="share_2_">
</g>
<g id="profile_2_">
</g>
<g id="settings_2_">
</g>
<g id="expand_2_">
</g>
<g id="image_2_">
</g>
<g id="pause_2_">
</g>
<g id="player_2_">
</g>
<g id="imager_2_">
</g>
<g id="slider_2_">
</g>
<g id="slide-count_2_">
</g>
<g id="progress-bar_2_">
</g>
<g id="graph_2_">
</g>
<g id="statistics_2_">
</g>
<g id="cloud-reload_2_">
</g>
<g id="cloud-down_3_">
</g>
<g id="cloud-up_2_">
</g>
<g id="cloud_2_">
</g>
<g id="masonary_2_">
</g>
<g id="column_2_">
</g>
<g id="grid-block_2_">
</g>
<g id="horizontal_2_">
</g>
<g id="_x35_-column_2_">
</g>
<g id="_x31_-column_2_">
</g>
<g id="_x33_-column_2_">
</g>
<g id="sidebar_3_">
</g>
<g id="favorite_2_">
</g>
<g id="load_2_">
</g>
<g id="search-list_2_">
</g>
<g id="search_4_">
</g>
<g id="browser_3_">
</g>
<g id="change-mode_2_">
</g>
<g id="tick_2_">
</g>
<g id="XMLID_13_">
	<line id="XMLID_8_" class="st0" x1="-57.3" y1="161.7" x2="-57.3" y2="167.5"/>
	<line id="XMLID_2_" class="st0" x1="-54.4" y1="164.7" x2="-60.3" y2="164.7"/>
</g>
<g id="XMLID_17_">
	<line id="XMLID_27_" class="st1" x1="24.1" y1="133.1" x2="24.1" y2="138.1"/>
	<line id="XMLID_26_" class="st1" x1="26.6" y1="135.6" x2="21.7" y2="135.6"/>
</g>
<g id="XMLID_28_">
	<line id="XMLID_30_" class="st2" x1="30.8" y1="181.6" x2="30.8" y2="184.2"/>
	<line id="XMLID_29_" class="st2" x1="32.1" y1="182.9" x2="29.5" y2="182.9"/>
</g>
<path id="XMLID_14_" class="st3" d="M-10.4,151.3c-0.1,0-0.2,0.1-0.2,0.1c-0.2,0-0.3,0-0.6,0c-0.7-0.2-1.1-0.9-0.9-1.6
	c0.2-0.7,0.9-1.1,1.6-0.9c0.7,0.2,1.1,0.9,0.9,1.6"/>
<path id="XMLID_16_" class="st3" d="M-92,168.5c-0.1,0-0.2,0.1-0.2,0.1c-0.2,0-0.3,0-0.4,0c-0.6-0.2-0.9-0.7-0.7-1.3
	c0.2-0.6,0.7-0.9,1.3-0.7c0.6,0.2,0.9,0.7,0.7,1.3"/>
<g>
	<g>
		<path class="st4" d="M-54.4,143.5c-1,0-1.9-0.8-1.9-1.9v-8.3c0-1,0.8-1.9,1.9-1.9c1,0,1.9,0.8,1.9,1.9v8.3
			C-52.6,142.7-53.4,143.5-54.4,143.5L-54.4,143.5z"/>
	</g>
	<g>
		<path class="st4" d="M-50.3,139.4h-8.3c-1,0-1.9-0.8-1.9-1.9s0.8-1.9,1.9-1.9h8.3c1,0,1.9,0.8,1.9,1.9S-49.2,139.4-50.3,139.4
			L-50.3,139.4z"/>
	</g>
</g>
<line class="st5" x1="81.9" y1="220.6" x2="81.9" y2="-334.2"/>
<path class="st5" d="M636.7,220.6"/>
<g>
	<defs>
		<circle id="SVGID_1_" cx="-25.8" cy="238.2" r="56.6"/>
	</defs>
	<clipPath id="SVGID_2_">
		<use xlink:href="#SVGID_1_"  style="overflow:visible;"/>
	</clipPath>
	<g class="st6">
		<g>
			<path class="st7" d="M-6.6,233.7c-0.4,0-0.7-0.1-1-0.4l-7.4-5.8c-0.1-0.1-0.2-0.2-0.3-0.3L-21,220c-0.5-0.6-0.4-1.5,0.1-2.1
				l19.1-19.1v-16.4c0-0.4,0.2-0.8,0.5-1.1l8.4-8.4c0.6-0.6,1.6-0.6,2.3,0s0.6,1.6,0,2.3l-8,8v16.4c0,0.4-0.2,0.8-0.5,1.1
				l-18.6,18.6l4.8,6.1l6.1,4.8l18.6-18.6c0.3-0.3,0.7-0.5,1.1-0.5h16.4l8-8c0.6-0.6,1.6-0.6,2.3,0c0.6,0.6,0.6,1.6,0,2.3l-8.4,8.4
				c-0.3,0.3-0.7,0.5-1.1,0.5H13.7l-19.1,19.1C-5.8,233.6-6.2,233.7-6.6,233.7z"/>
		</g>
		<g>
			<circle class="st8" cx="8.3" cy="173.8" r="6.6"/>
			<path d="M8.3,182c-2.2,0-4.2-0.9-5.8-2.4c-3.2-3.2-3.2-8.4,0-11.5c3.1-3.1,8.4-3.1,11.5,0c1.5,1.5,2.4,3.6,2.4,5.8
				s-0.8,4.2-2.4,5.8C12.5,181.2,10.5,182,8.3,182z M8.3,168.9c-1.3,0-2.6,0.5-3.5,1.5c-1.9,1.9-1.9,5.1,0,7.1
				c1.9,1.9,5.2,1.9,7.1,0c0.9-0.9,1.5-2.2,1.5-3.5c0-1.3-0.5-2.6-1.5-3.5C10.9,169.4,9.6,168.9,8.3,168.9z"/>
		</g>
		<g>
			<path class="st8" d="M43.2,208.7c-2.6,2.6-6.8,2.6-9.3,0c-2.6-2.6-2.6-6.8,0-9.3s6.8-2.6,9.3,0C45.7,202,45.7,206.2,43.2,208.7z"
				/>
			<path d="M38.5,212.3c-2.2,0-4.2-0.9-5.8-2.4c-3.2-3.2-3.2-8.4,0-11.5c3.1-3.1,8.4-3.1,11.5,0c1.5,1.5,2.4,3.6,2.4,5.8
				s-0.9,4.2-2.4,5.8C42.7,211.4,40.7,212.3,38.5,212.3z M38.5,199.1c-1.3,0-2.6,0.5-3.5,1.5c-1.9,1.9-1.9,5.1,0,7.1
				c1.9,1.9,5.2,1.9,7.1,0c0.9-0.9,1.5-2.2,1.5-3.5c0-1.3-0.5-2.6-1.5-3.5C41.1,199.6,39.9,199.1,38.5,199.1z"/>
		</g>
		<g>
			<path class="st7" d="M-14,228c-0.4,0-0.8-0.2-1.1-0.5c-0.6-0.6-0.6-1.6,0-2.3l31.6-31.6c0.6-0.6,1.6-0.6,2.3,0
				c0.6,0.6,0.6,1.6,0,2.3l-31.6,31.6C-13.2,227.8-13.6,228-14,228z"/>
		</g>
		<g>
			<path class="st7" d="M-59.8,304c-0.4,0-0.8-0.2-1.1-0.5c-0.6-0.6-0.6-1.6,0-2.3l8-8v-16.4c0-0.4,0.2-0.8,0.5-1.1l18.6-18.6
				l-4.8-6.1l-6.1-4.8l-18.6,18.6c-0.3,0.3-0.7,0.5-1.1,0.5h-16.4l-8,8c-0.6,0.6-1.6,0.6-2.3,0c-0.6-0.6-0.6-1.6,0-2.3l8.4-8.4
				c0.3-0.3,0.7-0.5,1.1-0.5h16.4L-46,243c0.6-0.6,1.5-0.6,2.1-0.1l7.4,5.8c0.1,0.1,0.2,0.2,0.3,0.3l5.8,7.4
				c0.5,0.6,0.4,1.5-0.1,2.1l-19.1,19.1V294c0,0.4-0.2,0.8-0.5,1.1l-8.4,8.4C-59,303.9-59.4,304-59.8,304z"/>
		</g>
		<g>
			<path class="st8" d="M-64.5,297.8c2.6-2.6,6.8-2.6,9.3,0c2.6,2.6,2.6,6.8,0,9.3c-2.6,2.6-6.8,2.6-9.3,0
				C-67,304.6-67,300.4-64.5,297.8z"/>
			<path d="M-59.8,310.6c-2.2,0-4.2-0.9-5.8-2.4c-3.2-3.2-3.2-8.4,0-11.5c3.1-3.1,8.4-3.1,11.5,0c3.2,3.2,3.2,8.4,0,11.5
				C-55.6,309.8-57.6,310.6-59.8,310.6z M-59.8,297.5c-1.3,0-2.6,0.5-3.5,1.5c-1.9,1.9-1.9,5.1,0,7.1c1.9,1.9,5.2,1.9,7.1,0
				c1.9-1.9,1.9-5.1,0-7.1C-57.3,298-58.5,297.5-59.8,297.5z"/>
		</g>
		<g>
			<path class="st8" d="M-94.7,267.6c2.6-2.6,6.8-2.6,9.3,0c2.6,2.6,2.6,6.8,0,9.3c-2.6,2.6-6.8,2.6-9.3,0S-97.3,270.1-94.7,267.6z"
				/>
			<path d="M-90.1,280.4c-2.2,0-4.2-0.9-5.8-2.4c-3.2-3.2-3.2-8.4,0-11.5c3.1-3.1,8.4-3.1,11.5,0c1.5,1.5,2.4,3.6,2.4,5.8
				c0,2.2-0.9,4.2-2.4,5.8C-85.8,279.5-87.9,280.4-90.1,280.4z M-90.1,267.3c-1.3,0-2.6,0.5-3.5,1.5c-1.9,1.9-1.9,5.1,0,7.1
				c1.9,1.9,5.2,1.9,7.1,0c0.9-0.9,1.5-2.2,1.5-3.5c0-1.3-0.5-2.6-1.5-3.5C-87.5,267.8-88.8,267.3-90.1,267.3z"/>
		</g>
		<g>
			<path class="st7" d="M-69.2,283.2c-0.4,0-0.8-0.2-1.1-0.5c-0.6-0.6-0.6-1.6,0-2.3l31.6-31.6c0.6-0.6,1.6-0.6,2.3,0
				c0.6,0.6,0.6,1.6,0,2.3L-68,282.7C-68.4,283-68.8,283.2-69.2,283.2z"/>
		</g>
		<g>
			<path class="st7" d="M8.3,304c-0.4,0-0.8-0.2-1.1-0.5l-8.4-8.4c-0.3-0.3-0.5-0.7-0.5-1.1v-16.4l-19.1-19.1
				c-0.6-0.6-0.6-1.5-0.1-2.1l5.8-7.4c0.1-0.1,0.2-0.2,0.3-0.3l7.4-5.8c0.6-0.5,1.5-0.4,2.1,0.1l19.1,19.1h16.4
				c0.4,0,0.8,0.2,1.1,0.5l8.4,8.4c0.6,0.6,0.6,1.6,0,2.3c-0.6,0.6-1.6,0.6-2.3,0l-8-8H13c-0.4,0-0.8-0.2-1.1-0.5l-18.6-18.6
				l-6.1,4.8l-4.8,6.1L1,275.9c0.3,0.3,0.5,0.7,0.5,1.1v16.4l8,8c0.6,0.6,0.6,1.6,0,2.3C9.1,303.9,8.7,304,8.3,304z"/>
		</g>
		<g>
			<path class="st8" d="M33.9,276.9c-2.6-2.6-2.6-6.8,0-9.3s6.7-2.6,9.3,0c2.6,2.6,2.6,6.8,0,9.3C40.6,279.5,36.5,279.5,33.9,276.9z
				"/>
			<path d="M38.5,280.4c-2.2,0-4.2-0.9-5.8-2.4c-3.2-3.2-3.2-8.4,0-11.5c3.1-3.1,8.4-3.1,11.5,0c1.5,1.5,2.4,3.6,2.4,5.8
				c0,2.2-0.9,4.2-2.4,5.8C42.7,279.5,40.7,280.4,38.5,280.4z M38.5,267.3c-1.3,0-2.6,0.5-3.5,1.5c-1.9,1.9-1.9,5.1,0,7.1
				c1.9,1.9,5.2,1.9,7.1,0c0.9-0.9,1.5-2.2,1.5-3.5c0-1.3-0.5-2.6-1.5-3.5C41.1,267.8,39.9,267.3,38.5,267.3z"/>
		</g>
		<g>
			<circle class="st8" cx="8.3" cy="302.5" r="6.6"/>
			<path d="M8.3,310.6c-2.2,0-4.2-0.9-5.8-2.4c-3.2-3.2-3.2-8.4,0-11.5c3.1-3.1,8.4-3.1,11.5,0c1.5,1.5,2.4,3.6,2.4,5.8
				s-0.8,4.2-2.4,5.8C12.5,309.8,10.5,310.6,8.3,310.6z M8.3,297.5c-1.3,0-2.6,0.5-3.5,1.5c-1.9,1.9-1.9,5.1,0,7.1
				c1.9,1.9,5.2,1.9,7.1,0c0.9-0.9,1.5-2.2,1.5-3.5c0-1.3-0.5-2.6-1.5-3.5C10.9,298,9.6,297.5,8.3,297.5z"/>
		</g>
		<g>
			<path class="st7" d="M17.6,283.2c-0.4,0-0.8-0.2-1.1-0.5l-31.6-31.6c-0.6-0.6-0.6-1.6,0-2.3c0.6-0.6,1.6-0.6,2.3,0l31.6,31.6
				c0.6,0.6,0.6,1.6,0,2.3C18.5,283,18.1,283.2,17.6,283.2z"/>
		</g>
		<g>
			<path class="st7" d="M-44.9,233.7c-0.4,0-0.8-0.2-1.1-0.5l-19.1-19.1h-16.4c-0.4,0-0.8-0.2-1.1-0.5l-8.5-8.4
				c-0.6-0.6-0.6-1.6,0-2.3c0.6-0.6,1.6-0.6,2.3,0l8,8h16.4c0.4,0,0.8,0.2,1.1,0.5l18.6,18.6l6.1-4.8l4.8-6.1l-18.6-18.6
				c-0.3-0.3-0.5-0.7-0.5-1.1V183l-8-8c-0.6-0.6-0.6-1.6,0-2.3s1.6-0.6,2.3,0l8.4,8.4c0.3,0.3,0.5,0.7,0.5,1.1v16.4l19.1,19.1
				c0.6,0.6,0.6,1.5,0.1,2.1l-5.8,7.4c-0.1,0.1-0.2,0.2-0.3,0.3l-7.4,5.8C-44.3,233.6-44.6,233.7-44.9,233.7z"/>
		</g>
		<g>
			<path class="st8" d="M-85.4,199.5c2.6,2.6,2.6,6.7,0,9.3c-2.6,2.6-6.8,2.6-9.3,0s-2.6-6.8,0-9.3C-92.2,196.9-88,196.9-85.4,199.5
				z"/>
			<path d="M-90.1,212.3c-2.2,0-4.2-0.9-5.8-2.4c-3.2-3.2-3.2-8.4,0-11.5c3.1-3.1,8.4-3.1,11.5,0c1.5,1.5,2.4,3.6,2.4,5.8
				s-0.9,4.2-2.4,5.8C-85.8,211.4-87.9,212.3-90.1,212.3z M-90.1,199.1c-1.3,0-2.6,0.5-3.5,1.5c-1.9,1.9-1.9,5.1,0,7.1
				c1.9,1.9,5.2,1.9,7.1,0c0.9-0.9,1.5-2.2,1.5-3.5c0-1.3-0.5-2.6-1.5-3.5C-87.5,199.6-88.7,199.1-90.1,199.1z"/>
		</g>
		<g>
			<path class="st8" d="M-55.2,169.2c2.6,2.6,2.6,6.7,0,9.3c-2.6,2.6-6.8,2.6-9.3,0c-2.6-2.6-2.6-6.8,0-9.3
				C-61.9,166.7-57.8,166.7-55.2,169.2z"/>
			<path d="M-59.8,182c-2.2,0-4.2-0.9-5.8-2.4c-3.2-3.2-3.2-8.4,0-11.5c3.1-3.1,8.4-3.1,11.5,0c3.2,3.2,3.2,8.4,0,11.5
				C-55.6,181.2-57.6,182-59.8,182z M-59.8,168.9c-1.3,0-2.6,0.5-3.5,1.5c-1.9,1.9-1.9,5.1,0,7.1c1.9,1.9,5.2,1.9,7.1,0
				c1.9-1.9,1.9-5.1,0-7.1C-57.3,169.4-58.5,168.9-59.8,168.9z"/>
		</g>
		<g>
			<path class="st7" d="M-37.6,228c-0.4,0-0.8-0.2-1.1-0.5l-31.6-31.6c-0.6-0.6-0.6-1.6,0-2.3s1.6-0.6,2.3,0l31.6,31.6
				c0.6,0.6,0.6,1.6,0,2.3C-36.7,227.8-37.2,228-37.6,228z"/>
		</g>
		<g>
			<path class="st8" d="M-8.4,255.5c-9.6,9.6-25.1,9.6-34.7,0s-9.6-25.1,0-34.7s25.1-9.6,34.7,0C1.2,230.4,1.2,245.9-8.4,255.5z"/>
			<path class="st7" d="M-25.7,264.3c-7,0-13.5-2.7-18.5-7.7c-4.9-4.9-7.7-11.5-7.7-18.5s2.7-13.5,7.7-18.5s11.5-7.7,18.5-7.7
				s13.5,2.7,18.5,7.7c4.9,4.9,7.7,11.5,7.7,18.5c0,7-2.7,13.5-7.7,18.5C-12.2,261.6-18.8,264.3-25.7,264.3z M-25.7,215.2
				c-6.1,0-11.9,2.4-16.3,6.7c-4.3,4.3-6.7,10.1-6.7,16.3c0,6.1,2.4,11.9,6.7,16.3c4.3,4.3,10.1,6.7,16.3,6.7
				c6.1,0,11.9-2.4,16.3-6.7c4.3-4.3,6.7-10.1,6.7-16.3c0-6.1-2.4-11.9-6.7-16.3C-13.9,217.6-19.6,215.2-25.7,215.2z"/>
		</g>
		<g>
			<path class="st8" d="M-17.4,246.6c-4.6,4.6-12.1,4.6-16.8,0c-4.6-4.6-4.6-12.2,0-16.8c4.6-4.6,12.2-4.6,16.8,0
				S-12.8,241.9-17.4,246.6z"/>
			<path class="st7" d="M-25.7,251.6c-3.6,0-6.9-1.4-9.5-3.9c-5.3-5.3-5.3-13.8,0-19c2.5-2.5,5.9-3.9,9.5-3.9s6.9,1.4,9.5,3.9
				c2.5,2.5,3.9,5.9,3.9,9.5s-1.4,7-3.9,9.5S-22.2,251.6-25.7,251.6z M-25.8,227.9c-2.7,0-5.3,1.1-7.3,3c-4,4-4,10.5,0,14.5
				c3.9,3.9,10.7,3.9,14.5,0c1.9-1.9,3-4.5,3-7.3c0-2.8-1.1-5.3-3-7.3C-20.5,229-23,227.9-25.8,227.9z"/>
		</g>
	</g>
</g>
<circle class="st9" cx="-25.8" cy="238.2" r="56.6"/>
</svg>
