<?xml version="1.0" encoding="utf-8"?>
<!-- Generator: Adobe Illustrator 19.0.0, SVG Export Plug-In . SVG Version: 6.00 Build 0)  -->
<svg version="1.1" id="Calque_1" xmlns="http://www.w3.org/2000/svg" xmlns:xlink="http://www.w3.org/1999/xlink" x="0px" y="0px"
	 viewBox="-124 126 200 200" style="enable-background:new -124 126 200 200;" xml:space="preserve">
<style type="text/css">
	.st0{fill:none;stroke:#7700F4;stroke-width:3;stroke-linecap:round;stroke-linejoin:round;stroke-miterlimit:10;}
	.st1{fill:none;stroke:#7700F4;stroke-width:2;stroke-linecap:round;stroke-linejoin:round;stroke-miterlimit:10;}
	.st2{fill:none;stroke:#C0D7F1;stroke-linecap:round;stroke-linejoin:round;stroke-miterlimit:10;}
	.st3{fill:none;stroke:#C0D7F1;stroke-miterlimit:10;}
	.st4{fill:#C0D7F1;}
	.st5{fill:none;}
	.st6{fill:#7700F4;}
	.st7{fill:#FFFFFF;}
</style>
<g id="Layer_1_99_">
</g>
<g id="processor_1_">
</g>
<g id="cpu_1_">
</g>
<g id="printer_1_">
</g>
<g id="box_1_">
</g>
<g id="touch-pad_1_">
</g>
<g id="keyboard_1_">
</g>
<g id="cam-6_1_">
</g>
<g id="headphone_1_">
</g>
<g id="floppy_1_">
</g>
<g id="flat-wifi_1_">
</g>
<g id="two-line-wifi_1_">
</g>
<g id="i-phone-iol_1_">
</g>
<g id="responsive_1_">
</g>
<g id="tabs_1_">
</g>
<g id="wide_1_">
</g>
<g id="rotate_1_">
</g>
<g id="storager-load_1_">
</g>
<g id="storager-close_1_">
</g>
<g id="storager-download_2_">
</g>
<g id="storager-upload_1_">
</g>
<g id="storager-setting_1_">
</g>
<g id="storager-unloack_1_">
</g>
<g id="storager-lock_1_">
</g>
<g id="storager-refresh_1_">
</g>
<g id="storager_1_">
</g>
<g id="microsim_1_">
</g>
<g id="game-remote-3_1_">
</g>
<g id="game-remote-2_1_">
</g>
<g id="game-remote-1_1_">
</g>
<g id="game-remote_1_">
</g>
<g id="nano-sim_1_">
</g>
<g id="sim-card_1_">
</g>
<g id="plug-2_1_">
</g>
<g id="plug_1_">
</g>
<g id="wifi-adaptor-s_1_">
</g>
<g id="wifi-adaptor-r_1_">
</g>
<g id="socket_1_">
</g>
<g id="broken-link_1_">
</g>
<g id="link_1_">
</g>
<g id="network-tred_1_">
</g>
<g id="cloud-down_1_">
</g>
<g id="cloud-success_1_">
</g>
<g id="channel_1_">
</g>
<g id="locate-network_1_">
</g>
<g id="group-share_1_">
</g>
<g id="network-desktop_1_">
</g>
<g id="network-3_1_">
</g>
<g id="network-2_1_">
</g>
<g id="network-1_1_">
</g>
<g id="home-adaptor_1_">
</g>
<g id="wifi-adaptor_1_">
</g>
<g id="adoptor_1_">
</g>
<g id="drive-shelve_1_">
</g>
<g id="drive-3_1_">
</g>
<g id="drive_1_">
</g>
<g id="wifi-laptop_1_">
</g>
<g id="wifi-tab_1_">
</g>
<g id="wifi-mob_1_">
</g>
<g id="wifi_1_">
</g>
<g id="laptop-1_1_">
</g>
<g id="computer-2_1_">
</g>
<g id="old-computer_1_">
</g>
<g id="battery-connected_1_">
</g>
<g id="charging-3_1_">
</g>
<g id="charging-2_1_">
</g>
<g id="charging-1_1_">
</g>
<g id="battery_1_">
</g>
<g id="cam-4_1_">
</g>
<g id="radio-2_1_">
</g>
<g id="radio-1_1_">
</g>
<g id="radio_1_">
</g>
<g id="tape_1_">
</g>
<g id="magic-mouse_1_">
</g>
<g id="pendrive_1_">
</g>
<g id="button-mouse_1_">
</g>
<g id="ipod-pack_1_">
</g>
<g id="i-pod_1_">
</g>
<g id="flat-tv_1_">
</g>
<g id="watch-2_1_">
</g>
<g id="watch_1_">
</g>
<g id="cam-2_1_">
</g>
<g id="cam-1_1_">
</g>
<g id="tv_1_">
</g>
<g id="wirellesss_1_">
</g>
<g id="small-phone_1_">
</g>
<g id="phone_3_">
</g>
<g id="android-phone_1_">
</g>
<g id="i-phone_1_">
</g>
<g id="large_phone_1_">
</g>
<g id="i-pad_1_">
</g>
<g id="tesktop_1_">
</g>
<g id="laptop_1_">
</g>
<g id="cloud-close_1_">
</g>
<g id="plug-1_1_">
</g>
<g id="storager-leg_1_">
</g>
<g id="phone_2_">
</g>
<g id="cold-wifi_1_">
</g>
<g id="handycam_1_">
</g>
<g id="Layer_1_2_">
</g>
<g id="medium-box_2_">
</g>
<g id="minuse_2_">
</g>
<g id="timer_2_">
</g>
<g id="drawer-2_2_">
</g>
<g id="trash-box_2_">
</g>
<g id="book-label_2_">
</g>
<g id="folder-label_2_">
</g>
<g id="page-back_2_">
</g>
<g id="close-page_5_">
</g>
<g id="pages_2_">
</g>
<g id="list_2_">
</g>
<g id="wave_2_">
</g>
<g id="close-page_4_">
</g>
<g id="add-page_2_">
</g>
<g id="code_2_">
</g>
<g id="shift-mode_2_">
</g>
<g id="bookmarks_5_">
</g>
<g id="bookmarks_4_">
</g>
<g id="open-pages_2_">
</g>
<g id="note_2_">
</g>
<g id="locater_2_">
</g>
<g id="navigater_2_">
</g>
<g id="alarm_2_">
</g>
<g id="clock_2_">
</g>
<g id="time-3_2_">
</g>
<g id="time-1_2_">
</g>
<g id="time_2_">
</g>
<g id="downloads_2_">
</g>
<g id="uploads_2_">
</g>
<g id="drawer-1_2_">
</g>
<g id="mail_drawer_2_">
</g>
<g id="drawer_2_">
</g>
<g id="mail_5_">
</g>
<g id="mail-open_2_">
</g>
<g id="open_2_">
</g>
<g id="card_2_">
</g>
<g id="mails_2_">
</g>
<g id="mail_4_">
</g>
<g id="drag-l-t_2_">
</g>
<g id="comment_2_">
</g>
<g id="folder_2_">
</g>
<g id="trash_2_">
</g>
<g id="report-flag_2_">
</g>
<g id="setting-roll_2_">
</g>
<g id="spects_2_">
</g>
<g id="search_5_">
</g>
<g id="game-2_2_">
</g>
<g id="game_2_">
</g>
<g id="unloack_2_">
</g>
<g id="loack_2_">
</g>
<g id="settings-ui_2_">
</g>
<g id="abacuse_2_">
</g>
<g id="browser-check-box_2_">
</g>
<g id="browser-reload_2_">
</g>
<g id="browser-check_2_">
</g>
<g id="browser-close_2_">
</g>
<g id="browser-inus_2_">
</g>
<g id="browser-add_2_">
</g>
<g id="flowtting_2_">
</g>
<g id="popup_2_">
</g>
<g id="latter_2_">
</g>
<g id="details_2_">
</g>
<g id="blocks_2_">
</g>
<g id="locate_2_">
</g>
<g id="parabolla_2_">
</g>
<g id="check-box_2_">
</g>
<g id="slide-nav_2_">
</g>
<g id="share_2_">
</g>
<g id="profile_2_">
</g>
<g id="settings_2_">
</g>
<g id="expand_2_">
</g>
<g id="image_2_">
</g>
<g id="pause_2_">
</g>
<g id="player_2_">
</g>
<g id="imager_2_">
</g>
<g id="slider_2_">
</g>
<g id="slide-count_2_">
</g>
<g id="progress-bar_2_">
</g>
<g id="graph_2_">
</g>
<g id="statistics_2_">
</g>
<g id="cloud-reload_2_">
</g>
<g id="cloud-down_3_">
</g>
<g id="cloud-up_2_">
</g>
<g id="cloud_2_">
</g>
<g id="masonary_2_">
</g>
<g id="column_2_">
</g>
<g id="grid-block_2_">
</g>
<g id="horizontal_2_">
</g>
<g id="_x35_-column_2_">
</g>
<g id="_x31_-column_2_">
</g>
<g id="_x33_-column_2_">
</g>
<g id="sidebar_3_">
</g>
<g id="favorite_2_">
</g>
<g id="load_2_">
</g>
<g id="search-list_2_">
</g>
<g id="search_4_">
</g>
<g id="browser_3_">
</g>
<g id="change-mode_2_">
</g>
<g id="tick_2_">
</g>
<g id="XMLID_13_">
	<line id="XMLID_8_" class="st0" x1="-65.9" y1="151.4" x2="-65.9" y2="157.2"/>
	<line id="XMLID_2_" class="st0" x1="-63" y1="154.3" x2="-68.9" y2="154.3"/>
</g>
<g id="XMLID_17_">
	<line id="XMLID_27_" class="st1" x1="46.9" y1="135" x2="46.9" y2="139.9"/>
	<line id="XMLID_26_" class="st1" x1="49.3" y1="137.5" x2="44.4" y2="137.5"/>
</g>
<g id="XMLID_28_">
	<line id="XMLID_30_" class="st2" x1="19.3" y1="137.9" x2="19.3" y2="140.5"/>
	<line id="XMLID_29_" class="st2" x1="20.6" y1="139.2" x2="18" y2="139.2"/>
</g>
<path id="XMLID_14_" class="st3" d="M51.1,177.6c-0.1,0-0.2,0.1-0.2,0.1c-0.2,0-0.3,0-0.6,0c-0.7-0.2-1.1-0.9-0.9-1.6
	c0.2-0.7,0.9-1.1,1.6-0.9c0.7,0.2,1.1,0.9,0.9,1.6"/>
<path id="XMLID_16_" class="st3" d="M-26.5,132.2c-0.1,0-0.2,0.1-0.2,0.1c-0.2,0-0.3,0-0.4,0c-0.6-0.2-0.9-0.7-0.7-1.3
	c0.2-0.6,0.7-0.9,1.3-0.7c0.6,0.2,0.9,0.7,0.7,1.3"/>
<g>
	<g>
		<path class="st4" d="M-97.8,146.5c-1,0-1.9-0.8-1.9-1.9v-8.3c0-1,0.8-1.9,1.9-1.9c1,0,1.9,0.8,1.9,1.9v8.3
			C-95.9,145.7-96.7,146.5-97.8,146.5L-97.8,146.5z"/>
	</g>
	<g>
		<path class="st4" d="M-93.6,142.4h-8.3c-1,0-1.9-0.8-1.9-1.9s0.8-1.9,1.9-1.9h8.3c1,0,1.9,0.8,1.9,1.9S-92.6,142.4-93.6,142.4
			L-93.6,142.4z"/>
	</g>
</g>
<line class="st5" x1="81.9" y1="220.6" x2="81.9" y2="-334.2"/>
<path class="st5" d="M636.7,220.6"/>
<g>
	<g>
		<path class="st6" d="M-24,298.1c-31.3,0-56.7-25.4-56.7-56.7s25.4-56.7,56.7-56.7c31.3,0,56.7,25.4,56.7,56.7S7.2,298.1-24,298.1z
			 M-24,187.5c-29.8,0-54,24.2-54,54s24.2,54,54,54s54-24.2,54-54S5.8,187.5-24,187.5z"/>
	</g>
	<g>
		<path class="st6" d="M-58.3,229c-0.7,0-1.3-0.6-1.3-1.3v-29.6c0-0.7,0.6-1.3,1.3-1.3c0.7,0,1.3,0.6,1.3,1.3v29.6
			C-57,228.4-57.6,229-58.3,229z"/>
	</g>
	<g>
		<path class="st6" d="M-8.4,215.3c-0.7,0-1.3-0.6-1.3-1.3v-25.5c0-0.7,0.6-1.3,1.3-1.3s1.3,0.6,1.3,1.3V214
			C-7,214.7-7.6,215.3-8.4,215.3z"/>
	</g>
	<g>
		<path class="st6" d="M16.6,242.2h-25c-0.7,0-1.3-0.6-1.3-1.3s0.6-1.3,1.3-1.3h23.7v-35.8c0-0.7,0.6-1.3,1.3-1.3
			c0.7,0,1.3,0.6,1.3,1.3v37.1C18,241.6,17.4,242.2,16.6,242.2z"/>
	</g>
	<g>
		<path class="st7" d="M-50.7,227.7c0,4.2-3.4,7.6-7.6,7.6c-4.2,0-7.6-3.4-7.6-7.6s3.4-7.6,7.6-7.6S-50.7,223.5-50.7,227.7z"/>
		<path class="st6" d="M-58.3,236.6c-4.9,0-8.9-4-8.9-8.9s4-8.9,8.9-8.9s8.9,4,8.9,8.9S-53.4,236.6-58.3,236.6z M-58.3,221.4
			c-3.5,0-6.3,2.8-6.3,6.3c0,3.5,2.8,6.3,6.3,6.3c3.5,0,6.3-2.8,6.3-6.3S-54.9,221.4-58.3,221.4z"/>
	</g>
	<g>
		<path class="st6" d="M-33.3,297.4c-0.7,0-1.3-0.6-1.3-1.3V186.9c0-0.7,0.6-1.3,1.3-1.3s1.3,0.6,1.3,1.3V296
			C-32,296.8-32.6,297.4-33.3,297.4z"/>
	</g>
	<g>
		<path class="st7" d="M-25.7,214c0,4.2-3.4,7.6-7.6,7.6c-4.2,0-7.6-3.4-7.6-7.6s3.4-7.6,7.6-7.6S-25.7,209.8-25.7,214z"/>
		<path class="st6" d="M-33.3,222.9c-4.9,0-8.9-4-8.9-8.9s4-8.9,8.9-8.9s8.9,4,8.9,8.9C-24.4,218.9-28.4,222.9-33.3,222.9z
			 M-33.3,207.7c-3.5,0-6.3,2.8-6.3,6.3c0,3.5,2.8,6.3,6.3,6.3s6.3-2.8,6.3-6.3C-27.1,210.5-29.9,207.7-33.3,207.7z"/>
	</g>
	<g>
		<path class="st7" d="M-0.7,214c0,4.2-3.4,7.6-7.6,7.6c-4.2,0-7.6-3.4-7.6-7.6s3.4-7.6,7.6-7.6S-0.7,209.8-0.7,214z"/>
		<path class="st6" d="M-8.4,222.9c-4.9,0-8.9-4-8.9-8.9s4-8.9,8.9-8.9s8.9,4,8.9,8.9C0.6,218.9-3.4,222.9-8.4,222.9z M-8.4,207.7
			c-3.5,0-6.3,2.8-6.3,6.3c0,3.5,2.8,6.3,6.3,6.3s6.3-2.8,6.3-6.3C-2.1,210.5-4.9,207.7-8.4,207.7z"/>
	</g>
	<g>
		<path class="st6" d="M-8.4,296c-0.7,0-1.3-0.6-1.3-1.3V269c0-0.7,0.6-1.3,1.3-1.3S-7,268.2-7,269v25.7C-7,295.4-7.6,296-8.4,296z"
			/>
	</g>
	<g>
		<path class="st7" d="M-16,269c0-4.2,3.4-7.6,7.6-7.6c4.2,0,7.6,3.4,7.6,7.6c0,4.2-3.4,7.6-7.6,7.6S-16,273.2-16,269z"/>
		<path class="st6" d="M-8.4,277.9c-4.9,0-8.9-4-8.9-8.9c0-4.9,4-8.9,8.9-8.9s8.9,4,8.9,8.9C0.6,273.9-3.4,277.9-8.4,277.9z
			 M-8.4,262.7c-3.5,0-6.3,2.8-6.3,6.3c0,3.5,2.8,6.3,6.3,6.3s6.3-2.8,6.3-6.3C-2.1,265.5-4.9,262.7-8.4,262.7z"/>
	</g>
	<g>
		<path class="st7" d="M-0.7,240.9c0,4.2-3.4,7.6-7.6,7.6c-4.2,0-7.6-3.4-7.6-7.6s3.4-7.6,7.6-7.6C-4.1,233.3-0.7,236.7-0.7,240.9z"
			/>
		<path class="st6" d="M-8.4,249.9c-4.9,0-8.9-4-8.9-8.9s4-8.9,8.9-8.9s8.9,4,8.9,8.9C0.6,245.9-3.4,249.9-8.4,249.9z M-8.4,234.6
			c-3.5,0-6.3,2.8-6.3,6.3c0,3.5,2.8,6.3,6.3,6.3s6.3-2.8,6.3-6.3C-2.1,237.4-4.9,234.6-8.4,234.6z"/>
	</g>
	<g>
		<path class="st6" d="M-58.3,286.2c-0.7,0-1.3-0.6-1.3-1.3v-28.7c0-0.7,0.6-1.3,1.3-1.3c0.7,0,1.3,0.6,1.3,1.3v28.7
			C-57,285.6-57.6,286.2-58.3,286.2z"/>
	</g>
	<g>
		<path class="st7" d="M-65.9,256.1c0-4.2,3.4-7.6,7.6-7.6s7.6,3.4,7.6,7.6c0,4.2-3.4,7.6-7.6,7.6
			C-62.5,263.7-65.9,260.3-65.9,256.1z"/>
		<path class="st6" d="M-58.3,265.1c-4.9,0-8.9-4-8.9-8.9c0-4.9,4-8.9,8.9-8.9s8.9,4,8.9,8.9C-49.4,261.1-53.4,265.1-58.3,265.1z
			 M-58.3,249.9c-3.5,0-6.3,2.8-6.3,6.3c0,3.5,2.8,6.3,6.3,6.3c3.5,0,6.3-2.8,6.3-6.3C-52.1,252.7-54.9,249.9-58.3,249.9z"/>
	</g>
	<g>
		<path class="st6" d="M16.6,280.3c-0.7,0-1.3-0.6-1.3-1.3v-22.9c0-0.7,0.6-1.3,1.3-1.3c0.7,0,1.3,0.6,1.3,1.3V279
			C18,279.7,17.4,280.3,16.6,280.3z"/>
	</g>
	<g>
		<path class="st7" d="M9,256.1c0-4.2,3.4-7.6,7.6-7.6c4.2,0,7.6,3.4,7.6,7.6c0,4.2-3.4,7.6-7.6,7.6S9,260.3,9,256.1z"/>
		<path class="st6" d="M16.6,265.1c-4.9,0-8.9-4-8.9-8.9c0-4.9,4-8.9,8.9-8.9s8.9,4,8.9,8.9C25.6,261.1,21.6,265.1,16.6,265.1z
			 M16.6,249.9c-3.5,0-6.3,2.8-6.3,6.3c0,3.5,2.8,6.3,6.3,6.3s6.3-2.8,6.3-6.3C22.9,252.7,20.1,249.9,16.6,249.9z"/>
	</g>
</g>
</svg>
