<?xml version="1.0" encoding="utf-8"?>
<!-- Generator: Adobe Illustrator 19.0.0, SVG Export Plug-In . SVG Version: 6.00 Build 0)  -->
<svg version="1.1" id="Section1" xmlns="http://www.w3.org/2000/svg" xmlns:xlink="http://www.w3.org/1999/xlink" x="0px" y="0px"
	 viewBox="407 -2856.5 721.6 721.6" style="enable-background:new 407 -2856.5 721.6 721.6;" xml:space="preserve">
<style type="text/css">
	.st0{fill:#FFFFFF;}
	.st1{fill:#FF8017;}
	.st2{fill:#6F7592;}
	.st3{fill:#FAFAFA;}
	.st4{fill:#FFFFFF;stroke:#D6D7D8;stroke-miterlimit:10;}
	.st5{fill:#3585C4;}
	.st6{fill:#F0F7FF;}
	.st7{fill:#E8EFF9;}
	.st8{fill:#D6D7D8;}
	.st9{clip-path:url(#SVGID_2_);fill:#3585C4;}
	.st10{clip-path:url(#SVGID_2_);fill:#4698D1;}
	.st11{fill:#C1D1F8;}
	.st12{fill:#E9F0FF;}
	.st13{fill:#775A63;}
	.st14{fill:#DD4D0E;}
	.st15{fill:#FF905F;}
	.st16{fill:#FF6112;}
	.st17{fill:#E4ABBC;}
	.st18{enable-background:new    ;}
	.st19{fill:#403A84;}
	.st20{fill:#FC7538;}
	.st21{fill:#CCECFF;}
	.st22{fill:#FFFFFF;stroke:#1DDBA5;stroke-miterlimit:10;}
</style>
<g>
	<g>
		<g>
			<path class="st0" d="M757.3-2264.5H606.1c-21.6,0-39.1-17.5-39.1-39.1v-384.3c0-21.6,17.5-39.1,39.1-39.1h151.2
				c21.6,0,39.1,17.5,39.1,39.1v384.3C796.3-2282,778.8-2264.5,757.3-2264.5z"/>
			<g>
				<g>
					<path class="st1" d="M782.2-2299.6c0,11.7-9.6,21.3-21.3,21.3H602.3c-11.7,0-21.3-9.6-21.3-21.3v-392.1
						c0-11.7,9.6-21.3,21.3-21.3H623c1.7,0,3.1,1.4,3.1,3.1v1.8c0,0.8,0.1,1.5,0.2,2.2c1,5,5.5,8.8,10.8,8.8h89
						c5.3,0,9.8-3.8,10.8-8.8c0.1-0.7,0.2-1.5,0.2-2.2v-1.8c0-1.7,1.4-3.1,3.1-3.1h20.7c11.7,0,21.3,9.6,21.3,21.3V-2299.6z"/>
				</g>
				<path class="st2" d="M797.3-2620l-1-1.1v-71.4c0-19-15.5-34.5-34.5-34.5H601.4c-19,0-34.5,15.5-34.5,34.5v27.2
					c-0.7,0-1.2,0.6-1.2,1.3v17.3c0,0.7,0.5,1.2,1.2,1.3v13.4l-1,0.8c-0.2,0.1-0.2,0.3-0.2,0.5v32.5c0,0.2,0.1,0.4,0.2,0.5l1,0.8
					v7.3l-1,0.8c-0.2,0.1-0.2,0.3-0.2,0.5v32.5c0,0.2,0.1,0.4,0.2,0.5l1,0.8v255.8c0,19,15.5,34.5,34.5,34.5h160.4
					c19,0,34.5-15.5,34.5-34.5v-266.8l1-1.1c0.1-0.1,0.2-0.3,0.2-0.4v-52.2C797.5-2619.7,797.4-2619.9,797.3-2620z M796.3-2567.6
					l-1,1.1c-0.1,0.1-0.2,0.3-0.2,0.4v267.1c0,18.3-14.9,33.2-33.2,33.2H601.4c-18.3,0-33.2-14.9-33.2-33.2v-256.1
					c0-0.2-0.1-0.4-0.2-0.5l-1-0.8v-31.9l1-0.8c0.2-0.1,0.2-0.3,0.2-0.5v-7.9c0-0.2-0.1-0.4-0.2-0.5l-1-0.8v-31.9l1-0.8
					c0.2-0.1,0.2-0.3,0.2-0.5v-14.3c0-0.3-0.3-0.6-0.6-0.6H567v-17.3h0.6c0.3,0,0.6-0.3,0.6-0.6v-27.9c0-18.3,14.9-33.2,33.2-33.2
					h160.4c18.3,0,33.2,14.9,33.2,33.2v71.6c0,0.2,0.1,0.3,0.2,0.4l1,1.1V-2567.6z M760.9-2723.1H602.3c-17.3,0-31.3,14-31.3,31.3
					v392.1c0,17.3,14,31.3,31.3,31.3h158.6c17.3,0,31.3-14,31.3-31.3v-392.1C792.2-2709.1,778.2-2723.1,760.9-2723.1z M706.3-2712.5
					c2.3,0,4.2,1.9,4.2,4.2c0,2.3-1.9,4.2-4.2,4.2c-2.3,0-4.3-1.9-4.3-4.2C702-2710.6,703.9-2712.5,706.3-2712.5z M669.5-2710.3
					h24.4c1.1,0,2,0.9,2,2c0,1.1-0.9,2-2,2h-24.4c-1.1,0-2-0.9-2-2C667.5-2709.4,668.4-2710.3,669.5-2710.3z M782.2-2299.6
					c0,11.7-9.6,21.3-21.3,21.3H602.3c-11.7,0-21.3-9.6-21.3-21.3v-392.1c0-11.7,9.6-21.3,21.3-21.3H623c1.7,0,3.1,1.4,3.1,3.1v1.8
					c0,0.8,0.1,1.5,0.2,2.2c1,5,5.5,8.8,10.8,8.8h89c5.3,0,9.8-3.8,10.8-8.8c0.1-0.7,0.2-1.5,0.2-2.2v-1.8c0-1.7,1.4-3.1,3.1-3.1
					h20.7c11.7,0,21.3,9.6,21.3,21.3V-2299.6z M716.1-2286.4h-68.9c-0.7,0-1.2,0.6-1.2,1.2s0.6,1.2,1.2,1.2h68.9
					c0.7,0,1.2-0.6,1.2-1.2S716.8-2286.4,716.1-2286.4z"/>
			</g>
		</g>
	</g>
	<g>
		<path class="st3" d="M640.4-2523.7c1.6,0,3,0.3,4.3,0.8c1.3,0.5,2.3,1.3,3.1,2.1c0.8,0.9,1.4,1.9,1.8,3c0.4,1.1,0.6,2.3,0.6,3.5
			s-0.2,2.3-0.6,3.5c-0.4,1.1-1,2.1-1.8,3c-0.8,0.9-1.8,1.6-3.1,2.1c-1.3,0.5-2.7,0.8-4.3,0.8h-6.9c-0.4,0-0.7,0.3-0.7,0.7v6.5
			c0,0.4-0.3,0.7-0.7,0.7h-3.7c-0.4,0-0.7-0.3-0.7-0.7v-25.4c0-0.4,0.3-0.7,0.7-0.7c1.4,0,3.2,0,5.6,0
			C636.9-2523.7,639-2523.7,640.4-2523.7z M632.8-2518.2v8.1c0,0.4,0.3,0.7,0.7,0.7h6.9c1.5,0,2.7-0.5,3.6-1.5
			c0.9-1,1.3-2.1,1.3-3.3c0-1.2-0.4-2.3-1.3-3.3c-0.9-1-2-1.5-3.6-1.5h-6.9C633.1-2518.8,632.8-2518.5,632.8-2518.2z"/>
		<path class="st3" d="M653.1-2515.7h3c0.3,0,0.6,0.2,0.7,0.6l0,0c0.1,0.6,0.8,0.8,1.2,0.4c0.4-0.4,0.9-0.7,1.4-0.9
			c0.9-0.4,1.9-0.5,3-0.5c1.8,0,3.3,0.5,4.4,1.4c0.2,0.2,0.3,0.6,0.2,0.8l-1.5,2.9c-0.2,0.4-0.6,0.5-1,0.3c-0.8-0.5-1.7-0.8-2.8-0.8
			c-1.4,0-2.5,0.4-3.4,1.2c-0.9,0.8-1.3,2-1.3,3.6v9.3c0,0.4-0.3,0.7-0.7,0.7h-3.3c-0.4,0-0.7-0.3-0.7-0.7v-17.5
			C652.5-2515.4,652.8-2515.7,653.1-2515.7z"/>
		<path class="st3" d="M707.5-2496.8h-3.3c-0.4,0-0.7-0.3-0.7-0.7v-9.4c0-1.3-0.3-2.4-1-3.4c-0.7-0.9-1.6-1.4-2.8-1.4
			s-2.2,0.5-2.9,1.4c-0.7,0.9-1.1,2-1.1,3.3v9.4c0,0.4-0.3,0.7-0.7,0.7h-3.3c-0.4,0-0.7-0.3-0.7-0.7v-17.5c0-0.4,0.3-0.7,0.7-0.7h3
			c0.3,0,0.6,0.2,0.7,0.6l0,0.1c0.1,0.5,0.7,0.8,1.1,0.4c0.3-0.3,0.7-0.6,1.2-0.8c0.9-0.4,1.9-0.6,2.9-0.6c2.3,0,4,0.9,5.1,2.6
			c0.2,0.4,0.8,0.4,1.1,0.1c1.4-1.7,3.3-2.6,5.7-2.6c2.7,0,4.6,0.8,6,2.3c1.3,1.5,2,3.8,2,6.6v9.5c0,0.4-0.3,0.7-0.7,0.7h-3.3
			c-0.4,0-0.7-0.3-0.7-0.7v-9.5c0-1.4-0.3-2.5-0.9-3.3c-0.6-0.9-1.5-1.3-2.7-1.3c-1.2,0-2.2,0.5-3,1.4c-0.8,0.9-1.1,2-1.1,3.3v9.4
			C708.2-2497.2,707.9-2496.8,707.5-2496.8z"/>
		<path class="st3" d="M738.8-2515.7h3.7c0.5,0,0.8,0.5,0.6,1l-10.9,25.4c-0.1,0.3-0.4,0.4-0.6,0.4h-3.6c-0.5,0-0.8-0.5-0.6-1l3-7
			c0.1-0.2,0.1-0.4,0-0.5l-7-17.3c-0.2-0.5,0.1-0.9,0.6-0.9h3.9c0.3,0,0.6,0.2,0.6,0.5l2.7,7.7l1.2,3.5c0.2,0.6,1.1,0.6,1.3,0
			l1.3-3.4l3.3-7.8C738.3-2515.5,738.5-2515.7,738.8-2515.7z"/>
		<g>
			<path class="st3" d="M677.8-2495.8c-4.3,0-7.9-3.5-7.9-7.9c0-0.9,0.8-1.7,1.7-1.7s1.7,0.8,1.7,1.7c0,2.5,2,4.5,4.5,4.5
				c2.5,0,4.5-2,4.5-4.5c0-0.9,0.8-1.7,1.7-1.7s1.7,0.8,1.7,1.7C685.7-2499.4,682.1-2495.8,677.8-2495.8z"/>
		</g>
		<g>
			<path class="st3" d="M667.1-2502.5c-0.4,0-0.8-0.1-1.1-0.4c-0.7-0.6-0.8-1.7-0.2-2.4l8.2-9.4c0.3-0.4,0.8-0.6,1.3-0.6h4.8
				c0.5,0,0.9,0.2,1.3,0.6l8.4,9.4c0.6,0.7,0.6,1.8-0.1,2.4c-0.7,0.6-1.8,0.6-2.4-0.1l-7.9-8.8H676l-7.6,8.8
				C668.1-2502.7,667.6-2502.5,667.1-2502.5z"/>
		</g>
		<g>
			<path class="st3" d="M685-2506.4c-0.9,0-1.7-0.8-1.7-1.7v-4.4c0-0.9,0.8-1.7,1.7-1.7s1.7,0.8,1.7,1.7v4.4
				C686.7-2507.2,686-2506.4,685-2506.4z"/>
		</g>
	</g>
</g>
<g>
	<g>
		<path class="st0" d="M929.4-2232.6H746.7c-21.6,0-39.1-17.5-39.1-39.1v-448c0-21.6,17.5-39.1,39.1-39.1h182.8
			c21.6,0,39.1,17.5,39.1,39.1v448C968.5-2250.1,951-2232.6,929.4-2232.6z"/>
		<g>
			<g>
				<path class="st0" d="M952.5-2272.6c0,13.4-10.9,24.2-24.2,24.2H747.8c-13.4,0-24.2-10.9-24.2-24.2v-446.2
					c0-13.4,10.9-24.2,24.2-24.2h23.5c1.9,0,3.5,1.6,3.5,3.5v2c0,0.9,0.1,1.7,0.3,2.5c1.2,5.7,6.2,10,12.3,10h101.3
					c6.1,0,11.1-4.3,12.3-10c0.2-0.8,0.3-1.7,0.3-2.5v-2c0-1.9,1.6-3.5,3.5-3.5h23.5c13.4,0,24.2,10.9,24.2,24.2V-2272.6z"/>
			</g>
			<path class="st2" d="M969.7-2637.1l-1.2-1.2v-81.2c0-21.6-17.6-39.2-39.2-39.2H746.7c-21.6,0-39.2,17.6-39.2,39.2v31
				c-0.8,0-1.4,0.7-1.4,1.4v19.6c0,0.8,0.6,1.4,1.4,1.4v15.2l-1.1,0.9c-0.2,0.1-0.3,0.3-0.3,0.6v37c0,0.2,0.1,0.4,0.3,0.6l1.1,0.9
				v8.3l-1.1,0.9c-0.2,0.1-0.3,0.3-0.3,0.6v37c0,0.2,0.1,0.4,0.3,0.6l1.1,0.9v291.1c0,21.6,17.6,39.2,39.2,39.2h182.5
				c21.6,0,39.2-17.6,39.2-39.2v-303.6l1.2-1.2c0.1-0.1,0.2-0.3,0.2-0.5v-59.4C969.9-2636.8,969.8-2637,969.7-2637.1z M968.4-2577.5
				l-1.2,1.2c-0.1,0.1-0.2,0.3-0.2,0.5v303.9c0,20.8-17,37.8-37.8,37.8H746.7c-20.8,0-37.8-17-37.8-37.8v-291.4
				c0-0.2-0.1-0.4-0.3-0.6l-1.1-0.9v-36.3l1.1-0.9c0.2-0.1,0.3-0.3,0.3-0.6v-9c0-0.2-0.1-0.4-0.3-0.6l-1.1-0.9v-36.3l1.1-0.9
				c0.2-0.1,0.3-0.3,0.3-0.6v-16.3c0-0.4-0.3-0.7-0.7-0.7h-0.7v-19.6h0.7c0.4,0,0.7-0.3,0.7-0.7v-31.7c0-20.8,17-37.8,37.8-37.8
				h182.5c20.8,0,37.8,17,37.8,37.8v81.5c0,0.2,0.1,0.4,0.2,0.5l1.2,1.2V-2577.5z M928.2-2754.4H747.8c-19.7,0-35.6,16-35.6,35.6
				v446.2c0,19.7,16,35.6,35.6,35.6h180.4c19.7,0,35.6-16,35.6-35.6v-446.2C963.9-2738.5,947.9-2754.4,928.2-2754.4z M866-2742.4
				c2.7,0,4.8,2.2,4.8,4.8s-2.2,4.8-4.8,4.8c-2.7,0-4.8-2.2-4.8-4.8S863.4-2742.4,866-2742.4z M824.2-2739.9h27.7
				c1.3,0,2.3,1,2.3,2.3c0,1.3-1,2.3-2.3,2.3h-27.7c-1.3,0-2.3-1-2.3-2.3C821.9-2738.9,822.9-2739.9,824.2-2739.9z M952.5-2272.6
				c0,13.4-10.9,24.2-24.2,24.2H747.8c-13.4,0-24.2-10.9-24.2-24.2v-446.2c0-13.4,10.9-24.2,24.2-24.2h23.5c1.9,0,3.5,1.6,3.5,3.5v2
				c0,0.9,0.1,1.7,0.3,2.5c1.2,5.7,6.2,10,12.3,10h101.3c6.1,0,11.1-4.3,12.3-10c0.2-0.8,0.3-1.7,0.3-2.5v-2c0-1.9,1.6-3.5,3.5-3.5
				h23.5c13.4,0,24.2,10.9,24.2,24.2V-2272.6z M877.2-2257.6h-78.4c-0.8,0-1.4,0.6-1.4,1.4c0,0.8,0.6,1.4,1.4,1.4h78.4
				c0.8,0,1.4-0.6,1.4-1.4C878.6-2256.9,878-2257.6,877.2-2257.6z"/>
		</g>
	</g>
	<path class="st4" d="M940.3-2354.5H736.8c-3.2,0-5.8-2.6-5.8-5.8V-2645c0-3.2,2.6-5.8,5.8-5.8h203.5c3.2,0,5.8,2.6,5.8,5.8v284.7
		C946-2357.1,943.4-2354.5,940.3-2354.5z"/>
	<path id="XMLID_5_" class="st5" d="M931-2370.9H744.5c-1.9,0-3.5-1.6-3.5-3.5v-21.5c0-1.9,1.6-3.5,3.5-3.5H931
		c1.9,0,3.5,1.6,3.5,3.5v21.5C934.5-2372.5,932.9-2370.9,931-2370.9z"/>
	<g>
		<path class="st3" d="M798.7-2382.1l-1.8-5.7h0c0.1,1.2,0.1,1.9,0.1,2.3v3.4h-1.4v-7.3h2.1l1.7,5.6h0l1.8-5.6h2.1v7.3h-1.4v-3.4
			c0-0.2,0-0.4,0-0.6c0-0.2,0-0.8,0.1-1.7h0l-1.9,5.7H798.7z"/>
		<path class="st3" d="M807.6-2382c-0.9,0-1.6-0.2-2.1-0.7c-0.5-0.5-0.8-1.2-0.8-2.1c0-0.9,0.2-1.7,0.7-2.2c0.5-0.5,1.1-0.8,1.9-0.8
			c0.8,0,1.4,0.2,1.8,0.7c0.4,0.4,0.7,1.1,0.7,1.9v0.7h-3.6c0,0.4,0.1,0.8,0.4,1c0.2,0.2,0.6,0.4,1,0.4c0.3,0,0.7,0,1-0.1
			c0.3-0.1,0.6-0.2,0.9-0.3v1.2c-0.3,0.1-0.5,0.2-0.9,0.3S808.1-2382,807.6-2382z M807.4-2386.7c-0.3,0-0.6,0.1-0.8,0.3
			s-0.3,0.5-0.3,0.9h2.1c0-0.4-0.1-0.7-0.3-0.9S807.7-2386.7,807.4-2386.7z"/>
		<path class="st3" d="M813.5-2383.2c0.3,0,0.6-0.1,1-0.2v1.1c-0.4,0.2-0.8,0.3-1.4,0.3c-0.6,0-1.1-0.2-1.3-0.5
			c-0.3-0.3-0.4-0.8-0.4-1.4v-2.7h-0.7v-0.6l0.8-0.5l0.4-1.2h1v1.2h1.6v1.1h-1.6v2.7c0,0.2,0.1,0.4,0.2,0.5
			C813.1-2383.3,813.3-2383.2,813.5-2383.2z"/>
		<path class="st3" d="M817.9-2383.2c0.3,0,0.6-0.1,1-0.2v1.1c-0.4,0.2-0.8,0.3-1.4,0.3c-0.6,0-1.1-0.2-1.3-0.5
			c-0.3-0.3-0.4-0.8-0.4-1.4v-2.7H815v-0.6l0.8-0.5l0.4-1.2h1v1.2h1.6v1.1h-1.6v2.7c0,0.2,0.1,0.4,0.2,0.5
			C817.5-2383.3,817.7-2383.2,817.9-2383.2z"/>
		<path class="st3" d="M823.1-2387.8c0.2,0,0.4,0,0.5,0l-0.1,1.4c-0.1,0-0.3,0-0.4,0c-0.5,0-0.9,0.1-1.1,0.4c-0.3,0.2-0.4,0.6-0.4,1
			v2.8H820v-5.6h1.2l0.2,0.9h0.1c0.2-0.3,0.4-0.6,0.7-0.8S822.8-2387.8,823.1-2387.8z"/>
		<path class="st3" d="M827.1-2382c-0.9,0-1.6-0.2-2.1-0.7c-0.5-0.5-0.8-1.2-0.8-2.1c0-0.9,0.2-1.7,0.7-2.2c0.5-0.5,1.1-0.8,1.9-0.8
			c0.8,0,1.4,0.2,1.8,0.7c0.4,0.4,0.7,1.1,0.7,1.9v0.7h-3.6c0,0.4,0.1,0.8,0.4,1c0.2,0.2,0.6,0.4,1,0.4c0.3,0,0.7,0,1-0.1
			c0.3-0.1,0.6-0.2,0.9-0.3v1.2c-0.3,0.1-0.5,0.2-0.9,0.3S827.6-2382,827.1-2382z M826.9-2386.7c-0.3,0-0.6,0.1-0.8,0.3
			s-0.3,0.5-0.3,0.9h2.1c0-0.4-0.1-0.7-0.3-0.9S827.2-2386.7,826.9-2386.7z"/>
		<path class="st3" d="M835.8-2382c-0.9,0-1.6-0.2-2.1-0.7c-0.5-0.5-0.8-1.2-0.8-2.1c0-0.9,0.2-1.7,0.7-2.2c0.5-0.5,1.1-0.8,1.9-0.8
			c0.8,0,1.4,0.2,1.8,0.7c0.4,0.4,0.7,1.1,0.7,1.9v0.7h-3.6c0,0.4,0.1,0.8,0.4,1c0.2,0.2,0.6,0.4,1,0.4c0.3,0,0.7,0,1-0.1
			c0.3-0.1,0.6-0.2,0.9-0.3v1.2c-0.3,0.1-0.5,0.2-0.9,0.3S836.3-2382,835.8-2382z M835.6-2386.7c-0.3,0-0.6,0.1-0.8,0.3
			s-0.3,0.5-0.3,0.9h2.1c0-0.4-0.1-0.7-0.3-0.9S835.9-2386.7,835.6-2386.7z"/>
		<path class="st3" d="M844.5-2382.1H843v-3.3c0-0.4-0.1-0.7-0.2-0.9c-0.1-0.2-0.4-0.3-0.7-0.3c-0.4,0-0.7,0.1-0.9,0.4
			c-0.2,0.3-0.3,0.8-0.3,1.4v2.6h-1.5v-5.6h1.2l0.2,0.7h0.1c0.2-0.3,0.4-0.5,0.7-0.6c0.3-0.1,0.6-0.2,1-0.2c0.6,0,1.1,0.2,1.5,0.5
			c0.3,0.4,0.5,0.9,0.5,1.5V-2382.1z"/>
		<path class="st3" d="M853-2389.4h1.6l-2.5,7.3h-1.7l-2.5-7.3h1.6l1.4,4.3c0.1,0.3,0.2,0.6,0.2,0.9c0.1,0.3,0.1,0.6,0.2,0.7
			c0-0.3,0.2-0.8,0.4-1.6L853-2389.4z"/>
		<path class="st3" d="M857.8-2382c-0.9,0-1.6-0.2-2.1-0.7c-0.5-0.5-0.8-1.2-0.8-2.1c0-0.9,0.2-1.7,0.7-2.2c0.5-0.5,1.1-0.8,1.9-0.8
			c0.8,0,1.4,0.2,1.8,0.7c0.4,0.4,0.7,1.1,0.7,1.9v0.7h-3.6c0,0.4,0.1,0.8,0.4,1c0.2,0.2,0.6,0.4,1,0.4c0.3,0,0.7,0,1-0.1
			c0.3-0.1,0.6-0.2,0.9-0.3v1.2c-0.3,0.1-0.5,0.2-0.9,0.3S858.3-2382,857.8-2382z M857.6-2386.7c-0.3,0-0.6,0.1-0.8,0.3
			s-0.3,0.5-0.3,0.9h2.1c0-0.4-0.1-0.7-0.3-0.9S857.9-2386.7,857.6-2386.7z"/>
		<path class="st3" d="M866.5-2382.1H865v-3.3c0-0.4-0.1-0.7-0.2-0.9c-0.1-0.2-0.4-0.3-0.7-0.3c-0.4,0-0.7,0.1-0.9,0.4
			c-0.2,0.3-0.3,0.8-0.3,1.4v2.6h-1.5v-5.6h1.2l0.2,0.7h0.1c0.2-0.3,0.4-0.5,0.7-0.6c0.3-0.1,0.6-0.2,1-0.2c0.6,0,1.1,0.2,1.5,0.5
			c0.3,0.4,0.5,0.9,0.5,1.5V-2382.1z"/>
		<path class="st3" d="M870.4-2383.2c0.3,0,0.6-0.1,1-0.2v1.1c-0.4,0.2-0.8,0.3-1.4,0.3c-0.6,0-1.1-0.2-1.3-0.5
			c-0.3-0.3-0.4-0.8-0.4-1.4v-2.7h-0.7v-0.6l0.8-0.5l0.4-1.2h1v1.2h1.6v1.1h-1.6v2.7c0,0.2,0.1,0.4,0.2,0.5
			C870-2383.3,870.2-2383.2,870.4-2383.2z"/>
		<path class="st3" d="M875-2382c-0.9,0-1.6-0.2-2.1-0.7c-0.5-0.5-0.8-1.2-0.8-2.1c0-0.9,0.2-1.7,0.7-2.2c0.5-0.5,1.1-0.8,1.9-0.8
			c0.8,0,1.4,0.2,1.8,0.7c0.4,0.4,0.7,1.1,0.7,1.9v0.7h-3.6c0,0.4,0.1,0.8,0.4,1c0.2,0.2,0.6,0.4,1,0.4c0.3,0,0.7,0,1-0.1
			c0.3-0.1,0.6-0.2,0.9-0.3v1.2c-0.3,0.1-0.5,0.2-0.9,0.3S875.4-2382,875-2382z M874.8-2386.7c-0.3,0-0.6,0.1-0.8,0.3
			s-0.3,0.5-0.3,0.9h2.1c0-0.4-0.1-0.7-0.3-0.9S875.1-2386.7,874.8-2386.7z"/>
	</g>
	<rect x="741" y="-2610.7" class="st6" width="193.5" height="153"/>
	<path class="st7" d="M845.4-2428.7H742.1c-0.6,0-1.1-0.5-1.1-1.1v-7.3c0-0.6,0.5-1.1,1.1-1.1h103.3c0.6,0,1.1,0.5,1.1,1.1v7.3
		C846.5-2429.2,846-2428.7,845.4-2428.7z"/>
	<path class="st7" d="M882.4-2634.3H779.1c-0.6,0-1.1-0.5-1.1-1.1v-2.6c0-0.6,0.5-1.1,1.1-1.1h103.3c0.6,0,1.1,0.5,1.1,1.1v2.6
		C883.5-2634.8,883-2634.3,882.4-2634.3z"/>
	<path class="st7" d="M861.6-2624.8h-82.5c-0.6,0-1.1-0.5-1.1-1.1v-2.6c0-0.6,0.5-1.1,1.1-1.1h82.5c0.6,0,1.1,0.5,1.1,1.1v2.6
		C862.7-2625.3,862.2-2624.8,861.6-2624.8z"/>
	<path class="st7" d="M879.7-2412.6H742.1c-0.6,0-1.1-0.5-1.1-1.1v-6.7c0-0.6,0.5-1.1,1.1-1.1h137.6c0.6,0,1.1,0.5,1.1,1.1v6.7
		C880.8-2413.1,880.3-2412.6,879.7-2412.6z"/>
	<g>
		<circle class="st8" cx="926.3" cy="-2634.3" r="1.2"/>
		<circle class="st8" cx="926.3" cy="-2630.7" r="1.2"/>
		<circle class="st8" cx="926.3" cy="-2627.2" r="1.2"/>
	</g>
	<g>
		<g>
			<defs>
				<polygon id="SVGID_1_" points="758.3,-2531.3 835.2,-2576 912.4,-2531.3 835.4,-2486.6 				"/>
			</defs>
			<clipPath id="SVGID_2_">
				<use xlink:href="#SVGID_1_"  style="overflow:visible;"/>
			</clipPath>
			<polygon class="st9" points="758.3,-2531.3 835.2,-2576 912.4,-2531.3 835.4,-2486.6 			"/>
			<path class="st10" d="M896-2465.1c-1.8,0-70.7-23.7-85-50.5c-14.3-26.8,141.8-22.8,141.8-22.8l-17.9,51.9L896-2465.1z"/>
		</g>
		<g>
			<g id="XMLID_287_">
				<polygon id="XMLID_288_" class="st11" points="804.2,-2561.9 804.1,-2516.9 785.6,-2527.6 785.7,-2554.6 				"/>
			</g>
			<g id="XMLID_285_">
				<polygon id="XMLID_286_" class="st12" points="804.2,-2561.9 855.8,-2591.9 855.7,-2546.8 804.1,-2516.9 				"/>
			</g>
			<g id="XMLID_283_">
				<polygon id="XMLID_284_" class="st13" points="785.7,-2554.6 837.3,-2584.6 855.8,-2591.9 804.2,-2561.9 				"/>
			</g>
			<g id="XMLID_280_">
				<polygon id="XMLID_281_" class="st14" points="804.9,-2564 804.9,-2562.2 785.7,-2554.6 782.3,-2553.3 781.1,-2554.7 				"/>
			</g>
			<g id="XMLID_277_">
				<polygon id="XMLID_278_" class="st15" points="804.9,-2564 856.5,-2594 856.5,-2592.2 804.9,-2562.2 				"/>
			</g>
			<g id="XMLID_275_">
				<polygon id="XMLID_276_" class="st16" points="781.1,-2554.7 832.7,-2584.7 856.5,-2594 804.9,-2564 				"/>
			</g>
			<g id="XMLID_273_">
				<polygon id="XMLID_274_" class="st11" points="819.7,-2559.4 838.2,-2530.7 838.1,-2515.2 819.6,-2525.9 				"/>
			</g>
			<g id="XMLID_271_">
				<polygon id="XMLID_272_" class="st17" points="819.7,-2559.4 855.8,-2580.4 874.3,-2551.7 838.2,-2530.7 				"/>
			</g>
			<g id="XMLID_269_">
				<polygon id="XMLID_270_" class="st12" points="838.2,-2530.7 874.3,-2551.7 874.2,-2536.2 838.1,-2515.2 				"/>
			</g>
			<g id="XMLID_264_">
				<polygon id="XMLID_267_" class="st15" points="819.7,-2561.2 842.7,-2525.5 841.5,-2525.4 838.2,-2530.7 819.7,-2559.4 				"/>
			</g>
			<g id="XMLID_262_">
				<polygon id="XMLID_263_" class="st16" points="819.7,-2561.2 855.8,-2582.2 878.8,-2546.5 842.7,-2525.5 				"/>
			</g>
			<g id="XMLID_259_">
				<polygon id="XMLID_260_" class="st14" points="804.2,-2535 781,-2548.5 781,-2549.7 804.2,-2536.2 				"/>
			</g>
			<g id="XMLID_254_">
				<g>
					<polygon id="XMLID_68_" class="st15" points="804.2,-2536.2 824.4,-2548 824.4,-2546.8 804.2,-2535 					"/>
				</g>
			</g>
			<polygon id="XMLID_253_" class="st16" points="824.4,-2548 819.7,-2550.7 804.2,-2541.7 785.7,-2552.4 781,-2549.7 
				802.2,-2537.4 802.2,-2537.4 804.2,-2536.2 			"/>
			<g id="XMLID_246_">
				<g id="XMLID_247_" class="st18">
					<g id="XMLID_250_">
						<polygon id="XMLID_251_" class="st11" points="799.6,-2517.3 799.6,-2516.4 793.3,-2520.1 793.3,-2521 						"/>
					</g>
					<g id="XMLID_248_">
						<polygon id="XMLID_249_" class="st12" points="793.3,-2521 795.9,-2522.5 802.2,-2518.8 799.6,-2517.3 						"/>
					</g>
				</g>
			</g>
			<g id="XMLID_237_">
				<g id="XMLID_238_" class="st18">
					<g id="XMLID_243_">
						<polygon id="XMLID_244_" class="st11" points="800.7,-2518.8 800.7,-2517.9 794.4,-2521.6 794.4,-2522.5 						"/>
					</g>
					<polygon id="XMLID_241_" class="st11" points="802.2,-2519.7 800.7,-2518.8 800.7,-2517.9 799.6,-2517.3 799.6,-2516.4 
						802.2,-2517.9 802.2,-2518.8 802.2,-2518.8 					"/>
					<g id="XMLID_239_">
						<polygon id="XMLID_240_" class="st12" points="794.4,-2522.5 795.9,-2523.4 802.2,-2519.7 800.7,-2518.8 						"/>
					</g>
				</g>
			</g>
			<g id="XMLID_227_">
				<g id="XMLID_228_" class="st18">
					<g id="XMLID_235_">
						<polygon id="XMLID_236_" class="st16" points="796.3,-2531.6 796.9,-2531.9 796.8,-2522.9 796.3,-2522.6 						"/>
					</g>
					<g id="XMLID_233_">
						<g>
							<polygon id="XMLID_61_" class="st14" points="801.4,-2529.4 801.4,-2519.6 800.8,-2520 800.8,-2529 796.3,-2531.6 
								796.3,-2522.6 795.7,-2523 795.7,-2532.8 							"/>
						</g>
					</g>
					<g id="XMLID_231_">
						<polygon id="XMLID_232_" class="st15" points="801.4,-2529.4 801.9,-2529.7 801.9,-2519.9 801.4,-2519.6 						"/>
					</g>
					<g id="XMLID_229_">
						<polygon id="XMLID_230_" class="st15" points="795.7,-2532.8 796.2,-2533.1 801.9,-2529.7 801.4,-2529.4 						"/>
					</g>
				</g>
			</g>
			<path id="XMLID_226_" class="st11" d="M861.5-2561.6c0.8-0.1,1.5-1,1.5-1.6c0,0,0.1-11.9,0.1-11.9c0,0.1,0,0.2-0.1,0.3
				c0,0,0,0,0,0c0,0.1-0.1,0.2-0.1,0.3c0,0,0,0,0,0c-0.1,0.1-0.1,0.2-0.2,0.3c-0.1,0.1-0.1,0.1-0.2,0.2c-0.1,0-0.1,0.1-0.2,0.1
				c-0.2,0.1-0.4,0.2-0.6,0.3c-0.1,0-0.1,0-0.2,0.1c-0.1,0-0.2,0.1-0.3,0.1c-0.1,0-0.2,0-0.4,0.1c0,0-0.1,0-0.1,0
				c-0.2,0-0.3,0-0.5,0c0,0-0.1,0-0.1,0c-0.2,0-0.3,0-0.5,0c0,0,0,0-0.1,0c-0.2,0-0.3,0-0.5-0.1c0,0-0.1,0-0.1,0
				c-0.1,0-0.3-0.1-0.4-0.1c0,0,0,0-0.1,0c-0.2-0.1-0.3-0.1-0.4-0.2c-0.6-0.3-0.9-0.8-0.9-1.2l0,10.7
				C857.9-2561.3,861.5-2561.6,861.5-2561.6z"/>
			<path id="XMLID_224_" class="st19" d="M863-2575.2l0-0.9c0-0.4-0.3-0.9-0.9-1.2c-0.1-0.1-0.3-0.1-0.4-0.2c0,0,0,0,0,0
				c0,0,0,0-0.1,0c-0.1,0-0.2-0.1-0.3-0.1c0,0-0.1,0-0.1,0c0,0-0.1,0-0.1,0c0,0,0,0-0.1,0c-0.1,0-0.2,0-0.3-0.1c0,0-0.1,0-0.1,0
				c0,0,0,0-0.1,0c0,0-0.1,0-0.1,0c-0.1,0-0.2,0-0.3,0c0,0-0.1,0-0.1,0c0,0-0.1,0-0.1,0c0,0-0.1,0-0.1,0c-0.1,0-0.2,0-0.3,0
				c0,0,0,0,0,0c0,0-0.1,0-0.1,0c-0.1,0-0.2,0-0.2,0c0,0-0.1,0-0.1,0c-0.1,0-0.2,0-0.3,0.1c-0.1,0-0.1,0-0.2,0c0,0,0,0-0.1,0
				c-0.2,0.1-0.4,0.2-0.6,0.3c0,0,0,0,0,0c-0.1,0-0.1,0.1-0.1,0.1c-0.1,0-0.1,0.1-0.2,0.2c0,0,0,0,0,0c-0.1,0.1-0.1,0.1-0.2,0.2
				c0,0,0,0,0,0c0,0,0,0,0,0c0,0,0,0.1-0.1,0.1c0,0.1-0.1,0.1-0.1,0.2c0,0,0,0,0,0c0,0,0,0,0,0c0,0,0,0.1,0,0.1c0,0.1,0,0.1,0,0.2
				c0,0,0,0,0,0l0,3c0-0.1,0-0.2,0.1-0.3c0,0,0,0,0,0c0-0.1,0.1-0.2,0.1-0.3c0,0,0,0,0,0c0.1-0.1,0.1-0.2,0.2-0.3
				c0,0,0.1-0.1,0.1-0.1c0.1,0.1,0.2,0.1,0.3,0.2c1.1,0.7,3,0.7,4.2,0c0.1-0.1,0.2-0.1,0.3-0.2c0.4,0.3,0.6,0.6,0.6,1l0-1.9
				C863-2575,863-2575.1,863-2575.2z"/>
			<g id="XMLID_220_">
				<path id="XMLID_221_" class="st14" d="M862.6-2577.5c1.4,0.8,1.4,2.1,0,2.9c-1.4,0.8-3.6,0.8-5,0c-1.4-0.8-1.4-2.1,0-2.9
					C858.9-2578.3,861.2-2578.3,862.6-2577.5z M858-2574.8c1.1,0.7,3,0.7,4.2,0c1.1-0.7,1.1-1.7,0-2.4c-1.2-0.7-3-0.7-4.2,0
					C856.8-2576.6,856.9-2575.5,858-2574.8"/>
			</g>
			<path id="XMLID_219_" class="st20" d="M863.6-2575.7C863.6-2575.7,863.6-2575.6,863.6-2575.7c0,0.1-0.1,0.3-0.2,0.4
				c0,0,0,0,0,0.1c-0.1,0.1-0.2,0.2-0.3,0.3c-0.1,0.1-0.2,0.1-0.3,0.2c-0.1,0.1-0.1,0.1-0.2,0.2c-0.2,0.1-0.5,0.2-0.7,0.3
				c-0.1,0-0.2,0.1-0.3,0.1c-0.1,0-0.2,0.1-0.4,0.1c-0.1,0-0.3,0.1-0.4,0.1c0,0-0.1,0-0.1,0c-0.2,0-0.4,0-0.6,0c0,0-0.1,0-0.1,0
				c-0.2,0-0.4,0-0.6,0c0,0-0.1,0-0.1,0c-0.2,0-0.4-0.1-0.6-0.1c0,0-0.1,0-0.1,0c-0.2,0-0.3-0.1-0.5-0.2c0,0-0.1,0-0.1,0
				c-0.2-0.1-0.4-0.2-0.5-0.3c-0.7-0.4-1.1-0.9-1.1-1.5l0,3c0,0.5,0.4,1.1,1.1,1.5c0.2,0.1,0.3,0.2,0.5,0.2c0,0,0,0,0,0
				c0,0,0.1,0,0.1,0c0.1,0,0.2,0.1,0.3,0.1c0.1,0,0.1,0,0.2,0c0,0,0.1,0,0.1,0c0,0,0.1,0,0.1,0c0.1,0,0.2,0,0.4,0.1c0,0,0.1,0,0.1,0
				c0,0,0.1,0,0.1,0c0,0,0.1,0,0.1,0c0.1,0,0.2,0,0.4,0c0,0,0.1,0,0.1,0c0,0,0.1,0,0.1,0c0.1,0,0.1,0,0.2,0c0.1,0,0.3,0,0.4,0
				c0,0,0,0,0.1,0c0,0,0.1,0,0.1,0c0.1,0,0.2,0,0.3,0c0,0,0.1,0,0.1,0c0.1,0,0.2-0.1,0.4-0.1c0.1,0,0.1,0,0.2,0c0,0,0.1,0,0.1,0
				c0.2-0.1,0.5-0.2,0.7-0.3c0,0,0,0,0,0c0.1,0,0.1-0.1,0.2-0.1c0.1-0.1,0.2-0.1,0.3-0.2c0,0,0,0,0,0c0.1-0.1,0.2-0.2,0.2-0.2
				c0,0,0,0,0-0.1c0,0,0,0,0-0.1c0,0,0-0.1,0.1-0.1c0-0.1,0.1-0.1,0.1-0.2c0,0,0,0,0,0c0,0,0,0,0,0c0,0,0-0.1,0-0.1
				c0-0.1,0-0.1,0-0.2c0,0,0,0,0,0l0-3C863.6-2575.9,863.6-2575.8,863.6-2575.7z"/>
			<g id="XMLID_196_">
				<polygon id="XMLID_218_" class="st21" points="788.1,-2537.9 788.1,-2533.1 793,-2530.8 793,-2535.6 				"/>
				
					<image style="overflow:visible;opacity:0.8;" width="3" height="6" id="XMLID_217_" xlink:href="3E7AA000.png"  transform="matrix(1 0 0 1 788 -2538)">
				</image>
				
					<image style="overflow:visible;opacity:0.8;" width="3" height="6" id="XMLID_216_" xlink:href="3E7AA001.png"  transform="matrix(1 0 0 1 790 -2536)">
				</image>
				<g id="XMLID_197_">
					<g id="XMLID_198_" class="st18">
						<g id="XMLID_214_">
							<polygon id="XMLID_215_" class="st16" points="787.7,-2537.6 788.6,-2538.1 788.6,-2533.3 787.7,-2532.8 							"/>
						</g>
						<g id="XMLID_210_">
							<polygon id="XMLID_212_" class="st15" points="787.7,-2532.8 788.6,-2533.3 793,-2530.8 792.1,-2530.3 							"/>
						</g>
						<g id="XMLID_205_">
							<g>
								<path id="XMLID_82_" class="st14" d="M787.4-2538.3l5.1,2.9l0,5.8l-5.1-2.9L787.4-2538.3z M792.1-2530.3l0-4.8l-4.4-2.5
									l0,4.8L792.1-2530.3"/>
							</g>
						</g>
						<g id="XMLID_203_">
							<polygon id="XMLID_204_" class="st16" points="787.4,-2538.3 788.2,-2538.8 793.3,-2535.9 792.5,-2535.4 							"/>
						</g>
						<g id="XMLID_199_">
							<g>
								<polygon id="XMLID_55_" class="st15" points="792.5,-2535.4 793.3,-2535.9 793.3,-2530.1 792.5,-2529.6 								"/>
							</g>
						</g>
					</g>
				</g>
			</g>
			<g id="XMLID_178_">
				<polygon id="XMLID_195_" class="st21" points="794.7,-2554.6 794.7,-2549.8 799.5,-2547.5 799.5,-2552.4 				"/>
				
					<image style="overflow:visible;opacity:0.8;" width="3" height="5" id="XMLID_194_" xlink:href="3E7AA006.png"  transform="matrix(1 0 0 1 795 -2554)">
				</image>
				
					<image style="overflow:visible;opacity:0.8;" width="3" height="6" id="XMLID_193_" xlink:href="3E7AA007.png"  transform="matrix(1 0 0 1 797 -2553)">
				</image>
				<g id="XMLID_179_">
					<g id="XMLID_180_" class="st18">
						<g id="XMLID_191_">
							<polygon id="XMLID_192_" class="st15" points="794.2,-2554.4 795.1,-2554.9 795.1,-2550 794.2,-2549.5 							"/>
						</g>
						<g id="XMLID_189_">
							<polygon id="XMLID_190_" class="st16" points="794.2,-2549.5 795.1,-2550 799.5,-2547.5 798.6,-2547 							"/>
						</g>
						<g id="XMLID_185_">
							<g>
								<path id="XMLID_77_" class="st14" d="M793.9-2555l5.1,2.9l0,5.8l-5.1-2.9L793.9-2555z M798.6-2547l0-4.8l-4.4-2.5l0,4.8
									L798.6-2547"/>
							</g>
						</g>
						<g id="XMLID_183_">
							<polygon id="XMLID_184_" class="st16" points="793.9,-2555 794.7,-2555.5 799.8,-2552.6 799,-2552.1 							"/>
						</g>
						<g id="XMLID_181_">
							<polygon id="XMLID_182_" class="st15" points="799,-2552.1 799.8,-2552.6 799.8,-2546.8 799,-2546.3 							"/>
						</g>
					</g>
				</g>
			</g>
			<g id="XMLID_136_">
				<polygon id="XMLID_176_" class="st19" points="823.6,-2540.3 823.5,-2537.1 825.9,-2535.8 825.9,-2539 				"/>
				<polygon id="XMLID_174_" class="st19" points="831.1,-2535.7 831.1,-2532.5 833.5,-2531.2 833.5,-2534.4 				"/>
				<g id="XMLID_158_">
					<g id="XMLID_159_" class="st18">
						<g id="XMLID_170_">
							<g>
								<polygon id="XMLID_48_" class="st15" points="822.8,-2536.7 823.8,-2537.3 826.2,-2536 825.1,-2535.4 								"/>
							</g>
						</g>
						<g id="XMLID_168_">
							<polygon id="XMLID_169_" class="st16" points="822.8,-2539.9 823.8,-2540.5 823.8,-2537.3 822.8,-2536.7 							"/>
						</g>
						<g id="XMLID_164_">
							<path id="XMLID_165_" class="st14" d="M822.6-2540.3l2.8,1.6l0,3.8l-2.8-1.6L822.6-2540.3z M825.1-2535.4l0-3.2l-2.3-1.3
								l0,3.2L825.1-2535.4"/>
						</g>
						<g id="XMLID_162_">
							<polygon id="XMLID_163_" class="st16" points="822.6,-2540.3 823.6,-2540.9 826.4,-2539.3 825.4,-2538.7 							"/>
						</g>
						<g id="XMLID_160_">
							<g>
								<polygon id="XMLID_46_" class="st15" points="825.4,-2538.7 826.4,-2539.3 826.4,-2535.5 825.4,-2534.9 								"/>
							</g>
						</g>
					</g>
				</g>
				<g id="XMLID_137_">
					<g id="XMLID_138_" class="st18">
						<g id="XMLID_154_">
							<g>
								<polygon id="XMLID_44_" class="st15" points="830.6,-2532.2 831.6,-2532.8 833.9,-2531.5 832.9,-2530.9 								"/>
							</g>
						</g>
						<g id="XMLID_152_">
							<polygon id="XMLID_153_" class="st16" points="830.6,-2535.4 831.6,-2536 831.6,-2532.8 830.6,-2532.2 							"/>
						</g>
						<g id="XMLID_147_">
							<path id="XMLID_148_" class="st14" d="M830.3-2535.8l2.8,1.6l0,3.8l-2.8-1.6L830.3-2535.8z M832.9-2530.9l0-3.2l-2.3-1.3
								l0,3.2L832.9-2530.9"/>
						</g>
						<g id="XMLID_143_">
							<polygon id="XMLID_144_" class="st16" points="830.3,-2535.8 831.4,-2536.4 834.2,-2534.8 833.1,-2534.2 							"/>
						</g>
						<g id="XMLID_139_">
							<g>
								<polygon id="XMLID_43_" class="st15" points="833.1,-2534.2 834.2,-2534.8 834.2,-2531 833.1,-2530.4 								"/>
							</g>
						</g>
					</g>
				</g>
			</g>
			<polygon id="XMLID_134_" class="st19" points="796.8,-2531.3 796.8,-2522.9 800.8,-2520.6 800.8,-2529 			"/>
			<polygon id="XMLID_133_" class="st16" points="821.3,-2524.8 821.3,-2533.8 835.9,-2525.4 835.9,-2516.4 			"/>
			<g id="XMLID_106_">
				<g id="XMLID_131_">
					<polygon id="XMLID_132_" class="st12" points="836,-2516.7 836,-2516.5 821.1,-2525.1 821.1,-2525.3 					"/>
				</g>
				<g id="XMLID_129_">
					<polygon id="XMLID_130_" class="st12" points="836,-2517.4 836,-2517.2 821.1,-2525.8 821.1,-2526 					"/>
				</g>
				<g id="XMLID_127_">
					<polygon id="XMLID_128_" class="st12" points="836,-2518.1 836,-2517.9 821.1,-2526.5 821.1,-2526.7 					"/>
				</g>
				<g id="XMLID_125_">
					<polygon id="XMLID_126_" class="st12" points="836,-2518.8 836,-2518.6 821.1,-2527.2 821.1,-2527.4 					"/>
				</g>
				<g id="XMLID_123_">
					<polygon id="XMLID_124_" class="st12" points="836,-2519.5 836,-2519.3 821.1,-2527.9 821.1,-2528.1 					"/>
				</g>
				<g id="XMLID_121_">
					<polygon id="XMLID_122_" class="st12" points="836,-2520.2 836,-2520 821.1,-2528.6 821.1,-2528.9 					"/>
				</g>
				<g id="XMLID_119_">
					<polygon id="XMLID_120_" class="st12" points="836,-2520.9 836,-2520.7 821.1,-2529.3 821.1,-2529.6 					"/>
				</g>
				<g id="XMLID_117_">
					<polygon id="XMLID_118_" class="st12" points="836,-2521.7 836,-2521.4 821.1,-2530.1 821.1,-2530.3 					"/>
				</g>
				<g id="XMLID_115_">
					<polygon id="XMLID_116_" class="st12" points="836,-2522.4 836,-2522.2 821.1,-2530.8 821.1,-2531 					"/>
				</g>
				<g id="XMLID_113_">
					<polygon id="XMLID_114_" class="st12" points="836,-2523.1 836,-2522.9 821.1,-2531.5 821.1,-2531.7 					"/>
				</g>
				<g id="XMLID_111_">
					<polygon id="XMLID_112_" class="st12" points="836,-2523.8 836,-2523.6 821.1,-2532.2 821.1,-2532.4 					"/>
				</g>
				<g id="XMLID_109_">
					<polygon id="XMLID_110_" class="st12" points="836,-2524.5 836,-2524.3 821.1,-2532.9 821.1,-2533.1 					"/>
				</g>
				<g id="XMLID_107_">
					<polygon id="XMLID_108_" class="st12" points="836,-2525.2 836,-2525 821.1,-2533.6 821.1,-2533.8 					"/>
				</g>
			</g>
			<g id="XMLID_12_">
				<g id="XMLID_29_" class="st18">
					<g id="XMLID_103_">
						<polygon id="XMLID_104_" class="st15" points="820.8,-2534.1 821.3,-2534.4 821.3,-2524.8 820.8,-2524.5 						"/>
					</g>
					<g id="XMLID_93_">
						<polygon id="XMLID_96_" class="st14" points="836.6,-2525.8 836.6,-2515.4 835.9,-2515.8 835.9,-2525.4 820.8,-2534.1 
							820.8,-2524.5 820.1,-2524.9 820.1,-2535.4 						"/>
					</g>
					<g id="XMLID_69_">
						<polygon id="XMLID_75_" class="st15" points="836.6,-2525.8 837.1,-2526.1 837.1,-2515.7 836.6,-2515.4 						"/>
					</g>
					<g id="XMLID_30_">
						<polygon id="XMLID_34_" class="st16" points="820.1,-2535.4 820.7,-2535.7 837.1,-2526.1 836.6,-2525.8 						"/>
					</g>
				</g>
			</g>
		</g>
	</g>
</g>
<g>
	<circle class="st22" cx="754.6" cy="-2631" r="13.6"/>
	<g>
		<defs>
			<circle id="SVGID_3_" cx="754.6" cy="-2631" r="10.9"/>
		</defs>
		<clipPath id="SVGID_4_">
			<use xlink:href="#SVGID_3_"  style="overflow:visible;"/>
		</clipPath>
		<g transform="matrix(1 0 0 1 6.103516e-005 0)" style="clip-path:url(#SVGID_4_);">
			
				<image style="overflow:visible;" width="270" height="270" xlink:href="../../../../design/assets/avatars/dounia.jpg"  transform="matrix(8.052653e-002 0 0 8.052653e-002 743.7481 -2641.9099)">
			</image>
		</g>
	</g>
</g>
</svg>
