<?xml version="1.0" encoding="utf-8"?>
<!-- Generator: Adobe Illustrator 19.0.0, SVG Export Plug-In . SVG Version: 6.00 Build 0)  -->
<svg version="1.1" id="Section1" xmlns="http://www.w3.org/2000/svg" xmlns:xlink="http://www.w3.org/1999/xlink" x="0px" y="0px"
	 viewBox="63 60.3 721.6 721.6" style="enable-background:new 63 60.3 721.6 721.6;" xml:space="preserve">
<style type="text/css">
	.st0{fill:#FFFFFF;}
	.st1{fill:#6F7592;}
	.st2{fill:#FFFFFF;stroke:#D6D7D8;stroke-miterlimit:10;}
	.st3{fill:#3585C4;}
	.st4{fill:#FAFAFA;}
	.st5{fill:#F0F7FF;}
	.st6{fill:#E8EFF9;}
	.st7{fill:#D6D7D8;}
	.st8{clip-path:url(#SVGID_2_);fill:#3585C4;}
	.st9{clip-path:url(#SVGID_4_);fill:#4698D1;}
	.st10{fill:#C1D1F8;}
	.st11{fill:#E9F0FF;}
	.st12{fill:#775A63;}
	.st13{fill:#DD4D0E;}
	.st14{fill:#FF905F;}
	.st15{fill:#FF6112;}
	.st16{fill:#E4ABBC;}
	.st17{enable-background:new    ;}
	.st18{fill:#403A84;}
	.st19{fill:#FC7538;}
	.st20{fill:#CCECFF;}
	.st21{fill:#FFFFFF;stroke:#1DDBA5;stroke-miterlimit:10;}
	.st22{clip-path:url(#SVGID_6_);}
</style>
<g>
	<g>
		<path class="st0" d="M585.4,684H402.7c-21.6,0-39.1-17.5-39.1-39.1v-448c0-21.6,17.5-39.1,39.1-39.1h182.8
			c21.6,0,39.1,17.5,39.1,39.1v448C624.5,666.5,607,684,585.4,684z"/>
		<g>
			<g>
				<path class="st0" d="M608.5,644c0,13.4-10.9,24.2-24.2,24.2H403.8c-13.4,0-24.2-10.9-24.2-24.2V197.8
					c0-13.4,10.9-24.2,24.2-24.2h23.5c1.9,0,3.5,1.6,3.5,3.5v2c0,0.9,0.1,1.7,0.3,2.5c1.2,5.7,6.2,10,12.3,10h101.3
					c6.1,0,11.1-4.3,12.3-10c0.2-0.8,0.3-1.7,0.3-2.5v-2c0-1.9,1.6-3.5,3.5-3.5h23.5c13.4,0,24.2,10.9,24.2,24.2L608.5,644
					L608.5,644z"/>
			</g>
			<path class="st1" d="M625.7,279.5l-1.2-1.2v-81.2c0-21.6-17.6-39.2-39.2-39.2H402.7c-21.6,0-39.2,17.6-39.2,39.2v31
				c-0.8,0-1.4,0.7-1.4,1.4v19.6c0,0.8,0.6,1.4,1.4,1.4v15.2l-1.1,0.9c-0.2,0.1-0.3,0.3-0.3,0.6v37c0,0.2,0.1,0.4,0.3,0.6l1.1,0.9
				v8.3l-1.1,0.9c-0.2,0.1-0.3,0.3-0.3,0.6v37c0,0.2,0.1,0.4,0.3,0.6l1.1,0.9v291.1c0,21.6,17.6,39.2,39.2,39.2h182.5
				c21.6,0,39.2-17.6,39.2-39.2V341.5l1.2-1.2c0.1-0.1,0.2-0.3,0.2-0.5v-59.4C625.9,279.8,625.8,279.6,625.7,279.5z M624.4,339.1
				l-1.2,1.2c-0.1,0.1-0.2,0.3-0.2,0.5v303.9c0,20.8-17,37.8-37.8,37.8H402.7c-20.8,0-37.8-17-37.8-37.8V353.3
				c0-0.2-0.1-0.4-0.3-0.6l-1.1-0.9v-36.3l1.1-0.9c0.2-0.1,0.3-0.3,0.3-0.6v-9c0-0.2-0.1-0.4-0.3-0.6l-1.1-0.9v-36.3l1.1-0.9
				c0.2-0.1,0.3-0.3,0.3-0.6v-16.3c0-0.4-0.3-0.7-0.7-0.7h-0.7v-19.6h0.7c0.4,0,0.7-0.3,0.7-0.7v-31.7c0-20.8,17-37.8,37.8-37.8
				h182.5c20.8,0,37.8,17,37.8,37.8v81.5c0,0.2,0.1,0.4,0.2,0.5l1.2,1.2V339.1z M584.2,162.2H403.8c-19.7,0-35.6,16-35.6,35.6V644
				c0,19.7,16,35.6,35.6,35.6h180.4c19.7,0,35.6-16,35.6-35.6V197.8C619.9,178.1,603.9,162.2,584.2,162.2z M522,174.2
				c2.7,0,4.8,2.2,4.8,4.8s-2.2,4.8-4.8,4.8c-2.7,0-4.8-2.2-4.8-4.8S519.4,174.2,522,174.2z M480.2,176.7h27.7c1.3,0,2.3,1,2.3,2.3
				s-1,2.3-2.3,2.3h-27.7c-1.3,0-2.3-1-2.3-2.3S478.9,176.7,480.2,176.7z M608.5,644c0,13.4-10.9,24.2-24.2,24.2H403.8
				c-13.4,0-24.2-10.9-24.2-24.2V197.8c0-13.4,10.9-24.2,24.2-24.2h23.5c1.9,0,3.5,1.6,3.5,3.5v2c0,0.9,0.1,1.7,0.3,2.5
				c1.2,5.7,6.2,10,12.3,10h101.3c6.1,0,11.1-4.3,12.3-10c0.2-0.8,0.3-1.7,0.3-2.5v-2c0-1.9,1.6-3.5,3.5-3.5h23.5
				c13.4,0,24.2,10.9,24.2,24.2L608.5,644L608.5,644z M533.2,659h-78.4c-0.8,0-1.4,0.6-1.4,1.4c0,0.8,0.6,1.4,1.4,1.4h78.4
				c0.8,0,1.4-0.6,1.4-1.4C534.6,659.7,534,659,533.2,659z"/>
		</g>
	</g>
	<path class="st2" d="M596.3,562.1H392.8c-3.2,0-5.8-2.6-5.8-5.8V271.6c0-3.2,2.6-5.8,5.8-5.8h203.5c3.2,0,5.8,2.6,5.8,5.8v284.7
		C602,559.5,599.4,562.1,596.3,562.1z"/>
	<path id="XMLID_5_" class="st3" d="M587,545.7H400.5c-1.9,0-3.5-1.6-3.5-3.5v-21.5c0-1.9,1.6-3.5,3.5-3.5H587
		c1.9,0,3.5,1.6,3.5,3.5v21.5C590.5,544.1,588.9,545.7,587,545.7z"/>
	<g>
		<path class="st4" d="M454.7,534.5l-1.8-5.7l0,0c0.1,1.2,0.1,1.9,0.1,2.3v3.4h-1.4v-7.3h2.1l1.7,5.6l0,0l1.8-5.6h2.1v7.3h-1.4v-3.4
			c0-0.2,0-0.4,0-0.6c0-0.2,0-0.8,0.1-1.7l0,0l-1.9,5.7H454.7z"/>
		<path class="st4" d="M463.6,534.6c-0.9,0-1.6-0.2-2.1-0.7s-0.8-1.2-0.8-2.1c0-0.9,0.2-1.7,0.7-2.2s1.1-0.8,1.9-0.8
			c0.8,0,1.4,0.2,1.8,0.7c0.4,0.4,0.7,1.1,0.7,1.9v0.7h-3.6c0,0.4,0.1,0.8,0.4,1c0.2,0.2,0.6,0.4,1,0.4c0.3,0,0.7,0,1-0.1
			s0.6-0.2,0.9-0.3v1.2c-0.3,0.1-0.5,0.2-0.9,0.3S464.1,534.6,463.6,534.6z M463.4,529.9c-0.3,0-0.6,0.1-0.8,0.3s-0.3,0.5-0.3,0.9
			h2.1c0-0.4-0.1-0.7-0.3-0.9S463.7,529.9,463.4,529.9z"/>
		<path class="st4" d="M469.5,533.4c0.3,0,0.6-0.1,1-0.2v1.1c-0.4,0.2-0.8,0.3-1.4,0.3c-0.6,0-1.1-0.2-1.3-0.5
			c-0.3-0.3-0.4-0.8-0.4-1.4V530h-0.7v-0.6l0.8-0.5l0.4-1.2h1v1.2h1.6v1.1h-1.6v2.7c0,0.2,0.1,0.4,0.2,0.5
			C469.1,533.3,469.3,533.4,469.5,533.4z"/>
		<path class="st4" d="M473.9,533.4c0.3,0,0.6-0.1,1-0.2v1.1c-0.4,0.2-0.8,0.3-1.4,0.3c-0.6,0-1.1-0.2-1.3-0.5
			c-0.3-0.3-0.4-0.8-0.4-1.4V530H471v-0.6l0.8-0.5l0.4-1.2h1v1.2h1.6v1.1h-1.6v2.7c0,0.2,0.1,0.4,0.2,0.5
			C473.5,533.3,473.7,533.4,473.9,533.4z"/>
		<path class="st4" d="M479.1,528.8c0.2,0,0.4,0,0.5,0l-0.1,1.4c-0.1,0-0.3,0-0.4,0c-0.5,0-0.9,0.1-1.1,0.4c-0.3,0.2-0.4,0.6-0.4,1
			v2.8H476v-5.6h1.2l0.2,0.9h0.1c0.2-0.3,0.4-0.6,0.7-0.8S478.8,528.8,479.1,528.8z"/>
		<path class="st4" d="M483.1,534.6c-0.9,0-1.6-0.2-2.1-0.7s-0.8-1.2-0.8-2.1c0-0.9,0.2-1.7,0.7-2.2s1.1-0.8,1.9-0.8
			c0.8,0,1.4,0.2,1.8,0.7c0.4,0.4,0.7,1.1,0.7,1.9v0.7h-3.6c0,0.4,0.1,0.8,0.4,1c0.2,0.2,0.6,0.4,1,0.4c0.3,0,0.7,0,1-0.1
			s0.6-0.2,0.9-0.3v1.2c-0.3,0.1-0.5,0.2-0.9,0.3S483.6,534.6,483.1,534.6z M482.9,529.9c-0.3,0-0.6,0.1-0.8,0.3s-0.3,0.5-0.3,0.9
			h2.1c0-0.4-0.1-0.7-0.3-0.9S483.2,529.9,482.9,529.9z"/>
		<path class="st4" d="M491.8,534.6c-0.9,0-1.6-0.2-2.1-0.7s-0.8-1.2-0.8-2.1c0-0.9,0.2-1.7,0.7-2.2s1.1-0.8,1.9-0.8
			c0.8,0,1.4,0.2,1.8,0.7c0.4,0.4,0.7,1.1,0.7,1.9v0.7h-3.6c0,0.4,0.1,0.8,0.4,1c0.2,0.2,0.6,0.4,1,0.4c0.3,0,0.7,0,1-0.1
			s0.6-0.2,0.9-0.3v1.2c-0.3,0.1-0.5,0.2-0.9,0.3S492.3,534.6,491.8,534.6z M491.6,529.9c-0.3,0-0.6,0.1-0.8,0.3s-0.3,0.5-0.3,0.9
			h2.1c0-0.4-0.1-0.7-0.3-0.9S491.9,529.9,491.6,529.9z"/>
		<path class="st4" d="M500.5,534.5H499v-3.3c0-0.4-0.1-0.7-0.2-0.9c-0.1-0.2-0.4-0.3-0.7-0.3c-0.4,0-0.7,0.1-0.9,0.4
			c-0.2,0.3-0.3,0.8-0.3,1.4v2.6h-1.5v-5.6h1.2l0.2,0.7h0.1c0.2-0.3,0.4-0.5,0.7-0.6s0.6-0.2,1-0.2c0.6,0,1.1,0.2,1.5,0.5
			c0.3,0.4,0.5,0.9,0.5,1.5L500.5,534.5L500.5,534.5z"/>
		<path class="st4" d="M509,527.2h1.6l-2.5,7.3h-1.7l-2.5-7.3h1.6l1.4,4.3c0.1,0.3,0.2,0.6,0.2,0.9c0.1,0.3,0.1,0.6,0.2,0.7
			c0-0.3,0.2-0.8,0.4-1.6L509,527.2z"/>
		<path class="st4" d="M513.8,534.6c-0.9,0-1.6-0.2-2.1-0.7c-0.5-0.5-0.8-1.2-0.8-2.1c0-0.9,0.2-1.7,0.7-2.2
			c0.5-0.5,1.1-0.8,1.9-0.8c0.8,0,1.4,0.2,1.8,0.7c0.4,0.4,0.7,1.1,0.7,1.9v0.7h-3.6c0,0.4,0.1,0.8,0.4,1c0.2,0.2,0.6,0.4,1,0.4
			c0.3,0,0.7,0,1-0.1s0.6-0.2,0.9-0.3v1.2c-0.3,0.1-0.5,0.2-0.9,0.3S514.3,534.6,513.8,534.6z M513.6,529.9c-0.3,0-0.6,0.1-0.8,0.3
			s-0.3,0.5-0.3,0.9h2.1c0-0.4-0.1-0.7-0.3-0.9S513.9,529.9,513.6,529.9z"/>
		<path class="st4" d="M522.5,534.5H521v-3.3c0-0.4-0.1-0.7-0.2-0.9c-0.1-0.2-0.4-0.3-0.7-0.3c-0.4,0-0.7,0.1-0.9,0.4
			c-0.2,0.3-0.3,0.8-0.3,1.4v2.6h-1.5v-5.6h1.2l0.2,0.7h0.1c0.2-0.3,0.4-0.5,0.7-0.6s0.6-0.2,1-0.2c0.6,0,1.1,0.2,1.5,0.5
			c0.3,0.4,0.5,0.9,0.5,1.5L522.5,534.5L522.5,534.5z"/>
		<path class="st4" d="M526.4,533.4c0.3,0,0.6-0.1,1-0.2v1.1c-0.4,0.2-0.8,0.3-1.4,0.3c-0.6,0-1.1-0.2-1.3-0.5
			c-0.3-0.3-0.4-0.8-0.4-1.4V530h-0.7v-0.6l0.8-0.5l0.4-1.2h1v1.2h1.6v1.1h-1.6v2.7c0,0.2,0.1,0.4,0.2,0.5
			C526,533.3,526.2,533.4,526.4,533.4z"/>
		<path class="st4" d="M531,534.6c-0.9,0-1.6-0.2-2.1-0.7s-0.8-1.2-0.8-2.1c0-0.9,0.2-1.7,0.7-2.2s1.1-0.8,1.9-0.8
			c0.8,0,1.4,0.2,1.8,0.7c0.4,0.4,0.7,1.1,0.7,1.9v0.7h-3.6c0,0.4,0.1,0.8,0.4,1c0.2,0.2,0.6,0.4,1,0.4c0.3,0,0.7,0,1-0.1
			s0.6-0.2,0.9-0.3v1.2c-0.3,0.1-0.5,0.2-0.9,0.3S531.4,534.6,531,534.6z M530.8,529.9c-0.3,0-0.6,0.1-0.8,0.3s-0.3,0.5-0.3,0.9h2.1
			c0-0.4-0.1-0.7-0.3-0.9S531.1,529.9,530.8,529.9z"/>
	</g>
	<rect x="397" y="305.9" class="st5" width="193.5" height="153"/>
	<path class="st6" d="M501.4,487.9H398.1c-0.6,0-1.1-0.5-1.1-1.1v-7.3c0-0.6,0.5-1.1,1.1-1.1h103.3c0.6,0,1.1,0.5,1.1,1.1v7.3
		C502.5,487.4,502,487.9,501.4,487.9z"/>
	<path class="st6" d="M538.4,282.3H435.1c-0.6,0-1.1-0.5-1.1-1.1v-2.6c0-0.6,0.5-1.1,1.1-1.1h103.3c0.6,0,1.1,0.5,1.1,1.1v2.6
		C539.5,281.8,539,282.3,538.4,282.3z"/>
	<path class="st6" d="M517.6,291.8h-82.5c-0.6,0-1.1-0.5-1.1-1.1v-2.6c0-0.6,0.5-1.1,1.1-1.1h82.5c0.6,0,1.1,0.5,1.1,1.1v2.6
		C518.7,291.3,518.2,291.8,517.6,291.8z"/>
	<path class="st6" d="M535.7,504H398.1c-0.6,0-1.1-0.5-1.1-1.1v-6.7c0-0.6,0.5-1.1,1.1-1.1h137.6c0.6,0,1.1,0.5,1.1,1.1v6.7
		C536.8,503.5,536.3,504,535.7,504z"/>
	<g>
		<circle class="st7" cx="582.3" cy="282.3" r="1.2"/>
		<circle class="st7" cx="582.3" cy="285.9" r="1.2"/>
		<circle class="st7" cx="582.3" cy="289.4" r="1.2"/>
	</g>
	<g>
		<g>
			<g>
				<defs>
					<polygon id="SVGID_1_" points="414.3,385.3 491.2,340.6 568.4,385.3 491.4,430 					"/>
				</defs>
				<clipPath id="SVGID_2_">
					<use xlink:href="#SVGID_1_"  style="overflow:visible;"/>
				</clipPath>
				<polygon class="st8" points="414.3,385.3 491.2,340.6 568.4,385.3 491.4,430 				"/>
			</g>
			<g>
				<defs>
					<polygon id="SVGID_3_" points="414.3,385.3 491.2,340.6 568.4,385.3 491.4,430 					"/>
				</defs>
				<clipPath id="SVGID_4_">
					<use xlink:href="#SVGID_3_"  style="overflow:visible;"/>
				</clipPath>
				<path class="st9" d="M552,451.5c-1.8,0-70.7-23.7-85-50.5s141.8-22.8,141.8-22.8l-17.9,51.9L552,451.5z"/>
			</g>
		</g>
		<g>
			<g id="XMLID_287_">
				<polygon id="XMLID_288_" class="st10" points="460.2,354.7 460.1,399.7 441.6,389 441.7,362 				"/>
			</g>
			<g id="XMLID_285_">
				<polygon id="XMLID_286_" class="st11" points="460.2,354.7 511.8,324.7 511.7,369.8 460.1,399.7 				"/>
			</g>
			<g id="XMLID_283_">
				<polygon id="XMLID_284_" class="st12" points="441.7,362 493.3,332 511.8,324.7 460.2,354.7 				"/>
			</g>
			<g id="XMLID_280_">
				<polygon id="XMLID_281_" class="st13" points="460.9,352.6 460.9,354.4 441.7,362 438.3,363.3 437.1,361.9 				"/>
			</g>
			<g id="XMLID_277_">
				<polygon id="XMLID_278_" class="st14" points="460.9,352.6 512.5,322.6 512.5,324.4 460.9,354.4 				"/>
			</g>
			<g id="XMLID_275_">
				<polygon id="XMLID_276_" class="st15" points="437.1,361.9 488.7,331.9 512.5,322.6 460.9,352.6 				"/>
			</g>
			<g id="XMLID_273_">
				<polygon id="XMLID_274_" class="st10" points="475.7,357.2 494.2,385.9 494.1,401.4 475.6,390.7 				"/>
			</g>
			<g id="XMLID_271_">
				<polygon id="XMLID_272_" class="st16" points="475.7,357.2 511.8,336.2 530.3,364.9 494.2,385.9 				"/>
			</g>
			<g id="XMLID_269_">
				<polygon id="XMLID_270_" class="st11" points="494.2,385.9 530.3,364.9 530.2,380.4 494.1,401.4 				"/>
			</g>
			<g id="XMLID_264_">
				<polygon id="XMLID_267_" class="st14" points="475.7,355.4 498.7,391.1 497.5,391.2 494.2,385.9 475.7,357.2 				"/>
			</g>
			<g id="XMLID_262_">
				<polygon id="XMLID_263_" class="st15" points="475.7,355.4 511.8,334.4 534.8,370.1 498.7,391.1 				"/>
			</g>
			<g id="XMLID_259_">
				<polygon id="XMLID_260_" class="st13" points="460.2,381.6 437,368.1 437,366.9 460.2,380.4 				"/>
			</g>
			<g id="XMLID_254_">
				<g>
					<polygon id="XMLID_68_" class="st14" points="460.2,380.4 480.4,368.6 480.4,369.8 460.2,381.6 					"/>
				</g>
			</g>
			<polygon id="XMLID_253_" class="st15" points="480.4,368.6 475.7,365.9 460.2,374.9 441.7,364.2 437,366.9 458.2,379.2 
				458.2,379.2 460.2,380.4 			"/>
			<g id="XMLID_246_">
				<g id="XMLID_247_" class="st17">
					<g id="XMLID_250_">
						<polygon id="XMLID_251_" class="st10" points="455.6,399.3 455.6,400.2 449.3,396.5 449.3,395.6 						"/>
					</g>
					<g id="XMLID_248_">
						<polygon id="XMLID_249_" class="st11" points="449.3,395.6 451.9,394.1 458.2,397.8 455.6,399.3 						"/>
					</g>
				</g>
			</g>
			<g id="XMLID_237_">
				<g id="XMLID_238_" class="st17">
					<g id="XMLID_243_">
						<polygon id="XMLID_244_" class="st10" points="456.7,397.8 456.7,398.7 450.4,395 450.4,394.1 						"/>
					</g>
					<polygon id="XMLID_241_" class="st10" points="458.2,396.9 456.7,397.8 456.7,398.7 455.6,399.3 455.6,400.2 458.2,398.7 
						458.2,397.8 458.2,397.8 					"/>
					<g id="XMLID_239_">
						<polygon id="XMLID_240_" class="st11" points="450.4,394.1 451.9,393.2 458.2,396.9 456.7,397.8 						"/>
					</g>
				</g>
			</g>
			<g id="XMLID_227_">
				<g id="XMLID_228_" class="st17">
					<g id="XMLID_235_">
						<polygon id="XMLID_236_" class="st15" points="452.3,385 452.9,384.7 452.8,393.7 452.3,394 						"/>
					</g>
					<g id="XMLID_233_">
						<g>
							<polygon id="XMLID_61_" class="st13" points="457.4,387.2 457.4,397 456.8,396.6 456.8,387.6 452.3,385 452.3,394 
								451.7,393.6 451.7,383.8 							"/>
						</g>
					</g>
					<g id="XMLID_231_">
						<polygon id="XMLID_232_" class="st14" points="457.4,387.2 457.9,386.9 457.9,396.7 457.4,397 						"/>
					</g>
					<g id="XMLID_229_">
						<polygon id="XMLID_230_" class="st14" points="451.7,383.8 452.2,383.5 457.9,386.9 457.4,387.2 						"/>
					</g>
				</g>
			</g>
			<path id="XMLID_226_" class="st10" d="M517.5,355c0.8-0.1,1.5-1,1.5-1.6l0.1-11.9c0,0.1,0,0.2-0.1,0.3l0,0c0,0.1-0.1,0.2-0.1,0.3
				l0,0c-0.1,0.1-0.1,0.2-0.2,0.3c-0.1,0.1-0.1,0.1-0.2,0.2c-0.1,0-0.1,0.1-0.2,0.1c-0.2,0.1-0.4,0.2-0.6,0.3c-0.1,0-0.1,0-0.2,0.1
				c-0.1,0-0.2,0.1-0.3,0.1s-0.2,0-0.4,0.1h-0.1c-0.2,0-0.3,0-0.5,0h-0.1c-0.2,0-0.3,0-0.5,0c0,0,0,0-0.1,0c-0.2,0-0.3,0-0.5-0.1
				h-0.1c-0.1,0-0.3-0.1-0.4-0.1c0,0,0,0-0.1,0c-0.2-0.1-0.3-0.1-0.4-0.2c-0.6-0.3-0.9-0.8-0.9-1.2v10.7
				C513.9,355.3,517.5,355,517.5,355z"/>
			<path id="XMLID_224_" class="st18" d="M519,341.4v-0.9c0-0.4-0.3-0.9-0.9-1.2c-0.1-0.1-0.3-0.1-0.4-0.2l0,0c0,0,0,0-0.1,0
				s-0.2-0.1-0.3-0.1h-0.1h-0.1c0,0,0,0-0.1,0s-0.2,0-0.3-0.1h-0.1c0,0,0,0-0.1,0h-0.1c-0.1,0-0.2,0-0.3,0H516h-0.1h-0.1
				c-0.1,0-0.2,0-0.3,0l0,0h-0.1c-0.1,0-0.2,0-0.2,0h-0.1c-0.1,0-0.2,0-0.3,0.1c-0.1,0-0.1,0-0.2,0c0,0,0,0-0.1,0
				c-0.2,0.1-0.4,0.2-0.6,0.3l0,0c-0.1,0-0.1,0.1-0.1,0.1c-0.1,0-0.1,0.1-0.2,0.2l0,0c-0.1,0.1-0.1,0.1-0.2,0.2l0,0l0,0
				c0,0,0,0.1-0.1,0.1c0,0.1-0.1,0.1-0.1,0.2l0,0l0,0v0.1c0,0.1,0,0.1,0,0.2l0,0v3c0-0.1,0-0.2,0.1-0.3l0,0c0-0.1,0.1-0.2,0.1-0.3
				l0,0c0.1-0.1,0.1-0.2,0.2-0.3l0.1-0.1c0.1,0.1,0.2,0.1,0.3,0.2c1.1,0.7,3,0.7,4.2,0c0.1-0.1,0.2-0.1,0.3-0.2
				c0.4,0.3,0.6,0.6,0.6,1v-1.9C519,341.6,519,341.5,519,341.4z"/>
			<g id="XMLID_220_">
				<path id="XMLID_221_" class="st13" d="M518.6,339.1c1.4,0.8,1.4,2.1,0,2.9c-1.4,0.8-3.6,0.8-5,0s-1.4-2.1,0-2.9
					C514.9,338.3,517.2,338.3,518.6,339.1z M514,341.8c1.1,0.7,3,0.7,4.2,0c1.1-0.7,1.1-1.7,0-2.4c-1.2-0.7-3-0.7-4.2,0
					C512.8,340,512.9,341.1,514,341.8"/>
			</g>
			<path id="XMLID_219_" class="st19" d="M519.6,340.9C519.6,340.9,519.6,341,519.6,340.9c0,0.1-0.1,0.3-0.2,0.4c0,0,0,0,0,0.1
				c-0.1,0.1-0.2,0.2-0.3,0.3s-0.2,0.1-0.3,0.2c-0.1,0.1-0.1,0.1-0.2,0.2c-0.2,0.1-0.5,0.2-0.7,0.3c-0.1,0-0.2,0.1-0.3,0.1
				s-0.2,0.1-0.4,0.1c-0.1,0-0.3,0.1-0.4,0.1h-0.1c-0.2,0-0.4,0-0.6,0H516c-0.2,0-0.4,0-0.6,0h-0.1c-0.2,0-0.4-0.1-0.6-0.1h-0.1
				c-0.2,0-0.3-0.1-0.5-0.2H514c-0.2-0.1-0.4-0.2-0.5-0.3c-0.7-0.4-1.1-0.9-1.1-1.5v3c0,0.5,0.4,1.1,1.1,1.5
				c0.2,0.1,0.3,0.2,0.5,0.2l0,0h0.1c0.1,0,0.2,0.1,0.3,0.1s0.1,0,0.2,0h0.1h0.1c0.1,0,0.2,0,0.4,0.1h0.1h0.1h0.1c0.1,0,0.2,0,0.4,0
				h0.1h0.1c0.1,0,0.1,0,0.2,0c0.1,0,0.3,0,0.4,0c0,0,0,0,0.1,0h0.1c0.1,0,0.2,0,0.3,0h0.1c0.1,0,0.2-0.1,0.4-0.1c0.1,0,0.1,0,0.2,0
				h0.1c0.2-0.1,0.5-0.2,0.7-0.3l0,0c0.1,0,0.1-0.1,0.2-0.1c0.1-0.1,0.2-0.1,0.3-0.2l0,0c0.1-0.1,0.2-0.2,0.2-0.2s0,0,0-0.1
				c0,0,0,0,0-0.1c0,0,0-0.1,0.1-0.1c0-0.1,0.1-0.1,0.1-0.2l0,0l0,0V344c0-0.1,0-0.1,0-0.2l0,0v-3
				C519.6,340.7,519.6,340.8,519.6,340.9z"/>
			<g id="XMLID_196_">
				<polygon id="XMLID_218_" class="st20" points="444.1,378.7 444.1,383.5 449,385.8 449,381 				"/>
				<g id="XMLID_197_">
					<g id="XMLID_198_" class="st17">
						<g id="XMLID_214_">
							<polygon id="XMLID_215_" class="st15" points="443.7,379 444.6,378.5 444.6,383.3 443.7,383.8 							"/>
						</g>
						<g id="XMLID_210_">
							<polygon id="XMLID_212_" class="st14" points="443.7,383.8 444.6,383.3 449,385.8 448.1,386.3 							"/>
						</g>
						<g id="XMLID_205_">
							<g>
								<path id="XMLID_82_" class="st13" d="M443.4,378.3l5.1,2.9v5.8l-5.1-2.9V378.3z M448.1,386.3v-4.8l-4.4-2.5v4.8L448.1,386.3
									"/>
							</g>
						</g>
						<g id="XMLID_203_">
							<polygon id="XMLID_204_" class="st15" points="443.4,378.3 444.2,377.8 449.3,380.7 448.5,381.2 							"/>
						</g>
						<g id="XMLID_199_">
							<g>
								<polygon id="XMLID_55_" class="st14" points="448.5,381.2 449.3,380.7 449.3,386.5 448.5,387 								"/>
							</g>
						</g>
					</g>
				</g>
			</g>
			<g id="XMLID_178_">
				<polygon id="XMLID_195_" class="st20" points="450.7,362 450.7,366.8 455.5,369.1 455.5,364.2 				"/>
				
					<image style="overflow:visible;opacity:0.8;enable-background:new    ;" width="270" height="270" id="XMLID_193_" xlink:href="../../../../design/assets/avatars/3E7AA007.png"  transform="matrix(1.756821e-002 0 0 1.756821e-002 452.1576 364.2685)">
				</image>
				<g id="XMLID_179_">
					<g id="XMLID_180_" class="st17">
						<g id="XMLID_191_">
							<polygon id="XMLID_192_" class="st14" points="450.2,362.2 451.1,361.7 451.1,366.6 450.2,367.1 							"/>
						</g>
						<g id="XMLID_189_">
							<polygon id="XMLID_190_" class="st15" points="450.2,367.1 451.1,366.6 455.5,369.1 454.6,369.6 							"/>
						</g>
						<g id="XMLID_185_">
							<g>
								<path id="XMLID_77_" class="st13" d="M449.9,361.6l5.1,2.9v5.8l-5.1-2.9V361.6z M454.6,369.6v-4.8l-4.4-2.5v4.8L454.6,369.6
									"/>
							</g>
						</g>
						<g id="XMLID_183_">
							<polygon id="XMLID_184_" class="st15" points="449.9,361.6 450.7,361.1 455.8,364 455,364.5 							"/>
						</g>
						<g id="XMLID_181_">
							<polygon id="XMLID_182_" class="st14" points="455,364.5 455.8,364 455.8,369.8 455,370.3 							"/>
						</g>
					</g>
				</g>
			</g>
			<g id="XMLID_136_">
				<polygon id="XMLID_176_" class="st18" points="479.6,376.3 479.5,379.5 481.9,380.8 481.9,377.6 				"/>
				<polygon id="XMLID_174_" class="st18" points="487.1,380.9 487.1,384.1 489.5,385.4 489.5,382.2 				"/>
				<g id="XMLID_158_">
					<g id="XMLID_159_" class="st17">
						<g id="XMLID_170_">
							<g>
								<polygon id="XMLID_48_" class="st14" points="478.8,379.9 479.8,379.3 482.2,380.6 481.1,381.2 								"/>
							</g>
						</g>
						<g id="XMLID_168_">
							<polygon id="XMLID_169_" class="st15" points="478.8,376.7 479.8,376.1 479.8,379.3 478.8,379.9 							"/>
						</g>
						<g id="XMLID_164_">
							<path id="XMLID_165_" class="st13" d="M478.6,376.3l2.8,1.6v3.8l-2.8-1.6V376.3z M481.1,381.2V378l-2.3-1.3v3.2L481.1,381.2"
								/>
						</g>
						<g id="XMLID_162_">
							<polygon id="XMLID_163_" class="st15" points="478.6,376.3 479.6,375.7 482.4,377.3 481.4,377.9 							"/>
						</g>
						<g id="XMLID_160_">
							<g>
								<polygon id="XMLID_46_" class="st14" points="481.4,377.9 482.4,377.3 482.4,381.1 481.4,381.7 								"/>
							</g>
						</g>
					</g>
				</g>
				<g id="XMLID_137_">
					<g id="XMLID_138_" class="st17">
						<g id="XMLID_154_">
							<g>
								<polygon id="XMLID_44_" class="st14" points="486.6,384.4 487.6,383.8 489.9,385.1 488.9,385.7 								"/>
							</g>
						</g>
						<g id="XMLID_152_">
							<polygon id="XMLID_153_" class="st15" points="486.6,381.2 487.6,380.6 487.6,383.8 486.6,384.4 							"/>
						</g>
						<g id="XMLID_147_">
							<path id="XMLID_148_" class="st13" d="M486.3,380.8l2.8,1.6v3.8l-2.8-1.6V380.8z M488.9,385.7v-3.2l-2.3-1.3v3.2L488.9,385.7
								"/>
						</g>
						<g id="XMLID_143_">
							<polygon id="XMLID_144_" class="st15" points="486.3,380.8 487.4,380.2 490.2,381.8 489.1,382.4 							"/>
						</g>
						<g id="XMLID_139_">
							<g>
								<polygon id="XMLID_43_" class="st14" points="489.1,382.4 490.2,381.8 490.2,385.6 489.1,386.2 								"/>
							</g>
						</g>
					</g>
				</g>
			</g>
			<polygon id="XMLID_134_" class="st18" points="452.8,385.3 452.8,393.7 456.8,396 456.8,387.6 			"/>
			<polygon id="XMLID_133_" class="st15" points="477.3,391.8 477.3,382.8 491.9,391.2 491.9,400.2 			"/>
			<g id="XMLID_106_">
				<g id="XMLID_131_">
					<polygon id="XMLID_132_" class="st11" points="492,399.9 492,400.1 477.1,391.5 477.1,391.3 					"/>
				</g>
				<g id="XMLID_129_">
					<polygon id="XMLID_130_" class="st11" points="492,399.2 492,399.4 477.1,390.8 477.1,390.6 					"/>
				</g>
				<g id="XMLID_127_">
					<polygon id="XMLID_128_" class="st11" points="492,398.5 492,398.7 477.1,390.1 477.1,389.9 					"/>
				</g>
				<g id="XMLID_125_">
					<polygon id="XMLID_126_" class="st11" points="492,397.8 492,398 477.1,389.4 477.1,389.2 					"/>
				</g>
				<g id="XMLID_123_">
					<polygon id="XMLID_124_" class="st11" points="492,397.1 492,397.3 477.1,388.7 477.1,388.5 					"/>
				</g>
				<g id="XMLID_121_">
					<polygon id="XMLID_122_" class="st11" points="492,396.4 492,396.6 477.1,388 477.1,387.7 					"/>
				</g>
				<g id="XMLID_119_">
					<polygon id="XMLID_120_" class="st11" points="492,395.7 492,395.9 477.1,387.3 477.1,387 					"/>
				</g>
				<g id="XMLID_117_">
					<polygon id="XMLID_118_" class="st11" points="492,394.9 492,395.2 477.1,386.5 477.1,386.3 					"/>
				</g>
				<g id="XMLID_115_">
					<polygon id="XMLID_116_" class="st11" points="492,394.2 492,394.4 477.1,385.8 477.1,385.6 					"/>
				</g>
				<g id="XMLID_113_">
					<polygon id="XMLID_114_" class="st11" points="492,393.5 492,393.7 477.1,385.1 477.1,384.9 					"/>
				</g>
				<g id="XMLID_111_">
					<polygon id="XMLID_112_" class="st11" points="492,392.8 492,393 477.1,384.4 477.1,384.2 					"/>
				</g>
				<g id="XMLID_109_">
					<polygon id="XMLID_110_" class="st11" points="492,392.1 492,392.3 477.1,383.7 477.1,383.5 					"/>
				</g>
				<g id="XMLID_107_">
					<polygon id="XMLID_108_" class="st11" points="492,391.4 492,391.6 477.1,383 477.1,382.8 					"/>
				</g>
			</g>
			<g id="XMLID_12_">
				<g id="XMLID_29_" class="st17">
					<g id="XMLID_103_">
						<polygon id="XMLID_104_" class="st14" points="476.8,382.5 477.3,382.2 477.3,391.8 476.8,392.1 						"/>
					</g>
					<g id="XMLID_93_">
						<polygon id="XMLID_96_" class="st13" points="492.6,390.8 492.6,401.2 491.9,400.8 491.9,391.2 476.8,382.5 476.8,392.1 
							476.1,391.7 476.1,381.2 						"/>
					</g>
					<g id="XMLID_69_">
						<polygon id="XMLID_75_" class="st14" points="492.6,390.8 493.1,390.5 493.1,400.9 492.6,401.2 						"/>
					</g>
					<g id="XMLID_30_">
						<polygon id="XMLID_34_" class="st15" points="476.1,381.2 476.7,380.9 493.1,390.5 492.6,390.8 						"/>
					</g>
				</g>
			</g>
		</g>
	</g>
</g>
<g>
	<circle class="st21" cx="410.6" cy="285.6" r="13.6"/>
	<g>
		<g>
			<defs>
				<circle id="SVGID_5_" cx="410.6" cy="285.6" r="10.9"/>
			</defs>
			<clipPath id="SVGID_6_">
				<use xlink:href="#SVGID_5_"  style="overflow:visible;"/>
			</clipPath>
			<g transform="matrix(1 0 0 1 6.103516e-005 0)" class="st22">
				
					<image style="overflow:visible;enable-background:new    ;" width="270" height="270" xlink:href="../../../../design/assets/avatars/dounia.jpg"  transform="matrix(8.052653e-002 0 0 8.052653e-002 399.7774 274.7303)">
				</image>
			</g>
		</g>
	</g>
</g>
</svg>
