<?xml version="1.0" encoding="utf-8"?>
<!-- Generator: Adobe Illustrator 19.0.0, SVG Export Plug-In . SVG Version: 6.00 Build 0)  -->
<svg version="1.1" id="Section1" xmlns="http://www.w3.org/2000/svg" xmlns:xlink="http://www.w3.org/1999/xlink" x="0px" y="0px"
	 viewBox="2 120.9 600 600" style="enable-background:new 2 120.9 600 600;" xml:space="preserve">
<style type="text/css">
	.st0{fill:#FFFFFF;}
	.st1{fill:#FF8017;}
	.st2{opacity:0.5;clip-path:url(#SVGID_2_);fill:#CCCCCC;}
	.st3{clip-path:url(#SVGID_2_);fill:#FFFFFF;}
	.st4{clip-path:url(#SVGID_2_);fill:#1DDBA5;}
	.st5{clip-path:url(#SVGID_2_);fill:#40405B;}
	.st6{clip-path:url(#SVGID_2_);fill:#6F7592;}
	.st7{clip-path:url(#SVGID_2_);fill:#38332D;}
	.st8{clip-path:url(#SVGID_2_);fill:#FF5555;}
	.st9{fill:#6F7592;}
	.st10{fill:#FF5555;}
	.st11{opacity:0.5;clip-path:url(#SVGID_4_);fill:#CCCCCC;}
	.st12{clip-path:url(#SVGID_4_);fill:#FFFFFF;}
	.st13{clip-path:url(#SVGID_4_);}
	.st14{fill:#1DDBA5;}
	.st15{opacity:0.2;fill:#E84376;}
	.st16{fill:#FFC931;}
	.st17{fill:none;stroke:#6F7592;stroke-width:3;stroke-miterlimit:10;}
</style>
<g>
	<g>
		<polygon class="st0" points="92.4,414.2 88.1,412.8 85.5,408.2 84.6,403.8 84.6,400.6 85.3,398.2 87.8,397.1 91.4,386.9 97,376.4 
			135.3,375.7 138.6,386.9 138.6,396.2 139.8,397.6 142.1,397.4 144,399.7 144.3,405.9 141.8,411.8 138.6,413.7 135.7,414.4 
			125.9,439.2 126.4,445.6 128,450 131.3,455.1 127.7,456.2 120.4,457.3 113.1,457.7 106.2,457.2 96.5,455.8 100.8,449.8 
			101.9,445.1 101.9,436.8 94.4,420 		"/>
		<path class="st1" d="M138.6,396.7l-3.8-5.2c0.5,7.3,0.5,15.3-1.3,22.5c-0.6,2.1-1.9,6.1-4.2,5.9c-2.4-0.2-9-3.2-14.5-3.4
			c-5.3-0.1-10.2,2.2-15.4,2.8c-3.6,0.4-4.2-1.5-4.7-4.7c-1-6.4-1.6-12.2-1.6-18.7c0-0.9-0.6-3.5,0.1-4.3l-3.8,5.2
			c0.5,17.6,4.7,28,4.7,28c0.5,2.1,1.5,4.8,1.7,5.3c1.9,4.6,5.5,9.4,10.1,11.4c11,4.9,21.6,3.1,28-11.5
			C138.5,419.4,138.3,407.7,138.6,396.7z M123.8,426.6c-2.2,2.5-5.5,3.5-8.8,3.4c-0.9,0-1.7-0.2-2.5-0.4c-1.8-0.4-3.6-1.1-5.1-2.1
			c-0.7-0.5-4.1-3.7-3.3-4.8c0,0,1.4-1.9,10.7-1.7c9.3,0.2,10.7,2.2,10.7,2.2C126,423.8,124.2,426.2,123.8,426.6z"/>
		<g>
			<defs>
				<circle id="SVGID_1_" cx="113.6" cy="437.5" r="44.8"/>
			</defs>
			<clipPath id="SVGID_2_">
				<use xlink:href="#SVGID_1_"  style="overflow:visible;"/>
			</clipPath>
			<circle class="st2" cx="113.6" cy="437.5" r="44.8"/>
			<polygon class="st3" points="92.5,414.2 88.2,412.8 85.6,408.2 84.7,403.8 84.7,400.6 85.5,398.2 87.9,397.1 91.6,386.9 
				97.1,376.4 135.4,375.7 138.7,386.9 138.7,396.2 139.9,397.6 142.2,397.4 144.1,399.7 144.4,405.9 142,411.8 138.7,413.7 
				135.9,414.4 126,439.2 126.6,445.6 128.1,450 131.4,455.1 127.8,456.2 120.6,457.3 113.2,457.7 106.3,457.2 96.6,455.8 
				100.9,449.8 102.1,445.1 102.1,436.8 94.5,420 			"/>
			<path class="st4" d="M57.4,482.9c0,0,5.6-11.9,16.2-15.9l9-3.4c0,0,12.4-4.7,14.7-7.1c0,0,23,3.3,33.5-1.5c0,0,9.5,6.5,12.5,7.5
				c0,0,14.6,3.7,19.4,9.1c0,0,8.2,5.4,7.9,11.4H57.4z"/>
			<path class="st5" d="M91.2,403c1.6-5.3,1.5-19,8.4-20.7c2.9-0.7,12.7,7.3,26.3,0c5.4-2.9,10.9,15.8,11.9,18.5l0.4-2.4l2.5-1.9
				c0,0,10.5-38.2-27.4-37.4c-37.9,0.7-27,37.7-27,37.7S90.7,396.1,91.2,403z"/>
			<path class="st6" d="M60.6,478.3c3.1-5.5,8.9-9.7,14.8-12.3c2.4,5.5,2.7,11.4,2.2,17.3h1.5c0.5-6.1,0.2-12.1-2.3-17.8
				c5.7-2.2,11.8-3.4,16.9-6.8c0.1-0.1,0.2-0.1,0.3-0.2c1-0.6,1.9-1.3,2.7-2c0.1,0.1,0.2,0.2,0.4,0.3c11.4,2,23,2.8,34.2-0.5
				c0,0,0,0,0,0c0.4,0.4,0.9,0.8,1.4,1.2c5.4,4.3,13,5.7,19.3,8.3c0.3,0.1,0.5,0.2,0.8,0.3c-4,4.4-4.9,11.1-4.8,17.3h1.5
				c-0.1-6.1,0.8-12.5,4.8-16.6c5.4,2.6,10.5,6.6,13.4,11.6c0.9,1.6,1.6,3.4,2.3,5h1.4c-1.4-3.9-3.5-7.9-6.4-11.1
				c-4.2-4.8-10.9-7.4-16.9-9.4c-9.9-3.2-20.1-7-21.1-19c-0.3-2.9-0.1-5.9-0.1-8.9c4.7-3.3,7.6-9.1,9.1-14.9
				c1.9-7.2,2.5-15,1.9-22.5c-0.5,0.2-0.9,0.4-1.4,0.5c0.5,6.9-0.1,14-1.7,20.7c-1.9,8-6.4,16.9-15.7,17.4c-0.2,0-0.2,1.5,0,1.5
				c2.4-0.1,4.6-0.8,6.5-1.8c0,2.3-0.1,4.5,0.1,6.8c0.3,4.4,1.8,8.8,4.7,12.2c-10.6,2.9-21.5,2.3-32.3,0.4c3.4-3.6,4.4-7.9,4.7-12.6
				c0.2-2.6,0-5.2,0.1-7.8c1.6,1,3.5,1.8,5.5,2.2c0.9,0.2,1.2-1.3,0.2-1.5c-7.5-1.4-11.7-8.1-14-14.8c-2.4-6.9-3.1-14.3-3.1-21.5
				c0-0.9-1.5-0.8-1.5,0.2c0,7.6,0.9,15.4,3.4,22.6c1.6,4.6,4.2,9,8,12c-0.1,3.3,0.1,6.7-0.2,10c-0.3,3.9-1.8,7.5-4.4,10.5
				c-4.2,5-10.8,6.6-16.8,8.5c-6,1.9-12.7,4.6-16.9,9.4c-2.8,3.2-5,7.2-6.4,11.1h1.4C59,481.8,59.7,479.9,60.6,478.3z"/>
			<path class="st7" d="M138,397.8c-0.7,0.5,0,1.7,0.7,1.2c4.3-3.3,5.1,1.4,5,4.9c-0.1,4.1-1.9,9-6.6,9.5c-0.9,0.1-0.9,1.5,0,1.4
				c6.1-0.6,8-6.8,7.9-12.2C145.1,397.9,142.5,394.4,138,397.8z"/>
			<path class="st7" d="M91.1,397.8c0.7,0.5,0,1.7-0.7,1.2c-4.3-3.3-5.1,1.4-5,4.9c0.1,4.1,1.9,9,6.6,9.5c0.9,0.1,0.9,1.5,0,1.4
				c-6.1-0.6-8-6.8-7.9-12.2C84,397.9,86.6,394.4,91.1,397.8z"/>
			<path class="st8" d="M138.7,396.9l-3.8-5.2c0.5,7.3,0.5,15.3-1.3,22.5c-0.6,2.1-1.9,6.1-4.2,5.9c-2.4-0.2-9-3.2-14.5-3.4
				c-5.3-0.1-10.2,2.2-15.4,2.8c-3.6,0.4-4.2-1.5-4.7-4.7c-1-6.4-1.6-12.2-1.6-18.7c0-0.9-0.6-3.5,0.1-4.3l-3.8,5.2
				c0.5,17.6,4.7,28,4.7,28c0.5,2.1,1.5,4.8,1.7,5.3c1.9,4.6,5.5,9.4,10.1,11.4c11,4.9,21.6,3.1,28-11.5
				C138.6,419.6,138.4,407.9,138.7,396.9z M123.9,426.8c-2.2,2.5-5.5,3.5-8.8,3.4c-0.9,0-1.7-0.2-2.5-0.4c-1.8-0.4-3.6-1.1-5.1-2.1
				c-0.7-0.5-4.1-3.7-3.3-4.8c0,0,1.4-1.9,10.7-1.7c9.3,0.2,10.7,2.2,10.7,2.2C126.1,424,124.3,426.5,123.9,426.8z"/>
		</g>
		<path class="st9" d="M138,397.8c-0.7,0.5,0,1.7,0.7,1.2c4.3-3.3,5.1,1.4,5,4.9c-0.1,4.1-1.9,9-6.6,9.5c-0.9,0.1-0.9,1.5,0,1.4
			c6.1-0.6,8-6.8,7.9-12.2C145.1,397.9,142.5,394.4,138,397.8z"/>
		<path class="st9" d="M91.1,397.8c0.7,0.5,0,1.7-0.7,1.2c-4.3-3.3-5.1,1.4-5,4.9c0.1,4.1,1.9,9,6.6,9.5c0.9,0.1,0.9,1.5,0,1.4
			c-6.1-0.6-8-6.8-7.9-12.2C84,397.9,86.6,394.4,91.1,397.8z"/>
		<path class="st10" d="M91.2,403c1.6-5.3,1.5-19,8.4-20.7c2.9-0.7,12.7,7.3,26.3,0c5.4-2.9,10.9,15.8,11.9,18.5l0.4-2.4l2.5-1.9
			c0,0,10.5-38.2-27.4-37.4c-37.9,0.7-27,37.7-27,37.7S90.7,396.1,91.2,403z"/>
	</g>
	<path class="st9" d="M115.3,427.3c-4.5,0-6.5-1.4-6.9-2.2c-0.4-0.7-0.6-1.3-0.5-2.2c0-0.1,0.1-0.2,0.1-0.3c0.1-0.1,0.2-0.1,0.3-0.1
		c0.1,0,10.6,1,13.4,0.4c0.1,0,0.3,0,0.4,0.1c0.1,0.1,0.1,0.2,0.1,0.4c0,0-0.9,3.7-6.1,3.9C115.7,427.3,115.5,427.3,115.3,427.3z
		 M108.6,423.4c0,0.5,0.2,0.8,0.5,1.4c0.3,0.5,2.1,1.9,6.9,1.8c3.3-0.1,4.7-1.8,5.1-2.7C117.9,424.2,110.5,423.6,108.6,423.4z"/>
	<path class="st9" d="M126.7,406.3c-0.1,0-0.2,0-0.3-0.1c-0.6-0.8-1.3-1.1-2.1-1.2c0,0,0,0,0,0c-1.3,0-2.3,1.1-2.3,1.2
		c-0.1,0.2-0.4,0.2-0.6,0c-0.2-0.1-0.2-0.4,0-0.6c0.1-0.1,1.3-1.4,2.9-1.4c0,0,0,0,0,0c1,0,1.9,0.5,2.7,1.4c0.1,0.2,0.1,0.4,0,0.6
		C126.9,406.3,126.8,406.3,126.7,406.3z"/>
	<path class="st9" d="M107.1,406.3c-0.1,0-0.2,0-0.3-0.1c-0.6-0.8-1.3-1.2-2.1-1.2c0,0,0,0,0,0c-1.3,0-2.3,1.1-2.3,1.2
		c-0.1,0.2-0.4,0.2-0.6,0c-0.2-0.1-0.2-0.4,0-0.6c0.1-0.1,1.3-1.4,2.9-1.4c1,0,1.9,0.5,2.7,1.4c0.1,0.2,0.1,0.4,0,0.6
		C107.3,406.3,107.2,406.3,107.1,406.3z"/>
	<g>
		<polygon class="st0" points="473,383.3 496.1,383.3 496.1,397.3 471,397.3 471,383.3 		"/>
		<g>
			<defs>
				<circle id="SVGID_3_" cx="484.1" cy="438" r="44.8"/>
			</defs>
			<clipPath id="SVGID_4_">
				<use xlink:href="#SVGID_3_"  style="overflow:visible;"/>
			</clipPath>
			<circle class="st11" cx="484.1" cy="438" r="44.8"/>
			<polygon class="st12" points="430.7,485.5 433,478.2 434.5,474.8 441,467.4 447,463.9 457.1,460.2 466.9,456.2 471.5,449 
				472.5,444.8 472.8,439 472.8,433.4 468.9,429.4 466.7,425.5 464.9,421.1 464.4,418.9 459.5,417.4 456.9,414.4 456.1,410.5 
				457,407.8 459.3,406.1 462,405.5 462.8,390.4 479.1,380.3 503.9,381.5 509.9,400.8 506.6,404.7 507.3,406 510.3,406.6 
				512.2,408.7 512.9,412 511.3,415.8 509.4,417.6 507.4,418.5 504.9,419.2 500.9,429.6 497,434 495.5,435 495.8,442.2 496.7,447.9 
				498.9,452.5 502.6,456.2 510.5,460.1 521.6,463.8 528.2,467.9 530.6,470.1 534.1,475.2 537.4,482.2 537.4,483.4 			"/>
			<g class="st13">
				<path class="st14" d="M519.9,414.9c-4-8.9-2.7-20.7-3.6-30.2c-0.6-6.2-3.2-12.3-6.8-17.4c-2.7-3.7-8.4-7.3-13.1-7.7
					c-3.9-0.4-8.3,0.9-11.3,3.5c-2.7,2.4-6.3,4.8-6,8.8c0,0,1.5,4.7,3.7,11.4c7.6-3.1,18.7,3.1,21.2,10.4c1.5,4.4,2.2,8.9,2.1,13.4
					c1.1-0.5,2.3-0.7,3.3-0.1c0.3,0.1,0.6,0.2,0.9,0.4c0.5,0.3,0.8,0.7,1.1,1.2c0.1,0.1,0.1,0.1,0.2,0.1c1.9,1.5,1.3,3.5,0.1,5.1
					c-0.9,2.6-3.1,4.3-5.7,4.2c-0.4,0.1-0.9,0.2-1.3,0.3c-0.1,0-0.3,0-0.4,0c-0.6,2.2-1.4,4.3-2.4,6.3c0,0,0,0.1,0,0.1
					c-0.8,2.5-1.7,4.8-3.4,6.6c1.8,1.5,9.1,2.3,10.8,2.4c4.8,0.2,9.8-1,13.8-3.7c4.7-3.3,6.4-5.5,8.7-12.2
					C530.2,422.8,521.8,419,519.9,414.9z"/>
				<g>
					<path class="st10" d="M520.8,482.8c-1.6-8-4.7-20.9-8.4-21.7c-5.5-1.3-8.2-4.6-8.2-4.6c-19.6,31.1-38.6,1.2-38.6,1.2
						s-7.9,0.8-9.6,2.6c-3.3,3.6-4.4,15.1-4.9,22.4H520.8z"/>
					<g>
						<g>
							<path class="st9" d="M479.3,435.9c-7.1-1.4-11.4-8.1-13.6-14.4c-2.2-6.5-3-13.6-3-20.4c0-0.9-1.4-0.7-1.4,0.2
								c0,1.3,0,2.6,0.1,3.8c-3.4,0.1-6.5,3.4-5.9,7.2c0.7,3.9,4,6.7,7.8,7.2c0.1,0,0.2,0,0.3,0c0.3,1.1,0.6,2.1,1,3.2
								c1.5,4.4,4,8.6,7.6,11.3c-0.1,3.2,0.1,6.3-0.1,9.5c-0.3,3.7-1.7,7.1-4.1,9.9c-4,4.7-10.3,6.3-15.9,8.1
								c-5.6,1.8-10.7,3.9-14.7,8.4c-3.1,3.6-5.4,8.1-6.7,12.1h1.3c0.7-1,1.6-4.1,2.8-6.3c3.1-5.5,7.7-9.3,13.5-11.7
								c3.7-1.5,7.5-2.8,11.4-3.8c11.6-3,13.5-13,13.8-17.9c0.2-2.5,0-4.9,0-7.4c1.6,1,3.7,2.1,5.6,2.5
								C480,437.4,480.2,436.1,479.3,435.9z M457.2,413c-1.2-3.3,1.3-6.5,4.4-6.6c0.2,3.9,0.8,7.8,1.8,11.6
								C460.4,417.7,458.1,415.7,457.2,413z"/>
							<path class="st9" d="M531.3,469.8c-4-4.5-9.1-6.8-14.7-8.6c-5.6-1.8-11.9-3.3-15.9-8c-2.4-2.8-3.8-6.2-4.1-9.9
								c-0.2-2.8-0.1-5.6-0.1-8.4c4.5-3.1,7.2-8.6,8.6-14.1c0.1-0.5,0.2-0.9,0.4-1.4c0.1,0,0.1,0,0.2,0c3.8-0.5,7.1-3.3,7.8-7.2
								c0.7-3.9-2.6-7.3-6-7.2c-0.1,0-0.2,0-0.2,0c0-3.4-0.2-6.7-0.7-10c-0.1-0.9-1.5-0.5-1.3,0.4c1.1,7.9,0.7,16.4-1.1,24.2
								c-1.8,7.6-6.1,16.4-14.9,16.9c-0.9,0.1-0.9,1.4,0,1.4c2.3-0.1,4.3-1.1,6.1-2.1c0,2.1-0.1,4.3,0.1,6.4
								c0.6,10.3,5.5,15.7,15,18.6c3.5,1,6.8,2,10.1,3.3c5.8,2.4,10.4,6,13.5,11.5c1.2,2.1,2.1,5.3,2.8,6.3h1.3
								C536.7,477.9,534.4,473.4,531.3,469.8z M507.1,406.4c0.1,0,0.2,0,0.2,0c3.1,0,5.6,3.2,4.4,6.6c-0.9,2.7-3.2,4.6-6,5
								C506.5,414.3,507,410.3,507.1,406.4z"/>
						</g>
						<path class="st15" d="M500.3,412.5c4.3,2.8-4.4,7.6-7,4.4C490.6,413.7,497.9,410.9,500.3,412.5z"/>
						<path class="st15" d="M469,413.2c-4.5,2.9,4.5,7.9,7.3,4.6C479.2,414.5,471.6,411.6,469,413.2z"/>
						<path class="st16" d="M461.4,401.2c0,0,18.1-0.8,22.8-12.9c0,0,5.5,10.3,22.8,12.1c0,0,9.6-31.1-23-31.1
							C452.8,369.3,461.4,401.2,461.4,401.2z"/>
					</g>
				</g>
			</g>
		</g>
		<path class="st14" d="M461.4,401.2c0,0,18.1-0.8,22.8-12.9c0,0,5.5,10.3,22.8,12.1c0,0,9.6-31.1-23-31.1
			C452.8,369.3,461.4,401.2,461.4,401.2z"/>
		<path class="st14" d="M530.1,420c-9-2.8-11-13.6-10-23.4c1-9.8-2-19-2-19s-4-15.8-17.8-18c-13.8-2.2-17.9,11.8-17.9,11.8l3.7,11.9
			c10.7-2,16.7,2.3,20.1,7.6l-1.4,6.6l5.6,8.4c1.4-0.1,3.2,0.4,5.3,1.4c2.1,1,1.5,4.3,1.5,5.7s-1.7,3.3-4.3,4.9
			c-2.6,1.6-4.3,1.5-4.3,1.5l-6.8,12c26,10.1,33.2-13.3,33.2-13.3C533.9,421.1,530.1,420,530.1,420z"/>
		<path class="st9" d="M484.9,429c-4.5,0-6.5-1.4-6.9-2.2c-0.4-0.7-0.6-1.3-0.5-2.2c0-0.1,0.1-0.2,0.1-0.3c0.1-0.1,0.2-0.1,0.3-0.1
			c0.1,0,10.6,1,13.4,0.4c0.1,0,0.3,0,0.4,0.1c0.1,0.1,0.1,0.2,0.1,0.4c0,0-0.9,3.7-6.1,3.9C485.4,429,485.1,429,484.9,429z
			 M478.2,425c0,0.5,0.2,0.8,0.5,1.4c0.3,0.5,2.1,1.9,6.9,1.8c3.3-0.1,4.7-1.8,5.1-2.7C487.5,425.9,480.1,425.2,478.2,425z"/>
		<path class="st9" d="M496.4,408c-0.1,0-0.2,0-0.3-0.1c-0.6-0.8-1.3-1.1-2.1-1.2c0,0,0,0,0,0c-1.3,0-2.3,1.1-2.3,1.2
			c-0.1,0.2-0.4,0.2-0.6,0c-0.2-0.1-0.2-0.4,0-0.6c0.1-0.1,1.3-1.4,2.9-1.4c0,0,0,0,0,0c1,0,1.9,0.5,2.7,1.4c0.1,0.2,0.1,0.4,0,0.6
			C496.6,408,496.5,408,496.4,408z"/>
		<path class="st9" d="M476.8,408c-0.1,0-0.2,0-0.3-0.1c-0.6-0.8-1.3-1.2-2.1-1.2c0,0,0,0,0,0c-1.3,0-2.3,1.1-2.3,1.2
			c-0.1,0.2-0.4,0.2-0.6,0c-0.2-0.1-0.2-0.4,0-0.6c0.1-0.1,1.3-1.4,2.9-1.4c1,0,1.9,0.5,2.7,1.4c0.1,0.2,0.1,0.4,0,0.6
			C476.9,408,476.8,408,476.8,408z"/>
	</g>
	<line class="st17" x1="172.8" y1="438" x2="249.8" y2="438"/>
	<polyline class="st17" points="177.9,444.4 171.5,438 177.9,431.6 	"/>
	<polyline class="st17" points="245.2,431.6 251.6,438 245.2,444.4 	"/>
	<line class="st17" x1="353.4" y1="438" x2="430.4" y2="438"/>
	<polyline class="st17" points="358.6,444.4 352.2,438 358.6,431.6 	"/>
	<polyline class="st17" points="425.8,431.6 432.3,438 425.8,444.4 	"/>
	<g>
		<rect x="278.8" y="413.1" class="st10" width="21.5" height="21.5"/>
		<rect x="306" y="413.1" class="st10" width="21.5" height="21.5"/>
		<rect x="278.8" y="441.5" class="st10" width="21.5" height="21.5"/>
		<rect x="306" y="441.5" class="st10" width="21.5" height="21.5"/>
	</g>
</g>
</svg>
