<?xml version="1.0" encoding="utf-8"?>
<!-- Generator: Adobe Illustrator 19.0.0, SVG Export Plug-In . SVG Version: 6.00 Build 0)  -->
<svg version="1.1" id="Section1" xmlns="http://www.w3.org/2000/svg" xmlns:xlink="http://www.w3.org/1999/xlink" x="0px" y="0px"
	 viewBox="209 90.9 1014 661" style="enable-background:new 209 90.9 1014 661;" xml:space="preserve">
<style type="text/css">
	.st0{fill:#FFFFFF;stroke:#FF6112;stroke-miterlimit:10;}
	.st1{fill:#F4F4F4;}
	.st2{fill:#FFFFFF;}
	.st3{fill:none;stroke:#D6D7D8;stroke-miterlimit:10;}
	.st4{fill:#FF3131;}
	.st5{fill:#999999;}
	.st6{opacity:0.7;}
	.st7{clip-path:url(#SVGID_4_);fill:#FF5555;}
	.st8{fill:#FF5555;}
	.st9{fill:#FAFAFA;}
	.st10{font-family:'OpenSans-Semibold';}
	.st11{font-size:10.2893px;}
	.st12{fill:none;stroke:#FFFFFF;stroke-width:2;stroke-linecap:round;stroke-linejoin:round;stroke-miterlimit:10;}
	.st13{fill:#332D55;}
	.st14{font-family:'NexaBold';}
	.st15{font-size:11.4425px;}
	.st16{font-size:10.8976px;}
	.st17{fill:none;stroke:#FAFAFA;stroke-miterlimit:10;}
	.st18{font-size:17.798px;}
	.st19{fill:#1DDBA5;}
</style>
<g>
	<circle class="st0" cx="274.3" cy="673.4" r="17.1"/>
	<g>
		<defs>
			<circle id="SVGID_1_" cx="274.3" cy="673.4" r="14.1"/>
		</defs>
		<clipPath id="SVGID_2_">
			<use xlink:href="#SVGID_1_"  style="overflow:visible;"/>
		</clipPath>
		<g style="clip-path:url(#SVGID_2_);">
			
				<image style="overflow:visible;" width="270" height="270" xlink:href="../../../../../design/assets/avatars/dounia.jpg"  transform="matrix(0.102 0 0 0.102 260.2426 659.3453)">
			</image>
		</g>
	</g>
</g>
<g>
	
		<image style="overflow:visible;opacity:8.000000e-002;" width="1014" height="661" xlink:href="397D5FE4.png"  transform="matrix(1 0 0 1 215.7649 97.7161)">
	</image>
	<g>
		<rect x="245.4" y="127.2" class="st1" width="941.3" height="588.3"/>
	</g>
</g>
<g>
	
		<image style="overflow:visible;opacity:8.000000e-002;" width="131" height="661" xlink:href="397D5FEC.png"  transform="matrix(1 0 0 1 215.7649 97.7161)">
	</image>
	<g>
		<rect x="245.4" y="127.2" class="st2" width="57.9" height="588.3"/>
	</g>
</g>
<g>
	<g>
		
			<image style="overflow:visible;opacity:8.000000e-002;" width="359" height="405" xlink:href="397D5FEE.png"  transform="matrix(1 0 0 1 415.7649 228.7161)">
		</image>
		<g>
			<path class="st2" d="M723.9,590.1H452c-3.6,0-6.5-2.9-6.5-6.5V265c0-3.6,2.9-6.5,6.5-6.5h271.9c3.6,0,6.5,2.9,6.5,6.5v318.6
				C730.4,587.2,727.5,590.1,723.9,590.1z"/>
			<path class="st3" d="M723.9,590.1H452c-3.6,0-6.5-2.9-6.5-6.5V265c0-3.6,2.9-6.5,6.5-6.5h271.9c3.6,0,6.5,2.9,6.5,6.5v318.6
				C730.4,587.2,727.5,590.1,723.9,590.1z"/>
		</g>
	</g>
	<g>
		
			<image style="overflow:visible;opacity:8.000000e-002;" width="357" height="405" xlink:href="397D5FE2.png"  transform="matrix(1 0 0 1 723.7649 228.7161)">
		</image>
		<g>
			<path class="st4" d="M1031.2,590.1H759.4c-3.6,0-6.5-2.9-6.5-6.5V265c0-3.6,2.9-6.5,6.5-6.5h271.9c3.6,0,6.5,2.9,6.5,6.5v318.6
				C1037.8,587.2,1034.8,590.1,1031.2,590.1z"/>
		</g>
	</g>
</g>
<g>
	<g>
		<path class="st4" d="M279.4,214.7h-8.1c-1,0-1.7-0.8-1.7-1.7v-6.4c0-0.2,0.1-0.3,0.2-0.5l5.2-4.1c0.2-0.2,0.5-0.2,0.7,0l5.2,4.1
			c0.1,0.1,0.2,0.3,0.2,0.5v6.4C281.1,213.9,280.3,214.7,279.4,214.7z M270.7,206.9v6.1c0,0.3,0.3,0.6,0.6,0.6h8.1
			c0.3,0,0.6-0.3,0.6-0.6v-6.1l-4.6-3.6L270.7,206.9z"/>
	</g>
	<g>
		<path class="st4" d="M277.1,214.7c-0.3,0-0.6-0.3-0.6-0.6v-5.2h-2.3v5.2c0,0.3-0.3,0.6-0.6,0.6s-0.6-0.3-0.6-0.6v-5.8
			c0-0.3,0.3-0.6,0.6-0.6h3.5c0.3,0,0.6,0.3,0.6,0.6v5.8C277.6,214.4,277.4,214.7,277.1,214.7z"/>
	</g>
</g>
<g>
	<path class="st5" d="M275.2,627c-1.2,0-2.2-1-2.2-2.2c0-1.2,1-2.2,2.2-2.2c1.2,0,2.2,1,2.2,2.2C277.4,626,276.4,627,275.2,627z
		 M275.2,623.8c-0.6,0-1.1,0.5-1.1,1.1c0,0.6,0.5,1.1,1.1,1.1c0.6,0,1.1-0.5,1.1-1.1C276.3,624.2,275.8,623.8,275.2,623.8z"/>
</g>
<g>
	<path class="st5" d="M275.2,631.4c-0.9,0-1.6-0.7-1.6-1.6c0-0.2-0.1-0.3-0.2-0.4c-0.2-0.1-0.3,0-0.4,0.1c-0.3,0.3-0.7,0.5-1.2,0.5
		c0,0,0,0,0,0c-0.4,0-0.8-0.2-1.2-0.5c-0.3-0.3-0.5-0.7-0.5-1.2c0-0.4,0.2-0.8,0.5-1.2c0.1-0.1,0.2-0.3,0.1-0.4
		c-0.1-0.1-0.2-0.2-0.3-0.2h-0.1c-0.9,0-1.6-0.7-1.6-1.6s0.7-1.6,1.6-1.6c0.2,0,0.3-0.1,0.4-0.2c0.1-0.2,0-0.3-0.1-0.4
		c-0.3-0.3-0.5-0.7-0.5-1.2c0-0.4,0.2-0.8,0.5-1.2c0.3-0.3,0.7-0.5,1.2-0.5h0c0.4,0,0.8,0.2,1.2,0.5c0.1,0.1,0.3,0.2,0.4,0.1
		c0,0,0.1,0,0.1,0c0.1-0.1,0.2-0.2,0.2-0.3v-0.1c0-0.9,0.7-1.6,1.6-1.6c0.9,0,1.6,0.7,1.6,1.6c0,0.2,0.1,0.3,0.2,0.4
		c0.1,0.1,0.3,0,0.4-0.1c0.3-0.3,0.7-0.5,1.2-0.5c0,0,0,0,0,0c0.4,0,0.8,0.2,1.2,0.5c0.6,0.6,0.6,1.7,0,2.3v0c0,0,0,0,0,0
		c-0.1,0.1-0.2,0.3-0.1,0.4c0,0,0,0.1,0,0.1c0.1,0.1,0.2,0.2,0.3,0.2h0.1c0.9,0,1.6,0.7,1.6,1.6c0,0.9-0.7,1.6-1.6,1.6
		c-0.2,0-0.3,0.1-0.4,0.2c0,0,0,0,0,0c-0.1,0.1,0,0.3,0.1,0.4c0.7,0.7,0.7,1.7,0,2.3c-0.3,0.3-0.7,0.5-1.2,0.5c0,0,0,0,0,0
		c-0.4,0-0.8-0.2-1.1-0.5c0,0,0,0,0,0c-0.1-0.1-0.3-0.2-0.4-0.1c-0.1,0.1-0.2,0.2-0.2,0.3v0.1C276.9,630.7,276.1,631.4,275.2,631.4z
		 M273.2,628.3c0.2,0,0.4,0,0.6,0.1c0.5,0.2,0.9,0.7,0.9,1.3c0,0,0,0.1,0,0.1c0,0.3,0.2,0.5,0.5,0.5c0.3,0,0.5-0.2,0.5-0.5v-0.1
		c0-0.6,0.3-1.1,0.9-1.3c0.5-0.2,1.2-0.1,1.6,0.3l0,0c0,0,0,0,0,0v0c0.1,0.1,0.2,0.2,0.4,0.2c0,0,0,0,0,0c0.1,0,0.3-0.1,0.4-0.2
		c0.2-0.2,0.2-0.6,0-0.8c-0.5-0.5-0.6-1.1-0.3-1.6c0.2-0.5,0.7-0.9,1.3-0.9c0.4,0,0.6-0.2,0.6-0.5c0-0.3-0.2-0.5-0.5-0.5H280
		c-0.6,0-1.1-0.3-1.3-0.9c0,0,0-0.1,0-0.1c-0.2-0.5-0.1-1.1,0.3-1.5c0,0,0,0,0,0c0,0,0,0,0,0c0.2-0.2,0.2-0.6,0-0.8
		c-0.2-0.2-0.6-0.2-0.8,0c-0.5,0.5-1.1,0.6-1.6,0.3c-0.5-0.2-0.9-0.7-0.9-1.3c0-0.4-0.2-0.6-0.5-0.6c-0.3,0-0.5,0.2-0.5,0.5v0.1
		c0,0.6-0.3,1.1-0.9,1.3c0,0-0.1,0-0.1,0c-0.5,0.2-1.1,0.1-1.5-0.3c-0.3-0.3-0.6-0.2-0.8,0c-0.2,0.2-0.2,0.6,0,0.8
		c0.5,0.5,0.6,1.1,0.3,1.6c-0.2,0.5-0.7,0.9-1.3,0.9c0,0-0.1,0-0.1,0c-0.3,0-0.5,0.2-0.5,0.5s0.2,0.5,0.5,0.5h0.1
		c0.6,0,1.1,0.3,1.3,0.9c0.2,0.5,0.1,1.2-0.3,1.6c0,0,0,0,0,0c-0.2,0.2-0.2,0.6,0,0.8c0.1,0.1,0.2,0.2,0.4,0.2h0
		c0.1,0,0.3-0.1,0.4-0.2C272.4,628.4,272.8,628.3,273.2,628.3z"/>
</g>
<g>
	<path class="st5" d="M270.3,263.2c-0.1,0-0.1,0-0.2,0c-0.2-0.1-0.3-0.3-0.3-0.5v-8.9c0-0.9,0.8-1.7,1.7-1.7h7.8
		c0.9,0,1.7,0.8,1.7,1.7v5.6c0,0.9-0.8,1.7-1.7,1.7h-6.5l-2.1,2.1C270.6,263.2,270.4,263.2,270.3,263.2z M271.4,253.2
		c-0.3,0-0.6,0.3-0.6,0.6v7.6l1.3-1.3c0.1-0.1,0.2-0.2,0.4-0.2h6.7c0.3,0,0.6-0.3,0.6-0.6v-5.6c0-0.3-0.3-0.6-0.6-0.6H271.4z"/>
</g>
<g>
	<path class="st5" d="M279.5,314.1c-0.1,0-0.2,0-0.3-0.1l-3.8-2l-3.8,2c-0.2,0.1-0.5,0.1-0.7-0.1c-0.2-0.1-0.3-0.4-0.3-0.7l0.7-4.2
		l-3.1-3c-0.2-0.2-0.2-0.4-0.2-0.7c0.1-0.2,0.3-0.4,0.5-0.5l4.3-0.6l1.9-3.9c0.2-0.5,1-0.5,1.2,0l1.9,3.9l4.3,0.6
		c0.3,0,0.5,0.2,0.5,0.5c0.1,0.2,0,0.5-0.2,0.7l-3.1,3l0.7,4.2c0,0.3-0.1,0.5-0.3,0.7C279.7,314.1,279.6,314.1,279.5,314.1z
		 M275.3,310.6c0.1,0,0.2,0,0.3,0.1l2.9,1.5L278,309c0-0.2,0-0.4,0.2-0.6l2.4-2.3l-3.3-0.5c-0.2,0-0.4-0.2-0.5-0.4l-1.5-3l-1.5,3
		c-0.1,0.2-0.3,0.3-0.5,0.4l-3.3,0.5l2.4,2.3c0.2,0.2,0.2,0.4,0.2,0.6l-0.6,3.3l2.9-1.5C275.1,310.7,275.2,310.6,275.3,310.6z"/>
</g>
<g>
	<g>
		<path class="st5" d="M278.8,363.9h-7c-1,0-1.7-0.8-1.7-1.7v-9.3c0-1,0.8-1.7,1.7-1.7h4.7c0.2,0,0.3,0.1,0.4,0.2l3.5,3.5
			c0.1,0.1,0.2,0.3,0.2,0.4v7C280.6,363.2,279.8,363.9,278.8,363.9z M271.8,352.3c-0.3,0-0.6,0.3-0.6,0.6v9.3c0,0.3,0.3,0.6,0.6,0.6
			h7c0.3,0,0.6-0.3,0.6-0.6v-6.7l-3.2-3.2H271.8z"/>
	</g>
	<g>
		<path class="st5" d="M280,355.8h-3.5c-0.3,0-0.6-0.3-0.6-0.6v-3.5c0-0.3,0.3-0.6,0.6-0.6c0.3,0,0.6,0.3,0.6,0.6v2.9h2.9
			c0.3,0,0.6,0.3,0.6,0.6C280.6,355.5,280.3,355.8,280,355.8z"/>
	</g>
	<g>
		<path class="st5" d="M277.7,358.7H273c-0.3,0-0.6-0.3-0.6-0.6s0.3-0.6,0.6-0.6h4.7c0.3,0,0.6,0.3,0.6,0.6S278,358.7,277.7,358.7z"
			/>
	</g>
	<g>
		<path class="st5" d="M277.7,361H273c-0.3,0-0.6-0.3-0.6-0.6s0.3-0.6,0.6-0.6h4.7c0.3,0,0.6,0.3,0.6,0.6S278,361,277.7,361z"/>
	</g>
	<g>
		<path class="st5" d="M274.2,356.4H273c-0.3,0-0.6-0.3-0.6-0.6s0.3-0.6,0.6-0.6h1.2c0.3,0,0.6,0.3,0.6,0.6S274.5,356.4,274.2,356.4
			z"/>
	</g>
</g>
<g>
	<g>
		<path class="st5" d="M275.3,589.4c-0.3,0-0.5-0.1-0.8-0.2l-4.5-2.2c-0.6-0.3-0.9-0.9-0.9-1.5v-5.3c0-0.6,0.4-1.2,0.9-1.5l4.5-2.2
			c0.5-0.2,1-0.2,1.5,0c0,0,0,0,0,0l4.5,2.2c0.6,0.3,0.9,0.9,0.9,1.5v5.3c0,0.6-0.4,1.2-0.9,1.5l-4.5,2.2
			C275.8,589.4,275.6,589.4,275.3,589.4z M275.3,577.4c-0.1,0-0.2,0-0.2,0.1l-4.5,2.2c-0.2,0.1-0.3,0.3-0.3,0.5v5.3
			c0,0.2,0.1,0.4,0.3,0.5l4.5,2.2c0.2,0.1,0.3,0.1,0.5,0l4.5-2.2c0.2-0.1,0.3-0.3,0.3-0.5v-5.3c0-0.2-0.1-0.4-0.3-0.5l-4.5-2.2
			C275.5,577.4,275.4,577.4,275.3,577.4z"/>
	</g>
	<g>
		<path class="st5" d="M275.3,582.8c-0.1,0-0.2,0-0.3-0.1l-5.4-2.7c-0.3-0.1-0.4-0.5-0.3-0.8c0.1-0.3,0.5-0.4,0.8-0.3l5.2,2.6
			l5.2-2.6c0.3-0.1,0.6,0,0.8,0.3c0.1,0.3,0,0.6-0.3,0.8l-5.4,2.7C275.5,582.8,275.4,582.8,275.3,582.8z"/>
	</g>
	<g>
		<path class="st5" d="M275.3,589.4c-0.3,0-0.6-0.3-0.6-0.6v-6.6c0-0.3,0.3-0.6,0.6-0.6c0.3,0,0.6,0.3,0.6,0.6v6.6
			C275.9,589.2,275.6,589.4,275.3,589.4z"/>
	</g>
</g>
<g class="st6">
	<defs>
		<circle id="SVGID_3_" class="st6" cx="809.7" cy="299.5" r="122.4"/>
	</defs>
	<clipPath id="SVGID_4_">
		<use xlink:href="#SVGID_3_"  style="overflow:visible;"/>
	</clipPath>
	<path class="st7" d="M1006.1,552.7H759.4c-3.5,0-6.3-2.8-6.3-6.3V264.6c0-3.5,2.8-6.3,6.3-6.3h246.7c3.5,0,6.3,2.8,6.3,6.3v281.8
		C1012.5,549.9,1009.6,552.7,1006.1,552.7z"/>
</g>
<g>
	<path class="st8" d="M699.4,298.6h-13.7l-1.4-6.1c-1,0-1.8-0.9-1.8-1.9c0-1,0.8-1.9,1.9-1.9c1,0,1.9,0.8,1.9,1.9
		c0,0.5-0.2,1-0.5,1.3c2.3,2.5,4.1,2.3,5.9-0.7c-0.4-0.3-0.7-0.9-0.7-1.5c0-1,0.8-1.9,1.9-1.9c1,0,1.9,0.8,1.9,1.9
		c0,0.6-0.3,1.2-0.8,1.5c1.5,2.9,3.4,3,5.9,0.6c-0.3-0.3-0.5-0.8-0.5-1.2c0-1,0.8-1.9,1.9-1.9s1.9,0.8,1.9,1.9c0,1-0.8,1.9-1.9,1.9
		L699.4,298.6z M686.4,297.8h12.4l1.4-5.2c-3,2.9-5.6,2.4-7.4-1.2l-0.2-0.3l-0.2,0.3c-2,3.7-4.6,4.1-7.3,1.3L686.4,297.8z
		 M700.6,291.7l0.2,0c0.6,0.1,1.2-0.4,1.2-1c0-0.6-0.5-1-1-1s-1,0.5-1,1c0,0.3,0.2,0.7,0.5,0.9L700.6,291.7z M684.3,289.6
		c-0.6,0-1,0.5-1,1c0,0.6,0.5,1,1,1c0.1,0,0.1,0,0.2,0l0.2,0l0.2-0.1c0.3-0.2,0.5-0.5,0.5-0.9C685.4,290.1,684.9,289.6,684.3,289.6z
		 M692.7,288.8c-0.6,0-1,0.5-1,1c0,0.4,0.2,0.8,0.6,0.9l0.4,0.2l0.4-0.1c0.4-0.1,0.7-0.5,0.7-1C693.7,289.3,693.3,288.8,692.7,288.8
		z"/>
	<path class="st8" d="M698.9,300.3h-12.7c-0.2,0-0.4-0.2-0.4-0.4l0,0c0-0.2,0.2-0.4,0.4-0.4h12.7c0.2,0,0.4,0.2,0.4,0.4l0,0
		C699.3,300.1,699.1,300.3,698.9,300.3z"/>
</g>
<path class="st8" d="M624,558.9h-73c-7.6,0-13.8-6.2-13.8-13.8v0c0-7.6,6.2-13.8,13.8-13.8h73c7.6,0,13.8,6.2,13.8,13.8v0
	C637.8,552.7,631.6,558.9,624,558.9z"/>
<text transform="matrix(1 0 0 1 577.0453 548.6699)" class="st9 st10 st11">Add</text>
<g>
	<defs>
		<circle id="SVGID_5_" cx="587.5" cy="384.2" r="30.6"/>
	</defs>
	<clipPath id="SVGID_6_">
		<use xlink:href="#SVGID_5_"  style="overflow:visible;"/>
	</clipPath>
	<g style="clip-path:url(#SVGID_6_);">
		
			<image style="overflow:visible;" width="300" height="300" xlink:href="../../../../../design/assets/avatars/fadel.jpg"  transform="matrix(0.2037 0 0 0.2037 556.8842 353.6289)">
		</image>
	</g>
</g>
<circle class="st8" cx="608.4" cy="405.8" r="9.7"/>
<polyline class="st12" points="605.2,405.8 607.5,407.8 612.2,403.6 "/>
<g>
	<text transform="matrix(0.8888 0 0 1 558.7186 446.9978)" class="st13 st14 st15">John Walsh</text>
</g>
<g>
	<text transform="matrix(1 0 0 1 509.2821 468.3796)"><tspan x="0" y="0" class="st5 st10 st16">Experimented robotics teacher</tspan><tspan x="35.4" y="18.3" class="st5 st10 st16">at Yale Univeristy</tspan></text>
</g>
<path class="st17" d="M941.7,558.9h-73c-7.6,0-13.8-6.2-13.8-13.8v0c0-7.6,6.2-13.8,13.8-13.8h73c7.6,0,13.8,6.2,13.8,13.8v0
	C955.5,552.7,949.3,558.9,941.7,558.9z"/>
<text transform="matrix(1 0 0 1 895.3022 548.6699)" class="st9 st10 st11">Add</text>
<g>
	<text transform="matrix(0.8888 0 0 1 873.4204 446.9978)" class="st9 st14 st15">Melany Bright</text>
</g>
<g>
	<text transform="matrix(0.8888 0 0 1 860.1323 324.0529)" class="st9 st14 st18">Pro Member</text>
</g>
<g>
	<text transform="matrix(1 0 0 1 830.1533 468.3796)"><tspan x="0" y="0" class="st9 st10 st16">Certified robotics engineering</tspan><tspan x="26.2" y="18.3" class="st9 st10 st16">lead at Grauber Inc.</tspan></text>
</g>
<g>
	<defs>
		<circle id="SVGID_7_" cx="905.2" cy="392.2" r="30.6"/>
	</defs>
	<clipPath id="SVGID_8_">
		<use xlink:href="#SVGID_7_"  style="overflow:visible;"/>
	</clipPath>
	<g style="clip-path:url(#SVGID_8_);">
		
			<image style="overflow:visible;" width="225" height="225" xlink:href="../../../../../design/assets/avatars/melany.jpg"  transform="matrix(0.2721 0 0 0.2721 874.6182 361.5802)">
		</image>
	</g>
</g>
<circle class="st19" cx="926.1" cy="413.7" r="9.7"/>
<path class="st2" d="M926.5,410.5l0.7,1.4c0.1,0.2,0.3,0.3,0.4,0.3l1.6,0.2c0.5,0.1,0.7,0.7,0.3,1l-1.1,1.1
	c-0.1,0.1-0.2,0.3-0.2,0.5l0.3,1.6c0.1,0.5-0.4,0.9-0.9,0.6l-1.4-0.7c-0.2-0.1-0.4-0.1-0.6,0l-1.4,0.7c-0.4,0.2-0.9-0.1-0.9-0.6
	l0.3-1.6c0-0.2,0-0.4-0.2-0.5l-1.1-1.1c-0.4-0.3-0.2-0.9,0.3-1l1.6-0.2c0.2,0,0.4-0.1,0.4-0.3l0.7-1.4
	C925.7,410,926.3,410,926.5,410.5z"/>
</svg>
