<?xml version="1.0" encoding="utf-8"?>
<!-- Generator: Adobe Illustrator 19.0.0, SVG Export Plug-In . SVG Version: 6.00 Build 0)  -->
<svg version="1.1" id="Layer_1" xmlns="http://www.w3.org/2000/svg" xmlns:xlink="http://www.w3.org/1999/xlink" x="0px" y="0px"
	 viewBox="-176 260 257.2 273" style="enable-background:new -176 260 257.2 273;" xml:space="preserve">
<style type="text/css">
	.st0{fill:#0068FF;}
</style>
<g id="XMLID_10_">
	<path id="XMLID_22_" class="st0" d="M-40,260H78.9c1.3,0,2.3,1,2.3,2.3v124.5c0,1.3-1,2.3-2.3,2.3H-40c-1.3,0-2.3-1-2.3-2.3V262.3
		C-42.3,261-41.3,260-40,260z"/>
	<path id="XMLID_1_" class="st0" d="M-40,401.3H78.9c1.3,0,2.3,1,2.3,2.3v127.1c0,1.3-1,2.3-2.3,2.3H-40c-1.3,0-2.3-1-2.3-2.3V403.6
		C-42.3,402.3-41.3,401.3-40,401.3z"/>
	<path id="XMLID_17_" class="st0" d="M-173.7,260h118.9c1.3,0,2.3,1,2.3,2.3v124.5c0,1.3-1,2.3-2.3,2.3h-118.9c-1.3,0-2.3-1-2.3-2.3
		V262.3C-176,261-175,260-173.7,260z"/>
	<path id="XMLID_16_" class="st0" d="M-173.7,401.3h118.9c1.3,0,2.3,1,2.3,2.3v127.1c0,1.3-1,2.3-2.3,2.3h-118.9
		c-1.3,0-2.3-1-2.3-2.3V403.6C-176,402.3-175,401.3-173.7,401.3z"/>
</g>
</svg>
