<?xml version="1.0" encoding="utf-8"?>
<!-- Generator: Adobe Illustrator 19.0.0, SVG Export Plug-In . SVG Version: 6.00 Build 0)  -->
<svg version="1.1" id="Hero" xmlns="http://www.w3.org/2000/svg" xmlns:xlink="http://www.w3.org/1999/xlink" x="0px" y="0px"
	 viewBox="-273 375 47.2 92.9" style="enable-background:new -273 375 47.2 92.9;" xml:space="preserve">
<style type="text/css">
	.st0{fill:none;stroke:#FF5555;stroke-width:2;stroke-linecap:round;stroke-linejoin:round;stroke-miterlimit:10;}
	.st1{fill:#FF5555;}
</style>
<line class="st0" x1="-249.3" y1="409.2" x2="-249.3" y2="402.7"/>
<line class="st0" x1="-249.3" y1="395.4" x2="-249.3" y2="388.9"/>
<line class="st0" x1="-249.3" y1="382.4" x2="-249.3" y2="375.9"/>
<g>
	<g>
		<g>
			<path class="st1" d="M-253.7,426.9c-1.7,0-3.1,1.4-3.1,3.1s1.4,3.1,3.1,3.1c1.7,0,3.1-1.4,3.1-3.1S-252,426.9-253.7,426.9z
				 M-253.7,431.5c-0.8,0-1.5-0.7-1.5-1.5c0-0.8,0.7-1.5,1.5-1.5v0c0.8,0,1.5,0.7,1.5,1.5S-252.8,431.5-253.7,431.5z"/>
		</g>
	</g>
	<g>
		<g>
			<path class="st1" d="M-244.9,426.9c-1.7,0-3.1,1.4-3.1,3.1s1.4,3.1,3.1,3.1s3.1-1.4,3.1-3.1S-243.2,426.9-244.9,426.9z
				 M-244.9,431.5c-0.8,0-1.5-0.7-1.5-1.5c0-0.8,0.7-1.5,1.5-1.5v0c0.8,0,1.5,0.7,1.5,1.5S-244.1,431.5-244.9,431.5z"/>
		</g>
	</g>
	<g>
		<g>
			<path class="st1" d="M-235.5,430.5c-0.3-1.8-1.8-3.2-3.6-3.5c-0.5-1.9-2-3.5-4.9-3.5h-4.5v-1.7c1.3-0.4,2.1-1.9,1.7-3.2
				c-0.4-1.3-1.9-2.1-3.2-1.7c-1.3,0.4-2.1,1.9-1.7,3.2c0.3,0.8,0.9,1.4,1.7,1.7v1.7h-4.5c-2.1,0-4.3,1-4.9,3.5
				c-2.3,0.3-4,2.5-3.7,4.8c0.3,1.8,1.7,3.3,3.5,3.6l0,0c0.2,3.4,2.7,4.6,5.1,4.6h10.5c3.5,0,4.9-2.3,5.1-4.6
				C-236.6,435-235.1,432.8-235.5,430.5z M-259.6,433.9c-1.5-0.4-2.3-1.9-1.9-3.4c0.3-0.9,1-1.6,1.9-1.9V433.9z M-250.3,419.4
				c0-0.6,0.5-1,1-1s1,0.5,1,1s-0.5,1-1,1S-250.3,420-250.3,419.4z M-240.5,434.9c0,1.3-0.5,3.6-3.6,3.6h-10.4
				c-1.3,0-3.6-0.5-3.6-3.6l0-6.2c0-3.1,2.2-3.6,3.6-3.6h10.5c3.1,0,3.6,2.2,3.6,3.6V434.9z M-239,433.8v-5.3c1.2,0.3,2,1.4,2,2.6
				C-237,432.4-237.8,433.5-239,433.8z"/>
		</g>
	</g>
	<g>
		<g>
			<path class="st1" d="M-244.9,435.2h-8.8c-0.4,0-0.8,0.3-0.8,0.8s0.3,0.8,0.8,0.8h8.8c0.4,0,0.8-0.3,0.8-0.8
				S-244.5,435.2-244.9,435.2z"/>
		</g>
	</g>
	<g>
		<g>
			<path class="st1" d="M-232.2,441.5L-232.2,441.5c0-1.6-1.4-3-3-3c-1.4,0-2.6,1-2.9,2.3l-2.1,0.4h-18.3l-2.1-0.4
				c-0.4-1.6-1.9-2.6-3.6-2.3c-1.6,0.4-2.6,1.9-2.3,3.6c0.2,1.1,1.1,2,2.2,2.2v5.7c-1.3,0.3-2.2,1.5-2.2,2.9v1.4
				c0,0.4,0.3,0.8,0.8,0.8s0.8-0.3,0.8-0.8V453c0-0.8,0.6-1.4,1.4-1.4c0.8,0,1.4,0.6,1.4,1.4v1.4c0,0.4,0.3,0.8,0.8,0.8
				s0.8-0.3,0.8-0.8V453c0-1.3-0.9-2.5-2.2-2.9v-5.7c1-0.3,1.8-1,2.1-2l1.3,0.3v9.5c0,1.4,0.3,2.8,0.9,4v0.1c2.3,5,8.2,7.3,13.2,5
				c2.2-1,4-2.8,5-5l0-0.1c0.6-1.3,0.9-2.6,0.9-4v-9.5l1.3-0.3c0.3,1,1.1,1.7,2.1,2v5.7c-1.3,0.3-2.2,1.5-2.2,2.9v1.4
				c0,0.4,0.3,0.8,0.8,0.8c0.4,0,0.8-0.3,0.8-0.8V453c0-0.8,0.6-1.4,1.4-1.4c0.8,0,1.4,0.6,1.4,1.4v1.4c0,0.4,0.3,0.8,0.8,0.8
				s0.8-0.3,0.8-0.8V453c0-1.3-0.9-2.5-2.2-2.9v-5.7C-233.1,444-232.2,442.8-232.2,441.5z M-263.4,442.9c-0.8,0-1.4-0.6-1.4-1.4
				s0.6-1.4,1.4-1.4c0.8,0,1.4,0.6,1.4,1.4S-262.6,442.9-263.4,442.9z M-249.3,460.6c-2.9,0-5.6-1.5-7.1-3.9h14.3
				C-243.7,459.1-246.4,460.6-249.3,460.6z M-240.8,452.1c0,1-0.2,2-0.6,3h-15.8c-0.4-1-0.6-2-0.6-3v-9.4h16.9V452.1z M-235.2,442.9
				C-235.2,442.9-235.2,442.9-235.2,442.9L-235.2,442.9c-0.8,0-1.5-0.7-1.5-1.5c0-0.8,0.6-1.4,1.4-1.4c0.8,0,1.4,0.6,1.4,1.4
				C-233.7,442.3-234.4,442.9-235.2,442.9z"/>
		</g>
	</g>
	<g>
		<g>
			<path class="st1" d="M-246.6,448.2c-0.1-0.1-0.3-0.2-0.5-0.2h-2.3l2.8-2.9c0.3-0.3,0.2-0.8-0.1-1.1c-0.3-0.2-0.7-0.2-1,0
				l-4.1,4.2c-0.3,0.3-0.3,0.8,0,1.1c0.1,0.1,0.3,0.2,0.5,0.2h2.4l-2.9,3.2c-0.3,0.3-0.3,0.8,0.1,1.1l0,0c0.3,0.3,0.8,0.3,1.1-0.1
				l4.1-4.5C-246.2,449-246.3,448.5-246.6,448.2z"/>
		</g>
	</g>
</g>
</svg>
