<svg xmlns="http://www.w3.org/2000/svg" viewBox="0 0 90 90"><rect x="12" y="5" width="55" height="68" rx="6" ry="6" fill="#e3e7fe" stroke="#6576ff" stroke-linecap="round" stroke-linejoin="round" stroke-width="2"/><path d="M78,15.8l-5.72,6.33L66.7,16l-5.33,5.91-5.82-6.46L49.67,22,44.13,15.8l-5.49,6.09L33,15.62,27.27,22l-6.16-6.83L21,15V79c0,3.33,2.43,6,5.43,6H72.57c3,0,5.43-2.69,5.43-6V15.76S77.94,15.79,78,15.8Z" fill="#fff" stroke="#6576ff" stroke-linecap="round" stroke-linejoin="round" stroke-width="2"/><circle cx="49.5" cy="35.5" r="2.5" fill="#c4cefe" stroke="#c4cefe" stroke-miterlimit="10" stroke-width="2"/><line x1="71" y1="50" x2="28" y2="49.86" fill="none" stroke="#c4cefe" stroke-linecap="round" stroke-linejoin="round" stroke-width="2"/><line x1="71" y1="56" x2="28" y2="55.86" fill="none" stroke="#c4cefe" stroke-linecap="round" stroke-linejoin="round" stroke-width="2"/><line x1="71" y1="61" x2="28" y2="60.86" fill="none" stroke="#c4cefe" stroke-linecap="round" stroke-linejoin="round" stroke-width="2"/><line x1="28" y1="45" x2="38" y2="45" fill="none" stroke="#c4cefe" stroke-linecap="round" stroke-linejoin="round" stroke-width="2"/><line x1="61" y1="45" x2="71" y2="45" fill="none" stroke="#c4cefe" stroke-linecap="round" stroke-linejoin="round" stroke-width="2"/><line x1="28" y1="76" x2="41" y2="76" fill="none" stroke="#c4cefe" stroke-linecap="round" stroke-linejoin="round" stroke-width="2"/><line x1="61" y1="76" x2="69" y2="76" fill="none" stroke="#c4cefe" stroke-linecap="round" stroke-linejoin="round" stroke-width="2"/><line x1="59" y1="66" x2="69" y2="66" fill="none" stroke="#c4cefe" stroke-linecap="round" stroke-linejoin="round" stroke-width="2"/></svg>