<svg xmlns="http://www.w3.org/2000/svg" viewBox="0 0 90 90"><circle cx="27.5" cy="39.5" r="4.5" fill="none" stroke="#6576ff" stroke-linecap="round" stroke-linejoin="round" stroke-width="1.5"/><circle cx="23.5" cy="39.5" r="4.5" fill="none" stroke="#6576ff" stroke-linecap="round" stroke-linejoin="round" stroke-width="1.5"/><line x1="19" y1="67" x2="37" y2="67" fill="none" stroke="#c4cefe" stroke-linecap="round" stroke-linejoin="round" stroke-width="2"/><path d="M29.36,15H63.91A6.12,6.12,0,0,1,70,21.14V53.86A6.12,6.12,0,0,1,63.91,60H9.09A6.12,6.12,0,0,1,3,53.86V21.14A6.12,6.12,0,0,1,9.09,15H29.36Z" fill="#eff1ff" stroke="#6576ff" stroke-linecap="round" stroke-linejoin="round" stroke-width="2"/><path d="M34.36,20H68.91A6.12,6.12,0,0,1,75,26.14V58.86A6.12,6.12,0,0,1,68.91,65H14.09A6.12,6.12,0,0,1,8,58.86V26.14A6.12,6.12,0,0,1,14.09,20H34.36Z" fill="#e3e7fe" stroke="#6576ff" stroke-linecap="round" stroke-linejoin="round" stroke-width="2"/><rect x="14" y="25" width="67" height="45" rx="6" ry="6" fill="#fff" stroke="#6576ff" stroke-linecap="round" stroke-linejoin="round" stroke-width="2"/><line x1="19" y1="53" x2="31" y2="53" fill="none" stroke="#c4cefe" stroke-linecap="round" stroke-linejoin="round" stroke-width="2"/><line x1="35" y1="53" x2="41" y2="53" fill="none" stroke="#c4cefe" stroke-linecap="round" stroke-linejoin="round" stroke-width="2"/><line x1="19" y1="58" x2="31" y2="58" fill="none" stroke="#c4cefe" stroke-linecap="round" stroke-linejoin="round" stroke-width="2"/><line x1="35" y1="58" x2="41" y2="58" fill="none" stroke="#c4cefe" stroke-linecap="round" stroke-linejoin="round" stroke-width="2"/><rect x="71" y="31" width="4" height="6" fill="#c4cefe"/><rect x="64" y="31" width="4" height="6" fill="#c4cefe"/><rect x="58" y="31" width="4" height="6" fill="#c4cefe"/><circle cx="72.5" cy="60.5" r="14.5" fill="#fff" stroke="#6576ff" stroke-linecap="round" stroke-linejoin="round" stroke-width="2"/><circle cx="73" cy="61" r="11" fill="#e3e7fe"/><path d="M70,59V57.52a3,3,0,0,1,6,0V59" fill="none" stroke="#6576ff" stroke-linecap="round" stroke-linejoin="round" stroke-width="2"/><path d="M68.33,59h9.34A1.3,1.3,0,0,1,79,60.27v4.46A1.3,1.3,0,0,1,77.67,66H68.33A1.3,1.3,0,0,1,67,64.73V60.27A1.3,1.3,0,0,1,68.33,59Z" fill="#6576ff"/><ellipse cx="73" cy="61.74" rx="1.11" ry="1.12" fill="#fff"/><path d="M72.5,62.38h1a0,0,0,0,1,0,0v1.5a.5.5,0,0,1-.5.5h0a.5.5,0,0,1-.5-.5v-1.5A0,0,0,0,1,72.5,62.38Z" fill="#fff"/></svg>