<svg xmlns="http://www.w3.org/2000/svg" viewBox="0 0 90 90"><rect x="9" y="21" width="55" height="39" rx="6" ry="6" fill="#fff" stroke="#6576ff" stroke-linecap="round" stroke-linejoin="round" stroke-width="2"/><line x1="17" y1="44" x2="25" y2="44" fill="none" stroke="#c4cefe" stroke-linecap="round" stroke-linejoin="round" stroke-width="2"/><line x1="30" y1="44" x2="38" y2="44" fill="none" stroke="#c4cefe" stroke-linecap="round" stroke-linejoin="round" stroke-width="2"/><line x1="42" y1="44" x2="50" y2="44" fill="none" stroke="#c4cefe" stroke-linecap="round" stroke-linejoin="round" stroke-width="2"/><line x1="17" y1="50" x2="36" y2="50" fill="none" stroke="#c4cefe" stroke-linecap="round" stroke-linejoin="round" stroke-width="2"/><rect x="16" y="31" width="15" height="8" rx="1" ry="1" fill="#c4cefe"/><path d="M76.79,72.87,32.22,86.73a6,6,0,0,1-7.47-4L17,57.71A6,6,0,0,1,21,50.2L65.52,36.34a6,6,0,0,1,7.48,4l7.73,25.06A6,6,0,0,1,76.79,72.87Z" fill="#fff" stroke="#6576ff" stroke-linecap="round" stroke-linejoin="round" stroke-width="2"/><polygon points="75.27 47.3 19.28 64.71 17.14 57.76 73.12 40.35 75.27 47.3" fill="#6576ff"/><path d="M30,77.65l-1.9-6.79a1,1,0,0,1,.69-1.23l4.59-1.3a1,1,0,0,1,1.23.7l1.9,6.78A1,1,0,0,1,35.84,77l-4.59,1.3A1,1,0,0,1,30,77.65Z" fill="#c4cefe"/><path d="M41.23,74.48l-1.9-6.78A1,1,0,0,1,40,66.47l4.58-1.3a1,1,0,0,1,1.23.69l1.9,6.78A1,1,0,0,1,47,73.88l-4.58,1.29A1,1,0,0,1,41.23,74.48Z" fill="#c4cefe"/><path d="M52.43,71.32l-1.9-6.79a1,1,0,0,1,.69-1.23L55.81,62A1,1,0,0,1,57,62.7l1.9,6.78a1,1,0,0,1-.69,1.23L53.66,72A1,1,0,0,1,52.43,71.32Z" fill="#c4cefe"/><ellipse cx="55.46" cy="19.1" rx="16.04" ry="16.1" fill="#fff" stroke="#6576ff" stroke-linecap="round" stroke-linejoin="round" stroke-width="2"/><ellipse cx="55.46" cy="19.1" rx="12.11" ry="12.16" fill="#e3e7fe"/><text transform="translate(50.7 23.72) scale(0.99 1)" font-size="16.12" fill="#6576ff" font-family="Nunito-Black, Nunito Black">$</text></svg>