<svg xmlns="http://www.w3.org/2000/svg" viewBox="0 0 90 90"><rect x="5" y="22" width="70" height="60" rx="7" ry="7" fill="#e3e7fe" stroke="#6576ff" stroke-linecap="round" stroke-linejoin="round" stroke-width="2"/><path d="M12,23H68a6,6,0,0,1,6,6v6a0,0,0,0,1,0,0H6a0,0,0,0,1,0,0V29A6,6,0,0,1,12,23Z" fill="#b3c2ff"/><line x1="5" y1="35" x2="75" y2="35" fill="none" stroke="#6576ff" stroke-linecap="round" stroke-linejoin="round" stroke-width="2"/><rect x="15" y="8" width="70" height="60" rx="7" ry="7" fill="#fff" stroke="#6576ff" stroke-linecap="round" stroke-linejoin="round" stroke-width="2"/><path d="M22,9H78a6,6,0,0,1,6,6v6a0,0,0,0,1,0,0H16a0,0,0,0,1,0,0V15A6,6,0,0,1,22,9Z" fill="#e3e7fe"/><line x1="15" y1="22" x2="85" y2="22" fill="none" stroke="#6576ff" stroke-linecap="round" stroke-linejoin="round" stroke-width="2"/><line x1="61" y1="15" x2="68" y2="15" fill="none" stroke="#6576ff" stroke-linecap="round" stroke-linejoin="round" stroke-width="2"/><line x1="74" y1="15" x2="78" y2="15" fill="none" stroke="#6576ff" stroke-linecap="round" stroke-linejoin="round" stroke-width="2"/><polyline points="60.49 51.07 67.06 44.5 60.49 37.93" fill="none" stroke="#6576ff" stroke-linecap="round" stroke-linejoin="round" stroke-width="3"/><polyline points="41.51 37.93 34.94 44.5 41.51 51.07" fill="none" stroke="#6576ff" stroke-linecap="round" stroke-linejoin="round" stroke-width="3"/><line x1="54.55" y1="34.5" x2="47.45" y2="54.5" fill="none" stroke="#c4cefe" stroke-linecap="round" stroke-linejoin="round" stroke-width="3"/></svg>