<svg xmlns="http://www.w3.org/2000/svg" viewBox="0 0 90 90"><rect x="7" y="10" width="76" height="50" rx="7" ry="7" fill="#fff" stroke="#6576ff" stroke-linecap="round" stroke-linejoin="round" stroke-width="2"/><rect x="32" y="69" width="28" height="7" rx="1.5" ry="1.5" fill="none" stroke="#6576ff" stroke-linecap="round" stroke-linejoin="round" stroke-width="2"/><line x1="40" y1="60" x2="40" y2="69" fill="none" stroke="#6576ff" stroke-linecap="round" stroke-linejoin="round" stroke-width="2"/><line x1="52" y1="60" x2="52" y2="69" fill="none" stroke="#6576ff" stroke-linecap="round" stroke-linejoin="round" stroke-width="2"/><line x1="42" y1="24" x2="70" y2="24" fill="#c4cefe" stroke="#c4cefe" stroke-linecap="round" stroke-linejoin="round" stroke-width="2"/><line x1="42" y1="30" x2="70" y2="30" fill="#c4cefe" stroke="#c4cefe" stroke-linecap="round" stroke-linejoin="round" stroke-width="2"/><line x1="42" y1="36" x2="70" y2="36" fill="#c4cefe" stroke="#c4cefe" stroke-linecap="round" stroke-linejoin="round" stroke-width="2"/><rect x="24" y="23" width="12" height="14" fill="none" stroke="#c4cefe" stroke-linecap="round" stroke-linejoin="round" stroke-width="2"/><rect x="69" y="50" width="18" height="30" rx="3" ry="3" fill="#e3e7fe" stroke="#6576ff" stroke-linecap="round" stroke-linejoin="round" stroke-width="2"/><line x1="78.09" y1="75.56" x2="78.09" y2="75.56" fill="none" stroke="#6576ff" stroke-linecap="round" stroke-linejoin="round" stroke-width="2"/><rect x="3" y="46" width="24" height="34" rx="3" ry="3" fill="#e3e7fe" stroke="#6576ff" stroke-linecap="round" stroke-linejoin="round" stroke-width="2"/><line x1="14.69" y1="76.66" x2="14.69" y2="76.66" fill="none" stroke="#6576ff" stroke-linecap="round" stroke-linejoin="round" stroke-width="2"/><line x1="13.5" y1="49.5" x2="16.5" y2="49.5" fill="none" stroke="#6576ff" stroke-linecap="round" stroke-linejoin="round"/><line x1="3.5" y1="73.5" x2="26.5" y2="73.5" fill="none" stroke="#6576ff" stroke-linecap="round" stroke-linejoin="round"/></svg>