<svg xmlns="http://www.w3.org/2000/svg" viewBox="0 0 90 90"><rect x="15" y="5" width="56" height="70" rx="6" ry="6" fill="#e3e7fe" stroke="#6576ff" stroke-linecap="round" stroke-linejoin="round" stroke-width="2"/><path d="M69.88,85H30.12A6.06,6.06,0,0,1,24,79V21a6.06,6.06,0,0,1,6.12-6H59.66L76,30.47V79A6.06,6.06,0,0,1,69.88,85Z" fill="#fff" stroke="#6576ff" stroke-linecap="round" stroke-linejoin="round" stroke-width="2"/><polyline points="60 16 60 31 75 31.07" fill="none" stroke="#6576ff" stroke-linecap="round" stroke-linejoin="round" stroke-width="2"/><line x1="58" y1="50" x2="32" y2="50" fill="none" stroke="#c4cefe" stroke-linecap="round" stroke-linejoin="round" stroke-width="2"/><line x1="46" y1="38" x2="32" y2="38" fill="none" stroke="#c4cefe" stroke-linecap="round" stroke-linejoin="round" stroke-width="2"/><line x1="68" y1="44" x2="32" y2="44" fill="none" stroke="#c4cefe" stroke-linecap="round" stroke-linejoin="round" stroke-width="2"/><line x1="68" y1="56" x2="32" y2="56" fill="none" stroke="#c4cefe" stroke-linecap="round" stroke-linejoin="round" stroke-width="2"/><line x1="58" y1="62" x2="32" y2="62" fill="none" stroke="#c4cefe" stroke-linecap="round" stroke-linejoin="round" stroke-width="2"/><line x1="68" y1="68" x2="32" y2="68" fill="none" stroke="#c4cefe" stroke-linecap="round" stroke-linejoin="round" stroke-width="2"/><line x1="58" y1="75" x2="32" y2="75" fill="none" stroke="#c4cefe" stroke-linecap="round" stroke-linejoin="round" stroke-width="2"/></svg>