<svg xmlns="http://www.w3.org/2000/svg" viewBox="0 0 90 90"><rect x="15" y="5" width="56" height="70" rx="6" ry="6" fill="#e3e7fe" stroke="#6576ff" stroke-linecap="round" stroke-linejoin="round" stroke-width="2"/><path d="M69.88,85H30.12A6.06,6.06,0,0,1,24,79V21a6.06,6.06,0,0,1,6.12-6H59.66L76,30.47V79A6.06,6.06,0,0,1,69.88,85Z" fill="#fff" stroke="#6576ff" stroke-linecap="round" stroke-linejoin="round" stroke-width="2"/><polyline points="60 16 60 31 75 31.07" fill="none" stroke="#6576ff" stroke-linecap="round" stroke-linejoin="round" stroke-width="2"/><line x1="69" y1="47" x2="31" y2="47" fill="none" stroke="#c4cefe" stroke-linecap="round" stroke-linejoin="round" stroke-width="2"/><line x1="69" y1="53" x2="31" y2="53" fill="none" stroke="#c4cefe" stroke-linecap="round" stroke-linejoin="round" stroke-width="2"/><line x1="69" y1="59" x2="31" y2="59" fill="none" stroke="#c4cefe" stroke-linecap="round" stroke-linejoin="round" stroke-width="2"/><line x1="69" y1="65" x2="31" y2="65" fill="none" stroke="#c4cefe" stroke-linecap="round" stroke-linejoin="round" stroke-width="2"/><line x1="69" y1="71" x2="31" y2="71" fill="none" stroke="#c4cefe" stroke-linecap="round" stroke-linejoin="round" stroke-width="2"/></svg>