<svg xmlns="http://www.w3.org/2000/svg" viewBox="0 0 90 90"><rect x="14.5" y="5" width="56" height="70" rx="6" ry="6" fill="#e3e7fe" stroke="#6576ff" stroke-linecap="round" stroke-linejoin="round" stroke-width="2"/><path d="M69.38,85H29.62a6.06,6.06,0,0,1-6.12-6V21a6.06,6.06,0,0,1,6.12-6H59.16L75.5,30.47V79A6.06,6.06,0,0,1,69.38,85Z" fill="#fff" stroke="#6576ff" stroke-linecap="round" stroke-linejoin="round" stroke-width="2"/><polyline points="59.5 16 59.5 31 74.5 31.07" fill="none" stroke="#6576ff" stroke-linecap="round" stroke-linejoin="round" stroke-width="2"/><path d="M38.29,24.84c-.27-.79-.53-1.53-.79-2.23L34.66,24c.25.66.5,1.37.75,2.11Z" fill="#6576ff"/><path d="M36.64,20.41c-.32-.79-.64-1.51-.94-2.16L33,19.87c.28.61.58,1.28.88,2Z" fill="#6576ff"/><path d="M38.94,41.52c.1.74.2,1.49.28,2.27l3.06-.45c-.09-.81-.19-1.59-.3-2.36Z" fill="#6576ff"/><path d="M42.92,52.82c0-.8-.05-1.59-.08-2.37l-3.08.18c0,.75.07,1.51.08,2.29Z" fill="#6576ff"/><path d="M39.45,46.06q.11,1.13.18,2.28l3.07-.27q-.08-1.2-.18-2.37Z" fill="#6576ff"/><path d="M39.65,29.36c-.21-.79-.43-1.54-.65-2.27l-2.91,1.13c.21.7.41,1.42.62,2.17Z" fill="#6576ff"/><path d="M31,16.08s.4.63,1,1.82l2.65-1.77C34,14.75,33.49,14,33.47,14Z" fill="#6576ff"/><path d="M38.22,37c.13.73.26,1.48.39,2.24l3-.63c-.12-.8-.26-1.58-.4-2.34Z" fill="#6576ff"/><path d="M40.76,34c-.17-.8-.34-1.57-.52-2.32l-3,.93c.17.72.34,1.45.5,2.21Z" fill="#6576ff"/><path d="M56,16.08l-1.24-1-1.24-1s-.48.75-1.19,2.13L55,17.9C55.6,16.71,56,16.09,56,16.08Z" fill="#6576ff"/><path d="M44.08,52.82l3.08.1c0-.78,0-1.54.08-2.29l-3.08-.18C44.12,51.23,44.1,52,44.08,52.82Z" fill="#6576ff"/><path d="M44.3,48.07l3.07.27q.08-1.16.18-2.28l-3.07-.36Q44.38,46.87,44.3,48.07Z" fill="#6576ff"/><path d="M54,19.87,51.3,18.25c-.3.65-.62,1.37-.94,2.16l2.79,1.49C53.45,21.15,53.75,20.47,54,19.87Z" fill="#6576ff"/><path d="M48.06,41.52,45,41c-.1.77-.2,1.56-.29,2.36l3.05.45C47.86,43,48,42.26,48.06,41.52Z" fill="#6576ff"/><path d="M52.34,24,49.5,22.61c-.26.7-.52,1.44-.79,2.22l2.88,1.25C51.84,25.34,52.09,24.63,52.34,24Z" fill="#6576ff"/><path d="M45.77,36.29c-.14.76-.28,1.54-.4,2.34l3,.63c.13-.76.26-1.51.39-2.24Z" fill="#6576ff"/><path d="M40.73,63.77a.74.74,0,0,0-.65.81V77.19a.74.74,0,0,0,.65.81h4.05a.75.75,0,0,0,.66-.81V64.58a.75.75,0,0,0-.66-.81h-.24v2.9a1.8,1.8,0,1,1-3.57,0v-2.9Zm1.13,9.85a1.18,1.18,0,0,1,1-1.31h.69c.55,0,1,.58,1,1.31v1.17c0,.73-.44,1.31-1,1.31h-.69a1.18,1.18,0,0,1-1-1.31Z" fill="#6576ff"/><path d="M42.76,67.57a1.39,1.39,0,0,0,1.34-1.43V61.41a1.34,1.34,0,1,0-2.68,0v4.73A1.39,1.39,0,0,0,42.76,67.57Z" fill="#6576ff"/><path d="M43.42,54.76l3.1,0v.45c0,.55,0,1.11,0,1.68a8.6,8.6,0,0,1-.18,10.18V63.32A1.31,1.31,0,0,0,45.09,62h-.44V60.52a1.89,1.89,0,1,0-3.78,0V62h-.45a1.31,1.31,0,0,0-1.26,1.34v3.77a8.55,8.55,0,0,1,.05-10.46c0-.47,0-.94,0-1.4v-.45l3.1,0Z" fill="#6576ff"/><path d="M50.91,28.22,48,27.09c-.22.72-.44,1.48-.65,2.27l2.94,1C50.5,29.64,50.7,28.92,50.91,28.22Z" fill="#6576ff"/><path d="M49.73,32.58l-3-.93c-.18.75-.35,1.52-.52,2.32l3,.82C49.39,34,49.56,33.3,49.73,32.58Z" fill="#6576ff"/></svg>