<svg xmlns="http://www.w3.org/2000/svg" viewBox="0 0 90 90"><rect x="15" y="5" width="56" height="70" rx="6" ry="6" fill="#e3e7fe" stroke="#6576ff" stroke-linecap="round" stroke-linejoin="round" stroke-width="2"/><path d="M69.88,85H30.12A6.06,6.06,0,0,1,24,79V21a6.06,6.06,0,0,1,6.12-6H59.66L76,30.47V79A6.06,6.06,0,0,1,69.88,85Z" fill="#fff" stroke="#6576ff" stroke-linecap="round" stroke-linejoin="round" stroke-width="2"/><polyline points="60 16 60 31 75 31.07" fill="none" stroke="#6576ff" stroke-linecap="round" stroke-linejoin="round" stroke-width="2"/><path d="M57.16,60.13c-.77,0-1.53,0-2.28.08l-.82.07c-.28-.31-.55-.63-.81-1a32.06,32.06,0,0,1-4.11-6.94,28.83,28.83,0,0,0,.67-3.72,16.59,16.59,0,0,0-.49-7.29c-.29-.78-1-1.72-1.94-1.25S46.08,42.2,46,43.28a11,11,0,0,0,.12,2.63,20.88,20.88,0,0,0,.61,2.51c.23.76.49,1.51.77,2.25-.18.59-.37,1.16-.56,1.72-.46,1.28-1,2.49-1.43,3.65l-.74,1.7C44,59.52,43.18,61.26,42.25,63a27.25,27.25,0,0,0-5.72,2.85,12.36,12.36,0,0,0-2.26,2A4.33,4.33,0,0,0,33,70.24a1.62,1.62,0,0,0,.59,1.39,2.36,2.36,0,0,0,2,.27c2.19-.48,3.86-2.48,5.29-4.15a46.09,46.09,0,0,0,3.27-4.41h0a47.26,47.26,0,0,1,6.51-1.63c1.06-.18,2.15-.34,3.26-.44a15.74,15.74,0,0,0,2.54,2.07,11.65,11.65,0,0,0,2.28,1.16,15.78,15.78,0,0,0,2.45.65,7,7,0,0,0,1.3.07c1,0,2.4-.44,2.49-1.71a1.93,1.93,0,0,0-.2-1C64,61,61.33,60.55,60.1,60.34A17,17,0,0,0,57.16,60.13Zm-16,4.68c-.47.75-.91,1.44-1.33,2-1,1.48-2.2,3.25-3.9,3.91a3,3,0,0,1-1.2.22c-.4,0-.79-.21-.77-.69a2,2,0,0,1,.3-.89,5,5,0,0,1,.7-1,11.3,11.3,0,0,1,2.08-1.79,24.17,24.17,0,0,1,4.4-2.33C41.36,64.49,41.27,64.65,41.18,64.81ZM47,45.76a9.07,9.07,0,0,1-.07-2.38,6.73,6.73,0,0,1,.22-1.12c.1-.3.29-1,.61-1.13.51-.15.67,1,.73,1.36a15.91,15.91,0,0,1-.36,5.87c-.06.3-.13.59-.21.88-.12-.36-.24-.73-.35-1.09A19.24,19.24,0,0,1,47,45.76Zm3.55,15A46.66,46.66,0,0,0,45,62a14.87,14.87,0,0,0,1.38-2.39,29.68,29.68,0,0,0,2.42-5.92,28.69,28.69,0,0,0,3.87,6.15l.43.51C52.22,60.48,51.36,60.6,50.52,60.74Zm13.15,2.64c-.07.41-.89.65-1.27.71A6.84,6.84,0,0,1,59,63.74a10,10,0,0,1-2.15-1.06,12.35,12.35,0,0,1-1.9-1.51c.73,0,1.47-.07,2.21-.06a18.42,18.42,0,0,1,2.23.15,7.6,7.6,0,0,1,4,1.63C63.63,63.07,63.7,63.24,63.67,63.38Z" fill="#6576ff"/></svg>