<svg xmlns="http://www.w3.org/2000/svg" viewBox="0 0 90 90"><rect x="15" y="5" width="56" height="70" rx="6" ry="6" fill="#e3e7fe" stroke="#6576ff" stroke-linecap="round" stroke-linejoin="round" stroke-width="2"/><path d="M69.88,85H30.12A6.06,6.06,0,0,1,24,79V21a6.06,6.06,0,0,1,6.12-6H59.66L76,30.47V79A6.06,6.06,0,0,1,69.88,85Z" fill="#fff" stroke="#6576ff" stroke-linecap="round" stroke-linejoin="round" stroke-width="2"/><polyline points="60 16 60 31 75 31.07" fill="none" stroke="#6576ff" stroke-linecap="round" stroke-linejoin="round" stroke-width="2"/><rect x="40" y="45" width="23" height="19" fill="#e3e7fe" stroke="#6576ff" stroke-linecap="round" stroke-linejoin="round" stroke-width="2"/><rect x="36" y="49" width="23" height="19" fill="#fff" stroke="#6576ff" stroke-linecap="round" stroke-linejoin="round" stroke-width="2"/><polyline points="37 62.88 45.12 55.94 52.81 63.06 55.99 59.44 59 62.76" fill="none" stroke="#6576ff" stroke-linecap="round" stroke-linejoin="round" stroke-width="2"/><circle cx="52.11" cy="54.98" r="2.02" fill="none" stroke="#6576ff" stroke-linecap="round" stroke-linejoin="round" stroke-width="2"/></svg>