<svg xmlns="http://www.w3.org/2000/svg" viewBox="0 0 90 90"><rect x="14.5" y="5" width="56" height="70" rx="6" ry="6" fill="#e3e7fe" stroke="#6576ff" stroke-linecap="round" stroke-linejoin="round" stroke-width="2"/><path d="M69.38,85H29.62a6.06,6.06,0,0,1-6.12-6V21a6.06,6.06,0,0,1,6.12-6H59.16L75.5,30.47V79A6.06,6.06,0,0,1,69.38,85Z" fill="#fff" stroke="#6576ff" stroke-linecap="round" stroke-linejoin="round" stroke-width="2"/><polyline points="59.5 16 59.5 31 74.5 31.07" fill="none" stroke="#6576ff" stroke-linecap="round" stroke-linejoin="round" stroke-width="2"/><rect x="34.5" y="40" width="30" height="30" fill="#f5f7ff" stroke="#6576ff" stroke-linecap="round" stroke-linejoin="round" stroke-width="2"/><line x1="34.5" y1="48" x2="63.5" y2="48" fill="none" stroke="#6576ff" stroke-linecap="round" stroke-linejoin="round" stroke-width="2"/><line x1="45.5" y1="70" x2="45.5" y2="40" fill="none" stroke="#6576ff" stroke-linecap="round" stroke-linejoin="round" stroke-width="2"/><line x1="34.5" y1="56" x2="63.5" y2="56" fill="none" stroke="#6576ff" stroke-linecap="round" stroke-linejoin="round" stroke-width="2"/><line x1="34.5" y1="64" x2="63.5" y2="64" fill="none" stroke="#6576ff" stroke-linecap="round" stroke-linejoin="round" stroke-width="2"/></svg>