<svg xmlns="http://www.w3.org/2000/svg" viewBox="0 0 71.9904 75.9285"><path fill="currentColor" d="M27.14,23.73A15.55,15.55,0,1,0,42.57,39.4v-.12A15.5,15.5,0,0,0,27.14,23.73Zm11.42,9.72H33a25.55,25.55,0,0,0-2.21-6.53A12.89,12.89,0,0,1,38.56,33.45ZM31,39.28a26.9929,26.9929,0,0,1-.2,3.24H23.49a26.0021,26.0021,0,0,1,0-6.48H30.8A29.3354,29.3354,0,0,1,31,39.28ZM26.77,26.36h.75a21.7394,21.7394,0,0,1,2.85,7.09H23.91A21.7583,21.7583,0,0,1,26.77,26.36Zm-3.28.56a25.1381,25.1381,0,0,0-2.2,6.53H15.72a12.88,12.88,0,0,1,7.78-6.53ZM14.28,39.28A13.2013,13.2013,0,0,1,14.74,36H20.9a29.25,29.25,0,0,0,0,6.48H14.74A13.1271,13.1271,0,0,1,14.28,39.28Zm1.44,5.83h5.57a25.9082,25.9082,0,0,0,2.2,6.53A12.89,12.89,0,0,1,15.72,45.11ZM27.51,52.2h-.74a21.7372,21.7372,0,0,1-2.85-7.09h6.44A21.52,21.52,0,0,1,27.51,52.2Zm3.28-.56A25.1413,25.1413,0,0,0,33,45.11h5.57a12.84,12.84,0,0,1-7.77,6.53Zm2.59-9.12a28.4606,28.4606,0,0,0,0-6.48h6.15a11.7,11.7,0,0,1,0,6.48ZM14.29,62.6H40v2.6H14.28V62.61ZM56.57,49l1.33-5,2.48.67-1.33,5Zm-6,22.52L55.24,54l2.48.67L53.06,72.14Zm21.6-61.24-29.8-8a5.13,5.13,0,0,0-6.29,3.61h0L33.39,16H6.57A2.58,2.58,0,0,0,4,18.55V70.38A2.57,2.57,0,0,0,6.52,73L6.57,73h29.7l17.95,4.85a5.12,5.12,0,0,0,6.28-3.6v-.06L75.8,16.61a5.18,5.18,0,0,0-3.6066-6.3763L72.18,10.23ZM6.57,70.38V18.55H45.14a2.57,2.57,0,0,1,2.57,2.57V67.79a2.57,2.57,0,0,1-2.55,2.59H6.57ZM73.34,15.91,58,73.48a2.59,2.59,0,0,1-2.48,1.93,2.5192,2.5192,0,0,1-.67-.09l-9-2.42a5.15,5.15,0,0,0,4.37-5.11V47.24l1.32.36,1.33-5-2.49-.67-.16.62V21.94l2.62.71,3.05,10,2.13.57L57.88,24l3.76,1,1.65,3,1.42.39-.25-4.09,2.24-3.42-1.41-.39L62.4,22.15l-3.76-1,4.76-7.92-2.13-.57-7.6,7.14-4-1.08A5.1,5.1,0,0,0,45.14,16H36.05l2.51-9.45a2.57,2.57,0,0,1,3.12-1.84h0l29.81,8.05a2.56,2.56,0,0,1,1.56,1.21A2.65,2.65,0,0,1,73.34,15.91ZM56.57,39.59l.66-2.5,2.44.65L59,40.24Zm4.88,1.31.66-2.51,2.44.66-.65,2.5Zm-9.76-2.61.66-2.51,2.45.66-.66,2.5Z" transform="translate(-3.9995 -2.101)" fill="#6476ff"/></svg>