<svg xmlns="http://www.w3.org/2000/svg" viewBox="0 0 90 90"><rect x="5" y="10" width="70" height="60" rx="7" ry="7" fill="#e3e7fe" stroke="#6576ff" stroke-linecap="round" stroke-linejoin="round" stroke-width="2"/><rect x="15" y="20" width="70" height="60" rx="7" ry="7" fill="#fff" stroke="#6576ff" stroke-linecap="round" stroke-linejoin="round" stroke-width="2"/><path d="M47.4,52.58S37.23,62.76,31.63,56.16c-4.88-5.76-5.13-11.09-1.41-14.81s11.53-3.87,15.92,1.19,10,10.79,12.49,12.35,11.83,2.75,13.62-5.36-5.13-9.3-7.59-9.67c-.69-.1-2.27,1-4.39,2.29C54.93,45.42,47.4,52.58,47.4,52.58Z" fill="#e3e7fe" fill-rule="evenodd"/><path d="M44.66,41.42a11,11,0,0,0-4.81-2.78,10.12,10.12,0,1,0,0,19.72,11,11,0,0,0,4.81-2.78q1.58-1.45,3.1-2.94l-.2-.19c-1,1-2.05,2-3.08,2.93a10.65,10.65,0,0,1-4.7,2.71,9.84,9.84,0,1,1,0-19.18,10.65,10.65,0,0,1,4.7,2.71c4.52,4.22,8.85,8.64,13.38,12.86A9.48,9.48,0,0,0,62,56.89a8.61,8.61,0,1,0,0-16.78,9.48,9.48,0,0,0-4.11,2.41c-1,.95-2,1.91-3,2.88l.2.19,3-2.87a9.3,9.3,0,0,1,4-2.34,8.34,8.34,0,1,1,0,16.24,9.3,9.3,0,0,1-4-2.34c-4.52-4.22-8.85-8.65-13.38-12.86Z" fill="#6576ff" stroke="#6576ff" stroke-linecap="round" stroke-linejoin="round" stroke-width="2" fill-rule="evenodd"/></svg>