<svg xmlns="http://www.w3.org/2000/svg" viewBox="0 0 90 90"><rect x="5" y="7" width="60" height="56" rx="7" ry="7" fill="#e3e7fe" stroke="#6576ff" stroke-linecap="round" stroke-linejoin="round" stroke-width="2"/><rect x="25" y="27" width="60" height="56" rx="7" ry="7" fill="#e3e7fe" stroke="#6576ff" stroke-linecap="round" stroke-linejoin="round" stroke-width="2"/><rect x="15" y="17" width="60" height="56" rx="7" ry="7" fill="#fff" stroke="#6576ff" stroke-linecap="round" stroke-linejoin="round" stroke-width="2"/><line x1="15" y1="29" x2="75" y2="29" fill="none" stroke="#6576ff" stroke-miterlimit="10" stroke-width="2"/><circle cx="53" cy="23" r="2" fill="#c4cefe"/><circle cx="60" cy="23" r="2" fill="#c4cefe"/><circle cx="67" cy="23" r="2" fill="#c4cefe"/><rect x="22" y="39" width="20" height="20" rx="2" ry="2" fill="none" stroke="#6576ff" stroke-linecap="round" stroke-linejoin="round" stroke-width="2"/><circle cx="32" cy="45.81" r="2" fill="none" stroke="#6576ff" stroke-linecap="round" stroke-linejoin="round" stroke-width="2"/><path d="M29,54.31a3,3,0,0,1,6,0" fill="none" stroke="#6576ff" stroke-linecap="round" stroke-linejoin="round" stroke-width="2"/><line x1="49" y1="40" x2="69" y2="40" fill="none" stroke="#6576ff" stroke-linecap="round" stroke-linejoin="round" stroke-width="2"/><line x1="49" y1="51" x2="69" y2="51" fill="none" stroke="#c4cefe" stroke-linecap="round" stroke-linejoin="round" stroke-width="2"/><line x1="49" y1="57" x2="59" y2="57" fill="none" stroke="#c4cefe" stroke-linecap="round" stroke-linejoin="round" stroke-width="2"/><line x1="64" y1="57" x2="66" y2="57" fill="none" stroke="#c4cefe" stroke-linecap="round" stroke-linejoin="round" stroke-width="2"/><line x1="49" y1="46" x2="59" y2="46" fill="none" stroke="#c4cefe" stroke-linecap="round" stroke-linejoin="round" stroke-width="2"/><line x1="64" y1="46" x2="66" y2="46" fill="none" stroke="#c4cefe" stroke-linecap="round" stroke-linejoin="round" stroke-width="2"/></svg>