<svg xmlns="http://www.w3.org/2000/svg" viewBox="0 0 90 90"><path d="M26,70.78V24.5a7,7,0,0,1,7-7H69a9,9,0,0,1,9,9v49a7,7,0,0,1-7,7H16.55S25.72,78.89,26,70.78Z" fill="#fff" stroke="#6576ff" stroke-linecap="round" stroke-linejoin="round" stroke-width="2"/><path d="M7,30.5H26a0,0,0,0,1,0,0V73.9a8.6,8.6,0,0,1-8.6,8.6H13.6A8.6,8.6,0,0,1,5,73.9V32.5a2,2,0,0,1,2-2Z" fill="#e3e7fe" stroke="#6576ff" stroke-linecap="round" stroke-linejoin="round" stroke-width="2"/><circle cx="71.5" cy="21" r="13.5" fill="#fff" stroke="#6576ff" stroke-linecap="round" stroke-linejoin="round" stroke-width="2"/><rect x="34" y="33.5" width="16" height="8" rx="1" ry="1" fill="#c4cefe"/><line x1="35" y1="46.5" x2="67" y2="46.5" fill="none" stroke="#c4cefe" stroke-linecap="round" stroke-linejoin="round" stroke-width="2"/><line x1="35" y1="53.5" x2="67" y2="53.5" fill="none" stroke="#c4cefe" stroke-linecap="round" stroke-linejoin="round" stroke-width="2"/><line x1="35" y1="59.5" x2="67" y2="59.5" fill="none" stroke="#c4cefe" stroke-linecap="round" stroke-linejoin="round" stroke-width="2"/><line x1="35" y1="64.5" x2="67" y2="64.5" fill="none" stroke="#c4cefe" stroke-linecap="round" stroke-linejoin="round" stroke-width="2"/><line x1="35" y1="71.5" x2="51" y2="71.5" fill="none" stroke="#c4cefe" stroke-linecap="round" stroke-linejoin="round" stroke-width="2"/><path d="M75.24,23.79a5.2,5.2,0,0,1-6.42,2.57,5.78,5.78,0,0,1-3.26-7.25,5.25,5.25,0,0,1,6.8-3.47,5.35,5.35,0,0,1,2,1.34l2.75,2.75" fill="none" stroke="#6576ff" stroke-linecap="round" stroke-linejoin="round" stroke-width="2"/><polyline points="77.75 16.61 77.75 20.61 73.75 20.61" fill="none" stroke="#6576ff" stroke-linecap="round" stroke-linejoin="round" stroke-width="2"/></svg>