<svg xmlns="http://www.w3.org/2000/svg" viewBox="0 0 90 90"><rect x="5" y="8" width="70" height="50" rx="7" ry="7" fill="#e3e7fe" stroke="#6576ff" stroke-linecap="round" stroke-linejoin="round" stroke-width="2"/><rect x="15" y="16" width="70" height="50" rx="7" ry="7" fill="#fff" stroke="#6576ff" stroke-linecap="round" stroke-linejoin="round" stroke-width="2"/><rect x="35" y="74" width="30" height="8" rx="1" ry="1" fill="#fff" stroke="#6576ff" stroke-linecap="round" stroke-linejoin="round" stroke-width="2"/><line x1="42" y1="66" x2="42" y2="74" fill="none" stroke="#6576ff" stroke-linecap="round" stroke-linejoin="round" stroke-width="2"/><line x1="58" y1="66" x2="58" y2="74" fill="none" stroke="#6576ff" stroke-linecap="round" stroke-linejoin="round" stroke-width="2"/><rect x="25" y="24" width="50" height="34" rx="3" ry="3" fill="#eff1ff"/><line x1="63" y1="51" x2="63" y2="48" fill="none" stroke="#6576ff" stroke-linecap="round" stroke-linejoin="round" stroke-width="2"/><line x1="63" y1="41" x2="63" y2="31" fill="none" stroke="#6576ff" stroke-linecap="round" stroke-linejoin="round" stroke-width="2"/><circle cx="63" cy="45" r="3" fill="none" stroke="#6576ff" stroke-linecap="round" stroke-linejoin="round" stroke-width="2"/><line x1="54" y1="31" x2="54" y2="34" fill="none" stroke="#6576ff" stroke-linecap="round" stroke-linejoin="round" stroke-width="2"/><line x1="54" y1="41" x2="54" y2="51" fill="none" stroke="#6576ff" stroke-linecap="round" stroke-linejoin="round" stroke-width="2"/><circle cx="54" cy="37" r="3" fill="none" stroke="#6576ff" stroke-linecap="round" stroke-linejoin="round" stroke-width="2"/><line x1="44" y1="31" x2="44" y2="38" fill="none" stroke="#6576ff" stroke-linecap="round" stroke-linejoin="round" stroke-width="2"/><line x1="44" y1="44" x2="44" y2="51" fill="none" stroke="#6576ff" stroke-linecap="round" stroke-linejoin="round" stroke-width="2"/><circle cx="44" cy="41" r="3" fill="none" stroke="#6576ff" stroke-linecap="round" stroke-linejoin="round" stroke-width="2"/><line x1="34" y1="31" x2="34" y2="34" fill="none" stroke="#6576ff" stroke-linecap="round" stroke-linejoin="round" stroke-width="2"/><line x1="34" y1="41" x2="34" y2="51" fill="none" stroke="#6576ff" stroke-linecap="round" stroke-linejoin="round" stroke-width="2"/><circle cx="34" cy="37" r="3" fill="none" stroke="#6576ff" stroke-linecap="round" stroke-linejoin="round" stroke-width="2"/></svg>