<svg xmlns="http://www.w3.org/2000/svg" viewBox="0 0 90 90"><rect x="3" y="12.5" width="64" height="63.37" rx="7" ry="7" fill="#fff" stroke="#6576ff" stroke-linecap="round" stroke-linejoin="round" stroke-width="2"/><path d="M10,13.49H60a6,6,0,0,1,6,6v3.9a0,0,0,0,1,0,0H4a0,0,0,0,1,0,0v-3.9A6,6,0,0,1,10,13.49Z" fill="#e3e7fe"/><rect x="3" y="23.39" width="64" height="1.98" fill="#6576ff"/><path d="M65.37,31.31H76.81A12.24,12.24,0,0,0,87,42S88.12,66.31,65.37,77.5C42.62,66.31,43.75,42,43.75,42A12.23,12.23,0,0,0,53.93,31.31Z" fill="#fff" stroke="#6576ff" stroke-miterlimit="10" stroke-width="2"/><path d="M66,72.62c19-9.05,18.1-28.71,18.1-28.71s-7.47-.94-8.52-8.64H66Z" fill="#e3e7fe"/><polygon points="56 46.16 55 46.16 55 42.2 59 42.2 59 43.2 56 43.2 56 46.16" fill="#010863"/><polygon points="59 65.97 55 65.97 55 62.01 56 62.01 56 64.98 59 64.98 59 65.97" fill="#010863"/><polygon points="78 65.97 74 65.97 74 64.98 77 64.98 77 62.01 78 62.01 78 65.97" fill="#010863"/><polygon points="78 46.16 77 46.16 77 43.2 74 43.2 74 42.2 78 42.2 78 46.16" fill="#010863"/><path d="M70,51.12H62V48.86a3.74,3.74,0,0,1,3.17-3.57c2.56-.46,4.83,1.28,4.83,3.49Zm-7-1h6V48.56a2.78,2.78,0,0,0-2-2.63,3,3,0,0,0-4,2.64Z" fill="#6576ff"/><path d="M58,57.28V50.13H74V57.5c0,4.62-4.65,8.26-9.86,7.17A7.63,7.63,0,0,1,58,57.28Z" fill="#e5effe"/><path d="M59,51.12v6.7A7,7,0,0,0,73,58V51.12Z" fill="#6576ff"/><ellipse cx="66" cy="55.08" rx="2" ry="1.98" fill="#fff"/><polygon points="68.91 62.01 63.84 62.01 65.18 56.07 67.57 56.07 68.91 62.01" fill="#fff"/><path d="M72,51.12H60V48.66a5.41,5.41,0,0,1,4.06-5.14c4.13-1.14,7.94,1.54,7.94,5Zm-11-1H71V48.49A4.69,4.69,0,0,0,67.08,44c-3.23-.6-6.08,1.58-6.08,4.33Z" fill="#6576ff"/><rect x="13" y="32.3" width="22" height="5.94" rx="1" ry="1" fill="none" stroke="#6576ff" stroke-miterlimit="10" stroke-width="2"/><rect x="12" y="45.17" width="22" height="5.94" rx="1" ry="1" fill="none" stroke="#6576ff" stroke-miterlimit="10" stroke-width="2"/><rect x="12" y="57.06" width="12" height="5.94" rx="1" ry="1" fill="none" stroke="#6576ff" stroke-miterlimit="10" stroke-width="2"/></svg>