<svg xmlns="http://www.w3.org/2000/svg" viewBox="0 0 90 90"><path d="M63.42,87H10.58A4.08,4.08,0,0,1,6.5,82.92V7.08A4.08,4.08,0,0,1,10.58,3H48.32L67.5,21.23V82.92A4.08,4.08,0,0,1,63.42,87ZM47.5,3V16.92A4,4,0,0,0,51.38,21H66.5" fill="#fff" stroke="#6576ff" stroke-linecap="round" stroke-miterlimit="10" stroke-width="2"/><circle cx="63.5" cy="67" r="20" fill="#6576ff"/><path d="M61.87,71a6.83,6.83,0,0,1,.39-2.55,6.71,6.71,0,0,1,1.51-2.09,11.82,11.82,0,0,0,1.44-1.61,2.92,2.92,0,0,0,.47-1.59,2.47,2.47,0,0,0-.55-1.72,2,2,0,0,0-1.58-.6,2.22,2.22,0,0,0-1.61.59A2,2,0,0,0,61.33,63H58.5a4.39,4.39,0,0,1,1.4-3.37,5.27,5.27,0,0,1,3.65-1.24,5.09,5.09,0,0,1,3.64,1.23,4.48,4.48,0,0,1,1.31,3.43,5.69,5.69,0,0,1-1.77,3.86L65.3,68.37A4.08,4.08,0,0,0,64.51,71Zm-.3,3.17A1.6,1.6,0,0,1,62,73,1.69,1.69,0,0,1,65,74.17a1.65,1.65,0,0,1-.44,1.17,1.67,1.67,0,0,1-1.26.46A1.62,1.62,0,0,1,62,75.34,1.65,1.65,0,0,1,61.57,74.17Z" fill="#fff"/><circle cx="17" cy="21.5" r="4.5" fill="none" stroke="#6576ff" stroke-miterlimit="10" stroke-width="2"/><line x1="28.5" y1="20" x2="36.5" y2="20" fill="none" stroke="#6576ff" stroke-miterlimit="10" stroke-width="2"/><line x1="28.5" y1="24" x2="43.5" y2="24" fill="none" stroke="#6576ff" stroke-miterlimit="10" stroke-width="2"/><circle cx="17" cy="39.5" r="4.5" fill="none" stroke="#6576ff" stroke-miterlimit="10" stroke-width="2"/><line x1="28.5" y1="37" x2="36.5" y2="37" fill="none" stroke="#6576ff" stroke-miterlimit="10" stroke-width="2"/><line x1="28.5" y1="42" x2="43.5" y2="42" fill="none" stroke="#6576ff" stroke-miterlimit="10" stroke-width="2"/><circle cx="17" cy="56.5" r="4.5" fill="none" stroke="#6576ff" stroke-miterlimit="10" stroke-width="2"/><line x1="28.5" y1="54" x2="36.5" y2="54" fill="none" stroke="#6576ff" stroke-miterlimit="10" stroke-width="2"/><line x1="28.5" y1="59" x2="43.5" y2="59" fill="none" stroke="#6576ff" stroke-miterlimit="10" stroke-width="2"/></svg>