<svg xmlns="http://www.w3.org/2000/svg" viewBox="0 0 90 90"><path d="M29,74H11a7,7,0,0,1-7-7V17a7,7,0,0,1,7-7H61a7,7,0,0,1,7,7V30" fill="#fff" stroke="#6576ff" stroke-linecap="round" stroke-linejoin="round" stroke-width="2"/><path d="M11,11H61a6,6,0,0,1,6,6v4a0,0,0,0,1,0,0H5a0,0,0,0,1,0,0V17A6,6,0,0,1,11,11Z" fill="#e3e7fe"/><circle cx="11" cy="16" r="2" fill="#6576ff"/><circle cx="17" cy="16" r="2" fill="#6576ff"/><circle cx="23" cy="16" r="2" fill="#6576ff"/><rect x="11" y="27" width="19" height="19" rx="1" ry="1" fill="#c4cefe"/><path d="M33.8,53.79c.33-.43.16-.79-.39-.79H12a1,1,0,0,0-1,1V64a1,1,0,0,0,1,1H31a1,1,0,0,0,1-1V59.19a10.81,10.81,0,0,1,.23-2Z" fill="#c4cefe"/><line x1="36" y1="29" x2="60" y2="29" fill="none" stroke="#c4cefe" stroke-linecap="round" stroke-linejoin="round" stroke-width="2"/><line x1="36" y1="34" x2="55" y2="34" fill="none" stroke="#c4cefe" stroke-linecap="round" stroke-linejoin="round" stroke-width="2"/><line x1="36" y1="39" x2="50" y2="39" fill="none" stroke="#c4cefe" stroke-linecap="round" stroke-linejoin="round" stroke-width="2"/><line x1="36" y1="44" x2="46" y2="44" fill="none" stroke="#c4cefe" stroke-linecap="round" stroke-linejoin="round" stroke-width="2"/><rect x="4" y="21" width="64" height="2" fill="#6576ff"/><rect x="36" y="56" width="38" height="24" rx="5" ry="5" fill="#fff" stroke="#e3e7fe" stroke-linecap="round" stroke-linejoin="round" stroke-width="2"/><rect x="41" y="60" width="12" height="9" rx="1" ry="1" fill="#c4cefe"/><path d="M84.74,53.51,66.48,35.25a4.31,4.31,0,0,0-6.09,0l-9.13,9.13a4.31,4.31,0,0,0,0,6.09L69.52,68.73a4.31,4.31,0,0,0,6.09,0l9.13-9.13A4.31,4.31,0,0,0,84.74,53.51Zm-15-5.89L67,50.3a2.15,2.15,0,0,1-3,0l-4.76-4.76a2.16,2.16,0,0,1,0-3l2.67-2.67a2.16,2.16,0,0,1,3,0l4.76,4.76A2.15,2.15,0,0,1,69.72,47.62Z" fill="#6576ff"/></svg>