<svg xmlns="http://www.w3.org/2000/svg" viewBox="0 0 90 90"><rect x="5" y="9" width="70" height="51.71" rx="7" ry="7" fill="#e3e7fe" stroke="#6576ff" stroke-linecap="round" stroke-linejoin="round" stroke-width="2"/><path d="M15,63.7V25.91a7,7,0,0,1,7-7H78a7,7,0,0,1,7,7V63.7a7,7,0,0,1-7,7H31L15,81Z" fill="#fff" stroke="#6576ff" stroke-linecap="round" stroke-linejoin="round" stroke-width="2"/><path d="M63,51.72v4.39a2.94,2.94,0,0,1-3,2.94h-.28A29.49,29.49,0,0,1,47,54.54,29.26,29.26,0,0,1,33.58,33.07a2.93,2.93,0,0,1,2.68-3.17l.27,0H41a3,3,0,0,1,3,3.27,3.75,3.75,0,0,0,.63,2.65,2.9,2.9,0,0,1-.27,3.8l-1.88,1.86a23.51,23.51,0,0,0,8.87,8.78l1.88-1.86a3,3,0,0,1,3.15-.65,19.64,19.64,0,0,0,4.13,1A2.93,2.93,0,0,1,63,51.72Z" fill="#e3e7fe" stroke="#6576ff" stroke-linecap="round" stroke-linejoin="round" stroke-width="2"/><text transform="translate(50.23 41.17) scale(1.01 1)" font-size="14.07" fill="#9cabff" font-family="Nunito-Bold, Nunito" font-weight="700" letter-spacing="-0.05em">24</text></svg>