<svg xmlns="http://www.w3.org/2000/svg" viewBox="0 0 90 90"><path d="M62.92,87H10.08A4.08,4.08,0,0,1,6,82.92V7.08A4.08,4.08,0,0,1,10.08,3H47.82L67,21.23V82.92A4.08,4.08,0,0,1,62.92,87ZM47,3V16.92A4,4,0,0,0,50.88,21H66" fill="#fff" stroke="#6576ff" stroke-linecap="round" stroke-miterlimit="10" stroke-width="2"/><line x1="14" y1="14" x2="28" y2="14" fill="none" stroke="#c4cefe" stroke-linecap="round" stroke-linejoin="round" stroke-width="2"/><line x1="14" y1="19" x2="36" y2="19" fill="none" stroke="#c4cefe" stroke-linecap="round" stroke-linejoin="round" stroke-width="2"/><line x1="14" y1="37" x2="28" y2="37" fill="none" stroke="#c4cefe" stroke-linecap="round" stroke-linejoin="round" stroke-width="2"/><line x1="14" y1="42" x2="45" y2="42" fill="none" stroke="#c4cefe" stroke-linecap="round" stroke-linejoin="round" stroke-width="2"/><line x1="14" y1="49" x2="40" y2="49" fill="none" stroke="#c4cefe" stroke-linecap="round" stroke-linejoin="round" stroke-width="2"/><line x1="14" y1="56" x2="32" y2="56" fill="none" stroke="#c4cefe" stroke-linecap="round" stroke-linejoin="round" stroke-width="2"/><line x1="14" y1="63" x2="38" y2="63" fill="none" stroke="#c4cefe" stroke-linecap="round" stroke-linejoin="round" stroke-width="2"/><line x1="14" y1="70" x2="30" y2="70" fill="none" stroke="#c4cefe" stroke-linecap="round" stroke-linejoin="round" stroke-width="2"/><path d="M67,40h9a9.59,9.59,0,0,0,8,8.32s.89,19-17,27.68C49.12,67.28,50,48.32,50,48.32A9.59,9.59,0,0,0,58,40Z" fill="#6576ff"/><path d="M67,72.51C52.12,65.35,52.86,49.82,52.86,49.82A7.94,7.94,0,0,0,59.52,43H67Z" fill="#fff"/><path d="M62,61.77a11.05,11.05,0,0,1,12,0V65H62Z" fill="#fff"/><circle cx="68.5" cy="54.5" r="3.5" fill="#fff"/><path d="M68.47,58.13a4,4,0,1,1,4-4,4,4,0,0,1-4,4Zm0-6.92a3,3,0,1,0,3,3,3,3,0,0,0-3-3Zm0,0" fill="#6576ff"/><path d="M74.5,66h-13a.51.51,0,0,1-.5-.5V62.1a1.46,1.46,0,0,1,.69-1.25,12.32,12.32,0,0,1,12.66,0A1.46,1.46,0,0,1,75,62.1v3.41a.49.49,0,0,1-.5.49ZM62,65H74V62.09a.47.47,0,0,0-.22-.41,11.28,11.28,0,0,0-11.56,0,.47.47,0,0,0-.22.41Zm.53,0" fill="#6576ff"/></svg>