<svg xmlns="http://www.w3.org/2000/svg" viewBox="0 0 90 90"><rect x="3" y="10" width="70" height="50" rx="7" ry="7" fill="#e3e7fe" stroke="#6576ff" stroke-linecap="round" stroke-linejoin="round" stroke-width="2"/><rect x="13" y="24" width="70" height="50" rx="7" ry="7" fill="#fff" stroke="#6576ff" stroke-linecap="round" stroke-linejoin="round" stroke-width="2"/><line x1="20" y1="33" x2="31" y2="33" fill="none" stroke="#9cabff" stroke-linecap="round" stroke-linejoin="round" stroke-width="2"/><line x1="75" y1="33" x2="77" y2="33" fill="none" stroke="#9cabff" stroke-linecap="round" stroke-linejoin="round" stroke-width="2"/><line x1="66" y1="33" x2="67" y2="33" fill="none" stroke="#9cabff" stroke-linecap="round" stroke-linejoin="round" stroke-width="2"/><line x1="70" y1="33" x2="72" y2="33" fill="none" stroke="#9cabff" stroke-linecap="round" stroke-linejoin="round" stroke-width="2"/><rect x="19" y="40" width="56" height="7" rx="2" ry="2" fill="#eff1ff"/><rect x="20" y="51" width="24" height="8" rx="2" ry="2" fill="#eff1ff"/><rect x="48" y="51" width="7" height="8" rx="2" ry="2" fill="#eff1ff"/><ellipse cx="69" cy="61.98" rx="18" ry="18.02" fill="#fff" stroke="#6576ff" stroke-linecap="round" stroke-linejoin="round" stroke-width="2"/><circle cx="69" cy="62" r="7" fill="#e3e7fe"/><polyline points="77 56 77 60 73 60" fill="none" stroke="#6576ff" stroke-linecap="round" stroke-linejoin="round" stroke-width="2"/><path d="M62.26,59.17a6.81,6.81,0,0,1,11.25-2.55L77,59.92" fill="none" stroke="#6576ff" stroke-linecap="round" stroke-linejoin="round" stroke-width="2"/><polyline points="61 67 61 63 65 63" fill="none" stroke="#6576ff" stroke-linecap="round" stroke-linejoin="round" stroke-width="2"/><path d="M61.43,64l3.51,3.31A6.83,6.83,0,0,0,76.2,64.79" fill="none" stroke="#6576ff" stroke-linecap="round" stroke-linejoin="round" stroke-width="2"/></svg>