<?xml version="1.0" encoding="utf-8"?>
<!-- Generator: Adobe Illustrator 19.0.0, SVG Export Plug-In . SVG Version: 6.00 Build 0)  -->
<svg version="1.1" id="Calque_1" xmlns="http://www.w3.org/2000/svg" xmlns:xlink="http://www.w3.org/1999/xlink" x="0px" y="0px"
	 viewBox="322 114 1144.4 273" style="enable-background:new 322 114 1144.4 273;" xml:space="preserve">
<style type="text/css">
	.st0{fill:#334258;}
	.st1{fill:#0F7CFF;}
</style>
<g>
	<rect id="XMLID_25_" x="466.8" y="117.5" class="st0" width="120.4" height="125.8"/>
	<rect id="XMLID_24_" x="466.8" y="255.2" class="st1" width="120.4" height="128.3"/>
	<rect id="XMLID_23_" x="336.5" y="117.5" class="st0" width="120.4" height="125.8"/>
	<rect id="XMLID_22_" x="336.5" y="255.2" class="st0" width="120.4" height="128.3"/>
	<g>
		<path class="st0" d="M743,117.5c21.5,0,37.1,5,46.7,15c9.6,10,14.4,25.1,14.4,45.4v9.4c0,13.5-2.1,24.6-6.4,33.4
			c-4.3,8.8-11,15.3-20.3,19.5c11.3,4.3,19.2,11.2,23.8,20.8c4.6,9.6,6.9,21.5,6.9,35.5v21.4c0,20.3-5.3,35.7-15.8,46.3
			S766.2,380,745.4,380h-64.9V117.5H743z M722,155v69.4h16.1c7.8,0,13.8-2,18.2-6s6.6-11.3,6.6-21.8V182c0-9.5-1.7-16.4-5.1-20.6
			c-3.4-4.3-8.7-6.4-15.9-6.4H722z M722,261.9v80.7h23.6c7,0,12.3-1.9,15.9-5.6c3.6-3.8,5.4-10.5,5.4-20.3v-22.9
			c0-12.3-2.1-20.6-6.2-25.1c-4.1-4.5-10.9-6.8-20.4-6.8L722,261.9L722,261.9z"/>
		<path class="st0" d="M872.5,117.5v202.6c0,9.5,1.9,16.1,5.8,19.9c3.9,3.8,9.1,5.6,15.6,5.6s11.7-1.9,15.6-5.6
			c3.9-3.8,5.8-10.4,5.8-19.9V117.5h39v200c0,21.3-5.2,37.6-15.6,49s-25.7,17.1-46,17.1s-35.6-5.7-46-17.1s-15.6-27.7-15.6-49v-200
			H872.5z"/>
		<path class="st0" d="M982.5,117.5h41.3v225.1h67.9v37.5H982.5V117.5z"/>
		<path class="st1" d="M1163.7,275.4l-12.8,24v80.7h-41.3V117.5h41.3v114.4l54.1-114.4h41.3l-57.4,117.1l57.4,145.6h-42.4
			L1163.7,275.4z"/>
		<path class="st1" d="M1264.9,117.5h41.3v262.7h-41.3V117.5z"/>
		<path class="st1" d="M1324.3,117.5h127.6V155h-43.2v225.1h-41.3V155h-43.2L1324.3,117.5L1324.3,117.5z"/>
	</g>
</g>
</svg>
