<?xml version="1.0" encoding="utf-8"?>
<!-- Generator: Adobe Illustrator 19.0.0, SVG Export Plug-In . SVG Version: 6.00 Build 0)  -->
<svg version="1.1" id="Layer_1" xmlns="http://www.w3.org/2000/svg" xmlns:xlink="http://www.w3.org/1999/xlink" x="0px" y="0px"
	 viewBox="-49 141 512 512" style="enable-background:new -49 141 512 512;" xml:space="preserve">
<style type="text/css">
	.st0{fill:#D4E1F4;}
	.st1{fill:#0068FF;}
	.st2{fill:#FF2E83;}
</style>
<path class="st0" d="M297.2,577.8c-8.9-6-17.3-16.6-23.1-29.1c-4.4-9.5-6.8-19.2-6.8-27.4v-87.5l91.5-44.8l71.5,35.1v-0.2L338.9,379
	l-91.5,44.8v87.5c0,8.2,2.4,17.9,6.8,27.4c5.8,12.4,14.2,23,23.1,29.1l61.6,42l2.7-1.8L297.2,577.8z"/>
<path class="st1" d="M110.4,300.2c-0.1,8.5-7,15.3-15.5,15.2c-8.4-0.1-15.2-6.9-15.2-15.2c0-3.3-2.7-6-6-6s-6,2.7-6,6
	c0.1,15.1,12.4,27.3,27.5,27.2c15-0.1,27.1-12.2,27.2-27.2c0-3.3-2.7-6-6-6S110.4,296.9,110.4,300.2z"/>
<path class="st1" d="M404.8,309c-3.3,0-6,2.7-6,6c0,15.4-11.5,28.4-26.8,30.2c-9.6-78.7-83.2-140-172.3-140
	c-10.7,0-21.5,0.8-32.1,2.5c-15.1-22.8-40.6-36.6-67.9-36.6c-3.3,0-6,2.7-6,6c0,0.6,0.1,1.2,0.3,1.8l1.9,6
	c3.8,12.4,5.2,25.4,4.2,38.3c-33.5,13.4-61.9,36.9-81.2,67.3l-7.6,12h-21c-10.3,0-18.6,8.3-18.6,18.6v79.8
	c0,10.3,8.3,18.6,18.6,18.6h21.5c5.8,11.3,13.1,21.8,21.6,31.2c17,19,26.4,43.6,26.3,69.1c0,13.5,11,24.5,24.5,24.5H110
	c13.5,0,24.5-11,24.5-24.5c0-6.9,5.6-12.5,12.5-12.5h48.1c6.9,0,12.5,5.6,12.5,12.5c0,13.5,11,24.5,24.5,24.5h15.2c3.3,0,6-2.7,6-6
	s-2.7-6-6-6h-15.2c-6.9,0-12.5-5.6-12.5-12.5c0-13.5-11-24.5-24.5-24.5H147c-13.5,0-24.5,11-24.5,24.5c0,6.9-5.6,12.5-12.5,12.5
	H84.2c-6.9,0-12.5-5.6-12.5-12.5c0.1-28.5-10.4-56-29.4-77.1c-8.6-9.5-15.8-20.2-21.4-31.7c-1-2.1-3.1-3.4-5.4-3.4H-9.8
	c-3.6,0-6.6-2.9-6.6-6.6V321c0-3.6,2.9-6.6,6.6-6.6h24.3c2.1,0,4-1.1,5.1-2.8l9.3-14.8c18.6-29.2,46.2-51.6,78.6-63.8
	c2.2-0.7,3.8-2.7,4.1-5c1.7-15,0.5-30.1-3.6-44.6c34.9,4.2,61.1,33.8,61.2,68.9c0,3.3,2.7,6,6,6s6-2.7,6-6c0-11.6-2.5-23.1-7.3-33.6
	c8.6-1.1,17.2-1.7,25.9-1.7c89,0,161.3,65.3,161.3,145.6c0,7.3-0.6,14.5-1.8,21.7c-0.5,3.3,1.7,6.4,4.9,6.9c3.3,0.5,6.4-1.7,6.9-4.9
	c0,0,0,0,0,0c1.3-7.8,1.9-15.7,1.9-23.6c0-1.9,0-3.7-0.1-5.6c21.5-2.3,37.9-20.5,37.9-42.1C410.8,311.6,408.2,309,404.8,309
	C404.8,309,404.8,309,404.8,309L404.8,309z"/>
<g>
	<path class="st2" d="M336.2,367l-97.5,47.7c-2.1,1-3.4,3.1-3.4,5.4v91.3c0,10,2.7,21.3,7.9,32.4c6.7,14.3,16.6,26.7,27.2,33.9
		l65,44.3c2,1.4,4.7,1.4,6.8,0l65-44.3c19.7-13.4,35.1-42.6,35.1-66.4v-91.1c0-2.3-1.3-4.4-3.4-5.4L341.5,367
		C339.8,366.2,337.9,366.2,336.2,367L336.2,367z M430.4,511.3c0,19.6-13.7,45.4-29.9,56.4l-61.6,42l-61.6-42
		c-8.9-6-17.3-16.6-23.1-29.1c-4.4-9.5-6.8-19.2-6.8-27.4v-87.5l91.5-44.8l91.5,44.9V511.3z"/>
	<path class="st2" d="M301.8,487.5c-2.4-2.3-6.2-2.3-8.5,0.1c-2.3,2.4-2.3,6.2,0.1,8.5c0,0,0,0,0,0l29.4,28.7c2.3,2.3,6,2.3,8.4,0
		l53.1-51.8c2.4-2.3,2.5-6.1,0.2-8.5c-2.3-2.4-6.1-2.5-8.5-0.2c0,0,0,0,0,0l-48.9,47.7L301.8,487.5z"/>
</g>
</svg>
