<?xml version="1.0" encoding="utf-8"?>
<!-- Generator: Adobe Illustrator 19.0.0, SVG Export Plug-In . SVG Version: 6.00 Build 0)  -->
<svg version="1.1" id="Calque_1" xmlns="http://www.w3.org/2000/svg" xmlns:xlink="http://www.w3.org/1999/xlink" x="0px" y="0px"
	 viewBox="0 0 98.3 122.2" style="enable-background:new 0 0 98.3 122.2;" xml:space="preserve">
<style type="text/css">
	.st0{fill:none;stroke:#CDCCCC;stroke-width:4;stroke-miterlimit:10;}
	.st1{fill:none;stroke:#1DAE88;stroke-miterlimit:10;}
	.st2{fill:none;stroke:#CDCCCC;stroke-miterlimit:10;}
</style>
<g id="XMLID_53_">
	<g id="setting-roll">
		<g id="XMLID_461_">
			<path id="XMLID_463_" class="st0" d="M93.5,54l-6-1.1c-1.1-4.5-2.8-9-5.4-12.7l3.4-5c1.3-1.7,1.1-4.1-0.4-5.6l-1.9-1.9l-1.9-1.9
				c-1.5-1.5-3.9-1.7-5.6-0.4l-5,3.4c-3.9-2.6-8.2-4.3-12.7-5.4l-1.1-6c-0.4-2.2-2.2-3.4-4.3-3.4h-3h-2.8c-2.2,0-3.9,1.5-4.3,3.4
				l-1.1,6c-4.7,0.9-9,2.6-12.7,5.2l-5-3.4c-1.7-1.3-4.1-1.1-5.6,0.4L16,27.5L14,29.6c-1.5,1.5-1.7,3.9-0.4,5.6l3.4,5
				c-2.6,3.9-4.3,8.2-5.4,12.7l-6,1.1c-2.2,0.4-3.4,2.2-3.4,4.3v2.8v2.8c0,2.2,1.5,3.9,3.4,4.3l6,1.1c1.1,4.7,2.8,9,5.4,12.7l-3.4,5
				c-1.3,1.7-1.1,4.1,0.4,5.6l1.9,1.9l1.9,1.9c1.5,1.5,3.9,1.7,5.6,0.4l5-3.4c3.9,2.6,8.2,4.3,12.7,5.4l1.1,6
				c0.4,2.2,2.2,3.4,4.3,3.4h3h2.8c2.2,0,3.9-1.5,4.3-3.4l1.1-6c4.5-1.1,9-2.8,12.7-5.4l5,3.4c1.7,1.3,4.1,1.1,5.6-0.4l1.9-1.9
				l1.9-1.9c1.5-1.5,1.7-3.9,0.4-5.6l-3.4-5c2.6-3.9,4.3-8.2,5.4-12.7l6-1.1c2.2-0.4,3.4-2.2,3.4-4.3v-2.8v-2.8
				C97,56.1,95.4,54.4,93.5,54z"/>
		</g>
	</g>
	<circle id="XMLID_462_" class="st1" cx="49.5" cy="61.1" r="17.1"/>
	<circle id="XMLID_153_" class="st2" cx="49.5" cy="61.1" r="27.2"/>
</g>
</svg>
