<?xml version="1.0" encoding="utf-8"?>
<!-- Generator: Adobe Illustrator 19.0.0, SVG Export Plug-In . SVG Version: 6.00 Build 0)  -->
<svg version="1.1" id="Calque_1" xmlns="http://www.w3.org/2000/svg" xmlns:xlink="http://www.w3.org/1999/xlink" x="0px" y="0px"
	 viewBox="0 0 180 170" style="enable-background:new 0 0 180 170;" xml:space="preserve">
<style type="text/css">
	.st0{fill:none;stroke:#4C626E;stroke-width:5;stroke-miterlimit:10;}
	.st1{fill:none;stroke:#19AD87;stroke-width:4;stroke-linecap:round;stroke-linejoin:round;stroke-miterlimit:10;}
</style>
<g id="globe-pointer">
	<line id="XMLID_140_" class="st0" x1="90" y1="22.7" x2="90" y2="147.3"/>
	<line id="XMLID_115_" class="st0" x1="90" y1="56.7" x2="36.2" y2="56.7"/>
	<line id="XMLID_114_" class="st0" x1="143.8" y1="113.3" x2="36.2" y2="113.3"/>
	<path id="XMLID_61_" class="st0" d="M90.4,147.3c-20.5-13.2-34-36.1-34-62.3s13.6-49.1,34-62.3"/>
	<g id="XMLID_52_">
		<path id="XMLID_59_" class="st0" d="M103.1,24.1c-4.2-0.9-8.6-1.4-13.1-1.4c-0.8,0-1.6,0-2.4,0.1c3.4,2.2,6.6,4.7,9.5,7.3"/>
		<path id="XMLID_58_" class="st0" d="M87.6,147.2c0.8,0,1.6,0.1,2.4,0.1c34.4,0,62.3-27.9,62.3-62.3"/>
		<path id="XMLID_57_" class="st0" d="M97.1,30.1c-3-2.7-6.2-5.2-9.5-7.3C54.3,24,27.7,51.4,27.7,85s26.6,61,59.9,62.2
			c15-9.6,26.2-24.5,31.1-42.1"/>
	</g>
	<path id="XMLID_44_" class="st1" d="M150.9,48.6c0,19.5-25.6,43.2-25.5,51.6c0-8.3-25.5-32-25.5-51.6c0-14.1,11.4-25.5,25.5-25.5
		S150.9,34.6,150.9,48.6z"/>
	<circle id="XMLID_19_" class="st1" cx="125.4" cy="49.2" r="11.3"/>
</g>
</svg>
