<?xml version="1.0" encoding="utf-8"?>
<!-- Generator: Adobe Illustrator 19.0.0, SVG Export Plug-In . SVG Version: 6.00 Build 0)  -->
<svg version="1.1" id="Section1" xmlns="http://www.w3.org/2000/svg" xmlns:xlink="http://www.w3.org/1999/xlink" x="0px" y="0px"
	 viewBox="63 60.3 721.6 721.6" style="enable-background:new 63 60.3 721.6 721.6;" xml:space="preserve">
<style type="text/css">
	.st0{fill:#FFFFFF;}
	.st1{fill:#FF8017;}
	.st2{fill:#6F7592;}
	.st3{fill:#FAFAFA;}
</style>
<g>
	<g>
		<g>
			<path class="st0" d="M413.3,652.1H262.1c-21.6,0-39.1-17.5-39.1-39.1V228.7c0-21.6,17.5-39.1,39.1-39.1h151.2
				c21.6,0,39.1,17.5,39.1,39.1V613C452.3,634.6,434.8,652.1,413.3,652.1z"/>
			<g>
				<g>
					<path class="st1" d="M438.2,617c0,11.7-9.6,21.3-21.3,21.3H258.3c-11.7,0-21.3-9.6-21.3-21.3V224.9c0-11.7,9.6-21.3,21.3-21.3
						H279c1.7,0,3.1,1.4,3.1,3.1v1.8c0,0.8,0.1,1.5,0.2,2.2c1,5,5.5,8.8,10.8,8.8h89c5.3,0,9.8-3.8,10.8-8.8
						c0.1-0.7,0.2-1.5,0.2-2.2v-1.8c0-1.7,1.4-3.1,3.1-3.1h20.7c11.7,0,21.3,9.6,21.3,21.3L438.2,617L438.2,617z"/>
				</g>
				<path class="st2" d="M453.3,296.6l-1-1.1v-71.4c0-19-15.5-34.5-34.5-34.5H257.4c-19,0-34.5,15.5-34.5,34.5v27.2
					c-0.7,0-1.2,0.6-1.2,1.3v17.3c0,0.7,0.5,1.2,1.2,1.3v13.4l-1,0.8c-0.2,0.1-0.2,0.3-0.2,0.5v32.5c0,0.2,0.1,0.4,0.2,0.5l1,0.8
					v7.3l-1,0.8c-0.2,0.1-0.2,0.3-0.2,0.5v32.5c0,0.2,0.1,0.4,0.2,0.5l1,0.8v255.8c0,19,15.5,34.5,34.5,34.5h160.4
					c19,0,34.5-15.5,34.5-34.5V351.1l1-1.1c0.1-0.1,0.2-0.3,0.2-0.4v-52.2C453.5,296.9,453.4,296.7,453.3,296.6z M452.3,349l-1,1.1
					c-0.1,0.1-0.2,0.3-0.2,0.4v267.1c0,18.3-14.9,33.2-33.2,33.2H257.4c-18.3,0-33.2-14.9-33.2-33.2V361.5c0-0.2-0.1-0.4-0.2-0.5
					l-1-0.8v-31.9l1-0.8c0.2-0.1,0.2-0.3,0.2-0.5v-7.9c0-0.2-0.1-0.4-0.2-0.5l-1-0.8v-31.9l1-0.8c0.2-0.1,0.2-0.3,0.2-0.5v-14.3
					c0-0.3-0.3-0.6-0.6-0.6H223v-17.3h0.6c0.3,0,0.6-0.3,0.6-0.6v-27.9c0-18.3,14.9-33.2,33.2-33.2h160.4
					c18.3,0,33.2,14.9,33.2,33.2v71.6c0,0.2,0.1,0.3,0.2,0.4l1,1.1v52H452.3z M416.9,193.5H258.3c-17.3,0-31.3,14-31.3,31.3v392.1
					c0,17.3,14,31.3,31.3,31.3h158.6c17.3,0,31.3-14,31.3-31.3V224.8C448.2,207.5,434.2,193.5,416.9,193.5z M362.3,204.1
					c2.3,0,4.2,1.9,4.2,4.2s-1.9,4.2-4.2,4.2s-4.3-1.9-4.3-4.2S359.9,204.1,362.3,204.1z M325.5,206.3h24.4c1.1,0,2,0.9,2,2
					s-0.9,2-2,2h-24.4c-1.1,0-2-0.9-2-2C323.5,207.2,324.4,206.3,325.5,206.3z M438.2,617c0,11.7-9.6,21.3-21.3,21.3H258.3
					c-11.7,0-21.3-9.6-21.3-21.3V224.9c0-11.7,9.6-21.3,21.3-21.3H279c1.7,0,3.1,1.4,3.1,3.1v1.8c0,0.8,0.1,1.5,0.2,2.2
					c1,5,5.5,8.8,10.8,8.8h89c5.3,0,9.8-3.8,10.8-8.8c0.1-0.7,0.2-1.5,0.2-2.2v-1.8c0-1.7,1.4-3.1,3.1-3.1h20.7
					c11.7,0,21.3,9.6,21.3,21.3L438.2,617L438.2,617z M372.1,630.2h-68.9c-0.7,0-1.2,0.6-1.2,1.2s0.6,1.2,1.2,1.2h68.9
					c0.7,0,1.2-0.6,1.2-1.2S372.8,630.2,372.1,630.2z"/>
			</g>
		</g>
	</g>
	<g>
		<path class="st3" d="M296.4,392.9c1.6,0,3,0.3,4.3,0.8s2.3,1.3,3.1,2.1c0.8,0.9,1.4,1.9,1.8,3c0.4,1.1,0.6,2.3,0.6,3.5
			s-0.2,2.3-0.6,3.5c-0.4,1.1-1,2.1-1.8,3s-1.8,1.6-3.1,2.1s-2.7,0.8-4.3,0.8h-6.9c-0.4,0-0.7,0.3-0.7,0.7v6.5
			c0,0.4-0.3,0.7-0.7,0.7h-3.7c-0.4,0-0.7-0.3-0.7-0.7v-25.4c0-0.4,0.3-0.7,0.7-0.7c1.4,0,3.2,0,5.6,0
			C292.9,392.9,295,392.9,296.4,392.9z M288.8,398.4v8.1c0,0.4,0.3,0.7,0.7,0.7h6.9c1.5,0,2.7-0.5,3.6-1.5c0.9-1,1.3-2.1,1.3-3.3
			s-0.4-2.3-1.3-3.3c-0.9-1-2-1.5-3.6-1.5h-6.9C289.1,397.8,288.8,398.1,288.8,398.4z"/>
		<path class="st3" d="M309.1,400.9h3c0.3,0,0.6,0.2,0.7,0.6l0,0c0.1,0.6,0.8,0.8,1.2,0.4c0.4-0.4,0.9-0.7,1.4-0.9
			c0.9-0.4,1.9-0.5,3-0.5c1.8,0,3.3,0.5,4.4,1.4c0.2,0.2,0.3,0.6,0.2,0.8l-1.5,2.9c-0.2,0.4-0.6,0.5-1,0.3c-0.8-0.5-1.7-0.8-2.8-0.8
			c-1.4,0-2.5,0.4-3.4,1.2s-1.3,2-1.3,3.6v9.3c0,0.4-0.3,0.7-0.7,0.7H309c-0.4,0-0.7-0.3-0.7-0.7v-17.5
			C308.5,401.2,308.8,400.9,309.1,400.9z"/>
		<path class="st3" d="M363.5,419.8h-3.3c-0.4,0-0.7-0.3-0.7-0.7v-9.4c0-1.3-0.3-2.4-1-3.4c-0.7-0.9-1.6-1.4-2.8-1.4
			s-2.2,0.5-2.9,1.4s-1.1,2-1.1,3.3v9.4c0,0.4-0.3,0.7-0.7,0.7h-3.3c-0.4,0-0.7-0.3-0.7-0.7v-17.5c0-0.4,0.3-0.7,0.7-0.7h3
			c0.3,0,0.6,0.2,0.7,0.6v0.1c0.1,0.5,0.7,0.8,1.1,0.4c0.3-0.3,0.7-0.6,1.2-0.8c0.9-0.4,1.9-0.6,2.9-0.6c2.3,0,4,0.9,5.1,2.6
			c0.2,0.4,0.8,0.4,1.1,0.1c1.4-1.7,3.3-2.6,5.7-2.6c2.7,0,4.6,0.8,6,2.3c1.3,1.5,2,3.8,2,6.6v9.5c0,0.4-0.3,0.7-0.7,0.7h-3.3
			c-0.4,0-0.7-0.3-0.7-0.7v-9.5c0-1.4-0.3-2.5-0.9-3.3c-0.6-0.9-1.5-1.3-2.7-1.3s-2.2,0.5-3,1.4s-1.1,2-1.1,3.3v9.4
			C364.2,419.4,363.9,419.8,363.5,419.8z"/>
		<path class="st3" d="M394.8,400.9h3.7c0.5,0,0.8,0.5,0.6,1l-10.9,25.4c-0.1,0.3-0.4,0.4-0.6,0.4H384c-0.5,0-0.8-0.5-0.6-1l3-7
			c0.1-0.2,0.1-0.4,0-0.5l-7-17.3c-0.2-0.5,0.1-0.9,0.6-0.9h3.9c0.3,0,0.6,0.2,0.6,0.5l2.7,7.7l1.2,3.5c0.2,0.6,1.1,0.6,1.3,0
			l1.3-3.4l3.3-7.8C394.3,401.1,394.5,400.9,394.8,400.9z"/>
		<g>
			<path class="st3" d="M333.8,420.8c-4.3,0-7.9-3.5-7.9-7.9c0-0.9,0.8-1.7,1.7-1.7s1.7,0.8,1.7,1.7c0,2.5,2,4.5,4.5,4.5
				s4.5-2,4.5-4.5c0-0.9,0.8-1.7,1.7-1.7s1.7,0.8,1.7,1.7C341.7,417.2,338.1,420.8,333.8,420.8z"/>
		</g>
		<g>
			<path class="st3" d="M323.1,414.1c-0.4,0-0.8-0.1-1.1-0.4c-0.7-0.6-0.8-1.7-0.2-2.4l8.2-9.4c0.3-0.4,0.8-0.6,1.3-0.6h4.8
				c0.5,0,0.9,0.2,1.3,0.6l8.4,9.4c0.6,0.7,0.6,1.8-0.1,2.4c-0.7,0.6-1.8,0.6-2.4-0.1l-7.9-8.8H332l-7.6,8.8
				C324.1,413.9,323.6,414.1,323.1,414.1z"/>
		</g>
		<g>
			<path class="st3" d="M341,410.2c-0.9,0-1.7-0.8-1.7-1.7v-4.4c0-0.9,0.8-1.7,1.7-1.7s1.7,0.8,1.7,1.7v4.4
				C342.7,409.4,342,410.2,341,410.2z"/>
		</g>
	</g>
</g>
</svg>
