<?xml version="1.0" encoding="utf-8"?>
<!-- Generator: Adobe Illustrator 19.0.0, SVG Export Plug-In . SVG Version: 6.00 Build 0)  -->
<svg version="1.1" id="Section1" xmlns="http://www.w3.org/2000/svg" xmlns:xlink="http://www.w3.org/1999/xlink" x="0px" y="0px"
	 viewBox="216 125.2 1028.2 590.7" style="enable-background:new 216 125.2 1028.2 590.7;" xml:space="preserve">
<style type="text/css">
	.st0{fill:none;stroke:#000000;stroke-width:2;stroke-miterlimit:10;}
	.st1{fill:#FFFFFF;}
	.st2{opacity:0.1;fill:#58595B;}
	.st3{fill:#6F7592;}
	.st4{fill:#F4F4F4;}
	.st5{fill:#FFFFFF;stroke:#D6D7D8;stroke-miterlimit:10;}
	.st6{fill:#333333;}
	.st7{fill:#FFFFFF;stroke:#FF5555;stroke-miterlimit:10;}
	.st8{fill:#FF5555;}
	.st9{fill:#999999;}
	.st10{fill:#FAFAFA;}
	.st11{font-family:'OpenSans-Bold';}
	.st12{font-size:7.3059px;}
	.st13{fill:#FFFFFF;stroke:#CCCCCC;stroke-width:0.6;stroke-miterlimit:10;}
	.st14{fill:url(#SVGID_3_);}
	.st15{opacity:0.4;fill:url(#SVGID_4_);}
	.st16{fill:url(#SVGID_5_);}
	.st17{opacity:0.4;fill:url(#SVGID_6_);}
	.st18{fill:url(#SVGID_7_);}
	.st19{opacity:0.4;fill:url(#SVGID_8_);}
	.st20{fill:url(#SVGID_9_);}
	.st21{fill:url(#SVGID_10_);}
	.st22{fill:#5AFFFF;}
	.st23{fill:url(#SVGID_11_);}
	.st24{fill:url(#SVGID_12_);}
	.st25{fill:url(#SVGID_13_);}
	.st26{fill:url(#SVGID_14_);}
	.st27{fill:url(#SVGID_15_);}
	.st28{fill:url(#SVGID_16_);}
	.st29{fill:url(#SVGID_17_);}
	.st30{fill:url(#SVGID_18_);}
	.st31{opacity:0.4;fill:#CED1D2;}
	.st32{clip-path:url(#SVGID_20_);}
	.st33{fill:#59595B;}
	.st34{opacity:0.4;fill:url(#SVGID_21_);}
	.st35{fill:url(#SVGID_22_);}
	.st36{fill:url(#SVGID_23_);}
	.st37{fill:url(#SVGID_24_);}
	.st38{opacity:0.4;fill:url(#SVGID_25_);}
	.st39{fill:url(#SVGID_26_);}
	.st40{opacity:0.4;fill:url(#SVGID_27_);}
	.st41{fill:url(#SVGID_28_);}
	.st42{opacity:0.4;fill:url(#SVGID_29_);}
	.st43{fill:url(#SVGID_30_);}
	.st44{fill:url(#SVGID_31_);}
	.st45{fill:url(#SVGID_32_);}
	.st46{fill:url(#SVGID_33_);}
	.st47{fill:url(#SVGID_34_);}
	.st48{fill:url(#SVGID_35_);}
	.st49{fill:url(#SVGID_36_);}
	.st50{fill:url(#SVGID_37_);}
	.st51{fill:url(#SVGID_38_);}
	.st52{opacity:0.4;fill:url(#SVGID_39_);}
	.st53{fill:url(#SVGID_40_);}
	.st54{opacity:0.4;fill:url(#SVGID_41_);}
	.st55{fill:url(#SVGID_42_);}
	.st56{opacity:0.4;fill:url(#SVGID_43_);}
	.st57{fill:url(#SVGID_44_);}
	.st58{fill:url(#SVGID_45_);}
	.st59{fill:url(#SVGID_46_);}
	.st60{fill:url(#SVGID_47_);}
	.st61{fill:url(#SVGID_48_);}
	.st62{fill:url(#SVGID_49_);}
	.st63{fill:url(#SVGID_50_);}
	.st64{fill:url(#SVGID_51_);}
	.st65{fill:url(#SVGID_52_);}
	.st66{fill:url(#SVGID_53_);}
	.st67{fill:url(#SVGID_54_);}
	.st68{fill:url(#SVGID_55_);}
	.st69{fill:url(#SVGID_56_);}
	.st70{opacity:0.4;fill:url(#SVGID_57_);}
	.st71{fill:url(#SVGID_58_);}
	.st72{fill:url(#SVGID_59_);}
	.st73{fill:url(#SVGID_60_);}
	.st74{opacity:0.4;fill:url(#SVGID_61_);}
	.st75{fill:url(#SVGID_62_);}
	.st76{fill:url(#SVGID_63_);}
	.st77{fill:url(#SVGID_64_);}
	.st78{fill:#332D55;}
	.st79{font-family:'NexaBold';}
	.st80{font-size:11.3193px;}
	.st81{fill:none;stroke:#1DDBA5;stroke-width:1.2;stroke-miterlimit:10;}
	.st82{fill:none;stroke:#1DDBA5;stroke-width:1.2;stroke-linecap:round;stroke-miterlimit:10;}
	.st83{fill:none;stroke:#D6D7D8;stroke-miterlimit:10;}
	.st84{font-family:'OpenSans-Semibold';}
	.st85{font-size:7.8566px;}
	.st86{fill:#E8EFF9;}
</style>
<g>
	<rect x="525.1" y="231.2" class="st0" width="10" height="10"/>
	<path class="st1" d="M1240,690.1l-92.6,0.1l1.7-7.6l-0.9-0.3c1.3-3.7,2.1-7.7,2.1-11.9v-510c0-19.4-15.8-35.2-35.2-35.2H345.3
		c-19.4,0-35.2,15.8-35.2,35.2v510c0,4.2,0.7,8.2,2.1,12v7.9l-94.7,0l-0.3,3.9l4,3.1c0,0,41.8,10.2,61.2,11.9
		c19.4,1.7,67.8,5.5,67.8,5.5l126.6,0.4l546.6-0.1c0,0,66.3,0.6,70.2-0.5s101-3.6,112.1-9.4c0,0,32.6-6.4,36.4-10
		C1245.9,691.4,1240,690.1,1240,690.1z"/>
	<rect x="355" y="168.7" class="st2" width="751.5" height="469.7"/>
	<g>
		<path class="st3" d="M735.3,152.3c0-2.9-2.3-5.2-5.2-5.2s-5.2,2.3-5.2,5.2s2.3,5.2,5.2,5.2S735.3,155.2,735.3,152.3z M727,152.3
			c0-1.7,1.4-3.1,3.1-3.1c1.7,0,3.1,1.4,3.1,3.1c0,1.7-1.4,3.1-3.1,3.1C728.4,155.4,727,154,727,152.3z"/>
		<path class="st3" d="M352.4,168.7v469.7c0,1.4,1.2,2.6,2.6,2.6h751.5c1.4,0,2.6-1.2,2.6-2.6V168.7c0-1.4-1.2-2.6-2.6-2.6H355
			C353.6,166.1,352.4,167.3,352.4,168.7z M1106.5,638.4H355V168.7h751.5V638.4z"/>
		<path class="st3" d="M564.4,702.5c-1.1-0.7-4-1-6.2-1c-0.3,0-0.5,0-0.8,0c-4.3,0.1-4.6,1.1-4.7,1.5c-0.1,0.4,0,1,0.6,1.5
			c1.1,0.7,4,1,6.2,1c0.3,0,0.5,0,0.8,0c4.3-0.1,4.6-1.1,4.7-1.5C565.2,703.6,565.1,702.9,564.4,702.5z"/>
		<path class="st3" d="M897.7,701.5c-0.3,0-0.5,0-0.8,0c-2.2,0-5.1,0.3-6.2,1c-0.6,0.4-0.7,1-0.6,1.5c0.1,0.5,0.4,1.4,4.7,1.5
			c0.3,0,0.5,0,0.8,0c0,0,0,0,0,0c2.2,0,5.1-0.3,6.2-1c0.6-0.4,0.7-1,0.6-1.5C902.3,702.6,902,701.6,897.7,701.5z"/>
		<path class="st3" d="M313.5,689.2c-0.8-2.8-1.3-5.7-1.3-8.7V157.5c0-16.7,13.6-30.3,30.3-30.3H1118c16.7,0,30.3,13.6,30.3,30.3
			v522.9c0,3-0.5,6-1.3,8.7h2.2c0.8-2.8,1.2-5.7,1.2-8.7V157.5c0-17.8-14.5-32.4-32.4-32.4H342.4c-17.8,0-32.4,14.5-32.4,32.4v522.9
			c0,3,0.4,5.9,1.2,8.7H313.5z"/>
		<path class="st3" d="M1142.6,689.2h1.7c0.9-2.7,1.4-5.7,1.4-8.7V157.5c0-15.3-12.4-27.7-27.7-27.7H342.4
			c-15.3,0-27.7,12.4-27.7,27.7v522.9c0,3,0.5,6,1.4,8.7h1.7c-1-2.7-1.5-5.7-1.5-8.7V157.5c0-14.4,11.7-26.1,26.1-26.1H1118
			c14.4,0,26.1,11.7,26.1,26.1v522.9C1144.1,683.5,1143.5,686.5,1142.6,689.2z"/>
		<path class="st3" d="M1139.4,681.1c0,5.5-3.4,8.1-6.5,8.1h-0.2v0h5.6c1.9-1.7,3.3-4.3,3.3-8.1v-12.6v-511
			c0-13-10.5-23.5-23.5-23.5H342.4c-13,0-23.5,10.5-23.5,23.5v511v12.6c0,3.8,1.4,6.4,3.3,8.1h5.3v0h-0.1c-2.5,0-6.4-2.2-6.4-8.1
			v-12.6v-511c0-11.8,9.6-21.4,21.4-21.4H1118c11.8,0,21.4,9.6,21.4,21.4v511V681.1z"/>
		<path class="st3" d="M1244.2,693.7v-2.3c0-1.2-0.9-2.1-2.1-2.1h-430c-0.5,0-0.9,0.2-1.3,0.5H643.2c-0.4-0.3-0.8-0.5-1.3-0.5H218.1
			c-1.2,0-2.1,0.9-2.1,2.1v1.8c0,0.9,0.4,1.7,1,2.4l0,0c0.7,0.8,3,3.1,19,6.7c9.9,2.2,23.1,4.5,37.9,6.5
			c33.8,4.6,70.9,7.2,101.6,7.2h686.4c63.4,0,107.2-4.5,132.8-8.3c25.3-3.7,45.2-8.7,48.6-12c0,0,0,0,0,0c0,0,0,0,0,0
			c0,0,0.1-0.1,0.1-0.1c0,0,0,0,0-0.1C1244,694.8,1244.2,694.3,1244.2,693.7z M1242.1,693.7c0,0.1-0.1,0.3-0.2,0.4H814.2v-2.3v-0.5
			h427.9C1242.1,691.3,1242.1,693.1,1242.1,693.7z M812.1,691.8c0,0.8,0,1.2,0,2.3c-1,1-2.7,1.9-5.7,1.9c-2.5,0-31.3,0-56.9,0
			c0,0-21.7,0-44.9,0c-25.6,0-53.1,0-55.6,0c-3.1,0-6.1-0.9-7.1-1.9v0c0-1.2,0-1.7,0-2.3H812.1z M218.1,691.3h421.8v0.5v2.3H218.6
			c-0.3-0.3-0.5-0.6-0.5-0.9C218.1,692.6,218.1,691.3,218.1,691.3z M1061.9,713.8c0,0-661.3,0-686.4,0
			c-61.7,0-135.2-10.3-153.3-17.6l-0.1,0h419c1.9,1.3,5.2,1.9,7.8,1.9h55.6h44.9h56.9c2.8,0,4.9-0.6,6.5-1.9h424.8
			C1222.2,702,1164.7,713.8,1061.9,713.8z"/>
	</g>
	<rect x="355" y="168.7" class="st4" width="751.5" height="469.7"/>
	<path class="st5" d="M1079.6,622.4H546c-0.4,0-0.8-0.4-0.8-0.8V193.9c0-0.4,0.4-0.8,0.8-0.8h533.6c0.4,0,0.8,0.4,0.8,0.8v427.6
		C1080.4,622,1080,622.4,1079.6,622.4z"/>
	<g>
		<g>
			<circle class="st6" cx="653.6" cy="219.4" r="1.1"/>
			<circle class="st6" cx="653.6" cy="222.7" r="1.1"/>
			<circle class="st6" cx="653.6" cy="226" r="1.1"/>
		</g>
	</g>
	<circle class="st1" cx="677.8" cy="222.8" r="11.6"/>
	<g id="XMLID_7_">
		<defs>
			<circle id="XMLID_399_" cx="677.8" cy="222.7" r="9.4"/>
		</defs>
		<clipPath id="XMLID_10_">
			<use xlink:href="#XMLID_399_"  style="overflow:visible;"/>
		</clipPath>
		<g style="clip-path:url(#XMLID_10_);">
			
				<image style="overflow:visible;" width="280" height="280" id="XMLID_9_" xlink:href="../../../../koder/web-ux/src/images/avatars/people/paul_duffy.jpg"  transform="matrix(6.697744e-002 0 0 6.697744e-002 668.4365 213.2928)">
			</image>
		</g>
	</g>
	<circle class="st1" cx="690.9" cy="222.8" r="11.6"/>
	<g id="XMLID_4_">
		<defs>
			<circle id="XMLID_398_" cx="690.9" cy="222.8" r="9.5"/>
		</defs>
		<clipPath id="XMLID_11_">
			<use xlink:href="#XMLID_398_"  style="overflow:visible;"/>
		</clipPath>
		<g style="clip-path:url(#XMLID_11_);">
			
				<image style="overflow:visible;" width="283" height="283" id="XMLID_5_" xlink:href="../../../../koder/web-ux/src/images/avatars/people/alan_steiner.jpg"  transform="matrix(6.699894e-002 0 0 6.699894e-002 681.4531 213.2928)">
			</image>
		</g>
	</g>
	<rect x="401.2" y="168.7" class="st1" width="118.8" height="469.7"/>
	<g>
		
			<image style="overflow:visible;opacity:3.000000e-002;" width="84" height="507" xlink:href="37CCB914.png"  transform="matrix(1 0 0 1 338 156.89)">
		</image>
		<g>
			<rect x="355" y="168.7" class="st1" width="46.2" height="469.7"/>
		</g>
	</g>
	<g>
		<circle class="st7" cx="378.1" cy="604.8" r="13.6"/>
		<g>
			<defs>
				<circle id="SVGID_1_" cx="378.1" cy="604.8" r="11.2"/>
			</defs>
			<clipPath id="SVGID_2_">
				<use xlink:href="#SVGID_1_"  style="overflow:visible;"/>
			</clipPath>
			<g transform="matrix(1 0 0 1 0 0)" style="clip-path:url(#SVGID_2_);">
				
					<image style="overflow:visible;" width="270" height="270" xlink:href="../../../../../design/assets/avatars/dounia.jpg"  transform="matrix(8.147378e-002 0 0 8.147378e-002 366.8794 593.5403)">
				</image>
			</g>
		</g>
	</g>
	<g>
		<g>
			<path class="st8" d="M382.2,238.5h-6.5c-0.8,0-1.4-0.6-1.4-1.4v-5.1c0-0.1,0.1-0.3,0.2-0.4l4.2-3.2c0.2-0.1,0.4-0.1,0.6,0
				l4.2,3.2c0.1,0.1,0.2,0.2,0.2,0.4v5.1C383.5,237.9,382.9,238.5,382.2,238.5z M375.2,232.3v4.9c0,0.3,0.2,0.5,0.5,0.5h6.5
				c0.3,0,0.5-0.2,0.5-0.5v-4.9l-3.7-2.9L375.2,232.3z"/>
		</g>
		<g>
			<path class="st8" d="M380.3,238.5c-0.3,0-0.5-0.2-0.5-0.5v-4.2H378v4.2c0,0.3-0.2,0.5-0.5,0.5s-0.5-0.2-0.5-0.5v-4.6
				c0-0.3,0.2-0.5,0.5-0.5h2.8c0.3,0,0.5,0.2,0.5,0.5v4.6C380.8,238.3,380.6,238.5,380.3,238.5z"/>
		</g>
	</g>
	<g>
		<path class="st9" d="M378.8,567.7c-1,0-1.7-0.8-1.7-1.7c0-1,0.8-1.7,1.7-1.7s1.7,0.8,1.7,1.7C380.6,567,379.8,567.7,378.8,567.7z
			 M378.8,565.1c-0.5,0-0.9,0.4-0.9,0.9s0.4,0.9,0.9,0.9s0.9-0.4,0.9-0.9S379.3,565.1,378.8,565.1z"/>
	</g>
	<g>
		<path class="st9" d="M378.9,571.2c-0.7,0-1.3-0.6-1.3-1.3c0-0.1-0.1-0.2-0.2-0.3c-0.1-0.1-0.3,0-0.3,0c-0.3,0.3-0.6,0.4-0.9,0.4
			c0,0,0,0,0,0c-0.3,0-0.7-0.1-0.9-0.4c-0.2-0.2-0.4-0.6-0.4-0.9c0-0.3,0.1-0.7,0.4-0.9c0.1-0.1,0.1-0.2,0.1-0.3
			c0-0.1-0.1-0.2-0.3-0.2h-0.1c-0.7,0-1.3-0.6-1.3-1.3c0-0.7,0.6-1.3,1.3-1.3c0.1,0,0.2-0.1,0.3-0.2c0.1-0.1,0-0.3,0-0.3
			c-0.3-0.3-0.4-0.6-0.4-0.9c0-0.3,0.1-0.7,0.4-0.9c0.2-0.2,0.6-0.4,0.9-0.4c0,0,0,0,0,0c0.3,0,0.7,0.1,0.9,0.4
			c0.1,0.1,0.2,0.1,0.3,0.1c0,0,0.1,0,0.1,0c0.1-0.1,0.1-0.1,0.1-0.2v-0.1c0-0.7,0.6-1.3,1.3-1.3c0.7,0,1.3,0.6,1.3,1.3
			c0,0.2,0.1,0.3,0.2,0.3c0.1,0,0.2,0,0.3-0.1c0.3-0.3,0.6-0.4,0.9-0.4c0,0,0,0,0,0c0.3,0,0.7,0.1,0.9,0.4c0.5,0.5,0.5,1.3,0,1.9v0
			c0,0,0,0,0,0c-0.1,0.1-0.1,0.2-0.1,0.3c0,0,0,0.1,0,0.1c0.1,0.1,0.1,0.1,0.2,0.1h0.1c0.7,0,1.3,0.6,1.3,1.3c0,0.7-0.6,1.3-1.3,1.3
			c-0.2,0-0.3,0.1-0.3,0.2c0,0,0,0,0,0c0,0.1,0,0.2,0.1,0.3c0.5,0.5,0.5,1.4,0,1.9c-0.2,0.2-0.6,0.4-0.9,0.4c0,0,0,0,0,0
			c-0.3,0-0.7-0.1-0.9-0.4c0,0,0,0,0,0c-0.1-0.1-0.2-0.1-0.3-0.1c-0.1,0-0.2,0.1-0.2,0.3v0.1C380.2,570.6,379.6,571.2,378.9,571.2z
			 M377.2,568.7c0.2,0,0.3,0,0.5,0.1c0.4,0.2,0.7,0.6,0.7,1c0,0,0,0,0,0c0,0.2,0.2,0.4,0.4,0.4c0.2,0,0.4-0.2,0.4-0.4v-0.1
			c0-0.5,0.3-0.9,0.7-1.1c0.4-0.2,0.9-0.1,1.3,0.2l0,0c0,0,0,0,0,0v0c0.1,0.1,0.2,0.1,0.3,0.1c0,0,0,0,0,0c0.1,0,0.2,0,0.3-0.1
			c0.2-0.2,0.2-0.4,0-0.6c-0.4-0.4-0.5-0.9-0.3-1.3c0.2-0.4,0.6-0.7,1.1-0.7c0.3,0,0.5-0.2,0.5-0.4c0-0.2-0.2-0.4-0.4-0.4h-0.1
			c-0.5,0-0.9-0.3-1.1-0.7c0,0,0-0.1,0-0.1c-0.1-0.4,0-0.9,0.3-1.2c0,0,0,0,0,0c0,0,0,0,0,0c0.2-0.2,0.2-0.4,0-0.6
			c-0.2-0.2-0.5-0.2-0.6,0c-0.4,0.4-0.9,0.5-1.3,0.3c-0.4-0.2-0.7-0.6-0.7-1.1c0-0.3-0.2-0.5-0.4-0.5c-0.2,0-0.4,0.2-0.4,0.4v0.1
			c0,0.5-0.3,0.9-0.7,1.1c0,0-0.1,0-0.1,0c-0.4,0.1-0.9,0-1.2-0.3c-0.2-0.2-0.5-0.2-0.6,0c-0.2,0.2-0.2,0.4,0,0.6
			c0.4,0.4,0.5,0.9,0.3,1.3c-0.2,0.4-0.6,0.7-1,0.7c0,0,0,0,0,0c-0.2,0-0.4,0.2-0.4,0.4c0,0.2,0.2,0.4,0.4,0.4h0.1
			c0.5,0,0.9,0.3,1.1,0.7c0.2,0.4,0.1,0.9-0.2,1.3c0,0,0,0,0,0c-0.2,0.2-0.2,0.4,0,0.6c0.1,0.1,0.2,0.1,0.3,0.1h0
			c0.1,0,0.2,0,0.3-0.1C376.6,568.8,376.9,568.7,377.2,568.7z"/>
	</g>
	<g>
		<path class="st9" d="M374.9,277.3c-0.1,0-0.1,0-0.2,0c-0.2-0.1-0.3-0.2-0.3-0.4v-7.1c0-0.7,0.6-1.3,1.3-1.3h6.3
			c0.7,0,1.3,0.6,1.3,1.3v4.5c0,0.7-0.6,1.3-1.3,1.3h-5.2l-1.7,1.7C375.1,277.2,375,277.3,374.9,277.3z M375.8,269.2
			c-0.2,0-0.4,0.2-0.4,0.4v6.1l1-1c0.1-0.1,0.2-0.1,0.3-0.1h5.4c0.2,0,0.4-0.2,0.4-0.4v-4.5c0-0.2-0.2-0.4-0.4-0.4H375.8z"/>
	</g>
	<g>
		<path class="st9" d="M382.2,317.9c-0.1,0-0.2,0-0.2-0.1l-3-1.6l-3,1.6c-0.2,0.1-0.4,0.1-0.6,0c-0.2-0.1-0.2-0.3-0.2-0.5l0.6-3.4
			l-2.5-2.4c-0.1-0.1-0.2-0.4-0.1-0.5c0.1-0.2,0.2-0.3,0.4-0.4l3.4-0.5l1.5-3.1c0.2-0.4,0.8-0.4,1,0l1.5,3.1l3.4,0.5
			c0.2,0,0.4,0.2,0.4,0.4c0.1,0.2,0,0.4-0.1,0.5l-2.5,2.4l0.6,3.4c0,0.2,0,0.4-0.2,0.5C382.4,317.9,382.3,317.9,382.2,317.9z
			 M378.9,315.1c0.1,0,0.2,0,0.2,0.1l2.3,1.2l-0.4-2.6c0-0.2,0-0.3,0.2-0.5l1.9-1.8l-2.6-0.4c-0.2,0-0.3-0.1-0.4-0.3l-1.2-2.4
			l-1.2,2.4c-0.1,0.2-0.2,0.3-0.4,0.3l-2.6,0.4l1.9,1.8c0.1,0.1,0.2,0.3,0.2,0.5l-0.4,2.6l2.3-1.2
			C378.8,315.2,378.8,315.1,378.9,315.1z"/>
	</g>
	<g>
		<g>
			<path class="st9" d="M381.7,357.7h-5.6c-0.8,0-1.4-0.6-1.4-1.4v-7.4c0-0.8,0.6-1.4,1.4-1.4h3.7c0.1,0,0.2,0,0.3,0.1l2.8,2.8
				c0.1,0.1,0.1,0.2,0.1,0.3v5.6C383.1,357.1,382.5,357.7,381.7,357.7z M376.1,348.4c-0.3,0-0.5,0.2-0.5,0.5v7.4
				c0,0.3,0.2,0.5,0.5,0.5h5.6c0.3,0,0.5-0.2,0.5-0.5v-5.4l-2.5-2.5H376.1z"/>
		</g>
		<g>
			<path class="st9" d="M382.6,351.2h-2.8c-0.3,0-0.5-0.2-0.5-0.5v-2.8c0-0.3,0.2-0.5,0.5-0.5c0.3,0,0.5,0.2,0.5,0.5v2.3h2.3
				c0.3,0,0.5,0.2,0.5,0.5C383.1,351,382.9,351.2,382.6,351.2z"/>
		</g>
		<g>
			<path class="st9" d="M380.8,353.5h-3.7c-0.3,0-0.5-0.2-0.5-0.5s0.2-0.5,0.5-0.5h3.7c0.3,0,0.5,0.2,0.5,0.5S381,353.5,380.8,353.5
				z"/>
		</g>
		<g>
			<path class="st9" d="M380.8,355.4h-3.7c-0.3,0-0.5-0.2-0.5-0.5s0.2-0.5,0.5-0.5h3.7c0.3,0,0.5,0.2,0.5,0.5S381,355.4,380.8,355.4
				z"/>
		</g>
		<g>
			<path class="st9" d="M378,351.6h-0.9c-0.3,0-0.5-0.2-0.5-0.5s0.2-0.5,0.5-0.5h0.9c0.3,0,0.5,0.2,0.5,0.5S378.3,351.6,378,351.6z"
				/>
		</g>
	</g>
	<g>
		<g>
			<path class="st9" d="M378.9,537.7c-0.2,0-0.4,0-0.6-0.1l-3.6-1.8c-0.5-0.2-0.7-0.7-0.7-1.2v-4.3c0-0.5,0.3-1,0.7-1.2l3.6-1.8
				c0.4-0.2,0.8-0.2,1.2,0c0,0,0,0,0,0l3.6,1.8c0.5,0.2,0.7,0.7,0.7,1.2v4.3c0,0.5-0.3,1-0.7,1.2l-3.6,1.8
				C379.3,537.7,379.1,537.7,378.9,537.7z M378.9,528.1c-0.1,0-0.1,0-0.2,0l-3.6,1.8c-0.2,0.1-0.2,0.2-0.2,0.4v4.3
				c0,0.2,0.1,0.3,0.2,0.4l3.6,1.8c0.1,0.1,0.3,0.1,0.4,0l3.6-1.8c0.2-0.1,0.2-0.2,0.2-0.4v-4.3c0-0.2-0.1-0.3-0.2-0.4l-3.6-1.8
				C379.1,528.1,379,528.1,378.9,528.1z"/>
		</g>
		<g>
			<path class="st9" d="M378.9,532.5c-0.1,0-0.1,0-0.2,0l-4.3-2.2c-0.2-0.1-0.3-0.4-0.2-0.6c0.1-0.2,0.4-0.3,0.6-0.2l4.1,2.1
				l4.1-2.1c0.2-0.1,0.5,0,0.6,0.2c0.1,0.2,0,0.5-0.2,0.6l-4.3,2.2C379.1,532.4,379,532.5,378.9,532.5z"/>
		</g>
		<g>
			<path class="st9" d="M378.9,537.7c-0.2,0-0.4-0.2-0.4-0.4V532c0-0.2,0.2-0.4,0.4-0.4s0.4,0.2,0.4,0.4v5.3
				C379.4,537.5,379.2,537.7,378.9,537.7z"/>
		</g>
	</g>
	<path id="XMLID_1_" class="st8" d="M491.9,617.1h-62.5c-6.3,0-11.4-5.1-11.4-11.4v0c0-6.3,5.1-11.4,11.4-11.4h62.5
		c6.3,0,11.4,5.1,11.4,11.4v0C503.2,612,498.2,617.1,491.9,617.1z"/>
	<text id="XMLID_18_" transform="matrix(1 0 0 1 442.3508 607.5881)" class="st10 st11 st12">New Project</text>
	<path id="XMLID_21_" class="st13" d="M636.9,233.5h-66c-0.7,0-1.2-0.5-1.2-1.2V212c0-0.7,0.5-1.2,1.2-1.2h66c0.7,0,1.2,0.5,1.2,1.2
		v20.4C638.1,233,637.5,233.5,636.9,233.5z"/>
	<text id="XMLID_8_" transform="matrix(1 0 0 1 588.9229 224.8724)" class="st6 st11 st12">Options</text>
	<path id="XMLID_30_" class="st13" d="M501.2,430h-83.1c-0.7,0-1.2-0.5-1.2-1.2v-17.4c0-0.7,0.5-1.2,1.2-1.2h83.1
		c0.7,0,1.2,0.5,1.2,1.2v17.4C502.4,429.5,501.9,430,501.2,430z"/>
	<text id="XMLID_28_" transform="matrix(1 0 0 1 441.7278 422.1255)" class="st6 st11 st12">Customize</text>
	<g>
		<g>
			<g>
				<path class="st10" d="M436.9,608.1c-0.3,0-0.6-0.3-0.6-0.6v-4.8c0-0.3,0.3-0.6,0.6-0.6c0.3,0,0.6,0.3,0.6,0.6v4.8
					C437.5,607.8,437.3,608.1,436.9,608.1z"/>
			</g>
		</g>
		<g>
			<g>
				<path class="st10" d="M439.3,605.7h-4.8c-0.3,0-0.6-0.3-0.6-0.6c0-0.3,0.3-0.6,0.6-0.6h4.8c0.3,0,0.6,0.3,0.6,0.6
					C439.9,605.4,439.6,605.7,439.3,605.7z"/>
			</g>
		</g>
	</g>
	<g>
		<g>
			<g>
				
					<linearGradient id="SVGID_3_" gradientUnits="userSpaceOnUse" x1="1884.9259" y1="-130.495" x2="1886.2181" y2="-141.6081" gradientTransform="matrix(-0.8133 -0.5819 -0.5819 0.8133 2334.552 1687.1808)">
					<stop  offset="0" style="stop-color:#0494D4"/>
					<stop  offset="0.5583" style="stop-color:#0A79BD"/>
					<stop  offset="0.8697" style="stop-color:#043F7C"/>
					<stop  offset="1" style="stop-color:#01265F"/>
				</linearGradient>
				<path class="st14" d="M871.9,465.6l20.9,17c0,0,0.3,5.7-5.1,8.4l-20.4-14C867.3,477.1,872.2,468.6,871.9,465.6z"/>
				
					<linearGradient id="SVGID_4_" gradientUnits="userSpaceOnUse" x1="1884.9259" y1="-130.495" x2="1886.2181" y2="-141.6081" gradientTransform="matrix(-0.8133 -0.5819 -0.5819 0.8133 2334.552 1687.1808)">
					<stop  offset="0" style="stop-color:#0494D4"/>
					<stop  offset="0.5583" style="stop-color:#0A79BD"/>
					<stop  offset="0.8697" style="stop-color:#043F7C"/>
					<stop  offset="1" style="stop-color:#01265F"/>
				</linearGradient>
				<path class="st15" d="M887.6,491l-20.4-14c0,0,4.9-8.5,4.7-11.5l5.4,4.6c-2.9-1.7-3.8,1.2-5.4,4.7c-1.7,3.5,11.5,12.9,15.2,14.1
					c3.7,1.2,5.7-6.3,5.7-6.3S893.1,488.4,887.6,491z"/>
			</g>
			<g>
				
					<linearGradient id="SVGID_5_" gradientUnits="userSpaceOnUse" x1="1858.214" y1="-134.6778" x2="1871.734" y2="-134.6778" gradientTransform="matrix(-0.8133 -0.5819 -0.5819 0.8133 2334.552 1687.1808)">
					<stop  offset="0" style="stop-color:#797B7E"/>
					<stop  offset="1" style="stop-color:#2F2C2D"/>
				</linearGradient>
				<path class="st16" d="M894.3,483.4l7.8,11.5c0,0-1.1,4.2-5.3,5.8l-8.2-9.1C888.6,491.5,893.8,485.6,894.3,483.4z"/>
				
					<linearGradient id="SVGID_6_" gradientUnits="userSpaceOnUse" x1="1858.214" y1="-134.6778" x2="1871.734" y2="-134.6778" gradientTransform="matrix(-0.8133 -0.5819 -0.5819 0.8133 2334.552 1687.1808)">
					<stop  offset="0" style="stop-color:#797B7E"/>
					<stop  offset="1" style="stop-color:#2F2C2D"/>
				</linearGradient>
				<path class="st17" d="M894.3,483.4l4.3,6.3c-1.8-1.6-1.5-2.5-4.1,0.5c-2.6,3,0.6,6.7,3.2,7c2.6,0.3,4.2-2.6,4.2-2.6l0,0l0.2,0.3
					c0,0-1.1,4.2-5.3,5.8l-8.2-9.1C888.6,491.5,893.8,485.6,894.3,483.4z"/>
			</g>
			<g>
				
					<linearGradient id="SVGID_7_" gradientUnits="userSpaceOnUse" x1="1819.4973" y1="-21.7434" x2="1817.082" y2="-28.024" gradientTransform="matrix(-0.6304 -0.7763 -0.7763 0.6304 2028.3412 1933.3137)">
					<stop  offset="0" style="stop-color:#0494D4"/>
					<stop  offset="0.5583" style="stop-color:#0A79BD"/>
					<stop  offset="0.8697" style="stop-color:#043F7C"/>
					<stop  offset="1" style="stop-color:#01265F"/>
				</linearGradient>
				<path class="st18" d="M903.6,497l4.7,14.6c0,0-2.7,3.4-7.4,0.5l-4.5-11.3C896.5,500.8,902.3,498.8,903.6,497z"/>
				
					<linearGradient id="SVGID_8_" gradientUnits="userSpaceOnUse" x1="1819.4973" y1="-21.7434" x2="1817.082" y2="-28.024" gradientTransform="matrix(-0.6304 -0.7763 -0.7763 0.6304 2028.3412 1933.3137)">
					<stop  offset="0" style="stop-color:#0494D4"/>
					<stop  offset="0.5583" style="stop-color:#0A79BD"/>
					<stop  offset="0.8697" style="stop-color:#043F7C"/>
					<stop  offset="1" style="stop-color:#01265F"/>
				</linearGradient>
				<path class="st19" d="M900.9,512.1l-4.5-11.3c0,0,5.8-2,7.1-3.8l1.8,5.5c-1.1-1.7-2-3-4.9-1.5c-2.5,1.4-1,7.4,1.1,10.3
					c2.2,3,6.7,0.3,6.7,0.3S905.5,515,900.9,512.1z"/>
			</g>
			<g>
				
					<linearGradient id="SVGID_9_" gradientUnits="userSpaceOnUse" x1="1869.3456" y1="-139.545" x2="1877.277" y2="-131.6136" gradientTransform="matrix(-0.8133 -0.5819 -0.5819 0.8133 2334.552 1687.1808)">
					<stop  offset="0" style="stop-color:#797B7E"/>
					<stop  offset="1" style="stop-color:#231F20"/>
				</linearGradient>
				<circle class="st20" cx="889.8" cy="486.8" r="5.7"/>
				
					<linearGradient id="SVGID_10_" gradientUnits="userSpaceOnUse" x1="1869.3696" y1="-139.8307" x2="1877.0784" y2="-132.1219" gradientTransform="matrix(-0.8133 -0.5819 -0.5819 0.8133 2334.552 1687.1808)">
					<stop  offset="0" style="stop-color:#BABCBE"/>
					<stop  offset="0.3273" style="stop-color:#6D6E71"/>
					<stop  offset="0.6364" style="stop-color:#CED1D2"/>
					<stop  offset="1" style="stop-color:#FFFFFF"/>
				</linearGradient>
				<circle class="st21" cx="890.1" cy="486.6" r="5.5"/>
				<circle class="st22" cx="890.1" cy="486.6" r="4.1"/>
				
					<linearGradient id="SVGID_11_" gradientUnits="userSpaceOnUse" x1="1869.6497" y1="-135.9323" x2="1876.887" y2="-135.9323" gradientTransform="matrix(-0.8133 -0.5819 -0.5819 0.8133 2334.552 1687.1808)">
					<stop  offset="0" style="stop-color:#797B7E"/>
					<stop  offset="1" style="stop-color:#231F20"/>
				</linearGradient>
				<circle class="st23" cx="890.1" cy="486.6" r="3.6"/>
			</g>
			<g>
				
					<linearGradient id="SVGID_12_" gradientUnits="userSpaceOnUse" x1="1855.7875" y1="-135.0464" x2="1862.1068" y2="-128.7271" gradientTransform="matrix(-0.8133 -0.5819 -0.5819 0.8133 2334.552 1687.1808)">
					<stop  offset="0" style="stop-color:#797B7E"/>
					<stop  offset="1" style="stop-color:#231F20"/>
				</linearGradient>
				<circle class="st24" cx="899.4" cy="498.2" r="4.5"/>
				
					<linearGradient id="SVGID_13_" gradientUnits="userSpaceOnUse" x1="1855.806" y1="-135.2735" x2="1861.9476" y2="-129.1319" gradientTransform="matrix(-0.8133 -0.5819 -0.5819 0.8133 2334.552 1687.1808)">
					<stop  offset="0" style="stop-color:#BABCBE"/>
					<stop  offset="0.3273" style="stop-color:#6D6E71"/>
					<stop  offset="0.6364" style="stop-color:#CED1D2"/>
					<stop  offset="1" style="stop-color:#FFFFFF"/>
				</linearGradient>
				<circle class="st25" cx="899.6" cy="498" r="4.4"/>
				<circle class="st22" cx="899.6" cy="498" r="3.3"/>
				
					<linearGradient id="SVGID_14_" gradientUnits="userSpaceOnUse" x1="1856.0284" y1="-132.1675" x2="1861.7961" y2="-132.1675" gradientTransform="matrix(-0.8133 -0.5819 -0.5819 0.8133 2334.552 1687.1808)">
					<stop  offset="0" style="stop-color:#797B7E"/>
					<stop  offset="1" style="stop-color:#231F20"/>
				</linearGradient>
				<circle class="st26" cx="899.6" cy="498" r="2.9"/>
			</g>
			<g>
				
					<linearGradient id="SVGID_15_" gradientUnits="userSpaceOnUse" x1="1925.3529" y1="-118.4031" x2="1917.5814" y2="-118.4031" gradientTransform="matrix(-0.77 -0.6381 -0.6381 0.77 2285.8157 1793.3132)">
					<stop  offset="0" style="stop-color:#FFFFFF"/>
					<stop  offset="1" style="stop-color:#414042"/>
				</linearGradient>
				<path class="st27" d="M879.4,474.5c-0.2,0.3-0.2,0.7,0,0.8l4.5,3.7c0.2,0.2,0.6,0.1,0.8-0.2l0.5-0.6c0.2-0.3,0.2-0.7,0-0.8
					l-4.5-3.7c-0.2-0.2-0.6-0.1-0.8,0.2L879.4,474.5z"/>
				<path class="st22" d="M879.6,474.5c-0.2,0.2-0.2,0.6,0,0.8l4.4,3.6c0.2,0.2,0.6,0.1,0.8-0.1l0.4-0.5c0.2-0.2,0.2-0.6,0-0.8
					l-4.4-3.6c-0.2-0.2-0.6-0.1-0.8,0.1L879.6,474.5z"/>
				
					<linearGradient id="SVGID_16_" gradientUnits="userSpaceOnUse" x1="1912.6121" y1="-105.2643" x2="1918.8473" y2="-105.2643" gradientTransform="matrix(-0.7815 -0.6476 -0.6561 0.7916 2310.4641 1800.3502)">
					<stop  offset="0" style="stop-color:#BABCBE"/>
					<stop  offset="1" style="stop-color:#6D6E71"/>
				</linearGradient>
				<path class="st28" d="M879.8,474.6c-0.2,0.2-0.1,0.5,0.1,0.7l4.1,3.4c0.2,0.2,0.5,0.2,0.7,0l0.4-0.4c0.2-0.2,0.1-0.5-0.1-0.7
					l-4.1-3.4c-0.2-0.2-0.5-0.2-0.7,0L879.8,474.6z"/>
			</g>
		</g>
		<g>
			
				<linearGradient id="SVGID_17_" gradientUnits="userSpaceOnUse" x1="1930.3801" y1="-146.7523" x2="1953.5735" y2="-147.7607" gradientTransform="matrix(-0.8322 -0.5544 -0.5544 0.8322 2370.3572 1649.1449)">
				<stop  offset="0" style="stop-color:#0494D4"/>
				<stop  offset="0.5583" style="stop-color:#0A79BD"/>
				<stop  offset="0.8697" style="stop-color:#043F7C"/>
				<stop  offset="1" style="stop-color:#01265F"/>
			</linearGradient>
			<path class="st29" d="M842.5,443.7l-8.8-13.2c0,0-17.5,14.8-20,15.9l11.5,13.7L842.5,443.7z"/>
			<g>
				<g>
					
						<radialGradient id="SVGID_18_" cx="2039.515" cy="0.5013" r="51.8118" gradientTransform="matrix(-0.8738 -1.0325 -0.5419 0.4586 2568.843 2492.3691)" gradientUnits="userSpaceOnUse">
						<stop  offset="0" style="stop-color:#FFFFFF"/>
						<stop  offset="0.3931" style="stop-color:#FBFBFB"/>
						<stop  offset="0.782" style="stop-color:#EFEFF0"/>
						<stop  offset="1" style="stop-color:#E5E5E6"/>
					</radialGradient>
					<path class="st30" d="M835.9,430.4c0,0-57.3-96.4-59.9-102.9c0,0-34.6-7.6-47.9,37.6l85.1,84.5L835.9,430.4z"/>
					<path class="st31" d="M776.1,327.4c0.8,2,6.5,12,14.1,25.1l0,0c-7.4-12.7-19.8-20.3-37.2-0.7c-17.4,19.6,44,81.5,58.1,85.9
						c14.2,4.5,20.7-14.3,20.7-14.3c2.6,4.3,4.1,6.9,4.1,6.9l-22.7,19.2l-85.1-84.5C741.4,319.8,776.1,327.4,776.1,327.4z"/>
					<g>
						<defs>
							<path id="SVGID_19_" d="M835.9,430.4c0,0-57.3-96.4-59.9-102.9c0,0-34.6-7.6-47.9,37.6l85.1,84.5L835.9,430.4z"/>
						</defs>
						<clipPath id="SVGID_20_">
							<use xlink:href="#SVGID_19_"  style="overflow:visible;"/>
						</clipPath>
						<g class="st32">
							<g>
								<path class="st33" d="M796.4,442.5c0.1,0.1,0.1,0.1,0.2,0.2c0.3,0.2,0.8,0.1,1-0.3c9.3-15.5,34.2-29,34.4-29.1
									c0.4-0.2,0.5-0.6,0.3-1c-0.2-0.4-0.6-0.5-1-0.3c-1,0.6-25.4,13.8-35,29.7C796.1,441.9,796.2,442.2,796.4,442.5z"/>
							</g>
							<g>
								<path class="st33" d="M784.4,410.2c0.1,0.1,0.3,0.2,0.5,0.3l12.8,1.2l13.5,14.9c0.3,0.3,0.7,0.3,1,0c0.3-0.3,0.3-0.8,0-1
									l-13.7-15.1c-0.1-0.1-0.3-0.2-0.5-0.2l-12.7-1.2L731,337.4c-0.2-0.3-0.7-0.4-1-0.1c-0.3,0.2-0.4,0.7-0.1,1L784.4,410.2
									C784.4,410.2,784.4,410.2,784.4,410.2z"/>
							</g>
						</g>
					</g>
					<path class="st1" d="M815.4,402.7L781,348.2c0,0-3-2.4-5.7-1c-2.7,1.4,34.9,55,34.9,55L815.4,402.7z"/>
				</g>
				<g>
					
						<radialGradient id="SVGID_21_" cx="1894.0182" cy="-34.3826" r="3.1443" gradientTransform="matrix(-1.1257 -0.75 -0.75 1.1257 2920.0515 1899.2773)" gradientUnits="userSpaceOnUse">
						<stop  offset="0" style="stop-color:#FFFFFF"/>
						<stop  offset="0.3931" style="stop-color:#FBFBFB"/>
						<stop  offset="0.782" style="stop-color:#EFEFF0"/>
						<stop  offset="1" style="stop-color:#E5E5E6"/>
					</radialGradient>
					<circle class="st34" cx="813.7" cy="440.1" r="4.3"/>
					
						<linearGradient id="SVGID_22_" gradientUnits="userSpaceOnUse" x1="1962.9065" y1="-146.4474" x2="1968.6871" y2="-140.6667" gradientTransform="matrix(-0.8322 -0.5544 -0.5544 0.8322 2370.3572 1649.1449)">
						<stop  offset="0" style="stop-color:#BABCBE"/>
						<stop  offset="0.3273" style="stop-color:#6D6E71"/>
						<stop  offset="0.6364" style="stop-color:#CED1D2"/>
						<stop  offset="1" style="stop-color:#FFFFFF"/>
					</linearGradient>
					<circle class="st35" cx="814" cy="439.8" r="4.1"/>
					<circle class="st22" cx="814" cy="439.8" r="3.1"/>
					
						<linearGradient id="SVGID_23_" gradientUnits="userSpaceOnUse" x1="1963.1162" y1="-143.5245" x2="1968.5432" y2="-143.5245" gradientTransform="matrix(-0.8322 -0.5544 -0.5544 0.8322 2370.3572 1649.1449)">
						<stop  offset="0" style="stop-color:#797B7E"/>
						<stop  offset="1" style="stop-color:#231F20"/>
					</linearGradient>
					<circle class="st36" cx="814" cy="439.8" r="2.7"/>
				</g>
			</g>
		</g>
		<g>
			<g>
				<g>
					
						<linearGradient id="SVGID_24_" gradientUnits="userSpaceOnUse" x1="1960.4453" y1="-9.8941" x2="1961.5479" y2="-19.3762" gradientTransform="matrix(-0.1749 -0.9846 -0.9846 0.1749 1191.2928 2417.2146)">
						<stop  offset="0" style="stop-color:#0A79BD"/>
						<stop  offset="0.1837" style="stop-color:#075D9D"/>
						<stop  offset="0.3817" style="stop-color:#044582"/>
						<stop  offset="0.5829" style="stop-color:#02346E"/>
						<stop  offset="0.7874" style="stop-color:#012963"/>
						<stop  offset="1" style="stop-color:#01265F"/>
					</linearGradient>
					<path class="st37" d="M866.4,472.5l1.8,18.9c0,0-3.4,3.8-8.5,2.1l-3.4-16.6C856.3,476.9,864.7,474.5,866.4,472.5z"/>
					
						<linearGradient id="SVGID_25_" gradientUnits="userSpaceOnUse" x1="1960.4453" y1="-9.8941" x2="1961.5479" y2="-19.3762" gradientTransform="matrix(-0.1749 -0.9846 -0.9846 0.1749 1191.2928 2417.2146)">
						<stop  offset="0" style="stop-color:#0494D4"/>
						<stop  offset="0.5583" style="stop-color:#0A79BD"/>
						<stop  offset="0.8697" style="stop-color:#043F7C"/>
						<stop  offset="1" style="stop-color:#01265F"/>
					</linearGradient>
					<path class="st38" d="M859.7,493.5l-3.4-16.6c0,0,8.4-2.4,10.1-4.4l0.6,6.3c-0.8-2.9-3.1-1.6-6.4-0.4c-3.3,1.2-1.6,10.4,0,13.5
						c1.6,3.1,7.6-0.5,7.6-0.5S864.8,495.2,859.7,493.5z"/>
				</g>
				<g>
					
						<linearGradient id="SVGID_26_" gradientUnits="userSpaceOnUse" x1="1820.682" y1="381.1147" x2="1832.6693" y2="381.1147" gradientTransform="matrix(0.384 -0.9234 -0.9234 -0.384 510.5862 2330.1243)">
						<stop  offset="0" style="stop-color:#797B7E"/>
						<stop  offset="1" style="stop-color:#2F2C2D"/>
					</linearGradient>
					<path class="st39" d="M866.7,495.4l-8.5,7.2c0,0-3.2-0.7-4.5-4.3l6.8-7.7C860.4,490.7,865,495.1,866.7,495.4z"/>
					
						<linearGradient id="SVGID_27_" gradientUnits="userSpaceOnUse" x1="1820.682" y1="381.1147" x2="1832.6693" y2="381.1147" gradientTransform="matrix(0.384 -0.9234 -0.9234 -0.384 510.5862 2330.1243)">
						<stop  offset="0" style="stop-color:#797B7E"/>
						<stop  offset="1" style="stop-color:#2F2C2D"/>
					</linearGradient>
					<path class="st40" d="M866.7,495.4l-4.7,4c1.2-1.7,1.9-1.4-0.4-3.6c-2.4-2.2-5,0.8-5.2,3.1c-0.2,2.3,2,3.5,2,3.5l0,0l-0.2,0.2
						c0,0-3.2-0.7-4.5-4.3l6.8-7.7C860.4,490.7,865,495.1,866.7,495.4z"/>
				</g>
				<g>
					
						<linearGradient id="SVGID_28_" gradientUnits="userSpaceOnUse" x1="711.0999" y1="508.0796" x2="708.9213" y2="502.4147" gradientTransform="matrix(0.8138 0.5812 0.5812 -0.8138 -18.1957 494.4806)">
						<stop  offset="0" style="stop-color:#0494D4"/>
						<stop  offset="0.5583" style="stop-color:#0A79BD"/>
						<stop  offset="0.8697" style="stop-color:#043F7C"/>
						<stop  offset="1" style="stop-color:#01265F"/>
					</linearGradient>
					<path class="st41" d="M853.3,503.6l-6.4-9.3c0,0,0.9-4.1,5.1-3.8l6.4,8.3C858.4,498.7,853.8,502,853.3,503.6z"/>
					
						<linearGradient id="SVGID_29_" gradientUnits="userSpaceOnUse" x1="711.0999" y1="508.0796" x2="708.9213" y2="502.4147" gradientTransform="matrix(0.8138 0.5812 0.5812 -0.8138 -18.1957 494.4806)">
						<stop  offset="0" style="stop-color:#0494D4"/>
						<stop  offset="0.5583" style="stop-color:#0A79BD"/>
						<stop  offset="0.8697" style="stop-color:#043F7C"/>
						<stop  offset="1" style="stop-color:#01265F"/>
					</linearGradient>
					<path class="st42" d="M852,490.4l6.4,8.3c0,0-4.6,3.3-5.1,4.9l-2.4-3.5c1.1,0.9,2,1.7,3.9-0.3c1.9-1.9-0.7-6.7-3.2-8.3
						c-2.5-1.6-4.7,2.8-4.7,2.8S847.8,490.2,852,490.4z"/>
				</g>
				<g>
					
						<linearGradient id="SVGID_30_" gradientUnits="userSpaceOnUse" x1="1949.037" y1="-17.7277" x2="1956.121" y2="-10.6437" gradientTransform="matrix(-0.1749 -0.9846 -0.9846 0.1749 1191.2928 2417.2146)">
						<stop  offset="0" style="stop-color:#797B7E"/>
						<stop  offset="1" style="stop-color:#231F20"/>
					</linearGradient>
					<circle class="st43" cx="863.7" cy="492.2" r="5.1"/>
					
						<linearGradient id="SVGID_31_" gradientUnits="userSpaceOnUse" x1="1949.0575" y1="-17.9833" x2="1955.9429" y2="-11.098" gradientTransform="matrix(-0.1749 -0.9846 -0.9846 0.1749 1191.2928 2417.2146)">
						<stop  offset="0" style="stop-color:#0494D4"/>
						<stop  offset="0.5583" style="stop-color:#0A79BD"/>
						<stop  offset="0.8697" style="stop-color:#043F7C"/>
						<stop  offset="1" style="stop-color:#01265F"/>
					</linearGradient>
					<path class="st44" d="M863.2,487.4c-2.7,0.5-4.5,3-4,5.7c0.5,2.7,3,4.5,5.7,4c2.7-0.5,4.5-3,4-5.7
						C868.4,488.7,865.9,486.9,863.2,487.4z"/>
					
						<linearGradient id="SVGID_32_" gradientUnits="userSpaceOnUse" x1="692.8697" y1="170.1889" x2="700.227" y2="170.1889" gradientTransform="matrix(8.700000e-003 1 -1 8.700000e-003 1028.2006 -205.8212)">
						<stop  offset="0" style="stop-color:#0494D4"/>
						<stop  offset="0.5583" style="stop-color:#0A79BD"/>
						<stop  offset="0.8697" style="stop-color:#043F7C"/>
						<stop  offset="1" style="stop-color:#01265F"/>
					</linearGradient>
					<path class="st45" d="M864.7,495.8c2-0.4,3.3-2.3,3-4.3c-0.4-2-2.3-3.3-4.3-3c-2,0.4-3.3,2.3-3,4.3
						C860.8,494.9,862.7,496.2,864.7,495.8z M860.9,492.8c-0.3-1.8,0.9-3.4,2.6-3.8c1.8-0.3,3.4,0.9,3.7,2.6
						c0.3,1.8-0.9,3.4-2.6,3.7C862.9,495.7,861.2,494.5,860.9,492.8z"/>
				</g>
				<g>
					
						<linearGradient id="SVGID_33_" gradientUnits="userSpaceOnUse" x1="1943.0829" y1="-7.0578" x2="1948.7278" y2="-1.4129" gradientTransform="matrix(-0.1749 -0.9846 -0.9846 0.1749 1191.2928 2417.2146)">
						<stop  offset="0" style="stop-color:#797B7E"/>
						<stop  offset="1" style="stop-color:#231F20"/>
					</linearGradient>
					<circle class="st46" cx="855.1" cy="500.5" r="4"/>
					
						<linearGradient id="SVGID_34_" gradientUnits="userSpaceOnUse" x1="1943.099" y1="-7.2608" x2="1948.5852" y2="-1.7746" gradientTransform="matrix(-0.1749 -0.9846 -0.9846 0.1749 1191.2928 2417.2146)">
						<stop  offset="0" style="stop-color:#BABCBE"/>
						<stop  offset="0.3273" style="stop-color:#6D6E71"/>
						<stop  offset="0.6364" style="stop-color:#CED1D2"/>
						<stop  offset="1" style="stop-color:#FFFFFF"/>
					</linearGradient>
					<circle class="st47" cx="855.4" cy="500.5" r="3.9"/>
					<path class="st22" d="M854.9,497.6c-1.6,0.3-2.7,1.8-2.4,3.4c0.3,1.6,1.8,2.7,3.4,2.4c1.6-0.3,2.7-1.8,2.4-3.4
						C858,498.4,856.5,497.4,854.9,497.6z"/>
					
						<linearGradient id="SVGID_35_" gradientUnits="userSpaceOnUse" x1="1943.2968" y1="-4.4866" x2="1948.4509" y2="-4.4866" gradientTransform="matrix(-0.1749 -0.9846 -0.9846 0.1749 1191.2928 2417.2146)">
						<stop  offset="0" style="stop-color:#797B7E"/>
						<stop  offset="1" style="stop-color:#231F20"/>
					</linearGradient>
					<path class="st48" d="M854.9,498c-1.4,0.3-2.3,1.6-2.1,3c0.2,1.4,1.6,2.3,3,2.1c1.4-0.2,2.3-1.6,2.1-3
						C857.7,498.7,856.3,497.7,854.9,498z"/>
				</g>
			</g>
			<g>
				
					<linearGradient id="SVGID_36_" gradientUnits="userSpaceOnUse" x1="1993.9087" y1="9.3363" x2="1986.9661" y2="9.3363" gradientTransform="matrix(-0.1046 -0.9945 -0.9945 0.1046 1082.8319 2458.8303)">
					<stop  offset="0" style="stop-color:#FFFFFF"/>
					<stop  offset="1" style="stop-color:#414042"/>
				</linearGradient>
				<path class="st49" d="M864.7,477.8c-0.3,0-0.5,0.3-0.5,0.5l0.5,5.2c0,0.3,0.3,0.5,0.6,0.4l0.7-0.1c0.3,0,0.5-0.3,0.5-0.5
					l-0.5-5.2c0-0.3-0.3-0.5-0.6-0.4L864.7,477.8z"/>
				<path class="st22" d="M864.9,477.9c-0.3,0-0.5,0.3-0.5,0.5l0.5,5c0,0.3,0.3,0.4,0.6,0.4l0.6-0.1c0.3,0,0.5-0.3,0.5-0.5l-0.5-5
					c0-0.3-0.3-0.4-0.6-0.4L864.9,477.9z"/>
				
					<linearGradient id="SVGID_37_" gradientUnits="userSpaceOnUse" x1="1981.3094" y1="18.5775" x2="1986.881" y2="18.5775" gradientTransform="matrix(-0.1062 -1.0094 -1.0225 0.1076 1095.1898 2481.6233)">
					<stop  offset="0" style="stop-color:#BABCBE"/>
					<stop  offset="1" style="stop-color:#6D6E71"/>
				</linearGradient>
				<path class="st50" d="M864.9,478.1c-0.2,0-0.4,0.2-0.4,0.5l0.5,4.7c0,0.2,0.2,0.4,0.5,0.4l0.5,0c0.2,0,0.4-0.2,0.4-0.5l-0.5-4.7
					c0-0.2-0.2-0.4-0.5-0.4L864.9,478.1z"/>
			</g>
		</g>
		<g>
			<g>
				
					<linearGradient id="SVGID_38_" gradientUnits="userSpaceOnUse" x1="1678.351" y1="422.5198" x2="1679.7999" y2="410.0585" gradientTransform="matrix(-0.5542 -0.8324 -0.8324 0.5542 2143.5105 1648.4889)">
					<stop  offset="0" style="stop-color:#0494D4"/>
					<stop  offset="0.5583" style="stop-color:#0A79BD"/>
					<stop  offset="0.8697" style="stop-color:#043F7C"/>
					<stop  offset="1" style="stop-color:#01265F"/>
				</linearGradient>
				<path class="st51" d="M864.9,465.9l12.1,21.8c0,0-2,6.4-9.1,7L855,476.5C855,476.5,863.9,469.2,864.9,465.9z"/>
				
					<linearGradient id="SVGID_39_" gradientUnits="userSpaceOnUse" x1="1678.351" y1="422.5198" x2="1679.7999" y2="410.0585" gradientTransform="matrix(-0.5542 -0.8324 -0.8324 0.5542 2143.5105 1648.4889)">
					<stop  offset="0" style="stop-color:#0494D4"/>
					<stop  offset="0.5583" style="stop-color:#0A79BD"/>
					<stop  offset="0.8697" style="stop-color:#043F7C"/>
					<stop  offset="1" style="stop-color:#01265F"/>
				</linearGradient>
				<path class="st52" d="M867.9,494.7L855,476.5c0,0,8.9-7.3,9.9-10.6l4,7.3c-2.4-3-4.6-0.3-7.9,2.9c-3.3,3.2,3.6,13.3,7.1,16.2
					c3.5,2.9,8.9-4.6,8.9-4.6S875,494.1,867.9,494.7z"/>
			</g>
			<g>
				
					<linearGradient id="SVGID_40_" gradientUnits="userSpaceOnUse" x1="1345.9341" y1="591.9252" x2="1361.6897" y2="591.9252" gradientTransform="matrix(-1.750000e-002 -0.9998 -0.9998 1.750000e-002 1485.7191 1841.9502)">
					<stop  offset="0" style="stop-color:#797B7E"/>
					<stop  offset="1" style="stop-color:#2F2C2D"/>
				</linearGradient>
				<path class="st53" d="M877.3,493.4l-6.5,13.2c0,0-4.2,0.8-7.6-2.8l4.1-12.8C867.3,490.9,875.1,493.9,877.3,493.4z"/>
				
					<linearGradient id="SVGID_41_" gradientUnits="userSpaceOnUse" x1="1345.9341" y1="591.9252" x2="1361.6897" y2="591.9252" gradientTransform="matrix(-1.750000e-002 -0.9998 -0.9998 1.750000e-002 1485.7191 1841.9502)">
					<stop  offset="0" style="stop-color:#797B7E"/>
					<stop  offset="1" style="stop-color:#2F2C2D"/>
				</linearGradient>
				<path class="st54" d="M877.3,493.4l-3.6,7.3c0.6-2.6,1.5-2.7-2.4-4.1c-4-1.4-5.7,3.6-4.6,6.5c1,2.8,4.3,3.1,4.3,3.1l0,0
					l-0.2,0.4c0,0-4.2,0.8-7.6-2.8l4.1-12.8C867.3,490.9,875.1,493.9,877.3,493.4z"/>
			</g>
			<g>
				
					<linearGradient id="SVGID_42_" gradientUnits="userSpaceOnUse" x1="608.9005" y1="-43.234" x2="606.0374" y2="-50.679" gradientTransform="matrix(0.9988 -4.970000e-002 -4.970000e-002 -0.9988 249.2251 486.3132)">
					<stop  offset="0" style="stop-color:#0494D4"/>
					<stop  offset="0.5583" style="stop-color:#0A79BD"/>
					<stop  offset="0.8697" style="stop-color:#043F7C"/>
					<stop  offset="1" style="stop-color:#01265F"/>
				</linearGradient>
				<path class="st55" d="M864.5,510.9l-14.2-4.4c0,0-2.4-4.9,2.1-8.1l13.4,3.3C865.8,501.7,863.8,508.8,864.5,510.9z"/>
				
					<linearGradient id="SVGID_43_" gradientUnits="userSpaceOnUse" x1="608.9005" y1="-43.234" x2="606.0374" y2="-50.679" gradientTransform="matrix(0.9988 -4.970000e-002 -4.970000e-002 -0.9988 249.2251 486.3132)">
					<stop  offset="0" style="stop-color:#0494D4"/>
					<stop  offset="0.5583" style="stop-color:#0A79BD"/>
					<stop  offset="0.8697" style="stop-color:#043F7C"/>
					<stop  offset="1" style="stop-color:#01265F"/>
				</linearGradient>
				<path class="st56" d="M852.5,498.3l13.4,3.3c0,0-2,7.1-1.3,9.2l-5.3-1.6c1.9,0,3.4,0.1,3.8-3.5c0.3-3.5-6.2-6.3-10.1-6
					c-3.9,0.3-2.6,6.7-2.6,6.7S847.9,501.5,852.5,498.3z"/>
			</g>
			<g>
				
					<linearGradient id="SVGID_44_" gradientUnits="userSpaceOnUse" x1="1663.3571" y1="412.2236" x2="1672.667" y2="421.5335" gradientTransform="matrix(-0.5542 -0.8324 -0.8324 0.5542 2143.5105 1648.4889)">
					<stop  offset="0" style="stop-color:#797B7E"/>
					<stop  offset="1" style="stop-color:#231F20"/>
				</linearGradient>
				<circle class="st57" cx="872" cy="491.1" r="6.7"/>
				
					<linearGradient id="SVGID_45_" gradientUnits="userSpaceOnUse" x1="1663.3848" y1="411.8881" x2="1672.433" y2="420.9363" gradientTransform="matrix(-0.5542 -0.8324 -0.8324 0.5542 2143.5105 1648.4889)">
					<stop  offset="0" style="stop-color:#0494D4"/>
					<stop  offset="0.5583" style="stop-color:#0A79BD"/>
					<stop  offset="0.8697" style="stop-color:#043F7C"/>
					<stop  offset="1" style="stop-color:#01265F"/>
				</linearGradient>
				<path class="st58" d="M868.9,485.5c-3,2-3.8,6-1.8,9c2,3,6,3.8,9,1.8c3-2,3.8-6,1.8-9C875.9,484.3,871.9,483.5,868.9,485.5z"/>
				
					<linearGradient id="SVGID_46_" gradientUnits="userSpaceOnUse" x1="831.0444" y1="277.8566" x2="840.7142" y2="277.8566" gradientTransform="matrix(0.839 0.5441 -0.5441 0.839 322.3413 -197.0407)">
					<stop  offset="0" style="stop-color:#0494D4"/>
					<stop  offset="0.5583" style="stop-color:#0A79BD"/>
					<stop  offset="0.8697" style="stop-color:#043F7C"/>
					<stop  offset="1" style="stop-color:#01265F"/>
				</linearGradient>
				<path class="st59" d="M876.5,488.2c-1.5-2.2-4.5-2.8-6.7-1.3c-2.2,1.5-2.8,4.5-1.3,6.7c1.5,2.2,4.5,2.8,6.7,1.3
					C877.4,493.4,878,490.4,876.5,488.2z M874.8,494.4c-2,1.3-4.6,0.8-5.9-1.2c-1.3-2-0.8-4.6,1.2-5.9c2-1.3,4.6-0.8,5.9,1.2
					C877.3,490.5,876.8,493.1,874.8,494.4z"/>
			</g>
			<g>
				
					<linearGradient id="SVGID_47_" gradientUnits="userSpaceOnUse" x1="1655.5316" y1="426.2463" x2="1662.95" y2="433.6647" gradientTransform="matrix(-0.5542 -0.8324 -0.8324 0.5542 2143.5105 1648.4889)">
					<stop  offset="0" style="stop-color:#797B7E"/>
					<stop  offset="1" style="stop-color:#231F20"/>
				</linearGradient>
				<path class="st60" d="M863.1,501.2c-2.4,1.6-3.1,4.9-1.5,7.4c1.6,2.4,4.9,3.1,7.4,1.5c2.4-1.6,3.1-4.9,1.5-7.4
					C868.8,500.2,865.5,499.6,863.1,501.2z"/>
				
					<linearGradient id="SVGID_48_" gradientUnits="userSpaceOnUse" x1="1655.5535" y1="425.9799" x2="1662.7639" y2="433.1903" gradientTransform="matrix(-0.5542 -0.8324 -0.8324 0.5542 2143.5105 1648.4889)">
					<stop  offset="0" style="stop-color:#BABCBE"/>
					<stop  offset="0.3273" style="stop-color:#6D6E71"/>
					<stop  offset="0.6364" style="stop-color:#CED1D2"/>
					<stop  offset="1" style="stop-color:#FFFFFF"/>
				</linearGradient>
				<path class="st61" d="M863.5,501.2c-2.4,1.6-3,4.8-1.4,7.2c1.6,2.4,4.8,3,7.2,1.4c2.4-1.6,3-4.8,1.4-7.1
					C869.1,500.2,865.9,499.6,863.5,501.2z"/>
				<path class="st22" d="M864.2,502.3c-1.8,1.2-2.3,3.6-1.1,5.3c1.2,1.8,3.6,2.3,5.3,1.1c1.8-1.2,2.3-3.6,1.1-5.3
					C868.4,501.6,866,501.1,864.2,502.3z"/>
				
					<linearGradient id="SVGID_49_" gradientUnits="userSpaceOnUse" x1="1655.8143" y1="429.6251" x2="1662.5862" y2="429.6251" gradientTransform="matrix(-0.5542 -0.8324 -0.8324 0.5542 2143.5105 1648.4889)">
					<stop  offset="0" style="stop-color:#797B7E"/>
					<stop  offset="1" style="stop-color:#231F20"/>
				</linearGradient>
				<path class="st62" d="M864.5,502.7c-1.6,1-2,3.1-0.9,4.7c1,1.6,3.1,2,4.7,0.9c1.6-1,2-3.1,0.9-4.7
					C868.1,502,866,501.6,864.5,502.7z"/>
			</g>
			<g>
				
					<linearGradient id="SVGID_50_" gradientUnits="userSpaceOnUse" x1="1684.3947" y1="417.4378" x2="1675.2701" y2="417.4378" gradientTransform="matrix(-0.4938 -0.8696 -0.8696 0.4938 2060.2524 1730.5417)">
					<stop  offset="0" style="stop-color:#FFFFFF"/>
					<stop  offset="1" style="stop-color:#414042"/>
				</linearGradient>
				<path class="st63" d="M865.7,473.1c-0.4,0.2-0.5,0.6-0.3,0.9l3.4,5.9c0.2,0.3,0.6,0.4,1,0.2l0.8-0.4c0.4-0.2,0.5-0.6,0.3-0.9
					l-3.4-5.9c-0.2-0.3-0.6-0.4-1-0.2L865.7,473.1z"/>
				<path class="st22" d="M865.9,473.3c-0.3,0.2-0.5,0.6-0.3,0.9l3.3,5.8c0.2,0.3,0.6,0.4,0.9,0.2l0.7-0.4c0.3-0.2,0.5-0.6,0.3-0.9
					l-3.3-5.8c-0.2-0.3-0.6-0.4-0.9-0.2L865.9,473.3z"/>
				
					<linearGradient id="SVGID_51_" gradientUnits="userSpaceOnUse" x1="1674.4287" y1="416.3391" x2="1681.7502" y2="416.3391" gradientTransform="matrix(-0.5011 -0.8826 -0.8941 0.5077 2081.3435 1746.2001)">
					<stop  offset="0" style="stop-color:#BABCBE"/>
					<stop  offset="1" style="stop-color:#6D6E71"/>
				</linearGradient>
				<path class="st64" d="M866.1,473.4c-0.3,0.1-0.3,0.5-0.2,0.8l3.1,5.4c0.2,0.3,0.5,0.4,0.8,0.2l0.6-0.3c0.3-0.1,0.3-0.5,0.2-0.8
					l-3.1-5.4c-0.2-0.3-0.5-0.4-0.8-0.2L866.1,473.4z"/>
			</g>
		</g>
		<g>
			<g>
				<g>
					
						<radialGradient id="SVGID_52_" cx="1862.8025" cy="-43.6852" r="18.2698" gradientTransform="matrix(-1.2032 -0.6652 -0.8237 1.2562 3053.0786 1758.8953)" gradientUnits="userSpaceOnUse">
						<stop  offset="0" style="stop-color:#FFFFFF"/>
						<stop  offset="0.3931" style="stop-color:#FBFBFB"/>
						<stop  offset="0.782" style="stop-color:#EFEFF0"/>
						<stop  offset="1" style="stop-color:#E5E5E6"/>
					</radialGradient>
					<path class="st65" d="M844.9,435.4c0,0-24.2,16.4-27.6,26.4c0,0,15.8,22.8,17,23.4c1.2,0.7,35.9-6.3,35.9-6.3s9.6-9.7,6.9-12.2
						L844.9,435.4z"/>
					<path class="st31" d="M877.1,466.8l-7-6.8l0,0c1.6,1.5,4.3,14.6-2.3,17.1c-6.5,2.5-7.3,1.2-12.4-1.8c-5.1-2.9-21-8-25.4-9.9
						c-4.2-1.8-8.6-8.5-2.5-16.3c-4.7,4.3-8.9,9-10.2,12.7c0,0,15.8,22.8,17,23.4c1.2,0.7,35.9-6.3,35.9-6.3
						S879.8,469.4,877.1,466.8z"/>
				</g>
				<path class="st1" d="M873.1,466.2l-18.5-18.9c0,0-1.4-0.7-2.6,0.2c-1.1,0.9,18.8,19.1,18.8,19.1L873.1,466.2z"/>
			</g>
			<g>
				<circle class="st31" cx="842.5" cy="446.7" r="4.4"/>
				
					<linearGradient id="SVGID_53_" gradientUnits="userSpaceOnUse" x1="1935.2168" y1="-157.0152" x2="1941.2018" y2="-151.0303" gradientTransform="matrix(-0.8322 -0.5544 -0.5544 0.8322 2370.3572 1649.1449)">
					<stop  offset="0" style="stop-color:#BABCBE"/>
					<stop  offset="0.3273" style="stop-color:#6D6E71"/>
					<stop  offset="0.6364" style="stop-color:#CED1D2"/>
					<stop  offset="1" style="stop-color:#FFFFFF"/>
				</linearGradient>
				<circle class="st66" cx="842.7" cy="446.4" r="4.3"/>
				<circle class="st22" cx="842.7" cy="446.4" r="3.2"/>
				
					<linearGradient id="SVGID_54_" gradientUnits="userSpaceOnUse" x1="1935.4344" y1="-153.9881" x2="1941.0533" y2="-153.9881" gradientTransform="matrix(-0.8322 -0.5544 -0.5544 0.8322 2370.3572 1649.1449)">
					<stop  offset="0" style="stop-color:#797B7E"/>
					<stop  offset="1" style="stop-color:#231F20"/>
				</linearGradient>
				<circle class="st67" cx="842.7" cy="446.4" r="2.8"/>
			</g>
		</g>
		
			<linearGradient id="SVGID_55_" gradientUnits="userSpaceOnUse" x1="572.1133" y1="141.9551" x2="593.9617" y2="141.9551" gradientTransform="matrix(0.5377 0.8431 -0.8431 0.5377 647.7642 -100.0187)">
			<stop  offset="0" style="stop-color:#797B7E"/>
			<stop  offset="1" style="stop-color:#231F20"/>
		</linearGradient>
		<path class="st68" d="M825.2,463.1c0.7-0.1,22.6-3.9,24.5-3.7c2,0.2,5.8,1.7,5.8,4.9c0,3.3-1,13.8-1,13.8s-20.1,4.7-20.6,3.6
			C833.3,480.6,820.4,464,825.2,463.1z"/>
		<path class="st1" d="M824,462c0.8-0.1,23.9-3.8,26-3.5c2.1,0.3,6.2,1.9,6.3,5.5c0.1,3.6-0.8,14.9-0.8,14.9s-21.3,4.7-21.9,3.4
			C833.1,481.1,819,462.9,824,462z"/>
		<g>
			<g>
				<g>
					<g>
						
							<linearGradient id="SVGID_56_" gradientUnits="userSpaceOnUse" x1="1778.541" y1="393.4285" x2="1780.3655" y2="377.7375" gradientTransform="matrix(-3.980000e-002 -0.9992 -0.9992 3.980000e-002 1298.7505 2248.0627)">
							<stop  offset="0" style="stop-color:#0494D4"/>
							<stop  offset="0.5583" style="stop-color:#0A79BD"/>
							<stop  offset="0.8697" style="stop-color:#043F7C"/>
							<stop  offset="1" style="stop-color:#01265F"/>
						</linearGradient>
						<path class="st69" d="M832.2,478.4l5.5,26.4c7.5,3.7,13.4-1.5,13.4-1.5l1.2-29.1c0,0-0.3-4.8-2.2-7
							c-1.9-2.2-12.2-1.6-12.2-1.6s-4.8-0.6-6.2,3.5C830.6,472.3,832.2,478.4,832.2,478.4z"/>
					</g>
					
						<linearGradient id="SVGID_57_" gradientUnits="userSpaceOnUse" x1="634.947" y1="207.1873" x2="636.8632" y2="190.7076" gradientTransform="matrix(0.3492 0.9371 -0.9371 0.3492 807.3904 -180.2697)">
						<stop  offset="0" style="stop-color:#0494D4"/>
						<stop  offset="0.5583" style="stop-color:#0A79BD"/>
						<stop  offset="0.8697" style="stop-color:#043F7C"/>
						<stop  offset="1" style="stop-color:#01265F"/>
					</linearGradient>
					<path class="st70" d="M852.3,474.2c0,0-0.3-4.8-2.2-7c-1.9-2.2-12.2-1.6-12.2-1.6s-4.8-0.6-6.2,3.5c-1.1,3.2,0.5,9.3,0.5,9.3
						l5.5,26.4c7.5,3.7,13.4-1.5,13.4-1.5l0.4-10.2c-4,6.9-10.8,1-11.9-2.6c-1.1-3.6-11.8-22.2-1.3-22.9
						C848.8,466.8,852.3,474.2,852.3,474.2z"/>
				</g>
				<g>
					
						<linearGradient id="SVGID_58_" gradientUnits="userSpaceOnUse" x1="1826.1456" y1="333.3531" x2="1817.4396" y2="333.3531" gradientTransform="matrix(-8.150000e-002 -0.9967 -0.9967 8.150000e-002 1328.8953 2273.2261)">
						<stop  offset="0" style="stop-color:#FFFFFF"/>
						<stop  offset="1" style="stop-color:#414042"/>
					</linearGradient>
					<path class="st71" d="M847.5,481.4c-0.4,0-0.7,0.3-0.7,0.7l0.5,6.5c0,0.3,0.4,0.6,0.8,0.5l0.9-0.1c0.4,0,0.7-0.3,0.7-0.7
						l-0.5-6.5c0-0.3-0.4-0.6-0.8-0.5L847.5,481.4z"/>
					<path class="st22" d="M847.6,481.6c-0.4,0-0.6,0.3-0.6,0.6l0.5,6.3c0,0.3,0.3,0.6,0.7,0.5l0.8-0.1c0.4,0,0.6-0.3,0.6-0.6
						l-0.5-6.3c0-0.3-0.3-0.6-0.7-0.5L847.6,481.6z"/>
					
						<linearGradient id="SVGID_59_" gradientUnits="userSpaceOnUse" x1="1814.2288" y1="333.7909" x2="1821.214" y2="333.7909" gradientTransform="matrix(-8.280000e-002 -1.0116 -1.0247 8.380000e-002 1340.8628 2296.1536)">
						<stop  offset="0" style="stop-color:#BABCBE"/>
						<stop  offset="1" style="stop-color:#6D6E71"/>
					</linearGradient>
					<path class="st72" d="M847.7,481.8c-0.3,0-0.5,0.3-0.5,0.6l0.5,6c0,0.3,0.3,0.5,0.6,0.5l0.6,0c0.3,0,0.5-0.3,0.5-0.6l-0.5-6
						c0-0.3-0.3-0.5-0.6-0.5L847.7,481.8z"/>
				</g>
			</g>
			<g>
				<g>
					
						<linearGradient id="SVGID_60_" gradientUnits="userSpaceOnUse" x1="1897.8351" y1="124.6514" x2="1919.0808" y2="124.6514" gradientTransform="matrix(-0.8081 -0.589 -0.589 0.8081 2466.1458 1534.6893)">
						<stop  offset="0" style="stop-color:#0494D4"/>
						<stop  offset="0.5583" style="stop-color:#0A79BD"/>
						<stop  offset="0.8697" style="stop-color:#043F7C"/>
						<stop  offset="1" style="stop-color:#01265F"/>
					</linearGradient>
					<path class="st73" d="M848.7,499.7l11,16.6c0,0-1.9,5-8.3,6.1l-12.3-13.5C839.1,508.9,847.8,502.5,848.7,499.7z"/>
					
						<linearGradient id="SVGID_61_" gradientUnits="userSpaceOnUse" x1="1897.8351" y1="124.6514" x2="1919.0808" y2="124.6514" gradientTransform="matrix(-0.8081 -0.589 -0.589 0.8081 2466.1458 1534.6893)">
						<stop  offset="0" style="stop-color:#0494D4"/>
						<stop  offset="0.5583" style="stop-color:#0A79BD"/>
						<stop  offset="0.8697" style="stop-color:#043F7C"/>
						<stop  offset="1" style="stop-color:#01265F"/>
					</linearGradient>
					<path class="st74" d="M848.7,499.7l6.2,9.3c-2.7-2.5-2.2-3.7-6.4-0.4c-4.3,3.3,0.5,8.6,4.5,9.6c3.9,0.9,6.5-2.4,6.5-2.4l0,0
						l0.3,0.4c0,0-1.9,5-8.3,6.1l-12.3-13.5C839.1,508.9,847.8,502.5,848.7,499.7z"/>
				</g>
				<g>
					
						<linearGradient id="SVGID_62_" gradientUnits="userSpaceOnUse" x1="1755.7373" y1="379.4293" x2="1766.5912" y2="390.2831" gradientTransform="matrix(-3.980000e-002 -0.9992 -0.9992 3.980000e-002 1298.7505 2248.0627)">
						<stop  offset="0" style="stop-color:#797B7E"/>
						<stop  offset="1" style="stop-color:#231F20"/>
					</linearGradient>
					<path class="st75" d="M843.7,495.8c-4.3,0.2-7.6,3.8-7.4,8.1c0.2,4.3,3.8,7.6,8.1,7.4c4.3-0.2,7.6-3.8,7.4-8.1
						C851.6,499,848,495.6,843.7,495.8z"/>
					
						<linearGradient id="SVGID_63_" gradientUnits="userSpaceOnUse" x1="1755.7692" y1="379.0385" x2="1766.318" y2="389.5873" gradientTransform="matrix(-3.980000e-002 -0.9992 -0.9992 3.980000e-002 1298.7505 2248.0627)">
						<stop  offset="0" style="stop-color:#BABCBE"/>
						<stop  offset="0.3273" style="stop-color:#6D6E71"/>
						<stop  offset="0.6364" style="stop-color:#CED1D2"/>
						<stop  offset="1" style="stop-color:#FFFFFF"/>
					</linearGradient>
					<path class="st76" d="M844.3,496.1c-4.2,0.2-7.4,3.7-7.2,7.8c0.2,4.2,3.7,7.4,7.8,7.2c4.2-0.2,7.4-3.7,7.2-7.8
						C852,499.2,848.5,496,844.3,496.1z"/>
					<circle class="st22" cx="844.6" cy="503.7" r="5.6"/>
					
						<linearGradient id="SVGID_64_" gradientUnits="userSpaceOnUse" x1="1756.1511" y1="384.3726" x2="1766.056" y2="384.3726" gradientTransform="matrix(-3.980000e-002 -0.9992 -0.9992 3.980000e-002 1298.7505 2248.0627)">
						<stop  offset="0" style="stop-color:#797B7E"/>
						<stop  offset="1" style="stop-color:#231F20"/>
					</linearGradient>
					<path class="st77" d="M844.4,498.7c-2.7,0.1-4.9,2.4-4.7,5.1c0.1,2.7,2.4,4.9,5.1,4.8c2.7-0.1,4.9-2.4,4.8-5.1
						C849.4,500.7,847.1,498.6,844.4,498.7z"/>
				</g>
			</g>
		</g>
	</g>
	<text id="XMLID_6_" transform="matrix(0.8888 0 0 1 411.3696 201.1821)" class="st78 st79 st80">Cyborg-001</text>
	<g>
		<path class="st81" d="M824.6,413.1h-29.5c-2.4,0-4.4-2-4.4-4.4v-29.5c0-2.4,2-4.4,4.4-4.4h29.5c2.4,0,4.4,2,4.4,4.4v29.5
			C829,411.1,827,413.1,824.6,413.1z"/>
		<g>
			<circle class="st81" cx="809.8" cy="393.9" r="5.7"/>
			<g>
				<line class="st82" x1="809.8" y1="378.1" x2="809.8" y2="384.6"/>
				<line class="st82" x1="809.8" y1="403.4" x2="809.8" y2="409.9"/>
				<line class="st82" x1="825.7" y1="394" x2="819.2" y2="394"/>
				<line class="st82" x1="800.5" y1="394" x2="794" y2="394"/>
			</g>
		</g>
	</g>
	<line class="st81" x1="809.8" y1="259.9" x2="809.8" y2="366.2"/>
	<line class="st81" x1="838.1" y1="393.9" x2="1063.4" y2="393.9"/>
	<line class="st81" x1="779.7" y1="394" x2="598.1" y2="394"/>
	<line class="st81" x1="809.5" y1="419.1" x2="809.5" y2="583"/>
	<line class="st83" x1="576.9" y1="509.9" x2="591.4" y2="509.9"/>
	<line class="st83" x1="576.9" y1="504.9" x2="583.1" y2="504.9"/>
	<line class="st83" x1="576.9" y1="500.9" x2="583.1" y2="500.9"/>
	<line class="st83" x1="576.9" y1="496.8" x2="583.1" y2="496.8"/>
	<line class="st83" x1="576.9" y1="527.4" x2="591.4" y2="527.4"/>
	<line class="st83" x1="576.9" y1="522.5" x2="583.1" y2="522.5"/>
	<line class="st83" x1="576.9" y1="518.4" x2="583.1" y2="518.4"/>
	<line class="st83" x1="576.9" y1="514.4" x2="583.1" y2="514.4"/>
	<line class="st83" x1="576.9" y1="545" x2="591.4" y2="545"/>
	<line class="st83" x1="576.9" y1="540" x2="583.1" y2="540"/>
	<line class="st83" x1="576.9" y1="536" x2="583.1" y2="536"/>
	<line class="st83" x1="576.9" y1="531.9" x2="583.1" y2="531.9"/>
	<line class="st83" x1="576.9" y1="562.5" x2="591.4" y2="562.5"/>
	<line class="st83" x1="576.9" y1="557.6" x2="583.1" y2="557.6"/>
	<line class="st83" x1="576.9" y1="553.5" x2="583.1" y2="553.5"/>
	<line class="st83" x1="576.9" y1="549.5" x2="583.1" y2="549.5"/>
	<line class="st83" x1="576.9" y1="580.1" x2="591.4" y2="580.1"/>
	<line class="st83" x1="576.9" y1="575.2" x2="583.1" y2="575.2"/>
	<line class="st83" x1="576.9" y1="571.1" x2="583.1" y2="571.1"/>
	<line class="st83" x1="576.9" y1="567" x2="583.1" y2="567"/>
	<line class="st83" x1="576.9" y1="597.7" x2="591.4" y2="597.7"/>
	<line class="st83" x1="576.9" y1="592.7" x2="583.1" y2="592.7"/>
	<line class="st83" x1="576.9" y1="588.7" x2="583.1" y2="588.7"/>
	<line class="st83" x1="576.9" y1="584.6" x2="583.1" y2="584.6"/>
	<line class="st83" x1="576.9" y1="492.4" x2="591.4" y2="492.4"/>
	<line class="st83" x1="576.9" y1="487.4" x2="583.1" y2="487.4"/>
	<line class="st83" x1="576.9" y1="483.4" x2="583.1" y2="483.4"/>
	<line class="st83" x1="576.9" y1="479.3" x2="583.1" y2="479.3"/>
	<line class="st83" x1="576.9" y1="474.9" x2="591.4" y2="474.9"/>
	<line class="st83" x1="576.9" y1="469.9" x2="583.1" y2="469.9"/>
	<line class="st83" x1="576.9" y1="465.9" x2="583.1" y2="465.9"/>
	<line class="st83" x1="576.9" y1="461.8" x2="583.1" y2="461.8"/>
	<line class="st83" x1="576.9" y1="457.4" x2="591.4" y2="457.4"/>
	<line class="st83" x1="576.9" y1="452.4" x2="583.1" y2="452.4"/>
	<line class="st83" x1="576.9" y1="448.4" x2="583.1" y2="448.4"/>
	<line class="st83" x1="576.9" y1="444.3" x2="583.1" y2="444.3"/>
	<line class="st83" x1="576.9" y1="439.9" x2="591.4" y2="439.9"/>
	<line class="st83" x1="576.9" y1="434.9" x2="583.1" y2="434.9"/>
	<line class="st83" x1="576.9" y1="430.9" x2="583.1" y2="430.9"/>
	<line class="st83" x1="576.9" y1="426.8" x2="583.1" y2="426.8"/>
	<line class="st83" x1="576.9" y1="422.4" x2="591.4" y2="422.4"/>
	<line class="st83" x1="576.9" y1="417.4" x2="583.1" y2="417.4"/>
	<line class="st83" x1="576.9" y1="413.4" x2="583.1" y2="413.4"/>
	<line class="st83" x1="576.9" y1="409.3" x2="583.1" y2="409.3"/>
	<line class="st83" x1="576.9" y1="404.9" x2="591.4" y2="404.9"/>
	<line class="st83" x1="576.9" y1="399.9" x2="583.1" y2="399.9"/>
	<line class="st83" x1="576.9" y1="395.9" x2="583.1" y2="395.9"/>
	<line class="st83" x1="576.9" y1="391.8" x2="583.1" y2="391.8"/>
	<line class="st83" x1="576.9" y1="387.4" x2="591.4" y2="387.4"/>
	<line class="st83" x1="576.9" y1="382.4" x2="583.1" y2="382.4"/>
	<line class="st83" x1="576.9" y1="378.4" x2="583.1" y2="378.4"/>
	<line class="st83" x1="576.9" y1="374.3" x2="583.1" y2="374.3"/>
	<line class="st83" x1="576.9" y1="369.9" x2="591.4" y2="369.9"/>
	<line class="st83" x1="576.9" y1="364.9" x2="583.1" y2="364.9"/>
	<line class="st83" x1="576.9" y1="360.9" x2="583.1" y2="360.9"/>
	<line class="st83" x1="576.9" y1="356.8" x2="583.1" y2="356.8"/>
	<line class="st83" x1="576.9" y1="352.4" x2="591.4" y2="352.4"/>
	<line class="st83" x1="576.9" y1="347.4" x2="583.1" y2="347.4"/>
	<line class="st83" x1="576.9" y1="343.4" x2="583.1" y2="343.4"/>
	<line class="st83" x1="576.9" y1="339.3" x2="583.1" y2="339.3"/>
	<line class="st83" x1="576.9" y1="334.9" x2="591.4" y2="334.9"/>
	<line class="st83" x1="576.9" y1="329.9" x2="583.1" y2="329.9"/>
	<line class="st83" x1="576.9" y1="325.9" x2="583.1" y2="325.9"/>
	<line class="st83" x1="576.9" y1="321.8" x2="583.1" y2="321.8"/>
	<line class="st83" x1="576.9" y1="317.4" x2="591.4" y2="317.4"/>
	<line class="st83" x1="576.9" y1="312.4" x2="583.1" y2="312.4"/>
	<line class="st83" x1="576.9" y1="308.4" x2="583.1" y2="308.4"/>
	<line class="st83" x1="576.9" y1="304.3" x2="583.1" y2="304.3"/>
	<line class="st83" x1="576.9" y1="299.9" x2="591.4" y2="299.9"/>
	<line class="st83" x1="576.9" y1="294.9" x2="583.1" y2="294.9"/>
	<line class="st83" x1="576.9" y1="290.9" x2="583.1" y2="290.9"/>
	<line class="st83" x1="576.9" y1="286.8" x2="583.1" y2="286.8"/>
	<line class="st83" x1="576.9" y1="282.4" x2="591.4" y2="282.4"/>
	<line class="st83" x1="576.9" y1="277.4" x2="583.1" y2="277.4"/>
	<line class="st83" x1="576.9" y1="273.4" x2="583.1" y2="273.4"/>
	<line class="st83" x1="576.9" y1="269.3" x2="583.1" y2="269.3"/>
	<line class="st83" x1="576.9" y1="264.9" x2="591.4" y2="264.9"/>
	<line class="st83" x1="576.9" y1="259.9" x2="583.1" y2="259.9"/>
	<line class="st83" x1="576.9" y1="255.9" x2="583.1" y2="255.9"/>
	<line class="st83" x1="576.9" y1="251.8" x2="583.1" y2="251.8"/>
	<path class="st13" d="M1022.3,230.8H889.9c-1.9,0-3.4-1.5-3.4-3.4v-10.7c0-1.9,1.5-3.4,3.4-3.4h132.5c1.9,0,3.4,1.5,3.4,3.4v10.7
		C1025.7,229.3,1024.2,230.8,1022.3,230.8z"/>
	<line class="st13" x1="903.9" y1="213.4" x2="903.9" y2="230.8"/>
	<line class="st13" x1="921.3" y1="213.4" x2="921.3" y2="230.8"/>
	<line class="st13" x1="938.7" y1="213.4" x2="938.7" y2="230.8"/>
	<line class="st13" x1="956.1" y1="213.4" x2="956.1" y2="230.8"/>
	<line class="st13" x1="973.5" y1="213.4" x2="973.5" y2="230.8"/>
	<line class="st13" x1="990.9" y1="213.4" x2="990.9" y2="230.8"/>
	<line class="st13" x1="1008.3" y1="213.4" x2="1008.3" y2="230.8"/>
	<g>
		<g>
			<path d="M892.6,225.1c-0.1,0-0.1,0-0.2-0.1c-0.1-0.1-0.1-0.2-0.1-0.3l0.4-1.5c0,0,0-0.1,0.1-0.1l3.6-3.6c0.4-0.4,1.1-0.4,1.5,0
				c0.4,0.4,0.4,1.1,0,1.5l-3.6,3.6c0,0-0.1,0.1-0.1,0.1L892.6,225.1C892.7,225.1,892.6,225.1,892.6,225.1z M893.3,223.5l-0.3,1
				l1-0.3l3.6-3.6c0.2-0.2,0.2-0.5,0-0.7c-0.2-0.2-0.5-0.2-0.7,0L893.3,223.5z"/>
		</g>
	</g>
	<g>
		<g>
			<path d="M915.6,223.9h-3.9c-0.4,0-0.8-0.3-0.8-0.8l0-3.9c0-0.1,0.1-0.2,0.3-0.3c0.1,0,0.3,0.1,0.3,0.3l0,3.9
				c0,0.1,0.1,0.3,0.3,0.3h3.9c0.1,0,0.3,0.1,0.3,0.3S915.7,223.9,915.6,223.9z"/>
		</g>
		<g>
			<path d="M914.3,225.2c-0.1,0-0.3-0.1-0.3-0.3v-3.9c0-0.1-0.1-0.3-0.3-0.3l-3.9,0c0,0,0,0,0,0c-0.1,0-0.3-0.1-0.3-0.3
				c0-0.1,0.1-0.3,0.3-0.3l3.9,0c0.4,0,0.8,0.3,0.8,0.8v3.9C914.6,225.1,914.4,225.2,914.3,225.2z"/>
		</g>
	</g>
	<g>
		<g>
			<path d="M931.8,224.4h-3.2c-0.4,0-0.7-0.3-0.7-0.7v-3.2c0-0.4,0.3-0.7,0.7-0.7h3.2c0.4,0,0.7,0.3,0.7,0.7v3.2
				C932.5,224.1,932.2,224.4,931.8,224.4z M928.6,220.2c-0.1,0-0.2,0.1-0.2,0.2v3.2c0,0.1,0.1,0.2,0.2,0.2h3.2
				c0.1,0,0.2-0.1,0.2-0.2v-3.2c0-0.1-0.1-0.2-0.2-0.2H928.6z"/>
		</g>
		<g>
			<path d="M932.3,221.6h-4.2c-0.1,0-0.2-0.1-0.2-0.2s0.1-0.2,0.2-0.2h4.2c0.1,0,0.2,0.1,0.2,0.2S932.4,221.6,932.3,221.6z"/>
		</g>
		<g>
			<path d="M929.5,224.4c-0.1,0-0.2-0.1-0.2-0.2v-2.8c0-0.1,0.1-0.2,0.2-0.2s0.2,0.1,0.2,0.2v2.8
				C929.7,224.3,929.6,224.4,929.5,224.4z"/>
		</g>
	</g>
	<g>
		<g>
			<path d="M947.5,223c-0.5,0-0.8-0.4-0.8-0.8c0-0.5,0.4-0.8,0.8-0.8s0.8,0.4,0.8,0.8C948.3,222.6,947.9,223,947.5,223z
				 M947.5,221.7c-0.2,0-0.4,0.2-0.4,0.4c0,0.2,0.2,0.4,0.4,0.4s0.4-0.2,0.4-0.4C947.9,221.9,947.7,221.7,947.5,221.7z"/>
		</g>
		<g>
			<path d="M947.5,224.6c-0.3,0-0.6-0.3-0.6-0.6c0-0.1,0-0.1-0.1-0.1c-0.1,0-0.1,0-0.2,0c-0.1,0.1-0.3,0.2-0.4,0.2h0
				c-0.2,0-0.3-0.1-0.4-0.2c0,0,0,0,0,0v0c-0.2-0.2-0.2-0.6,0-0.9c0-0.1,0.1-0.1,0-0.2c0-0.1-0.1-0.1-0.1-0.1h0
				c-0.3,0-0.6-0.3-0.6-0.6s0.3-0.6,0.6-0.6c0.1,0,0.1,0,0.1-0.1c0-0.1,0-0.1,0-0.2c-0.3-0.3-0.3-0.6,0-0.9c0,0,0,0,0,0
				c0.1-0.1,0.3-0.2,0.4-0.2h0c0.2,0,0.3,0.1,0.4,0.2c0.1,0,0.1,0.1,0.2,0c0,0,0,0,0,0c0,0,0.1-0.1,0.1-0.1v0c0-0.3,0.3-0.6,0.6-0.6
				s0.6,0.3,0.6,0.6c0,0.1,0,0.1,0.1,0.1c0.1,0,0.1,0,0.2,0c0.1-0.1,0.3-0.2,0.4-0.2h0c0.2,0,0.3,0.1,0.4,0.2c0,0,0,0,0,0v0
				c0.2,0.2,0.2,0.6,0,0.9c0,0.1-0.1,0.1,0,0.2c0,0,0,0,0,0c0,0,0.1,0.1,0.1,0.1h0c0.3,0,0.6,0.3,0.6,0.6c0,0.3-0.3,0.6-0.6,0.6
				c-0.1,0-0.1,0-0.1,0.1c0,0,0,0,0,0c0,0.1,0,0.1,0,0.1c0.3,0.3,0.3,0.6,0,0.9c0,0,0,0,0,0c-0.1,0.1-0.3,0.2-0.4,0.2h0
				c-0.2,0-0.3-0.1-0.4-0.2c-0.1,0-0.1-0.1-0.2,0c-0.1,0-0.1,0.1-0.1,0.1v0C948.1,224.3,947.8,224.6,947.5,224.6z M946.7,223.4
				c0.1,0,0.1,0,0.2,0c0.2,0.1,0.3,0.3,0.3,0.5c0,0,0,0,0,0c0,0.1,0.1,0.2,0.2,0.2s0.2-0.1,0.2-0.2v0c0-0.2,0.1-0.4,0.3-0.5
				c0.2-0.1,0.4,0,0.6,0.1c0.1,0.1,0.1,0.1,0.2,0.1h0c0.1,0,0.1,0,0.1-0.1v0c0,0,0,0,0,0c0.1-0.1,0.1-0.2,0-0.3
				c-0.2-0.2-0.2-0.4-0.1-0.6c0.1-0.2,0.3-0.3,0.5-0.3c0.1,0,0.2-0.1,0.2-0.2c0-0.1-0.1-0.2-0.2-0.2h0c-0.2,0-0.4-0.1-0.5-0.3
				c0,0,0,0,0-0.1c-0.1-0.2,0-0.4,0.1-0.6c0.1-0.1,0.1-0.2,0-0.3c0,0,0,0,0,0c0,0-0.1-0.1-0.1-0.1h0c-0.1,0-0.1,0-0.1,0.1
				c-0.2,0.2-0.4,0.2-0.6,0.1c-0.2-0.1-0.3-0.3-0.3-0.5c0-0.1-0.1-0.2-0.2-0.2s-0.2,0.1-0.2,0.2v0c0,0.2-0.1,0.4-0.3,0.5
				c0,0,0,0-0.1,0c-0.2,0.1-0.4,0-0.6-0.1c-0.1-0.1-0.1-0.1-0.2-0.1h0c-0.1,0-0.1,0-0.1,0.1h0c0,0,0,0,0,0c-0.1,0.1-0.1,0.2,0,0.3
				c0.2,0.2,0.2,0.4,0.1,0.6c-0.1,0.2-0.3,0.3-0.5,0.3c0,0,0,0,0,0c-0.1,0-0.2,0.1-0.2,0.2c0,0.1,0.1,0.2,0.2,0.2h0
				c0.2,0,0.4,0.1,0.5,0.3c0.1,0.2,0,0.4-0.1,0.6c-0.1,0.1-0.1,0.2,0,0.3c0,0,0,0,0,0c0,0,0.1,0.1,0.1,0.1h0c0.1,0,0.1,0,0.1-0.1
				C946.4,223.5,946.6,223.4,946.7,223.4z"/>
		</g>
	</g>
	<g>
		<g>
			<path d="M964.9,224.3c-0.1,0-0.1,0-0.2-0.1l-2.4-1.9c-0.1-0.1-0.1-0.1-0.1-0.2s0-0.2,0.1-0.2l2.4-1.9c0.1-0.1,0.2-0.1,0.3,0
				c0.1,0,0.2,0.1,0.2,0.2v3.8c0,0.1-0.1,0.2-0.2,0.2C965,224.3,965,224.3,964.9,224.3z M962.9,222.1l1.7,1.3v-2.7L962.9,222.1z"/>
		</g>
		<g>
			<path d="M967.9,224.3c-0.1,0-0.1,0-0.2-0.1l-2.4-1.9c-0.1-0.1-0.1-0.1-0.1-0.2s0-0.2,0.1-0.2l2.4-1.9c0.1-0.1,0.2-0.1,0.3,0
				c0.1,0,0.2,0.1,0.2,0.2v3.8c0,0.1-0.1,0.2-0.2,0.2C968,224.3,967.9,224.3,967.9,224.3z M965.9,222.1l1.7,1.3v-2.7L965.9,222.1z"
				/>
		</g>
	</g>
	<g>
		<g>
			<path d="M982.6,220c0.1,0,0.1,0,0.2,0.1l2.4,1.9c0.1,0.1,0.1,0.1,0.1,0.2s0,0.2-0.1,0.2l-2.4,1.9c-0.1,0.1-0.2,0.1-0.3,0
				c-0.1,0-0.2-0.1-0.2-0.2v-3.8c0-0.1,0.1-0.2,0.2-0.2C982.5,220,982.6,220,982.6,220z M984.6,222.1l-1.7-1.3v2.7L984.6,222.1z"/>
		</g>
		<g>
			<path d="M979.6,220c0.1,0,0.1,0,0.2,0.1l2.4,1.9c0.1,0.1,0.1,0.1,0.1,0.2s0,0.2-0.1,0.2l-2.4,1.9c-0.1,0.1-0.2,0.1-0.3,0
				c-0.1,0-0.2-0.1-0.2-0.2v-3.8c0-0.1,0.1-0.2,0.2-0.2C979.6,220,979.6,220,979.6,220z M981.6,222.1l-1.7-1.3v2.7L981.6,222.1z"/>
		</g>
	</g>
	<g>
		<g>
			<path d="M1001.5,224.6h-3.4c-0.4,0-0.7-0.3-0.7-0.7v-3.4c0-0.4,0.3-0.7,0.7-0.7h2.7c0.1,0,0.1,0,0.2,0.1l1.2,1.2
				c0,0,0.1,0.1,0.1,0.2v2.7C1002.2,224.2,1001.9,224.6,1001.5,224.6z M998.1,220.2c-0.1,0-0.2,0.1-0.2,0.2v3.4
				c0,0.1,0.1,0.2,0.2,0.2h3.4c0.1,0,0.2-0.1,0.2-0.2v-2.6l-1.1-1.1H998.1z"/>
		</g>
		<g>
			<path d="M1001,224.6c-0.1,0-0.2-0.1-0.2-0.2v-1.7h-1.9v1.7c0,0.1-0.1,0.2-0.2,0.2s-0.2-0.1-0.2-0.2v-1.9c0-0.1,0.1-0.2,0.2-0.2
				h2.4c0.1,0,0.2,0.1,0.2,0.2v1.9C1001.2,224.5,1001.1,224.6,1001,224.6z"/>
		</g>
		<g>
			<path d="M1000.5,221.4h-1.9c-0.1,0-0.2-0.1-0.2-0.2V220c0-0.1,0.1-0.2,0.2-0.2s0.2,0.1,0.2,0.2v1h1.7c0.1,0,0.2,0.1,0.2,0.2
				S1000.6,221.4,1000.5,221.4z"/>
		</g>
	</g>
	<g>
		<g>
			<path d="M1016.8,224.1c-0.1,0-0.2-0.1-0.2-0.2v-3.4c0-0.1,0.1-0.2,0.2-0.2s0.2,0.1,0.2,0.2v3.4
				C1017.1,224,1017,224.1,1016.8,224.1z"/>
		</g>
		<g>
			<path d="M1018.5,222.4h-3.4c-0.1,0-0.2-0.1-0.2-0.2c0-0.1,0.1-0.2,0.2-0.2h3.4c0.1,0,0.2,0.1,0.2,0.2
				C1018.8,222.3,1018.7,222.4,1018.5,222.4z"/>
		</g>
	</g>
	<rect x="401.2" y="222.8" class="st8" width="118.8" height="29"/>
	<text id="XMLID_22_" transform="matrix(0.8888 0 0 1 424.0365 240.0448)" class="st10 st84 st85">Standard parts</text>
	<g id="XMLID_25_">
		<text transform="matrix(1 0 0 1 424.0365 269.29)" class="st6 st11 st12">Bionic Arm</text>
	</g>
	<g>
		<g>
			<g>
				<path class="st10" d="M413.4,238.6c-0.7,0-1.3-0.6-1.3-1.3s0.6-1.3,1.3-1.3s1.3,0.6,1.3,1.3S414.2,238.6,413.4,238.6z
					 M413.4,236.6c-0.4,0-0.6,0.3-0.6,0.6s0.3,0.6,0.6,0.6s0.6-0.3,0.6-0.6S413.8,236.6,413.4,236.6z"/>
			</g>
			<g>
				<path class="st10" d="M413.5,241.1c-0.5,0-1-0.4-1-1c0-0.1-0.1-0.2-0.1-0.2c-0.1,0-0.2,0-0.2,0c-0.2,0.2-0.4,0.3-0.7,0.3
					c0,0,0,0,0,0c-0.3,0-0.5-0.1-0.7-0.3c0,0,0,0,0,0v0c-0.4-0.4-0.4-1,0-1.4c0.1-0.1,0.1-0.2,0.1-0.2c0-0.1-0.1-0.1-0.2-0.1h-0.1
					c-0.5,0-1-0.4-1-1c0-0.5,0.4-1,1-1c0.1,0,0.2-0.1,0.2-0.1c0-0.1,0-0.2,0-0.2c-0.4-0.4-0.4-1,0-1.4c0,0,0,0,0,0
					c0.2-0.2,0.4-0.3,0.7-0.3c0,0,0,0,0,0c0.3,0,0.5,0.1,0.7,0.3c0.1,0.1,0.2,0.1,0.2,0.1c0,0,0,0,0.1,0c0.1,0,0.1-0.1,0.1-0.2v-0.1
					c0-0.5,0.4-1,1-1s1,0.4,1,1c0,0.1,0.1,0.2,0.1,0.2c0.1,0,0.2,0,0.2,0c0.2-0.2,0.4-0.3,0.7-0.3c0,0,0,0,0,0
					c0.3,0,0.5,0.1,0.7,0.3c0,0,0,0,0,0v0c0.4,0.4,0.4,1,0,1.4c-0.1,0.1-0.1,0.2-0.1,0.2c0,0,0,0,0,0.1c0,0.1,0.1,0.1,0.2,0.1h0.1
					c0.5,0,1,0.4,1,1s-0.4,1-1,1c-0.1,0-0.2,0-0.2,0.1c0,0,0,0,0,0c0,0.1,0,0.2,0,0.2c0.4,0.4,0.4,1,0,1.4c0,0,0,0,0,0
					c-0.2,0.2-0.4,0.3-0.7,0.3c0,0,0,0,0,0c-0.3,0-0.5-0.1-0.7-0.3c-0.1-0.1-0.2-0.1-0.2-0.1c-0.1,0-0.1,0.1-0.1,0.2v0.1
					C414.4,240.7,414,241.1,413.5,241.1z M412.3,239.3c0.1,0,0.2,0,0.3,0.1c0.3,0.1,0.5,0.4,0.5,0.8c0,0,0,0,0,0
					c0,0.2,0.1,0.3,0.3,0.3c0.2,0,0.3-0.1,0.3-0.3v-0.1c0-0.3,0.2-0.6,0.5-0.8c0.3-0.1,0.7-0.1,0.9,0.2c0.1,0.1,0.2,0.1,0.2,0.1h0
					c0.1,0,0.2,0,0.2-0.1v0c0,0,0,0,0,0c0.1-0.1,0.1-0.3,0-0.5c-0.3-0.3-0.3-0.6-0.2-1c0.1-0.3,0.4-0.5,0.8-0.5
					c0.2,0,0.4-0.1,0.4-0.3c0-0.2-0.1-0.3-0.3-0.3h-0.1c-0.3,0-0.6-0.2-0.8-0.5c0,0,0-0.1,0-0.1c-0.1-0.3,0-0.6,0.2-0.9
					c0.1-0.1,0.1-0.3,0-0.5c0,0,0,0,0,0c-0.1-0.1-0.1-0.1-0.2-0.1h0c-0.1,0-0.2,0-0.2,0.1c-0.3,0.3-0.6,0.3-1,0.2
					c-0.3-0.1-0.5-0.4-0.5-0.8c0-0.2-0.1-0.4-0.3-0.4s-0.3,0.1-0.3,0.3v0.1c0,0.3-0.2,0.6-0.5,0.8c0,0-0.1,0-0.1,0
					c-0.3,0.1-0.6,0-0.9-0.2c-0.1-0.1-0.2-0.1-0.2-0.1h0c-0.1,0-0.2,0-0.2,0.1h0c0,0,0,0,0,0c-0.1,0.1-0.1,0.3,0,0.5
					c0.3,0.3,0.3,0.6,0.2,1c-0.1,0.3-0.4,0.5-0.8,0.5c0,0,0,0,0,0c-0.2,0-0.3,0.1-0.3,0.3c0,0.2,0.1,0.3,0.3,0.3h0.1
					c0.3,0,0.6,0.2,0.8,0.5c0.1,0.3,0.1,0.7-0.2,0.9c-0.1,0.1-0.1,0.3,0,0.5c0,0,0,0,0,0c0.1,0.1,0.1,0.1,0.2,0.1c0,0,0,0,0,0
					c0.1,0,0.2,0,0.2-0.1C411.8,239.4,412.1,239.3,412.3,239.3z"/>
			</g>
		</g>
	</g>
	<g>
		<g>
			<path class="st10" d="M503.8,240c-0.1,0-0.2,0-0.3-0.1l-2.4-2.4c-0.2-0.2-0.2-0.4,0-0.6c0.2-0.2,0.4-0.2,0.6,0l2.1,2.1l2.1-2.1
				c0.2-0.2,0.4-0.2,0.6,0c0.2,0.2,0.2,0.4,0,0.6l-2.4,2.4C504,240,503.9,240,503.8,240z"/>
		</g>
	</g>
	<g>
		<g>
			<path class="st6" d="M503.8,268.7c-0.1,0-0.2,0-0.3-0.1l-2.4-2.4c-0.2-0.2-0.2-0.4,0-0.6c0.2-0.2,0.4-0.2,0.6,0l2.1,2.1l2.1-2.1
				c0.2-0.2,0.4-0.2,0.6,0c0.2,0.2,0.2,0.4,0,0.6l-2.4,2.4C504,268.7,503.9,268.7,503.8,268.7z"/>
		</g>
	</g>
	<path class="st86" d="M491.7,292h-48.8c-0.6,0-1.1-0.5-1.1-1.1v-1.5c0-0.6,0.5-1.1,1.1-1.1h48.8c0.6,0,1.1,0.5,1.1,1.1v1.5
		C492.7,291.5,492.3,292,491.7,292z"/>
	<path class="st86" d="M478.9,299.2h-36.1c-0.6,0-1.1-0.5-1.1-1.1v-1.5c0-0.6,0.5-1.1,1.1-1.1h36.1c0.6,0,1.1,0.5,1.1,1.1v1.5
		C480,298.7,479.5,299.2,478.9,299.2z"/>
	<path class="st86" d="M491.7,314.8h-48.8c-0.6,0-1.1-0.5-1.1-1.1v-1.5c0-0.6,0.5-1.1,1.1-1.1h48.8c0.6,0,1.1,0.5,1.1,1.1v1.5
		C492.7,314.3,492.3,314.8,491.7,314.8z"/>
	<path class="st86" d="M478.9,321.9h-36.1c-0.6,0-1.1-0.5-1.1-1.1v-1.5c0-0.6,0.5-1.1,1.1-1.1h36.1c0.6,0,1.1,0.5,1.1,1.1v1.5
		C480,321.4,479.5,321.9,478.9,321.9z"/>
	<path class="st86" d="M491.7,337.5h-48.8c-0.6,0-1.1-0.5-1.1-1.1V335c0-0.6,0.5-1.1,1.1-1.1h48.8c0.6,0,1.1,0.5,1.1,1.1v1.5
		C492.7,337,492.3,337.5,491.7,337.5z"/>
	<path class="st86" d="M478.9,344.7h-36.1c-0.6,0-1.1-0.5-1.1-1.1v-1.5c0-0.6,0.5-1.1,1.1-1.1h36.1c0.6,0,1.1,0.5,1.1,1.1v1.5
		C480,344.2,479.5,344.7,478.9,344.7z"/>
	<path class="st86" d="M491.7,360.3h-48.8c-0.6,0-1.1-0.5-1.1-1.1v-1.5c0-0.6,0.5-1.1,1.1-1.1h48.8c0.6,0,1.1,0.5,1.1,1.1v1.5
		C492.7,359.8,492.3,360.3,491.7,360.3z"/>
	<path class="st86" d="M478.9,367.5h-36.1c-0.6,0-1.1-0.5-1.1-1.1v-1.5c0-0.6,0.5-1.1,1.1-1.1h36.1c0.6,0,1.1,0.5,1.1,1.1v1.5
		C480,367,479.5,367.5,478.9,367.5z"/>
	<path class="st86" d="M491.7,383.1h-48.8c-0.6,0-1.1-0.5-1.1-1.1v-1.5c0-0.6,0.5-1.1,1.1-1.1h48.8c0.6,0,1.1,0.5,1.1,1.1v1.5
		C492.7,382.6,492.3,383.1,491.7,383.1z"/>
	<path class="st86" d="M478.9,390.2h-36.1c-0.6,0-1.1-0.5-1.1-1.1v-1.5c0-0.6,0.5-1.1,1.1-1.1h36.1c0.6,0,1.1,0.5,1.1,1.1v1.5
		C480,389.8,479.5,390.2,478.9,390.2z"/>
	<circle class="st86" cx="428.7" cy="293.7" r="7.7"/>
	<circle class="st86" cx="428.7" cy="316.5" r="7.7"/>
	<circle class="st86" cx="428.7" cy="339.3" r="7.7"/>
	<circle class="st86" cx="428.7" cy="362.1" r="7.7"/>
	<circle class="st86" cx="428.7" cy="384.8" r="7.7"/>
	<g>
		<rect x="370.9" y="188.3" class="st8" width="7.1" height="7.1"/>
		<rect x="379.9" y="188.3" class="st8" width="7.1" height="7.1"/>
		<rect x="370.9" y="197.7" class="st8" width="7.1" height="7.1"/>
		<rect x="379.9" y="197.7" class="st8" width="7.1" height="7.1"/>
	</g>
</g>
</svg>
