<?xml version="1.0" encoding="utf-8"?>
<!-- Generator: Adobe Illustrator 19.0.0, SVG Export Plug-In . SVG Version: 6.00 Build 0)  -->
<svg version="1.1" id="Section1" xmlns="http://www.w3.org/2000/svg" xmlns:xlink="http://www.w3.org/1999/xlink" x="0px" y="0px"
	 viewBox="2 120.9 600 600" style="enable-background:new 2 120.9 600 600;" xml:space="preserve">
<style type="text/css">
	.st0{fill:#FFFFFF;}
	.st1{fill:#FF8017;}
	.st2{opacity:0.5;clip-path:url(#SVGID_2_);fill:#CCCCCC;}
	.st3{clip-path:url(#SVGID_2_);fill:#FFFFFF;stroke:#FFFFFF;stroke-miterlimit:10;}
	.st4{clip-path:url(#SVGID_2_);fill:#1DDBA5;}
	.st5{clip-path:url(#SVGID_2_);fill:#40405B;}
	.st6{clip-path:url(#SVGID_2_);fill:#6F7592;}
	.st7{clip-path:url(#SVGID_2_);fill:#38332D;}
	.st8{clip-path:url(#SVGID_2_);fill:#FF5555;}
	.st9{fill:#6F7592;}
	.st10{fill:#FF5555;}
	.st11{fill:none;stroke:#6F7592;stroke-width:3;stroke-linecap:round;stroke-linejoin:round;stroke-miterlimit:10;}
	.st12{fill:none;stroke:#6F7592;stroke-width:3;stroke-miterlimit:10;}
	.st13{fill:#332D55;}
	.st14{font-family:'NexaBold';}
	.st15{font-size:12.6517px;}
	.st16{fill:#FAFAFA;}
	.st17{fill:#1DDBA5;}
	.st18{fill:#FAFAFA;stroke:#6F7592;stroke-width:3;stroke-miterlimit:10;}
	.st19{fill:#FAFAFA;stroke:#6F7592;stroke-width:3;stroke-linecap:round;stroke-linejoin:round;stroke-miterlimit:10;}
	.st20{opacity:0.5;clip-path:url(#SVGID_4_);fill:#CCCCCC;}
	.st21{clip-path:url(#SVGID_4_);fill:#FFFFFF;}
	.st22{clip-path:url(#SVGID_4_);}
	.st23{fill:#54BBD3;}
	.st24{opacity:0.2;fill:#E84376;}
	.st25{fill:#38332D;}
	.st26{clip-path:url(#SVGID_6_);fill:#6F7592;}
	.st27{opacity:0.2;clip-path:url(#SVGID_6_);fill:#E84376;}
	.st28{opacity:0.5;clip-path:url(#SVGID_8_);fill:#CCCCCC;}
	.st29{clip-path:url(#SVGID_8_);fill:#FFFFFF;}
	.st30{clip-path:url(#SVGID_8_);}
	.st31{fill:#9043FF;}
	.st32{clip-path:url(#SVGID_8_);fill:#1DDBA5;}
</style>
<g>
	<g>
		<polygon class="st0" points="285.8,394.2 282.4,393.1 280.4,389.5 279.7,386 279.7,383.5 280.3,381.6 282.2,380.7 285.1,372.7 
			289.4,364.5 319.5,363.9 322.1,372.7 322.1,380 323,381.2 324.8,381 326.4,382.8 326.6,387.7 324.7,392.3 322.1,393.8 
			319.9,394.4 312.1,413.8 312.6,418.9 313.7,422.3 316.4,426.3 313.5,427.1 307.8,428 302.1,428.3 296.7,427.9 289,426.8 
			292.4,422.2 293.3,418.4 293.3,411.9 287.4,398.7 		"/>
		<path class="st1" d="M322.1,380.4l-3-4c0.4,5.8,0.4,12-1.1,17.6c-0.4,1.7-1.5,4.8-3.3,4.6c-1.9-0.1-7.1-2.5-11.4-2.6
			c-4.2-0.1-8,1.7-12.1,2.2c-2.9,0.3-3.3-1.2-3.7-3.7c-0.8-5-1.2-9.6-1.2-14.7c0-0.7-0.4-2.7,0-3.4l-3,4c0.4,13.8,3.7,22,3.7,22
			c0.4,1.6,1.2,3.8,1.4,4.2c1.5,3.6,4.4,7.4,8,9c8.7,3.9,16.9,2.5,22-9C322.1,398.2,321.8,389.1,322.1,380.4z M310.5,403.9
			c-1.7,2-4.3,2.8-6.9,2.6c-0.7,0-1.3-0.1-2-0.3c-1.4-0.3-2.8-0.8-4-1.7c-0.6-0.4-3.2-2.9-2.6-3.8c0,0,1.1-1.5,8.4-1.4
			c7.3,0.2,8.4,1.7,8.4,1.8C312.2,401.7,310.8,403.6,310.5,403.9z"/>
		<g>
			<defs>
				<circle id="SVGID_1_" cx="302.5" cy="412.4" r="35.2"/>
			</defs>
			<clipPath id="SVGID_2_">
				<use xlink:href="#SVGID_1_"  style="overflow:visible;"/>
			</clipPath>
			<circle class="st2" cx="302.5" cy="412.4" r="35.2"/>
			<polygon class="st3" points="285.9,394.2 282.5,393.1 280.5,389.5 279.8,386 279.8,383.5 280.4,381.6 282.3,380.7 285.2,372.7 
				289.6,364.5 319.6,363.9 322.2,372.7 322.2,380 323.1,381.2 324.9,381 326.5,382.8 326.7,387.7 324.8,392.3 322.2,393.8 
				320,394.4 312.2,413.8 312.7,418.9 313.9,422.3 316.5,426.3 313.6,427.1 307.9,428 302.2,428.3 296.8,427.9 289.1,426.8 
				292.5,422.2 293.4,418.4 293.4,411.9 287.5,398.7 			"/>
			<path class="st4" d="M258.3,447.9c0,0,4.4-9.2,12.7-12.4l7.1-2.6c0,0,9.7-3.7,11.6-5.6c0,0,18.1,2.6,26.3-1.2
				c0,0,7.4,5.1,9.8,5.9c0,0,11.4,2.8,15.2,7c0,0,6.4,4.8,6.2,8.8H258.3z"/>
			<path class="st5" d="M284.9,385.4c1.2-4.2,1.2-14.9,6.6-16.3c2.3-0.6,10,5.7,20.7,0c4.3-2.3,8.6,12.4,9.4,14.5l0.3-1.9l2-1.5
				c0,0,8.3-30-21.5-29.4c-29.8,0.6-21.2,29.6-21.2,29.6S284.5,380,284.9,385.4z"/>
			<path class="st6" d="M260.9,444.6c2.4-4.3,7-7.6,11.6-9.6c1.9,4.3,2.1,8.9,1.7,13.6h1.2c0.4-4.8,0.1-9.5-1.8-14
				c4.5-1.8,9.3-2.7,13.3-5.4c0.1-0.1,0.2-0.1,0.2-0.2c0.8-0.5,1.5-1,2.2-1.6c0.1,0.1,0.2,0.2,0.3,0.2c9,1.6,18.1,2.2,26.9-0.4
				c0,0,0,0,0,0c0.3,0.3,0.7,0.7,1.1,1c4.3,3.3,10.2,4.5,15.1,6.5c0.2,0.1,0.4,0.2,0.6,0.3c-3.1,3.5-3.9,8.7-3.8,13.6h1.2
				c-0.1-4.8,0.6-9.9,3.7-13.1c4.2,2,8.3,5.2,10.5,9.1c0.7,1.2,1.3,2.7,1.8,3.9h1.1c-1.1-3-2.8-6.2-5-8.7c-3.3-3.7-8.6-5.8-13.3-7.4
				c-7.8-2.5-15.8-5.5-16.6-14.9c-0.2-2.3-0.1-4.6-0.1-7c3.7-2.6,5.9-7.2,7.2-11.7c1.5-5.7,1.9-11.8,1.5-17.7
				c-0.4,0.2-0.7,0.3-1.1,0.4c0.4,5.4-0.1,11-1.3,16.2c-1.5,6.3-5.1,13.3-12.4,13.7c-0.1,0-0.1,1.2,0,1.2c1.9-0.1,3.6-0.6,5.1-1.4
				c0,1.8-0.1,3.5,0,5.3c0.2,3.4,1.4,6.9,3.7,9.6c-8.3,2.3-16.9,1.8-25.4,0.3c2.7-2.8,3.5-6.2,3.7-9.9c0.1-2,0-4.1,0-6.1
				c1.3,0.8,2.7,1.4,4.4,1.7c0.7,0.1,0.9-1,0.2-1.1c-5.9-1.1-9.2-6.4-11-11.6c-1.9-5.4-2.5-11.2-2.5-16.9c0-0.7-1.1-0.6-1.1,0.1
				c0,6,0.7,12.1,2.7,17.7c1.3,3.6,3.3,7.1,6.3,9.4c0,2.6,0.1,5.2-0.1,7.8c-0.3,3.1-1.4,5.9-3.4,8.2c-3.3,3.9-8.5,5.2-13.2,6.7
				c-4.7,1.5-10,3.6-13.3,7.4c-2.2,2.5-3.9,5.7-5,8.7h1.1C259.6,447.3,260.2,445.8,260.9,444.6z"/>
			<path class="st6" d="M298.9,402.7c3.1-1.2,6.1-1,9.1,0.5c0.5,0.2,0.9-0.4,0.4-0.7c-3.2-1.6-6.4-1.8-9.7-0.6
				C298.2,402.1,298.4,402.9,298.9,402.7z"/>
			<path class="st7" d="M321.7,381.3c-0.5,0.4,0,1.4,0.5,0.9c3.3-2.6,4,1.1,4,3.9c-0.1,3.2-1.5,7.1-5.1,7.5c-0.7,0.1-0.7,1.2,0,1.1
				c4.8-0.5,6.3-5.3,6.2-9.6C327.2,381.4,325.2,378.6,321.7,381.3z"/>
			<path class="st7" d="M284.8,381.3c0.5,0.4,0,1.4-0.5,0.9c-3.3-2.6-4,1.1-4,3.9c0.1,3.2,1.5,7.1,5.1,7.5c0.7,0.1,0.7,1.2,0,1.1
				c-4.8-0.5-6.3-5.3-6.2-9.6C279.2,381.4,281.3,378.6,284.8,381.3z"/>
			<path class="st8" d="M322.2,380.6l-3-4c0.4,5.8,0.4,12-1.1,17.6c-0.4,1.7-1.5,4.8-3.3,4.6c-1.9-0.1-7.1-2.5-11.4-2.6
				c-4.2-0.1-8,1.7-12.1,2.2c-2.9,0.3-3.3-1.2-3.7-3.7c-0.8-5-1.2-9.6-1.2-14.7c0-0.7-0.4-2.7,0-3.4l-3,4c0.4,13.8,3.7,22,3.7,22
				c0.4,1.6,1.2,3.8,1.4,4.2c1.5,3.6,4.4,7.4,8,9c8.7,3.9,16.9,2.5,22-9C322.1,398.4,321.9,389.3,322.2,380.6z M310.6,404.1
				c-1.7,2-4.3,2.8-6.9,2.6c-0.7,0-1.3-0.1-2-0.3c-1.4-0.3-2.8-0.8-4-1.7c-0.6-0.4-3.2-2.9-2.6-3.8c0,0,1.1-1.5,8.4-1.4
				c7.3,0.2,8.4,1.7,8.4,1.8C312.3,401.9,310.9,403.8,310.6,404.1z"/>
		</g>
		<path class="st9" d="M321.7,381.3c-0.5,0.4,0,1.4,0.5,0.9c3.3-2.6,4,1.1,4,3.9c-0.1,3.2-1.5,7.1-5.1,7.5c-0.7,0.1-0.7,1.2,0,1.1
			c4.8-0.5,6.3-5.3,6.2-9.6C327.2,381.4,325.2,378.6,321.7,381.3z"/>
		<path class="st9" d="M284.8,381.3c0.5,0.4,0,1.4-0.5,0.9c-3.3-2.6-4,1.1-4,3.9c0.1,3.2,1.5,7.1,5.1,7.5c0.7,0.1,0.7,1.2,0,1.1
			c-4.8-0.5-6.3-5.3-6.2-9.6C279.2,381.4,281.3,378.6,284.8,381.3z"/>
		<path class="st10" d="M284.9,385.4c1.2-4.2,1.2-14.9,6.6-16.3c2.3-0.6,10,5.7,20.7,0c4.3-2.3,8.6,12.4,9.4,14.5l0.3-1.9l2-1.5
			c0,0,8.3-30-21.5-29.4c-29.8,0.6-21.2,29.6-21.2,29.6S284.5,380,284.9,385.4z"/>
	</g>
	<polyline class="st11" points="251,203.9 254.8,211.2 247.5,215 	"/>
	<polyline class="st11" points="145.8,394.4 137.6,393.7 138.2,385.5 	"/>
	<path class="st12" d="M94.5,388.3c0,0-6.7-28.3,22.4-48.7"/>
	<path class="st12" d="M251.2,392.9c0,0-23.3-43.1,17.8-91.3"/>
	<path class="st12" d="M330.1,353.2c0,0,29.3-40.1,90.5-20"/>
	<path class="st12" d="M353,394.1c0,0,35.8-38.9,9.1-92.5"/>
	<path class="st12" d="M367.2,219.2c0,0,46.4-9.2,81.2,47.6"/>
	<path class="st12" d="M503.3,468.4c0,0,37.6-44.5,8.9-94.1"/>
	<path class="st12" d="M394.8,545.9c0,0-45.3-90.7,29.5-158.7"/>
	<path class="st12" d="M206.3,522.2c0,0-36.6-50.6-5.5-98.6s5.5-72,5.5-72"/>
	<path class="st12" d="M138.6,392.9c0,0,43-31,91.2-3.3"/>
	<path class="st12" d="M112.1,513.1c0,0-6.7,56.5,54.6,67.6"/>
	<path class="st12" d="M228.3,522.2c0,0-16.1-54.6,26.8-87.1"/>
	<path class="st12" d="M286,482.1c0,0,14,64.6,84.8,79.1"/>
	<path class="st12" d="M267.1,581.7c0,0,10.1-59.9,65-72.4c55-12.5,72.5-29.1,72.5-29.1"/>
	<path class="st12" d="M275.4,642.1c0,0,46.5,29.3,95.5-3.7"/>
	<polyline class="st11" points="363.3,637.2 371.5,637.2 371.5,645.5 	"/>
	<polyline class="st11" points="275.8,649.5 273.9,641.5 281.9,639.6 	"/>
	<polyline class="st11" points="273.7,579.2 266.4,583 262.6,575.7 	"/>
	<polyline class="st11" points="233.1,516.8 228.8,523.9 221.8,519.5 	"/>
	<polyline class="st11" points="209.3,515.7 207.1,523.6 199.2,521.5 	"/>
	<polyline class="st11" points="163.7,574.1 168.1,581 161.2,585.5 	"/>
	<polyline class="st11" points="106,516.2 112.2,510.7 117.7,516.8 	"/>
	<polyline class="st11" points="367.5,554.7 372.5,561.2 366,566.3 	"/>
	<polyline class="st11" points="397.4,539.1 395.6,547.2 387.5,545.3 	"/>
	<polyline class="st11" points="397.6,479 405.9,479.4 405.5,487.6 	"/>
	<polyline class="st11" points="280.8,487.4 285.6,480.7 292.3,485.5 	"/>
	<polyline class="st11" points="247.7,433.8 256,434.2 255.5,442.4 	"/>
	<polyline class="st11" points="510.5,469.1 502.2,469.6 501.7,461.4 	"/>
	<polyline class="st11" points="509.6,381.2 511.3,373.1 519.3,374.7 	"/>
	<polyline class="st11" points="417,386.4 425.2,385.8 425.8,394 	"/>
	<polyline class="st11" points="419.3,326.2 421.8,334.1 413.9,336.6 	"/>
	<polyline class="st11" points="337.1,353.6 328.9,354.2 328.3,346 	"/>
	<polyline class="st11" points="360.3,394.7 352.1,395.3 351.5,387.1 	"/>
	<polyline class="st11" points="358.6,308.2 361.7,300.6 369.3,303.6 	"/>
	<polyline class="st11" points="261.9,301.4 270.1,300.7 270.8,308.9 	"/>
	<polyline class="st11" points="193.3,239.1 185.3,241.1 183.4,233.1 	"/>
	<polyline class="st11" points="254.4,386.4 252.2,394.3 244.2,392.1 	"/>
	<polyline class="st11" points="230.5,382.7 230.8,391 222.6,391.2 	"/>
	<polyline class="st11" points="99.2,382.7 94.9,389.7 87.9,385.4 	"/>
	<polyline class="st11" points="109.8,338.1 118,338.5 117.6,346.7 	"/>
	<polyline class="st11" points="203.3,358.1 205.8,350.2 213.7,352.8 	"/>
	<polyline class="st11" points="371.5,224.5 365.5,218.9 371.1,212.9 	"/>
	<polyline class="st11" points="451.2,260.1 449.2,268.1 441.2,266.2 	"/>
	<text transform="matrix(0.8888 0 0 1 291.9691 459.7507)" class="st13 st14 st15">You</text>
	<text transform="matrix(0.8888 0 0 1 180.4735 639.5784)" class="st13 st14 st15">Paperwork</text>
	<text transform="matrix(0.8888 0 0 1 293.3314 287.7371)" class="st13 st14 st15">Funding</text>
	<text transform="matrix(0.8888 0 0 1 127.1547 332.8235)" class="st13 st14 st15">Contracts</text>
	<text transform="matrix(0.8888 0 0 1 438.1776 505.9446)" class="st13 st14 st15">Planning</text>
	<text transform="matrix(0.8888 0 0 1 401.1132 624.7488)" class="st13 st14 st15">Budget</text>
	<text transform="matrix(0.8888 0 0 1 81.1146 485.0925)" class="st13 st14 st15">Accountant</text>
	<text transform="matrix(0.8888 0 0 1 446.9281 361.239)" class="st13 st14 st15">Partner</text>
	<path class="st16" d="M482.4,483.1l-40.9,6.2c-3.8,0.6-7.4-2-7.9-5.8l-7.5-48.8c-0.6-3.8,2-7.4,5.8-7.9l40.9-6.2
		c3.8-0.6,7.4,2,7.9,5.8l7.5,48.8C488.9,479,486.2,482.6,482.4,483.1z"/>
	<path class="st9" d="M469.8,469.2l-8.2,1.2c-0.6,0.1-0.9,0.6-0.8,1.2l1.2,8.2c0.1,0.6,0.6,0.9,1.2,0.8l8.2-1.2
		c0.6-0.1,0.9-0.6,0.8-1.2l-1.2-8.2C470.8,469.5,470.3,469.1,469.8,469.2z M470,477.5l-6.2,0.9l-0.9-6.2l6.2-0.9L470,477.5z"/>
	<path class="st9" d="M457.6,471l-8.2,1.2c-0.6,0.1-0.9,0.6-0.8,1.2l1.2,8.2c0.1,0.6,0.6,0.9,1.2,0.8l8.2-1.2
		c0.6-0.1,0.9-0.6,0.8-1.2l-1.2-8.2C458.7,471.3,458.2,471,457.6,471z M457.9,479.4l-6.2,0.9l-0.9-6.2l6.2-0.9L457.9,479.4z"/>
	<path class="st9" d="M455.7,458.9l-8.2,1.2c-0.6,0.1-0.9,0.6-0.8,1.2l1.2,8.2c0.1,0.6,0.6,0.9,1.2,0.8l8.2-1.2
		c0.6-0.1,0.9-0.6,0.8-1.2l-1.2-8.2C456.8,459.2,456.3,458.8,455.7,458.9z M456,467.2l-6.2,0.9l-0.9-6.2l6.2-0.9L456,467.2z"/>
	<path class="st9" d="M445.4,472.9l-8.2,1.2c-0.6,0.1-0.9,0.6-0.8,1.2l1.2,8.2c0.1,0.6,0.6,0.9,1.2,0.8l8.2-1.2
		c0.6-0.1,0.9-0.6,0.8-1.2l-1.2-8.2C446.5,473.2,446,472.8,445.4,472.9z M445.7,481.2l-6.2,0.9l-0.9-6.2l6.2-0.9L445.7,481.2z"/>
	<path class="st9" d="M478.9,447.2l-8.2,1.2c-0.6,0.1-0.9,0.6-0.8,1.2l0.6,4c0.1,0.6,0.6,0.9,1.2,0.8l8.2-1.2
		c0.6-0.1,0.9-0.6,0.8-1.2l-0.6-4C479.9,447.4,479.4,447.1,478.9,447.2z M478.5,451.3l-6.2,0.9l-0.3-2l6.2-0.9L478.5,451.3z"/>
	<path class="st9" d="M467.9,457l-8.2,1.2c-0.6,0.1-0.9,0.6-0.8,1.2l1.2,8.2c0.1,0.6,0.6,0.9,1.2,0.8l8.2-1.2
		c0.6-0.1,0.9-0.6,0.8-1.2l-1.2-8.2C469,457.3,468.5,456.9,467.9,457z M468.2,465.3l-6.2,0.9l-0.9-6.2l6.2-0.9L468.2,465.3z"/>
	<path class="st9" d="M466.7,449l-8.2,1.2c-0.6,0.1-0.9,0.6-0.8,1.2l0.6,4c0.1,0.6,0.6,0.9,1.2,0.8l8.2-1.2c0.6-0.1,0.9-0.6,0.8-1.2
		l-0.6-4C467.8,449.3,467.3,448.9,466.7,449z M466.3,453.2l-6.2,0.9l-0.3-2l6.2-0.9L466.3,453.2z"/>
	<path class="st9" d="M474.8,420.1l-44.7,6.8c-2.8,0.4-4.7,3-4.2,5.8l8,52.7c0.4,2.8,3,4.7,5.8,4.2l44.7-6.8c2.8-0.4,4.7-3,4.2-5.8
		l-8-52.7C480.1,421.6,477.5,419.7,474.8,420.1z M486.6,477.4c0.3,1.7-0.9,3.2-2.5,3.5l-44.7,6.8c-1.7,0.3-3.2-0.9-3.5-2.5l-8-52.7
		c-0.3-1.7,0.9-3.2,2.5-3.5l44.7-6.8c1.7-0.3,3.2,0.9,3.5,2.5L486.6,477.4z"/>
	<path class="st9" d="M475.6,425.5l-44.7,6.8c-0.6,0.1-0.9,0.6-0.8,1.2l2.5,16.3c0.1,0.6,0.6,0.9,1.2,0.8l8.2-1.2
		c0.6-0.1,0.9-0.6,0.8-1.2c-0.1-0.6-0.6-0.9-1.2-0.8l-7.2,1.1l-2.2-14.3l42.7-6.5l2.2,14.3l-31.5,4.8c-0.6,0.1-0.9,0.6-0.8,1.2
		s0.6,0.9,1.2,0.8l32.5-5c0.6-0.1,0.9-0.6,0.8-1.2l-2.5-16.3C476.6,425.8,476.1,425.4,475.6,425.5z"/>
	<path class="st9" d="M468.5,432.7l4-0.6c0.6-0.1,0.9-0.6,0.8-1.2c-0.1-0.6-0.6-0.9-1.2-0.8l-4,0.6c-0.6,0.1-0.9,0.6-0.8,1.2
		C467.4,432.4,467.9,432.8,468.5,432.7z"/>
	<path class="st9" d="M469.7,440.7l4-0.6c0.6-0.1,0.9-0.6,0.8-1.2c-0.1-0.6-0.6-0.9-1.2-0.8l-4,0.6c-0.6,0.1-0.9,0.6-0.8,1.2
		C468.6,440.4,469.1,440.8,469.7,440.7z"/>
	<path class="st9" d="M468.1,437.2c0.1,0.6,0.6,0.9,1.2,0.8c0.6-0.1,0.9-0.6,0.8-1.2l-0.4-2.7c-0.1-0.6-0.6-0.9-1.2-0.8
		c-0.6,0.1-0.9,0.6-0.8,1.2L468.1,437.2z"/>
	<polygon class="st0" points="432.5,608.8 431.8,603.1 438.6,594.7 445.2,599.9 438.3,608.6 	"/>
	<path class="st0" d="M444.9,599.8l-44,5.2c-3.7,0.4-7-2.2-7.5-5.9l-3.4-28.7c-0.4-3.7,2.2-7,5.9-7.5l44-5.2c3.7-0.4,7,2.2,7.5,5.9
		l3.4,28.7C451.2,596,448.6,599.4,444.9,599.8z"/>
	<path class="st17" d="M428.5,581.4c-0.1-0.5-0.6-0.9-1.1-0.9l-15.8,1.9c-0.5,0.1-0.9,0.6-0.9,1.1c0.1,0.5,0.6,0.9,1.1,0.9l15.8-1.9
		C428.1,582.4,428.5,581.9,428.5,581.4z"/>
	<path class="st9" d="M409,569.6c-0.1-0.5-0.6-0.9-1.1-0.9l-9.9,1.2c-0.5,0.1-0.9,0.6-0.9,1.1c0.1,0.5,0.6,0.9,1.1,0.9l9.9-1.2
		C408.7,570.7,409.1,570.2,409,569.6z"/>
	<path class="st17" d="M412.2,588.3c-0.5,0.1-0.9,0.6-0.9,1.1c0.1,0.5,0.6,0.9,1.1,0.9l5.9-0.7c0.5-0.1,0.9-0.6,0.9-1.1
		c-0.1-0.5-0.6-0.9-1.1-0.9L412.2,588.3z"/>
	<path class="st9" d="M428.7,600.4l-30.7,3.6c-1.6,0.2-3.1-1-3.3-2.6l-4-33.7c-0.2-1.6,1-3.1,2.6-3.3l49.5-5.8
		c1.6-0.2,3.1,1,3.3,2.6L449,585c0.1,0.5,0.6,0.9,1.1,0.9c0.5-0.1,0.9-0.6,0.9-1.1l-2.8-23.8c-0.3-2.7-2.8-4.7-5.5-4.4l-49.5,5.8
		c-2.7,0.3-4.7,2.8-4.4,5.5l4,33.7c0.3,2.7,2.8,4.7,5.5,4.4l30.7-3.6c0.5-0.1,0.9-0.6,0.9-1.1C429.7,600.8,429.2,600.4,428.7,600.4z
		"/>
	<path class="st9" d="M437.6,565.3c-0.5,0.1-0.9,0.6-0.9,1.1s0.6,0.9,1.1,0.9l2-0.2c0.5-0.1,0.9-0.6,0.9-1.1s-0.6-0.9-1.1-0.9
		L437.6,565.3z"/>
	<path class="st9" d="M427.9,568.4c0.5-0.1,0.9-0.6,0.9-1.1c-0.1-0.5-0.6-0.9-1.1-0.9l-2,0.2c-0.5,0.1-0.9,0.6-0.9,1.1
		c0.1,0.5,0.6,0.9,1.1,0.9L427.9,568.4z"/>
	<path class="st9" d="M433.9,567.7c0.5-0.1,0.9-0.6,0.9-1.1c-0.1-0.5-0.6-0.9-1.1-0.9l-2,0.2c-0.5,0.1-0.9,0.6-0.9,1.1
		c0.1,0.5,0.6,0.9,1.1,0.9L433.9,567.7z"/>
	<path class="st9" d="M438.4,580.2c-0.1-0.5-0.6-0.9-1.1-0.9l-5.9,0.7c-0.5,0.1-0.9,0.6-0.9,1.1c0.1,0.5,0.6,0.9,1.1,0.9l5.9-0.7
		C438,581.3,438.4,580.8,438.4,580.2z"/>
	<path class="st9" d="M422.3,589.1l11.9-1.4c0.5-0.1,0.9-0.6,0.9-1.1c-0.1-0.5-0.6-0.9-1.1-0.9l-11.9,1.4c-0.5,0.1-0.9,0.6-0.9,1.1
		C421.3,588.8,421.8,589.2,422.3,589.1z"/>
	<path class="st17" d="M405.4,590.6l0.5,1.3c0.2,0.5-0.1,1-0.6,1.2c-0.3,0.1-0.6,0.2-1,0.2c-1.6,0.2-2.9-0.1-3.9-0.7
		c-1-0.7-1.7-1.7-2.2-3l-1.1,0.1L397,588l0.9-0.1l0-0.4c0-0.2,0-0.4,0-0.5l-0.9,0.1l-0.2-1.8l1.1-0.1c0.2-1.4,0.7-2.5,1.5-3.4
		c0.8-0.9,2-1.4,3.5-1.6c0.6-0.1,1.2,0,1.8,0.1l-0.4,2.2c-0.3-0.1-0.7-0.1-1.1,0c-1.6,0.2-2.6,1-3.1,2.5l2.6-0.3
		c0.6-0.1,1,0.4,1,0.9l0,0c0,0.4-0.4,0.8-0.8,0.8l-3.1,0.4c0,0.1,0,0.3,0,0.5c0,0.2,0,0.3,0.1,0.4l2.5-0.3c0.5-0.1,1,0.4,1,0.9l0,0
		c0,0.4-0.4,0.8-0.8,0.8l-2,0.2c0.8,1.3,2,1.9,3.7,1.7C404.5,591,405,590.9,405.4,590.6z M473,590.6l0.5,1.3c0.2,0.5-0.1,1-0.6,1.2
		c-0.3,0.1-0.6,0.2-1,0.2c-1.6,0.2-2.9-0.1-3.9-0.7c-1-0.7-1.7-1.7-2.2-3l-1.1,0.1l-0.2-1.8l0.9-0.1l0-0.4c0-0.2,0-0.4,0-0.5
		l-0.9,0.1l-0.2-1.8l1.1-0.1c0.2-1.4,0.7-2.5,1.5-3.4c0.8-0.9,2-1.4,3.5-1.6c0.6-0.1,1.2,0,1.8,0.1l-0.4,2.2c-0.3-0.1-0.7-0.1-1.1,0
		c-1.6,0.2-2.6,1-3.1,2.5l2.6-0.3c0.6-0.1,1,0.4,1,0.9l0,0c0,0.4-0.4,0.8-0.8,0.8l-3.1,0.4c0,0.1,0,0.3,0,0.5c0,0.2,0,0.3,0.1,0.4
		l2.5-0.3c0.5-0.1,1,0.4,1,0.9l0,0c0,0.4-0.4,0.8-0.8,0.8l-2,0.2c0.8,1.3,2,1.9,3.7,1.7C472.2,591,472.6,590.9,473,590.6z"/>
	<g>
		<path class="st16" d="M278.3,262l1-3.3h5.4v-4.1h1.5v-3.5h1.8l0.5-24.2l-2.1-0.4l-0.1-2.5l-2-2.2l0.3-7.7c0,0-7,0.1-7.2,0
			c-0.2-0.1-0.3-1.5-0.3-1.5l37.4-24.1l37.4,24.1l-0.7,1.5l-7.1-0.1l0.3,8.8l-1.3,0.5l-0.4,3.2l-1.6,0.7l0.1,23.6l1.4,0.9l0.1,3
			l1.5,0.1l-0.2,4l-12.8-0.4l-0.1-3l1.6-0.4l0.1-3.4l2-1.3l-0.1-23.6l-2.2-0.8v-2.8l-1.2-1.5l-0.1-2.7l-10.7,0.3v3.8l-1.3,1.1
			l-0.1,2.6h-1.5l0.1,23.8l1.8,1.1v2.6l1.4,1.2l0.1,3.4h-13.3l1.5-4.3l0.5-3.5l1.8-0.9l-0.3-23l-1.8-1.5v-2.4l-1.3-0.8l-0.2-2.7
			l-10.5-0.5l0.1,3.4l-1.2,1.1l-0.3,2.8l-1.7,0.5l-0.2,23.5l2,1.1v2.8l1.8,0.5l-0.2,2.6l-0.1,0.9l52.5-0.1l0.5,2.5l-1.9,2.4h-68.5
			L278.3,262z"/>
		<g>
			<g>
				<path class="st9" d="M352.1,211.4L326.7,195c-0.5-0.3-1.2-0.2-1.5,0.3c-0.3,0.5-0.2,1.2,0.3,1.5l25.1,16.1h-5.8l-28.5-18.4
					c-1-0.6-2.2-0.6-3.2,0L284.4,213h-5.8l36-23.2l5.1,3.3c0.5,0.3,1.2,0.2,1.5-0.3c0.3-0.5,0.2-1.2-0.3-1.5l-5.1-3.3
					c-0.7-0.5-1.6-0.5-2.4,0L277,211.4c-0.8,0.5-1.1,1.4-0.9,2.3c0.3,0.9,1.1,1.5,2,1.5h5.5v3.8v3.3c0,0.9,0.6,1.6,1.4,1.8v1.9
					c0,1,0.8,1.8,1.8,1.8h0.2v13.4c0,0.6,0.5,1.1,1.1,1.1c0.6,0,1.1-0.5,1.1-1.1v-14.5c0-0.6-0.5-1.1-1.1-1.1h-0.9v-1.5h7.7v1.5
					h-0.9c-0.6,0-1.1,0.5-1.1,1.1v24.2c0,0.6,0.5,1.1,1.1,1.1h0.9v1.6h-7.7v-1.6h0.9c0.6,0,1.1-0.5,1.1-1.1V248
					c0-0.6-0.5-1.1-1.1-1.1c-0.6,0-1.1,0.5-1.1,1.1v1.7h-0.2c-1,0-1.8,0.8-1.8,1.8v1.9c-0.8,0.2-1.4,0.9-1.4,1.8v2.2h-3.9
					c-1.2,0-2.2,1-2.2,2.2v2.3c0,1.2,1,2.2,2.2,2.2h69.6c1.2,0,2.2-1,2.2-2.2v-2.3c0-1.2-1-2.2-2.2-2.2h-3.9v-2.2
					c0-0.9-0.6-1.6-1.4-1.8v-1.9c0-1-0.8-1.8-1.8-1.8h-0.2v-22h0.2c1,0,1.8-0.8,1.8-1.8V224c0.8-0.2,1.4-0.9,1.4-1.8V219v-3.8h5.5
					c0.9,0,1.7-0.6,2-1.5C353.2,212.8,352.9,211.9,352.1,211.4z M314.1,196.5c0.3-0.2,0.6-0.2,0.8,0l25.7,16.5h-52.2L314.1,196.5z
					 M285.8,215.2h57.5v2.7h-11.7H321h-12.8h-10.6h-11.7V215.2z M320.6,253.5v-1.9c0-1-0.8-1.8-1.8-1.8h-0.2v-22h0.2
					c1,0,1.8-0.8,1.8-1.8V224c0.8-0.2,1.4-0.9,1.4-1.8v-2.2h8.4v2.2c0,0.9,0.6,1.6,1.4,1.8v1.9c0,1,0.8,1.8,1.8,1.8h0.2v22h-0.2
					c-1,0-1.8,0.8-1.8,1.8v1.9c-0.8,0.2-1.4,0.9-1.4,1.8v2.2h-8.4v-2.2C322.1,254.4,321.4,253.6,320.6,253.5z M297.2,253.5v-1.9
					c0-1-0.8-1.8-1.8-1.8h-0.2v-22h0.2c1,0,1.8-0.8,1.8-1.8V224c0.8-0.2,1.4-0.9,1.4-1.8v-2.2h8.4v2.2c0,0.9,0.6,1.6,1.4,1.8v1.9
					c0,1,0.8,1.8,1.8,1.8h0.2v22h-0.2c-1,0-1.8,0.8-1.8,1.8v1.9c-0.8,0.2-1.4,0.9-1.4,1.8v2.2h-8.4v-2.2
					C298.6,254.4,298,253.6,297.2,253.5z M317.6,251.9h0.9v1.6h-7.7v-1.6h0.9c0.6,0,1.1-0.5,1.1-1.1v-24.2c0-0.6-0.5-1.1-1.1-1.1
					h-0.9v-1.5h7.7v1.5h-0.9c-0.6,0-1.1,0.5-1.1,1.1v24.2C316.5,251.4,317,251.9,317.6,251.9z M309.6,221.9L309.6,221.9h-0.3v-1.8
					h10.6v1.8h-0.3c0,0,0,0,0,0s0,0,0,0H309.6z M309.2,255.7c0.1,0,0.2,0.1,0.3,0.1h9.9c0.1,0,0.2,0,0.3-0.1v1.8h-10.6V255.7z
					 M286.2,221.9h-0.3v-1.8h10.6v1.8h0h-0.3H286.2z M285.8,255.7c0.1,0,0.2,0.1,0.3,0.1h9.9c0.1,0,0.2,0,0.3-0.1v1.8h-10.6V255.7
					L285.8,255.7z M349.4,259.6l0,2.3c0,0,0,0,0,0l-69.6,0l0-2.3L349.4,259.6z M342.9,255.8c0.1,0,0.2,0,0.3-0.1v1.8h-10.6v-1.8
					c0.1,0,0.2,0.1,0.3,0.1H342.9z M335,225.6h-0.9v-1.5h7.7v1.5H341c-0.6,0-1.1,0.5-1.1,1.1v24.2c0,0.6,0.5,1.1,1.1,1.1h0.9v1.6
					h-7.7v-1.6h0.9c0.6,0,1.1-0.5,1.1-1.1v-24.2C336.1,226.1,335.6,225.6,335,225.6z M343.3,221.9L343.3,221.9h-0.3c0,0,0,0,0,0l0,0
					H333h0h-0.3v-1.8h10.6V221.9L343.3,221.9z"/>
			</g>
		</g>
		<g>
			<rect x="309.3" y="203.9" class="st9" width="10.5" height="7.2"/>
		</g>
		<rect x="312.7" y="203.9" class="st0" width="3.6" height="7.2"/>
	</g>
	<path class="st12" d="M185.9,239.5c0,0,22.5-36.2,67.7-28.8"/>
	<g>
		<path class="st18" d="M233.9,618.6l-40.8-2.5c-3.2-0.2-5.6-2.9-5.4-6.1l3.9-63.6c0.2-3.2,2.9-5.6,6.1-5.4l40.8,2.5
			c3.2,0.2,5.6,2.9,5.4,6.1l-3.9,63.6C239.9,616.4,237.1,618.8,233.9,618.6z"/>
		<path class="st13" d="M211,552.5l-11-0.7c-0.5,0-0.9-0.5-0.8-0.9l0,0c0-0.5,0.5-0.9,0.9-0.8l11,0.7c0.5,0,0.9,0.5,0.8,0.9l0,0
			C211.9,552.2,211.5,552.6,211,552.5z"/>
		<path class="st13" d="M204.1,561.4l-4.6-0.3c-0.5,0-0.9-0.5-0.8-0.9l0,0c0-0.5,0.5-0.9,0.9-0.8l4.6,0.3c0.5,0,0.9,0.5,0.8,0.9l0,0
			C205,561.1,204.6,561.5,204.1,561.4z"/>
		<path class="st13" d="M215.8,557.4l-16-1c-0.5,0-0.9-0.5-0.8-0.9l0,0c0-0.5,0.5-0.9,0.9-0.8l16,1c0.5,0,0.9,0.5,0.8,0.9l0,0
			C216.7,557,216.3,557.4,215.8,557.4z"/>
		<path class="st13" d="M228.2,570.6l-29.1-1.8c-0.5,0-0.9-0.5-0.8-0.9l0,0c0-0.5,0.5-0.9,0.9-0.8l29.1,1.8c0.5,0,0.9,0.5,0.8,0.9
			l0,0C229.1,570.3,228.7,570.6,228.2,570.6z"/>
		<path class="st13" d="M231.7,581.7l-33.2-2c-0.5,0-0.9-0.5-0.8-0.9l0,0c0-0.5,0.5-0.9,0.9-0.8l33.2,2c0.5,0,0.9,0.5,0.8,0.9l0,0
			C232.6,581.3,232.1,581.7,231.7,581.7z"/>
		<path class="st13" d="M233.3,587.6l-35.2-2.1c-0.5,0-0.9-0.5-0.8-0.9l0,0c0-0.5,0.5-0.9,0.9-0.8l35.2,2.1c0.5,0,0.9,0.5,0.8,0.9
			l0,0C234.2,587.2,233.8,587.6,233.3,587.6z"/>
		<path class="st13" d="M223.5,592.8l-25.8-1.6c-0.5,0-0.9-0.5-0.8-0.9l0,0c0-0.5,0.5-0.9,0.9-0.8l25.8,1.6c0.5,0,0.9,0.5,0.8,0.9
			l0,0C224.4,592.4,223.9,592.8,223.5,592.8z"/>
		<path class="st9" d="M230.6,599l-33.2-2c-0.5,0-0.9-0.5-0.8-0.9l0,0c0-0.5,0.5-0.9,0.9-0.8l33.2,2c0.5,0,0.9,0.5,0.8,0.9l0,0
			C231.5,598.7,231.1,599.1,230.6,599z"/>
		<path class="st9" d="M222.8,604.4l-25.8-1.6c-0.5,0-0.9-0.5-0.8-0.9l0,0c0-0.5,0.5-0.9,0.9-0.8l25.8,1.6c0.5,0,0.9,0.5,0.8,0.9
			l0,0C223.7,604,223.2,604.4,222.8,604.4z"/>
		<path class="st9" d="M229.9,610.6l-33.2-2c-0.5,0-0.9-0.5-0.8-0.9l0,0c0-0.5,0.5-0.9,0.9-0.8l33.2,2c0.5,0,0.9,0.5,0.8,0.9l0,0
			C230.8,610.3,230.4,610.6,229.9,610.6z"/>
		<path class="st13" d="M235.8,576.5l-37.1-2.2c-0.5,0-0.9-0.5-0.8-0.9l0,0c0-0.5,0.5-0.9,0.9-0.8l37.1,2.2c0.5,0,0.9,0.5,0.8,0.9
			l0,0C236.7,576.2,236.3,576.6,235.8,576.5z"/>
		<g>
			
				<rect x="232.5" y="553" transform="matrix(0.9982 6.042437e-002 -6.042437e-002 0.9982 33.9366 -13.1751)" class="st13" width="4.6" height="3"/>
			<path class="st13" d="M235,551.3l-3.3,1.5c-0.1,0,0,0.1,0,0.1l6.4,0.4c0.1,0,0.1-0.1,0-0.1L235,551.3
				C235,551.3,235,551.3,235,551.3z"/>
		</g>
	</g>
	<g>
		<path class="st19" d="M197.2,590.3l-2.4-46.9c-0.1-2.5,1.8-4.7,4.3-4.8l43.2-2.2c2.5-0.1,4.7,1.8,4.8,4.3l3.3,66.1
			c0.1,2.5-1.8,4.7-4.3,4.8l-43.2,2.2c-2.5,0.1-4.7-1.8-4.8-4.3l-0.6-11.4"/>
		<path class="st10" d="M215,548.5l-11,0.6c-0.5,0-0.9-0.4-0.9-0.8l0,0c0-0.5,0.4-0.9,0.8-0.9l11-0.6c0.5,0,0.9,0.4,0.9,0.8l0,0
			C215.8,548.1,215.4,548.5,215,548.5z"/>
		<path class="st10" d="M209.1,558.1l-4.6,0.2c-0.5,0-0.9-0.4-0.9-0.8l0,0c0-0.5,0.4-0.9,0.8-0.9l4.6-0.2c0.5,0,0.9,0.4,0.9,0.8l0,0
			C209.9,557.7,209.5,558.1,209.1,558.1z"/>
		<path class="st10" d="M220.2,552.8l-16,0.8c-0.5,0-0.9-0.4-0.9-0.8l0,0c0-0.5,0.4-0.9,0.8-0.9l16-0.8c0.5,0,0.9,0.4,0.9,0.8l0,0
			C221.1,552.3,220.7,552.8,220.2,552.8z"/>
		<path class="st9" d="M234,564.6l-29.1,1.5c-0.5,0-0.9-0.4-0.9-0.8l0,0c0-0.5,0.4-0.9,0.8-0.9l29.1-1.5c0.5,0,0.9,0.4,0.9,0.8l0,0
			C234.8,564.1,234.5,564.5,234,564.6z"/>
		<path class="st9" d="M238.7,575.1l-33.3,1.7c-0.5,0-0.9-0.4-0.9-0.8l0,0c0-0.5,0.4-0.9,0.8-0.9l33.3-1.7c0.5,0,0.9,0.4,0.9,0.8
			l0,0C239.5,574.7,239.2,575.1,238.7,575.1z"/>
		<path class="st9" d="M240.9,580.8l-35.2,1.8c-0.5,0-0.9-0.4-0.9-0.8l0,0c0-0.5,0.4-0.9,0.8-0.9l35.2-1.8c0.5,0,0.9,0.4,0.9,0.8
			l0,0C241.8,580.4,241.4,580.8,240.9,580.8z"/>
		<path class="st9" d="M231.8,587.1l-25.8,1.3c-0.5,0-0.9-0.4-0.9-0.8l0,0c0-0.5,0.4-0.9,0.8-0.9l25.8-1.3c0.5,0,0.9,0.4,0.9,0.8
			l0,0C232.6,586.7,232.2,587.1,231.8,587.1z"/>
		<path class="st9" d="M239.6,592.5l-33.3,1.7c-0.5,0-0.9-0.4-0.9-0.8l0,0c0-0.5,0.4-0.9,0.8-0.9l33.3-1.7c0.5,0,0.9,0.4,0.9,0.8
			l0,0C240.4,592.1,240,592.5,239.6,592.5z"/>
		<path class="st9" d="M232.3,598.7l-25.8,1.3c-0.5,0-0.9-0.4-0.9-0.8l0,0c0-0.5,0.4-0.9,0.8-0.9l25.8-1.3c0.5,0,0.9,0.4,0.9,0.8
			l0,0C233.2,598.3,232.8,598.7,232.3,598.7z"/>
		<path class="st9" d="M240.1,604.1l-33.3,1.7c-0.5,0-0.9-0.4-0.9-0.8l0,0c0-0.5,0.4-0.9,0.8-0.9l33.3-1.7c0.5,0,0.9,0.4,0.9,0.8
			l0,0C241,603.7,240.6,604.1,240.1,604.1z"/>
		<path class="st9" d="M242.2,569.6l-37.1,1.9c-0.5,0-0.9-0.4-0.9-0.8l0,0c0-0.5,0.4-0.9,0.8-0.9l37.1-1.9c0.5,0,0.9,0.4,0.9,0.8
			l0,0C243.1,569.1,242.7,569.6,242.2,569.6z"/>
	</g>
	<g>
		<polygon class="st16" points="132.3,310.8 128.9,308.6 125.2,265.4 126.9,263.2 166.8,259.8 169.8,262.2 169.8,269.7 162.8,270.4 
			165,297.8 172.4,297.7 172.5,306 170.9,307.6 152.4,309.1 152.9,316.6 147.2,314.7 142.8,317.3 142.2,310.2 		"/>
		<g>
			<path class="st9" d="M170,270.4c0.5,0,0.9-0.5,0.8-1l-0.5-6.4c-0.2-2.5-2.4-4.3-4.9-4.1l-36.8,3c-2.6,0.2-4.4,2.3-4.2,4.9
				l3.3,40.8c0.2,2.5,2.4,4.4,4.9,4.2l9-0.7l0.5,6.3c0,0.3,0.2,0.6,0.5,0.7c0.3,0.1,0.6,0.1,0.9,0l4.3-2.6l4.6,1.9
				c0.1,0.1,0.3,0.1,0.4,0.1c0.2,0,0.3-0.1,0.5-0.2c0.3-0.2,0.4-0.5,0.4-0.8l-0.5-6.3l16.3-1.4c2.5-0.2,4.4-2.4,4.2-5l-0.5-6.4
				c0-0.5-0.5-0.9-1-0.8l-6.4,0.5l-2.1-26.1L170,270.4z M168.5,263.2l0.4,5.5l-5.5,0.4l-0.4-5.4c-0.1-1.5,1-2.8,2.5-3
				C167.1,260.6,168.4,261.7,168.5,263.2z M151.1,301.7c-0.1,0.1-0.2,0.2-0.3,0.3c-1.1,1-2.5,1.7-4,1.8c-1.6,0.1-3.1-0.3-4.4-1.3
				c-1.4-1.1-2.3-2.8-2.5-4.6c-0.3-3.5,2.3-6.6,5.9-6.9s6.6,2.3,6.9,5.9C152.9,298.7,152.3,300.4,151.1,301.7z M151.7,315.1
				l-3.7-1.5c-0.3-0.1-0.6-0.1-0.8,0.1l-3.4,2.1l-0.9-10.8c1.3,0.6,2.7,0.8,4.1,0.7c1.4-0.1,2.7-0.6,3.8-1.3L151.7,315.1z
				 M152.6,302.9c1.5-1.7,2.2-3.9,2-6.1c-0.4-4.5-4.4-7.9-8.9-7.5c-4.5,0.4-7.9,4.4-7.5,8.9c0.2,2.2,1.2,4.2,2.9,5.6l0.5,5.5l-9,0.7
				c-1.5,0.1-2.8-1-3-2.6l-3.3-40.8c-0.1-1.5,1-2.8,2.5-2.9l33.2-2.7c-0.5,0.8-0.8,1.8-0.7,2.8l3.3,40.7c0.1,1,0.5,2,1.2,2.7
				l-12.7,1.1L152.6,302.9z M171.4,298.4l0.4,5.5c0.1,1.5-1,2.9-2.5,3c-1.5,0.1-2.8-1-2.9-2.5l-0.4-5.5L171.4,298.4z"/>
			<path class="st9" d="M146,292.9c-2.5,0.2-4.4,2.4-4.2,4.9c0.2,2.5,2.4,4.4,4.9,4.2c2.5-0.2,4.4-2.4,4.2-4.9
				C150.7,294.6,148.5,292.7,146,292.9z M146.6,300.2c-1.5,0.1-2.8-1-3-2.5c-0.1-1.5,1-2.8,2.5-3s2.8,1,3,2.5
				S148.1,300.1,146.6,300.2z"/>
			<path class="st9" d="M157,278.2l-24.3,2c-0.5,0-0.9,0.5-0.8,1c0,0.5,0.5,0.9,1,0.8l24.3-2c0.5,0,0.9-0.5,0.8-1
				S157.5,278.1,157,278.2z"/>
			<path class="st9" d="M153.7,282.1l-17,1.4c-0.5,0-0.9,0.5-0.8,1s0.5,0.9,1,0.8l17-1.4c0.5,0,0.9-0.5,0.8-1
				C154.6,282.5,154.2,282.1,153.7,282.1z"/>
			<path class="st13" d="M156.7,274.5l-3.6,0.3c-0.5,0-0.9,0.5-0.8,1c0,0.5,0.5,0.9,1,0.8l3.6-0.3c0.5,0,0.9-0.5,0.8-1
				S157.2,274.5,156.7,274.5z"/>
			<path class="st9" d="M132.6,278.4l17-1.4c0.5,0,0.9-0.5,0.8-1s-0.5-0.9-1-0.8l-17,1.4c-0.5,0-0.9,0.5-0.8,1
				S132.1,278.4,132.6,278.4z"/>
			<path class="st10" d="M135.2,273.1c0.2,0.1,0.4,0.2,0.6,0.1c0.3,0,0.5-0.2,0.7-0.4l1.9-2.9l2.3,2.5c0.2,0.2,0.5,0.3,0.7,0.3
				c0.3,0,0.5-0.2,0.7-0.4l1.9-2.9l2.3,2.5c0.2,0.2,0.5,0.3,0.7,0.3s0.5-0.2,0.7-0.4l1.9-2.9l2.3,2.5c0.3,0.4,0.9,0.4,1.3,0.1
				c0.4-0.3,0.4-0.9,0.1-1.3l-3.1-3.4c-0.2-0.2-0.5-0.3-0.7-0.3s-0.5,0.2-0.7,0.4l-1.9,2.9l-2.3-2.5c-0.2-0.2-0.5-0.3-0.7-0.3
				c-0.3,0-0.5,0.2-0.7,0.4l-1.9,2.9l-2.3-2.5c-0.2-0.2-0.5-0.3-0.7-0.3c-0.3,0-0.5,0.2-0.7,0.4l-2.5,3.9
				C134.7,272.2,134.8,272.8,135.2,273.1z"/>
		</g>
	</g>
	<g>
		<polygon class="st16" points="140.3,298.2 137.7,295 147.6,252.8 149.9,251.2 188.9,260.4 191,263.6 188.7,270.8 181.8,269.2 
			175.5,295.9 182.5,298.2 180,306 178,307 159.9,302.8 158.1,310.1 153.2,306.5 148.3,307.6 149.9,300.7 		"/>
		<g>
			<path class="st9" d="M188.7,271.4c0.5,0.1,1-0.2,1.1-0.7l1.5-6.2c0.6-2.4-1-4.9-3.4-5.4l-36-8.5c-2.5-0.6-4.9,0.9-5.5,3.3
				l-9.4,39.8c-0.6,2.5,0.9,5,3.4,5.6l8.7,2.1l-1.5,6.2c-0.1,0.3,0,0.6,0.2,0.9c0.2,0.2,0.5,0.3,0.9,0.2l4.9-1.1l3.8,3.2
				c0.1,0.1,0.2,0.2,0.4,0.2c0.2,0,0.3,0,0.5,0c0.3-0.1,0.5-0.3,0.6-0.7l1.5-6.2l16,3.8c2.5,0.6,4.9-0.9,5.5-3.4l1.5-6.2
				c0.1-0.5-0.2-1-0.7-1.1l-6.2-1.5l6-25.5L188.7,271.4z M189.5,264.1l-1.3,5.3l-5.3-1.3l1.3-5.3c0.3-1.5,1.8-2.4,3.3-2
				C188.9,261.2,189.8,262.7,189.5,264.1z M161,295.4c-0.1,0-0.3,0.1-0.4,0.2c-1.3,0.7-2.9,0.8-4.3,0.5c-1.5-0.4-2.9-1.3-3.8-2.6
				c-1-1.5-1.4-3.4-1-5.1c0.8-3.4,4.3-5.6,7.7-4.8c3.4,0.8,5.6,4.3,4.8,7.7C163.6,293,162.5,294.5,161,295.4z M157.5,308.3l-3.1-2.6
				c-0.2-0.2-0.5-0.3-0.8-0.2l-3.9,0.9l2.5-10.5c1,0.9,2.3,1.6,3.7,1.9c1.3,0.3,2.7,0.3,4-0.1L157.5,308.3z M162,296.9
				c1.9-1.1,3.3-3,3.8-5.2c1-4.4-1.7-8.9-6.1-9.9c-4.4-1-8.9,1.7-9.9,6.1c-0.5,2.1-0.1,4.3,1,6.2l-1.3,5.4l-8.7-2.1
				c-1.5-0.3-2.4-1.9-2-3.4l9.4-39.8c0.3-1.5,1.8-2.3,3.3-2l32.4,7.7c-0.7,0.6-1.3,1.5-1.5,2.5l-9.4,39.7c-0.2,1-0.1,2,0.3,2.9
				l-12.4-2.9L162,296.9z M181.3,298.5l-1.3,5.3c-0.3,1.5-1.9,2.4-3.3,2.1c-1.5-0.4-2.4-1.8-2-3.3l1.3-5.3L181.3,298.5z"/>
			<path class="st9" d="M158.8,285.4c-2.5-0.6-4.9,0.9-5.5,3.4c-0.6,2.5,0.9,4.9,3.4,5.5c2.5,0.6,4.9-0.9,5.5-3.4
				C162.8,288.5,161.3,286,158.8,285.4z M157.2,292.5c-1.5-0.3-2.4-1.8-2-3.3s1.8-2.4,3.3-2c1.5,0.3,2.4,1.8,2,3.3
				C160.1,292,158.6,292.9,157.2,292.5z"/>
			<path class="st9" d="M173.9,274.8l-23.7-5.6c-0.5-0.1-1,0.2-1.1,0.7s0.2,1,0.7,1.1l23.7,5.6c0.5,0.1,1-0.2,1.1-0.7
				C174.7,275.4,174.4,274.9,173.9,274.8z"/>
			<path class="st9" d="M169.5,277.5l-16.6-3.9c-0.5-0.1-1,0.2-1.1,0.7c-0.1,0.5,0.2,1,0.7,1.1l16.6,3.9c0.5,0.1,1-0.2,1.1-0.7
				C170.3,278.2,170,277.7,169.5,277.5z"/>
			<path class="st9" d="M174.8,271.3l-3.6-0.8c-0.5-0.1-1,0.2-1.1,0.7c-0.1,0.5,0.2,1,0.7,1.1l3.6,0.8c0.5,0.1,1-0.2,1.1-0.7
				C175.6,271.9,175.2,271.4,174.8,271.3z"/>
			<path class="st9" d="M150.6,267.4l16.6,3.9c0.5,0.1,1-0.2,1.1-0.7c0.1-0.5-0.2-1-0.7-1.1l-16.6-3.9c-0.5-0.1-1,0.2-1.1,0.7
				C149.8,266.8,150.1,267.3,150.6,267.4z"/>
			<path class="st17" d="M154.7,263.2c0.1,0.2,0.3,0.3,0.5,0.3c0.3,0.1,0.6,0,0.8-0.2l2.7-2.2l1.4,3.1c0.1,0.3,0.3,0.4,0.6,0.5
				c0.3,0.1,0.6,0,0.8-0.2l2.7-2.2l1.4,3.1c0.1,0.3,0.3,0.4,0.6,0.5c0.3,0.1,0.6,0,0.8-0.2l2.7-2.2l1.4,3.1c0.2,0.5,0.8,0.7,1.2,0.5
				c0.5-0.2,0.7-0.8,0.5-1.2L171,262c-0.1-0.3-0.3-0.4-0.6-0.5c-0.3-0.1-0.6,0-0.8,0.2l-2.7,2.2l-1.4-3.1c-0.1-0.3-0.3-0.4-0.6-0.5
				c-0.3-0.1-0.6,0-0.8,0.2l-2.7,2.2l-1.4-3.1c-0.1-0.3-0.3-0.4-0.6-0.5c-0.3-0.1-0.6,0-0.8,0.2l-3.6,2.9
				C154.5,262.2,154.4,262.8,154.7,263.2z"/>
		</g>
	</g>
	
		<rect x="474.6" y="457.6" transform="matrix(0.9888 -0.1496 0.1496 0.9888 -64.4511 76.7775)" class="st17" width="7.3" height="18.6"/>
	<path class="st9" d="M480.1,455.2l-8.2,1.2c-0.6,0.1-0.9,0.6-0.8,1.2l3.1,20.3c0.1,0.6,0.6,0.9,1.2,0.8l8.2-1.2
		c0.6-0.1,0.9-0.6,0.8-1.2l-1.9-12.3c-0.1-0.6-0.6-0.9-1.2-0.8c-0.6,0.1-0.9,0.6-0.8,1.2l1.7,11.3l-6.2,0.9l-2.8-18.3l6.2-0.9l0.5,3
		c0.1,0.6,0.6,0.9,1.2,0.8s0.9-0.6,0.8-1.2l-0.6-4C481.2,455.5,480.6,455.1,480.1,455.2z"/>
	
		<rect x="436.9" y="463.1" transform="matrix(0.9884 -0.1516 0.1516 0.9884 -65.6254 72.1365)" class="st10" width="6.8" height="6.8"/>
	<path class="st9" d="M443.6,460.7l-8.2,1.2c-0.6,0.1-0.9,0.6-0.8,1.2l1.2,8.2c0.1,0.6,0.6,0.9,1.2,0.8l8.2-1.2
		c0.6-0.1,0.9-0.6,0.8-1.2l-1.2-8.2C444.6,461,444.1,460.6,443.6,460.7z M443.8,469.1l-6.2,0.9l-0.9-6.2l6.2-0.9L443.8,469.1z"/>
	<polygon class="st10" points="441.7,590.7 444.3,587.6 447,587.5 451,591.2 451,593 448.3,596 	"/>
	<path class="st9" d="M450.3,589.1l-2.2-1.7c-1.7-1.3-4-1.1-5.4,0.6l-11.4,14.5c-0.2,0.2-0.2,0.5-0.2,0.7l0.7,5.9
		c0.1,0.5,0.6,0.9,1.1,0.9l5.9-0.7c0.3,0,0.5-0.2,0.7-0.4l11.4-14.5C452.3,592.7,452,590.5,450.3,589.1z M441.9,592.2l1.8,1.4
		l-7.6,9.6l-1.8-1.4L441.9,592.2z M433.6,607.9l-0.5-4.5l5.1,4L433.6,607.9z M439.4,605.8l-1.8-1.4l7.6-9.6l1.8,1.4L439.4,605.8z
		 M449.3,593.2l-1.1,1.4l-5.1-4l1.1-1.4c0.7-0.9,1.7-1,2.6-0.3l2.2,1.7C449.9,591.3,450,592.3,449.3,593.2z"/>
	<g>
		<g>
			<defs>
				<circle id="SVGID_3_" cx="466.5" cy="316.2" r="27.8"/>
			</defs>
			<use xlink:href="#SVGID_3_"  style="overflow:visible;opacity:0.5;fill:#CCCCCC;"/>
			<clipPath id="SVGID_4_">
				<use xlink:href="#SVGID_3_"  style="overflow:visible;opacity:0.5;"/>
			</clipPath>
			<circle class="st20" cx="466.5" cy="316.2" r="27.8"/>
			<polygon class="st21" points="455.3,309.9 447.5,303.5 450.7,290.7 470.4,284.1 479.8,290.3 484.4,303.9 478.1,310.9 
				478.2,312.5 476,313.7 473.6,316.1 473.7,320.8 474.6,324.4 476.5,327.4 473.2,329.1 469.8,329.6 465,329.6 460.2,328.3 
				458.1,326.8 457.9,326.6 459.2,324.3 460.1,321.2 460.1,315.2 458,312.9 456.9,311.2 			"/>
			<g class="st22">
				<path class="st23" d="M486.1,297.8c-3.8-3.8-1-21.8-19.1-21.5c-12.4,0.2-16.9,6.7-22,20.9c-4.6,13,9.9,15.1,12.4,15.3
					c-0.2-0.4-0.4-0.8-0.6-1.2c-0.6-1.8-1.3-3.8-1.9-5.8c-0.1,0-0.3,0-0.4,0c-0.1,0-0.2,0-0.3,0c-1.3-0.2-2.4-2-2.9-3.5
					c-0.7-1.1-1-2.2,0.1-2.9c0.1-0.1,0.2-0.1,0.2-0.1c0.2-0.2,0.5-0.3,0.8-0.4c0.1-0.1,0.1-0.1,0.2-0.2c0.5-0.2,0.9-0.1,1.2,0.2
					c0.1-2,0.6-3.9,1.9-5.5c2.3-2.9,6.1-4.7,9.7-5.4c8.3-1.5,14.9,2.4,14.6,10.7c0,0.2,0,0.4,0,0.6c0.1,0,0.2,0,0.3-0.1c0,0,0,0,0,0
					c0.2-0.1,0.4-0.1,0.7-0.1c0.4,0.1,0.6,0.3,0.9,0.5c0.4,0.3,0.6,0.6,0.7,1.1c0.1,0.2,0.1,0.4,0.1,0.5c0.1,0.7-0.1,1.3-0.4,1.9
					c-0.5,1.7-1.5,3.4-3.4,3.4c-0.2,0.8-0.5,1.6-0.7,2.4c-0.5,1.4-1.1,2.8-1.9,4.1l0.4,0C487.7,313.1,489.9,301.6,486.1,297.8z"/>
				<path class="st10" d="M495.9,338.2c-5.2-6.2-15.3-7.7-15.3-7.7c-0.9,3.4-6.1,5.6-6.1,5.6c-4.8,0.2-7-5.2-7-5.2s-3.3,4.9-6.8,4.7
					c-2.2-0.1-5.4-6.2-5.4-6.2s-3.6,1.6-6.6,2.6c-3,1,0-0.1-5.6,2.3c-5,2.2-6.7,8.1-7,9.4h61.8"/>
				<path class="st9" d="M494.7,336.8c-2.4-2.7-5.4-4.2-8.7-5.2c-3.3-1.1-7-2-9.4-4.8c-1.4-1.7-2.2-3.7-2.4-5.9
					c-0.1-1.7-0.1-3.3-0.1-5c2.6-1.8,4.2-5.1,5.1-8.4c1.3-4.9,1.5-10.2,0.8-15.2c-0.1-0.5-0.9-0.3-0.8,0.2c0.6,4.7,0.4,9.7-0.7,14.3
					c-1.1,4.5-3.6,9.7-8.8,10c-0.5,0-0.5,0.9,0,0.8c1.4-0.1,2.6-0.7,3.6-1.2c0,1.3,0,2.5,0,3.8c0.2,2.6,1,5,2.6,6.9
					c-2.3,1.6-5.2,2.1-8,2.1c-0.1,0-0.2,0-0.3,0c-0.2,0-0.4,0-0.5,0c-3-0.1-6.4-0.8-8.8-2.7c1.3-1.8,2-4,2.1-6.3
					c0.1-1.5,0-2.9,0-4.4c0.9,0.6,2.2,1.2,3.3,1.4c0.5,0.1,0.6-0.7,0.1-0.8c-4.2-0.8-6.8-4.8-8.1-8.5c-1.3-3.8-1.8-8-1.8-12.1
					c0-0.5-0.8-0.4-0.8,0.1c0,4.3,0.5,8.6,1.9,12.6c0.9,2.6,2.4,5.1,4.5,6.7c0,1.9,0.1,3.7-0.1,5.6c-0.2,2.2-1,4.2-2.4,5.9
					c-2.4,2.8-6.1,3.7-9.4,4.8c-3.3,1.1-6.3,2.6-8.7,5.2c-1.7,2-3,4.4-3.8,6.9h0.8c0.4-1.2,0.9-2.4,1.5-3.5c1.8-3.2,4.5-5.7,8-7.1
					c3.2-1.3,6.6-1.9,9.6-3.7c0.1,3.2,2,5.9,5.4,6.1c3.1,0.3,5.9-1.9,6.8-4.7c0.4,2.8,2.7,4.9,5.6,5.2c3.8,0.4,6.3-2.4,8.2-5.2
					c0,0,0,0,0,0c2.2,0.9,4.6,1.4,6.8,2.3c3.4,1.4,6.2,3.8,8,7.1"/>
				<path class="st16" d="M476.5,327.9C476.5,327.9,476.5,327.9,476.5,327.9c0.6,0.6,1.3,1.1,2.1,1.6c0.7,0.4,1.3,0.8,2,1.1
					c-1.6,2.4-3.5,4.6-6.5,4.8c-3.2,0.2-5.6-2.1-5.8-5.1C471.1,330.1,474.2,329.6,476.5,327.9z"/>
				<path class="st16" d="M457.9,327.3c2.5,1.9,5.8,2.6,9,2.8c-0.7,2.7-3,4.7-5.8,4.7c-3.3,0-5-2.8-4.9-5.8c0,0,0,0,0,0
					C456.7,328.4,457.3,327.9,457.9,327.3z"/>
				<path class="st24" d="M476.4,303.7c2.6,1.6-2.6,4.5-4.2,2.6C470.6,304.4,475,302.8,476.4,303.7z"/>
				<path class="st24" d="M457.9,304.2c-2.6,1.7,2.7,4.7,4.3,2.7C463.9,304.9,459.4,303.2,457.9,304.2z"/>
				<path class="st9" d="M469.8,311.1c-1.8,0.7-3.9,0.8-5.7-0.1c-0.5-0.3-1,0.4-0.5,0.7c2,1.1,4.4,1.1,6.6,0.2
					C470.7,311.7,470.3,310.9,469.8,311.1z"/>
				<path class="st25" d="M482.5,299c-0.8-1.1-2.1-0.4-2.8,0.3c-0.3,0.3,0.1,0.9,0.4,0.6c1.3-1.3,2.1-0.4,2.3,1
					c0.1,0.8-0.2,1.6-0.4,2.3c-0.5,1.4-1.4,3.2-3.1,3.1c-0.5,0-0.5,0.7-0.1,0.7c2.4,0.2,3.7-2.5,4.1-4.5
					C483.3,301.2,483.3,300,482.5,299z"/>
				<path class="st25" d="M451.4,298.5c0.8-1.1,2.1-0.4,2.8,0.3c0.3,0.3-0.1,0.9-0.4,0.6c-1.3-1.3-2.1-0.4-2.3,1
					c-0.1,0.8,0.2,1.6,0.4,2.3c0.5,1.4,1.4,3.2,3.1,3.1c0.5,0,0.5,0.7,0.1,0.7c-2.4,0.2-3.7-2.5-4.1-4.5
					C450.6,300.7,450.6,299.5,451.4,298.5z"/>
				<circle class="st16" cx="467.5" cy="335.9" r="1.2"/>
				<circle class="st16" cx="467.5" cy="341.1" r="1.2"/>
				<path class="st23" d="M452.5,297.1c0,0,14.8-1.2,21.5-8.4l6.4,9.9c0,0,4.4-20.4-13.7-20.1C450.1,278.7,452.5,297.1,452.5,297.1z
					"/>
			</g>
		</g>
		<path class="st17" d="M486.1,297.8c-3.8-3.8-1-21.8-19.1-21.5c-12.4,0.2-16.9,6.7-22,20.9c-4.6,13,9.9,15.1,12.4,15.3
			c-0.2-0.4-0.4-0.8-0.6-1.2c-0.6-1.8-1.3-3.8-1.9-5.8c-0.1,0-0.3,0-0.4,0c-0.1,0-0.2,0-0.3,0c-1.3-0.2-2.4-2-2.9-3.5
			c-0.7-1.1-1-2.2,0.1-2.9c0.1-0.1,0.2-0.1,0.2-0.1c0.2-0.2,0.5-0.3,0.8-0.4c0.1-0.1,0.1-0.1,0.2-0.2c0.5-0.2,0.9-0.1,1.2,0.2
			c0.1-2,0.6-3.9,1.9-5.5c2.3-2.9,6.1-4.7,9.7-5.4c8.3-1.5,14.9,2.4,14.6,10.7c0,0.2,0,0.4,0,0.6c0.1,0,0.2,0,0.3-0.1c0,0,0,0,0,0
			c0.2-0.1,0.4-0.1,0.7-0.1c0.4,0.1,0.6,0.3,0.9,0.5c0.4,0.3,0.6,0.6,0.7,1.1c0.1,0.2,0.1,0.4,0.1,0.5c0.1,0.7-0.1,1.3-0.4,1.9
			c-0.5,1.7-1.5,3.4-3.4,3.4c-0.2,0.8-0.5,1.6-0.7,2.4c-0.5,1.4-1.1,2.8-1.9,4.1l0.4,0C487.7,313.1,489.9,301.6,486.1,297.8z"/>
		<path class="st17" d="M452.5,297.1c0,0,14.8-1.2,21.5-8.4l6.4,9.9c0,0,4.4-20.4-13.7-20.1C450.1,278.7,452.5,297.1,452.5,297.1z"
			/>
		<g>
			<defs>
				<rect id="SVGID_5_" x="450.7" y="290.7" width="32.5" height="31.6"/>
			</defs>
			<clipPath id="SVGID_6_">
				<use xlink:href="#SVGID_5_"  style="overflow:visible;"/>
			</clipPath>
			<path class="st26" d="M494.7,336.8c-2.4-2.7-5.4-4.2-8.7-5.2c-3.3-1.1-7-2-9.4-4.8c-1.4-1.7-2.2-3.7-2.4-5.9
				c-0.1-1.7-0.1-3.3-0.1-5c2.6-1.8,4.2-5.1,5.1-8.4c1.3-4.9,1.5-10.2,0.8-15.2c-0.1-0.5-0.9-0.3-0.8,0.2c0.6,4.7,0.4,9.7-0.7,14.3
				c-1.1,4.5-3.6,9.7-8.8,10c-0.5,0-0.5,0.9,0,0.8c1.4-0.1,2.6-0.7,3.6-1.2c0,1.3,0,2.5,0,3.8c0.2,2.6,1,5,2.6,6.9
				c-2.3,1.6-5.2,2.1-8,2.1c-0.1,0-0.2,0-0.3,0c-0.2,0-0.4,0-0.5,0c-3-0.1-6.4-0.8-8.8-2.7c1.3-1.8,2-4,2.1-6.3c0.1-1.5,0-2.9,0-4.4
				c0.9,0.6,2.2,1.2,3.3,1.4c0.5,0.1,0.6-0.7,0.1-0.8c-4.2-0.8-6.8-4.8-8.1-8.5c-1.3-3.8-1.8-8-1.8-12.1c0-0.5-0.8-0.4-0.8,0.1
				c0,4.3,0.5,8.6,1.9,12.6c0.9,2.6,2.4,5.1,4.5,6.7c0,1.9,0.1,3.7-0.1,5.6c-0.2,2.2-1,4.2-2.4,5.9c-2.4,2.8-6.1,3.7-9.4,4.8
				c-3.3,1.1-6.3,2.6-8.7,5.2c-1.7,2-3,4.4-3.8,6.9h0.8c0.4-1.2,0.9-2.4,1.5-3.5c1.8-3.2,4.5-5.7,8-7.1c3.2-1.3,6.6-1.9,9.6-3.7
				c0.1,3.2,2,5.9,5.4,6.1c3.1,0.3,5.9-1.9,6.8-4.7c0.4,2.8,2.7,4.9,5.6,5.2c3.8,0.4,6.3-2.4,8.2-5.2c0,0,0,0,0,0
				c2.2,0.9,4.6,1.4,6.8,2.3c3.4,1.4,6.2,3.8,8,7.1"/>
			<path class="st27" d="M476.4,303.7c2.6,1.6-2.6,4.5-4.2,2.6C470.6,304.4,475,302.8,476.4,303.7z"/>
			<path class="st27" d="M457.9,304.2c-2.6,1.7,2.7,4.7,4.3,2.7C463.9,304.9,459.4,303.2,457.9,304.2z"/>
			<path class="st26" d="M482.5,299c-0.8-1.1-2.1-0.4-2.8,0.3c-0.3,0.3,0.1,0.9,0.4,0.6c1.3-1.3,2.1-0.4,2.3,1
				c0.1,0.8-0.2,1.6-0.4,2.3c-0.5,1.4-1.4,3.2-3.1,3.1c-0.5,0-0.5,0.7-0.1,0.7c2.4,0.2,3.7-2.5,4.1-4.5
				C483.3,301.2,483.3,300,482.5,299z"/>
			<path class="st26" d="M451.4,298.5c0.8-1.1,2.1-0.4,2.8,0.3c0.3,0.3-0.1,0.9-0.4,0.6c-1.3-1.3-2.1-0.4-2.3,1
				c-0.1,0.8,0.2,1.6,0.4,2.3c0.5,1.4,1.4,3.2,3.1,3.1c0.5,0,0.5,0.7,0.1,0.7c-2.4,0.2-3.7-2.5-4.1-4.5
				C450.6,300.7,450.6,299.5,451.4,298.5z"/>
		</g>
	</g>
	<g>
		<g>
			<defs>
				<circle id="SVGID_7_" cx="111.5" cy="439.2" r="27.8"/>
			</defs>
			<clipPath id="SVGID_8_">
				<use xlink:href="#SVGID_7_"  style="overflow:visible;"/>
			</clipPath>
			<circle class="st28" cx="111.5" cy="439.2" r="27.8"/>
			<polygon class="st29" points="81.5,468.9 83.5,462.2 85.4,459.4 88.2,457.2 91.7,455.6 97.3,453.7 100.9,452.2 103.3,449.9 
				104.9,446.3 105.3,439.6 102.5,436.5 100.9,432.6 100,429.7 97.6,428.6 96.4,426.9 96,424 96.2,422.2 97.3,420.8 101.8,410.3 
				120.4,409.1 123.8,419.5 124.1,421.2 125.5,421.1 126.3,422.1 126.6,424.4 126.1,427 124.8,428.9 123.2,429.7 122.8,429.7 
				121.7,434.1 119.7,438 117.4,440.2 117.7,445 118,447.2 120.3,450.8 122.5,452.5 125.7,454 131,455.6 136.6,459 139,461.8 
				140,464.1 140.7,466.3 111.5,475.2 			"/>
			<g class="st30">
				<polygon class="st10" points="111.4,453.2 109.4,457.2 110.8,457.9 114.2,457.9 115.7,456.4 112.7,452.8 				"/>
				<path class="st31" d="M99.4,423.9c0.8-2.7,0.8-9.7,4.3-10.6c1.5-0.4,6.5,3.7,13.4,0c2.8-1.5,5.6,8.1,6.1,9.4l0.2-1.2l1.3-1
					c0,0,5.4-19.5-14-19.1C91.4,401.8,97,420.7,97,420.7S99.1,420.4,99.4,423.9z"/>
				<path class="st9" d="M137.3,459.3c-2.1-2.4-5.6-3.8-8.6-4.8c-2.4-0.8-4.9-1.4-7-2.9c-0.1-0.1-0.2-0.2-0.3-0.2
					c-0.5-0.4-0.9-0.7-1.3-1.2c-1.3-1.5-2-3.4-2.2-5.3c-0.1-1.5-0.1-3-0.1-4.5c2.4-1.7,3.9-4.7,4.7-7.6c1-3.7,1.3-7.7,1-11.5
					c-0.2,0.1-0.5,0.2-0.7,0.3c0.2,3.5,0,7.2-0.9,10.6c-1,4.1-3.3,8.6-8,8.9c-0.5,0-0.5,0.8,0,0.8c1.2-0.1,2.3-0.4,3.3-0.9
					c0,1.2,0,2.3,0,3.5c0.1,1.4,0.4,2.8,0.9,4c0,0,0,0,0,0c-2.1,1.5-4,3.2-6.2,4.5c-2.6-1.3-5.2-2.3-7.8-3.6
					c0.8-1.4,1.2-3.1,1.3-4.8c0.1-1.3,0-2.7,0-4c0.8,0.5,1.8,0.9,2.8,1.1c0.5,0.1,0.6-0.7,0.1-0.7c-3.8-0.7-6-4.1-7.1-7.6
					c-1.2-3.5-1.6-7.3-1.6-11c0-0.5-0.7-0.4-0.7,0.1c0,3.9,0.5,7.8,1.8,11.5c0.8,2.4,2.2,4.6,4.1,6.1c0,1.7,0.1,3.4-0.1,5.1
					c-0.2,2-0.9,3.8-2.2,5.3c-2.2,2.5-5.5,3.4-8.6,4.3c-3,1-6.5,2.3-8.6,4.8c-1.4,1.6-2.5,2.6-3.2,5.6h0.7c0.3,0,0.7-1.7,1.2-2.5
					c1.6-3,4.8-5.1,8-6.4c2.9-1.2,6.1-1.7,8.8-3.4c0.1,0,0.1-0.1,0.2-0.1c2.1,2.5,5.4,3.4,7.8,5.6c0.3,0.2,0.6,0,0.6-0.2
					c1-1.4,1.9-2.7,2.7-4.2c0,0,0.1,0,0.1,0.1c0,0,0,0.1,0.1,0.1c0.9,1.3,2,2.5,3,3.8c0,0.1,0.1,0.1,0.2,0.1c0,0,0,0,0,0
					c0,0,0,0,0,0c0.1,0,0.3,0,0.4-0.1c1.9-1.7,3.6-3.7,5.5-5.5c0.2,0.1,0.3,0.2,0.5,0.3c2.7,1.7,5.9,2.2,8.8,3.4
					c3.1,1.3,6.3,3.5,8,6.4c0.5,0.8,0.8,2.5,1.2,2.5h0.7C139.9,461.9,138.8,460.9,137.3,459.3z M108.9,457.2
					c-2.3-1.9-5.4-2.9-7.4-5.2c0.9-0.7,1.6-1.5,2.2-2.4c2.5,1.3,5.2,2.4,7.7,3.6C110.7,454.6,109.8,455.9,108.9,457.2z M115.7,456.9
					c-0.9-1.2-1.8-2.3-2.7-3.4c0,0-0.1-0.1-0.1-0.1c0-0.1,0-0.2-0.2-0.3c2-1.2,3.8-2.8,5.8-4.2c0.6,1.1,1.4,2.1,2.4,2.9
					C119,453.4,117.4,455.2,115.7,456.9z"/>
				<path class="st9" d="M115.6,434.4c-2.8,1-5.4,0.9-8.1-0.4c-0.4-0.2-0.8,0.4-0.4,0.6c2.8,1.4,5.7,1.6,8.6,0.5
					C116.2,434.9,116,434.2,115.6,434.4z"/>
				<path class="st25" d="M123.3,421.3c-0.4,0.3,0,0.9,0.4,0.6c2.2-1.7,2.6,0.7,2.6,2.5c0,2.1-1,4.6-3.3,4.9c-0.4,0-0.5,0.8,0,0.7
					c3.1-0.3,4.1-3.5,4.1-6.2C126.9,421.3,125.6,419.5,123.3,421.3z"/>
				<path class="st25" d="M99.3,421.3c0.4,0.3,0,0.9-0.4,0.6c-2.2-1.7-2.6,0.7-2.6,2.5c0,2.1,1,4.6,3.3,4.9c0.4,0,0.5,0.8,0,0.7
					c-3.1-0.3-4.1-3.5-4.1-6.2C95.7,421.3,97,419.5,99.3,421.3z"/>
				<polygon class="st10" points="110.8,457.9 110,460.6 110,466.9 115,466.9 115,460.6 114.2,457.9 				"/>
			</g>
			<path class="st32" d="M119.6,421.1c-2.6-0.9-5.2,0.3-6,2.9c-0.1,0.3-0.2,0.5-0.2,0.8c-0.6-0.3-1.3-0.3-1.9-0.3
				c-0.6,0-1.3,0.3-2,0.3c-0.2-1.7-1.4-3.1-3.2-3.7c-2.6-0.9-5.2,0.3-6,2.9c-1.9,5.4,7,8.1,9,2.7c0.1-0.3,0.2-0.7,0.2-1
				c0.5,0,0.9-0.2,1.4-0.2c0.9-0.2,1.7-0.1,2.5,0.3c0.3,4.2,7.4,5.7,9.2,1C123.4,424.3,121.9,421.9,119.6,421.1z M108.4,426.3
				c-0.3,1.1-1,1.9-2,2.3c-2.8,1.2-6.1-1-5.4-4.1c0.5-2.2,2.7-3.1,4.7-2.6C107.8,422.3,108.9,424.2,108.4,426.3z M121.7,426.3
				c-0.3,1.1-1,1.9-2,2.3c-2.8,1.2-6.1-1-5.4-4.1c0.5-2.2,2.7-3.1,4.7-2.6C121.1,422.3,122.2,424.2,121.7,426.3z"/>
		</g>
		<path class="st17" d="M99.4,423.9c0.8-2.7,0.8-9.7,4.3-10.6c1.5-0.4,6.5,3.7,13.4,0c2.8-1.5,5.6,8.1,6.1,9.4l0.2-1.2l1.3-1
			c0,0,5.4-19.5-14-19.1C91.4,401.8,97,420.7,97,420.7S99.1,420.4,99.4,423.9z"/>
		<path class="st9" d="M123.3,421.3c-0.4,0.3,0,0.9,0.4,0.6c2.2-1.7,2.6,0.7,2.6,2.5c0,2.1-1,4.6-3.3,4.9c-0.4,0-0.5,0.8,0,0.7
			c3.1-0.3,4.1-3.5,4.1-6.2C126.9,421.3,125.6,419.5,123.3,421.3z"/>
		<path class="st9" d="M99.3,421.3c0.4,0.3,0,0.9-0.4,0.6c-2.2-1.7-2.6,0.7-2.6,2.5c0,2.1,1,4.6,3.3,4.9c0.4,0,0.5,0.8,0,0.7
			c-3.1-0.3-4.1-3.5-4.1-6.2C95.7,421.3,97,419.5,99.3,421.3z"/>
	</g>
</g>
</svg>
