<?xml version="1.0" encoding="utf-8"?>
<!-- Generator: Adobe Illustrator 19.0.0, SVG Export Plug-In . SVG Version: 6.00 Build 0)  -->
<svg version="1.1" id="Section1" xmlns="http://www.w3.org/2000/svg" xmlns:xlink="http://www.w3.org/1999/xlink" x="0px" y="0px"
	 viewBox="63 60.3 721.6 721.6" style="enable-background:new 63 60.3 721.6 721.6;" xml:space="preserve">
<style type="text/css">
	.st0{fill:#FFFFFF;}
	.st1{fill:#FF5555;}
	.st2{fill:#6F7592;}
	.st3{clip-path:url(#SVGID_2_);fill:#FFFFFF;}
	.st4{font-family:'NexaBold';}
	.st5{font-size:18.0635px;}
	.st6{font-family:'OpenSans-Semibold';}
	.st7{font-size:7.0383px;}
	.st8{font-size:8.3217px;}
	.st9{fill:none;stroke:#EDEDED;stroke-miterlimit:10;}
	.st10{font-size:10.8671px;}
</style>
<path class="st0" d="M476.7,712.2H325.5c-21.6,0-39.1-17.5-39.1-39.1V288.8c0-21.6,17.5-39.1,39.1-39.1h151.2
	c21.6,0,39.1,17.5,39.1,39.1v384.3C515.7,694.7,498.2,712.2,476.7,712.2z"/>
<path class="st1" d="M501.6,677c0,11.7-9.6,21.3-21.3,21.3H321.7c-11.7,0-21.3-9.6-21.3-21.3V284.9c0-11.7,9.6-21.3,21.3-21.3h20.7
	c1.7,0,3.1,1.4,3.1,3.1v1.8c0,0.8,0.1,1.5,0.2,2.2c1,5,5.5,8.8,10.8,8.8h89c5.3,0,9.8-3.8,10.8-8.8c0.1-0.7,0.2-1.5,0.2-2.2v-1.8
	c0-1.7,1.4-3.1,3.1-3.1h20.7c11.7,0,21.3,9.6,21.3,21.3V677z"/>
<path class="st2" d="M516.7,356.7l-1-1.1v-71.4c0-19-15.5-34.5-34.5-34.5H320.8c-19,0-34.5,15.5-34.5,34.5v27.2
	c-0.7,0-1.2,0.6-1.2,1.3V330c0,0.7,0.5,1.2,1.2,1.3v13.4l-1,0.8c-0.2,0.1-0.2,0.3-0.2,0.5v32.5c0,0.2,0.1,0.4,0.2,0.5l1,0.8v7.3
	l-1,0.8c-0.2,0.1-0.2,0.3-0.2,0.5v32.5c0,0.2,0.1,0.4,0.2,0.5l1,0.8v255.8c0,19,15.5,34.5,34.5,34.5h160.4c19,0,34.5-15.5,34.5-34.5
	V410.9l1-1.1c0.1-0.1,0.2-0.3,0.2-0.4v-52.2C516.9,357,516.8,356.8,516.7,356.7z M515.7,409.1l-1,1.1c-0.1,0.1-0.2,0.3-0.2,0.4
	v267.1c0,18.3-14.9,33.2-33.2,33.2H320.8c-18.3,0-33.2-14.9-33.2-33.2V421.6c0-0.2-0.1-0.4-0.2-0.5l-1-0.8v-31.9l1-0.8
	c0.2-0.1,0.2-0.3,0.2-0.5v-7.9c0-0.2-0.1-0.4-0.2-0.5l-1-0.8v-31.9l1-0.8c0.2-0.1,0.2-0.3,0.2-0.5v-14.3c0-0.3-0.3-0.6-0.6-0.6h-0.6
	v-17.3h0.6c0.3,0,0.6-0.3,0.6-0.6v-27.9c0-18.3,14.9-33.2,33.2-33.2h160.4c18.3,0,33.2,14.9,33.2,33.2v71.6c0,0.2,0.1,0.3,0.2,0.4
	l1,1.1V409.1z M480.3,253.6H321.7c-17.3,0-31.3,14-31.3,31.3V677c0,17.3,14,31.3,31.3,31.3h158.6c17.3,0,31.3-14,31.3-31.3V284.9
	C511.6,267.6,497.6,253.6,480.3,253.6z M425.7,264.2c2.3,0,4.2,1.9,4.2,4.2c0,2.3-1.9,4.2-4.2,4.2c-2.3,0-4.3-1.9-4.3-4.2
	C421.4,266.1,423.3,264.2,425.7,264.2z M388.9,266.4h24.4c1.1,0,2,0.9,2,2c0,1.1-0.9,2-2,2h-24.4c-1.1,0-2-0.9-2-2
	C386.9,267.3,387.8,266.4,388.9,266.4z M501.6,677c0,11.7-9.6,21.3-21.3,21.3H321.7c-11.7,0-21.3-9.6-21.3-21.3V284.9
	c0-11.7,9.6-21.3,21.3-21.3h20.7c1.7,0,3.1,1.4,3.1,3.1v1.8c0,0.8,0.1,1.5,0.2,2.2c1,5,5.5,8.8,10.8,8.8h89c5.3,0,9.8-3.8,10.8-8.8
	c0.1-0.7,0.2-1.5,0.2-2.2v-1.8c0-1.7,1.4-3.1,3.1-3.1h20.7c11.7,0,21.3,9.6,21.3,21.3V677z M435.5,690.3h-68.9
	c-0.7,0-1.2,0.6-1.2,1.2s0.6,1.2,1.2,1.2h68.9c0.7,0,1.2-0.6,1.2-1.2S436.2,690.3,435.5,690.3z"/>
<g>
	<defs>
		<path id="SVGID_1_" d="M501.6,677c0,11.7-9.6,21.3-21.3,21.3H321.7c-11.7,0-21.3-9.6-21.3-21.3V284.9c0-11.7,9.6-21.3,21.3-21.3
			h20.7c1.7,0,3.1,1.4,3.1,3.1v1.8c0,0.8,0.1,1.5,0.2,2.2c1,5,5.5,8.8,10.8,8.8h89c5.3,0,9.8-3.8,10.8-8.8c0.1-0.7,0.2-1.5,0.2-2.2
			v-1.8c0-1.7,1.4-3.1,3.1-3.1h20.7c11.7,0,21.3,9.6,21.3,21.3V677z"/>
	</defs>
	<clipPath id="SVGID_2_">
		<use xlink:href="#SVGID_1_"  style="overflow:visible;"/>
	</clipPath>
	<circle class="st3" cx="401.1" cy="661.5" r="150"/>
</g>
<g>
	<path class="st0" d="M398,340.3h-8.1c-0.6,0-1-0.4-1-1v-8.1c0-0.6,0.4-1,1-1h8.1c0.6,0,1,0.4,1,1v8.1
		C399,339.9,398.5,340.3,398,340.3z"/>
	<path class="st0" d="M409.5,340.3h-8.1c-0.6,0-1-0.4-1-1v-8.1c0-0.6,0.4-1,1-1h8.1c0.6,0,1,0.4,1,1v8.1
		C410.5,339.9,410.1,340.3,409.5,340.3z"/>
	<path class="st0" d="M398,351.9h-8.1c-0.6,0-1-0.4-1-1v-8.1c0-0.6,0.4-1,1-1h8.1c0.6,0,1,0.4,1,1v8.1
		C399,351.5,398.5,351.9,398,351.9z"/>
	<path class="st0" d="M409.5,351.9h-8.1c-0.6,0-1-0.4-1-1v-8.1c0-0.6,0.4-1,1-1h8.1c0.6,0,1,0.4,1,1v8.1
		C410.5,351.5,410.1,351.9,409.5,351.9z"/>
</g>
<text transform="matrix(1 0 0 1 376.6114 374.8235)" class="st0 st4 st5">Login</text>
<text transform="matrix(1 0 0 1 371.2252 397.0898)" class="st0 st6 st7">Forgot password ?</text>
<text transform="matrix(1 0 0 1 354.058 583.2271)" class="st2 st6 st8">helenmiller@bulkit.io</text>
<path class="st9" d="M471.4,596.7H330.8c-1.3,0-2.3-1-2.3-2.3V567c0-1.3,1-2.3,2.3-2.3h140.6c1.3,0,2.3,1,2.3,2.3v27.4
	C473.8,595.6,472.7,596.7,471.4,596.7z"/>
<path class="st9" d="M471.4,636.2H330.8c-1.3,0-2.3-1-2.3-2.3v-27.4c0-1.3,1-2.3,2.3-2.3h140.6c1.3,0,2.3,1,2.3,2.3v27.4
	C473.8,635.1,472.7,636.2,471.4,636.2z"/>
<path class="st1" d="M457.8,675.2H344.5c-8.8,0-16-7.2-16-16v0c0-8.8,7.2-16,16-16h113.3c8.8,0,16,7.2,16,16v0
	C473.8,668,466.6,675.2,457.8,675.2z"/>
<text transform="matrix(1 0 0 1 385.7256 662.2065)" class="st0 st4 st10">Login</text>
<circle class="st2" cx="358.3" cy="620.2" r="1.8"/>
<circle class="st2" cx="365.6" cy="620.2" r="1.8"/>
<circle class="st2" cx="372.8" cy="620.2" r="1.8"/>
<circle class="st2" cx="380.1" cy="620.2" r="1.8"/>
<circle class="st2" cx="387.3" cy="620.2" r="1.8"/>
<circle class="st2" cx="394.6" cy="620.2" r="1.8"/>
<circle class="st2" cx="401.8" cy="620.2" r="1.8"/>
<circle class="st2" cx="409.1" cy="620.2" r="1.8"/>
<circle class="st2" cx="416.3" cy="620.2" r="1.8"/>
<circle class="st2" cx="423.6" cy="620.2" r="1.8"/>
<g>
	<g>
		<path class="st1" d="M345.3,584.3H338c-0.7,0-1.4-0.6-1.4-1.4v-5.4c0-0.7,0.6-1.4,1.4-1.4h7.2c0.7,0,1.4,0.6,1.4,1.4v5.4
			C346.6,583.7,346,584.3,345.3,584.3z M338,577.1c-0.2,0-0.5,0.2-0.5,0.5v5.4c0,0.2,0.2,0.5,0.5,0.5h7.2c0.2,0,0.5-0.2,0.5-0.5
			v-5.4c0-0.2-0.2-0.5-0.5-0.5H338z"/>
	</g>
	<g>
		<path class="st1" d="M341.7,581.2c-0.1,0-0.2,0-0.3-0.1l-4.5-3.2c-0.2-0.1-0.3-0.4-0.1-0.6c0.1-0.2,0.4-0.3,0.6-0.1l4.3,3l4.3-3
			c0.2-0.1,0.5-0.1,0.6,0.1c0.1,0.2,0.1,0.5-0.1,0.6l-4.5,3.2C341.8,581.1,341.8,581.2,341.7,581.2z"/>
	</g>
</g>
<g>
	<g>
		<path class="st1" d="M344.8,623.2h-6.2c-0.7,0-1.3-0.6-1.3-1.3v-3.1c0-0.7,0.6-1.3,1.3-1.3h6.2c0.7,0,1.3,0.6,1.3,1.3v3.1
			C346.1,622.6,345.5,623.2,344.8,623.2z M338.6,618.3c-0.2,0-0.4,0.2-0.4,0.4v3.1c0,0.2,0.2,0.4,0.4,0.4h6.2c0.2,0,0.4-0.2,0.4-0.4
			v-3.1c0-0.2-0.2-0.4-0.4-0.4H338.6z"/>
	</g>
	<g>
		<path class="st1" d="M343.9,618.3c-0.2,0-0.4-0.2-0.4-0.4v-1.8c0-1-0.8-1.8-1.8-1.8s-1.8,0.8-1.8,1.8v1.8c0,0.2-0.2,0.4-0.4,0.4
			c-0.2,0-0.4-0.2-0.4-0.4v-1.8c0-1.5,1.2-2.7,2.7-2.7s2.7,1.2,2.7,2.7v1.8C344.3,618.1,344.1,618.3,343.9,618.3z"/>
	</g>
</g>
</svg>
