<?xml version="1.0" encoding="utf-8"?>
<!-- Generator: Adobe Illustrator 19.0.0, SVG Export Plug-In . SVG Version: 6.00 Build 0)  -->
<svg version="1.1" id="Section1" xmlns="http://www.w3.org/2000/svg" xmlns:xlink="http://www.w3.org/1999/xlink" x="0px" y="0px"
	 viewBox="63 60.3 721.6 721.6" style="enable-background:new 63 60.3 721.6 721.6;" xml:space="preserve">
<style type="text/css">
	.st0{fill:#FFFFFF;}
	.st1{fill:#6F7592;}
	.st2{clip-path:url(#SVGID_2_);fill:#FFFFFF;}
	.st3{clip-path:url(#SVGID_2_);}
	.st4{fill:#FFFFFF;stroke:#FF5555;stroke-miterlimit:10;}
	.st5{clip-path:url(#SVGID_6_);fill:#FF5555;}
	.st6{clip-path:url(#SVGID_2_);fill:#FFFFFF;stroke:#EDEDED;stroke-miterlimit:10;}
	.st7{fill:#332D55;}
	.st8{font-family:'NexaBold';}
	.st9{font-size:11.6924px;}
	.st10{font-size:17.6947px;}
	.st11{clip-path:url(#SVGID_2_);fill:none;stroke:#332D55;stroke-miterlimit:10;}
	.st12{clip-path:url(#SVGID_2_);fill:#FFFFFF;stroke:#CCCCCC;stroke-miterlimit:10;}
	.st13{font-family:'OpenSans-Semibold';}
	.st14{font-size:10.4638px;}
	.st15{clip-path:url(#SVGID_2_);fill:#F5FAFF;}
</style>
<g>
	<path class="st0" d="M648.8,744.1H466.1c-21.6,0-39.1-17.5-39.1-39.1V257c0-21.6,17.5-39.1,39.1-39.1h182.8
		c21.6,0,39.1,17.5,39.1,39.1v448C687.9,726.6,670.4,744.1,648.8,744.1z"/>
	<g>
		<g>
			<path class="st0" d="M671.9,704.1c0,13.4-10.9,24.2-24.2,24.2H467.2c-13.4,0-24.2-10.9-24.2-24.2V257.9
				c0-13.4,10.9-24.2,24.2-24.2h23.5c1.9,0,3.5,1.6,3.5,3.5v2c0,0.9,0.1,1.7,0.3,2.5c1.2,5.7,6.2,10,12.3,10H608
				c6.1,0,11.1-4.3,12.3-10c0.2-0.8,0.3-1.7,0.3-2.5v-2c0-1.9,1.6-3.5,3.5-3.5h23.5c13.4,0,24.2,10.9,24.2,24.2V704.1z"/>
		</g>
		<path class="st1" d="M689.1,339.6l-1.2-1.2v-81.2c0-21.6-17.6-39.2-39.2-39.2H466.1c-21.6,0-39.2,17.6-39.2,39.2v31
			c-0.8,0-1.4,0.7-1.4,1.4v19.6c0,0.8,0.6,1.4,1.4,1.4v15.2l-1.1,0.9c-0.2,0.1-0.3,0.3-0.3,0.6v37c0,0.2,0.1,0.4,0.3,0.6l1.1,0.9
			v8.3l-1.1,0.9c-0.2,0.1-0.3,0.3-0.3,0.6v37c0,0.2,0.1,0.4,0.3,0.6l1.1,0.9v291.1c0,21.6,17.6,39.2,39.2,39.2h182.5
			c21.6,0,39.2-17.6,39.2-39.2V401.2l1.2-1.2c0.1-0.1,0.2-0.3,0.2-0.5v-59.4C689.3,339.9,689.2,339.7,689.1,339.6z M687.8,399.2
			l-1.2,1.2c-0.1,0.1-0.2,0.3-0.2,0.5v303.9c0,20.8-17,37.8-37.8,37.8H466.1c-20.8,0-37.8-17-37.8-37.8V413.4c0-0.2-0.1-0.4-0.3-0.6
			L427,412v-36.3l1.1-0.9c0.2-0.1,0.3-0.3,0.3-0.6v-9c0-0.2-0.1-0.4-0.3-0.6l-1.1-0.9v-36.3l1.1-0.9c0.2-0.1,0.3-0.3,0.3-0.6v-16.3
			c0-0.4-0.3-0.7-0.7-0.7H427v-19.6h0.7c0.4,0,0.7-0.3,0.7-0.7v-31.7c0-20.8,17-37.8,37.8-37.8h182.5c20.8,0,37.8,17,37.8,37.8v81.5
			c0,0.2,0.1,0.4,0.2,0.5l1.2,1.2V399.2z M647.6,222.2H467.2c-19.7,0-35.6,16-35.6,35.6v446.2c0,19.7,16,35.6,35.6,35.6h180.4
			c19.7,0,35.6-16,35.6-35.6V257.9C683.3,238.2,667.3,222.2,647.6,222.2z M585.4,234.3c2.7,0,4.8,2.2,4.8,4.8c0,2.7-2.2,4.8-4.8,4.8
			c-2.7,0-4.8-2.2-4.8-4.8C580.6,236.4,582.8,234.3,585.4,234.3z M543.6,236.8h27.7c1.3,0,2.3,1,2.3,2.3c0,1.3-1,2.3-2.3,2.3h-27.7
			c-1.3,0-2.3-1-2.3-2.3C541.3,237.8,542.3,236.8,543.6,236.8z M671.9,704.1c0,13.4-10.9,24.2-24.2,24.2H467.2
			c-13.4,0-24.2-10.9-24.2-24.2V257.9c0-13.4,10.9-24.2,24.2-24.2h23.5c1.9,0,3.5,1.6,3.5,3.5v2c0,0.9,0.1,1.7,0.3,2.5
			c1.2,5.7,6.2,10,12.3,10H608c6.1,0,11.1-4.3,12.3-10c0.2-0.8,0.3-1.7,0.3-2.5v-2c0-1.9,1.6-3.5,3.5-3.5h23.5
			c13.4,0,24.2,10.9,24.2,24.2V704.1z M596.6,719.1h-78.4c-0.8,0-1.4,0.6-1.4,1.4c0,0.8,0.6,1.4,1.4,1.4h78.4c0.8,0,1.4-0.6,1.4-1.4
			C598,719.8,597.4,719.1,596.6,719.1z"/>
	</g>
</g>
<g>
	<defs>
		<path id="SVGID_1_" d="M671.9,704.1c0,13.4-10.9,24.2-24.2,24.2H467.2c-13.4,0-24.2-10.9-24.2-24.2V257.9
			c0-13.4,10.9-24.2,24.2-24.2h23.5c1.9,0,3.5,1.6,3.5,3.5v2c0,0.9,0.1,1.7,0.3,2.5c1.2,5.7,6.2,10,12.3,10H608
			c6.1,0,11.1-4.3,12.3-10c0.2-0.8,0.3-1.7,0.3-2.5v-2c0-1.9,1.6-3.5,3.5-3.5h23.5c13.4,0,24.2,10.9,24.2,24.2V704.1z"/>
	</defs>
	<clipPath id="SVGID_2_">
		<use xlink:href="#SVGID_1_"  style="overflow:visible;"/>
	</clipPath>
	<path class="st2" d="M671.9,704.1c0,13.4-10.9,24.2-24.2,24.2H467.2c-13.4,0-24.2-10.9-24.2-24.2V257.9c0-13.4,10.9-24.2,24.2-24.2
		h23.5c1.9,0,3.5,1.6,3.5,3.5v2c0,0.9,0.1,1.7,0.3,2.5c1.2,5.7,6.2,10,12.3,10H608c6.1,0,11.1-4.3,12.3-10c0.2-0.8,0.3-1.7,0.3-2.5
		v-2c0-1.9,1.6-3.5,3.5-3.5h23.5c13.4,0,24.2,10.9,24.2,24.2V704.1z"/>
	<g class="st3">
		<circle class="st4" cx="554.1" cy="352.3" r="25.1"/>
		<g>
			<defs>
				<circle id="SVGID_3_" cx="554.1" cy="351.9" r="20.3"/>
			</defs>
			<clipPath id="SVGID_4_">
				<use xlink:href="#SVGID_3_"  style="overflow:visible;"/>
			</clipPath>
			<g style="clip-path:url(#SVGID_4_);">
				
					<image style="overflow:visible;" width="270" height="270" xlink:href="../../../../../design/assets/avatars/dounia.jpg"  transform="matrix(0.1502 0 0 0.1502 533.8411 331.5913)">
				</image>
			</g>
		</g>
	</g>
	<g class="st3">
		<defs>
			<path id="SVGID_5_" d="M671.9,704.1c0,13.4-10.9,24.2-24.2,24.2H467.2c-13.4,0-24.2-10.9-24.2-24.2V257.9
				c0-13.4,10.9-24.2,24.2-24.2h23.5c1.9,0,3.5,1.6,3.5,3.5v2c0,0.9,0.1,1.7,0.3,2.5c1.2,5.7,6.2,10,12.3,10H608
				c6.1,0,11.1-4.3,12.3-10c0.2-0.8,0.3-1.7,0.3-2.5v-2c0-1.9,1.6-3.5,3.5-3.5h23.5c13.4,0,24.2,10.9,24.2,24.2V704.1z"/>
		</defs>
		<clipPath id="SVGID_6_">
			<use xlink:href="#SVGID_5_"  style="overflow:visible;"/>
		</clipPath>
		<circle class="st5" cx="557.4" cy="685.6" r="165.5"/>
	</g>
	<circle class="st6" cx="554.1" cy="520.6" r="20.3"/>
	<g class="st3">
		<g>
			<path d="M554.1,526.4c-0.4,0-0.7-0.3-0.7-0.7v-10.2c0-0.4,0.3-0.7,0.7-0.7c0.4,0,0.7,0.3,0.7,0.7v10.2
				C554.8,526.1,554.5,526.4,554.1,526.4z"/>
		</g>
		<g>
			<path d="M559.2,521.3c-0.2,0-0.4-0.1-0.5-0.2l-4.6-4.6l-4.6,4.6c-0.3,0.3-0.7,0.3-1,0c-0.3-0.3-0.3-0.7,0-1l5.1-5.1
				c0.3-0.3,0.7-0.3,1,0l5.1,5.1c0.3,0.3,0.3,0.7,0,1C559.6,521.3,559.4,521.3,559.2,521.3z"/>
		</g>
	</g>
	<path class="st2" d="M587.9,680.9h-61.1c-7.4,0-13.5-6-13.5-13.5l0,0c0-7.4,6-13.5,13.5-13.5h61.1c7.4,0,13.5,6,13.5,13.5l0,0
		C601.4,674.8,595.4,680.9,587.9,680.9z"/>
	<g id="XMLID_3_" class="st3">
		<text transform="matrix(0.8888 0 0 1 540.4067 670.3485)" class="st7 st8 st9">Create</text>
	</g>
	<g id="XMLID_1_" class="st3">
		<text transform="matrix(0.8888 0 0 1 509.2158 301.3085)" class="st7 st8 st10">New Project</text>
	</g>
	<line class="st11" x1="605.7" y1="289.9" x2="605.7" y2="302.2"/>
	<path class="st12" d="M618.2,434.4H490c-2.7,0-4.9-2.2-4.9-4.9v-22.7c0-2.7,2.2-4.9,4.9-4.9h128.2c2.7,0,4.9,2.2,4.9,4.9v22.7
		C623.1,432.2,620.9,434.4,618.2,434.4z"/>
	<g class="st3">
		<text transform="matrix(1 0 0 1 502.3149 421.1239)" class="st13 st14">Select Template</text>
	</g>
	<g class="st3">
		<path d="M603.2,420.8c-0.2,0-0.3-0.1-0.5-0.2l-3.9-3.9c-0.3-0.3-0.3-0.7,0-0.9s0.7-0.3,0.9,0l3.5,3.5l3.5-3.5
			c0.3-0.3,0.7-0.3,0.9,0s0.3,0.7,0,0.9l-3.9,3.9C603.5,420.8,603.4,420.8,603.2,420.8z"/>
	</g>
	<circle class="st15" cx="676.2" cy="340.7" r="26.7"/>
	<circle class="st15" cx="464.1" cy="490.7" r="6.5"/>
	<circle class="st15" cx="668.8" cy="472.4" r="14.3"/>
	<circle class="st15" cx="483.1" cy="364.8" r="12.6"/>
	<circle class="st15" cx="521.2" cy="467.8" r="13.1"/>
</g>
</svg>
