<svg xmlns="http://www.w3.org/2000/svg" viewBox="0 0 40 40"><circle cx="20" cy="20" r="20" fill="#f2e9e2"/><path d="M12.02,24.223a9.244,9.244,0,0,1,0-8.454A9.111,9.111,0,0,1,14.855,12.5H10.644a11.971,11.971,0,0,0-.006,15h4.217A9.1,9.1,0,0,1,12.02,24.223Z" fill="#f7931a"/><path d="M25.145,12.5a9.111,9.111,0,0,1,2.835,3.274,9.261,9.261,0,0,1,0,8.462,9.111,9.111,0,0,1-2.835,3.274h4.211a11.973,11.973,0,0,0,0-15.01Z" fill="#f7931a"/><path d="M20,12.5a7.339,7.339,0,0,0-5.222,2.193,7.588,7.588,0,0,0,0,10.607,7.314,7.314,0,0,0,10.444,0,7.588,7.588,0,0,0,0-10.607A7.325,7.325,0,0,0,20,12.5Z" fill="#f7931a"/><path d="M23.261,17.8c-.333-.95-1.243-1.064-2.307-.893l-.333-1.349-.812.2.325,1.316-.642.171-.325-1.324-.812.2.333,1.348c-.171.049-.349.1-.512.138V17.6l-1.121.284.22.878s.593-.163.584-.147a.429.429,0,0,1,.553.244l.382,1.543a.34.34,0,0,1,.089-.016l-.089.024.527,2.161a.3.3,0,0,1-.235.349c.016.008-.593.146-.593.146l.081,1.023,1.056-.268c.2-.048.39-.1.577-.138l.333,1.365.812-.2-.333-1.357c.227-.048.438-.1.65-.154L22,24.684l.812-.2-.333-1.364c1.34-.422,2.209-1.015,2.006-2.347A1.429,1.429,0,0,0,22.9,19.365a1.334,1.334,0,0,0,.358-1.568Zm-.415,3.208c.252,1.024-1.5,1.34-2.046,1.478l-.447-1.811C20.905,20.542,22.586,19.949,22.846,21.005Zm-1-2.453c.228.926-1.234,1.186-1.689,1.3l-.406-1.641C20.207,18.089,21.6,17.578,21.847,18.552Z" fill="#fff"/></svg>