<svg xmlns="http://www.w3.org/2000/svg" viewBox="0 0 40 40"><circle cx="20" cy="20" r="20" fill="#f2e9e2"/><path d="M26.764,18.236c.283-1.891-1.157-2.908-3.127-3.586l.639-2.562L22.717,11.7l-.622,2.5c-.41-.1-.831-.2-1.25-.294l.627-2.511L19.913,11l-.639,2.561c-.34-.077-.673-.153-1-.234l0-.008-2.151-.537-.415,1.666s1.157.265,1.133.281a.83.83,0,0,1,.726.907l-.727,2.919a1.272,1.272,0,0,1,.162.052l-.165-.041-1.02,4.089a.567.567,0,0,1-.714.371c.015.022-1.134-.283-1.134-.283L13.2,24.528l2.029.506c.378.094.748.193,1.112.287L15.7,27.912l1.557.389.64-2.564c.425.115.838.222,1.242.322L18.5,28.611,20.059,29l.645-2.587c2.66.5,4.66.3,5.5-2.105a2.735,2.735,0,0,0-1.433-3.782,2.488,2.488,0,0,0,1.992-2.29Zm-3.564,5c-.482,1.937-3.742.89-4.8.627l.857-3.433C20.314,20.691,23.7,21.213,23.2,23.233Zm.483-5.025c-.44,1.762-3.154.867-4.034.648l.776-3.114C21.305,15.961,24.141,16.371,23.683,18.208Z" fill="#f7931a"/></svg>