<svg xmlns="http://www.w3.org/2000/svg" viewBox="0 0 40 40"><circle cx="20" cy="20" r="20" fill="#e7f2ed"/><path d="M21.423,18.439h0v-1.57H25.01V14.478H15.239v2.391h3.589v1.568c-2.917.134-5.11.712-5.11,1.4s2.194,1.27,5.11,1.4v5.027h2.595V21.245c2.911-.134,5.1-.712,5.1-1.4S24.334,18.573,21.423,18.439Zm0,2.379h0c-.073,0-.45.027-1.287.027-.67,0-1.141-.019-1.307-.027v0c-2.577-.114-4.5-.563-4.5-1.1s1.923-.985,4.5-1.1v1.753c.169.011.652.04,1.318.04.8,0,1.2-.034,1.276-.04V18.62c2.572.115,4.491.564,4.491,1.1S23.994,20.7,21.423,20.818Z" fill="none"/><path d="M21.423,18.62v1.753c-.074.006-.476.04-1.276.04-.666,0-1.149-.029-1.318-.04V18.62c-2.577.115-4.5.563-4.5,1.1s1.923.986,4.5,1.1v0c.166.008.637.027,1.307.027.837,0,1.214-.022,1.287-.027h0c2.571-.114,4.491-.564,4.491-1.1S24,18.735,21.423,18.62Z" fill="#53ae94"/><path d="M26.428,12H13.53L9.739,20.063,20,30l10.261-9.9Zm-5.005,9.245v5.027H18.828V21.245c-2.916-.134-5.11-.712-5.11-1.4s2.193-1.27,5.11-1.4V16.869H15.239V14.478H25.01v2.391H21.422v1.57h0c2.911.134,5.1.712,5.1,1.4S24.334,21.111,21.423,21.245Z" fill="#53ae94"/></svg>