<svg xmlns="http://www.w3.org/2000/svg" viewBox="0 0 40 40"><circle cx="20" cy="20" r="20" fill="#efeded"/><path d="M26.316,14.094l-2.277,1.16-10.995,5.6A6.81,6.81,0,0,1,12.988,20a6.551,6.551,0,0,1,9.744-5.71l1.3-.664.2-.1A8,8,0,0,0,11.53,20q0,.3.023.609a1.454,1.454,0,0,1-.79,1.406l-.687.35V24L12.1,22.971l.655-.335.646-.329,11.591-5.9,1.3-.664,2.692-1.372V12.733ZM28.985,16,14.058,23.6l-1.3.665-2.68,1.365v1.633l2.661-1.356,2.277-1.16L26.02,19.141a6.693,6.693,0,0,1,.056.861,6.549,6.549,0,0,1-9.753,5.709l-.08.042-1.413.72A8,8,0,0,0,27.531,20c0-.206-.008-.412-.024-.615a1.457,1.457,0,0,1,.79-1.406l.688-.351Z"/></svg>