<?xml version="1.0" encoding="utf-8"?>
<!-- Generator: Adobe Illustrator 19.0.0, SVG Export Plug-In . SVG Version: 6.00 Build 0)  -->
<svg version="1.1" id="Calque_1" xmlns="http://www.w3.org/2000/svg" xmlns:xlink="http://www.w3.org/1999/xlink" x="0px" y="0px"
	 viewBox="0 0 580 370" style="enable-background:new 0 0 580 370;" xml:space="preserve">
<style type="text/css">
	.st0{opacity:0.2;fill:none;stroke:#CDE5F8;stroke-width:3;stroke-miterlimit:10;stroke-dasharray:1000;}
	.st1{fill:#FFFFFF;stroke:#1AAE88;stroke-width:3;stroke-miterlimit:10;}
	.st2{fill:#FFFFFF;stroke:#CDE5F8;stroke-width:2;stroke-miterlimit:10;stroke-dasharray:1000;}
	.st3{fill:#FFFFFF;stroke:#1AAE88;stroke-width:2;stroke-miterlimit:10;}
	.st4{fill:none;stroke:#1AAE88;stroke-width:2;stroke-miterlimit:10;}
</style>
<circle id="XMLID_2_" class="st0" cx="288.8" cy="191.3" r="51.5"/>
<circle id="XMLID_22_" class="st0" cx="288.8" cy="191.3" r="148.6"/>
<circle id="XMLID_23_" class="st0" cx="288.8" cy="191.3" r="102.5"/>
<g id="XMLID_4_">
	<g id="_x39__8_">
		<g id="XMLID_5_">
			<path id="XMLID_6_" class="st1" d="M317.1,230.2c-0.6,0-63.3,0-63.3,0s-27.3-2.8-27.1-27.1c0.1-13.7,12.2-26.3,27.1-27.1
				c0-18.7,12-36.2,31.6-36.2c15.5,0,25.9,9.5,29.6,22.7c22.4-1,37.6,16.7,38.3,31.6C354.2,214,333.4,230.2,317.1,230.2z"/>
		</g>
	</g>
</g>
<path id="XMLID_8_" class="st2" d="M288.5,294.9l-5.1,12.6c-0.1,0.3-0.5,0.5-0.8,0.3l-16.8-6.8c-0.3-0.1-0.5-0.5-0.3-0.8l5.1-12.6
	c0.1-0.3,0.5-0.5,0.8-0.3l16.8,6.8C288.5,294.3,288.6,294.6,288.5,294.9z"/>
<path id="XMLID_9_" class="st2" d="M311.3,340.2l-11.3,5.4c-0.3,0.1-0.7,0-0.8-0.3l-7.2-15.1c-0.1-0.3,0-0.7,0.3-0.8l11.3-5.4
	c0.3-0.1,0.7,0,0.8,0.3l7.2,15.1C311.7,339.7,311.6,340,311.3,340.2z"/>
<path id="XMLID_10_" class="st2" d="M306.3,276.5l-3,8.5c-0.1,0.3-0.5,0.5-0.8,0.4l-11.4-4.1c-0.3-0.1-0.5-0.5-0.4-0.8l3-8.5
	c0.1-0.3,0.5-0.5,0.8-0.4l11.4,4.1C306.3,275.9,306.4,276.2,306.3,276.5z"/>
<path id="XMLID_11_" class="st2" d="M278.7,343.4l-17.9,1.4c-0.3,0-0.6-0.2-0.6-0.6l-1.8-23.7c0-0.3,0.2-0.6,0.6-0.6l17.9-1.4
	c0.3,0,0.6,0.2,0.6,0.6l1.8,23.7C279.3,343.1,279.1,343.4,278.7,343.4z"/>
<path id="XMLID_12_" class="st2" d="M280,252.5l5.1,7.4c0.2,0.3,0.1,0.7-0.2,0.8l-10,6.8c-0.3,0.2-0.7,0.1-0.8-0.2L269,260
	c-0.2-0.3-0.1-0.7,0.2-0.8l10-6.8C279.4,252.2,279.8,252.3,280,252.5z"/>
<path id="XMLID_13_" class="st2" d="M303.9,249.3L299,253c-0.3,0.2-0.6,0.2-0.8-0.1l-5.1-6.7c-0.2-0.3-0.2-0.6,0.1-0.8l4.9-3.8
	c0.3-0.2,0.6-0.2,0.8,0.1l5.1,6.7C304.2,248.7,304.2,249.1,303.9,249.3z"/>
<path id="XMLID_21_" class="st2" d="M396.8,64.8l11.9,5.4c0.3,0.1,0.4,0.5,0.3,0.8l-7.2,15.9c-0.1,0.3-0.5,0.4-0.8,0.3L389,81.7
	c-0.3-0.1-0.4-0.5-0.3-0.8l7.2-15.9C396.1,64.8,396.5,64.6,396.8,64.8z"/>
<path id="XMLID_20_" class="st2" d="M447.2,77.5l6.3-12c0.2-0.3,0.5-0.4,0.8-0.3l16,8.5c0.3,0.2,0.4,0.5,0.3,0.8l-6.3,12
	c-0.2,0.3-0.5,0.4-0.8,0.3l-16-8.5C447.1,78.1,447,77.8,447.2,77.5z"/>
<path id="XMLID_19_" class="st2" d="M418,90.1l17.8-6.4c0.3-0.1,0.7,0.1,0.8,0.4l8.5,23.6c0.1,0.3-0.1,0.7-0.4,0.8l-17.8,6.4
	c-0.3,0.1-0.7-0.1-0.8-0.4l-8.5-23.6C417.6,90.6,417.7,90.2,418,90.1z"/>
<path id="XMLID_18_" class="st2" d="M346.9,131.2l3.8-8.1c0.1-0.3,0.5-0.4,0.8-0.3l11,5.2c0.3,0.1,0.4,0.5,0.3,0.8l-3.8,8.1
	c-0.1,0.3-0.5,0.4-0.8,0.3l-11-5.2C346.9,131.9,346.8,131.5,346.9,131.2z"/>
<path id="XMLID_17_" class="st2" d="M395.6,99.3l17.7,2.7c0.3,0.1,0.6,0.4,0.5,0.7l-3.6,23.5c-0.1,0.3-0.4,0.6-0.7,0.5l-17.7-2.7
	c-0.3-0.1-0.6-0.4-0.5-0.7l3.6-23.5C395,99.5,395.3,99.3,395.6,99.3z"/>
<path id="XMLID_16_" class="st2" d="M375.3,130.5l6.1-6.6c0.2-0.2,0.6-0.3,0.9,0l8.9,8.3c0.2,0.2,0.3,0.6,0,0.9l-6.1,6.6
	c-0.2,0.2-0.6,0.3-0.9,0l-8.9-8.3C375.1,131.1,375.1,130.7,375.3,130.5z"/>
<path id="XMLID_15_" class="st2" d="M340.6,152.1l5.3-3.3c0.3-0.2,0.7-0.1,0.8,0.2l4.4,7.2c0.2,0.3,0.1,0.7-0.2,0.8l-5.3,3.3
	c-0.3,0.2-0.7,0.1-0.8-0.2l-4.4-7.2C340.2,152.7,340.3,152.3,340.6,152.1z"/>
<path id="XMLID_7_" class="st2" d="M477.7,87l12,3.1c0.3,0.1,0.5,0.4,0.4,0.7L486,107c-0.1,0.3-0.4,0.5-0.7,0.4l-12-3.1
	c-0.3-0.1-0.5-0.4-0.4-0.7l4.2-16.1C477.1,87.1,477.4,86.9,477.7,87z"/>
<path id="XMLID_32_" class="st2" d="M183.1,65.2l-11.9,5.4c-0.3,0.1-0.4,0.5-0.3,0.8l7.2,15.9c0.1,0.3,0.5,0.4,0.8,0.3l11.9-5.4
	c0.3-0.1,0.4-0.5,0.3-0.8l-7.2-15.9C183.7,65.2,183.4,65.1,183.1,65.2z"/>
<path id="XMLID_31_" class="st2" d="M132.7,77.9l-6.3-12c-0.2-0.3-0.5-0.4-0.8-0.3l-16,8.5c-0.3,0.2-0.4,0.5-0.3,0.8l6.3,12
	c0.2,0.3,0.5,0.4,0.8,0.3l16-8.5C132.7,78.6,132.8,78.2,132.7,77.9z"/>
<path id="XMLID_30_" class="st2" d="M161.8,90.6L144,84.2c-0.3-0.1-0.7,0.1-0.8,0.4l-8.5,23.6c-0.1,0.3,0.1,0.7,0.4,0.8l17.8,6.4
	c0.3,0.1,0.7-0.1,0.8-0.4l8.5-23.6C162.3,91,162.1,90.7,161.8,90.6z"/>
<path id="XMLID_29_" class="st2" d="M232.9,131.6l-3.8-8.1c-0.1-0.3-0.5-0.4-0.8-0.3l-11,5.2c-0.3,0.1-0.4,0.5-0.3,0.8l3.8,8.1
	c0.1,0.3,0.5,0.4,0.8,0.3l11-5.2C232.9,132.3,233.1,131.9,232.9,131.6z"/>
<path id="XMLID_28_" class="st2" d="M184.2,99.8l-17.7,2.7c-0.3,0.1-0.6,0.4-0.5,0.7l3.6,23.5c0.1,0.3,0.4,0.6,0.7,0.5l17.7-2.7
	c0.3-0.1,0.6-0.4,0.5-0.7l-3.6-23.5C184.9,99.9,184.6,99.7,184.2,99.8z"/>
<path id="XMLID_27_" class="st2" d="M204.6,130.9l-6.1-6.6c-0.2-0.2-0.6-0.3-0.9,0l-8.9,8.3c-0.2,0.2-0.3,0.6,0,0.9l6.1,6.6
	c0.2,0.2,0.6,0.3,0.9,0l8.9-8.3C204.8,131.6,204.8,131.2,204.6,130.9z"/>
<path id="XMLID_26_" class="st2" d="M239.3,152.6l-5.3-3.3c-0.3-0.2-0.7-0.1-0.8,0.2l-4.4,7.2c-0.2,0.3-0.1,0.7,0.2,0.8l5.3,3.3
	c0.3,0.2,0.7,0.1,0.8-0.2l4.4-7.2C239.6,153.1,239.6,152.8,239.3,152.6z"/>
<path id="XMLID_25_" class="st2" d="M102.1,87.4l-12,3.1c-0.3,0.1-0.5,0.4-0.4,0.7l4.2,16.1c0.1,0.3,0.4,0.5,0.7,0.4l12-3.1
	c0.3-0.1,0.5-0.4,0.4-0.7l-4.2-16.1C102.8,87.5,102.4,87.3,102.1,87.4z"/>
<g id="XMLID_24_">
	<line id="XMLID_14_" class="st3" x1="323.7" y1="288.8" x2="323.7" y2="244.4"/>
	<polyline id="XMLID_3_" class="st4" points="318.2,250.3 323.7,242.8 328.9,250.3 	"/>
</g>
<g id="XMLID_37_">
	<line id="XMLID_39_" class="st3" x1="250" y1="271.7" x2="250" y2="245.5"/>
	<polyline id="XMLID_38_" class="st4" points="246.8,248.9 250,244.5 253.1,248.9 	"/>
</g>
<g id="XMLID_34_">
	<line id="XMLID_36_" class="st3" x1="345.8" y1="313.1" x2="345.8" y2="283.2"/>
	<polyline id="XMLID_35_" class="st4" points="342.2,287.1 345.8,282.1 349.4,287.1 	"/>
</g>
</svg>
