<?xml version="1.0" encoding="utf-8"?>
<!-- Generator: Adobe Illustrator 19.0.0, SVG Export Plug-In . SVG Version: 6.00 Build 0)  -->
<svg version="1.1" id="Calque_1" xmlns="http://www.w3.org/2000/svg" xmlns:xlink="http://www.w3.org/1999/xlink" x="0px" y="0px"
	 viewBox="0 0 580 370" style="enable-background:new 0 0 580 370;" xml:space="preserve">
<style type="text/css">
	.st0{fill:#FFFFFF;stroke:#CDE5F8;stroke-width:2;stroke-miterlimit:10;}
	.st1{fill:#F8F9FA;}
	.st2{fill:#FFFFFF;stroke:#CDE5F8;stroke-width:3;stroke-miterlimit:10;}
	.st3{fill:#1DAE88;}
	.st4{fill:none;stroke:#1DAE88;stroke-miterlimit:10;}
	.st5{fill:#FFFFFF;stroke:#1DAE88;stroke-miterlimit:10;}
</style>
<rect id="XMLID_29_" x="193.2" y="174.9" class="st0" width="320.6" height="151.2"/>
<rect id="XMLID_55_" x="164.4" y="132.9" class="st0" width="320.6" height="151.2"/>
<rect id="XMLID_1_" x="135.6" y="84" class="st0" width="320.6" height="151.2"/>
<rect id="XMLID_7_" x="286.8" y="85" class="st1" width="168.3" height="149.2"/>
<g id="XMLID_8_">
	<circle id="XMLID_2_" class="st0" cx="209.3" cy="145.9" r="38.4"/>
	<line id="XMLID_4_" class="st2" x1="165.4" y1="201.3" x2="255.9" y2="201.3"/>
	<line id="XMLID_5_" class="st2" x1="183" y1="213.4" x2="240.4" y2="213.4"/>
	<line id="XMLID_6_" class="st2" x1="303.3" y1="103.5" x2="332" y2="103.5"/>
	<path id="XMLID_3_" class="st3" d="M318.8,208.5h-6.1c-0.3,0-0.6-0.3-0.6-0.6v-23c0-0.3,0.3-0.6,0.6-0.6h6.1c0.3,0,0.6,0.3,0.6,0.6
		v23C319.4,208.3,319.1,208.5,318.8,208.5z"/>
	<path id="XMLID_9_" class="st3" d="M331.4,208.5h-6.1c-0.3,0-0.6-0.3-0.6-0.6v-41.3c0-0.3,0.3-0.6,0.6-0.6h6.1
		c0.3,0,0.6,0.3,0.6,0.6v41.3C332,208.3,331.7,208.5,331.4,208.5z"/>
	<path id="XMLID_10_" class="st3" d="M344,208.5h-6.1c-0.3,0-0.6-0.3-0.6-0.6v-29.1c0-0.3,0.3-0.6,0.6-0.6h6.1
		c0.3,0,0.6,0.3,0.6,0.6v29.1C344.5,208.3,344.3,208.5,344,208.5z"/>
	<path id="XMLID_11_" class="st3" d="M356.5,208.5h-6.1c-0.3,0-0.6-0.3-0.6-0.6v-18.1c0-0.3,0.3-0.6,0.6-0.6h6.1
		c0.3,0,0.6,0.3,0.6,0.6v18.1C357.1,208.3,356.9,208.5,356.5,208.5z"/>
	<path id="XMLID_12_" class="st3" d="M369.1,208.5H363c-0.3,0-0.6-0.3-0.6-0.6v-12.5c0-0.3,0.3-0.6,0.6-0.6h6.1
		c0.3,0,0.6,0.3,0.6,0.6v12.5C369.7,208.3,369.5,208.5,369.1,208.5z"/>
	<path id="XMLID_13_" class="st3" d="M381.7,208.5h-6.1c-0.3,0-0.6-0.3-0.6-0.6V181c0-0.3,0.3-0.6,0.6-0.6h6.1
		c0.3,0,0.6,0.3,0.6,0.6v26.9C382.3,208.3,382,208.5,381.7,208.5z"/>
	<path id="XMLID_14_" class="st3" d="M394.3,208.5h-6.1c-0.3,0-0.6-0.3-0.6-0.6v-23c0-0.3,0.3-0.6,0.6-0.6h6.1
		c0.3,0,0.6,0.3,0.6,0.6v23C394.9,208.3,394.6,208.5,394.3,208.5z"/>
	<path id="XMLID_15_" class="st3" d="M406.9,208.5h-6.1c-0.3,0-0.6-0.3-0.6-0.6V177c0-0.3,0.3-0.6,0.6-0.6h6.1
		c0.3,0,0.6,0.3,0.6,0.6v30.9C407.5,208.3,407.2,208.5,406.9,208.5z"/>
	<path id="XMLID_16_" class="st3" d="M419.5,208.5h-6.1c-0.3,0-0.6-0.3-0.6-0.6v-16.3c0-0.3,0.3-0.6,0.6-0.6h6.1
		c0.3,0,0.6,0.3,0.6,0.6v16.3C420,208.3,419.8,208.5,419.5,208.5z"/>
	<path id="XMLID_17_" class="st3" d="M432,208.5H426c-0.3,0-0.6-0.3-0.6-0.6v-26.1c0-0.3,0.3-0.6,0.6-0.6h6.1c0.3,0,0.6,0.3,0.6,0.6
		v26.1C432.6,208.3,432.4,208.5,432,208.5z"/>
	<polyline id="XMLID_19_" class="st4" points="313.9,138.4 330.3,120.4 346.7,139.9 363.1,127.3 379.5,132.5 395.9,126 412.3,138.6 
		428.7,122.8 	"/>
	<circle id="XMLID_18_" class="st5" cx="313.9" cy="138" r="1.9"/>
	<circle id="XMLID_20_" class="st5" cx="330.3" cy="120.4" r="1.9"/>
	<circle id="XMLID_21_" class="st5" cx="346.7" cy="139.9" r="1.9"/>
	<circle id="XMLID_22_" class="st5" cx="363.1" cy="127.4" r="1.9"/>
	<circle id="XMLID_23_" class="st5" cx="379.5" cy="132.5" r="1.9"/>
	<circle id="XMLID_24_" class="st5" cx="395.9" cy="126.2" r="1.9"/>
	<circle id="XMLID_25_" class="st5" cx="412.3" cy="138.7" r="1.9"/>
	<circle id="XMLID_26_" class="st5" cx="428.7" cy="122.7" r="1.9"/>
</g>
</svg>
