<?xml version="1.0" encoding="utf-8"?>
<!-- Generator: Adobe Illustrator 19.0.0, SVG Export Plug-In . SVG Version: 6.00 Build 0)  -->
<svg version="1.1" id="Calque_1" xmlns="http://www.w3.org/2000/svg" xmlns:xlink="http://www.w3.org/1999/xlink" x="0px" y="0px"
	 viewBox="0 0 580 370" style="enable-background:new 0 0 580 370;" xml:space="preserve">
<style type="text/css">
	.st0{opacity:0.2;fill:none;stroke:#CDE5F8;stroke-width:2;stroke-miterlimit:10;}
	.st1{fill:#FFFFFF;stroke:#CDE5F8;stroke-width:2;stroke-miterlimit:10;}
	.st2{fill:#FFFFFF;stroke:#CDE5F8;stroke-miterlimit:10;}
	.st3{fill:#FFFFFF;stroke:#1DAE88;stroke-width:2;stroke-miterlimit:10;}
	.st4{fill:#FFFFFF;stroke:#1DAE88;stroke-width:0.8;stroke-miterlimit:10;}
	.st5{fill:#FFFFFF;stroke:#1DAE88;stroke-width:2;stroke-linecap:round;stroke-miterlimit:10;}
</style>
<circle id="XMLID_38_" class="st0" cx="149.5" cy="96.1" r="56"/>
<circle id="XMLID_53_" class="st0" cx="149.5" cy="96.1" r="90.1"/>
<polyline id="XMLID_52_" class="st0" points="5,263.8 94.5,214.4 135.5,232.9 483,99.2 523,146.2 602,108.4 "/>
<path id="XMLID_1_" class="st1" d="M448.7,296.2H131.3c-4.7,0-8.5-3.8-8.5-8.5V82.3c0-4.7,3.8-8.5,8.5-8.5h317.4
	c4.7,0,8.5,3.8,8.5,8.5v205.4C457.3,292.4,453.4,296.2,448.7,296.2z"/>
<line id="XMLID_3_" class="st1" x1="186.4" y1="73.8" x2="186.4" y2="296.2"/>
<g id="XMLID_22_">
	<line id="XMLID_4_" class="st1" x1="353.3" y1="73.8" x2="353.3" y2="83.8"/>
	<line id="XMLID_5_" class="st1" x1="353.3" y1="86.1" x2="353.3" y2="96.1"/>
	<line id="XMLID_6_" class="st1" x1="353.3" y1="98.4" x2="353.3" y2="108.4"/>
	<line id="XMLID_7_" class="st1" x1="353.3" y1="110.8" x2="353.3" y2="120.8"/>
	<line id="XMLID_8_" class="st1" x1="353.3" y1="123.1" x2="353.3" y2="133.1"/>
	<line id="XMLID_9_" class="st1" x1="353.3" y1="135.4" x2="353.3" y2="145.4"/>
	<line id="XMLID_10_" class="st1" x1="353.3" y1="147.8" x2="353.3" y2="157.8"/>
	<line id="XMLID_11_" class="st1" x1="353.3" y1="160.1" x2="353.3" y2="170.1"/>
	<line id="XMLID_12_" class="st1" x1="353.3" y1="172.4" x2="353.3" y2="182.4"/>
	<line id="XMLID_13_" class="st1" x1="353.3" y1="184.8" x2="353.3" y2="194.8"/>
	<line id="XMLID_14_" class="st1" x1="353.3" y1="197.1" x2="353.3" y2="207.1"/>
	<line id="XMLID_15_" class="st1" x1="353.3" y1="209.4" x2="353.3" y2="219.4"/>
	<line id="XMLID_16_" class="st1" x1="353.3" y1="221.8" x2="353.3" y2="231.8"/>
	<line id="XMLID_17_" class="st1" x1="353.3" y1="234.1" x2="353.3" y2="244.1"/>
	<line id="XMLID_18_" class="st1" x1="353.3" y1="246.4" x2="353.3" y2="256.4"/>
	<line id="XMLID_19_" class="st1" x1="353.3" y1="258.8" x2="353.3" y2="268.8"/>
	<line id="XMLID_20_" class="st1" x1="353.3" y1="271.1" x2="353.3" y2="281.1"/>
	<line id="XMLID_21_" class="st1" x1="353.3" y1="283.4" x2="353.3" y2="293.4"/>
</g>
<g id="XMLID_27_">
	<rect id="XMLID_2_" x="145.7" y="91.7" class="st2" width="7.5" height="7.5"/>
	<rect id="XMLID_23_" x="155.4" y="91.7" class="st2" width="7.5" height="7.5"/>
	<rect id="XMLID_25_" x="145.7" y="101.5" class="st2" width="7.5" height="7.5"/>
	<rect id="XMLID_24_" x="155.4" y="101.5" class="st2" width="7.5" height="7.5"/>
</g>
<circle id="XMLID_26_" class="st1" cx="218.8" cy="107" r="11.5"/>
<circle id="XMLID_28_" class="st1" cx="218.8" cy="152.8" r="11.5"/>
<circle id="XMLID_29_" class="st1" cx="218.8" cy="198.6" r="11.5"/>
<circle id="XMLID_30_" class="st1" cx="218.8" cy="244.4" r="11.5"/>
<line id="XMLID_31_" class="st1" x1="245.8" y1="107" x2="333.3" y2="107"/>
<line id="XMLID_32_" class="st1" x1="245.8" y1="152.8" x2="333.3" y2="152.8"/>
<line id="XMLID_33_" class="st1" x1="245.8" y1="198.6" x2="333.3" y2="198.6"/>
<line id="XMLID_34_" class="st1" x1="245.8" y1="244.4" x2="333.3" y2="244.4"/>
<circle id="XMLID_35_" class="st1" cx="405.4" cy="135.8" r="20.3"/>
<path id="XMLID_37_" class="st3" d="M493.5,317.5H409c-5,0-9-4-9-9V144.4c0-5,4-9,9-9h84.6c5,0,9,4,9,9v164.1
	C502.5,313.5,498.5,317.5,493.5,317.5z"/>
<line id="XMLID_39_" class="st3" x1="400" y1="162" x2="502.5" y2="162"/>
<g id="XMLID_40_">
	<rect id="XMLID_44_" x="411.4" y="144" class="st4" width="4.3" height="4.3"/>
	<rect id="XMLID_43_" x="416.9" y="144" class="st4" width="4.3" height="4.3"/>
	<rect id="XMLID_42_" x="411.4" y="149.6" class="st4" width="4.3" height="4.3"/>
	<rect id="XMLID_41_" x="416.9" y="149.6" class="st4" width="4.3" height="4.3"/>
</g>
<circle id="XMLID_36_" class="st3" cx="423.4" cy="192.3" r="9.8"/>
<circle id="XMLID_45_" class="st3" cx="423.4" cy="219.4" r="9.8"/>
<circle id="XMLID_46_" class="st3" cx="423.4" cy="246.6" r="9.8"/>
<circle id="XMLID_47_" class="st3" cx="423.4" cy="273.8" r="9.8"/>
<line id="XMLID_48_" class="st5" x1="440.8" y1="192.3" x2="490.5" y2="192.3"/>
<line id="XMLID_49_" class="st5" x1="440.8" y1="219.4" x2="490.5" y2="219.4"/>
<line id="XMLID_50_" class="st5" x1="440.8" y1="246.6" x2="490.5" y2="246.6"/>
<line id="XMLID_51_" class="st5" x1="440.8" y1="273.8" x2="490.5" y2="273.8"/>
</svg>
