<?xml version="1.0" encoding="utf-8"?>
<!-- Generator: Adobe Illustrator 19.0.0, SVG Export Plug-In . SVG Version: 6.00 Build 0)  -->
<svg version="1.1" id="Calque_1" xmlns="http://www.w3.org/2000/svg" xmlns:xlink="http://www.w3.org/1999/xlink" x="0px" y="0px"
	 viewBox="0 0 420 300" style="enable-background:new 0 0 420 300;" xml:space="preserve">
<style type="text/css">
	.st0{fill:none;}
	.st1{fill:#F4F4F4;}
	.st2{fill:none;stroke:#F4F4F4;stroke-miterlimit:10;}
	.st3{fill:none;stroke:#F4F4F4;stroke-linecap:round;stroke-linejoin:round;stroke-miterlimit:10;}
</style>
<g id="XMLID_2485_">
	<circle id="XMLID_2486_" class="st0" cx="420" cy="299.7" r="111.2"/>
</g>
<g id="XMLID_2481_">
	<path id="XMLID_2482_" class="st1" d="M420,415.7c-64,0-116-52-116-116s52-116,116-116s116,52,116,116S484,415.7,420,415.7z
		 M420,193.3c-58.6,0-106.3,47.7-106.3,106.3S361.4,406,420,406s106.3-47.7,106.3-106.3S478.6,193.3,420,193.3z"/>
</g>
<g id="XMLID_2477_">
	<g id="XMLID_2478_">
		<circle id="XMLID_2479_" class="st2" cx="420" cy="299.7" r="94.4"/>
	</g>
</g>
<path id="XMLID_364_" class="st0" d="M431.2,152.1h-21.1c-3.2,0-5.8,2.6-5.8,5.8v18.7H437v-18.7C437,154.7,434.4,152.1,431.2,152.1z
	"/>
<path id="XMLID_361_" class="st1" d="M441.6,181.3h-41.9v-19.1c0-8.1,6.6-14.7,14.7-14.7h12.5c8.1,0,14.7,6.6,14.7,14.7V181.3z
	 M409,172h23.4v-9.8c0-3-2.4-5.5-5.5-5.5h-12.5c-3,0-5.5,2.4-5.5,5.5V172z"/>
<g id="XMLID_359_">
	<rect id="XMLID_360_" x="412.7" y="176.6" class="st1" width="16" height="11.9"/>
</g>
<path id="XMLID_358_" class="st0" d="M496.6,187.7l-18.2-10.5c-2.8-1.6-6.3-0.6-7.9,2.1l-9.4,16.2l28.2,16.3l9.4-16.2
	C500.3,192.8,499.4,189.2,496.6,187.7z"/>
<path id="XMLID_355_" class="st1" d="M491,218.1l-36.2-20.9l9.5-16.5c2.6-4.5,7.5-7.4,12.7-7.4c2.6,0,5.1,0.7,7.3,2l10.8,6.2
	c7,4.1,9.4,13.1,5.4,20.1L491,218.1z M467.4,193.8l20.2,11.7l4.9-8.5c1.5-2.6,0.6-5.9-2-7.5l-10.8-6.2c-0.8-0.5-1.8-0.7-2.7-0.7
	c-1.9,0-3.8,1-4.7,2.7L467.4,193.8z"/>
<path id="XMLID_354_" class="st0" d="M343.8,186.4l18.2-10.5c2.8-1.6,6.3-0.6,7.9,2.1l9.4,16.2l-28.2,16.3l-9.4-16.2
	C340.1,191.5,341.1,188,343.8,186.4z"/>
<path id="XMLID_351_" class="st1" d="M349.4,216.8l-9.5-16.5c-2-3.4-2.5-7.4-1.5-11.2c1-3.8,3.4-7,6.9-8.9L356,174
	c2.2-1.3,4.8-2,7.3-2c5.2,0,10.1,2.8,12.7,7.4l9.5,16.5L349.4,216.8z M363.4,181.3c-0.9,0-1.9,0.3-2.7,0.7l-10.8,6.2
	c-1.3,0.7-2.2,1.9-2.5,3.3c-0.4,1.4-0.2,2.9,0.5,4.1l4.9,8.5l20.2-11.7l-4.9-8.5C367.1,182.3,365.3,181.3,363.4,181.3z"/>
<circle id="XMLID_350_" class="st3" cx="420" cy="300" r="27.8"/>
<circle id="XMLID_333_" class="st3" cx="420" cy="300" r="95"/>
<circle id="XMLID_330_" class="st3" cx="420" cy="300" r="10.1"/>
<path id="XMLID_331_" class="st2" d="M339.9,297.9c0-44.1,35.7-79.8,79.8-79.8"/>
<line id="XMLID_332_" class="st3" x1="426.6" y1="292.4" x2="476.9" y2="243.8"/>
</svg>
