<?xml version="1.0" encoding="utf-8"?>
<!-- Generator: Adobe Illustrator 19.0.0, SVG Export Plug-In . SVG Version: 6.00 Build 0)  -->
<svg version="1.1" id="Hero" xmlns="http://www.w3.org/2000/svg" xmlns:xlink="http://www.w3.org/1999/xlink" x="0px" y="0px"
	 viewBox="-277 402.1 41 38.8" style="enable-background:new -277 402.1 41 38.8;" xml:space="preserve">
<style type="text/css">
	.st0{fill:#DFFFDC;}
	.st1{fill:#D3E6F8;}
	.st2{fill:#A4CFF2;}
	.st3{fill:#4C4372;}
	.st4{fill:#FF5555;}
	.st5{fill:#FF3131;}
</style>
<g>
	<title>060 cpu 2</title>
	<g>
		<path class="st0" d="M-240.8,421.5c0,8.7-7,15.7-15.7,15.7c-8.7,0-15.7-7-15.7-15.7c0-8.7,7-15.7,15.7-15.7
			C-247.8,405.8-240.8,412.8-240.8,421.5z"/>
		<path class="st1" d="M-256.5,402.5c-5.5,0-10,4.5-10,10v12.1h3.4v4.3c0,1.7,1.3,3,3,3h3.4v8.5h10.2v-27.9
			C-246.5,407-251,402.5-256.5,402.5L-256.5,402.5z"/>
		<path class="st2" d="M-256.5,402.5c-0.3,0-0.7,0-1,0.1c5,0.5,9,4.8,9,9.9v27.9h2v-27.9C-246.5,407-251,402.5-256.5,402.5
			L-256.5,402.5z"/>
		<path class="st3" d="M-246.5,440.8h-10.2c-0.2,0-0.4-0.2-0.4-0.4l0,0v-8h-2.9c-1.9,0-3.4-1.5-3.4-3.4V425h-3
			c-0.2,0-0.4-0.2-0.4-0.4v0v-12.1c0-5.7,4.7-10.4,10.4-10.4c5.7,0,10.4,4.7,10.4,10.4v27.9C-246.1,440.6-246.3,440.8-246.5,440.8
			L-246.5,440.8z M-256.2,440h9.3v-27.4c0-5.3-4.3-9.5-9.5-9.5c-5.3,0-9.5,4.3-9.5,9.5v11.6h3c0.2,0,0.4,0.2,0.4,0.4v4.3
			c0,1.4,1.1,2.6,2.6,2.6h3.4c0.2,0,0.4,0.2,0.4,0.4V440z"/>
		<path class="st4" d="M-254.9,417.2h-3.6c-0.6,0-1.2-0.5-1.2-1.2v-3.6c0-0.6,0.5-1.2,1.2-1.2h3.6c0.6,0,1.2,0.5,1.2,1.2v3.6
			C-253.7,416.7-254.2,417.2-254.9,417.2L-254.9,417.2z"/>
		<path class="st5" d="M-254.9,411.2h-0.4v5.9h0.4c0.6,0,1.2-0.5,1.2-1.2v-3.6C-253.7,411.7-254.2,411.2-254.9,411.2L-254.9,411.2z"
			/>
		<path class="st4" d="M-262.3,414.2c0,0.5-0.4,1-1,1c-0.5,0-1-0.4-1-1c0-0.5,0.4-1,1-1C-262.8,413.2-262.3,413.7-262.3,414.2z"/>
		<path class="st4" d="M-249.1,414.2c0,0.5-0.4,1-1,1c-0.5,0-1-0.4-1-1c0-0.5,0.4-1,1-1C-249.5,413.2-249.1,413.7-249.1,414.2z"/>
		<path class="st4" d="M-255.7,407.6c0,0.5-0.4,1-1,1c-0.5,0-1-0.4-1-1c0-0.5,0.4-1,1-1C-256.1,406.6-255.7,407-255.7,407.6
			L-255.7,407.6z"/>
		<path class="st4" d="M-255.7,420.8c0,0.5-0.4,1-1,1c-0.5,0-1-0.4-1-1c0-0.5,0.4-1,1-1C-256.1,419.9-255.7,420.3-255.7,420.8
			L-255.7,420.8z"/>
		<g>
			<path class="st3" d="M-254.9,417.6h-3.6c-0.9,0-1.6-0.7-1.6-1.6v-3.6c0-0.9,0.7-1.6,1.6-1.6h3.6c0.9,0,1.6,0.7,1.6,1.6v3.6
				C-253.3,416.9-254,417.6-254.9,417.6L-254.9,417.6z M-258.5,411.7c-0.4,0-0.7,0.3-0.7,0.7v3.6c0,0.4,0.3,0.7,0.7,0.7h3.6
				c0.4,0,0.7-0.3,0.7-0.7v-3.6c0-0.4-0.3-0.7-0.7-0.7H-258.5z"/>
			<path class="st3" d="M-259.6,416.1h-2c-0.2,0-0.4-0.2-0.4-0.4c0-0.2,0.2-0.4,0.4-0.4h0h2c0.2,0,0.4,0.2,0.4,0.4
				C-259.2,415.9-259.4,416.1-259.6,416.1L-259.6,416.1z"/>
			<path class="st3" d="M-259.6,414.6h-2.7c-0.2,0-0.4-0.2-0.5-0.4c0-0.2,0.2-0.4,0.4-0.5c0,0,0,0,0,0h2.7c0.2,0,0.4,0.2,0.4,0.4
				C-259.2,414.4-259.4,414.6-259.6,414.6L-259.6,414.6z"/>
			<path class="st3" d="M-259.6,413.2h-2c-0.2,0-0.4-0.2-0.4-0.4v-1.5c0-0.2,0.2-0.4,0.4-0.4s0.4,0.2,0.4,0.4v1.1h1.5
				c0.2,0,0.4,0.2,0.4,0.4C-259.2,413-259.4,413.2-259.6,413.2C-259.6,413.2-259.6,413.2-259.6,413.2L-259.6,413.2z"/>
			<path class="st3" d="M-251.7,417.6c-0.2,0-0.4-0.2-0.4-0.4l0,0v-1.1h-1.5c-0.2,0-0.4-0.2-0.4-0.4c0-0.2,0.2-0.4,0.4-0.4h0h2
				c0.2,0,0.4,0.2,0.4,0.4l0,0v1.5C-251.3,417.4-251.5,417.6-251.7,417.6z"/>
			<path class="st3" d="M-251,414.6h-2.7c-0.2,0-0.4-0.2-0.5-0.4c0-0.2,0.2-0.4,0.4-0.5c0,0,0,0,0,0h2.7c0.2,0,0.4,0.2,0.4,0.4
				C-250.6,414.4-250.8,414.6-251,414.6L-251,414.6z"/>
			<path class="st3" d="M-251.7,413.2h-2c-0.2,0-0.4-0.2-0.4-0.4c0-0.2,0.2-0.4,0.4-0.4h0h2c0.2,0,0.4,0.2,0.4,0.4
				C-251.3,413-251.5,413.2-251.7,413.2L-251.7,413.2z"/>
			<path class="st3" d="M-258.1,411.7c-0.2,0-0.4-0.2-0.4-0.4l0,0v-2c0-0.2,0.2-0.4,0.4-0.4c0.2,0,0.4,0.2,0.4,0.4v2
				C-257.7,411.5-257.9,411.7-258.1,411.7L-258.1,411.7z"/>
			<path class="st3" d="M-256.7,411.7c-0.2,0-0.4-0.2-0.4-0.4l0,0v-2.7c0-0.2,0.2-0.4,0.4-0.4c0.2,0,0.4,0.2,0.4,0.4v0v2.7
				C-256.2,411.5-256.4,411.7-256.7,411.7L-256.7,411.7L-256.7,411.7z"/>
			<path class="st3" d="M-255.2,411.7c-0.2,0-0.4-0.2-0.4-0.4l0,0v-2c0-0.2,0.2-0.4,0.4-0.4s0.4,0.2,0.4,0.4v2
				C-254.8,411.5-255,411.7-255.2,411.7L-255.2,411.7z"/>
			<path class="st3" d="M-258.1,419.6c-0.2,0-0.4-0.2-0.4-0.4l0,0v-2c0-0.2,0.2-0.4,0.4-0.4c0.2,0,0.4,0.2,0.4,0.4v2
				C-257.7,419.4-257.9,419.6-258.1,419.6L-258.1,419.6z"/>
			<path class="st3" d="M-256.7,420.3c-0.2,0-0.4-0.2-0.4-0.4l0,0v-2.7c0-0.2,0.2-0.4,0.4-0.4c0.2,0,0.4,0.2,0.4,0.4c0,0,0,0,0,0
				v2.7C-256.2,420.1-256.4,420.3-256.7,420.3L-256.7,420.3L-256.7,420.3z"/>
			<path class="st3" d="M-255.2,419.6c-0.2,0-0.4-0.2-0.4-0.4l0,0v-2c0-0.2,0.2-0.4,0.4-0.4s0.4,0.2,0.4,0.4v2
				C-254.8,419.4-255,419.6-255.2,419.6L-255.2,419.6z"/>
			<path class="st3" d="M-263.3,415.6c-0.8,0-1.4-0.6-1.4-1.4c0-0.8,0.6-1.4,1.4-1.4c0.8,0,1.4,0.6,1.4,1.4
				C-261.9,415-262.5,415.6-263.3,415.6z M-263.3,413.7c-0.3,0-0.5,0.2-0.5,0.5s0.2,0.5,0.5,0.5c0.3,0,0.5-0.2,0.5-0.5
				S-263,413.7-263.3,413.7L-263.3,413.7z"/>
			<path class="st3" d="M-250,415.6c-0.8,0-1.4-0.6-1.4-1.4c0-0.8,0.6-1.4,1.4-1.4c0.8,0,1.4,0.6,1.4,1.4
				C-248.6,415-249.3,415.6-250,415.6z M-250,413.7c-0.3,0-0.5,0.2-0.5,0.5s0.2,0.5,0.5,0.5c0.3,0,0.5-0.2,0.5-0.5
				S-249.7,413.7-250,413.7z"/>
			<path class="st3" d="M-256.7,409c-0.8,0-1.4-0.6-1.4-1.4c0-0.8,0.6-1.4,1.4-1.4c0.8,0,1.4,0.6,1.4,1.4
				C-255.3,408.3-255.9,409-256.7,409L-256.7,409z M-256.7,407c-0.3,0-0.5,0.2-0.5,0.5s0.2,0.5,0.5,0.5c0.3,0,0.5-0.2,0.5-0.5
				S-256.4,407-256.7,407z"/>
			<path class="st3" d="M-256.7,422.3c-0.8,0-1.4-0.6-1.4-1.4c0-0.8,0.6-1.4,1.4-1.4c0.8,0,1.4,0.6,1.4,1.4
				C-255.3,421.6-255.9,422.3-256.7,422.3z M-256.7,420.3c-0.3,0-0.5,0.2-0.5,0.5c0,0.3,0.2,0.5,0.5,0.5c0.3,0,0.5-0.2,0.5-0.5
				C-256.2,420.6-256.4,420.3-256.7,420.3z"/>
		</g>
	</g>
</g>
</svg>
