<?xml version="1.0" encoding="utf-8"?>
<!-- Generator: Adobe Illustrator 19.0.0, SVG Export Plug-In . SVG Version: 6.00 Build 0)  -->
<svg version="1.1" id="Hero" xmlns="http://www.w3.org/2000/svg" xmlns:xlink="http://www.w3.org/1999/xlink" x="0px" y="0px"
	 viewBox="31 -3310.8 41 38.8" style="enable-background:new 31 -3310.8 41 38.8;" xml:space="preserve">
<style type="text/css">
	.st0{fill:#E2EFF7;}
	.st1{fill:#FF8017;}
	.st2{fill:#6F7592;}
</style>
<g>
	<polyline class="st0" points="57.9,-3304.5 63,-3304.5 63,-3272.7 40,-3272.7 40,-3304.5 45.1,-3304.5 	"/>
	<polygon class="st1" points="51.5,-3310 46.9,-3304.3 49.3,-3304.3 49.3,-3297.6 53.7,-3297.6 53.7,-3304.3 56.1,-3304.3 	"/>
	<path class="st2" d="M40-3278.5c0.4,0,0.7-0.3,0.7-0.7v-24.7h4.4c0.4,0,0.7-0.3,0.7-0.7c0-0.4-0.3-0.7-0.7-0.7H40
		c-0.4,0-0.7,0.3-0.7,0.7v25.3C39.3-3278.8,39.6-3278.5,40-3278.5z"/>
	<path class="st2" d="M63-3305.1h-5.1c-0.4,0-0.7,0.3-0.7,0.7s0.3,0.7,0.7,0.7h4.4v30.5H40.7v-3.7c0-0.4-0.3-0.7-0.7-0.7
		c-0.4,0-0.7,0.3-0.7,0.7v4.3c0,0.4,0.3,0.7,0.7,0.7h23c0.4,0,0.7-0.3,0.7-0.7v-31.8C63.6-3304.8,63.3-3305.1,63-3305.1z"/>
	<path class="st2" d="M46.9-3303.6h1.7v6c0,0.4,0.3,0.7,0.7,0.7h4.5c0.4,0,0.7-0.3,0.7-0.7v-1.8c0-0.4-0.3-0.7-0.7-0.7
		c-0.4,0-0.7,0.3-0.7,0.7v1.1h-3.2v-6c0-0.4-0.3-0.7-0.7-0.7h-0.9l3.2-4l3.2,4h-0.9c-0.4,0-0.7,0.3-0.7,0.7v3c0,0.4,0.3,0.7,0.7,0.7
		c0.4,0,0.7-0.3,0.7-0.7v-2.3H56c0.3,0,0.5-0.1,0.6-0.4c0.1-0.2,0.1-0.5-0.1-0.7l-4.6-5.7c-0.1-0.2-0.3-0.2-0.5-0.2
		s-0.4,0.1-0.5,0.2l-4.6,5.7c-0.2,0.2-0.2,0.5-0.1,0.7C46.5-3303.8,46.7-3303.6,46.9-3303.6z"/>
	<path class="st2" d="M44.3-3295c-0.4,0-0.7,0.3-0.7,0.7s0.3,0.7,0.7,0.7h1.2c0.4,0,0.7-0.3,0.7-0.7s-0.3-0.7-0.7-0.7H44.3z"/>
	<path class="st2" d="M58.7-3295h-11c-0.4,0-0.7,0.3-0.7,0.7s0.3,0.7,0.7,0.7h11c0.4,0,0.7-0.3,0.7-0.7S59.1-3295,58.7-3295z"/>
	<path class="st2" d="M44.3-3290.2h6.6c0.4,0,0.7-0.3,0.7-0.7c0-0.4-0.3-0.7-0.7-0.7h-6.6c-0.4,0-0.7,0.3-0.7,0.7
		C43.6-3290.5,43.9-3290.2,44.3-3290.2z"/>
	<path class="st2" d="M58.7-3291.5h-5.6c-0.4,0-0.7,0.3-0.7,0.7s0.3,0.7,0.7,0.7h5.6c0.4,0,0.7-0.3,0.7-0.7S59.1-3291.5,58.7-3291.5
		z"/>
	<path class="st2" d="M58.7-3288.1H44.3c-0.4,0-0.7,0.3-0.7,0.7c0,0.4,0.3,0.7,0.7,0.7h14.5c0.4,0,0.7-0.3,0.7-0.7
		C59.4-3287.8,59.1-3288.1,58.7-3288.1z"/>
	<path class="st2" d="M44.3-3284.6c-0.4,0-0.7,0.3-0.7,0.7s0.3,0.7,0.7,0.7h3.8c0.4,0,0.7-0.3,0.7-0.7s-0.3-0.7-0.7-0.7H44.3z"/>
	<path class="st2" d="M58.7-3284.6h-8.5c-0.4,0-0.7,0.3-0.7,0.7s0.3,0.7,0.7,0.7h8.5c0.4,0,0.7-0.3,0.7-0.7S59.1-3284.6,58.7-3284.6
		z"/>
	<path class="st2" d="M58.7-3277.8h-5.5c-0.4,0-0.7,0.3-0.7,0.7c0,0.4,0.3,0.7,0.7,0.7h5.5c0.4,0,0.7-0.3,0.7-0.7
		C59.4-3277.5,59.1-3277.8,58.7-3277.8z"/>
</g>
</svg>
