<?xml version="1.0" encoding="utf-8"?>
<!-- Generator: Adobe Illustrator 19.0.0, SVG Export Plug-In . SVG Version: 6.00 Build 0)  -->
<svg version="1.1" id="Hero" xmlns="http://www.w3.org/2000/svg" xmlns:xlink="http://www.w3.org/1999/xlink" x="0px" y="0px"
	 viewBox="31 -3310.8 41 38.8" style="enable-background:new 31 -3310.8 41 38.8;" xml:space="preserve">
<style type="text/css">
	.st0{fill:#CFDCE5;}
	.st1{fill:#BAC6CC;}
	.st2{fill:#FF8017;}
	.st3{fill:#FF5310;}
	.st4{fill:#DCE8EF;}
	.st5{opacity:0.2;fill:#92DDF4;}
	.st6{fill:#6F7592;}
</style>
<g>
	<rect x="34.7" y="-3296.2" class="st0" width="33.6" height="23.5"/>
	<rect x="34.7" y="-3296.2" class="st1" width="33.6" height="2.5"/>
	<polygon class="st2" points="71.3,-3296.2 31.7,-3296.2 35.2,-3303.7 36.5,-3306.4 66.4,-3306.4 	"/>
	<polygon class="st3" points="39.8,-3306.4 38.8,-3301.8 35.2,-3303.7 36.5,-3306.4 	"/>
	<rect x="39.2" y="-3291.1" class="st4" width="11.1" height="9.6"/>
	<polygon class="st5" points="50.2,-3291.1 50.2,-3281.5 42.5,-3281.5 45.7,-3291.1 	"/>
	<rect x="55.7" y="-3291.1" class="st4" width="8.5" height="18.5"/>
	<rect x="58.1" y="-3288.8" class="st2" width="3.9" height="13.8"/>
	<rect x="38.8" y="-3310.1" class="st0" width="6.4" height="8.2"/>
	<rect x="38.1" y="-3281.5" class="st4" width="13.2" height="2.3"/>
	<path class="st6" d="M47.2-3305.7h13.7c0.4,0,0.7-0.3,0.7-0.7s-0.3-0.7-0.7-0.7H47.2c-0.4,0-0.7,0.3-0.7,0.7
		S46.8-3305.7,47.2-3305.7z"/>
	<path class="st6" d="M71.9-3296.5l-4.9-10.2c-0.1-0.2-0.4-0.4-0.6-0.4h-3.2c-0.4,0-0.7,0.3-0.7,0.7c0,0.4,0.3,0.7,0.7,0.7H66
		l4.2,8.8h-1.9H34.7h-1.9l4.2-8.8h1.1v3.9c0,0.4,0.3,0.7,0.7,0.7h6.4c0.4,0,0.7-0.3,0.7-0.7v-8.2c0-0.4-0.3-0.7-0.7-0.7h-6.4
		c-0.4,0-0.7,0.3-0.7,0.7v2.9h-1.5c-0.3,0-0.5,0.2-0.6,0.4l-4.9,10.2c-0.1,0.2-0.1,0.5,0,0.7c0.1,0.2,0.4,0.3,0.6,0.3H34v22.8
		c0,0.4,0.3,0.7,0.7,0.7h33.6c0.4,0,0.7-0.3,0.7-0.7v-22.8h2.3c0.2,0,0.5-0.1,0.6-0.3C72-3296,72-3296.3,71.9-3296.5z M39.5-3309.4
		h5v6.8h-5V-3309.4z M67.6-3273.4H65v-11.6c0-0.4-0.3-0.7-0.7-0.7c-0.4,0-0.7,0.3-0.7,0.7v11.6h-7.1v-17h7.1v3.1
		c0,0.4,0.3,0.7,0.7,0.7c0.4,0,0.7-0.3,0.7-0.7v-3.8c0-0.4-0.3-0.7-0.7-0.7h-8.5c-0.4,0-0.7,0.3-0.7,0.7v17.7H35.4v-22.1h32.2
		L67.6-3273.4L67.6-3273.4z"/>
	<path class="st6" d="M61.9-3289.5h-3.9c-0.4,0-0.7,0.3-0.7,0.7v13.8c0,0.4,0.3,0.7,0.7,0.7h3.9c0.4,0,0.7-0.3,0.7-0.7v-13.8
		C62.6-3289.2,62.3-3289.5,61.9-3289.5z M58.8-3284.7h2.5v2.1h-2.5V-3284.7z M58.8-3281.2h2.5v2.1h-2.5V-3281.2z M61.2-3288.1v2
		h-2.5v-2H61.2z M58.8-3275.7v-2h2.5v2H58.8z"/>
	<path class="st6" d="M38.1-3278.4h1.2c0.4,0,0.7-0.3,0.7-0.7s-0.3-0.7-0.7-0.7h-0.5v-0.9h0.4h11.4v0.9h-9.5c-0.4,0-0.7,0.3-0.7,0.7
		s0.3,0.7,0.7,0.7h10.2c0.4,0,0.7-0.3,0.7-0.7v-2.3c0-0.4-0.3-0.7-0.7-0.7h-0.4v-8.9c0-0.4-0.3-0.7-0.7-0.7H39.2
		c-0.4,0-0.7,0.3-0.7,0.7v8.9h-0.4c-0.4,0-0.7,0.3-0.7,0.7v2.3C37.4-3278.8,37.7-3278.4,38.1-3278.4z M45.4-3282.2v-3.4h4.1v3.4
		H45.4z M49.5-3287h-4.1v-3.4h4.1V-3287z M44-3290.4v3.4h-4.1v-3.4H44z M39.9-3285.6H44v3.4h-4.1V-3285.6z"/>
</g>
</svg>
