<?xml version="1.0" encoding="utf-8"?>
<!-- Generator: Adobe Illustrator 19.0.0, SVG Export Plug-In . SVG Version: 6.00 Build 0)  -->
<svg version="1.1" id="Hero" xmlns="http://www.w3.org/2000/svg" xmlns:xlink="http://www.w3.org/1999/xlink" x="0px" y="0px"
	 viewBox="-277 402.1 41 38.8" style="enable-background:new -277 402.1 41 38.8;" xml:space="preserve">
<style type="text/css">
	.st0{fill:#DFFFDC;}
	.st1{fill:#D3E6F8;}
	.st2{fill:#FF3131;}
	.st3{fill:#FF5555;}
	.st4{fill:#A4CFF2;}
	.st5{fill:#7BABF1;}
	.st6{fill:#4C4372;}
</style>
<g>
	<title>054 robotic arm 1</title>
	<g>
		<path class="st0" d="M-240.9,421.5c0,8.6-7,15.6-15.6,15.6c-8.6,0-15.6-7-15.6-15.6c0-8.6,7-15.6,15.6-15.6
			C-247.9,405.8-240.9,412.9-240.9,421.5z"/>
		<path class="st1" d="M-269.4,418.6c-0.5,0-1.1-0.1-1.6-0.3l2,5.2c1.1-1.2,2.6-1.9,4.3-1.9c0.1,0,0.2,0,0.4,0l-1.7-4.6
			C-266.9,418-268.1,418.6-269.4,418.6z"/>
		<path class="st1" d="M-254.9,410.3c-1.1-0.8-1.7-2-1.7-3.4c0-0.5,0.1-1,0.2-1.4l-11.4,5c1.5,0.6,2.6,2.2,2.6,3.9
			c0,0.1,0,0.3,0,0.4L-254.9,410.3z"/>
		<path class="st1" d="M-246.5,416.2c0.4,0,0.8,0.1,1.1,0.3l0.5-0.2l-3.4-7.9c-0.6,1.6-2.2,2.8-4,2.8c-0.1,0-0.2,0-0.3,0l3.1,7.3
			c0,0,0,0,0,0l0.8-0.4C-248.5,417-247.6,416.2-246.5,416.2L-246.5,416.2z"/>
		<path class="st2" d="M-265.2,414.4c0,2.4-1.9,4.3-4.3,4.3c-2.4,0-4.3-1.9-4.3-4.3c0-2.4,1.9-4.3,4.3-4.3
			C-267.1,410.1-265.2,412-265.2,414.4L-265.2,414.4z"/>
		<path class="st2" d="M-248.1,406.9c0,2.4-1.9,4.3-4.3,4.3c-2.4,0-4.3-1.9-4.3-4.3c0-2.4,1.9-4.3,4.3-4.3
			C-250,402.6-248.1,404.5-248.1,406.9z"/>
		<path class="st3" d="M-250.2,406.9c0,1.2-1,2.2-2.2,2.2c-1.2,0-2.2-1-2.2-2.2c0-1.2,1-2.2,2.2-2.2
			C-251.1,404.7-250.2,405.7-250.2,406.9z"/>
		<path class="st3" d="M-267.3,414.4c0,1.2-1,2.2-2.2,2.2c-1.2,0-2.2-1-2.2-2.2s1-2.2,2.2-2.2S-267.3,413.2-267.3,414.4
			L-267.3,414.4z"/>
		<path class="st1" d="M-258.9,433.9h-11.6v-6.5c0-3.2,2.6-5.8,5.8-5.8c3.2,0,5.8,2.6,5.8,5.8V433.9z"/>
		<path class="st4" d="M-266.1,417c-0.3,0.4-0.8,0.8-1.2,1l1.4,3.6c0.4-0.1,0.8-0.1,1.2-0.1c0.1,0,0.2,0,0.4,0L-266.1,417z"/>
		<path class="st4" d="M-258.7,406.5c0,0.2-0.1,0.4-0.1,0.7c0,1.3,1,3.1,1.9,4l2-0.9c-1.1-0.8-1.7-2-1.7-3.4c0-0.5,0.1-1,0.2-1.4
			L-258.7,406.5z"/>
		<path class="st4" d="M-248.3,408.3c-0.2,0.6-0.6,1.1-1,1.6l2.7,6.3c0,0,0.1,0,0.1,0c0.4,0,0.8,0.1,1.1,0.3l0.5-0.2L-248.3,408.3z"
			/>
		<path class="st4" d="M-247.9,422.9l1.1-2.4c-1.1-0.1-1.9-1-1.9-2.1c0-0.1,0-0.3,0-0.4l-0.8,0.4c-1.3,0.6-1.8,2.1-1.2,3.3l2.3,5
			c0.2,0.5,0.8,0.7,1.3,0.5c0.5-0.2,0.7-0.8,0.5-1.3L-247.9,422.9z"/>
		<path class="st4" d="M-239.1,422.4l-2.3-5c-0.6-1.3-2.1-1.8-3.3-1.2l-0.7,0.3c0.6,0.4,1.1,1.1,1.1,1.9c0,0.5-0.1,0.9-0.4,1.3
			l2.5,0.7l1.3,2.9c0.2,0.5,0.8,0.7,1.3,0.5C-239.1,423.5-238.9,422.9-239.1,422.4L-239.1,422.4z"/>
		<path class="st4" d="M-264.7,421.6c-0.4,0-0.7,0-1,0.1c2.7,0.5,4.8,2.9,4.8,5.7v6.5h2.1v-6.5
			C-258.9,424.2-261.5,421.6-264.7,421.6z"/>
		<path class="st5" d="M-262.6,426.8c0,1.2-1,2.2-2.2,2.2c-1.2,0-2.2-1-2.2-2.2c0-1.2,1-2.2,2.2-2.2
			C-263.5,424.7-262.6,425.6-262.6,426.8L-262.6,426.8z"/>
		<path class="st2" d="M-244.4,418.4c0,1.2-1,2.2-2.2,2.2c-1.2,0-2.2-1-2.2-2.2c0-1.2,1-2.2,2.2-2.2
			C-245.3,416.2-244.4,417.2-244.4,418.4z"/>
		<path class="st5" d="M-257.8,433.9h-14.3c-1,0-1.8,0.8-1.8,1.8v4.6h18v-4.6C-256,434.7-256.8,433.9-257.8,433.9z"/>
		<g>
			<path class="st6" d="M-256,440.8h-18c-0.2,0-0.4-0.2-0.4-0.4l0,0v-4.6c0-1.3,1-2.3,2.3-2.3h14.3c1.3,0,2.3,1,2.3,2.3v4.6
				C-255.5,440.6-255.7,440.8-256,440.8L-256,440.8z M-273.5,439.9h17.1v-4.2c0-0.8-0.6-1.4-1.4-1.4h-14.3c-0.8,0-1.4,0.6-1.4,1.4
				V439.9z"/>
			<path class="st6" d="M-258.9,434.3h-11.6c-0.2,0-0.4-0.2-0.4-0.4v-6.5c0-3.5,2.8-6.3,6.3-6.3c3.5,0,6.3,2.8,6.3,6.3v6.5
				C-258.5,434.1-258.7,434.3-258.9,434.3L-258.9,434.3z M-270.1,433.5h10.7v-6.1c0-3-2.4-5.4-5.4-5.4c-3,0-5.4,2.4-5.4,5.4
				L-270.1,433.5z"/>
			<path class="st6" d="M-269,423.9c-0.2,0-0.3-0.1-0.4-0.3l-2-5.2c-0.1-0.2,0-0.5,0.3-0.6c0.1,0,0.2,0,0.3,0
				c0.4,0.2,0.9,0.3,1.4,0.3c1.2,0,2.3-0.5,3-1.4c0.1-0.1,0.3-0.2,0.4-0.2c0.2,0,0.3,0.1,0.3,0.3l1.7,4.5c0.1,0.2,0,0.5-0.2,0.6
				c-0.1,0-0.1,0-0.2,0c-0.1,0-0.2,0-0.3,0c-1.5,0-3,0.6-4,1.8C-268.8,423.9-268.9,423.9-269,423.9L-269,423.9z M-270.3,419l1.4,3.7
				c1.1-0.9,2.4-1.5,3.9-1.6l-1.3-3.3c-0.9,0.8-2,1.2-3.2,1.2C-269.7,419.1-270,419.1-270.3,419z"/>
			<path class="st6" d="M-269.4,419.1c-2.6,0-4.7-2.1-4.7-4.7c0-2.6,2.1-4.7,4.7-4.7c2.6,0,4.7,2.1,4.7,4.7
				C-264.7,417-266.8,419.1-269.4,419.1z M-269.4,410.5c-2.1,0-3.8,1.7-3.8,3.8c0,2.1,1.7,3.8,3.8,3.8s3.8-1.7,3.8-3.8
				C-265.6,412.3-267.3,410.5-269.4,410.5z"/>
			<path class="st6" d="M-265.2,415.3c-0.1,0-0.2,0-0.3-0.1c-0.1-0.1-0.2-0.2-0.2-0.4c0-0.1,0-0.3,0-0.4c0-1.5-0.9-2.9-2.3-3.5
				c-0.2-0.1-0.3-0.4-0.2-0.6c0-0.1,0.1-0.2,0.2-0.2l11.4-5c0.2-0.1,0.3,0,0.5,0.1c0.1,0.1,0.2,0.3,0.1,0.5
				c-0.1,0.4-0.2,0.8-0.2,1.3c0,1.2,0.6,2.4,1.6,3.1c0.1,0.1,0.2,0.2,0.2,0.4c0,0.2-0.1,0.3-0.3,0.4l-10.3,4.5
				C-265.1,415.2-265.1,415.3-265.2,415.3L-265.2,415.3z M-266.8,410.5c1.2,0.8,2,2.2,2,3.6l9-4c-0.9-0.9-1.4-2.1-1.4-3.3
				c0-0.2,0-0.4,0-0.6L-266.8,410.5z"/>
			<path class="st6" d="M-252.3,411.6c-2.6,0-4.7-2.1-4.7-4.7c0-2.6,2.1-4.7,4.7-4.7c2.6,0,4.7,2.1,4.7,4.7
				C-247.6,409.5-249.7,411.6-252.3,411.6L-252.3,411.6z M-252.3,403c-2.1,0-3.8,1.7-3.8,3.8c0,2.1,1.7,3.8,3.8,3.8
				c2.1,0,3.8-1.7,3.8-3.8C-248.5,404.7-250.2,403-252.3,403z"/>
			<path class="st6" d="M-252.3,409.5c-1.4,0-2.6-1.2-2.6-2.6c0-1.4,1.2-2.6,2.6-2.6c1.4,0,2.6,1.2,2.6,2.6
				C-249.7,408.3-250.9,409.5-252.3,409.5z M-252.3,405.1c-0.9,0-1.7,0.8-1.7,1.7s0.8,1.7,1.7,1.7c0.9,0,1.7-0.8,1.7-1.7
				S-251.4,405.1-252.3,405.1L-252.3,405.1z"/>
			<path class="st6" d="M-269.4,417c-1.4,0-2.6-1.2-2.6-2.6c0-1.4,1.2-2.6,2.6-2.6c1.4,0,2.6,1.2,2.6,2.6S-268,417-269.4,417z
				 M-269.4,412.7c-0.9,0-1.7,0.8-1.7,1.7s0.8,1.7,1.7,1.7c0.9,0,1.7-0.8,1.7-1.7S-268.5,412.7-269.4,412.7z"/>
			<path class="st6" d="M-264.7,429.4c-1.4,0-2.6-1.2-2.6-2.6c0-1.4,1.2-2.6,2.6-2.6c1.4,0,2.6,1.2,2.6,2.6
				C-262.1,428.3-263.3,429.4-264.7,429.4z M-264.7,425.1c-0.9,0-1.7,0.8-1.7,1.7s0.8,1.7,1.7,1.7c0.9,0,1.7-0.8,1.7-1.7
				C-263,425.9-263.8,425.1-264.7,425.1z"/>
			<path class="st6" d="M-247.5,427.7c-0.6,0-1.1-0.3-1.3-0.8l-2.3-5c-0.7-1.5,0-3.2,1.5-3.9l0.8-0.4c0.2-0.1,0.3,0,0.5,0.1
				c0.1,0.1,0.2,0.3,0.2,0.4c0,0.1,0,0.2,0,0.3c0,0.9,0.6,1.6,1.5,1.7c0.1,0,0.3,0.1,0.3,0.2c0.1,0.1,0.1,0.3,0,0.4l-1,2.2l1.2,2.7
				c0.2,0.3,0.2,0.7,0,1.1c-0.1,0.4-0.4,0.7-0.8,0.8C-247.1,427.6-247.3,427.7-247.5,427.7L-247.5,427.7z M-249.1,418.7l-0.2,0.1
				c-1,0.5-1.5,1.7-1,2.7l2.3,5c0.1,0.2,0.3,0.3,0.5,0.3c0.1,0,0.2,0,0.2-0.1c0.1-0.1,0.2-0.2,0.3-0.3c0.1-0.1,0-0.3,0-0.4l-1.3-2.9
				c-0.1-0.1-0.1-0.3,0-0.4l0.9-1.9C-248.3,420.5-249,419.7-249.1,418.7L-249.1,418.7z"/>
			<path class="st6" d="M-240,424.2c-0.6,0-1.1-0.3-1.3-0.8l-1.2-2.7l-2.3-0.6c-0.2-0.1-0.4-0.3-0.3-0.5c0,0,0-0.1,0.1-0.1
				c0.2-0.3,0.3-0.6,0.3-1c0-0.6-0.3-1.2-0.9-1.5c-0.2,0.1-0.5,0-0.6-0.2s0-0.5,0.2-0.6c0.1-0.1,0.3-0.1,0.4,0l0.7-0.3
				c0.4-0.2,0.8-0.3,1.2-0.3c1.1,0,2.2,0.7,2.7,1.7l2.3,5c0.2,0.3,0.2,0.7,0,1.1c-0.1,0.4-0.4,0.7-0.8,0.8
				C-239.6,424.2-239.8,424.2-240,424.2L-240,424.2z M-244.1,419.3l2,0.6c0.1,0,0.2,0.1,0.3,0.2l1.3,2.9c0.1,0.2,0.3,0.3,0.5,0.3
				c0.1,0,0.2,0,0.2-0.1c0.1-0.1,0.2-0.2,0.3-0.3c0.1-0.1,0-0.3,0-0.4l-2.3-5c-0.3-0.7-1.1-1.2-1.9-1.2c-0.3,0-0.6,0.1-0.9,0.2
				l-0.1,0c0.4,0.5,0.7,1.1,0.7,1.8C-243.9,418.7-244,419-244.1,419.3L-244.1,419.3z"/>
			<path class="st6" d="M-249.5,418.8c-0.2,0-0.3-0.1-0.4-0.3l-3.1-7.3c-0.1-0.1,0-0.3,0-0.4c0.1-0.1,0.2-0.2,0.4-0.2
				c0.1,0,0.2,0,0.3,0c1.6,0,3-1,3.6-2.5c0.1-0.2,0.2-0.3,0.4-0.3c0.2,0,0.3,0.1,0.4,0.3l3.4,7.9c0.1,0.2,0,0.5-0.2,0.6l-0.5,0.2
				c-0.1,0.1-0.3,0.1-0.4,0c-0.3-0.2-0.6-0.2-0.9-0.2c-0.8,0-1.5,0.6-1.7,1.4c0,0.1-0.1,0.3-0.3,0.3l-0.8,0.4
				C-249.4,418.8-249.4,418.8-249.5,418.8L-249.5,418.8z M-252,411.5l2.7,6.2l0.2-0.1c0.3-1.1,1.3-1.9,2.5-1.9c0.3,0,0.7,0.1,1,0.2
				l-2.8-6.6C-249.2,410.6-250.5,411.4-252,411.5L-252,411.5z"/>
			<path class="st6" d="M-246.5,421c-1.4,0-2.6-1.2-2.6-2.6c0-1.4,1.2-2.6,2.6-2.6c1.4,0,2.6,1.2,2.6,2.6
				C-243.9,419.8-245.1,421-246.5,421L-246.5,421z M-246.5,416.6c-0.9,0-1.7,0.8-1.7,1.7c0,0.9,0.8,1.7,1.7,1.7
				c0.9,0,1.7-0.8,1.7-1.7C-244.8,417.4-245.6,416.6-246.5,416.6z"/>
			<path class="st6" d="M-245.8,418.4c0,0.4-0.3,0.8-0.7,0.8s-0.8-0.3-0.8-0.7c0,0,0,0,0,0c0-0.4,0.3-0.7,0.7-0.7
				C-246.1,417.6-245.8,418-245.8,418.4z"/>
			<path class="st6" d="M-254.5,416c-0.4,0-0.8,0-1.2-0.1c-2.6-0.7-3.9-3.3-4-3.4c-0.1-0.2,0-0.5,0.2-0.6l0,0c0.2-0.1,0.5,0,0.6,0.2
				c0,0,1.2,2.4,3.4,3c1.2,0.3,2.6,0,4-1c0.2-0.1,0.5-0.1,0.6,0.1l0,0c0.1,0.2,0.1,0.5-0.1,0.6l0,0
				C-252.2,415.6-253.3,416-254.5,416L-254.5,416z"/>
			<path class="st6" d="M-260.6,423.7c-0.2,0-0.4-0.2-0.4-0.4c-0.4-6.1-3.4-8.6-3.4-8.6c-0.2-0.2-0.2-0.4-0.1-0.6
				c0.2-0.2,0.4-0.2,0.6-0.1c0,0,0,0,0,0c0.1,0.1,3.3,2.8,3.7,9.2C-260.1,423.5-260.3,423.7-260.6,423.7
				C-260.6,423.7-260.6,423.7-260.6,423.7L-260.6,423.7z"/>
		</g>
	</g>
</g>
</svg>
