<?xml version="1.0" encoding="utf-8"?>
<!-- Generator: Adobe Illustrator 19.0.0, SVG Export Plug-In . SVG Version: 6.00 Build 0)  -->
<svg version="1.1" id="Hero" xmlns="http://www.w3.org/2000/svg" xmlns:xlink="http://www.w3.org/1999/xlink" x="0px" y="0px"
	 viewBox="31 -3310.8 41 38.8" style="enable-background:new 31 -3310.8 41 38.8;" xml:space="preserve">
<style type="text/css">
	.st0{fill:#FF8017;}
	.st1{fill:#F9744B;}
	.st2{fill:#CFDCE5;}
	.st3{fill:#FCD577;}
	.st4{fill:#6F7592;}
</style>
<g>
	<path class="st0" d="M67.1-3281.7v6.3c0,1.5-1.2,2.8-2.8,2.8H38.5c-2.3,0-4.2-1.9-4.2-4.2v-20.6c0-2.3,1.9-4.2,4.2-4.2h25.8
		c1.5,0,2.8,1.2,2.8,2.8v6.3"/>
	<path class="st1" d="M37.4-3276.8v-20.6c0-2.3,1.9-4.2,4.2-4.2h-3.1c-2.3,0-4.2,1.9-4.2,4.2v20.6c0,2.3,1.9,4.2,4.2,4.2h3.1
		C39.2-3272.6,37.4-3274.5,37.4-3276.8z"/>
	<polyline class="st2" points="42.2,-3301.7 50.7,-3310.1 59.1,-3301.7 	"/>
	<path class="st0" d="M57.7-3281.7h9.7c0.8,0,1.4-0.6,1.4-1.4v-8c0-0.8-0.6-1.4-1.4-1.4h-9.7c-0.8,0-1.4,0.6-1.4,1.4v8
		C56.2-3282.4,56.9-3281.7,57.7-3281.7z"/>
	<circle class="st3" cx="61.1" cy="-3287.1" r="1.9"/>
	<path class="st4" d="M43.8-3273.3h-5.4c-1.9,0-3.5-1.6-3.5-3.5v-20.6c0-1.9,1.6-3.5,3.5-3.5h25.8c1.2,0,2.1,0.9,2.1,2.1v4.3
		c0,0.4,0.3,0.7,0.7,0.7s0.7-0.3,0.7-0.7v-4.3c0-1.9-1.5-3.5-3.5-3.5H43.8l6.8-6.8l6.2,6.2c0.3,0.3,0.7,0.3,1,0c0.3-0.3,0.3-0.7,0-1
		l-6.7-6.7c-0.3-0.3-0.7-0.3-1,0l-8.2,8.2h-3.5c-2.7,0-4.9,2.2-4.9,4.9v20.6c0,2.7,2.2,4.9,4.9,4.9h5.4c0.4,0,0.7-0.3,0.7-0.7
		S44.2-3273.3,43.8-3273.3z"/>
	<path class="st4" d="M67.3-3293.2h-9.7c-1.2,0-2.1,0.9-2.1,2.1v8c0,1.2,0.9,2.1,2.1,2.1h8.7v5.6c0,1.2-0.9,2.1-2.1,2.1H46.5
		c-0.4,0-0.7,0.3-0.7,0.7s0.3,0.7,0.7,0.7h17.8c1.9,0,3.5-1.5,3.5-3.5v-5.7c1-0.2,1.7-1,1.7-2.1v-8
		C69.4-3292.3,68.5-3293.2,67.3-3293.2z M68.1-3283.2c0,0.4-0.3,0.8-0.8,0.8h-9.7c-0.4,0-0.8-0.3-0.8-0.8v-8c0-0.4,0.3-0.8,0.8-0.8
		h9.7c0.4,0,0.8,0.3,0.8,0.8V-3283.2z"/>
	<path class="st4" d="M62.9-3287.8c-0.4,0-0.7,0.3-0.7,0.7c0,0.6-0.5,1.2-1.2,1.2s-1.2-0.5-1.2-1.2s0.5-1.2,1.2-1.2
		c0.4,0,0.7-0.3,0.7-0.7s-0.3-0.7-0.7-0.7c-1.4,0-2.5,1.1-2.5,2.5c0,1.4,1.1,2.5,2.5,2.5c1.4,0,2.5-1.1,2.5-2.5
		C63.6-3287.5,63.3-3287.8,62.9-3287.8z"/>
</g>
</svg>
