<?xml version="1.0" encoding="utf-8"?>
<!-- Generator: Adobe Illustrator 19.0.0, SVG Export Plug-In . SVG Version: 6.00 Build 0)  -->
<svg version="1.1" id="OBJECTS" xmlns="http://www.w3.org/2000/svg" xmlns:xlink="http://www.w3.org/1999/xlink" x="0px" y="0px"
	 viewBox="-211 -567.3 858 858" style="enable-background:new -211 -567.3 858 858;" xml:space="preserve">
<style type="text/css">
	.st0{fill:#FFFFFF;}
	.st1{fill:none;stroke:#CCCCCC;stroke-miterlimit:10;}
	.st2{font-family:'MyriadPro-Regular';}
	.st3{font-size:24.0731px;}
	.st4{letter-spacing:1;}
	.st5{fill:#1F1F30;}
	.st6{font-family:'MyriadPro-Bold';}
	.st7{font-size:33.719px;}
	.st8{letter-spacing:2;}
	.st9{fill:#BDBDC6;}
	.st10{font-size:18.7695px;}
	.st11{fill:#EDEDEF;}
	.st12{font-size:16.2534px;}
	.st13{fill:none;stroke:#CCCCCC;stroke-width:5;stroke-miterlimit:10;}
	.st14{fill:none;stroke:#0068FF;stroke-width:5;stroke-miterlimit:10;}
	.st15{fill:#FFFFFF;stroke:#0068FF;stroke-width:5;stroke-miterlimit:10;}
	.st16{fill:#FAFAFA;}
	.st17{font-family:'MyriadPro-Semibold';}
	.st18{font-size:18.4971px;}
	.st19{fill:none;stroke:#DDDDEC;stroke-width:16;stroke-miterlimit:10;}
	.st20{fill:none;stroke:#0068FF;stroke-width:16;stroke-linecap:round;stroke-miterlimit:10;}
	.st21{fill:#8AFFE9;}
	.st22{fill:#DDDDEC;}
	.st23{fill:#72B1FC;}
</style>
<g>
	
		<image style="overflow:visible;opacity:0.12;" width="718" height="819" xlink:href="50D052A4.png"  transform="matrix(1 0 0 1 -139 -541)">
	</image>
	<g>
		<path class="st0" d="M507.5,222.4h-579c-11.2,0-20.2-9.1-20.2-20.2v-681c0-11.2,9.1-20.2,20.2-20.2h579c11.2,0,20.2,9.1,20.2,20.2
			v681C527.7,213.4,518.7,222.4,507.5,222.4z"/>
		<path class="st1" d="M507.5,222.4h-579c-11.2,0-20.2-9.1-20.2-20.2v-681c0-11.2,9.1-20.2,20.2-20.2h579c11.2,0,20.2,9.1,20.2,20.2
			v681C527.7,213.4,518.7,222.4,507.5,222.4z"/>
	</g>
</g>
<text transform="matrix(1 0 0 1 -8.3999 -397.9861)" class="st2 st3 st4">INCOME</text>
<text transform="matrix(1 0 0 1 41.3505 25.3177)" class="st5 st6 st7 st8">$160k</text>
<text transform="matrix(1 0 0 1 74.8503 51.4724)" class="st9 st2 st10 st4">July</text>
<path class="st11" d="M409.7-386.6h-105c-10.7,0-19.3-8.7-19.3-19.3v0c0-10.7,8.7-19.3,19.3-19.3h105c10.7,0,19.3,8.7,19.3,19.3v0
	C429-395.3,420.3-386.6,409.7-386.6z"/>
<text transform="matrix(1 0 0 1 305.0915 -399.0641)" class="st2 st12 st4">This Month</text>
<polygon points="412,-407.4 408.2,-400.7 404.4,-407.4 "/>
<g>
	<path class="st5" d="M392.3-280.3h-93.2c-4.4,0-8-3.6-8-8v-31c0-4.4,3.6-8,8-8h93.2c4.4,0,8,3.6,8,8v31
		C400.3-283.9,396.7-280.3,392.3-280.3z"/>
	<path class="st5" d="M352.1-280.3l-5.8,10c-0.3,0.5-1,0.5-1.3,0l-5.8-10H352.1z"/>
</g>
<path class="st13" d="M7.6-259.2C50.8-229.5,119-190,210.1-164.7c87.4,24.3,163.1,26.5,214.5,24"/>
<path class="st14" d="M-1.9-195.3c124.9-44,203.8-48.4,254-43c9.9,1.1,31.6,3.9,61,1c59.8-5.9,106.4-31.1,137-52"/>
<circle class="st15" cx="345.7" cy="-241.6" r="16.2"/>
<text transform="matrix(1 0 0 1 318.4999 -298.2775)" class="st16 st17 st18 st4">$160k</text>
<circle class="st19" cx="94.2" cy="24.2" r="96.1"/>
<path class="st20" d="M94.2-71.8c53.1,0,96.1,43,96.1,96.1s-43,96.1-96.1,96.1s-96.1-43-96.1-96.1"/>
<path class="st21" d="M414.5-45.5h-161c-2.7,0-4.8-2.2-4.8-4.8v-13.4c0-2.7,2.2-4.8,4.8-4.8h161c2.7,0,4.8,2.2,4.8,4.8v13.4
	C419.3-47.7,417.2-45.5,414.5-45.5z"/>
<path class="st22" d="M392.7,58.5H253.5c-2.7,0-4.8-2.2-4.8-4.8V40.3c0-2.7,2.2-4.8,4.8-4.8h139.2c2.7,0,4.8,2.2,4.8,4.8v13.4
	C397.5,56.4,395.3,58.5,392.7,58.5z"/>
<path class="st22" d="M382.2-12.7H253.5c-2.7,0-4.8-2.2-4.8-4.8V-31c0-2.7,2.2-4.8,4.8-4.8h128.7c2.7,0,4.8,2.2,4.8,4.8v13.4
	C387-14.9,384.8-12.7,382.2-12.7z"/>
<path class="st21" d="M350.2,25.3h-96.7c-2.7,0-4.8-2.2-4.8-4.8V7.1c0-2.7,2.2-4.8,4.8-4.8h96.7c2.7,0,4.8,2.2,4.8,4.8v13.4
	C355,23.2,352.8,25.3,350.2,25.3z"/>
<path class="st22" d="M287.7,128.2h-34.2c-2.7,0-4.8-2.2-4.8-4.8v-13.4c0-2.7,2.2-4.8,4.8-4.8h34.2c2.7,0,4.8,2.2,4.8,4.8v13.4
	C292.5,126,290.3,128.2,287.7,128.2z"/>
<path class="st23" d="M270.2,95h-16.7c-2.7,0-4.8-2.2-4.8-4.8V76.7c0-2.7,2.2-4.8,4.8-4.8h16.7c2.7,0,4.8,2.2,4.8,4.8v13.4
	C275,92.8,272.8,95,270.2,95z"/>
</svg>
