<?xml version="1.0" standalone="no"?>
<!DOCTYPE svg PUBLIC "-//W3C//DTD SVG 1.1//EN" "http://www.w3.org/Graphics/SVG/1.1/DTD/svg11.dtd" >
<svg xmlns="http://www.w3.org/2000/svg">
<metadata>Generated by IcoMoon</metadata>
<defs>
<font id="badgesfont" horiz-adv-x="1024">
<font-face units-per-em="1024" ascent="960" descent="-64" />
<missing-glyph horiz-adv-x="1024" />
<glyph unicode="&#x20;" horiz-adv-x="512" d="" />
<glyph unicode="&#xe900;" horiz-adv-x="897" d="M176.972 353.142c10.603-60.441-16.828-115.758-61.269-123.554s-89.063 34.88-99.666 95.321c-10.603 60.441 16.828 115.758 61.269 123.554s89.063-34.88 99.666-95.321z" />
<glyph unicode="&#xe901;" horiz-adv-x="897" d="M105.143 214.898c-47.777 0-91.924 46.28-102.687 107.654-11.901 67.839 20.615 130.429 72.476 139.528 4.264 0.745 8.617 1.125 12.936 1.125 47.784 0 91.931-46.273 102.694-107.647 5.63-32.109 1.649-64.086-11.218-90.034-13.571-27.376-35.331-44.955-61.258-49.495-4.257-0.745-8.61-1.131-12.943-1.131zM87.868 435.602c-2.732 0-5.478-0.235-8.169-0.711-36.876-6.471-59.333-54.731-50.067-107.579 8.479-48.356 40.946-84.825 75.511-84.825 2.732 0 5.485 0.241 8.175 0.718 17.062 2.994 31.729 15.268 41.298 34.572 10.273 20.725 13.384 46.652 8.769 73.007-8.479 48.356-40.946 84.818-75.518 84.818z" />
<glyph unicode="&#xe902;" horiz-adv-x="897" d="M880.038 314.652c-13.168-59.931-59.566-100.666-103.632-90.984s-69.115 66.115-55.947 126.047c13.168 59.931 59.566 100.666 103.632 90.984s69.115-66.115 55.947-126.047z" />
<glyph unicode="&#xe903;" horiz-adv-x="897" d="M789.505 208.413c-5.402 0-10.818 0.593-16.096 1.752-25.706 5.644-46.693 24.133-59.077 52.061-11.756 26.479-14.371 58.595-7.368 90.427 13.143 59.816 56.877 103.239 103.977 103.239 5.409 0 10.825-0.593 16.103-1.752 25.706-5.644 46.687-24.133 59.077-52.054 11.749-26.479 14.364-58.595 7.361-90.427-13.143-59.829-56.877-103.246-103.977-103.246zM810.94 428.296c-33.695 0-66.811-35.068-77.029-81.569-5.747-26.127-3.739-52.165 5.637-73.304 8.748-19.69 22.871-32.592 39.794-36.31 3.325-0.724 6.754-1.104 10.169-1.104 33.695 0 66.811 35.068 77.029 81.576 5.747 26.127 3.739 52.165-5.637 73.304-8.748 19.69-22.864 32.585-39.787 36.303-3.332 0.724-6.754 1.104-10.176 1.104z" />
<glyph unicode="&#xe904;" horiz-adv-x="897" d="M334.009-2.584c-149.788 63.928-258.153 244.81-258.153 410.651 0 205.753 166.801 372.554 372.554 372.554s372.554-166.801 372.554-372.554c0-166.753-109.565-348.704-260.622-411.686z" />
<glyph unicode="&#xe905;" horiz-adv-x="897" d="M560.342-17.424c-5.402 0-10.528 3.194-12.743 8.493-2.939 7.037 0.393 15.109 7.423 18.041 141.384 58.953 252.136 234.185 252.136 398.95 0 197.819-160.937 358.756-358.756 358.756s-358.756-160.937-358.756-358.756c0-163.379 109.71-338.19 249.77-397.964 7.010-2.994 10.266-11.101 7.272-18.11-2.987-7.010-11.080-10.273-18.11-7.279-151.94 64.866-266.521 246.866-266.521 423.36 0 213.032 173.321 386.353 386.353 386.353 213.039 0 386.353-173.321 386.353-386.353 0-177.998-115.699-360.453-269.115-424.422-1.732-0.724-3.539-1.069-5.305-1.069z" />
<glyph unicode="&#xe906;" horiz-adv-x="897" d="M565.696 7.054c0-30.006-54.957-54.331-122.75-54.331s-122.75 24.325-122.75 54.331c0 30.006 54.957 54.331 122.75 54.331s122.75-24.325 122.75-54.331z" />
<glyph unicode="&#xe907;" horiz-adv-x="897" d="M685.079 679.011c0 0 198.44-502.962-236.675-719.389 0 0 356.459 36.8 387.519 504.583l-150.843 214.805z" />
<glyph unicode="&#xe908;" horiz-adv-x="897" d="M160.371 637.465c0 0-17.745-534.471 228.162-657.517 0 0-276.532 19.842-306.178 483.941 0 0 57.187 157.818 78.016 173.576z" />
<glyph unicode="&#xe909;" horiz-adv-x="897" d="M560.453-17.369c-5.402 0-10.528 3.194-12.743 8.486-2.939 7.037 0.386 15.109 7.417 18.048 141.329 58.974 252.033 234.192 252.033 398.895 0 197.819-160.937 358.756-358.756 358.756s-358.756-160.937-358.756-358.756c0-160.578 103.356-329.869 240.415-393.783 6.906-3.222 9.893-11.425 6.671-18.338-3.222-6.899-11.418-9.907-18.338-6.671-146.131 68.157-256.338 248.19-256.338 418.799 0 213.032 173.321 386.353 386.353 386.353 213.039 0 386.353-173.321 386.353-386.353 0-177.929-115.651-360.37-268.998-424.367-1.745-0.724-3.539-1.069-5.312-1.069z" />
<glyph unicode="&#xe90a;" horiz-adv-x="897" d="M449.997 273.396c-24.885 0-46.445 13.405-57.918 24.871-5.388 5.388-5.388 14.123 0 19.511 5.368 5.374 14.074 5.381 19.469 0.048 3.808-3.739 38.228-35.503 73.669-0.048 5.388 5.388 14.123 5.388 19.511 0s5.388-14.123 0-19.511c-18.324-18.317-37.331-24.871-54.731-24.871z" />
<glyph unicode="&#xe90b;" horiz-adv-x="897" d="M63.796 318.379c-4.636 0-9.162 2.332-11.77 6.575-3.988 6.485-1.959 14.992 4.533 18.98l14.088 8.658c6.492 3.981 14.992 1.966 18.98-4.533 3.988-6.485 1.959-14.992-4.533-18.98l-14.088-8.658c-2.256-1.38-4.747-2.042-7.21-2.042z" />
<glyph unicode="&#xe90c;" horiz-adv-x="897" d="M836.771 318.379c-2.463 0-4.96 0.662-7.21 2.042l-14.088 8.658c-6.492 3.988-8.52 12.494-4.533 18.98 3.988 6.506 12.494 8.514 18.98 4.533l14.088-8.658c6.492-3.988 8.52-12.494 4.533-18.98-2.608-4.243-7.134-6.575-11.77-6.575z" />
<glyph unicode="&#xe90d;" horiz-adv-x="897" d="M311 427.040c0-17.463-14.156-31.619-31.619-31.619s-31.619 14.156-31.619 31.619c0 17.463 14.156 31.619 31.619 31.619s31.619-14.156 31.619-31.619z" />
<glyph unicode="&#xe90e;" horiz-adv-x="897" d="M635.267 427.040c0-17.466-14.159-31.626-31.626-31.626s-31.626 14.159-31.626 31.626c0 17.466 14.159 31.626 31.626 31.626s31.626-14.159 31.626-31.626z" />
<glyph unicode="&#xe90f;" horiz-adv-x="897" d="M452.971 136.476c-67.281 0-118.196 49.757-118.955 50.516-5.388 5.388-5.388 14.123 0 19.511 5.374 5.388 14.109 5.388 19.497 0.014 3.974-3.939 96.395-93.38 189.782-0.014 5.388 5.388 14.123 5.388 19.511 0s5.388-14.123 0-19.511c-37.89-37.883-75.939-50.516-109.835-50.516z" />
<glyph unicode="&#xe910;" horiz-adv-x="897" d="M480.174 56.052c-3.532 0-7.058 1.345-9.755 4.043-20.677 20.656-40.346 3.574-44.092-0.069-5.437-5.292-14.143-5.23-19.476 0.172-5.319 5.395-5.326 14.040 0.034 19.407 16.696 16.696 52.606 30.46 83.045 0 5.388-5.388 5.388-14.123 0-19.511-2.691-2.698-6.223-4.043-9.755-4.043z" />
<glyph unicode="&#xe911;" horiz-adv-x="897" d="M75.856 697.832v-248.37h62.092c0 0 0 124.185 62.092 186.277v62.092z" />
<glyph unicode="&#xe912;" horiz-adv-x="897" d="M137.949 435.664h-62.092c-7.617 0-13.798 6.182-13.798 13.798v248.37c0 7.617 6.182 13.798 13.798 13.798s13.798-6.182 13.798-13.798v-234.571h34.958c1.911 34.344 11.701 124.005 61.63 178.033v56.539c0 7.617 6.182 13.798 13.798 13.798s13.798-6.182 13.798-13.798v-62.092c0-3.657-1.456-7.168-4.043-9.755-57.387-57.387-58.049-175.335-58.049-176.522 0-7.617-6.182-13.798-13.798-13.798z" />
<glyph unicode="&#xe913;" horiz-adv-x="897" d="M820.965 697.832v-248.37h-62.092c0 0 0 124.185-62.092 186.277v62.092z" />
<glyph unicode="&#xe914;" horiz-adv-x="897" d="M820.965 435.664h-62.092c-7.617 0-13.791 6.182-13.798 13.791 0 1.187-0.8 119.279-58.049 176.529-2.587 2.587-4.043 6.099-4.043 9.755v62.092c0 7.617 6.182 13.798 13.798 13.798s13.798-6.182 13.798-13.798v-56.539c49.929-54.027 59.719-143.689 61.63-178.033h34.958v234.571c0 7.617 6.182 13.798 13.798 13.798s13.798-6.182 13.798-13.798v-248.37c0-7.617-6.182-13.798-13.798-13.798z" />
<glyph unicode="&#xe915;" horiz-adv-x="897" d="M344.923 497.757h-124.185c-7.617 0-13.798 6.182-13.798 13.798s6.182 13.798 13.798 13.798h124.185c7.617 0 13.798-6.182 13.798-13.798s-6.182-13.798-13.798-13.798z" />
<glyph unicode="&#xe916;" horiz-adv-x="897" d="M669.183 497.757h-124.185c-7.617 0-13.798 6.182-13.798 13.798s6.182 13.798 13.798 13.798h124.185c7.617 0 13.798-6.182 13.798-13.798s-6.182-13.798-13.798-13.798z" />
<glyph unicode="&#xe917;" horiz-adv-x="897" d="M469.108 490.858c-3.815 0-6.899 3.091-6.899 6.899v63.093c0 3.808 3.084 6.899 6.899 6.899s6.899-3.091 6.899-6.899v-63.093c0-3.808-3.091-6.899-6.899-6.899z" />
<glyph unicode="&#xe918;" horiz-adv-x="897" d="M438.062 497.867c-3.815 0-6.899 3.091-6.899 6.899v24.54c0 3.808 3.084 6.899 6.899 6.899s6.899-3.091 6.899-6.899v-24.54c0-3.808-3.091-6.899-6.899-6.899z" />
<glyph unicode="&#xe919;" horiz-adv-x="897" d="M386.318 263.185h-27.597c0 0-62.092 0-62.092-62.092h303.563c0 0 0 62.092-62.092 62.092h-151.781z" />
<glyph unicode="&#xe91a;" horiz-adv-x="897" d="M613.99 187.295h-331.159v13.798c0 60.030 49.639 75.891 75.891 75.891h179.378c60.030 0 75.891-49.639 75.891-75.891v-13.798zM311.897 214.891h272.517c-3.774 14.405-14.702 34.496-46.314 34.496h-179.378c-4.346-0.048-39.194-1.456-46.825-34.496z" />
<glyph unicode="&#xe91b;" horiz-adv-x="897" d="M447.879-64c-95.401 0-173.010 77.609-173.010 173.003 0 7.617 6.182 13.798 13.798 13.798s13.798-6.182 13.798-13.798c0-80.175 65.231-145.407 145.413-145.407 80.175 0 145.407 65.231 145.407 145.407 0 7.617 6.182 13.798 13.798 13.798s13.798-6.182 13.798-13.798c0.007-95.395-77.602-173.003-173.003-173.003z" />
<glyph unicode="&#xe91c;" horiz-adv-x="897" d="M738.175 946.202l27.597-246.072c0 0 40.733-70.772 40.733-251.033s7.561 497.105 7.561 497.105h-75.891z" />
<glyph unicode="&#xe91d;" horiz-adv-x="897" d="M810.616 649.78h-60.368c-7.617 0-13.798 6.182-13.798 13.798s6.182 13.798 13.798 13.798h60.368c7.617 0 13.798-6.182 13.798-13.798s-6.182-13.798-13.798-13.798z" />
<glyph unicode="&#xe91e;" horiz-adv-x="897" d="M820.965 589.17h-44.844c-7.617 0-13.798 6.182-13.798 13.798s6.182 13.798 13.798 13.798h44.844c7.617 0 13.798-6.182 13.798-13.798s-6.182-13.798-13.798-13.798z" />
<glyph unicode="&#xe91f;" horiz-adv-x="897" d="M151.747 946.202l-27.597-246.072c0 0-40.733-70.772-40.733-251.033s-7.561 497.105-7.561 497.105h75.891z" />
<glyph unicode="&#xe920;" horiz-adv-x="897" d="M820.965 529.438h-26.734c-7.617 0-13.798 6.182-13.798 13.798s6.182 13.798 13.798 13.798h26.734c7.617 0 13.798-6.182 13.798-13.798s-6.182-13.798-13.798-13.798z" />
<glyph unicode="&#xe921;" horiz-adv-x="897" d="M151.747 649.78h-60.368c-7.617 0-13.798 6.182-13.798 13.798s6.182 13.798 13.798 13.798h60.368c7.617 0 13.798-6.182 13.798-13.798s-6.182-13.798-13.798-13.798z" />
<glyph unicode="&#xe922;" horiz-adv-x="897" d="M125.875 589.17h-44.844c-7.617 0-13.798 6.182-13.798 13.798s6.182 13.798 13.798 13.798h44.844c7.617 0 13.798-6.182 13.798-13.798s-6.182-13.798-13.798-13.798z" />
<glyph unicode="&#xe923;" horiz-adv-x="897" d="M107.765 529.438h-26.734c-7.617 0-13.798 6.182-13.798 13.798s6.182 13.798 13.798 13.798h26.734c7.617 0 13.798-6.182 13.798-13.798s-6.182-13.798-13.798-13.798z" />
<glyph unicode="&#xe924;" horiz-adv-x="897" d="M482.906 842.714h-241.56c-7.617 0-13.798 6.182-13.798 13.798s6.182 13.798 13.798 13.798h241.56c7.617 0 13.798-6.182 13.798-13.798s-6.182-13.798-13.798-13.798z" />
<glyph unicode="&#xe925;" horiz-adv-x="897" d="M820.965 435.664h-62.092c-7.617 0-13.791 6.182-13.798 13.791 0 1.187-0.8 119.279-58.049 176.529-2.587 2.587-4.043 6.099-4.043 9.755v48.294h-469.142v-48.294c0-3.657-1.456-7.168-4.043-9.755-57.249-57.249-58.049-175.342-58.049-176.529-0.007-7.617-6.182-13.791-13.798-13.791h-62.092c-7.617 0-13.798 6.182-13.798 13.798v496.739c0 7.617 6.182 13.798 13.798 13.798h745.109c7.617 0 13.798-6.182 13.798-13.798v-496.739c0-7.617-6.182-13.798-13.798-13.798zM772.202 463.261h34.958v469.142h-717.512v-469.142h34.958c1.911 34.344 11.701 124.005 61.63 178.033v56.539c0 7.617 6.182 13.798 13.798 13.798h496.739c7.617 0 13.798-6.182 13.798-13.798v-56.539c49.936-54.027 59.726-143.689 61.63-178.033z" />
<glyph unicode="&#xe926;" horiz-adv-x="1074" d="M907.405 643.642c82.753 0 149.854 67.093 149.854 149.854s-67.101 149.854-149.854 149.854c-82.761 0-149.854-67.093-149.854-149.854z" />
<glyph unicode="&#xe927;" horiz-adv-x="1074" d="M1016.391 904.488c0 0 126.651-289.983-108.994-235.87 0.008 0 143.027 29.138 108.994 235.87z" />
<glyph unicode="&#xe928;" horiz-adv-x="1074" d="M760.915 801.405c0 0 42.175 220.343 232.273 103.083 0 0-190.789 15.277-232.273-103.083z" />
<glyph unicode="&#xe929;" horiz-adv-x="1074" d="M907.405 626.992c-9.191 0-16.65 7.459-16.65 16.65s7.459 16.65 16.65 16.65c73.445 0 133.203 59.758 133.203 133.203s-59.758 133.203-133.203 133.203-133.203-59.758-133.203-133.203c0-9.191-7.459-16.65-16.65-16.65s-16.65 7.459-16.65 16.65c0 91.81 74.694 166.504 166.504 166.504s166.504-74.694 166.504-166.504-74.694-166.504-166.504-166.504z" />
<glyph unicode="&#xe92a;" horiz-adv-x="1074" d="M166.504 643.642c-82.761 0-149.854 67.093-149.854 149.854s67.093 149.854 149.854 149.854 149.854-67.093 149.854-149.854z" />
<glyph unicode="&#xe92b;" horiz-adv-x="1074" d="M57.502 904.488c0 0-126.643-289.983 109.002-235.87 0 0-143.027 29.138-109.002 235.87z" />
<glyph unicode="&#xe92c;" horiz-adv-x="1074" d="M312.986 801.405c0 0-42.175 220.343-232.273 103.083 0 0 190.789 15.277 232.273-103.083z" />
<glyph unicode="&#xe92d;" horiz-adv-x="1074" d="M988.16 402.211c0-248.286-201.275-449.561-449.561-449.561s-449.561 201.275-449.561 449.561c0 248.286 201.275 449.561 449.561 449.561s449.561-201.275 449.561-449.561z" />
<glyph unicode="&#xe92e;" horiz-adv-x="1074" d="M913.233 776.846l-56.745-56.745c81.354-81.354 131.671-193.744 131.671-317.89 0-248.283-201.278-449.561-449.561-449.561s-449.561 201.278-449.561 449.561c0 124.145 50.318 236.536 131.671 317.89l-56.745 56.745z" />
<glyph unicode="&#xe92f;" horiz-adv-x="1074" d="M234.729 711.634c0 0-113.781-183.471-44.398-400.459 0 0 83.252-259.996 348.268-358.517 0 0-379.013-18.54-449.561 430.13 0-0.008-0.599 217.105 145.691 328.846z" />
<glyph unicode="&#xe930;" horiz-adv-x="1074" d="M842.469 711.634c0 0 113.781-183.471 44.407-400.459 0 0-83.26-259.996-348.277-358.517 0 0 379.013-18.54 449.561 430.13 0-0.008 0.599 217.105-145.691 328.846z" />
<glyph unicode="&#xe931;" horiz-adv-x="1074" d="M538.599-64c-257.066 0-466.211 209.137-466.211 466.211 0 118.967 44.257 231.124 124.986 317.681l-45.181 45.181c-6.502 6.502-6.502 17.042 0 23.544 6.494 6.502 17.050 6.502 23.544 0l56.745-56.745c3.122-3.122 4.879-7.359 4.879-11.772s-1.757-8.65-4.879-11.772c-81.762-81.77-126.793-190.481-126.793-306.118 0-238.709 194.202-432.911 432.911-432.911s432.911 194.202 432.911 432.911c0 115.637-45.031 224.348-126.793 306.118-3.122 3.122-4.879 7.359-4.879 11.772s1.757 8.65 4.879 11.772l56.745 56.745c6.502 6.502 17.042 6.502 23.544 0s6.502-17.042 0-23.544l-45.181-45.181c80.729-86.557 124.986-198.714 124.986-317.681 0-257.074-209.137-466.211-466.211-466.211z" />
<glyph unicode="&#xe932;" horiz-adv-x="1074" d="M316.358 793.080c65.544 37.355 141.395 58.693 222.241 58.693 79.497 0 154.166-20.638 218.953-56.836z" />
<glyph unicode="&#xe933;" horiz-adv-x="1074" d="M736.822 753.51c0-54.931-86.135-99.461-192.387-99.461s-192.387 44.53-192.387 99.461c0 54.931 86.135 99.461 192.387 99.461s192.387-44.53 192.387-99.461z" />
<glyph unicode="&#xe934;" horiz-adv-x="1074" d="M390.294 561.697c0-21.118-17.12-38.238-38.238-38.238s-38.238 17.12-38.238 38.238c0 21.118 17.12 38.238 38.238 38.238s38.238-17.12 38.238-38.238z" />
<glyph unicode="&#xe935;" horiz-adv-x="1074" d="M763.379 561.697c0-21.118-17.12-38.238-38.238-38.238s-38.238 17.12-38.238 38.238c0 21.118 17.12 38.238 38.238 38.238s38.238-17.12 38.238-38.238z" />
<glyph unicode="&#xe936;" horiz-adv-x="1074" d="M823.737 197.744c0-147.689-127.659-224.056-285.138-224.056s-285.138 76.367-285.138 224.056c0 147.706 127.659 267.439 285.138 267.439s285.138-119.725 285.138-267.439z" />
<glyph unicode="&#xe937;" horiz-adv-x="1074" d="M539.998 27.053c-138.748 0-254.768 87.623-284.131 204.933-1.532-11.222-2.406-22.628-2.406-34.233 0-147.689 127.659-224.056 285.138-224.056s285.138 76.367 285.138 224.056c0 9.133-0.5 18.157-1.449 27.057-32.219-113.706-146.382-197.757-282.291-197.757z" />
<glyph unicode="&#xe938;" horiz-adv-x="1074" d="M207.672 431.35c-4.596 0-8.325 3.73-8.325 8.325v74.927c0 4.596 3.73 8.325 8.325 8.325s8.325-3.73 8.325-8.325v-74.927c0-4.596-3.73-8.325-8.325-8.325z" />
<glyph unicode="&#xe939;" horiz-adv-x="1074" d="M838.306 365.281c-4.604 0-8.325 3.721-8.325 8.325v91.577c0 4.596 3.721 8.325 8.325 8.325s8.325-3.73 8.325-8.325v-91.577c0-4.596-3.721-8.325-8.325-8.325z" />
<glyph unicode="&#xe93a;" horiz-adv-x="1074" d="M517.786 543.74c-4.596 0-8.325 3.73-8.325 8.325v91.577c0 4.596 3.73 8.325 8.325 8.325 4.604 0 8.325-3.73 8.325-8.325v-91.577c0-4.596-3.721-8.325-8.325-8.325z" />
<glyph unicode="&#xe93b;" horiz-adv-x="1074" d="M573.29 532.559c-4.604 0-8.325 3.73-8.325 8.325v41.626c0 4.596 3.721 8.325 8.325 8.325s8.325-3.73 8.325-8.325v-41.626c0-4.596-3.721-8.325-8.325-8.325z" />
<glyph unicode="&#xe93c;" horiz-adv-x="1074" d="M888.258 252.891c-4.604 0-8.325 3.721-8.325 8.325v49.951c0 4.604 3.721 8.325 8.325 8.325s8.325-3.721 8.325-8.325v-49.951c0-4.596-3.721-8.325-8.325-8.325z" />
<glyph unicode="&#xe93d;" horiz-adv-x="1074" d="M238.892 250.301c-4.596 0-8.325 3.721-8.325 8.325v74.927c0 4.604 3.73 8.325 8.325 8.325s8.325-3.721 8.325-8.325v-74.927c0-4.604-3.73-8.325-8.325-8.325z" />
<glyph unicode="&#xe93e;" horiz-adv-x="1074" d="M632.949 317.752c0-35.907-29.113-65.020-65.028-65.020h-58.659c-35.907 0-65.020 29.113-65.020 65.020v0c0 35.907-4.188 65.028 31.719 65.028h125.261c35.915 0 31.727-29.113 31.727-65.028v0z" />
<glyph unicode="&#xe93f;" horiz-adv-x="1074" d="M453.266 207.61h170.667c0 0 0-85.333-85.333-85.333 0 0-85.333 0-85.333 85.333z" />
<glyph unicode="&#xe940;" horiz-adv-x="1074" d="M538.599 105.626c-35.274 0-101.984 21.321-101.984 101.984 0 9.191 7.459 16.65 16.65 16.65h170.667c9.191 0 16.65-7.459 16.65-16.65 0-35.274-21.321-101.984-101.984-101.984zM471.406 190.959c9.79-51.383 64.645-52.033 67.193-52.033 47.079 0 61.898 31.677 66.552 52.033h-133.744z" />
<glyph unicode="&#xe941;" horiz-adv-x="1074" d="M536.959 201.016c-9.191 0-16.65 7.459-16.65 16.65v35.074c0 9.191 7.459 16.65 16.65 16.65s16.65-7.459 16.65-16.65v-35.074c0-9.191-7.459-16.65-16.65-16.65z" />
<glyph unicode="&#xe942;" horiz-adv-x="1074" d="M685.864 280.38c0-5.462-4.428-9.89-9.89-9.89s-9.89 4.428-9.89 9.89c0 5.462 4.428 9.89 9.89 9.89s9.89-4.428 9.89-9.89z" />
<glyph unicode="&#xe943;" horiz-adv-x="1074" d="M721.753 199.676c0-5.462-4.428-9.89-9.89-9.89s-9.89 4.428-9.89 9.89c0 5.462 4.428 9.89 9.89 9.89s9.89-4.428 9.89-9.89z" />
<glyph unicode="&#xe944;" horiz-adv-x="1074" d="M764.395 158.183c0-5.462-4.428-9.89-9.89-9.89s-9.89 4.428-9.89 9.89c0 5.462 4.428 9.89 9.89 9.89s9.89-4.428 9.89-9.89z" />
<glyph unicode="&#xe945;" horiz-adv-x="1074" d="M746.721 248.328c0-5.462-4.428-9.89-9.89-9.89s-9.89 4.428-9.89 9.89c0 5.462 4.428 9.89 9.89 9.89s9.89-4.428 9.89-9.89z" />
<glyph unicode="&#xe946;" horiz-adv-x="1074" d="M392.758 168.073c0-5.462-4.428-9.89-9.89-9.89s-9.89 4.428-9.89 9.89c0 5.462 4.428 9.89 9.89 9.89s9.89-4.428 9.89-9.89z" />
<glyph unicode="&#xe947;" horiz-adv-x="1074" d="M334.573 218.666c0-5.462-4.428-9.89-9.89-9.89s-9.89 4.428-9.89 9.89c0 5.462 4.428 9.89 9.89 9.89s9.89-4.428 9.89-9.89z" />
<glyph unicode="&#xe948;" horiz-adv-x="1074" d="M426.733 238.438c0-5.462-4.428-9.89-9.89-9.89s-9.89 4.428-9.89 9.89c0 5.462 4.428 9.89 9.89 9.89s9.89-4.428 9.89-9.89z" />
<glyph unicode="&#xe949;" horiz-adv-x="1074" d="M375.217 286.2c0-5.462-4.428-9.89-9.89-9.89s-9.89 4.428-9.89 9.89c0 5.462 4.428 9.89 9.89 9.89s9.89-4.428 9.89-9.89z" />
<glyph unicode="&#xe94a;" horiz-adv-x="1074" d="M483.445 302.842c-4.596 0-8.325 3.721-8.325 8.325v11.081c-0.683 3.605-1.84 13.92 4.887 22.586 5.703 7.343 15.094 11.064 27.889 11.064h15.435c4.604 0 8.325-3.721 8.325-8.325s-3.721-8.325-8.325-8.325h-15.435c-5.045 0-11.689-0.791-14.686-4.562-2.989-3.755-1.698-9.541-1.682-9.591 0.142-0.616 0.233-1.34 0.233-1.973v-11.955c0.008-4.596-3.721-8.325-8.317-8.325z" />
<glyph unicode="&#xe94b;" horiz-adv-x="1074" d="M156.272 627.342c-0.375 0-0.758 0.008-1.141 0.033-86.99 5.878-155.132 78.856-155.132 166.121 0 91.81 74.694 166.504 166.504 166.504s166.504-74.694 166.504-166.504c0-9.191-7.459-16.65-16.65-16.65s-16.65 7.459-16.65 16.65c0 73.445-59.758 133.203-133.203 133.203s-133.203-59.758-133.203-133.203c0-69.815 54.497-128.191 124.070-132.895 9.174-0.624 16.109-8.558 15.493-17.733-0.599-8.791-7.917-15.527-16.592-15.527z" />
<glyph unicode="&#xe94c;" horiz-adv-x="1074" d="M316.374 776.421c-5.786 0-11.414 3.022-14.486 8.408-4.554 7.984-1.765 18.157 6.227 22.711 69.882 39.828 149.579 60.882 230.483 60.882 79.539 0 158.054-20.388 227.070-58.951 8.025-4.487 10.906-14.627 6.419-22.661-4.487-8.017-14.636-10.898-22.661-6.419-64.062 35.807-136.966 54.73-210.827 54.73-75.127 0-149.129-19.539-213.999-56.511-2.597-1.482-5.436-2.19-8.225-2.19z" />
<glyph unicode="&#xe94d;" horiz-adv-x="927" d="M276.757 12.108l62.27-62.27h249.081l62.27 62.27-62.27 62.27h-249.081z" />
<glyph unicode="&#xe94e;" horiz-adv-x="927" d="M588.108-64h-249.081c-3.667 0-7.189 1.46-9.783 4.054l-62.27 62.27c-5.404 5.404-5.404 14.163 0 19.567l62.27 62.27c2.595 2.595 6.116 4.054 9.783 4.054h249.081c3.667 0 7.189-1.46 9.783-4.054l62.27-62.27c5.404-5.404 5.404-14.163 0-19.567l-62.27-62.27c-2.595-2.595-6.116-4.054-9.783-4.054zM344.763-36.324h237.616l48.432 48.432-48.432 48.432h-237.616l-48.432-48.432 48.432-48.432z" />
<glyph unicode="&#xe94f;" horiz-adv-x="927" d="M837.189 471.061h76.108v-186.811h-76.108z" />
<glyph unicode="&#xe950;" horiz-adv-x="927" d="M913.297 270.412h-76.108c-7.638 0-13.838 6.199-13.838 13.838s6.199 13.838 13.838 13.838h62.27v159.135h-62.27c-7.638 0-13.838 6.199-13.838 13.838s6.199 13.838 13.838 13.838h76.108c7.638 0 13.838-6.199 13.838-13.838v-186.811c0-7.638-6.199-13.838-13.838-13.838z" />
<glyph unicode="&#xe951;" horiz-adv-x="927" d="M89.946 471.061h-76.108v-186.811h76.108z" />
<glyph unicode="&#xe952;" horiz-adv-x="927" d="M89.946 270.412h-76.108c-7.638 0-13.838 6.199-13.838 13.838v186.811c0 7.638 6.199 13.838 13.838 13.838h76.108c7.638 0 13.838-6.199 13.838-13.838s-6.199-13.838-13.838-13.838h-62.27v-159.135h62.27c7.638 0 13.838-6.199 13.838-13.838s-6.199-13.838-13.838-13.838z" />
<glyph unicode="&#xe953;" horiz-adv-x="927" d="M837.189 284.25l-62.27-209.872c0 0 0-62.27-124.541-62.27l-62.27 62.27h-249.081l-62.27-62.27c-124.541 0-124.541 62.27-124.541 62.27l-62.27 209.872z" />
<glyph unicode="&#xe954;" horiz-adv-x="927" d="M89.946 284.25l62.27-209.872c0 0 0-62.27 124.541-62.27l17.124 17.124-79.395 255.018h-124.541z" />
<glyph unicode="&#xe955;" horiz-adv-x="927" d="M833.557 284.25l-62.27-209.872c0 0 0-62.27-124.541-62.27l-17.124 17.124 79.395 255.018h124.541z" />
<glyph unicode="&#xe956;" horiz-adv-x="927" d="M650.378-1.73c-3.667 0-7.189 1.46-9.783 4.054l-58.216 58.216h-237.616l-58.223-58.216c-2.595-2.595-6.116-4.054-9.783-4.054-124.34 0-136.967 60.305-138.233 73.631l-61.841 208.412c-2.173 7.334 2.006 15.035 9.334 17.2 7.32 2.179 15.028-1.993 17.2-9.327l62.27-209.872c0.374-1.28 0.567-2.608 0.567-3.937 0.083-1.674 3.238-46.772 105.015-48.384l58.174 58.167c2.595 2.595 6.116 4.054 9.783 4.054h249.081c3.667 0 7.189-1.46 9.783-4.054l58.174-58.167c101.77 1.612 104.932 46.717 105.022 48.668 0.048 1.128 0.242 2.567 0.567 3.653l62.27 209.872c2.166 7.334 9.859 11.506 17.2 9.327 7.327-2.166 11.499-9.873 9.327-17.2l-61.841-208.412c-1.266-13.326-13.893-73.631-138.233-73.631z" />
<glyph unicode="&#xe957;" horiz-adv-x="927" d="M89.946 533.331v-249.081h747.243v249.081z" />
<glyph unicode="&#xe958;" horiz-adv-x="927" d="M837.189 270.412h-747.243c-7.638 0-13.838 6.199-13.838 13.838v249.081c0 7.638 6.199 13.838 13.838 13.838s13.838-6.199 13.838-13.838v-235.243h719.568v235.243c0 7.638 6.199 13.838 13.838 13.838s13.838-6.199 13.838-13.838v-249.081c0-7.638-6.199-13.838-13.838-13.838z" />
<glyph unicode="&#xe959;" horiz-adv-x="927" d="M214.486 821.622h498.162l124.541-288.291h-747.243z" />
<glyph unicode="&#xe95a;" horiz-adv-x="927" d="M837.328 519.493c-0.028 0-0.083 0-0.138 0h-747.243c-4.656 0-9.002 2.346-11.562 6.234-2.56 3.895-2.989 8.815-1.142 13.091l124.541 288.291c2.186 5.072 7.182 8.351 12.703 8.351h498.162c5.521 0 10.517-3.28 12.703-8.351l123.821-286.609c1.266-2.090 1.993-4.546 1.993-7.168 0-7.638-6.192-13.838-13.838-13.838zM110.993 547.169h705.142l-112.578 260.615h-479.979l-112.585-260.615z" />
<glyph unicode="&#xe95b;" horiz-adv-x="927" d="M424.358 408.79c0-81.518-66.083-147.601-147.601-147.601s-147.601 66.083-147.601 147.601c0 81.518 66.083 147.601 147.601 147.601s147.601-66.083 147.601-147.601z" />
<glyph unicode="&#xe95c;" horiz-adv-x="927" d="M276.757 247.351c-89.019 0-161.439 72.42-161.439 161.439s72.42 161.439 161.439 161.439 161.439-72.42 161.439-161.439c0-89.019-72.42-161.439-161.439-161.439zM276.757 542.554c-73.756 0-133.763-60.008-133.763-133.763s60.008-133.763 133.763-133.763 133.763 60.008 133.763 133.763-60.008 133.763-133.763 133.763z" />
<glyph unicode="&#xe95d;" horiz-adv-x="927" d="M774.919 408.79c0-81.518-66.083-147.601-147.601-147.601s-147.601 66.083-147.601 147.601c0 81.518 66.083 147.601 147.601 147.601s147.601-66.083 147.601-147.601z" />
<glyph unicode="&#xe95e;" horiz-adv-x="927" d="M627.318 247.351c-89.019 0-161.439 72.42-161.439 161.439s72.42 161.439 161.439 161.439 161.439-72.42 161.439-161.439c0-89.019-72.42-161.439-161.439-161.439zM627.318 542.554c-73.756 0-133.763-60.008-133.763-133.763s60.008-133.763 133.763-133.763 133.763 60.008 133.763 133.763-60.008 133.763-133.763 133.763z" />
<glyph unicode="&#xe95f;" horiz-adv-x="927" d="M276.757 759.351c0 103.175 83.636 186.811 186.811 186.811s186.811-83.636 186.811-186.811c0-68.781-83.636-124.541-186.811-124.541s-186.811 55.76-186.811 124.541z" />
<glyph unicode="&#xe960;" horiz-adv-x="927" d="M463.568 620.973c-110.64 0-200.649 62.077-200.649 138.378 0 110.64 90.008 200.649 200.649 200.649 110.634 0 200.649-90.008 200.649-200.649 0-76.302-90.015-138.378-200.649-138.378zM463.568 932.324c-95.377 0-172.973-77.596-172.973-172.973 0-61.039 77.596-110.703 172.973-110.703s172.973 49.664 172.973 110.703c0 95.377-77.596 172.973-172.973 172.973z" />
<glyph unicode="&#xe961;" horiz-adv-x="927" d="M546.595 852.757c0-34.391-41.819-62.27-93.405-62.27s-93.405 27.879-93.405 62.27c0 34.391 41.819 62.27 93.405 62.27s93.405-27.879 93.405-62.27z" />
<glyph unicode="&#xe962;" horiz-adv-x="927" d="M13.838 457.223c-7.638 0-13.838 6.199-13.838 13.838v101.48c0 7.638 6.199 13.838 13.838 13.838s13.838-6.199 13.838-13.838v-101.48c0-7.638-6.199-13.838-13.838-13.838z" />
<glyph unicode="&#xe963;" horiz-adv-x="927" d="M913.297 457.223c-7.638 0-13.838 6.199-13.838 13.838v101.48c0 7.638 6.199 13.838 13.838 13.838s13.838-6.199 13.838-13.838v-101.48c0-7.638-6.199-13.838-13.838-13.838z" />
<glyph unicode="&#xe964;" horiz-adv-x="927" d="M401.297-64c-7.638 0-13.838 6.199-13.838 13.838v124.541c0 7.638 6.199 13.838 13.838 13.838s13.838-6.199 13.838-13.838v-124.541c0-7.638-6.199-13.838-13.838-13.838z" />
<glyph unicode="&#xe965;" horiz-adv-x="927" d="M525.838-64c-7.638 0-13.838 6.199-13.838 13.838v124.541c0 7.638 6.199 13.838 13.838 13.838s13.838-6.199 13.838-13.838v-124.541c0-7.638-6.199-13.838-13.838-13.838z" />
<glyph unicode="&#xe966;" horiz-adv-x="927" d="M247.926 437.622h57.655v-57.655h-57.655v57.655z" />
<glyph unicode="&#xe967;" horiz-adv-x="927" d="M598.493 437.622h57.655v-57.655h-57.655v57.655z" />
<glyph unicode="&#xe968;" horiz-adv-x="986" d="M151.618 701.673c0 56.523 45.819 102.342 102.342 102.342s102.342-45.819 102.342-102.342z" />
<glyph unicode="&#xe969;" horiz-adv-x="986" d="M356.303 686.511c-8.369 0-15.162 6.793-15.162 15.162 0 48.071-39.11 87.181-87.181 87.181s-87.181-39.11-87.181-87.181c0-8.369-6.793-15.162-15.162-15.162s-15.162 6.793-15.162 15.162c0 64.794 52.71 117.504 117.504 117.504s117.504-52.71 117.504-117.504c0-8.377-6.793-15.162-15.162-15.162z" />
<glyph unicode="&#xe96a;" horiz-adv-x="986" d="M356.303 713.044c0 75.362 61.095 136.457 136.457 136.457s136.457-61.095 136.457-136.457z" />
<glyph unicode="&#xe96b;" horiz-adv-x="986" d="M629.216 697.882c-8.369 0-15.162 6.793-15.162 15.162 0 66.879-54.416 121.295-121.295 121.295s-121.295-54.416-121.295-121.295c0-8.369-6.793-15.162-15.162-15.162s-15.162 6.793-15.162 15.162c0 83.602 68.016 151.618 151.618 151.618s151.618-68.016 151.618-151.618c0-8.377-6.793-15.162-15.162-15.162z" />
<glyph unicode="&#xe96c;" horiz-adv-x="986" d="M629.216 701.673c0 37.685 30.544 68.228 68.228 68.228s68.228-30.544 68.228-68.228z" />
<glyph unicode="&#xe96d;" horiz-adv-x="986" d="M765.673 686.511c-8.369 0-15.162 6.793-15.162 15.162 0 29.262-23.812 53.066-53.066 53.066s-53.066-23.804-53.066-53.066c0-8.369-6.793-15.162-15.162-15.162s-15.162 6.793-15.162 15.162c0 45.978 37.412 83.39 83.39 83.39s83.39-37.412 83.39-83.39c0-8.377-6.793-15.162-15.162-15.162z" />
<glyph unicode="&#xe96e;" horiz-adv-x="986" d="M288.075 701.673h477.598c0 0 0-477.598 0-614.054s-136.457-136.457-136.457-136.457-204.685 0-341.141 0-136.457 136.457-136.457 136.457v614.054h68.228z" />
<glyph unicode="&#xe96f;" horiz-adv-x="986" d="M288.075 633.444h477.598c0 0 0-409.37 0-545.826s-136.457-136.457-136.457-136.457-204.685 0-341.141 0-136.457 136.457-136.457 136.457v545.826h68.228z" />
<glyph unicode="&#xe970;" horiz-adv-x="986" d="M151.618 701.673h614.054v-68.228h-614.054v68.228z" />
<glyph unicode="&#xe971;" horiz-adv-x="986" d="M548.35 701.673v-750.511c48.055 0 80.866 0 80.866 0s136.457 0 136.457 136.457 0 614.054 0 614.054h-217.322z" />
<glyph unicode="&#xe972;" horiz-adv-x="986" d="M170.192 9.277c17.52-29.459 51.558-58.115 117.883-58.115 136.457 0 341.141 0 341.141 0s88.864-9.832 123.152 58.115h-582.177z" />
<glyph unicode="&#xe973;" horiz-adv-x="986" d="M220.794 701.673h98.347v-750.511h-98.347v750.511z" />
<glyph unicode="&#xe974;" horiz-adv-x="986" d="M220.794 9.277h98.347v-53.066h-98.347v53.066z" />
<glyph unicode="&#xe975;" horiz-adv-x="986" d="M629.216-64h-341.141c-149.882 0-151.618 150.102-151.618 151.618v629.216h83.39c8.369 0 15.162-6.793 15.162-15.162s-6.793-15.162-15.162-15.162h-53.066v-598.892c0.023-4.912 1.956-121.295 121.295-121.295h341.141c4.912 0.023 121.295 1.956 121.295 121.295v598.892h-462.436c-8.369 0-15.162 6.793-15.162 15.162s6.793 15.162 15.162 15.162h492.76v-629.216c0-149.89-150.102-151.618-151.618-151.618z" />
<glyph unicode="&#xe976;" horiz-adv-x="986" d="M784.625 174.799c-12.562 0-22.743 10.181-22.743 22.743s10.181 22.743 22.743 22.743c87.628 0 90.888 81.745 90.971 91.070v113.615c0 87.635-81.745 90.895-91.070 90.971-12.516 0.114-22.644 10.325-22.591 22.841 0.061 12.524 10.174 22.644 22.69 22.644 1.38 0 34.175-0.19 67.030-16.61 31.673-15.837 69.426-49.488 69.426-119.847v-113.714c0-47.199-28.519-136.457-136.457-136.457z" />
<glyph unicode="&#xe977;" horiz-adv-x="986" d="M348.093 910.724c0-18.841-15.273-34.114-34.114-34.114s-34.114 15.273-34.114 34.114c0 18.841 15.273 34.114 34.114 34.114s34.114-15.273 34.114-34.114z" />
<glyph unicode="&#xe978;" horiz-adv-x="986" d="M313.979 861.448c-27.17 0-49.276 22.106-49.276 49.276s22.106 49.276 49.276 49.276 49.276-22.106 49.276-49.276-22.114-49.276-49.276-49.276zM313.979 929.676c-10.447 0-18.952-8.506-18.952-18.952s8.506-18.952 18.952-18.952 18.952 8.506 18.952 18.952-8.506 18.952-18.952 18.952z" />
<glyph unicode="&#xe979;" horiz-adv-x="986" d="M432.234 379.613c0-14.482-11.74-26.222-26.222-26.222s-26.222 11.74-26.222 26.222c0 14.482 11.74 26.222 26.222 26.222s26.222-11.74 26.222-26.222z" />
<glyph unicode="&#xe97a;" horiz-adv-x="986" d="M344.818 130.678c0-14.482-11.74-26.222-26.222-26.222s-26.222 11.74-26.222 26.222c0 14.482 11.74 26.222 26.222 26.222s26.222-11.74 26.222-26.222z" />
<glyph unicode="&#xe97b;" horiz-adv-x="986" d="M657.015 445.476c0-14.482-11.74-26.222-26.222-26.222s-26.222 11.74-26.222 26.222c0 14.482 11.74 26.222 26.222 26.222s26.222-11.74 26.222-26.222z" />
<glyph unicode="&#xe97c;" horiz-adv-x="986" d="M643.271 203.622c0-14.482-11.74-26.222-26.222-26.222s-26.222 11.74-26.222 26.222c0 14.482 11.74 26.222 26.222 26.222s26.222-11.74 26.222-26.222z" />
<glyph unicode="&#xe97d;" horiz-adv-x="986" d="M252.536 752.609c0-9.027-7.318-16.344-16.344-16.344s-16.344 7.318-16.344 16.344c0 9.027 7.318 16.344 16.344 16.344s16.344-7.318 16.344-16.344z" />
<glyph unicode="&#xe97e;" horiz-adv-x="986" d="M494.662 776.057c0-15.441-12.517-27.958-27.958-27.958s-27.958 12.517-27.958 27.958c0 15.441 12.517 27.958 27.958 27.958s27.958-12.517 27.958-27.958z" />
<glyph unicode="&#xe97f;" horiz-adv-x="986" d="M227.428 368.112c-8.369 0-15.162 6.793-15.162 15.162v30.324c0 8.369 6.793 15.162 15.162 15.162s15.162-6.793 15.162-15.162v-30.324c0-8.377-6.793-15.162-15.162-15.162z" />
<glyph unicode="&#xe980;" horiz-adv-x="986" d="M629.216 721.573v-161.094c0-26.692-21.636-48.328-48.328-48.328v0c-26.692 0-48.328 21.636-48.328 48.328v161.094z" />
<glyph unicode="&#xe981;" horiz-adv-x="986" d="M580.888 496.988c-35.009 0-63.49 28.482-63.49 63.49v161.094c0 8.369 6.793 15.162 15.162 15.162s15.162-6.793 15.162-15.162v-161.094c0-18.293 14.881-33.167 33.167-33.167s33.167 14.881 33.167 33.167v161.094c0 8.369 6.793 15.162 15.162 15.162s15.162-6.793 15.162-15.162v-161.094c0-35.009-28.482-63.49-63.49-63.49z" />
<glyph unicode="&#xe982;" horiz-adv-x="986" d="M45.485-64h-30.324c-8.369 0-15.162 6.793-15.162 15.162s6.793 15.162 15.162 15.162h30.324c8.369 0 15.162-6.793 15.162-15.162s-6.793-15.162-15.162-15.162z" />
<glyph unicode="&#xe983;" horiz-adv-x="986" d="M272.913-64h-151.618c-8.369 0-15.162 6.793-15.162 15.162s6.793 15.162 15.162 15.162h151.618c8.369 0 15.162-6.793 15.162-15.162s-6.793-15.162-15.162-15.162z" />
<glyph unicode="&#xe984;" horiz-adv-x="986" d="M970.357-64h-621.635c-8.369 0-15.162 6.793-15.162 15.162s6.793 15.162 15.162 15.162h621.635c8.369 0 15.162-6.793 15.162-15.162s-6.793-15.162-15.162-15.162z" />
<glyph unicode="&#xe985;" horiz-adv-x="991" d="M901.12 99.84v737.28h-884.736v-884.736l147.456 147.456h516.096z" />
<glyph unicode="&#xe986;" horiz-adv-x="991" d="M53.248 815.96v-810.328l-21.504-21.504v840.704h21.504z" />
<glyph unicode="&#xe987;" horiz-adv-x="991" d="M901.12 83.456h-368.64c-9.044 0-16.384 7.34-16.384 16.384s7.34 16.384 16.384 16.384h352.256v131.072c0 9.044 7.34 16.384 16.384 16.384s16.384-7.34 16.384-16.384v-147.456c0-9.044-7.34-16.384-16.384-16.384z" />
<glyph unicode="&#xe988;" horiz-adv-x="991" d="M16.384-64c-2.114 0-4.243 0.41-6.267 1.245-6.128 2.54-10.117 8.511-10.117 15.139v884.736c0 9.044 7.34 16.384 16.384 16.384h147.456c9.044 0 16.384-7.34 16.384-16.384s-7.34-16.384-16.384-16.384h-131.072v-828.801l119.489 119.489c6.39 6.398 16.777 6.398 23.167 0 6.398-6.398 6.398-16.769 0-23.167l-147.456-147.456c-3.129-3.138-7.324-4.801-11.583-4.801z" />
<glyph unicode="&#xe989;" horiz-adv-x="991" d="M385.024 83.456h-73.728c-9.044 0-16.384 7.34-16.384 16.384s7.34 16.384 16.384 16.384h73.728c9.044 0 16.384-7.34 16.384-16.384s-7.34-16.384-16.384-16.384z" />
<glyph unicode="&#xe98a;" horiz-adv-x="991" d="M974.848 796.16c0 81.437-66.019 147.456-147.456 147.456s-147.456-66.019-147.456-147.456c0 81.437-66.019 147.456-147.456 147.456s-147.456-66.019-147.456-147.456c0-221.184 221.184-368.64 294.912-368.64s294.912 147.456 294.912 368.64z" />
<glyph unicode="&#xe98b;" horiz-adv-x="991" d="M679.936 409.088c0 0 147.456 4.096 221.184 55.296v147.456l-221.184-202.752z" />
<glyph unicode="&#xe98c;" horiz-adv-x="991" d="M785.719 934.965c0 0 162.505-7.733 115.401-183.861 0 0-41.984-218.112-280.576-311.296l67.584-12.288 80.781 28.582 85.934 64.668 75.268 92.93 45.515 112.828 7.414 94.208-36.864 67.584-36.864 35.521-63.209 19.358-60.383-8.233z" />
<glyph unicode="&#xe98d;" horiz-adv-x="991" d="M679.936 411.136c-80.036 0-311.296 151.249-311.296 385.024 0 90.341 73.499 163.84 163.84 163.84 64.766 0 120.881-37.773 147.456-92.455 26.575 54.682 82.69 92.455 147.456 92.455 90.341 0 163.84-73.499 163.84-163.84 0-233.775-231.26-385.024-311.296-385.024zM532.48 927.232c-72.27 0-131.072-58.802-131.072-131.072 0-210.002 209.084-352.256 278.528-352.256s278.528 142.254 278.528 352.256c0 72.27-58.802 131.072-131.072 131.072s-131.072-58.802-131.072-131.072c0-9.044-7.34-16.384-16.384-16.384s-16.384 7.34-16.384 16.384c0 72.27-58.802 131.072-131.072 131.072z" />
<glyph unicode="&#xe98e;" horiz-adv-x="991" d="M325.632 554.496h-153.6c-9.044 0-16.384 7.34-16.384 16.384s7.34 16.384 16.384 16.384h153.6c9.044 0 16.384-7.34 16.384-16.384s-7.34-16.384-16.384-16.384z" />
<glyph unicode="&#xe98f;" horiz-adv-x="991" d="M464.896 382.464h-292.864c-9.044 0-16.384 7.34-16.384 16.384s7.34 16.384 16.384 16.384h292.864c9.044 0 16.384-7.34 16.384-16.384s-7.34-16.384-16.384-16.384z" />
<glyph unicode="&#xe990;" horiz-adv-x="991" d="M569.298 861.133c16.717-19.933 6.146-56.322-23.61-81.279s-67.431-29.029-84.148-9.097c-16.717 19.933-6.146 56.322 23.61 81.279s67.431 29.029 84.148 9.097z" />
<glyph unicode="&#xe991;" horiz-adv-x="1450" d="M1270.075 786.141l-43.102 101.118-140.305 55.049c0 0-65.278 10.541-123.841-38.651 0 0-29.493-29.672-88.056-29.672l-149.642-1.629-146.407 1.629c-58.563 0-88.246 29.672-88.246 29.672-58.563 49.193-124.041 38.651-124.041 38.651l-140.718-55.049-43.928-101.118z" />
<glyph unicode="&#xe992;" horiz-adv-x="1450" d="M181.79 769.409c-2.22 0-4.484 0.446-6.659 1.394-8.478 3.681-12.36 13.542-8.678 22.020l43.928 101.118c1.774 4.083 5.109 7.295 9.258 8.913l140.718 55.049c1.104 0.435 2.264 0.747 3.436 0.937 2.989 0.48 73.767 11.132 137.461-42.355 0.357-0.335 0.714-0.658 1.049-0.993 0.948-0.915 26.236-24.775 76.422-24.775l146.596-1.629 149.285 1.629c50.33 0 75.429 23.816 76.466 24.831 0.279 0.279 0.703 0.658 1.004 0.915 63.705 53.498 134.282 42.846 137.271 42.355 1.171-0.19 2.331-0.502 3.447-0.937l140.305-55.049c4.172-1.64 7.518-4.886 9.281-9.013l43.102-101.118c3.625-8.5-0.323-18.338-8.835-21.953-8.478-3.603-18.327 0.335-21.953 8.835l-40.347 94.671-131.906 51.736c-9.649 1.138-61.061 4.73-108.458-34.814-5.332-4.997-38.741-33.922-99.211-33.922l-149.463-1.629-146.775 1.629c-60.359 0-93.935 28.98-99.2 33.911-47.241 39.432-99.144 35.84-108.704 34.825l-132.329-51.781-41.15-94.738c-2.744-6.302-8.902-10.062-15.36-10.062z" />
<glyph unicode="&#xe993;" horiz-adv-x="1450" d="M1076.506 840.733l234.24-82.903c0 0 117.125-239.784 117.125-591.149 0 0 13.018-362.431-338.359-131.448 0 0-117.125 91.771-234.251 91.771h-260.275c-117.125 0-234.251-91.771-234.251-91.771-351.365-230.971-338.348 137.037-338.348 137.037 0 351.365 117.125 588.36 117.125 588.36l260.275 81.508z" />
<glyph unicode="&#xe994;" horiz-adv-x="1450" d="M1091.386 812.098c0 0 155.23-104.23 187.066-156.167 26.548-43.303 34.011-148.961 37.882-199.615 4.049-53.030 33.464-243.264 33.464-243.264s15.806-255.222-210.547-219.906l64.14-30.218 73.901-14.401 57.637 9.727 35.316 14.434 26.035 29.75 31.657 46.482v44.619l12.962 65.066v76.221l-12.962 144.343-37.235 179.157-31.613 104.108-24.161 61.117-24.172 44.853-96.679 27.887-74.826 31.602-53.688 18.595c-0.011 0-10.909-27.43 5.823-34.39z" />
<glyph unicode="&#xe995;" horiz-adv-x="1450" d="M360.724 812.098c0 0-155.23-104.23-187.066-156.167-26.548-43.303-34.011-148.961-37.882-199.615-4.049-53.030-33.464-243.264-33.464-243.264s-15.806-255.222 210.547-219.906l-64.14-30.218-73.901-14.401-57.637 9.727-35.316 14.434-26.035 29.75-31.657 46.482v44.619l-12.962 65.066v76.221l12.962 144.343 37.235 179.157 31.613 104.108 24.161 61.117 24.172 44.853 96.679 27.887 74.826 31.602 53.688 18.595c0 0 10.909-27.43-5.823-34.39z" />
<glyph unicode="&#xe996;" horiz-adv-x="1450" d="M1048.619 313.534c0-55.489-44.983-100.471-100.471-100.471s-100.471 44.983-100.471 100.471c0 55.489 44.983 100.471 100.471 100.471s100.471-44.983 100.471-100.471z" />
<glyph unicode="&#xe997;" horiz-adv-x="1450" d="M446.259 536.631c0-55.489-44.983-100.471-100.471-100.471s-100.471 44.983-100.471 100.471c0 55.489 44.983 100.471 100.471 100.471s100.471-44.983 100.471-100.471z" />
<glyph unicode="&#xe998;" horiz-adv-x="1450" d="M1085.563 584.351c0-20.533-16.646-37.179-37.179-37.179s-37.179 16.646-37.179 37.179c0 20.533 16.646 37.179 37.179 37.179s37.179-16.646 37.179-37.179z" />
<glyph unicode="&#xe999;" horiz-adv-x="1450" d="M1267.297 584.351c0-20.533-16.646-37.179-37.179-37.179s-37.179 16.646-37.179 37.179c0 20.533 16.646 37.179 37.179 37.179s37.179-16.646 37.179-37.179z" />
<glyph unicode="&#xe99a;" horiz-adv-x="1450" d="M1176.419 675.218c0-20.527-16.641-37.168-37.168-37.168s-37.168 16.641-37.168 37.168c0 20.527 16.641 37.168 37.168 37.168s37.168-16.641 37.168-37.168z" />
<glyph unicode="&#xe99b;" horiz-adv-x="1450" d="M1176.419 493.484c0-20.527-16.641-37.168-37.168-37.168s-37.168 16.641-37.168 37.168c0 20.527 16.641 37.168 37.168 37.168s37.168-16.641 37.168-37.168z" />
<glyph unicode="&#xe99c;" horiz-adv-x="1450" d="M133.021-37.072c0 0 180.775 59.5 265.83 191.963 0 0 68.323 52.985 211.941 50.197h114.337v-87.844l-218.913-8.366-77.135-37.647-74.849-47.408-107.365-60.894-93.421-14.401-27.541 16.364z" />
<glyph unicode="&#xe99d;" horiz-adv-x="1450" d="M1317.226-37.072c0 0-180.764 59.5-265.819 191.963 0 0-68.323 52.985-211.941 50.197h-114.337v-87.844l218.913-8.366 77.135-37.647 74.849-47.408 107.365-60.894 93.421-14.401 27.541 16.364z" />
<glyph unicode="&#xe99e;" horiz-adv-x="1450" d="M449.204 577.39c0-63.19-51.225-114.415-114.415-114.415s-114.415 51.225-114.415 114.415c0 63.19 51.225 114.415 114.415 114.415s114.415-51.225 114.415-114.415z" />
<glyph unicode="&#xe99f;" horiz-adv-x="1450" d="M1051.407 358.154c0-63.19-51.225-114.415-114.415-114.415s-114.415 51.225-114.415 114.415c0 63.19 51.225 114.415 114.415 114.415s114.415-51.225 114.415-114.415z" />
<glyph unicode="&#xe9a0;" horiz-adv-x="1450" d="M685.853 358.154c0-76.922-62.357-139.279-139.279-139.279s-139.279 62.357-139.279 139.279c0 76.922 62.357 139.279 139.279 139.279s139.279-62.357 139.279-139.279z" />
<glyph unicode="&#xe9a1;" horiz-adv-x="1450" d="M647.046 562.041h-44.619c-15.405 0-27.887 12.482-27.887 27.887s12.482 27.887 27.887 27.887h44.619c15.405 0 27.887-12.482 27.887-27.887s-12.482-27.887-27.887-27.887z" />
<glyph unicode="&#xe9a2;" horiz-adv-x="1450" d="M836.677 562.041h-33.464c-15.405 0-27.887 12.482-27.887 27.887s12.482 27.887 27.887 27.887h33.464c15.405 0 27.887-12.482 27.887-27.887s-12.482-27.887-27.887-27.887z" />
<glyph unicode="&#xe9a3;" horiz-adv-x="1450" d="M375.147 842.384l196.771-68.401h313.562l211.941 72.506z" />
<glyph unicode="&#xe9a4;" horiz-adv-x="1450" d="M1286.093-64c-57.313 0-127.187 26.928-208.84 80.605-0.513 0.323-1.015 0.703-1.495 1.071-1.115 0.87-112.675 87.030-220.508 87.030h-260.264c-107.834 0-219.382-86.16-220.497-87.030-0.48-0.368-0.982-0.736-1.495-1.071-119.245-78.396-213.458-99.155-280.030-61.708-97.515 54.837-93.12 211.529-92.886 218.166 0 351.733 114.549 587.579 119.423 597.451 2.699 5.466 7.518 9.582 13.33 11.4l260.275 81.508c11.757 3.659 24.273-2.867 27.954-14.624s-2.867-24.273-14.624-27.954l-250.827-78.563c-20.112-44.943-110.912-264.815-110.912-570.022-0.056-2.119-3.659-137.093 70.231-178.544 50.040-28.065 130.534-7.407 232.834 59.689 11.579 8.924 127.6 95.909 247.224 95.909h260.275c119.635 0 235.668-86.996 247.224-95.909 103.227-67.699 184.244-88.625 234.262-60.571 72.417 40.648 68.87 171.751 68.825 173.078-0.011 306.991-91.469 529.641-111.18 574.037l-225.327 79.746c-11.623 4.105-17.703 16.855-13.598 28.478 4.116 11.612 16.866 17.68 28.478 13.587l234.24-82.903c5.51-1.952 10.039-5.99 12.605-11.233 4.886-9.984 119.39-248.462 119.39-600.943 0.223-5.689 4.585-158.632-91.447-212.678-21.35-12.014-45.601-18.004-72.64-18.004z" />
<glyph unicode="&#xe9a5;" horiz-adv-x="1450" d="M862.010 352.565c-3.079 0-5.577 2.499-5.577 5.577 0 2.789 0.145 5.544 0.424 8.243 1.339 13.185 5.979 25.957 13.43 36.956 1.729 2.554 5.209 3.19 7.741 1.495 2.554-1.729 3.213-5.198 1.495-7.741-6.414-9.47-10.43-20.48-11.579-31.836-0.234-2.343-0.357-4.707-0.357-7.106 0-3.090-2.488-5.589-5.577-5.589z" />
<glyph unicode="&#xe9a6;" horiz-adv-x="1450" d="M1011.964 352.565c-3.079 0-5.577 2.499-5.577 5.577 0 9.928-2.052 19.499-6.091 28.478-11.188 24.864-36.030 40.927-63.315 40.927-15.628 0-30.397-5.075-42.667-14.657-2.398-1.907-5.912-1.472-7.82 0.959s-1.472 5.923 0.959 7.82c14.256 11.155 31.378 17.033 49.527 17.033 31.657 0 60.504-18.651 73.488-47.508 4.696-10.43 7.072-21.551 7.072-33.052 0-3.079-2.499-5.577-5.577-5.577z" />
<glyph unicode="&#xe9a7;" horiz-adv-x="1450" d="M259.818 571.813c-3.079 0-5.577 2.499-5.577 5.577 0 2.789 0.145 5.544 0.424 8.243 1.339 13.185 5.99 25.968 13.442 36.956 1.74 2.543 5.22 3.201 7.753 1.484 2.554-1.729 3.213-5.198 1.484-7.753-6.425-9.47-10.419-20.469-11.579-31.836-0.245-2.343-0.368-4.707-0.368-7.106 0-3.079-2.499-5.566-5.577-5.566z" />
<glyph unicode="&#xe9a8;" horiz-adv-x="1450" d="M409.761 571.813c-3.079 0-5.577 2.499-5.577 5.577 0 9.917-2.052 19.499-6.091 28.478-11.177 24.864-36.030 40.927-63.315 40.927-15.628 0-30.386-5.075-42.667-14.669-2.443-1.885-5.946-1.45-7.831 0.959-1.896 2.432-1.461 5.934 0.959 7.831 14.256 11.144 31.39 17.033 49.538 17.033 31.657 0 60.504-18.651 73.488-47.508 4.685-10.43 7.072-21.54 7.072-33.052 0-3.090-2.488-5.577-5.577-5.577z" />
<glyph unicode="&#xe9a9;" horiz-adv-x="1450" d="M1085.563 595.506c0-20.533-16.646-37.179-37.179-37.179s-37.179 16.646-37.179 37.179c0 20.533 16.646 37.179 37.179 37.179s37.179-16.646 37.179-37.179z" />
<glyph unicode="&#xe9aa;" horiz-adv-x="1450" d="M1267.297 595.506c0-20.533-16.646-37.179-37.179-37.179s-37.179 16.646-37.179 37.179c0 20.533 16.646 37.179 37.179 37.179s37.179-16.646 37.179-37.179z" />
<glyph unicode="&#xe9ab;" horiz-adv-x="1450" d="M1176.419 686.373c0-20.527-16.641-37.168-37.168-37.168s-37.168 16.641-37.168 37.168c0 20.527 16.641 37.168 37.168 37.168s37.168-16.641 37.168-37.168z" />
<glyph unicode="&#xe9ac;" horiz-adv-x="1450" d="M1176.419 504.639c0-20.527-16.641-37.168-37.168-37.168s-37.168 16.641-37.168 37.168c0 20.527 16.641 37.168 37.168 37.168s37.168-16.641 37.168-37.168z" />
<glyph unicode="&#xe9ad;" horiz-adv-x="1450" d="M1165.052 697.695c0-8.12-11.552-14.702-25.801-14.702s-25.801 6.582-25.801 14.702c0 8.12 11.552 14.702 25.801 14.702s25.801-6.582 25.801-14.702z" />
<glyph unicode="&#xe9ae;" horiz-adv-x="1450" d="M1255.92 610.219c0-8.12-11.552-14.702-25.801-14.702s-25.801 6.582-25.801 14.702c0 8.12 11.552 14.702 25.801 14.702s25.801-6.582 25.801-14.702z" />
<glyph unicode="&#xe9af;" horiz-adv-x="1450" d="M1165.052 519.352c0-8.12-11.552-14.702-25.801-14.702s-25.801 6.582-25.801 14.702c0 8.12 11.552 14.702 25.801 14.702s25.801-6.582 25.801-14.702z" />
<glyph unicode="&#xe9b0;" horiz-adv-x="1450" d="M1074.174 610.219c0-8.12-11.552-14.702-25.801-14.702s-25.801 6.582-25.801 14.702c0 8.12 11.552 14.702 25.801 14.702s25.801-6.582 25.801-14.702z" />
<glyph unicode="&#xe9b1;" horiz-adv-x="1450" d="M571.003 262.233h-48.88v5.577c0 69.026-66.973 69.829-69.829 69.829h-5.577v43.292h11.155v-32.505c17.803-1.796 72.216-12.438 75.273-75.038h27.073c1.807 17.803 12.438 72.216 75.038 75.273v32.271h11.155v-43.292h-5.577c-69.026 0-69.829-66.973-69.829-69.829v-5.577z" />
<glyph unicode="&#xe9b2;" horiz-adv-x="1450" d="M645.573 378.199c-71.045 0-82.557 60.314-84.42 79.199h-28.936c-3.648-78.273-83.817-79.199-84.643-79.199l-0.011 11.155c3.012 0.011 73.633 1.060 73.633 73.622v5.577h50.743l0.011-5.566c0.011-3.012 1.060-73.633 73.622-73.633v-11.155z" />
<glyph unicode="&#xe9b3;" horiz-adv-x="1138" d="M921.439 801.34v-619.092c0-79.517-64.458-143.975-143.975-143.975h-619.092c-79.517 0-143.975 64.458-143.975 143.975v619.092z" />
<glyph unicode="&#xe9b4;" horiz-adv-x="1138" d="M777.465 23.875h-619.092c-87.328 0-158.372 71.044-158.372 158.372v619.092c0 7.947 6.45 14.397 14.397 14.397s14.397-6.45 14.397-14.397v-619.092c0-71.448 58.13-129.577 129.577-129.577h619.092c71.448 0 129.577 58.13 129.577 129.577v619.092c0 7.947 6.45 14.397 14.397 14.397s14.397-6.45 14.397-14.397v-619.092c0-87.328-71.044-158.372-158.372-158.372z" />
<glyph unicode="&#xe9b5;" horiz-adv-x="1138" d="M14.397 750.948h907.042v-61.189h-907.042v61.189z" />
<glyph unicode="&#xe9b6;" horiz-adv-x="1138" d="M14.397 750.948v50.391c0 79.517 64.458 143.975 143.975 143.975h619.092c79.517 0 143.975-64.458 143.975-143.975v-50.391z" />
<glyph unicode="&#xe9b7;" horiz-adv-x="1138" d="M14.397 765.346c0 0-26.995 203.365 160.172 194.366h599.296c0 0 124.15-19.026 142.161-112.092 0 0-40.14 66.538-208.749 65.3h-521.909c0 0-154.773 21.596-170.97-147.574z" />
<glyph unicode="&#xe9b8;" horiz-adv-x="1138" d="M921.439 736.551h-907.042c-7.947 0-14.397 6.45-14.397 14.397s6.45 14.397 14.397 14.397h907.042c7.947 0 14.397-6.45 14.397-14.397s-6.45-14.397-14.397-14.397z" />
<glyph unicode="&#xe9b9;" horiz-adv-x="1138" d="M723.69 563.781h-518.31c-11.928 0-21.596 9.668-21.596 21.596s9.668 21.596 21.596 21.596h518.31c11.928 0 21.596-9.668 21.596-21.596s-9.661-21.596-21.596-21.596z" />
<glyph unicode="&#xe9ba;" horiz-adv-x="1138" d="M723.69 434.204h-194.366c-11.928 0-21.596 9.668-21.596 21.596s9.668 21.596 21.596 21.596h194.366c11.928 0 21.596-9.668 21.596-21.596s-9.661-21.596-21.596-21.596z" />
<glyph unicode="&#xe9bb;" horiz-adv-x="1138" d="M723.69 304.626h-129.577c-11.928 0-21.596 9.668-21.596 21.596s9.668 21.596 21.596 21.596h129.577c11.928 0 21.596-9.668 21.596-21.596s-9.661-21.596-21.596-21.596z" />
<glyph unicode="&#xe9bc;" horiz-adv-x="1138" d="M739.722 155.828l136.503 23.72 51.514 39.507-6.299 64.386z" />
<glyph unicode="&#xe9bd;" horiz-adv-x="1138" d="M777.465 23.875h-619.092c-87.328 0-158.372 71.044-158.372 158.372v619.092c0 87.328 71.044 158.372 158.372 158.372h619.092c87.328 0 158.372-71.044 158.372-158.372v-619.092c0-87.328-71.044-158.372-158.372-158.372zM158.372 930.917c-71.448 0-129.577-58.13-129.577-129.577v-619.092c0-71.448 58.13-129.577 129.577-129.577h619.092c71.448 0 129.577 58.13 129.577 129.577v619.092c0 71.448-58.13 129.577-129.577 129.577h-619.092z" />
<glyph unicode="&#xe9be;" horiz-adv-x="1138" d="M865.564 204.83l-42.651 42.651 191.932 191.932 42.651-42.651-191.932-191.932z" />
<glyph unicode="&#xe9bf;" horiz-adv-x="1138" d="M822.907 247.485l-42.651 42.651 191.932 191.932 42.651-42.651-191.932-191.932z" />
<glyph unicode="&#xe9c0;" horiz-adv-x="1138" d="M801.58 183.514l63.982 21.33c0 0 0 42.653-42.653 42.653 0 0 0 42.653-42.653 42.653l-42.66-127.965 63.982 21.33z" />
<glyph unicode="&#xe9c1;" horiz-adv-x="1138" d="M857.659 241.176c0 0 0 0 0 0 14.433-14.441 14.599-35.447 14.599-36.332 0-2.879-1.843-5.449-4.578-6.364l-127.958-42.653c-2.412-0.799-5.068-0.173-6.86 1.62s-2.419 4.449-1.62 6.86l42.653 127.958c0.914 2.736 3.477 4.578 6.364 4.578 14.412 0 26.11-4.377 34.748-13.023 9.704-9.704 12.958-22.374 14.045-29.911 11.626-1.087 21.229-5.363 28.608-12.735zM818.159 242.746c-1.209 1.209-1.958 2.894-1.958 4.744 0 0.137-0.23 16.413-10.669 26.844-5.118 5.118-12 8.099-20.524 8.883l-36.807-110.443 110.213 36.742c-0.842 5.629-3.261 15.197-10.229 22.165v0c-6.040 6.040-14.541 9.099-25.275 9.099-1.85 0.007-3.535 0.756-4.751 1.965z" />
<glyph unicode="&#xe9c2;" horiz-adv-x="1138" d="M1019.58 444.167c2.613-2.613 2.613-6.853 0-9.466l-206.158-206.165c-2.613-2.613-6.86-2.613-9.474 0s-2.613 6.86 0 9.474l206.165 206.158c2.613 2.613 6.853 2.613 9.466 0z" />
<glyph unicode="&#xe9c3;" horiz-adv-x="1138" d="M976.927 486.819c2.613-2.613 2.613-6.86 0-9.474l-191.933-191.94c-2.62-2.62-6.868-2.62-9.481-0.007-2.62 2.62-2.62 6.868 0 9.481l191.94 191.94c2.613 2.62 6.86 2.62 9.474 0z" />
<glyph unicode="&#xe9c4;" horiz-adv-x="1138" d="M1078.818 418.107l42.653 42.653c0 0 21.33 21.33 0.007 42.66l-42.653 42.653c0 0-21.33 21.323-42.66-0.007l-42.653-42.653z" />
<glyph unicode="&#xe9c5;" horiz-adv-x="1138" d="M1083.562 550.794l42.653-42.653c20.617-20.617 9.020-43.113 0-52.133l-42.653-42.653c-2.613-2.613-6.853-2.613-9.474 0.007-2.613 2.613-2.613 6.86 0 9.474l42.653 42.653c1.663 1.692 15.967 17.219 0 33.172l-42.653 42.653c-1.692 1.663-17.219 15.967-33.172 0l-42.653-42.653c-2.613-2.613-6.86-2.613-9.474 0-2.62 2.62-2.62 6.86-0.007 9.474l42.653 42.653c20.61 20.632 43.113 9.027 52.126 0.007z" />
<glyph unicode="&#xe9c6;" horiz-adv-x="1138" d="M1062.233 401.514c2.62-2.613 2.62-6.86 0.007-9.474l-191.94-191.94c-2.613-2.62-6.86-2.62-9.481 0-2.613 2.613-2.613 6.86 0.007 9.481l191.933 191.933c2.606 2.613 6.853 2.613 9.474 0z" />
<glyph unicode="&#xe9c7;" horiz-adv-x="1138" d="M961.522 514.074c5.889 5.889 15.441 5.881 21.323 0l106.635-106.635c5.889-5.881 5.889-15.434 0-21.323v0c-5.889-5.889-15.441-5.881-21.323 0l-106.635 106.635c-5.881 5.881-5.889 15.427 0 21.323v0z" />
<glyph unicode="&#xe9c8;" horiz-adv-x="1138" d="M987.582 518.81l106.635-106.635c8.495-8.487 8.495-22.309 0-30.796s-22.316-8.495-30.803-0.007l-106.635 106.635c-8.487 8.495-8.487 22.316 0.007 30.803s22.316 8.495 30.796 0zM1072.901 390.846c3.261-3.268 8.574-3.261 11.849 0.007 3.261 3.261 3.268 8.574 0.007 11.849l-106.635 106.635c-3.268 3.268-8.581 3.261-11.849 0-3.268-3.268-3.275-8.581-0.007-11.849l106.635-106.642z" />
<glyph unicode="&#xe9c9;" horiz-adv-x="1138" d="M1090.675 477.338c2.613-2.613 2.613-6.86 0-9.474l-30.803-30.803c-2.613-2.613-6.86-2.613-9.474 0-2.62 2.62-2.62 6.868-0.007 9.481l30.803 30.796c2.613 2.613 6.86 2.613 9.481 0z" />
<glyph unicode="&#xe9ca;" horiz-adv-x="1138" d="M737.598 162.185l56.87 18.954-37.916 37.916z" />
<glyph unicode="&#xe9cb;" horiz-adv-x="1138" d="M195.561 184.299v-237.501l84.384 84.377 84.377-84.377v237.501z" />
<glyph unicode="&#xe9cc;" horiz-adv-x="1138" d="M364.329-64c-2.815 0-5.572 1.094-7.638 3.16l-76.746 76.739-76.746-76.739c-3.081-3.088-7.731-4.024-11.77-2.34-4.038 1.67-6.666 5.608-6.666 9.977v237.501c0 5.961 4.83 10.798 10.798 10.798s10.798-4.838 10.798-10.798v-211.434l65.948 65.941c4.218 4.218 11.050 4.218 15.269 0l65.948-65.941v211.434c0 5.961 4.83 10.798 10.798 10.798s10.798-4.838 10.798-10.798v-237.501c0-4.362-2.628-8.3-6.666-9.977-1.332-0.554-2.736-0.821-4.125-0.821z" />
<glyph unicode="&#xe9cd;" horiz-adv-x="1138" d="M279.945 431.835l39.161-37.894 53.969 7.638 9.409-53.674 48.145-25.556-23.929-48.959 23.929-48.966-48.145-25.541-9.409-53.688-53.969 7.645-39.161-37.894-39.168 37.894-53.969-7.645-9.409 53.688-48.145 25.541 23.936 48.966-23.936 48.959 48.145 25.556 9.409 53.674 53.969-7.638z" />
<glyph unicode="&#xe9ce;" horiz-adv-x="1138" d="M279.945 100.549c-3.607 0-7.22 1.353-10.013 4.053l-34.108 32.999-47.001-6.659c-7.659-1.109-14.858 4.118-16.197 11.77l-8.199 46.749-41.925 22.251c-6.86 3.643-9.596 12.065-6.184 19.041l20.848 42.645-20.848 42.638c-3.412 6.976-0.677 15.398 6.184 19.041l41.925 22.259 8.199 46.741c1.339 7.652 8.466 12.879 16.197 11.77l47.001-6.652 34.108 32.999c5.579 5.399 14.441 5.399 20.020 0l34.108-32.999 47.001 6.652c7.731 1.080 14.858-4.118 16.197-11.77l8.199-46.741 41.925-22.259c6.86-3.643 9.596-12.065 6.184-19.041l-20.84-42.638 20.84-42.645c3.412-6.976 0.669-15.398-6.184-19.041l-41.925-22.251-8.199-46.749c-1.346-7.652-8.567-12.835-16.197-11.77l-47.001 6.659-34.108-32.999c-2.786-2.7-6.4-4.053-10.006-4.053zM240.776 167.238c3.715 0 7.307-1.433 10.013-4.053l29.155-28.205 29.155 28.205c3.189 3.095 7.638 4.514 12.029 3.909l40.176-5.687 7.004 39.96c0.763 4.37 3.506 8.149 7.429 10.229l35.843 19.026-17.817 36.447c-1.951 3.988-1.951 8.653 0 12.641l17.817 36.447-35.843 19.026c-3.923 2.080-6.666 5.853-7.429 10.229l-7.004 39.96-40.176-5.687c-4.427-0.583-8.84 0.821-12.029 3.909l-29.155 28.205-29.155-28.205c-3.196-3.088-7.645-4.499-12.029-3.909l-40.176 5.687-7.004-39.96c-0.763-4.37-3.506-8.149-7.429-10.229l-35.843-19.026 17.817-36.447c1.951-3.988 1.951-8.653 0-12.641l-17.817-36.454 35.843-19.019c3.923-2.080 6.666-5.853 7.429-10.229l7.004-39.96 40.176 5.687c0.669 0.094 1.346 0.144 2.016 0.144z" />
<glyph unicode="&#xe9cf;" horiz-adv-x="1138" d="M349.931 271.238c0-38.318-31.063-69.382-69.382-69.382s-69.382 31.063-69.382 69.382c0 38.318 31.063 69.382 69.382 69.382s69.382-31.063 69.382-69.382z" />
<glyph unicode="&#xe9d0;" horiz-adv-x="1138" d="M280.55 191.066c-44.207 0-80.18 35.965-80.18 80.18s35.972 80.172 80.18 80.172 80.18-35.965 80.18-80.18-35.972-80.172-80.18-80.172zM280.55 329.822c-32.301 0-58.583-26.275-58.583-58.583s26.275-58.583 58.583-58.583 58.583 26.275 58.583 58.583-26.283 58.583-58.583 58.583z" />
<glyph unicode="&#xe9d1;" d="M338.97 60.24l-107.37 107.37 483.167 483.167 107.37-107.37-483.167-483.167z" />
<glyph unicode="&#xe9d2;" d="M231.609 167.615l-107.37 107.37 483.167 483.167 107.37-107.37-483.167-483.167z" />
<glyph unicode="&#xe9d3;" d="M177.93 6.558l161.058 53.678c0 0 0 107.381-107.372 107.381 0 0 0 107.372-107.372 107.372l-107.372-322.116 161.058 53.686z" />
<glyph unicode="&#xe9d4;" d="M16.872-64c-4.404 0-8.723 1.721-11.937 4.943-4.522 4.513-6.099 11.203-4.075 17.268l107.381 322.108c2.295 6.884 8.748 11.532 16.003 11.532 86.999 0 117.326-63.683 123.147-108.106 85.312-8.208 108.46-82.925 108.46-123.51 0-7.263-4.648-13.708-11.54-16.003l-322.108-107.372c-1.746-0.582-3.543-0.86-5.331-0.86zM136.223 257.568l-92.668-278.022 277.659 92.559c-3.315 25.105-18.702 78.639-89.598 78.639-9.313 0-16.872 7.559-16.872 16.872-0.059 8.773-2.86 82.874-78.521 89.952z" />
<glyph unicode="&#xe9d5;" d="M195.823 114.951c-4.319 0-8.638 1.645-11.928 4.943-6.588 6.588-6.588 17.268 0 23.857l518.96 518.968c6.588 6.588 17.268 6.588 23.857 0s6.588-17.268 0-23.857l-518.96-518.968c-3.29-3.298-7.609-4.943-11.928-4.943z" />
<glyph unicode="&#xe9d6;" d="M124.244 258.108c-4.319 0-8.638 1.645-11.928 4.943-6.588 6.588-6.588 17.268 0 23.857l483.175 483.175c6.588 6.588 17.268 6.588 23.857 0s6.588-17.268 0-23.857l-483.175-483.175c-3.29-3.29-7.609-4.943-11.928-4.943z" />
<glyph unicode="&#xe9d7;" d="M875.84 597.096l107.381 107.372c0 0 53.678 53.686 0 107.372l-107.381 107.372c0 0-53.686 53.686-107.372 0l-107.372-107.372z" />
<glyph unicode="&#xe9d8;" d="M875.84 580.224c-4.319 0-8.63 1.645-11.928 4.943-6.588 6.588-6.588 17.268 0 23.857l107.381 107.372c4.176 4.26 40.172 43.335 0 83.507l-107.381 107.381c-4.269 4.176-43.344 40.18-83.507 0l-107.381-107.372c-6.588-6.588-17.268-6.588-23.857 0s-6.588 17.268 0 23.857l107.381 107.372c33.82 33.845 68.196 31.837 91.082 24.211 23.241-7.744 38.485-22.541 40.146-24.211l107.381-107.372c51.898-51.898 22.693-108.536 0-131.229l-107.381-107.372c-3.298-3.29-7.618-4.943-11.937-4.943z" />
<glyph unicode="&#xe9d9;" d="M338.988 43.364c-4.319 0-8.63 1.645-11.928 4.943-6.588 6.588-6.588 17.268 0 23.857l483.166 483.175c6.588 6.588 17.268 6.588 23.857 0s6.588-17.268 0-23.857l-483.166-483.175c-3.29-3.29-7.618-4.943-11.928-4.943z" />
<glyph unicode="&#xe9da;" d="M580.567 838.683c14.83 14.822 38.856 14.822 53.686 0l268.43-268.43c14.822-14.822 14.822-38.856 0-53.686v0c-14.83-14.822-38.864-14.822-53.686 0l-268.43 268.43c-14.822 14.83-14.822 38.864 0 53.686v0z" />
<glyph unicode="&#xe9db;" d="M875.84 488.585c-14.645 0-28.412 5.703-38.771 16.062l-268.43 268.43c-21.377 21.377-21.377 56.166 0 77.543 10.359 10.359 24.127 16.062 38.78 16.062 14.636 0 28.412-5.703 38.771-16.054l268.43-268.43c21.377-21.377 21.377-56.166 0-77.543-10.359-10.376-24.127-16.070-38.78-16.070zM607.418 832.93c-5.635 0-10.933-2.193-14.923-6.175-8.225-8.217-8.225-21.604 0-29.821l268.43-268.43c7.972-7.963 21.857-7.972 29.829 0 8.225 8.217 8.225 21.604 0 29.821l-268.43 268.43c-3.982 3.982-9.279 6.175-14.906 6.175z" />
<glyph unicode="&#xe9dc;" d="M816.19 639.875c-4.319 0-8.63 1.645-11.928 4.943-6.588 6.588-6.588 17.268 0 23.857l77.551 77.543c6.588 6.588 17.268 6.588 23.857 0s6.588-17.268 0-23.857l-77.551-77.543c-3.298-3.29-7.609-4.943-11.928-4.943z" />
<glyph unicode="&#xe9dd;" d="M16.872-47.128l143.166 47.722-95.444 95.435z" />
<glyph unicode="&#xe9de;" d="M852.819-63.207h-835.154c-9.313 0-16.872 7.559-16.872 16.872s7.559 16.872 16.872 16.872h835.154c9.313 0 16.872-7.559 16.872-16.872s-7.559-16.872-16.872-16.872z" />
<glyph unicode="&#xe9df;" horiz-adv-x="918" d="M181.035 338.553c10.847-61.828-17.214-118.415-62.675-126.39s-91.108 35.681-101.954 97.509c-10.847 61.828 17.214 118.415 62.675 126.39s91.108-35.681 101.954-97.509z" />
<glyph unicode="&#xe9e0;" horiz-adv-x="918" d="M107.557 197.136c-48.873 0-94.035 47.342-105.044 110.126-12.174 69.397 21.088 133.423 74.139 142.732 4.362 0.762 8.815 1.15 13.233 1.15 48.881 0 94.042-47.335 105.052-110.119 5.759-32.846 1.687-65.558-11.476-92.101-13.882-28.004-36.142-45.987-62.664-50.631-4.355-0.762-8.808-1.157-13.24-1.157zM89.885 422.907c-2.795 0-5.604-0.24-8.356-0.727-37.723-6.62-60.695-55.987-51.217-110.048 8.674-49.466 41.887-86.772 77.245-86.772 2.795 0 5.611 0.247 8.363 0.734 17.453 3.063 32.458 15.618 42.246 35.365 10.509 21.201 13.692 47.723 8.97 74.683-8.674 49.466-41.887 86.765-77.252 86.765z" />
<glyph unicode="&#xe9e1;" horiz-adv-x="918" d="M900.241 299.179c-13.47-61.307-60.933-102.977-106.012-93.073s-70.701 67.633-57.231 128.94c13.47 61.307 60.933 102.977 106.012 93.073s70.701-67.633 57.231-128.94z" />
<glyph unicode="&#xe9e2;" horiz-adv-x="918" d="M807.63 190.502c-5.526 0-11.066 0.607-16.465 1.793-26.296 5.773-47.765 24.687-60.434 53.256-12.026 27.087-14.701 59.94-7.537 92.503 13.445 61.189 58.182 105.609 106.364 105.609 5.533 0 11.073-0.607 16.472-1.793 26.296-5.773 47.758-24.687 60.434-53.249 12.019-27.087 14.694-59.94 7.53-92.503-13.445-61.196-58.182-105.616-106.364-105.616zM829.558 415.433c-34.469 0-68.345-35.873-78.797-83.441-5.879-26.727-3.825-53.362 5.766-74.986 8.949-20.142 23.396-33.34 40.708-37.144 3.402-0.741 6.909-1.129 10.403-1.129 34.469 0 68.345 35.873 78.797 83.448 5.879 26.727 3.825 53.362-5.766 74.986-8.949 20.142-23.389 33.333-40.701 37.137-3.409 0.741-6.909 1.129-10.41 1.129z" />
<glyph unicode="&#xe9e3;" horiz-adv-x="918" d="M839.812 394.74c0-210.477-170.63-444.625-381.107-444.625s-381.107 234.148-381.107 444.625 170.63 381.107 381.107 381.107 381.107-170.63 381.107-381.107z" />
<glyph unicode="&#xe9e4;" horiz-adv-x="918" d="M700.807 671.911c0 0 202.996-500.394-242.109-721.789 0 0 364.642 23.53 396.415 502.052l-154.306 219.737z" />
<glyph unicode="&#xe9e5;" horiz-adv-x="918" d="M164.053 629.404c0 0-18.152-546.741 233.4-672.612 0 0-282.88 20.297-313.207 495.051 0 0 58.5 161.441 79.807 177.561z" />
<glyph unicode="&#xe9e6;" horiz-adv-x="918" d="M458.705-64c-222.581 0-395.222 246.598-395.222 458.74 0 217.923 177.3 395.222 395.222 395.222 217.93 0 395.222-177.3 395.222-395.222 0-212.136-172.642-458.74-395.222-458.74zM458.705 761.732c-202.361 0-366.992-164.631-366.992-366.992 0-199.086 160.312-430.51 366.992-430.51s366.992 231.424 366.992 430.51c0 202.361-164.638 366.992-366.992 366.992z" />
<glyph unicode="&#xe9e7;" horiz-adv-x="918" d="M460.462 254.754c-30.658 0-53.687 10.001-55.134 10.643-7.121 3.162-10.332 11.504-7.163 18.632 3.162 7.114 11.49 10.304 18.597 7.185 0.741-0.325 42.938-18.187 83.844-0.021 7.135 3.197 15.463-0.042 18.632-7.163 3.169-7.128-0.042-15.463-7.163-18.632-17.954-7.982-35.796-10.643-51.612-10.643z" />
<glyph unicode="&#xe9e8;" horiz-adv-x="918" d="M65.261 302.992c-4.743 0-9.372 2.385-12.040 6.726-4.079 6.634-2.004 15.336 4.637 19.415l14.412 8.857c6.641 4.072 15.336 2.011 19.415-4.637 4.079-6.634 2.004-15.336-4.637-19.415l-14.412-8.857c-2.308-1.412-4.856-2.089-7.375-2.089z" />
<glyph unicode="&#xe9e9;" horiz-adv-x="918" d="M855.981 302.992c-2.52 0-5.074 0.678-7.375 2.089l-14.412 8.857c-6.641 4.079-8.716 12.781-4.637 19.415 4.079 6.655 12.781 8.709 19.415 4.637l14.412-8.857c6.641-4.079 8.716-12.781 4.637-19.415-2.668-4.34-7.297-6.726-12.040-6.726z" />
<glyph unicode="&#xe9ea;" horiz-adv-x="918" d="M345.784 472.373c0 0-45.874 37.221-116.449 7.142z" />
<glyph unicode="&#xe9eb;" horiz-adv-x="918" d="M345.777 458.258c-3.098 0-6.218 1.016-8.822 3.098-1.757 1.376-40.884 31.258-102.087 5.166-7.17-3.042-15.463 0.282-18.519 7.453s0.282 15.463 7.453 18.519c77.52 33.029 128.737-7.432 130.875-9.161 6.048-4.912 6.98-13.805 2.068-19.853-2.795-3.437-6.867-5.223-10.967-5.223z" />
<glyph unicode="&#xe9ec;" horiz-adv-x="918" d="M571.626 472.373c0 0 45.874 30.086 116.449 0z" />
<glyph unicode="&#xe9ed;" horiz-adv-x="918" d="M688.068 458.251c-1.849 0-3.719 0.367-5.526 1.136-62.883 26.812-102.779 1.44-103.174 1.179-6.514-4.27-15.265-2.456-19.549 4.065-4.27 6.514-2.456 15.273 4.065 19.542 2.124 1.404 53.080 33.862 129.725 1.179 7.178-3.056 10.509-11.349 7.453-18.519-2.294-5.357-7.509-8.575-12.993-8.582z" />
<glyph unicode="&#xe9ee;" horiz-adv-x="918" d="M318.14 414.148c0-17.863-14.481-32.345-32.345-32.345s-32.345 14.481-32.345 32.345c0 17.863 14.481 32.345 32.345 32.345s32.345-14.481 32.345-32.345z" />
<glyph unicode="&#xe9ef;" horiz-adv-x="918" d="M649.851 414.148c0-17.867-14.484-32.352-32.352-32.352s-32.352 14.484-32.352 32.352c0 17.867 14.484 32.352 32.352 32.352s32.352-14.484 32.352-32.352z" />
<glyph unicode="&#xe9f0;" horiz-adv-x="918" d="M613.971 855.831c0 0 197.569 42.345 234.967-174.088 0 0 23.516-106.16-13.656-228.7 0 0-86.476 252.222-257.621 253.274 0 0.007-29.557 43.651 36.311 149.514z" />
<glyph unicode="&#xe9f1;" horiz-adv-x="918" d="M733.384 844.242c0 0 79.164-115.306 32.811-258.602l63.525-117.932c0 0 50.066 112.617 26.55 204.21 0-0.007-36.939 157.461-122.886 172.324z" />
<glyph unicode="&#xe9f2;" horiz-adv-x="918" d="M835.281 438.935c-6.020 0-11.384 3.825-13.353 9.535-0.833 2.428-85.29 242.765-244.36 243.746-4.651 0.028-8.984 2.35-11.603 6.197-3.55 5.244-32.719 54.421 36.015 164.878 2.026 3.254 5.279 5.54 9.027 6.345 0.699 0.148 17.376 3.663 41.887 3.663 53.306 0 180.447-18.427 209.948-189.149 0.868-3.832 23.756-110.549-14.052-235.193-1.779-5.858-7.135-9.902-13.254-10.015-0.085 0-0.169-0.007-0.254-0.007zM587.279 720.142c131.623-7.396 212.333-149.916 244.876-221.939 20.375 99.533 3.197 179.586 2.992 180.49-25.040 144.842-124.926 166.375-182.254 166.375-13.487 0-24.13-1.179-30.235-2.068-42.303-70.138-39.106-108.771-35.379-122.858z" />
<glyph unicode="&#xe9f3;" horiz-adv-x="918" d="M618.643 749.784c0 0 66.863 167.214-159.938 195.445 0 0-306.643 23.523-374.459-211.726 0 0-126.626-76.024-6.648-296.791 0 0 23.523 172.105 127.036 202.686 0 0.007 359.052-14.404 414.010 110.387z" />
<glyph unicode="&#xe9f4;" horiz-adv-x="918" d="M77.598 453.050c0 0-49.403 169.882 68.225 235.757 0 0 108.545 230.513 312.882 256.422 0 0-259.591 32.938-374.459-211.726 0 0-105.454-128.045-6.648-280.453z" />
<glyph unicode="&#xe9f5;" horiz-adv-x="918" d="M175.648 761.747c-2.879 0-5.78 0.875-8.278 2.696-6.302 4.573-7.707 13.381-3.141 19.691 2.329 3.218 58.182 78.988 153.699 94.67 7.65 1.277 14.948-3.952 16.211-11.645s-3.952-14.948-11.645-16.211c-83.773-13.755-134.919-82.7-135.42-83.392-2.767-3.797-7.072-5.808-11.426-5.808z" />
<glyph unicode="&#xe9f6;" horiz-adv-x="918" d="M463.37 109.855c-68.825 0-120.91 50.899-121.686 51.675-5.512 5.512-5.512 14.447 0 19.959 5.498 5.512 14.433 5.512 19.945 0.014 4.065-4.030 98.608-95.524 194.139-0.014 5.512 5.512 14.447 5.512 19.959 0s5.512-14.447 0-19.959c-38.76-38.753-77.682-51.675-112.356-51.675z" />
<glyph unicode="&#xe9f7;" horiz-adv-x="918" d="M491.198 41.701c-3.613 0-7.22 1.376-9.979 4.136-21.151 21.13-41.273 3.656-45.105-0.071-5.561-5.413-14.468-5.35-19.923 0.176-5.441 5.519-5.448 14.362 0.035 19.853 17.079 17.079 53.814 31.152 84.952 0 5.512-5.512 5.512-14.447 0-19.959-2.752-2.759-6.366-4.136-9.979-4.136z" />
<glyph unicode="&#xe9f8;" horiz-adv-x="918" d="M77.591 422.596c-5.103 0-9.895 2.781-12.393 7.375-111.072 204.379-16.515 294.116 6.888 312.148 61.711 202.086 293.558 217.88 363.583 217.88 14.877 0 23.742-0.67 24.116-0.699 81.529-10.128 136.316-38.605 163.537-84.698 35.619-60.335 9.556-127.24 8.427-130.063-47.617-108.129-291.081-119.759-393.578-119.759 0 0 0 0-0.007 0-15.879 0-26.981 0.289-31.646 0.438-91.734-29.416-114.706-188.803-114.932-190.412-0.833-6.041-5.448-10.869-11.454-11.963-0.854-0.169-1.701-0.247-2.541-0.247zM435.669 931.77c-65.586 0-283.784-14.581-337.866-202.177-0.988-3.423-3.239-6.352-6.302-8.194-4.312-2.661-100.175-64.569-19.5-241.975 14.27 55.493 49.727 150.206 128.617 173.51 1.475 0.445 2.999 0.628 4.566 0.572 0.127-0.007 12.661-0.494 32.966-0.494 75.643 0 325.684 7.382 367.564 102.461 0.021 0.085 21.794 56.764-6.853 105.002-22.577 38.033-70.321 61.831-141.885 70.745 0.007 0 0 0 0 0-0.226 0-8.278 0.55-21.307 0.55z" />
<glyph unicode="&#xe9f9;" horiz-adv-x="1026" d="M334.803 274.365c0-88.519-71.759-160.278-160.278-160.278s-160.278 71.759-160.278 160.278c0 88.519 71.759 160.278 160.278 160.278s160.278-71.759 160.278-160.278z" />
<glyph unicode="&#xe9fa;" horiz-adv-x="1026" d="M174.525 99.84c-96.231 0-174.525 78.287-174.525 174.525s78.294 174.525 174.525 174.525 174.525-78.287 174.525-174.525-78.294-174.525-174.525-174.525zM174.525 420.397c-80.524 0-146.031-65.508-146.031-146.031s65.508-146.031 146.031-146.031 146.031 65.508 146.031 146.031-65.508 146.031-146.031 146.031z" />
<glyph unicode="&#xe9fb;" horiz-adv-x="1026" d="M221.277 314.435h40.070v-40.070h-40.070v40.070z" />
<glyph unicode="&#xe9fc;" horiz-adv-x="1026" d="M132.233 314.435h40.070v-40.070h-40.070v40.070z" />
<glyph unicode="&#xe9fd;" horiz-adv-x="1026" d="M1011.534 78.47c0-70.815-57.407-128.223-128.223-128.223s-128.223 57.407-128.223 128.223c0 70.815 57.407 128.223 128.223 128.223s128.223-57.407 128.223-128.223z" />
<glyph unicode="&#xe9fe;" horiz-adv-x="1026" d="M883.311-64c-78.558 0-142.47 63.912-142.47 142.47s63.912 142.47 142.47 142.47 142.47-63.912 142.47-142.47-63.912-142.47-142.47-142.47zM883.311 192.445c-62.843 0-113.976-51.132-113.976-113.976s51.132-113.976 113.976-113.976 113.976 51.132 113.976 113.976-51.132 113.976-113.976 113.976z" />
<glyph unicode="&#xe9ff;" horiz-adv-x="1026" d="M949.011 641.224h-500.232v-340.338h443.244l56.988-44.329v101.317z" />
<glyph unicode="&#xea00;" horiz-adv-x="1026" d="M892.023 300.886l-443.244 340.338v-340.338z" />
<glyph unicode="&#xea01;" horiz-adv-x="1026" d="M949.011 242.31c-3.113 0-6.197 1.019-8.748 2.999l-53.134 41.33h-438.35c-7.864 0-14.247 6.383-14.247 14.247v340.338c0 7.864 6.383 14.247 14.247 14.247h500.232c7.864 0 14.247-6.383 14.247-14.247v-384.668c0-5.442-3.106-10.407-7.985-12.801-1.995-0.969-4.139-1.446-6.262-1.446zM463.026 315.133h428.997c3.163 0 6.247-1.054 8.748-2.999l33.993-26.442v341.286h-471.738v-311.845z" />
<glyph unicode="&#xea02;" horiz-adv-x="1026" d="M835.035 495.592h-193.922c-7.864 0-14.247 6.383-14.247 14.247s6.383 14.247 14.247 14.247h193.922c7.864 0 14.247-6.383 14.247-14.247s-6.383-14.247-14.247-14.247z" />
<glyph unicode="&#xea03;" horiz-adv-x="1026" d="M835.035 413.273h-8.712c-7.864 0-14.247 6.383-14.247 14.247s6.383 14.247 14.247 14.247h8.712c7.864 0 14.247-6.383 14.247-14.247s-6.383-14.247-14.247-14.247z" />
<glyph unicode="&#xea04;" horiz-adv-x="1026" d="M769.336 413.273h-192.334c-7.864 0-14.247 6.383-14.247 14.247s6.383 14.247 14.247 14.247h192.334c7.864 0 14.247-6.383 14.247-14.247s-6.383-14.247-14.247-14.247z" />
<glyph unicode="&#xea05;" horiz-adv-x="1026" d="M813.857 110.525h32.056v-32.056h-32.056v32.056z" />
<glyph unicode="&#xea06;" horiz-adv-x="1026" d="M885.092 110.525h32.056v-32.056h-32.056v32.056z" />
<glyph unicode="&#xea07;" horiz-adv-x="1026" d="M269.987 403.115c0 0-1.532-58.099-117.723-53.063 0 0-111.304 20.038-138.017-75.687 0 0 36.9 245.005 255.74 128.75z" />
<glyph unicode="&#xea08;" horiz-adv-x="1026" d="M957.901 188.77c0 0-1.225-46.474-94.18-42.449 0 0-89.043 16.028-110.414-60.55 0 0 29.52 196.010 204.593 102.998z" />
<glyph unicode="&#xea09;" horiz-adv-x="1026" d="M156.717 945.753h562.755v-382.887h-498.643l-64.111-49.864v113.976z" />
<glyph unicode="&#xea0a;" horiz-adv-x="1026" d="M220.828 562.866l498.643 382.887v-382.887z" />
<glyph unicode="&#xea0b;" horiz-adv-x="1026" d="M156.717 498.755c-2.13 0-4.267 0.477-6.254 1.453-4.894 2.386-7.993 7.351-7.993 12.794v432.751c0 7.864 6.383 14.247 14.247 14.247h562.755c7.864 0 14.247-6.383 14.247-14.247v-382.887c0-7.864-6.383-14.247-14.247-14.247h-493.757l-60.25-46.865c-2.55-1.98-5.635-2.999-8.748-2.999zM170.963 931.506v-389.376l41.117 31.977c2.5 1.945 5.578 2.999 8.748 2.999h484.397v354.4h-534.261z" />
<glyph unicode="&#xea0c;" horiz-adv-x="1026" d="M566.317 783.694h-281.377c-7.864 0-14.247 6.383-14.247 14.247s6.383 14.247 14.247 14.247h281.377c7.864 0 14.247-6.383 14.247-14.247s-6.383-14.247-14.247-14.247z" />
<glyph unicode="&#xea0d;" horiz-adv-x="1026" d="M413.162 691.089h-128.223c-7.864 0-14.247 6.383-14.247 14.247s6.383 14.247 14.247 14.247h128.223c7.864 0 14.247-6.383 14.247-14.247s-6.383-14.247-14.247-14.247z" />
<glyph unicode="&#xea0e;" horiz-adv-x="1026" d="M541.384 691.089h-64.111c-7.864 0-14.247 6.383-14.247 14.247s6.383 14.247 14.247 14.247h64.111c7.864 0 14.247-6.383 14.247-14.247s-6.383-14.247-14.247-14.247z" />
<glyph unicode="&#xea0f;" horiz-adv-x="1065" d="M532.48 321.024l-516.096 294.912 442.368 294.912c0 0 73.728 73.728 147.456 0l442.368-294.912-516.096-294.912z" />
<glyph unicode="&#xea10;" horiz-adv-x="1065" d="M532.48 304.64c-2.81 0-5.612 0.721-8.126 2.163l-516.096 294.912c-4.932 2.818-8.053 7.987-8.249 13.656-0.188 5.677 2.564 11.051 7.291 14.197l441.18 294.117c7.102 6.636 41.443 36.315 86.729 36.315 29.401 0 56.787-12.247 81.404-36.397l441.057-294.035c4.727-3.146 7.479-8.52 7.291-14.197-0.197-5.677-3.318-10.846-8.249-13.656l-516.096-294.912c-2.523-1.442-5.325-2.163-8.135-2.163zM47.53 617.009l484.95-277.111 484.95 277.111-420.307 280.207c-0.893 0.598-1.737 1.286-2.499 2.048-18.563 18.555-38.552 27.967-59.417 27.967-35.897 0-64.594-27.689-64.872-27.967-0.762-0.762-1.597-1.45-2.499-2.048l-420.307-280.207z" />
<glyph unicode="&#xea11;" horiz-adv-x="1065" d="M163.84 837.12h737.28v-737.28h-737.28v737.28z" />
<glyph unicode="&#xea12;" horiz-adv-x="1065" d="M901.12 83.456h-737.28c-9.044 0-16.384 7.34-16.384 16.384v737.28c0 9.044 7.34 16.384 16.384 16.384h737.28c9.044 0 16.384-7.34 16.384-16.384v-737.28c0-9.044-7.34-16.384-16.384-16.384zM180.224 116.224h704.512v704.512h-704.512v-704.512z" />
<glyph unicode="&#xea13;" horiz-adv-x="1065" d="M16.384 615.936v-663.552h1032.192v663.552l-516.096-294.912z" />
<glyph unicode="&#xea14;" horiz-adv-x="1065" d="M16.384-47.616l516.096 368.64 516.096-368.64z" />
<glyph unicode="&#xea15;" horiz-adv-x="1065" d="M606.208 673.28h-294.912c-9.044 0-16.384 7.34-16.384 16.384s7.34 16.384 16.384 16.384h294.912c9.044 0 16.384-7.34 16.384-16.384s-7.34-16.384-16.384-16.384z" />
<glyph unicode="&#xea16;" horiz-adv-x="1065" d="M753.664 558.592h-442.368c-9.044 0-16.384 7.34-16.384 16.384s7.34 16.384 16.384 16.384h442.368c9.044 0 16.384-7.34 16.384-16.384s-7.34-16.384-16.384-16.384z" />
<glyph unicode="&#xea17;" horiz-adv-x="1065" d="M16.384-47.616l516.096 368.64 49.152-32.768-475.136-335.872z" />
<glyph unicode="&#xea18;" horiz-adv-x="1065" d="M532.48 321.024l516.096 294.912v-73.728l-516.096-294.912z" />
<glyph unicode="&#xea19;" horiz-adv-x="1065" d="M595.493 352.481l453.083-326.369 3.834-73.728-519.93 361.824z" />
<glyph unicode="&#xea1a;" horiz-adv-x="1065" d="M16.384 615.936l516.096-221.184 516.096 221.184-516.096-294.912z" />
<glyph unicode="&#xea1b;" horiz-adv-x="1065" d="M16.384-47.616v663.552l516.096-294.912-40.96-31.597-425.984 236.397-8.192-532.48z" />
<glyph unicode="&#xea1c;" horiz-adv-x="1065" d="M1048.74-64c-0.041-0.008-0.106 0-0.164 0h-1032.192c-7.127 0-13.427 4.604-15.606 11.387-2.171 6.783 0.287 14.189 6.078 18.334l516.096 368.64c5.693 4.063 13.345 4.063 19.038 0l514.753-367.682c4.989-2.81 8.364-8.159 8.364-14.295 0.016-9.044-7.315-16.384-16.368-16.384zM67.51-31.232h929.939l-464.97 332.12-464.97-332.12z" />
<glyph unicode="&#xea1d;" horiz-adv-x="1065" d="M1048.576-64h-1032.192c-9.044 0-16.384 7.34-16.384 16.384v663.552c0 5.841 3.105 11.239 8.159 14.172 5.063 2.916 11.28 2.949 16.351 0.049l507.97-290.259 507.97 290.267c5.063 2.9 11.289 2.884 16.351-0.049 5.046-2.941 8.159-8.339 8.159-14.18v-663.552c0-9.044-7.34-16.384-16.384-16.384zM32.768-31.232h999.424v618.938l-491.586-280.904c-5.038-2.884-11.215-2.884-16.253 0l-491.586 280.904v-618.938z" />
<glyph unicode="&#xea1e;" d="M47.262-64h-31.508c-8.696 0-15.754 7.058-15.754 15.754s7.058 15.754 15.754 15.754h31.508c8.696 0 15.754-7.058 15.754-15.754s-7.058-15.754-15.754-15.754z" />
<glyph unicode="&#xea1f;" d="M220.554-64h-118.154c-8.696 0-15.754 7.058-15.754 15.754s7.058 15.754 15.754 15.754h118.154c8.696 0 15.754-7.058 15.754-15.754s-7.058-15.754-15.754-15.754z" />
<glyph unicode="&#xea20;" d="M1008.246-64h-645.908c-8.696 0-15.754 7.058-15.754 15.754s7.058 15.754 15.754 15.754h645.908c8.696 0 15.754-7.058 15.754-15.754s-7.058-15.754-15.754-15.754z" />
<glyph unicode="&#xea21;" d="M622.277 873.354c0 0 0-47.852 0-106.338 0-106.338 0-106.338 70.892-177.231 38.991-38.991 70.892-70.892 70.892-141.785 0-38.991 0-70.892 0-70.892v-354.462c0 0 0-70.892-70.892-70.892h-354.462c-70.892 0-70.892 70.892-70.892 70.892v354.462c0 0 0 31.902 0 70.892 0 70.892 31.902 102.794 70.892 141.785 70.892 70.892 70.892 70.892 70.892 177.231 0 58.486 0 106.338 0 106.338z" />
<glyph unicode="&#xea22;" d="M693.169 589.785c38.991-38.991 70.892-70.892 70.892-141.785 0-38.991 0-70.892 0-70.892v-354.462c0 0 0-70.892-70.892-70.892h-354.462c-70.892 0-70.892 70.892-70.892 70.892v354.462c0 0 0 31.902 0 70.892 0 70.892 31.902 102.794 70.892 141.785z" />
<glyph unicode="&#xea23;" d="M401.723-48.246c-70.892 0-70.892 70.892-70.892 70.892v354.462c0 0 0 31.902 0 70.892 0 70.892 31.902 102.794 70.892 141.785 70.892 70.892 70.892 70.892 70.892 177.231 0 58.486 0 106.338 0 106.338h-70.892l-0.67-161.138-9.177-37.092-22.528-45.505-33.926-35.233-52.303-59.802c0 0-23.182-44.576-23.182-86.583s0-430.608 0-430.608 6.561-69.585 77.454-70.892l64.331 5.254z" />
<glyph unicode="&#xea24;" d="M630.154-48.246c70.892 0 70.892 70.892 70.892 70.892v354.462c0 0 0 31.902 0 70.892 0 70.892-31.902 102.794-70.892 141.785-70.892 70.892-70.892 70.892-70.892 177.231 0 58.486 0 106.338 0 106.338h70.892l0.67-161.138 9.177-37.092 22.52-45.505 33.934-35.233 52.303-59.802c0 0 23.182-44.576 23.182-86.583s0-430.608 0-430.608-6.569-69.585-77.462-70.892l-64.323 5.254z" />
<glyph unicode="&#xea25;" d="M693.169-64h-354.462c-68.537 0-86.646 56.674-86.646 86.646v425.354c0 77.422 34.989 112.412 75.508 152.923 66.276 66.284 66.276 66.284 66.276 166.093v106.338c0 8.696 7.058 15.754 15.754 15.754s15.754-7.058 15.754-15.754v-106.338c0-110.757-1.41-114.278-75.508-188.369-38.479-38.479-66.276-66.284-66.276-130.647v-425.354c0.055-5.577 2.087-55.138 55.138-55.138h354.462c53.595 0 55.138 49.491 55.138 55.138v425.354c0 64.362-27.798 92.168-66.276 130.647-74.098 74.090-75.508 77.611-75.508 188.369v106.338c0 8.696 7.058 15.754 15.754 15.754s15.754-7.058 15.754-15.754v-106.338c0-99.808 0-99.808 66.276-166.093 40.519-40.511 75.508-75.5 75.508-152.923v-425.354c0-29.972-18.109-86.646-86.646-86.646z" />
<glyph unicode="&#xea26;" d="M362.338 908.8c0-19.495 17.723-35.446 39.385-35.446h228.431c21.662 0 39.385 15.951 39.385 35.446s-17.723 35.446-39.385 35.446h-228.431c-21.662 0-39.385-15.951-39.385-35.446z" />
<glyph unicode="&#xea27;" d="M630.154 857.6h-228.431c-30.405 0-55.138 22.969-55.138 51.2s24.734 51.2 55.138 51.2h228.431c30.397 0 55.138-22.969 55.138-51.2s-24.741-51.2-55.138-51.2zM401.723 928.492c-12.808 0-23.631-9.019-23.631-19.692s10.823-19.692 23.631-19.692h228.431c12.808 0 23.631 9.019 23.631 19.692s-10.823 19.692-23.631 19.692h-228.431z" />
<glyph unicode="&#xea28;" d="M434.215 893.046h-34.462c-8.696 0-15.754 7.058-15.754 15.754s7.058 15.754 15.754 15.754h34.462c8.696 0 15.754-7.058 15.754-15.754s-7.058-15.754-15.754-15.754z" />
<glyph unicode="&#xea29;" d="M653.785 150.646c-8.696 0-15.754 7.058-15.754 15.754v314.423c0 63.244-48.813 89.49-49.31 89.75-7.712 4.033-10.689 13.548-6.664 21.26 4.041 7.704 13.548 10.697 21.26 6.664 2.71-1.418 66.221-35.564 66.221-117.673v-314.423c0-8.696-7.058-15.754-15.754-15.754z" />
<glyph unicode="&#xea2a;" d="M693.169 574.031h-354.462c-8.696 0-15.754 7.058-15.754 15.754s7.058 15.754 15.754 15.754h354.462c8.696 0 15.754-7.058 15.754-15.754s-7.058-15.754-15.754-15.754z" />
<glyph unicode="&#xea2b;" d="M462.115 692.185c-8.696 0-15.754 7.058-15.754 15.754v106.338c0 8.696 7.058 15.754 15.754 15.754s15.754-7.058 15.754-15.754v-106.338c0-8.696-7.058-15.754-15.754-15.754z" />
<glyph unicode="&#xea2c;" horiz-adv-x="919" d="M181.151 338.812c10.854-61.868-17.225-118.491-62.716-126.472s-91.166 35.704-102.020 97.572c-10.854 61.868 17.225 118.491 62.716 126.472s91.166-35.704 102.020-97.572z" />
<glyph unicode="&#xea2d;" horiz-adv-x="919" d="M107.626 197.304c-48.905 0-94.095 47.372-105.112 110.197-12.182 69.441 21.101 133.508 74.187 142.823 4.364 0.763 8.821 1.151 13.241 1.151 48.912 0 94.102-47.365 105.119-110.189 5.763-32.867 1.688-65.6-11.483-92.16-13.891-28.022-36.165-46.016-62.704-50.663-4.357-0.763-8.813-1.158-13.248-1.158zM89.942 423.219c-2.797 0-5.607-0.24-8.361-0.727-37.747-6.624-60.734-56.023-51.249-110.119 8.679-49.498 41.913-86.828 77.294-86.828 2.797 0 5.614 0.247 8.369 0.734 17.464 3.065 32.478 15.628 42.274 35.388 10.515 21.214 13.7 47.754 8.976 74.731-8.679 49.498-41.913 86.821-77.301 86.821z" />
<glyph unicode="&#xea2e;" horiz-adv-x="919" d="M900.819 299.412c-13.479-61.347-60.972-103.043-106.080-93.132s-70.747 67.676-57.268 129.023c13.479 61.347 60.972 103.043 106.080 93.132s70.747-67.676 57.268-129.023z" />
<glyph unicode="&#xea2f;" horiz-adv-x="919" d="M808.148 190.665c-5.53 0-11.073 0.607-16.476 1.794-26.313 5.777-47.796 24.703-60.472 53.29-12.034 27.104-14.71 59.978-7.542 92.563 13.453 61.228 58.22 105.677 106.432 105.677 5.537 0 11.080-0.607 16.483-1.794 26.313-5.777 47.789-24.703 60.472-53.283 12.027-27.104 14.703-59.978 7.535-92.563-13.453-61.242-58.22-105.684-106.432-105.684zM830.090 415.74c-34.491 0-68.389-35.896-78.848-83.495-5.883-26.744-3.828-53.396 5.77-75.034 8.955-20.155 23.411-33.361 40.734-37.168 3.404-0.742 6.914-1.13 10.409-1.13 34.491 0 68.389 35.896 78.848 83.502 5.883 26.744 3.828 53.396-5.77 75.034-8.955 20.155-23.404 33.354-40.727 37.161-3.411 0.742-6.914 1.13-10.417 1.13z" />
<glyph unicode="&#xea30;" horiz-adv-x="919" d="M840.351 395.034c0-210.612-170.74-444.91-381.352-444.91s-381.352 234.298-381.352 444.91 170.74 381.352 381.352 381.352 381.352-170.74 381.352-381.352z" />
<glyph unicode="&#xea31;" horiz-adv-x="919" d="M733.855 505.895c0 0 87.669-431.005-274.856-555.771 0 0 364.876 23.545 381.352 487.283l-106.496 68.488z" />
<glyph unicode="&#xea32;" horiz-adv-x="919" d="M172.138 571.184c0 0-26.151-488.427 225.57-614.379 0 0-283.062 20.311-313.408 495.369 0 0 66.518 102.88 87.838 119.010z" />
<glyph unicode="&#xea33;" horiz-adv-x="919" d="M458.999-64c-222.724 0-395.476 246.756-395.476 459.034 0 218.063 177.413 395.476 395.476 395.476 218.070 0 395.476-177.413 395.476-395.476 0-212.279-172.752-459.034-395.476-459.034zM458.999 762.262c-202.491 0-367.228-164.737-367.228-367.228 0-199.214 160.415-430.786 367.228-430.786s367.228 231.572 367.228 430.786c0 202.491-164.744 367.228-367.228 367.228z" />
<glyph unicode="&#xea34;" horiz-adv-x="919" d="M77.647 437.407c0 0 0 381.352 572.028 508.469l-63.559-190.676 190.676 63.559c0 0 63.559-190.676 63.559-381.352 0 0-572.028 444.91-762.703 0z" />
<glyph unicode="&#xea35;" horiz-adv-x="919" d="M766.199 815.228c0 0 8.99-221.735-70.536-284.771l144.688-93.050c0 0-17.655 310.731-74.152 377.821z" />
<glyph unicode="&#xea36;" horiz-adv-x="919" d="M84.3 488.692c0 0 45.388 323.824 551.668 454.063 0 0-274.39-86.609-363.393-318.93 0.007 0-128.65-35.607-188.275-135.133z" />
<glyph unicode="&#xea37;" horiz-adv-x="919" d="M77.654 423.283c-0.939 0-1.9 0.092-2.846 0.29-6.568 1.342-11.285 7.133-11.285 13.835 0 4.061 0.84 100.79 73.749 214.207 66.666 103.714 209.157 241.339 509.338 308.047 4.951 1.109 10.148-0.551 13.552-4.329s4.52-9.096 2.91-13.926l-54.625-163.882 163.875 54.625c7.422 2.465 15.409-1.54 17.867-8.934 0.643-1.921 63.834-193.698 64.286-383.795 0.092-0.664 0.141-1.328 0.141-2.020 0-7.797-6.321-14.124-14.124-14.124-0.049 0-0.106 0-0.155 0-3.079 0.007-6.13 1.017-8.651 2.973-2.507 1.956-253.133 194.772-471.556 194.772-125.027 0-215.704-63.65-269.503-189.179-2.26-5.268-7.422-8.559-12.973-8.559zM360.13 649.269c190.867 0 397.1-134.688 465.638-183.543-4.767 147.908-44.894 291.374-58.149 335.088l-177.025-59.011c-5.085-1.681-10.678-0.374-14.456 3.411-3.785 3.785-5.106 9.378-3.411 14.449l55.586 166.75c-274.114-66.426-405.292-193.649-467.283-290.082-27.479-42.74-44.053-83.064-54.053-116.086 59.766 85.698 144.61 129.024 253.154 129.024z" />
<glyph unicode="&#xea38;" horiz-adv-x="919" d="M305.392 691.648c-3.22 0-6.455 1.095-9.11 3.333-5.953 5.035-6.709 13.933-1.681 19.887 1.822 2.161 45.473 53.34 120.67 92.499 6.907 3.609 15.452 0.918 19.053-6.003s0.911-15.452-6.003-19.053c-69.999-36.454-111.722-85.183-112.139-85.67-2.797-3.291-6.78-4.993-10.791-4.993z" />
<glyph unicode="&#xea39;" horiz-adv-x="919" d="M331.882 183.172h254.234c0 0 0-127.117-127.117-127.117 0 0-127.117 0-127.117 127.117z" />
<glyph unicode="&#xea3a;" horiz-adv-x="919" d="M458.999 41.931c-1.412 0-141.241 1.617-141.241 141.241 0 7.797 6.328 14.124 14.124 14.124h254.234c7.797 0 14.124-6.328 14.124-14.124 0-1.412-1.617-141.241-141.241-141.241zM346.62 169.048c8.722-97.704 107.965-98.869 112.379-98.869 88.777 0 107.817 68.446 111.891 98.869h-224.27z" />
<glyph unicode="&#xea3b;" horiz-adv-x="919" d="M460.623 243.059c-25.473 0-47.542 13.722-59.286 25.459-5.515 5.515-5.515 14.456 0 19.972 5.494 5.501 14.407 5.508 19.929 0.049 3.898-3.828 39.131-36.341 75.409-0.049 5.515 5.515 14.456 5.515 19.972 0s5.515-14.456 0-19.972c-18.757-18.75-38.213-25.459-56.023-25.459z" />
<glyph unicode="&#xea3c;" horiz-adv-x="919" d="M65.303 303.228c-4.746 0-9.378 2.387-12.048 6.73-4.082 6.638-2.006 15.346 4.64 19.428l14.421 8.863c6.645 4.075 15.346 2.013 19.428-4.64 4.082-6.638 2.006-15.346-4.64-19.428l-14.421-8.863c-2.309-1.412-4.859-2.090-7.38-2.090z" />
<glyph unicode="&#xea3d;" horiz-adv-x="919" d="M856.53 303.228c-2.521 0-5.078 0.678-7.38 2.090l-14.421 8.863c-6.645 4.082-8.722 12.789-4.64 19.428 4.082 6.66 12.789 8.715 19.428 4.64l14.421-8.863c6.645-4.082 8.722-12.789 4.64-19.428-2.669-4.343-7.302-6.73-12.048-6.73z" />
<glyph unicode="&#xea3e;" horiz-adv-x="919" d="M346.006 458.593c0 0-45.903 37.245-116.524 7.147z" />
<glyph unicode="&#xea3f;" horiz-adv-x="919" d="M345.999 444.469c-3.1 0-6.222 1.017-8.828 3.1-1.758 1.37-40.911 31.278-102.153 5.169-7.175-3.065-15.473 0.268-18.531 7.458-3.058 7.175 0.282 15.473 7.458 18.531 77.57 33.050 128.819-7.436 130.959-9.167 6.052-4.915 6.984-13.813 2.069-19.866-2.797-3.439-6.871-5.226-10.974-5.226z" />
<glyph unicode="&#xea40;" horiz-adv-x="919" d="M571.992 458.593c0 0 45.903 30.106 116.524 0z" />
<glyph unicode="&#xea41;" horiz-adv-x="919" d="M688.509 444.462c-1.85 0-3.722 0.367-5.53 1.137-62.923 26.822-102.845 1.441-103.24 1.179-6.518-4.28-15.275-2.458-19.562 4.068-4.273 6.525-2.458 15.282 4.068 19.555 2.126 1.405 53.114 33.877 129.808 1.179 7.182-3.058 10.515-11.356 7.458-18.531-2.295-5.367-7.514-8.58-13.001-8.587z" />
<glyph unicode="&#xea42;" horiz-adv-x="919" d="M318.344 400.331c0-17.875-14.491-32.365-32.365-32.365s-32.365 14.491-32.365 32.365c0 17.875 14.491 32.365 32.365 32.365s32.365-14.491 32.365-32.365z" />
<glyph unicode="&#xea43;" horiz-adv-x="919" d="M650.268 400.331c0-17.879-14.494-32.373-32.373-32.373s-32.373 14.494-32.373 32.373c0 17.879 14.494 32.373 32.373 32.373s32.373-14.494 32.373-32.373z" />
<glyph unicode="&#xea44;" horiz-adv-x="919" d="M531.385 90.921c0-19.26-32.804-34.872-73.269-34.872s-73.269 15.613-73.269 34.872c0 19.26 32.804 34.872 73.269 34.872s73.269-15.613 73.269-34.872z" />
<glyph unicode="&#xea45;" horiz-adv-x="919" d="M297.313 268.129c0-34.982-28.358-63.34-63.34-63.34s-63.34 28.358-63.34 63.34c0 34.982 28.358 63.34 63.34 63.34s63.34-28.358 63.34-63.34z" />
<glyph unicode="&#xea46;" horiz-adv-x="919" d="M749.286 268.129c0-34.985-28.361-63.347-63.347-63.347s-63.347 28.361-63.347 63.347c0 34.985 28.361 63.347 63.347 63.347s63.347-28.361 63.347-63.347z" />
<glyph unicode="&#xea47;" horiz-adv-x="958" d="M14.734 945.266h928.23v-198.906h-928.23v198.906z" />
<glyph unicode="&#xea48;" horiz-adv-x="958" d="M942.964 731.626h-928.23c-8.133 0-14.734 6.601-14.734 14.734v198.906c0 8.133 6.601 14.734 14.734 14.734h928.23c8.133 0 14.734-6.601 14.734-14.734v-198.906c0-8.133-6.601-14.734-14.734-14.734zM29.468 761.094h898.763v169.439h-898.763v-169.439z" />
<glyph unicode="&#xea49;" horiz-adv-x="958" d="M14.734 613.755h928.23v-331.511h-928.23v331.511z" />
<glyph unicode="&#xea4a;" horiz-adv-x="958" d="M942.964 267.511h-928.23c-8.133 0-14.734 6.601-14.734 14.734v331.511c0 8.133 6.601 14.734 14.734 14.734h928.23c8.133 0 14.734-6.601 14.734-14.734v-331.511c0-8.133-6.601-14.734-14.734-14.734zM29.468 296.978h898.763v302.043h-898.763v-302.043z" />
<glyph unicode="&#xea4b;" horiz-adv-x="958" d="M14.734 149.64h928.23v-198.906h-928.23v198.906z" />
<glyph unicode="&#xea4c;" horiz-adv-x="958" d="M942.964-64h-928.23c-8.133 0-14.734 6.601-14.734 14.734v198.906c0 8.133 6.601 14.734 14.734 14.734h928.23c8.133 0 14.734-6.601 14.734-14.734v-198.906c0-8.133-6.601-14.734-14.734-14.734zM29.468-34.532h898.763v169.439h-898.763v-169.439z" />
<glyph unicode="&#xea4d;" horiz-adv-x="958" d="M14.734 613.755h331.511v-331.511h-331.511v331.511z" />
<glyph unicode="&#xea4e;" horiz-adv-x="958" d="M346.245 267.511h-331.511c-8.133 0-14.734 6.601-14.734 14.734v331.511c0 8.133 6.601 14.734 14.734 14.734h331.511c8.133 0 14.734-6.601 14.734-14.734v-331.511c0-8.133-6.601-14.734-14.734-14.734zM29.468 296.978h302.043v302.043h-302.043v-302.043z" />
<glyph unicode="&#xea4f;" horiz-adv-x="958" d="M121.554 510.619l132.604-66.302-132.604-66.302z" />
<glyph unicode="&#xea50;" horiz-adv-x="958" d="M121.554 363.281c-2.696 0-5.378 0.744-7.743 2.203-4.346 2.682-6.991 7.426-6.991 12.531v132.604c0 5.105 2.645 9.85 6.991 12.531 4.339 2.689 9.769 2.932 14.336 0.648l132.604-66.302c4.987-2.497 8.14-7.603 8.14-13.179s-3.153-10.682-8.14-13.179l-132.604-66.302c-2.085-1.039-4.339-1.554-6.593-1.554zM136.288 486.779v-84.926l84.926 42.463-84.926 42.463z" />
<glyph unicode="&#xea51;" horiz-adv-x="958" d="M29.468 932.669h898.763v-25.784h-898.763v25.784z" />
<glyph unicode="&#xea52;" horiz-adv-x="958" d="M29.468 137.043h898.763v-25.784h-898.763v25.784z" />
<glyph unicode="&#xea53;" horiz-adv-x="958" d="M821.41 833.216h-163.914c-8.133 0-14.734 6.601-14.734 14.734s6.601 14.734 14.734 14.734h163.914c8.133 0 14.734-6.601 14.734-14.734s-6.601-14.734-14.734-14.734z" />
<glyph unicode="&#xea54;" horiz-adv-x="958" d="M554.36 833.216h-410.705c-8.133 0-14.734 6.601-14.734 14.734s6.601 14.734 14.734 14.734h410.705c8.133 0 14.734-6.601 14.734-14.734s-6.601-14.734-14.734-14.734z" />
<glyph unicode="&#xea55;" horiz-adv-x="958" d="M360.978 601.158h567.252v-40.518h-567.252v40.518z" />
<glyph unicode="&#xea56;" horiz-adv-x="958" d="M824.173 484.835h-359.137c-8.133 0-14.734 6.601-14.734 14.734s6.601 14.734 14.734 14.734h359.137c8.133 0 14.734-6.601 14.734-14.734s-6.601-14.734-14.734-14.734z" />
<glyph unicode="&#xea57;" horiz-adv-x="958" d="M669.468 381.698h-204.432c-8.133 0-14.734 6.601-14.734 14.734s6.601 14.734 14.734 14.734h204.432c8.133 0 14.734-6.601 14.734-14.734s-6.601-14.734-14.734-14.734z" />
<glyph unicode="&#xea58;" horiz-adv-x="958" d="M821.41 37.59h-421.755c-8.133 0-14.734 6.601-14.734 14.734s6.601 14.734 14.734 14.734h421.755c8.133 0 14.734-6.601 14.734-14.734s-6.601-14.734-14.734-14.734z" />
<glyph unicode="&#xea59;" horiz-adv-x="958" d="M303.885 37.59h-160.23c-8.133 0-14.734 6.601-14.734 14.734s6.601 14.734 14.734 14.734h160.23c8.133 0 14.734-6.601 14.734-14.734s-6.601-14.734-14.734-14.734z" />
</font>
</defs>
</svg>
