<?xml version="1.0" encoding="utf-8"?>
<!-- Generator: Adobe Illustrator 19.0.0, SVG Export Plug-In . SVG Version: 6.00 Build 0)  -->
<svg version="1.1" id="Calque_1" xmlns="http://www.w3.org/2000/svg" xmlns:xlink="http://www.w3.org/1999/xlink" x="0px" y="0px"
	 viewBox="-599 686 800 600" style="enable-background:new -599 686 800 600;" xml:space="preserve">
<style type="text/css">
	.st0{fill:#FFFFFF;stroke:#7F00FF;stroke-width:5;stroke-miterlimit:10;}
</style>
<path class="st0" d="M-327.5,966.7h-166.1c-1.6,0-2.9-1.3-2.9-2.9v-166c0-1.6,1.3-2.9,2.9-2.9h166.1c1.6,0,2.9,1.3,2.9,2.9v166.1
	C-324.6,965.4-325.9,966.7-327.5,966.7z"/>
<path class="st0" d="M-116,966.7h-166c-1.6,0-2.9-1.3-2.9-2.9v-166c0-1.6,1.3-2.9,2.9-2.9h166c1.6,0,2.9,1.3,2.9,2.9v166.1
	C-113.1,965.4-114.4,966.7-116,966.7z"/>
<path class="st0" d="M95.6,966.7H-70.5c-1.6,0-2.9-1.3-2.9-2.9v-166c0-1.6,1.3-2.9,2.9-2.9H95.6c1.6,0,2.9,1.3,2.9,2.9v166.1
	C98.5,965.4,97.2,966.7,95.6,966.7z"/>
<path class="st0" d="M-327.5,1177.1h-166.1c-1.6,0-2.9-1.3-2.9-2.9v-166c0-1.6,1.3-2.9,2.9-2.9h166.1c1.6,0,2.9,1.3,2.9,2.9v166.1
	C-324.6,1175.8-325.9,1177.1-327.5,1177.1z"/>
<path class="st0" d="M-116,1177.1h-166c-1.6,0-2.9-1.3-2.9-2.9v-166c0-1.6,1.3-2.9,2.9-2.9h166c1.6,0,2.9,1.3,2.9,2.9v166.1
	C-113.1,1175.8-114.4,1177.1-116,1177.1z"/>
<path class="st0" d="M95.6,1177.1H-70.5c-1.6,0-2.9-1.3-2.9-2.9v-166c0-1.6,1.3-2.9,2.9-2.9H95.6c1.6,0,2.9,1.3,2.9,2.9v166.1
	C98.5,1175.8,97.2,1177.1,95.6,1177.1z"/>
</svg>
