<?xml version="1.0" encoding="utf-8"?>
<!-- Generator: Adobe Illustrator 19.0.0, SVG Export Plug-In . SVG Version: 6.00 Build 0)  -->
<svg version="1.1" id="Calque_1" xmlns="http://www.w3.org/2000/svg" xmlns:xlink="http://www.w3.org/1999/xlink" x="0px" y="0px"
	 viewBox="-599 686 800 600" style="enable-background:new -599 686 800 600;" xml:space="preserve">
<style type="text/css">
	.st0{fill:#FFFFFF;stroke:#7F00FF;stroke-width:5;stroke-miterlimit:10;}
	.st1{fill:#F6F6F6;}
</style>
<path id="XMLID_1_" class="st0" d="M-5.7,1226.5h-386.5c-9.8,0-17.8-7.9-17.8-17.8V763.3c0-9.8,7.9-17.8,17.8-17.8H-5.7
	c9.8,0,17.8,7.9,17.8,17.8v445.5C12,1218.6,4.1,1226.5-5.7,1226.5z"/>
<circle id="XMLID_2_" class="st0" cx="-199" cy="840.4" r="54.5"/>
<path id="XMLID_3_" class="st0" d="M-125.5,1186h-147c-21.8,0-39.5-17.7-39.5-39.5l0,0c0-21.8,17.7-39.5,39.5-39.5h147
	c21.8,0,39.5,17.7,39.5,39.5l0,0C-86,1168.3-103.7,1186-125.5,1186z"/>
<rect id="XMLID_5_" x="-332" y="947.8" class="st1" width="267" height="33"/>
<rect id="XMLID_7_" x="-296.5" y="1006.3" class="st1" width="195" height="33"/>
</svg>
