<?xml version="1.0" encoding="utf-8"?>
<!-- Generator: Adobe Illustrator 19.0.0, SVG Export Plug-In . SVG Version: 6.00 Build 0)  -->
<svg version="1.1" id="Calque_1" xmlns="http://www.w3.org/2000/svg" xmlns:xlink="http://www.w3.org/1999/xlink" x="0px" y="0px"
	 viewBox="-399 -106 800 600" style="enable-background:new -399 -106 800 600;" xml:space="preserve">
<style type="text/css">
	.st0{fill:#FFFFFF;stroke:#7F00FF;stroke-width:5;stroke-miterlimit:10;}
	.st1{fill:#F6F6F6;}
	.st2{fill:none;stroke:#7F00FF;stroke-width:5;stroke-miterlimit:10;}
</style>
<g>
	<g>
		<path class="st0" d="M-121.3,346h-244.1c-7.9,0-14.3-6.4-14.3-14.3V56.3c0-7.9,6.4-14.3,14.3-14.3h244.1c7.9,0,14.3,6.4,14.3,14.3
			v275.3C-106.9,339.6-113.4,346-121.3,346z"/>
		<rect id="XMLID_3_" x="-319.8" y="147.7" class="st1" width="160.6" height="11.3"/>
		<rect id="XMLID_4_" x="-345.3" y="188.3" class="st1" width="211.6" height="11.3"/>
		<rect id="XMLID_6_" x="-345.3" y="219.3" class="st1" width="211.6" height="11.3"/>
		<rect id="XMLID_7_" x="-345.3" y="250.3" class="st1" width="211.6" height="11.3"/>
		<rect id="XMLID_8_" x="-345.3" y="281.3" class="st1" width="160.6" height="11.3"/>
		<circle class="st0" cx="-250.3" cy="58.1" r="48.5"/>
	</g>
	<g>
		<path class="st0" d="M367.4,346H123.3c-7.9,0-14.3-6.4-14.3-14.3V56.3c0-7.9,6.4-14.3,14.3-14.3h244.1c7.9,0,14.3,6.4,14.3,14.3
			v275.3C381.6,339.6,375.3,346,367.4,346z"/>
		<rect id="XMLID_11_" x="139.6" y="219.3" class="st1" width="211.6" height="11.3"/>
		<rect id="XMLID_10_" x="139.6" y="250.3" class="st1" width="211.6" height="11.3"/>
		<rect id="XMLID_9_" x="139.6" y="281.3" class="st1" width="160.6" height="11.3"/>
		<line class="st2" x1="108.9" y1="180.3" x2="381.6" y2="153"/>
	</g>
	<g>
		<path class="st0" d="M165.9,394h-330.2c-7.9,0-14.3-6.4-14.3-14.3V8.3c0-7.9,6.4-14.3,14.3-14.3h330.2c7.9,0,14.3,6.4,14.3,14.3
			v371.3C180.3,387.6,173.9,394,165.9,394z"/>
		<rect id="XMLID_5_" x="-134.8" y="208" class="st1" width="262.7" height="22.6"/>
		<rect id="XMLID_1_" x="-134.8" y="252" class="st1" width="262.7" height="22.6"/>
		<rect id="XMLID_2_" x="-134.8" y="296" class="st1" width="262.7" height="22.6"/>
		<line class="st2" x1="-178.5" y1="164" x2="180.3" y2="164"/>
		<g>
			<polygon class="st0" points="-74.1,123.8 -27.1,83.1 -7.1,103.5 34.9,58.1 75.9,123.8 			"/>
			<circle class="st0" cx="-28" cy="47.3" r="14.1"/>
		</g>
	</g>
</g>
</svg>
