<?xml version="1.0" encoding="utf-8"?>
<!-- Generator: Adobe Illustrator 19.0.0, SVG Export Plug-In . SVG Version: 6.00 Build 0)  -->
<svg version="1.1" id="Calque_1" xmlns="http://www.w3.org/2000/svg" xmlns:xlink="http://www.w3.org/1999/xlink" x="0px" y="0px"
	 viewBox="-399 -106 800 600" style="enable-background:new -399 -106 800 600;" xml:space="preserve">
<style type="text/css">
	.st0{fill:#FFFFFF;stroke:#7F00FF;stroke-width:5;stroke-miterlimit:10;}
</style>
<g>
	<g>
		<path class="st0" d="M-29,96.8h-244c-5.7,0-10.3-4.6-10.3-10.3v-89c0-5.7,4.6-10.3,10.3-10.3h244c5.7,0,10.3,4.6,10.3,10.3v89
			C-18.8,92.2-23.3,96.8-29,96.8z"/>
		<circle class="st0" cx="-227.9" cy="41.6" r="27"/>
		<line class="st0" x1="-170.3" y1="41.6" x2="-52.9" y2="41.6"/>
		<path class="st0" d="M275,96.8H31c-5.7,0-10.3-4.6-10.3-10.3v-89c0-5.7,4.6-10.3,10.3-10.3h244c5.7,0,10.3,4.6,10.3,10.3v89
			C285.3,92.2,280.7,96.8,275,96.8z"/>
		<circle class="st0" cx="76.1" cy="41.6" r="27"/>
		<line class="st0" x1="133.8" y1="41.6" x2="251.1" y2="41.6"/>
	</g>
	<g>
		<path class="st0" d="M-29,248.8h-244c-5.7,0-10.3-4.6-10.3-10.3v-89c0-5.7,4.6-10.3,10.3-10.3h244c5.7,0,10.3,4.6,10.3,10.3v89
			C-18.8,244.2-23.3,248.8-29,248.8z"/>
		<circle class="st0" cx="-227.9" cy="193.6" r="27"/>
		<line class="st0" x1="-170.3" y1="193.6" x2="-52.9" y2="193.6"/>
		<path class="st0" d="M275,248.8H31c-5.7,0-10.3-4.6-10.3-10.3v-89c0-5.7,4.6-10.3,10.3-10.3h244c5.7,0,10.3,4.6,10.3,10.3v89
			C285.3,244.2,280.7,248.8,275,248.8z"/>
		<circle class="st0" cx="76.1" cy="193.6" r="27"/>
		<line class="st0" x1="133.8" y1="193.6" x2="251.1" y2="193.6"/>
	</g>
	<g>
		<path class="st0" d="M-29,400.8h-244c-5.7,0-10.3-4.6-10.3-10.3v-89c0-5.7,4.6-10.3,10.3-10.3h244c5.7,0,10.3,4.6,10.3,10.3v89
			C-18.8,396.2-23.3,400.8-29,400.8z"/>
		<circle class="st0" cx="-227.9" cy="345.6" r="27"/>
		<line class="st0" x1="-170.3" y1="345.6" x2="-52.9" y2="345.6"/>
		<path class="st0" d="M275,400.8H31c-5.7,0-10.3-4.6-10.3-10.3v-89c0-5.7,4.6-10.3,10.3-10.3h244c5.7,0,10.3,4.6,10.3,10.3v89
			C285.3,396.2,280.7,400.8,275,400.8z"/>
		<circle class="st0" cx="76.1" cy="345.6" r="27"/>
		<line class="st0" x1="133.8" y1="345.6" x2="251.1" y2="345.6"/>
	</g>
</g>
</svg>
