<?xml version="1.0" encoding="utf-8"?>
<!-- Generator: Adobe Illustrator 19.0.0, SVG Export Plug-In . SVG Version: 6.00 Build 0)  -->
<svg version="1.1" id="Calque_1" xmlns="http://www.w3.org/2000/svg" xmlns:xlink="http://www.w3.org/1999/xlink" x="0px" y="0px"
	 viewBox="-599 686 800 600" style="enable-background:new -599 686 800 600;" xml:space="preserve">
<style type="text/css">
	.st0{fill:#FFFFFF;stroke:#7F00FF;stroke-width:5;stroke-miterlimit:10;}
	.st1{fill:#FFFFFF;stroke:#7F00FF;stroke-width:4;stroke-miterlimit:10;}
	.st2{fill:#F6F6F6;}
	.st3{fill:#7F00FF;}
</style>
<path class="st0" d="M-5.2,1236.5h-387.4c-5.9,0-10.7-4.8-10.7-10.7V746.2c0-5.9,4.8-10.7,10.7-10.7H-5.4c5.9,0,10.7,4.8,10.7,10.7
	v479.7C5.4,1231.7,0.6,1236.5-5.2,1236.5z"/>
<path class="st1" d="M-42.6,893.5h-312.5c-1.8,0-3.3-1.5-3.3-3.3v-39.5c0-1.8,1.5-3.3,3.3-3.3h312.5c1.8,0,3.3,1.5,3.3,3.3v39.5
	C-39.4,892-40.9,893.5-42.6,893.5z"/>
<path class="st1" d="M-42.6,979h-312.5c-1.8,0-3.3-1.5-3.3-3.3v-39.5c0-1.8,1.5-3.3,3.3-3.3h312.5c1.8,0,3.3,1.5,3.3,3.3v39.5
	C-39.4,977.5-40.9,979-42.6,979z"/>
<path class="st1" d="M-42.6,1066.1h-312.5c-1.8,0-3.3-1.5-3.3-3.3v-39.5c0-1.8,1.5-3.3,3.3-3.3h312.5c1.8,0,3.3,1.5,3.3,3.3v39.5
	C-39.4,1064.6-40.9,1066.1-42.6,1066.1z"/>
<rect id="XMLID_4_" x="-358.4" y="781.1" class="st2" width="159.5" height="15.3"/>
<circle class="st1" cx="-339.2" cy="1114.5" r="12.3"/>
<circle class="st3" cx="-339.2" cy="1114.5" r="6"/>
<circle class="st1" cx="-225.9" cy="1114.5" r="12.3"/>
<circle class="st1" cx="-112.9" cy="1114.5" r="12.3"/>
<rect x="-148.2" y="1167.5" class="st1" width="108.8" height="40"/>
</svg>
