<?xml version="1.0" encoding="utf-8"?>
<!-- Generator: Adobe Illustrator 19.0.0, SVG Export Plug-In . SVG Version: 6.00 Build 0)  -->
<svg version="1.1" id="Calque_1" xmlns="http://www.w3.org/2000/svg" xmlns:xlink="http://www.w3.org/1999/xlink" x="0px" y="0px"
	 viewBox="-599 686 800 600" style="enable-background:new -599 686 800 600;" xml:space="preserve">
<style type="text/css">
	.st0{fill:#FFFFFF;stroke:#7F00FF;stroke-width:5;stroke-miterlimit:10;}
	.st1{fill:#F6F6F6;}
	.st2{fill:none;stroke:#7F00FF;stroke-width:5;stroke-miterlimit:10;}
	.st3{fill:none;stroke:#7F00FF;stroke-width:5;stroke-linecap:round;stroke-miterlimit:10;}
</style>
<path class="st0" d="M42.7,1217.4h-483.4c-7.9,0-14.3-6.4-14.3-14.3V768.9c0-7.9,6.4-14.3,14.3-14.3H42.6c7.9,0,14.3,6.4,14.3,14.3
	v434.2C57,1211,50.6,1217.4,42.7,1217.4z"/>
<rect id="XMLID_5_" x="-410" y="891.1" class="st1" width="235.6" height="26.2"/>
<rect id="XMLID_1_" x="-410" y="976" class="st1" width="394.1" height="26.2"/>
<rect id="XMLID_2_" x="-410" y="1032.3" class="st1" width="304" height="26.2"/>
<rect id="XMLID_3_" x="-410" y="1082" class="st1" width="358.2" height="26.2"/>
<line class="st2" x1="-455" y1="830.9" x2="57" y2="830.9"/>
<g>
	<line class="st3" x1="11.3" y1="783.7" x2="-6.7" y2="801.7"/>
	<line class="st3" x1="11.3" y1="801.7" x2="-6.7" y2="783.7"/>
</g>
<path class="st0" d="M26.6,1189.7h-78c-0.2,0-0.4-0.2-0.4-0.4v-37.5c0-0.2,0.2-0.4,0.4-0.4h78c0.2,0,0.4,0.2,0.4,0.4v37.5
	C26.9,1189.5,26.8,1189.7,26.6,1189.7z"/>
</svg>
