<?xml version="1.0" encoding="utf-8"?>
<!-- Generator: Adobe Illustrator 19.0.0, SVG Export Plug-In . SVG Version: 6.00 Build 0)  -->
<svg version="1.1" id="Calque_1" xmlns="http://www.w3.org/2000/svg" xmlns:xlink="http://www.w3.org/1999/xlink" x="0px" y="0px"
	 viewBox="-599 686 800 600" style="enable-background:new -599 686 800 600;" xml:space="preserve">
<style type="text/css">
	.st0{fill:#FFFFFF;stroke:#7F00FF;stroke-width:5;stroke-miterlimit:10;}
	.st1{fill:#F7F7F9;}
</style>
<path id="XMLID_3_" class="st0" d="M-125.5,1165.5h-147c-21.8,0-39.5-17.7-39.5-39.5l0,0c0-21.8,17.7-39.5,39.5-39.5h147
	c21.8,0,39.5,17.7,39.5,39.5l0,0C-86,1147.8-103.7,1165.5-125.5,1165.5z"/>
<path class="st0" d="M-183.5,1007.5H17c3.6,0,6.5-2.9,6.5-6.5V813c0-3.6-2.9-6.5-6.5-6.5h-432c-3.6,0-6.5,2.9-6.5,6.5v188
	c0,3.6,2.9,6.5,6.5,6.5h202l16,17L-183.5,1007.5z"/>
<rect x="-384" y="847.5" class="st1" width="224.5" height="17"/>
<rect x="-384" y="893" class="st1" width="368.5" height="17"/>
<rect x="-384" y="926.5" class="st1" width="308.5" height="17"/>
</svg>
