<?xml version="1.0" encoding="utf-8"?>
<!-- Generator: Adobe Illustrator 19.0.0, SVG Export Plug-In . SVG Version: 6.00 Build 0)  -->
<svg version="1.1" id="Calque_1" xmlns="http://www.w3.org/2000/svg" xmlns:xlink="http://www.w3.org/1999/xlink" x="0px" y="0px"
	 viewBox="-599 686 800 600" style="enable-background:new -599 686 800 600;" xml:space="preserve">
<style type="text/css">
	.st0{fill:#FFFFFF;stroke:#7F00FF;stroke-width:5;stroke-miterlimit:10;}
	.st1{fill:#F6F6F6;}
	.st2{fill:none;stroke:#7F00FF;stroke-width:5;stroke-miterlimit:10;}
</style>
<g>
	<path class="st0" d="M-68.3,1150.4h-457.5c-6.7,0-12.2-5.5-12.2-12.2v-300c0-6.7,5.5-12.2,12.2-12.2h457.5
		c6.7,0,12.2,5.5,12.2,12.2v300C-56.1,1144.9-61.5,1150.4-68.3,1150.4z"/>
	<rect id="XMLID_32_" x="-511.6" y="903.9" class="st1" width="87.8" height="19"/>
	<rect id="XMLID_31_" x="-403.3" y="903.9" class="st1" width="144.1" height="19"/>
	<rect id="XMLID_30_" x="-238.8" y="903.9" class="st1" width="144.1" height="19"/>
	<line class="st2" x1="-538" y1="877.5" x2="-56.1" y2="877.5"/>
	<line class="st2" x1="-538" y1="943.8" x2="-56.1" y2="943.8"/>
	<rect id="XMLID_29_" x="-511.6" y="971" class="st1" width="87.8" height="19"/>
	<rect id="XMLID_28_" x="-403.3" y="971" class="st1" width="144.1" height="19"/>
	<rect id="XMLID_27_" x="-238.8" y="971" class="st1" width="144.1" height="19"/>
	<line class="st2" x1="-538" y1="1010.9" x2="-56.1" y2="1010.9"/>
	<rect id="XMLID_26_" x="-511.6" y="1038.1" class="st1" width="87.8" height="19"/>
	<rect id="XMLID_25_" x="-403.3" y="1038.1" class="st1" width="144.1" height="19"/>
	<rect id="XMLID_24_" x="-238.8" y="1038.1" class="st1" width="144.1" height="19"/>
	<line class="st2" x1="-538" y1="1078.1" x2="-56.1" y2="1078.1"/>
	<rect id="XMLID_23_" x="-511.6" y="1105.2" class="st1" width="87.8" height="19"/>
	<rect id="XMLID_22_" x="-403.3" y="1105.2" class="st1" width="144.1" height="19"/>
	<rect id="XMLID_21_" x="-238.8" y="1105.2" class="st1" width="144.1" height="19"/>
</g>
<g>
	<path class="st0" d="M127.8,1179.2h-549.6c-6.7,0-12.2-5.5-12.2-12.2V805c0-6.7,5.5-12.2,12.2-12.2h549.6c6.7,0,12.2,5.5,12.2,12.2
		v362C140,1173.7,134.5,1179.2,127.8,1179.2z"/>
	<rect id="XMLID_5_" x="-402.6" y="885.6" class="st1" width="104.6" height="22.6"/>
	<rect id="XMLID_12_" x="-273.6" y="885.6" class="st1" width="171.6" height="22.6"/>
	<rect id="XMLID_13_" x="-77.6" y="885.6" class="st1" width="171.6" height="22.6"/>
	<line class="st2" x1="-434" y1="854.2" x2="140" y2="854.2"/>
	<line class="st2" x1="-434" y1="933.2" x2="140" y2="933.2"/>
	<rect id="XMLID_14_" x="-402.6" y="965.6" class="st1" width="104.6" height="22.6"/>
	<rect id="XMLID_2_" x="-273.6" y="965.6" class="st1" width="171.6" height="22.6"/>
	<rect id="XMLID_1_" x="-77.6" y="965.6" class="st1" width="171.6" height="22.6"/>
	<line class="st2" x1="-434" y1="1013.2" x2="140" y2="1013.2"/>
	<rect id="XMLID_17_" x="-402.6" y="1045.5" class="st1" width="104.6" height="22.6"/>
	<rect id="XMLID_16_" x="-273.6" y="1045.5" class="st1" width="171.6" height="22.6"/>
	<rect id="XMLID_15_" x="-77.6" y="1045.5" class="st1" width="171.6" height="22.6"/>
	<line class="st2" x1="-434" y1="1093.1" x2="140" y2="1093.1"/>
	<rect id="XMLID_20_" x="-402.6" y="1125.5" class="st1" width="104.6" height="22.6"/>
	<rect id="XMLID_19_" x="-273.6" y="1125.5" class="st1" width="171.6" height="22.6"/>
	<rect id="XMLID_18_" x="-77.6" y="1125.5" class="st1" width="171.6" height="22.6"/>
</g>
</svg>
