<?xml version="1.0" encoding="utf-8"?>
<!-- Generator: Adobe Illustrator 19.0.0, SVG Export Plug-In . SVG Version: 6.00 Build 0)  -->
<svg version="1.1" id="Calque_1" xmlns="http://www.w3.org/2000/svg" xmlns:xlink="http://www.w3.org/1999/xlink" x="0px" y="0px"
	 viewBox="0 0 93.2 114.8" style="enable-background:new 0 0 93.2 114.8;" xml:space="preserve">
<style type="text/css">
	.st0{fill:none;}
	.st1{fill:#CDCCCC;}
	.st2{fill:none;stroke:#1CAE88;stroke-linecap:round;stroke-linejoin:round;stroke-miterlimit:10;}
	.st3{fill:none;stroke:#CDCCCC;stroke-miterlimit:10;}
</style>
<g id="XMLID_1_">
	<g id="XMLID_2485_">
		<circle id="XMLID_2486_" class="st0" cx="46.6" cy="61.1" r="44.6"/>
	</g>
	<g id="XMLID_2481_">
		<path id="XMLID_2482_" class="st1" d="M46.6,107.7C20.9,107.7,0,86.8,0,61.1s20.9-46.6,46.6-46.6s46.6,20.9,46.6,46.6
			S72.3,107.7,46.6,107.7z M46.6,18.4C23,18.4,3.9,37.6,3.9,61.1s19.2,42.7,42.7,42.7s42.7-19.2,42.7-42.7S70.1,18.4,46.6,18.4z"/>
	</g>
	<g id="XMLID_2477_">
		<g id="XMLID_2478_">
			<circle id="XMLID_2479_" class="st0" cx="46.6" cy="61.1" r="37.9"/>
		</g>
	</g>
	<path id="XMLID_364_" class="st0" d="M47.6,1.9h-1.5c-3.2,0-5.8,2.6-5.8,5.8v4.1h13.1V7.6C53.4,4.4,50.8,1.9,47.6,1.9z"/>
	<path id="XMLID_361_" class="st1" d="M55.3,13.6H38.5V5.9c0-3.3,2.6-5.9,5.9-5.9h5c3.3,0,5.9,2.6,5.9,5.9V13.6z M42.2,9.8h9.4V5.9
		c0-1.2-1-2.2-2.2-2.2h-5c-1.2,0-2.2,1-2.2,2.2V9.8z"/>
	<g id="XMLID_359_">
		<rect id="XMLID_360_" x="43.6" y="11.7" class="st1" width="6.4" height="4.8"/>
	</g>
	<path id="XMLID_358_" class="st0" d="M74.4,14.4L73,13.6c-2.8-1.6-6.3-0.6-7.9,2.1l-2,3.5l11.3,6.5l2-3.5
		C78.1,19.5,77.1,16,74.4,14.4z"/>
	<path id="XMLID_355_" class="st1" d="M75.1,28.3l-14.6-8.4l3.8-6.6c1.1-1.8,3-3,5.1-3c1,0,2.1,0.3,2.9,0.8l4.3,2.5
		c2.8,1.6,3.8,5.2,2.2,8.1L75.1,28.3z M65.6,18.6l8.1,4.7l2-3.4c0.6-1,0.2-2.4-0.8-3l-4.3-2.5c-0.3-0.2-0.7-0.3-1.1-0.3
		c-0.8,0-1.5,0.4-1.9,1.1L65.6,18.6z"/>
	<path id="XMLID_354_" class="st0" d="M19,13.9l1.3-0.8c2.8-1.6,6.3-0.6,7.9,2.1l2,3.5l-11.3,6.5l-2-3.5C15.3,19,16.2,15.5,19,13.9z
		"/>
	<path id="XMLID_351_" class="st1" d="M18.2,27.8l-3.8-6.6c-0.8-1.4-1-3-0.6-4.5c0.4-1.5,1.4-2.8,2.8-3.6l4.3-2.5
		c0.9-0.5,1.9-0.8,2.9-0.8c2.1,0,4.1,1.1,5.1,3l3.8,6.6L18.2,27.8z M23.8,13.6c-0.4,0-0.8,0.1-1.1,0.3l-4.3,2.5
		c-0.5,0.3-0.9,0.8-1,1.3c-0.2,0.6-0.1,1.2,0.2,1.7l2,3.4l8.1-4.7l-2-3.4C25.4,14,24.6,13.6,23.8,13.6z"/>
	<circle id="XMLID_350_" class="st2" cx="46.6" cy="61.3" r="11.2"/>
	<circle id="XMLID_333_" class="st2" cx="46.6" cy="61.3" r="38.2"/>
	<circle id="XMLID_330_" class="st2" cx="46.6" cy="61.3" r="4.1"/>
	<path id="XMLID_334_" class="st3" d="M84.7,98.4c-21.1,21.1-55.4,21.1-76.5,0"/>
	<path id="XMLID_331_" class="st3" d="M14.4,60.4c0-17.7,14.3-32,32-32"/>
	<line id="XMLID_332_" class="st2" x1="49.2" y1="58.2" x2="69.4" y2="38.7"/>
</g>
</svg>
