<?xml version="1.0" encoding="utf-8"?>
<!-- Generator: Adobe Illustrator 19.0.0, SVG Export Plug-In . SVG Version: 6.00 Build 0)  -->
<svg version="1.1" id="Calque_1" xmlns="http://www.w3.org/2000/svg" xmlns:xlink="http://www.w3.org/1999/xlink" x="0px" y="0px"
	 viewBox="-616 -144 1600 340" style="enable-background:new -616 -144 1600 340;" xml:space="preserve">
<style type="text/css">
	.st0{clip-path:url(#SVGID_2_);}
	.st1{fill:#7F00FF;stroke:#7F00FF;stroke-width:10;stroke-miterlimit:10;}
	.st2{opacity:0.5;fill:#7F00FF;stroke:#7F00FF;stroke-width:10;stroke-miterlimit:10;}
	.st3{opacity:0.15;fill:#7F00FF;stroke:#7F00FF;stroke-width:10;stroke-miterlimit:10;}
	.st4{opacity:0.3;fill:#7F00FF;stroke:#7F00FF;stroke-width:10;stroke-miterlimit:10;}
	.st5{fill:#7700F4;stroke:#FFFFFF;stroke-width:3;stroke-miterlimit:10;}
</style>
<g id="Layer_1_99_">
</g>
<g id="processor_1_">
</g>
<g id="cpu_1_">
</g>
<g id="printer_1_">
</g>
<g id="box_1_">
</g>
<g id="touch-pad_1_">
</g>
<g id="keyboard_1_">
</g>
<g id="cam-6_1_">
</g>
<g id="headphone_1_">
</g>
<g id="floppy_1_">
</g>
<g id="flat-wifi_1_">
</g>
<g id="two-line-wifi_1_">
</g>
<g id="i-phone-iol_1_">
</g>
<g id="responsive_1_">
</g>
<g id="tabs_1_">
</g>
<g id="wide_1_">
</g>
<g id="rotate_1_">
</g>
<g id="storager-load_1_">
</g>
<g id="storager-close_1_">
</g>
<g id="storager-download_2_">
</g>
<g id="storager-upload_1_">
</g>
<g id="storager-setting_1_">
</g>
<g id="storager-unloack_1_">
</g>
<g id="storager-lock_1_">
</g>
<g id="storager-refresh_1_">
</g>
<g id="storager_1_">
</g>
<g id="microsim_1_">
</g>
<g id="game-remote-3_1_">
</g>
<g id="game-remote-2_1_">
</g>
<g id="game-remote-1_1_">
</g>
<g id="game-remote_1_">
</g>
<g id="nano-sim_1_">
</g>
<g id="sim-card_1_">
</g>
<g id="plug-2_1_">
</g>
<g id="plug_1_">
</g>
<g id="wifi-adaptor-s_1_">
</g>
<g id="wifi-adaptor-r_1_">
</g>
<g id="socket_1_">
</g>
<g id="broken-link_1_">
</g>
<g id="link_1_">
</g>
<g id="network-tred_1_">
</g>
<g id="cloud-down_1_">
</g>
<g id="cloud-success_1_">
</g>
<g id="channel_1_">
</g>
<g id="locate-network_1_">
</g>
<g id="group-share_1_">
</g>
<g id="network-desktop_1_">
</g>
<g id="network-3_1_">
</g>
<g id="network-2_1_">
</g>
<g id="network-1_1_">
</g>
<g id="home-adaptor_1_">
</g>
<g id="wifi-adaptor_1_">
</g>
<g id="adoptor_1_">
</g>
<g id="drive-shelve_1_">
</g>
<g id="drive-3_1_">
</g>
<g id="drive_1_">
</g>
<g id="wifi-laptop_1_">
</g>
<g id="wifi-tab_1_">
</g>
<g id="wifi-mob_1_">
</g>
<g id="wifi_1_">
</g>
<g id="laptop-1_1_">
</g>
<g id="computer-2_1_">
</g>
<g id="old-computer_1_">
</g>
<g id="battery-connected_1_">
</g>
<g id="charging-3_1_">
</g>
<g id="charging-2_1_">
</g>
<g id="charging-1_1_">
</g>
<g id="battery_1_">
</g>
<g id="cam-4_1_">
</g>
<g id="radio-2_1_">
</g>
<g id="radio-1_1_">
</g>
<g id="radio_1_">
</g>
<g id="tape_1_">
</g>
<g id="magic-mouse_1_">
</g>
<g id="pendrive_1_">
</g>
<g id="button-mouse_1_">
</g>
<g id="ipod-pack_1_">
</g>
<g id="i-pod_1_">
</g>
<g id="flat-tv_1_">
</g>
<g id="watch-2_1_">
</g>
<g id="watch_1_">
</g>
<g id="cam-2_1_">
</g>
<g id="cam-1_1_">
</g>
<g id="tv_1_">
</g>
<g id="wirellesss_1_">
</g>
<g id="small-phone_1_">
</g>
<g id="phone_3_">
</g>
<g id="android-phone_1_">
</g>
<g id="i-phone_1_">
</g>
<g id="large_phone_1_">
</g>
<g id="i-pad_1_">
</g>
<g id="tesktop_1_">
</g>
<g id="laptop_1_">
</g>
<g id="cloud-close_1_">
</g>
<g id="plug-1_1_">
</g>
<g id="storager-leg_1_">
</g>
<g id="phone_2_">
</g>
<g id="cold-wifi_1_">
</g>
<g id="handycam_1_">
</g>
<g id="Layer_1_2_">
</g>
<g id="medium-box_2_">
</g>
<g id="minuse_2_">
</g>
<g id="timer_2_">
</g>
<g id="drawer-2_2_">
</g>
<g id="trash-box_2_">
</g>
<g id="book-label_2_">
</g>
<g id="folder-label_2_">
</g>
<g id="page-back_2_">
</g>
<g id="close-page_5_">
</g>
<g id="pages_2_">
</g>
<g id="list_2_">
</g>
<g id="wave_2_">
</g>
<g id="close-page_4_">
</g>
<g id="add-page_2_">
</g>
<g id="code_2_">
</g>
<g id="shift-mode_2_">
</g>
<g id="bookmarks_5_">
</g>
<g id="bookmarks_4_">
</g>
<g id="open-pages_2_">
</g>
<g id="note_2_">
</g>
<g id="locater_2_">
</g>
<g id="navigater_2_">
</g>
<g id="alarm_2_">
</g>
<g id="clock_2_">
</g>
<g id="time-3_2_">
</g>
<g id="time-1_2_">
</g>
<g id="time_2_">
</g>
<g id="downloads_2_">
</g>
<g id="uploads_2_">
</g>
<g id="drawer-1_2_">
</g>
<g id="mail_drawer_2_">
</g>
<g id="drawer_2_">
</g>
<g id="mail_5_">
</g>
<g id="mail-open_2_">
</g>
<g id="open_2_">
</g>
<g id="card_2_">
</g>
<g id="mails_2_">
</g>
<g id="mail_4_">
</g>
<g id="drag-l-t_2_">
</g>
<g id="comment_2_">
</g>
<g id="folder_2_">
</g>
<g id="trash_2_">
</g>
<g id="report-flag_2_">
</g>
<g id="setting-roll_2_">
</g>
<g id="spects_2_">
</g>
<g id="search_5_">
</g>
<g id="game-2_2_">
</g>
<g id="game_2_">
</g>
<g id="unloack_2_">
</g>
<g id="loack_2_">
</g>
<g id="settings-ui_2_">
</g>
<g id="abacuse_2_">
</g>
<g id="browser-check-box_2_">
</g>
<g id="browser-reload_2_">
</g>
<g id="browser-check_2_">
</g>
<g id="browser-close_2_">
</g>
<g id="browser-inus_2_">
</g>
<g id="browser-add_2_">
</g>
<g id="flowtting_2_">
</g>
<g id="popup_2_">
</g>
<g id="latter_2_">
</g>
<g id="details_2_">
</g>
<g id="blocks_2_">
</g>
<g id="locate_2_">
</g>
<g id="parabolla_2_">
</g>
<g id="check-box_2_">
</g>
<g id="slide-nav_2_">
</g>
<g id="share_2_">
</g>
<g id="profile_2_">
</g>
<g id="settings_2_">
</g>
<g id="expand_2_">
</g>
<g id="image_2_">
</g>
<g id="pause_2_">
</g>
<g id="player_2_">
</g>
<g id="imager_2_">
</g>
<g id="slider_2_">
</g>
<g id="slide-count_2_">
</g>
<g id="progress-bar_2_">
</g>
<g id="graph_2_">
</g>
<g id="statistics_2_">
</g>
<g id="cloud-reload_2_">
</g>
<g id="cloud-down_3_">
</g>
<g id="cloud-up_2_">
</g>
<g id="cloud_2_">
</g>
<g id="masonary_2_">
</g>
<g id="column_2_">
</g>
<g id="grid-block_2_">
</g>
<g id="horizontal_2_">
</g>
<g id="_x35_-column_2_">
</g>
<g id="_x31_-column_2_">
</g>
<g id="_x33_-column_2_">
</g>
<g id="sidebar_3_">
</g>
<g id="favorite_2_">
</g>
<g id="load_2_">
</g>
<g id="search-list_2_">
</g>
<g id="search_4_">
</g>
<g id="browser_3_">
</g>
<g id="change-mode_2_">
</g>
<g id="tick_2_">
</g>
<g>
	<defs>
		<rect id="SVGID_1_" x="-617.8" y="-144.3" width="1603.5" height="340.7"/>
	</defs>
	<clipPath id="SVGID_2_">
		<use xlink:href="#SVGID_1_"  style="overflow:visible;"/>
	</clipPath>
	<g class="st0">
		<path id="XMLID_20_" class="st1" d="M-617.7,43.6c6.6-1.1,13.2-1.7,19.8-2.2c16-1.3,32.1-1.6,48.2-0.8c20.3,1,40.7,3.9,60.2,9.6
			c16.9,4.9,32.9,12.4,48.8,19.8c16.1,7.5,32,15.3,47.9,23.3c15.4,7.8,30.7,15.7,46,23.7c12,6.3,23.9,12.7,35.9,19.1
			c5.9,3.2,11.8,6.4,17.6,9.6c3.3,1.8,6.7,3.3,10.1,4.9c11.3,5.3,22.7,10.1,34.3,14.7c16.9,6.6,34,12.4,51.5,17.3
			c19.7,5.5,39.8,9.8,60.2,12.1c22,2.5,44.1,1.9,66-0.3c20-2,39.9-5.4,59.4-10.2c13.4-3.3,26.8-7.3,39.7-12.1
			c5.1-1.9,10.3-3.9,15.2-6.2c8.1-3.8,16.2-7.7,24.3-11.5c2.1-1,4-2.3,6-3.5c5.1-3.1,10.3-6.2,15.4-9.3c4.5-2.7,9-5.4,13.4-8.1
			c0.9-0.6,1.8-1,2.6-1.8c4.2-3.8,8.4-7.5,12.6-11.2c8.4-7.4,16.9-14.8,25.4-22.1c11.3-9.7,22.7-19.4,34.2-28.9
			c12.7-10.5,25.6-20.9,38.6-31.1c12.8-10,25.8-19.8,39-29.2c11.5-8.1,23.2-16,35.4-22.9c16.5-9.4,34-17,51.7-23.6
			c18-6.7,36.4-12.4,55-17.3c13.7-3.6,27.5-6.8,41.4-9.6c4.9-1,9.8-2,14.8-2.7c6-0.9,12.1-1.5,18.2-2.1c14.1-1.3,28.3-2.2,42.5-2.5
			c19.4-0.5,38.7-0.1,58.1,1.4c21.8,1.6,43.5,4.6,64.8,9.6c22.2,5.1,43.7,12.6,64.7,21.3c19.6,8.1,38.7,17.4,57.4,27.4
			c16,8.6,31.7,17.7,47.4,27c11.6,6.9,23.2,14,35.3,20.2c4.1,2.1,8.3,4.2,12.7,5.7c2.5,0.9,4.9,1.7,7.3,2.7
			c14.3,5.5,29,10.2,44,13.7c9.3,2.2,18.8,4,28.3,4.7c5.3,0.4,10.7,0.4,16,0.5c4.9,0.1,9.8,0.1,14.7,0.1c7.1,0,14.3,0.1,21.4-0.3
			c0,3.5,0,7,0,10.6c0,8.7,0,17.5,0,26.2c0,11.2,0,22.4,0,33.5c0,10.9,0,21.8,0,32.8c0,8,0,15.9,0,23.9c0,2,0,4,0,6
			c0,0.2,0.1,1,0,1.1c-0.2,0.1-1.1,0-1.4,0c-1.1,0-2.2,0-3.3,0c-1.7,0-3.4,0-5.2,0c-2.3,0-4.6,0-6.9,0c-2.9,0-5.8,0-8.7,0
			c-3.5,0-6.9,0-10.4,0c-4,0-8,0-12,0c-4.5,0-9.1,0-13.6,0c-5.1,0-10.1,0-15.2,0c-5.5,0-11.1,0-16.6,0c-6,0-12,0-18,0
			c-6.5,0-12.9,0-19.4,0c-6.9,0-13.8,0-20.6,0c-7.3,0-14.6,0-21.9,0c-7.7,0-15.4,0-23.1,0c-8.1,0-16.2,0-24.2,0
			c-8.4,0-16.8,0-25.2,0c-8.8,0-17.5,0-26.3,0c-9.1,0-18.2,0-27.3,0c-9.3,0-18.7,0-28,0c-9.7,0-19.3,0-29,0c-9.9,0-19.8,0-29.8,0
			c-10.1,0-20.3,0-30.4,0c-10.4,0-20.7,0-31.1,0c-10.6,0-21.2,0-31.8,0c-10.8,0-21.5,0-32.3,0c-10.9,0-21.7,0-32.6,0
			c-11.1,0-22.2,0-33.2,0c-11.2,0-22.4,0-33.6,0c-11.2,0-22.5,0-33.7,0c-11.4,0-22.8,0-34.2,0c-11.5,0-22.9,0-34.4,0
			c-11.5,0-23,0-34.4,0c-11.5,0-23,0-34.5,0c-11.6,0-23.1,0-34.7,0c-11.5,0-23,0-34.5,0c-11.5,0-23,0-34.5,0c-11.5,0-22.9,0-34.4,0
			c-11.4,0-22.8,0-34.2,0c-11.3,0-22.5,0-33.8,0c-11.2,0-22.4,0-33.7,0c-11.1,0-22.2,0-33.3,0c-10.9,0-21.8,0-32.7,0
			c-10.8,0-21.6,0-32.4,0c-10.6,0-21.2,0-31.8,0c-10.4,0-20.8,0-31.1,0c-10.2,0-20.3,0-30.5,0c-10,0-19.9,0-29.9,0
			c-9.7,0-19.3,0-29,0c-9.4,0-18.8,0-28.2,0c-9.1,0-18.2,0-27.4,0c-8.8,0-17.6,0-26.4,0c-8.4,0-16.9,0-25.3,0c-8.1,0-16.2,0-24.4,0
			c-7.7,0-15.5,0-23.2,0c-7.3,0-14.6,0-21.9,0c-6.9,0-13.9,0-20.8,0c-6.5,0-13,0-19.6,0c-6.1,0-12.1,0-18.2,0c-5.6,0-11.2,0-16.8,0
			c-5.1,0-10.2,0-15.3,0c-4.6,0-9.2,0-13.8,0c-4.1,0-8.1,0-12.2,0c-3.5,0-7.1,0-10.6,0c-3,0-5.9,0-8.9,0c-2.4,0-4.8,0-7.1,0
			c-1.8,0-3.6,0-5.4,0c-1.2,0-2.3,0-3.5,0c-0.3,0-1.3,0.2-1.6,0c-0.1-0.1-0.1-0.1-0.1-0.4c-0.1-1.4,0-2.9,0-4.3c0-6.8,0-13.5,0-20.3
			c0-10.1,0-20.3,0-30.4c0-11.4,0-22.8,0-34.3c0-10.6,0-21.3,0-31.9c0-7.7,0-15.4,0-23.1C-617.7,49-617.7,46.3-617.7,43.6z"/>
		<path id="XMLID_1_" class="st2" d="M-434,87.2c6.6-1.1,13.2-1.7,19.8-2.2c16-1.3,32.1-1.6,48.2-0.8c20.3,1,40.7,3.9,60.2,9.6
			c16.9,4.9,32.9,12.4,48.8,19.8c16.1,7.5,32,15.3,47.9,23.3c15.4,7.8,30.7,15.7,46,23.7c12,6.3,23.9,12.7,35.9,19.1
			c5.9,3.2,11.8,6.4,17.6,9.6c3.3,1.8,6.7,3.3,10.1,4.9c11.3,5.3,22.7,10.1,34.3,14.7c16.9,6.6,34,12.4,51.5,17.3
			c19.7,5.5,39.8,9.8,60.2,12.1c22,2.5,44.1,1.9,66-0.3c20-2,39.9-5.4,59.4-10.2c13.4-3.3,26.8-7.3,39.7-12.1
			c5.1-1.9,10.3-3.9,15.2-6.2c8.1-3.8,16.2-7.7,24.3-11.5c2.1-1,4-2.3,6-3.5c5.1-3.1,10.3-6.2,15.4-9.3c4.5-2.7,9-5.4,13.4-8.1
			c0.9-0.6,1.8-1,2.6-1.8c4.2-3.8,8.4-7.5,12.6-11.2c8.4-7.4,16.9-14.8,25.4-22.1c11.3-9.7,22.7-19.4,34.2-28.9
			c12.7-10.5,25.6-20.9,38.6-31.1c12.8-10,25.8-19.8,39-29.2c11.5-8.1,23.2-16,35.4-22.9c16.5-9.4,34-17,51.7-23.6
			c18-6.7,36.4-12.4,55-17.3c13.7-3.6,27.5-6.8,41.4-9.6c4.9-1,9.8-2,14.8-2.7c6-0.9,12.1-1.5,18.2-2.1c14.1-1.3,28.3-2.2,42.5-2.5
			c19.4-0.5,38.7-0.1,58.1,1.4c21.8,1.6,43.5,4.6,64.8,9.6C842.5-11.9,864-4.4,885,4.3c19.6,8.1,38.7,17.4,57.4,27.4
			c16,8.6,31.7,17.7,47.4,27c11.6,6.9,23.2,14,35.3,20.2c4.1,2.1,8.3,4.2,12.7,5.7c2.5,0.9,4.9,1.7,7.3,2.7
			c14.3,5.5,29,10.2,44,13.7c9.3,2.2,18.8,4,28.3,4.7c5.3,0.4,10.7,0.4,16,0.5c4.9,0.1,9.8,0.1,14.7,0.1c7.1,0,14.3,0.1,21.4-0.3
			c0,3.5,0,7,0,10.6c0,8.7,0,17.5,0,26.2c0,11.2,0,22.4,0,33.5c0,10.9,0,21.8,0,32.8c0,8,0,15.9,0,23.9c0,2,0,4,0,6
			c0,0.2,0.1,1,0,1.1c-0.2,0.1-1.1,0-1.4,0c-1.1,0-2.2,0-3.3,0c-1.7,0-3.4,0-5.2,0c-2.3,0-4.6,0-6.9,0c-2.9,0-5.8,0-8.7,0
			c-3.5,0-6.9,0-10.4,0c-4,0-8,0-12,0c-4.5,0-9.1,0-13.6,0c-5.1,0-10.1,0-15.2,0c-5.5,0-11.1,0-16.6,0c-6,0-12,0-18,0
			c-6.5,0-12.9,0-19.4,0c-6.9,0-13.8,0-20.6,0c-7.3,0-14.6,0-21.9,0c-7.7,0-15.4,0-23.1,0c-8.1,0-16.2,0-24.2,0
			c-8.4,0-16.8,0-25.2,0c-8.8,0-17.5,0-26.3,0c-9.1,0-18.2,0-27.3,0c-9.3,0-18.7,0-28,0c-9.7,0-19.3,0-29,0c-9.9,0-19.8,0-29.8,0
			c-10.1,0-20.3,0-30.4,0c-10.4,0-20.7,0-31.1,0c-10.6,0-21.2,0-31.8,0c-10.8,0-21.5,0-32.3,0c-10.9,0-21.7,0-32.6,0
			c-11.1,0-22.2,0-33.2,0c-11.2,0-22.4,0-33.6,0c-11.2,0-22.5,0-33.7,0c-11.4,0-22.8,0-34.2,0c-11.5,0-22.9,0-34.4,0
			c-11.5,0-23,0-34.4,0c-11.5,0-23,0-34.5,0c-11.6,0-23.1,0-34.7,0c-11.5,0-23,0-34.5,0c-11.5,0-23,0-34.5,0c-11.5,0-22.9,0-34.4,0
			c-11.4,0-22.8,0-34.2,0c-11.3,0-22.5,0-33.8,0c-11.2,0-22.4,0-33.7,0c-11.1,0-22.2,0-33.3,0c-10.9,0-21.8,0-32.7,0
			c-10.8,0-21.6,0-32.4,0c-10.6,0-21.2,0-31.8,0c-10.4,0-20.8,0-31.1,0c-10.2,0-20.3,0-30.5,0c-10,0-19.9,0-29.9,0
			c-9.7,0-19.3,0-29,0c-9.4,0-18.8,0-28.2,0c-9.1,0-18.2,0-27.4,0c-8.8,0-17.6,0-26.4,0c-8.4,0-16.9,0-25.3,0c-8.1,0-16.2,0-24.4,0
			c-7.7,0-15.5,0-23.2,0c-7.3,0-14.6,0-21.9,0c-6.9,0-13.9,0-20.8,0c-6.5,0-13,0-19.6,0c-6.1,0-12.1,0-18.2,0c-5.6,0-11.2,0-16.8,0
			c-5.1,0-10.2,0-15.3,0c-4.6,0-9.2,0-13.8,0c-4.1,0-8.1,0-12.2,0c-3.5,0-7.1,0-10.6,0c-3,0-5.9,0-8.9,0c-2.4,0-4.8,0-7.1,0
			c-1.8,0-3.6,0-5.4,0c-1.2,0-2.3,0-3.5,0c-0.3,0-1.3,0.2-1.6,0c-0.1-0.1-0.1-0.1-0.1-0.4c-0.1-1.4,0-2.9,0-4.3c0-6.8,0-13.5,0-20.3
			c0-10.1,0-20.3,0-30.4c0-11.4,0-22.8,0-34.3c0-10.6,0-21.3,0-31.9c0-7.7,0-15.4,0-23.1C-434,92.6-434,89.9-434,87.2z"/>
		<path id="XMLID_3_" class="st3" d="M-1024.7,121.5c6.6-1.1,13.2-1.7,19.8-2.2c16-1.3,32.1-1.6,48.2-0.8c20.3,1,40.7,3.9,60.2,9.6
			c16.9,4.9,32.9,12.4,48.8,19.8c16.1,7.5,32,15.3,47.9,23.3c15.4,7.8,30.7,15.7,46,23.7c12,6.3,23.9,12.7,35.9,19.1
			c5.9,3.2,11.8,6.4,17.6,9.6c3.3,1.8,6.7,3.3,10.1,4.9c11.3,5.3,22.7,10.1,34.3,14.7c16.9,6.6,34,12.4,51.5,17.3
			c19.7,5.5,39.8,9.8,60.2,12.1c22,2.5,44.1,1.9,66-0.3c20-2,39.9-5.4,59.4-10.2c13.4-3.3,26.8-7.3,39.7-12.1
			c5.1-1.9,10.3-3.9,15.2-6.2c8.1-3.8,16.2-7.7,24.3-11.5c2.1-1,4-2.3,6-3.5c5.1-3.1,10.3-6.2,15.4-9.3c4.5-2.7,9-5.4,13.4-8.1
			c0.9-0.6,1.8-1,2.6-1.8c4.2-3.8,8.4-7.5,12.6-11.2c8.4-7.4,16.9-14.8,25.4-22.1c11.3-9.7,22.7-19.4,34.2-28.9
			c12.7-10.5,25.6-20.9,38.6-31.1c12.8-10,25.8-19.8,39-29.2c11.5-8.1,23.2-16,35.4-22.9c16.5-9.4,34-17,51.7-23.6
			c18-6.7,36.4-12.4,55-17.3c13.7-3.6,27.5-6.8,41.4-9.6c4.9-1,9.8-2,14.8-2.7c6-0.9,12.1-1.5,18.2-2.1c14.1-1.3,28.3-2.2,42.5-2.5
			c19.4-0.5,38.7-0.1,58.1,1.4c21.8,1.6,43.5,4.6,64.8,9.6c22.2,5.1,43.7,12.6,64.7,21.3C313.9,46.7,333,56,351.7,66
			c16,8.6,31.7,17.7,47.4,27c11.6,6.9,23.2,14,35.3,20.2c4.1,2.1,8.3,4.2,12.7,5.7c2.5,0.9,4.9,1.7,7.3,2.7
			c14.3,5.5,29,10.2,44,13.7c9.3,2.2,18.8,4,28.3,4.7c5.3,0.4,10.7,0.4,16,0.5c4.9,0.1,9.8,0.1,14.7,0.1c7.1,0,14.3,0.1,21.4-0.3
			c0,3.5,0,7,0,10.6c0,8.7,0,17.5,0,26.2c0,11.2,0,22.4,0,33.5c0,10.9,0,21.8,0,32.8c0,8,0,15.9,0,23.9c0,2,0,4,0,6
			c0,0.2,0.1,1,0,1.1c-0.2,0.1-1.1,0-1.4,0c-1.1,0-2.2,0-3.3,0c-1.7,0-3.4,0-5.2,0c-2.3,0-4.6,0-6.9,0c-2.9,0-5.8,0-8.7,0
			c-3.5,0-6.9,0-10.4,0c-4,0-8,0-12,0c-4.5,0-9.1,0-13.6,0c-5.1,0-10.1,0-15.2,0c-5.5,0-11.1,0-16.6,0c-6,0-12,0-18,0
			c-6.5,0-12.9,0-19.4,0c-6.9,0-13.8,0-20.6,0c-7.3,0-14.6,0-21.9,0c-7.7,0-15.4,0-23.1,0c-8.1,0-16.2,0-24.2,0
			c-8.4,0-16.8,0-25.2,0c-8.8,0-17.5,0-26.3,0c-9.1,0-18.2,0-27.3,0c-9.3,0-18.7,0-28,0c-9.7,0-19.3,0-29,0c-9.9,0-19.8,0-29.8,0
			c-10.1,0-20.3,0-30.4,0c-10.4,0-20.7,0-31.1,0c-10.6,0-21.2,0-31.8,0c-10.8,0-21.5,0-32.3,0c-10.9,0-21.7,0-32.6,0
			c-11.1,0-22.2,0-33.2,0c-11.2,0-22.4,0-33.6,0c-11.2,0-22.5,0-33.7,0c-11.4,0-22.8,0-34.2,0c-11.5,0-22.9,0-34.4,0
			c-11.5,0-23,0-34.4,0c-11.5,0-23,0-34.5,0c-11.6,0-23.1,0-34.7,0c-11.5,0-23,0-34.5,0c-11.5,0-23,0-34.5,0c-11.5,0-22.9,0-34.4,0
			c-11.4,0-22.8,0-34.2,0c-11.3,0-22.5,0-33.8,0c-11.2,0-22.4,0-33.7,0c-11.1,0-22.2,0-33.3,0c-10.9,0-21.8,0-32.7,0
			c-10.8,0-21.6,0-32.4,0c-10.6,0-21.2,0-31.8,0c-10.4,0-20.8,0-31.1,0c-10.2,0-20.3,0-30.5,0c-10,0-19.9,0-29.9,0
			c-9.7,0-19.3,0-29,0c-9.4,0-18.8,0-28.2,0c-9.1,0-18.2,0-27.4,0c-8.8,0-17.6,0-26.4,0c-8.4,0-16.9,0-25.3,0c-8.1,0-16.2,0-24.4,0
			c-7.7,0-15.5,0-23.2,0c-7.3,0-14.6,0-21.9,0c-6.9,0-13.9,0-20.8,0c-6.5,0-13,0-19.6,0c-6.1,0-12.1,0-18.2,0c-5.6,0-11.2,0-16.8,0
			c-5.1,0-10.2,0-15.3,0c-4.6,0-9.2,0-13.8,0c-4.1,0-8.1,0-12.2,0c-3.5,0-7.1,0-10.6,0c-3,0-5.9,0-8.9,0c-2.4,0-4.8,0-7.1,0
			c-1.8,0-3.6,0-5.4,0c-1.2,0-2.3,0-3.5,0c-0.3,0-1.3,0.2-1.6,0c-0.1-0.1-0.1-0.1-0.1-0.4c-0.1-1.4,0-2.9,0-4.3c0-6.8,0-13.5,0-20.3
			c0-10.1,0-20.3,0-30.4c0-11.4,0-22.8,0-34.3c0-10.6,0-21.3,0-31.9c0-7.7,0-15.4,0-23.1C-1024.7,126.9-1024.7,124.2-1024.7,121.5z"
			/>
		<path id="XMLID_4_" class="st3" d="M-804.5,61.5c8.9-1.1,17.9-1.7,26.8-2.2c21.7-1.3,43.4-1.6,65.1-0.8c27.5,1,55,3.9,81.5,9.6
			c22.9,4.9,44.5,12.4,66.1,19.8c21.8,7.5,43.3,15.3,64.7,23.3c20.8,7.8,41.5,15.7,62.2,23.7c16.2,6.3,32.4,12.7,48.5,19.1
			c8,3.2,15.9,6.4,23.8,9.6c4.4,1.8,9.1,3.3,13.6,4.9c15.2,5.3,30.8,10.1,46.4,14.7c22.8,6.6,46,12.4,69.6,17.3
			c26.7,5.5,53.9,9.8,81.4,12.1c29.7,2.5,59.6,1.9,89.3-0.3c27.1-2,54-5.4,80.4-10.2c18.2-3.3,36.2-7.3,53.8-12.1
			c6.9-1.9,13.9-3.9,20.6-6.2c11-3.8,21.9-7.7,32.9-11.5c2.8-1,5.4-2.3,8.1-3.5c7-3.1,13.9-6.2,20.9-9.3c6.1-2.7,12.1-5.4,18.2-8.1
			c1.3-0.6,2.4-1,3.5-1.8c5.6-3.8,11.3-7.5,17-11.2c11.4-7.4,22.8-14.8,34.3-22.1c15.3-9.7,30.7-19.4,46.3-28.9
			c17.2-10.5,34.6-20.9,52.2-31.1c17.3-10,34.9-19.8,52.8-29.2c15.5-8.1,31.3-16,47.8-22.9c22.3-9.4,45.9-17,70-23.6
			c24.4-6.7,49.3-12.4,74.4-17.3c18.5-3.6,37.2-6.8,56-9.6c6.6-1,13.3-2,20-2.7c8.2-0.9,16.4-1.5,24.6-2.1
			c19.1-1.3,38.3-2.2,57.5-2.5c26.2-0.5,52.4-0.1,78.5,1.4c29.5,1.6,58.9,4.6,87.7,9.6c30,5.1,59.1,12.6,87.5,21.3
			c26.5,8.1,52.4,17.4,77.7,27.4c21.7,8.6,42.9,17.7,64.1,27c15.8,6.9,31.4,14,47.7,20.2c5.6,2.1,11.3,4.2,17.2,5.7
			c3.3,0.9,6.6,1.7,9.9,2.7c19.4,5.5,39.3,10.2,59.5,13.7c12.6,2.2,25.4,4,38.3,4.7c7.2,0.4,14.5,0.4,21.7,0.5
			c6.6,0.1,13.2,0.1,19.8,0.1c9.6,0,19.3,0.1,28.9-0.3c0,3.5,0,7,0,10.6c0,8.7,0,17.5,0,26.2c0,11.2,0,22.4,0,33.5
			c0,10.9,0,21.8,0,32.8c0,8,0,15.9,0,23.9c0,2,0,4,0,6c0,0.2,0.1,1,0,1.1c-0.2,0.1-1.5,0-1.8,0c-1.5,0-3,0-4.4,0c-2.3,0-4.7,0-7,0
			c-3.1,0-6.2,0-9.4,0c-3.9,0-7.9,0-11.8,0c-4.7,0-9.4,0-14.1,0c-5.4,0-10.8,0-16.2,0c-6.2,0-12.3,0-18.5,0c-6.8,0-13.7,0-20.5,0
			c-7.5,0-15,0-22.4,0c-8.1,0-16.2,0-24.3,0c-8.7,0-17.5,0-26.2,0c-9.3,0-18.6,0-27.9,0c-9.9,0-19.7,0-29.6,0c-10.4,0-20.8,0-31.3,0
			c-10.9,0-21.9,0-32.8,0c-11.3,0-22.7,0-34,0c-11.9,0-23.7,0-35.6,0c-12.3,0-24.6,0-36.9,0c-12.6,0-25.2,0-37.9,0
			c-13.1,0-26.1,0-39.2,0c-13.4,0-26.8,0-40.3,0c-13.7,0-27.4,0-41.1,0c-14,0-28,0-42,0c-14.3,0-28.6,0-43,0c-14.6,0-29.1,0-43.7,0
			c-14.7,0-29.4,0-44.1,0c-15,0-30,0-45,0c-15.2,0-30.3,0-45.5,0c-15.2,0-30.4,0-45.6,0c-15.4,0-30.8,0-46.3,0c-15.5,0-31,0-46.5,0
			c-15.5,0-31.1,0-46.6,0c-15.6,0-31.1,0-46.7,0c-15.6,0-31.3,0-46.9,0c-15.6,0-31.2,0-46.7,0c-15.5,0-31.1,0-46.6,0
			c-15.5,0-31,0-46.6,0c-15.4,0-30.9,0-46.3,0c-15.2,0-30.5,0-45.7,0c-15.2,0-30.4,0-45.5,0c-15,0-30,0-45,0c-14.7,0-29.5,0-44.2,0
			c-14.6,0-29.2,0-43.8,0c-14.4,0-28.7,0-43.1,0c-14,0-28.1,0-42.1,0c-13.7,0-27.5,0-41.2,0c-13.5,0-26.9,0-40.4,0
			c-13.1,0-26.2,0-39.2,0c-12.7,0-25.4,0-38.1,0c-12.3,0-24.7,0-37,0c-11.9,0-23.8,0-35.7,0c-11.4,0-22.8,0-34.2,0c-11,0-22,0-33,0
			c-10.5,0-21,0-31.4,0c-9.9,0-19.8,0-29.7,0c-9.4,0-18.8,0-28.2,0c-8.8,0-17.6,0-26.4,0c-8.2,0-16.4,0-24.6,0c-7.6,0-15.1,0-22.7,0
			c-6.9,0-13.8,0-20.8,0c-6.2,0-12.5,0-18.7,0c-5.5,0-11,0-16.5,0c-4.8,0-9.6,0-14.4,0c-4,0-8,0-12.1,0c-3.2,0-6.4,0-9.6,0
			c-2.4,0-4.8,0-7.3,0c-1.6,0-3.2,0-4.7,0c-0.4,0-1.8,0.2-2.1,0c-0.2-0.1-0.1-0.1-0.1-0.4c-0.2-1.4,0-2.9,0-4.3c0-6.8,0-13.5,0-20.3
			c0-10.1,0-20.3,0-30.4c0-11.4,0-22.8,0-34.3c0-10.6,0-21.3,0-31.9c0-7.7,0-15.4,0-23.1C-804.5,66.8-804.5,64.1-804.5,61.5z"/>
		<path id="XMLID_2_" class="st4" d="M-1235.8,231.5c6.6-1.1,13.2-1.7,19.8-2.2c16-1.3,32.1-1.6,48.2-0.8c20.3,1,40.7,3.9,60.2,9.6
			c16.9,4.9,32.9,12.4,48.8,19.8c16.1,7.5,32,15.3,47.9,23.3c15.4,7.8,30.7,15.7,46,23.7c12,6.3,23.9,12.7,35.9,19.1
			c5.9,3.2,11.8,6.4,17.6,9.6c3.3,1.8,6.7,3.3,10.1,4.9c11.3,5.3,22.7,10.1,34.3,14.7c16.9,6.6,34,12.4,51.5,17.3
			c19.7,5.5,39.8,9.8,60.2,12.1c22,2.5,44.1,1.9,66-0.3c20-2,39.9-5.4,59.4-10.2c13.4-3.3,26.8-7.3,39.7-12.1
			c5.1-1.9,10.3-3.9,15.2-6.2c8.1-3.8,16.2-7.7,24.3-11.5c2.1-1,4-2.3,6-3.5c5.1-3.1,10.3-6.2,15.4-9.3c4.5-2.7,9-5.4,13.4-8.1
			c0.9-0.6,1.8-1,2.6-1.8c4.2-3.8,8.4-7.5,12.6-11.2c8.4-7.4,16.9-14.8,25.4-22.1c11.3-9.7,22.7-19.4,34.2-28.9
			c12.7-10.5,25.6-20.9,38.6-31.1c12.8-10,25.8-19.8,39-29.2c11.5-8.1,23.2-16,35.4-22.9c16.5-9.4,34-17,51.7-23.6
			c18-6.7,36.4-12.4,55-17.3c13.7-3.6,27.5-6.8,41.4-9.6c4.9-1,9.8-2,14.8-2.7c6-0.9,12.1-1.5,18.2-2.1c14.1-1.3,28.3-2.2,42.5-2.5
			c19.4-0.5,38.7-0.1,58.1,1.4c21.8,1.6,43.5,4.6,64.8,9.6c22.2,5.1,43.7,12.6,64.7,21.3c19.6,8.1,38.7,17.4,57.4,27.4
			c16,8.6,31.7,17.7,47.4,27c11.6,6.9,23.2,14,35.3,20.2c4.1,2.1,8.3,4.2,12.7,5.7c2.5,0.9,4.9,1.7,7.3,2.7
			c14.3,5.5,29,10.2,44,13.7c9.3,2.2,18.8,4,28.3,4.7c5.3,0.4,10.7,0.4,16,0.5c4.9,0.1,9.8,0.1,14.7,0.1c7.1,0,14.3,0.1,21.4-0.3
			c0,3.5,0,7,0,10.6c0,8.7,0,17.5,0,26.2c0,11.2,0,22.4,0,33.5c0,10.9,0,21.8,0,32.8c0,8,0,15.9,0,23.9c0,2,0,4,0,6
			c0,0.2,0.1,1,0,1.1c-0.2,0.1-1.1,0-1.4,0c-1.1,0-2.2,0-3.3,0c-1.7,0-3.4,0-5.2,0c-2.3,0-4.6,0-6.9,0c-2.9,0-5.8,0-8.7,0
			c-3.5,0-6.9,0-10.4,0c-4,0-8,0-12,0c-4.5,0-9.1,0-13.6,0c-5.1,0-10.1,0-15.2,0c-5.5,0-11.1,0-16.6,0c-6,0-12,0-18,0
			c-6.5,0-12.9,0-19.4,0c-6.9,0-13.8,0-20.6,0c-7.3,0-14.6,0-21.9,0c-7.7,0-15.4,0-23.1,0c-8.1,0-16.2,0-24.2,0
			c-8.4,0-16.8,0-25.2,0c-8.8,0-17.5,0-26.3,0c-9.1,0-18.2,0-27.3,0c-9.3,0-18.7,0-28,0c-9.7,0-19.3,0-29,0c-9.9,0-19.8,0-29.8,0
			c-10.1,0-20.3,0-30.4,0c-10.4,0-20.7,0-31.1,0c-10.6,0-21.2,0-31.8,0c-10.8,0-21.5,0-32.3,0c-10.9,0-21.7,0-32.6,0
			c-11.1,0-22.2,0-33.2,0c-11.2,0-22.4,0-33.6,0c-11.2,0-22.5,0-33.7,0c-11.4,0-22.8,0-34.2,0c-11.5,0-22.9,0-34.4,0
			c-11.5,0-23,0-34.4,0c-11.5,0-23,0-34.5,0c-11.6,0-23.1,0-34.7,0c-11.5,0-23,0-34.5,0c-11.5,0-23,0-34.5,0c-11.5,0-22.9,0-34.4,0
			c-11.4,0-22.8,0-34.2,0c-11.3,0-22.5,0-33.8,0c-11.2,0-22.4,0-33.7,0c-11.1,0-22.2,0-33.3,0c-10.9,0-21.8,0-32.7,0
			c-10.8,0-21.6,0-32.4,0c-10.6,0-21.2,0-31.8,0c-10.4,0-20.8,0-31.1,0c-10.2,0-20.3,0-30.5,0c-10,0-19.9,0-29.9,0
			c-9.7,0-19.3,0-29,0c-9.4,0-18.8,0-28.2,0c-9.1,0-18.2,0-27.4,0c-8.8,0-17.6,0-26.4,0c-8.4,0-16.9,0-25.3,0c-8.1,0-16.2,0-24.4,0
			c-7.7,0-15.5,0-23.2,0c-7.3,0-14.6,0-21.9,0c-6.9,0-13.9,0-20.8,0c-6.5,0-13,0-19.6,0c-6.1,0-12.1,0-18.2,0c-5.6,0-11.2,0-16.8,0
			c-5.1,0-10.2,0-15.3,0c-4.6,0-9.2,0-13.8,0c-4.1,0-8.1,0-12.2,0c-3.5,0-7.1,0-10.6,0c-3,0-5.9,0-8.9,0c-2.4,0-4.8,0-7.1,0
			c-1.8,0-3.6,0-5.4,0c-1.2,0-2.3,0-3.5,0c-0.3,0-1.3,0.2-1.6,0c-0.1-0.1-0.1-0.1-0.1-0.4c-0.1-1.4,0-2.9,0-4.3c0-6.8,0-13.5,0-20.3
			c0-10.1,0-20.3,0-30.4c0-11.4,0-22.8,0-34.3c0-10.6,0-21.3,0-31.9c0-7.7,0-15.4,0-23.1C-1235.8,236.9-1235.8,234.2-1235.8,231.5z"
			/>
	</g>
	<g class="st0">
		<circle class="st5" cx="-577.5" cy="35.4" r="6.5"/>
		<circle class="st5" cx="-376.4" cy="96" r="6.5"/>
		<circle class="st5" cx="-175.3" cy="183.3" r="6.5"/>
		<circle class="st5" cx="25.9" cy="167.6" r="6.5"/>
		<circle class="st5" cx="227" cy="24.7" r="6.5"/>
		<circle class="st5" cx="428.2" cy="-65.2" r="6.5"/>
		<circle class="st5" cx="629.3" cy="-65.2" r="6.5"/>
		<circle class="st5" cx="830.4" cy="24.3" r="6.5"/>
	</g>
</g>
</svg>
