<?xml version="1.0" encoding="utf-8"?>
<!-- Generator: Adobe Illustrator 19.0.0, SVG Export Plug-In . SVG Version: 6.00 Build 0)  -->
<svg version="1.1" id="Layer_1" xmlns="http://www.w3.org/2000/svg" xmlns:xlink="http://www.w3.org/1999/xlink" x="0px" y="0px"
	 viewBox="131 -131 512 512" style="enable-background:new 131 -131 512 512;" xml:space="preserve">
<style type="text/css">
	.st0{opacity:0.5;clip-path:url(#SVGID_2_);fill:#6B05E2;}
	.st1{opacity:0.75;clip-path:url(#SVGID_2_);fill:#6B05E2;}
</style>
<g>
	<defs>
		<rect id="SVGID_1_" x="131" y="-131" width="512" height="512"/>
	</defs>
	<clipPath id="SVGID_2_">
		<use xlink:href="#SVGID_1_"  style="overflow:visible;"/>
	</clipPath>
	<path class="st0" d="M55.6,499.8c0,0,89.6-215.9,294.9-242.7S534.6,71.1,534.6,71.1s-35.6-266.2,347.9-216S1050.7,574,1050.7,574
		L414.1,715.2L55.6,499.8z"/>
	<path class="st0" d="M457.2,1143.5c0,0-414-277.4-389.1-415.9S6.1,380.7,378.2,122s462.3,105.7,462.3,105.7
		s-239.4,828.6-264.8,816.7C550.4,1032.6,457.2,1143.5,457.2,1143.5z"/>
	<path class="st1" d="M-58.4,552.3c0,0,222-252.8,416.9-280.4c194.9-27.6,447.2-67.8,438-259.6s282.6,625.6,282.6,625.6
		S230.9,778.6,224.9,778.8C218.9,779.1-58.4,552.3-58.4,552.3z"/>
</g>
</svg>
