<?xml version="1.0" encoding="utf-8"?>
<!-- Generator: Adobe Illustrator 19.0.0, SVG Export Plug-In . SVG Version: 6.00 Build 0)  -->
<svg version="1.1" id="Calque_1" xmlns="http://www.w3.org/2000/svg" xmlns:xlink="http://www.w3.org/1999/xlink" x="0px" y="0px"
	 viewBox="0 0 1400 980" style="enable-background:new 0 0 1400 980;" xml:space="preserve">
<style type="text/css">
	.st0{fill:#EE8E61;}
	.st1{fill:#5E4495;}
	.st2{fill:#463277;}
	.st3{fill:#E4E3E3;}
	.st4{fill:#F7B58F;}
	.st5{fill:#59398E;}
	.st6{fill:#392836;}
	.st7{fill:#FDD142;}
	.st8{fill:#FFFFFF;}
	.st9{fill:none;}
	.st10{fill:#191919;}
	.st11{fill:#23201D;}
	.st12{fill:#E9E9E9;}
	.st13{fill:#F6F6F6;}
	.st14{fill:#F49D84;}
	.st15{fill:#F9FCFD;}
	.st16{fill:#4A357F;}
	.st17{fill:#D0907B;}
	.st18{fill:#DC9E8C;}
	.st19{fill:#A95B44;}
	.st20{fill:#66509C;}
	.st21{fill:#65509C;}
	.st22{fill:#BD7F6F;}
</style>
<g id="XMLID_53_">
	<g id="XMLID_917_">
		<path id="XMLID_918_" class="st0" d="M1142.7,302c5.5-1.4,9.8,6.4,8.7,12c-1.5,7.4-8.8,9.7-13,10.9c-0.1-6.3,1.8-15.1,3-21.2
			L1142.7,302z"/>
	</g>
	<g id="XMLID_915_">
		<path id="XMLID_916_" class="st1" d="M1061.6,232.8c-10.5,14.2-14.5,30.7-15.7,47.8c-0.4,7.1,1,12.7,3.3,19.2
			c1.7,5,10.1,16.2,10.7,5.1c0.4-6.1-0.2-12.7-1.4-18.5c4.7-5.1,4-12.8,8.4-18.7c4.1-5.6,10.6-9.4,17.5-11.4
			c3.4-1.1,7.4-1.7,11.1-1.5c3.2,0.2,6.9,2.2,9.8,1.9c3.2-0.1,6.3-3.3,9.4-4.1c3.2-0.9,6.1-0.9,9.2-0.2
			c17.2,2.8,19.1,15.7,19.1,30.8c-0.1,6.9,0.8,13.5,0.1,20.1c-0.2,2.9-1.4,8,2.7,5.5c2.6-1.6,4.3-8,5.6-10.4
			c4.1-8.5,5.8-15.7,5.8-25.2c0-12.1,0.3-23.5-9.1-32.3c-11.8-11.4-27.4-12.1-43-13.2c-12.2-0.8-23,1-34.8,3.6L1061.6,232.8z"/>
	</g>
	<g id="XMLID_913_">
		<path id="XMLID_914_" class="st2" d="M1199.8,394.2c0.3-0.3,0-1.2,0.6-1.2c6.9-1.3,14.8,2.6,20.1,7.1c9.1,7.9-9.6,12.6-16.4,6.1
			L1199.8,394.2z"/>
	</g>
	<g id="XMLID_911_">
		<path id="XMLID_912_" class="st3" d="M1202.4,393c-2.1-4.6,7.5-2.5,9.8-1.6c2.3,0.8,8.4,2.4,9.6,4.4c1.8,2.9-2.5,4.7-5.7,4.5
			L1202.4,393z"/>
	</g>
	<g id="XMLID_909_">
		<path id="XMLID_910_" class="st3" d="M1086.3,379.3c-1.2-0.4-6.5,0.5-8.4,2.5c-4.9,4.7-4.7,17.1-5,22.9
			c-0.1,13.1-2.2,25.9-3.1,38.6c-0.8,18.9-0.4,37.4-0.5,56c0.1,3.1-1,10.1,0.6,12.3c2.4,3,10.5,3.7,14,4c7.7,0.6,26.3,1,31.1-6
			c3-4.7,1.6-18.2,1.5-23.6c0.2-10.8-0.8-21.2,0.1-32c1.6-16.6,3.2-34,1.3-50.6c-0.9-8.5-0.3-17.7-8.9-21.4c-2-1.1-3.9-1.9-6.2-2.2
			L1086.3,379.3z"/>
	</g>
	<g id="XMLID_906_">
		<g id="XMLID_907_">
			<path id="XMLID_908_" class="st4" d="M1202.5,399.5c6.2-21.7,4.3-43.7,7.2-65.7c0.8-4.6,4.5-29.2,8.1-28.2c4,1.2,0.6,25,0.8,29.4
				c-0.1,1.9-0.5,3.3-0.5,5.2c2.5-7,3.7-14.5,5.6-21.2c0.9-3.1,1.4-9.8,3.9-12c3.3-2.9,8.6-2.9,7.1,2.5c7.4-7.1,3.7,10.8,3.3,14
				c-1.5,6.9-3.5,14-5.5,20.8c1.4-6.4,6.4-15.6,13-16.7c-0.4,11.5-8.6,16.5-13.7,25.7c-4.1,7.6-3.5,24.1-15.7,22.5
				c-2.4,8.5-4.4,17.2-5.5,25.9L1202.5,399.5z"/>
		</g>
	</g>
	<g id="XMLID_903_">
		<g id="XMLID_904_">
			<path id="XMLID_905_" class="st0" d="M1224.4,341.6c0,0,0.1-0.5,0.4-1.4c0.3-0.9,0.6-2.2,1.1-3.7c0.9-3.1,2.3-7.1,3.8-11.1
				c1.3-4.1,2.7-8.1,3.8-11c0.6-1.5,1.1-2.7,1.5-3.6c0.4-0.9,0.6-1.4,0.6-1.4s-0.1,0.5-0.3,1.4c-0.2,0.9-0.5,2.2-0.8,3.8
				c-0.7,3.1-1.9,7.3-3.2,11.4c-1.5,4-3.2,7.9-4.5,10.8c-0.7,1.5-1.3,2.6-1.7,3.5C1224.7,341.1,1224.4,341.6,1224.4,341.6z"/>
		</g>
	</g>
	<g id="XMLID_900_">
		<g id="XMLID_901_">
			<path id="XMLID_902_" class="st4" d="M1204.7,332.5c-6.9,1.9-3.9,37.2,3.2,41.2c12.7,6.5,8.2-16.6,5-20.9
				c-2.4-3.6-3.1-0.9-4.9-6.7c-1-3.2-1.3-7.2-1.3-10.6L1204.7,332.5z"/>
		</g>
	</g>
	<g id="XMLID_897_">
		<g id="XMLID_898_">
			<path id="XMLID_899_" class="st0" d="M1215.9,371.2c0,0,0-0.4,0-1.2c0-0.4,0.1-0.8,0-1.4c0-0.5-0.1-1.1-0.1-1.7
				c0-0.6-0.2-1.3-0.2-2c-0.1-0.7-0.2-1.5-0.4-2.2c-0.1-0.8-0.3-1.6-0.5-2.4c-0.2-0.8-0.4-1.6-0.6-2.4c-0.2-0.8-0.4-1.6-0.8-2.4
				c-0.2-0.4-0.3-0.8-0.4-1.1c-0.2-0.3-0.3-0.7-0.5-1c-0.4-0.6-0.9-1.3-1.3-1.7c-0.4-0.4-1.1-0.8-1.6-1.4c-0.5-0.6-0.7-1.2-0.9-1.7
				c-0.2-0.5-0.3-1-0.4-1.3c-0.2-0.7-0.2-1.2-0.2-1.2s0.2,0.4,0.5,1.1c0.2,0.3,0.3,0.8,0.6,1.2c0.2,0.5,0.6,0.9,1,1.3
				c0.4,0.3,1.1,0.6,1.7,1.1c0.7,0.6,1.2,1.1,1.7,1.8c0.5,0.7,1,1.5,1.2,2.3c0.4,0.8,0.6,1.7,0.9,2.5c0.3,0.8,0.4,1.7,0.6,2.5
				c0.2,0.8,0.3,1.7,0.4,2.5c0.1,0.8,0.2,1.6,0.2,2.4c0,0.8,0.1,1.5,0,2.1c-0.1,0.7-0.1,1.3-0.2,1.8c-0.1,0.5-0.3,1-0.3,1.3
				C1216.1,370.7,1215.9,371.2,1215.9,371.2z"/>
		</g>
	</g>
	<g id="XMLID_894_">
		<g id="XMLID_895_">
			<path id="XMLID_896_" class="st0" d="M1214.9,339.4c0,0,1.2,0,3,0.2c0.9,0.1,1.9,0.2,3,0.3c0.6,0.1,1.1,0.1,1.7,0.3
				c0.6,0.1,1.2,0.3,1.8,0.4c0.6,0.2,1.2,0.4,1.7,0.6c0.6,0.2,1.1,0.5,1.6,0.8c1.1,0.5,1.9,1.3,2.6,1.8c0.4,0.3,0.6,0.6,0.9,0.9
				c0.2,0.3,0.4,0.5,0.6,0.7c0.3,0.4,0.5,0.7,0.5,0.7s-0.3-0.2-0.7-0.4c-0.2-0.1-0.5-0.3-0.8-0.5c-0.3-0.2-0.6-0.4-1-0.6
				c-0.4-0.2-0.8-0.4-1.3-0.6c-0.4-0.3-0.9-0.4-1.4-0.6c-0.5-0.2-1-0.4-1.5-0.6c-0.5-0.2-1.1-0.3-1.6-0.5c-2.2-0.6-4.6-1.2-6.3-1.7
				C1216,339.9,1214.9,339.4,1214.9,339.4z"/>
		</g>
	</g>
	<g id="XMLID_892_">
		<path id="XMLID_893_" class="st4" d="M1039.4,545.7c-1.9,1.2-5.4,1.6-7.3,3.6c-4.6,3.6-4.8,9.7-4.7,15.1
			c0.2,10.4,9,25.7,19.9,28.6c2.1-11.2-2.4-25.4-5.3-36.6c1.2,3.4,4,8,6.8,10.3c4.1-5.1-3.8-18.4-8.5-21.4L1039.4,545.7z"/>
	</g>
	<g id="XMLID_887_">
		<g id="XMLID_890_">
			<path id="XMLID_891_" class="st1" d="M1085.9,829.9c0.2-4.8-2-10.2-3.8-14.6l-23.1,0.9c-4.8,4.8-13.2,9.4-20,13.5
				c-3.7,2.2-14.5,6.7-16.5,10.8C1027.9,849.7,1075.1,836.6,1085.9,829.9z"/>
		</g>
		<g id="XMLID_888_">
			<path id="XMLID_889_" class="st5" d="M1022.5,840.4c-1.1,2.1,0.3,4.1,6.3,5.4c9,2,19.3,0.4,28.5-1.8c4.2-0.9,8.7-4.6,13-4.7
				c5-0.6,6.7,2.5,11.9-1.6c2.6-2,3.6-4.8,3.7-7.8C1075.1,836.6,1027.9,849.7,1022.5,840.4z"/>
		</g>
	</g>
	<g id="XMLID_882_">
		<g id="XMLID_885_">
			<path id="XMLID_886_" class="st1" d="M1091.3,831.4c-0.5-4.7,1.2-10.3,2.7-14.9l23.1-0.9c5.2,4.4,13.8,8.4,20.9,12
				c3.9,1.9,15,5.7,17.3,9.5C1150.6,846.9,1102.5,837.3,1091.3,831.4z"/>
		</g>
		<g id="XMLID_883_">
			<path id="XMLID_884_" class="st5" d="M1155.3,837.2c1.2,2,0,4.1-5.9,5.9c-8.8,2.6-19.2,1.9-28.6,0.3c-4.3-0.6-9-3.9-13.3-3.8
				c-5-0.2-6.5,2.9-12-0.7c-2.8-1.8-4-4.5-4.3-7.5C1102.5,837.3,1150.6,846.9,1155.3,837.2z"/>
		</g>
	</g>
	<g id="XMLID_880_">
		<path id="XMLID_881_" class="st1" d="M1039.2,534.2c0,0,5.1,109.2,8.5,127.2c3.4,17.9-2.6,58,3.4,88.4c3,15.2,8.1,32.9,5.3,48.2
			c-0.5,2.8-1.8,4.8,1.4,7.1c-3.3,1.7-3.4,5.4,0,6.8c-10.4,3.6,7.7,7,10.6,7.1c4,0.1,18,2.4,19-2.4L1089,594c0,0,1.1,108,2.3,111.1
			c1.3,3.1-5.5,87.7-0.7,109.9c0.7,3.3,12.5,4,14.6,3.9c4.1-0.1,14.1-1.2,16.7-4.9c1.9-2.9,1-10.3-2.7-11.3c2.1-1.8,3.9-4.1,3.2-7
			c-0.5-0.1-1,0-1.5-0.1c6.6-3.8,1.8-7.4,0-11.5c0,0,5.9-73.8,7-92.9c1-19.1,13.4-139.2,8.8-155.1l-10.7-22.8l-80.2,7.2l-6.9,0.3
			L1039.2,534.2z"/>
	</g>
	<g id="XMLID_864_">
		<path id="XMLID_865_" class="st2" d="M1093.9,520.5c0,0,0.4,3.3,1,8.2c0.3,2.5,0.7,5.4,1,8.5c0.3,3.1,0.4,6.5,0.5,9.8
			c-0.1,1.7,0,3.4-0.2,5c-0.1,1.7-0.3,3.3-0.6,4.8c-0.2,1.6-0.6,3.1-1,4.4c-0.5,1.4-0.8,2.7-1.4,3.9c-0.3,0.6-0.5,1.1-0.7,1.7
			c-0.3,0.5-0.6,1-0.8,1.4c-0.5,0.9-1,1.7-1.5,2.2c-0.9,1.1-1.4,1.8-1.4,1.8s0.4-0.7,1.2-2c0.4-0.6,0.8-1.4,1.2-2.3
			c0.5-0.9,0.8-2,1.2-3.1c0.5-1.1,0.7-2.5,1-3.8c0.3-1.4,0.5-2.8,0.7-4.4c0.2-1.5,0.3-3.1,0.4-4.7c0.1-1.6,0.1-3.3,0.1-4.9
			c0-1.6,0-3.3-0.1-4.9c-0.1-1.6-0.1-3.2-0.2-4.8c-0.1-3.1-0.3-6-0.4-8.5C1093.7,523.8,1093.9,520.5,1093.9,520.5z"/>
	</g>
	<g id="XMLID_851_">
		<g id="XMLID_856_">
			<path id="XMLID_857_" class="st6" d="M1069.9,510.2c-4.8-0.4-9.5-1-14.2-1.7c-3.5-0.5-8.4-0.3-11.5-2.4l0.5,12.5
				c4,0.4,8.2,1.3,12.3,1.7c7.6,0.8,15.3,1.4,23.1,2.1c0.2-3.8,0.7-7.7,0.9-11.5C1077.2,510.8,1073.5,510.6,1069.9,510.2z"/>
		</g>
		<g id="XMLID_854_">
			<path id="XMLID_855_" class="st6" d="M1132.9,506.9c-1.1-0.1-2.1,0.4-3.1,0.7c-9.2,2.8-19.6,3.7-29.5,3.8
				c-0.4,3.9-0.1,8.2-0.2,12.3c5.7,0,11.4-0.4,17-0.8c4.3-0.3,14.7-2,15.5-6.7C1133.3,513.3,1133.1,509.8,1132.9,506.9z"/>
		</g>
		<g id="XMLID_852_">
			<path id="XMLID_853_" class="st7" d="M1092.1,511.3c-3.8-0.1-7.5-0.2-11.3-0.3c-0.1,3.8-0.7,7.7-0.9,11.5c2,0.2,3.9,0.4,5.9,0.6
				c4.7,0.5,9.5,0.7,14.4,0.7c0.1-4.1-0.2-8.4,0.2-12.3C1097.6,511.4,1094.8,511.4,1092.1,511.3z"/>
		</g>
	</g>
	<g id="XMLID_849_">
		<path id="XMLID_850_" class="st5" d="M1093.1,398.1c-3.5,14.5-3.9,20.7-8,45c-1.6,7.8-4.3,27-2.8,30.5c2.6,6.2,8.9,17.1,13.3,21.9
			c3.7-5.3,8.5-16.6,11.4-22.4c1.5-3-5-51.2-9.3-75.1L1093.1,398.1z"/>
	</g>
	<g id="XMLID_847_">
		<path id="XMLID_848_" class="st5" d="M1093.4,385c-1.4,1.5-5.7,5.3-5.9,7.4c-0.8,3.2,3.6,8.3,6.6,9.4c4.1,1.4,7.5-3,9.1-7.1
			c1.7-3.8,1.3-5.8-1.6-8.9L1093.4,385z"/>
	</g>
	<g id="XMLID_845_">
		<path id="XMLID_846_" class="st8" d="M1086.9,377.6c-2.3,0.6-7.2,0.1-9.2,1.9c-4.3,3.8-4.9,15.1-3.1,20.3c2.5,8.6,10,8.2,15.1,2
			c4.5-5,5-10.5,6-16.9c1.3,6.1,8.4,27.6,17.5,20.8c6.8-5.3,0.5-19.7-1.1-26c-6.9,0.7-18.9,8.8-25.2,0.8L1086.9,377.6z"/>
	</g>
	<g id="XMLID_843_">
		<path id="XMLID_844_" class="st4" d="M1064.2,243.7c-1.8,2.6-3.3,5.4-4.5,8.3c-3.2,7.9-4.7,16.4-5.8,24.8
			c-0.9,7.4-1.6,13.2,0,26.4c-1.9-2.3-4.3-1.7-6.9,0.2c-3.4,2.7-3.6,5-3,9.2c0.9,7.4,6.9,13.7,14.3,13.3c4.5,13.4,10.8,27.4,28.3,31
			c1.2,7.4,0.6,16.1,1,23.5c3.8,3.9,20.5,5.6,19.8-0.7c-0.3-2.9-1.1-17.4-2-22.1c8.2-2,11.8-3.1,17.3-6.7
			c6.8-4.4,11.7-11.1,15.2-18.3c3-6.7,5.8-14.1,6.7-21.3c0.7-6.6,2.4-12.7,3.6-19.3c1.2-8.2,0.7-17.4,0.3-25.9
			c-1.3-25.1-24.5-39.9-48.3-39.5c-12.2,0.2-24.5,4.2-33.1,13.3C1066.1,241.1,1065.1,242.4,1064.2,243.7z"/>
	</g>
	<g id="XMLID_824_">
		<path id="XMLID_825_" class="st0" d="M1094,357.5c0,0,1.2-0.2,2.9-0.3c0.4,0,0.9,0,1.4,0c0.5-0.1,1-0.1,1.5-0.2
			c0.5,0,1.1-0.1,1.6-0.1c0.6,0,1.1,0,1.7-0.2c1.1-0.2,2.3-0.3,3.4-0.4c1.1-0.1,2.1-0.3,3-0.4c1.7-0.2,3-0.2,3-0.2s-1.1,0.5-2.7,1.1
			c-0.8,0.3-1.8,0.7-2.9,0.9c-1.1,0.2-2.3,0.4-3.4,0.6c-1.2,0.2-2.4,0.1-3.5,0.1c-0.6,0-1.1,0-1.6-0.1c-0.5-0.1-1-0.2-1.4-0.3
			C1095.1,357.9,1094,357.5,1094,357.5z"/>
	</g>
	<g id="XMLID_821_">
		<g id="XMLID_822_">
			<path id="XMLID_823_" class="st1" d="M1103.9,247.6c1.6-7.9,0.7-17,0.3-24.9c-3.9,0.1-15.2-4.6-18.1-2.4c-4.9,3.8,6.5,6.3,8.8,7
				c-1.7,0-7.9-0.3-8.1,1.9c-0.2,2.2,6,2.8,7.5,3.3c-2.2,0-10.6-0.5-10.6,2.9c0.1,3.5,6.7,2.3,8.9,3c5,1.4,9,5.5,10.8,8.7
				L1103.9,247.6z"/>
		</g>
	</g>
	<g id="XMLID_818_">
		<g id="XMLID_819_">
			<path id="XMLID_820_" class="st1" d="M1107.9,222.6c-0.9,3-0.3,7.7-0.5,11.1c-0.2,4.7-1.3,9.4-1,14.1c2.4-6,6.5-8.3,12.7-9.4
				c1.5,0,5.4,0.4,5.9-1.3c0.9-2.7-3.5-3.1-5.2-3.1c2.9-4,7.3-6.1-0.9-6.2c2.9-2.8,6.8-5.1,1.4-6.7c-1.7-0.5-4.9,0.1-6.7,0.4
				L1107.9,222.6z"/>
		</g>
	</g>
	<g id="XMLID_816_">
		<path id="XMLID_817_" class="st1" d="M1041.6,269.8c0,0,0-0.4,0.1-1.1c0.1-0.7,0.1-1.6,0.3-2.8c0.2-1.2,0.5-2.5,0.9-3.9
			c0.4-1.4,0.9-2.8,1.5-4.3c1.1-2.9,2.5-5.6,3.5-7.7c1.1-2.1,1.9-3.4,1.9-3.4s-0.3,1.5-1,3.8c-0.7,2.2-1.7,5.1-2.9,7.9
			c-0.6,1.4-1.1,2.8-1.6,4.2c-0.3,0.7-0.5,1.3-0.8,1.9c-0.2,0.6-0.4,1.2-0.6,1.7c-0.4,1.1-0.7,2-1,2.6
			C1041.8,269.5,1041.6,269.8,1041.6,269.8z"/>
	</g>
	<g id="XMLID_814_">
		<path id="XMLID_815_" class="st1" d="M1051.6,274.8c0,0,0.3-1.3,0.8-3.2c0.1-0.5,0.3-1,0.5-1.5c0.1-0.5,0.3-1.1,0.4-1.7
			c0.3-1.2,0.7-2.4,1.1-3.7c0.4-1.3,0.8-2.5,1.3-3.7c0.4-1.2,0.9-2.2,1.4-3.1c0.9-1.8,1.7-2.9,1.7-2.9s-0.2,1.4-0.7,3.3
			c-0.1,0.5-0.3,1-0.4,1.5c-0.2,0.5-0.3,1.1-0.5,1.7c-0.3,1.2-0.7,2.5-1.1,3.7c-0.4,1.3-0.9,2.5-1.3,3.7c-0.2,0.6-0.5,1.1-0.7,1.7
			c-0.3,0.5-0.5,1-0.8,1.4C1052.4,273.7,1051.6,274.8,1051.6,274.8z"/>
	</g>
	<g id="XMLID_809_">
		<g id="XMLID_812_">
			<path id="XMLID_813_" class="st5" d="M1061.6,414.9c2.8-4.4,8-7.1,11.7-10.6c-2.9-2.5-11-0.7-13.7-3.5c-2.1-2.6,2.2-6.7,4.2-9.1
				c3.7-4.7,7.9-8.4,12.4-11.8c-4.6,1-9.8,2.5-14.1,3.5c-12.1,2.4-22.9,3.5-25.3,17c-4.3,24.8-7.3,50.1-11.1,74.9
				c-0.8,5.2-7.5,16.2-3.1,18.3c-7.3,3.2-1.6,31.3-1.4,38.2c0.7,12.6,1.3,22.5,6.3,34.2c0-5,0.4-10,2.5-13.9c1.7-3.7,4-3.8,7.4-5.2
				c0.2,4.6,0.7,7.7,2.1,12c3.7,10.8,10,21.1,18.4,29.2c3.1,3.4,8.5,10.7,13.1,6.3c3-3.1,2.4-12.6,2.7-16.5
				c2.1-25.2,2.5-50,3.3-75.6c0.1-3.6,0.3-7.2,0.4-10.8c-7.4-21.3-13.2-42.6-16.9-65C1059.7,421.6,1059,418.7,1061.6,414.9z"/>
		</g>
		<g id="XMLID_810_">
			<path id="XMLID_811_" class="st1" d="M1080.6,406c0.3-7-0.8-20.8,3.4-26.5l-1.7-0.4c-1.8,0-4,0.4-6.2,0.8
				c-4.5,3.4-8.6,7.1-12.4,11.8c-2,2.4-6.2,6.5-4.2,9.1c2.7,2.8,10.7,0.9,13.7,3.5c-3.7,3.5-8.8,6.3-11.7,10.6
				c-2.5,3.8-1.9,6.7-1.2,11.3c3.8,22.4,9.5,43.7,16.9,65c0.7-18.4,1.4-36.6,1.8-54.8C1079.3,426.4,1080,416,1080.6,406z"/>
		</g>
	</g>
	<g id="XMLID_807_">
		<path id="XMLID_808_" class="st8" d="M1200.1,398c0.8-1.5,1.6-4.6,2.2-6.9l0,0.8c4.3,2.8,12.4,6,19.6,6.2
			c-0.7,3.5-2.6,7.1-3.7,9.7L1200.1,398z"/>
	</g>
	<g id="XMLID_802_">
		<g id="XMLID_805_">
			<path id="XMLID_806_" class="st5" d="M1199.8,393.1c-1.1,4.9-11.5,48-17.3,48.7c-3-4.3-3-6.3-5.2-1.6
				c-5.9-5.1-11.6-8.5-16.6-14.4c-5-5.4-9.1-13.4-13-19.7c-2.7-4.6-3.9-9.5-6.1-13.8c-2.4-5.5-7.7-7.7-12.3-9.9l-15.3-4.1
				c1.7,3.6,4.5,7.9,5.9,10.4c0.9,1.7,5.3,6.8,4.8,8.9c-0.2,3.5-6.3,3.6-8.6,5.4c-3.7,2.7-1.7,3.8,1.6,7.5c3,3.4,5.6,4.8,5.7,9.2
				c0.4,6.1-2.6,13.4-3.4,19.2c-2.9,15.3-8.2,36.3-12.7,53.2c-0.4,18.3-0.8,33.5-1.1,40.5c-0.1,8.4-0.6,48.1,1.8,51.5
				c5.4,8,16.6,2.3,22.6-2.2c6.3-5.3,9.9-13.8,10-21.6c0-16.2-0.6-32.4-1.5-48.6c-0.6-15.3-1.5-62.5-1.7-72.1
				c10.4,10.7,20.3,18.7,33.2,26.3c7.9,4.7,19.3,11.7,29.4,9.5c8.4-1.9,11.8-18.7,14.2-26.3c3.8-11.1,6-22.6,8-36
				c0.4-2.6,0.5-5.5,0.7-8.1C1217.3,403.7,1200.2,400.9,1199.8,393.1z"/>
		</g>
		<g id="XMLID_803_">
			<path id="XMLID_804_" class="st1" d="M1123.3,419.5c-0.1-4.3-2.7-5.7-5.7-9.2c-3.3-3.7-5.3-4.8-1.6-7.5c2.3-1.8,8.4-1.9,8.6-5.4
				c0.5-2-3.9-7.2-4.8-8.9c-1.4-2.5-4.2-6.8-5.9-10.4l-5.6-1.5c0.9,3.7-0.1,69.2-1.1,115.2c4.5-16.9,9.8-37.9,12.7-53.2
				C1120.7,432.8,1123.7,425.5,1123.3,419.5z"/>
		</g>
	</g>
	<g id="XMLID_800_">
		<path id="XMLID_801_" class="st1" d="M1146.1,246.3c0,0,0.2,0.4,0.6,1.2c0.4,0.8,0.9,1.9,1.5,3.2c0.3,0.7,0.6,1.4,1,2.2
			c0.4,0.8,0.6,1.7,0.8,2.5c0.6,1.8,1.1,3.7,1.6,5.6c0.4,1.9,0.7,3.9,1,5.7c0.1,0.9,0.3,1.8,0.4,2.6c0.1,0.8,0.1,1.6,0.2,2.4
			c0.1,1.5,0.1,2.7,0.2,3.6c0,0.9,0,1.4,0,1.4s-0.1-0.5-0.3-1.3c-0.2-0.8-0.5-2-0.8-3.5c-0.2-0.7-0.3-1.5-0.5-2.3
			c-0.1-0.8-0.4-1.7-0.6-2.6c-0.4-1.8-0.8-3.7-1.2-5.6c-0.5-1.9-1-3.7-1.4-5.5c-0.2-0.9-0.3-1.8-0.6-2.6c-0.2-0.8-0.5-1.6-0.7-2.3
			c-0.4-1.4-0.7-2.6-0.9-3.5C1146.2,246.8,1146.1,246.3,1146.1,246.3z"/>
	</g>
	<g id="XMLID_798_">
		<path id="XMLID_799_" class="st1" d="M1156,246.9c0,0,0.2,0.4,0.6,1c0.3,0.6,0.9,1.5,1.4,2.7c0.2,0.6,0.5,1.2,0.8,1.9
			c0.3,0.7,0.5,1.4,0.7,2.1c0.2,0.7,0.5,1.5,0.6,2.3c0.2,0.8,0.4,1.6,0.5,2.4c0.1,0.8,0.2,1.6,0.4,2.4c0.1,0.8,0.2,1.6,0.2,2.4
			c0.1,1.5,0.2,3,0.2,4.2c0,1.2-0.1,2.3-0.1,3c0,0.7-0.1,1.1-0.1,1.1s-0.1-0.4-0.2-1.1c-0.1-0.7-0.3-1.7-0.5-2.9
			c-0.2-1.2-0.4-2.6-0.7-4.1c-0.2-1.5-0.5-3.1-0.8-4.7c-0.3-1.6-0.6-3.2-1-4.7c-0.2-0.7-0.3-1.5-0.5-2.1c-0.2-0.7-0.3-1.3-0.5-1.9
			c-0.3-1.2-0.6-2.2-0.8-2.9C1156.1,247.3,1156,246.9,1156,246.9z"/>
	</g>
	<g id="XMLID_796_">
		<path id="XMLID_797_" class="st2" d="M1041.2,391.6c0,0-0.1,0.6-0.4,1.7c-0.2,1.1-0.7,2.8-1.1,4.9c-0.4,2.1-0.9,4.7-1.2,7.7
			c-0.2,1.5-0.4,3.1-0.5,4.8c-0.1,1.7-0.3,3.5-0.3,5.3c-0.1,1.9-0.2,3.8-0.2,5.8c0,2,0,4.1,0,6.2c0.1,4.3,0.3,8.8,0.6,13.4
			c0.5,9.3,1.3,19.2,1.5,29.2c0.1,5-0.1,10-0.1,14.9c-0.1,4.9-0.2,9.7-0.2,14.4c-0.1,9.3-0.4,18-0.6,25.5c-0.1,3.7-0.2,7.1-0.3,10.2
			c-0.2,3-0.3,5.7-0.5,7.8c-0.4,4.3-0.6,6.8-0.6,6.8s0.4-2.5,0.6-6.8c0.1-2.2,0.5-4.8,0.5-7.8c0-3,0-6.4,0-10.2
			c0-7.5-0.3-16.2-0.2-25.5c0-4.7-0.1-9.5,0-14.4c0-4.9,0.1-9.9,0-14.8c-0.2-9.9-0.9-19.8-1.4-29.2c-0.2-4.7-0.4-9.2-0.3-13.5
			c0-2.1,0-4.2,0.1-6.2c0-2,0.2-4,0.3-5.8c0.1-1.9,0.3-3.7,0.5-5.3c0.2-1.7,0.4-3.3,0.7-4.8c0.4-3,1-5.6,1.5-7.7
			c0.4-2.1,1-3.7,1.3-4.9C1041,392.1,1041.2,391.6,1041.2,391.6z"/>
	</g>
	<g id="XMLID_794_">
		<path id="XMLID_795_" class="st2" d="M1022,494.7c0,0,0.7-0.5,1.8-1c0.6-0.3,1.2-0.5,2-0.7c0.7-0.2,1.5-0.4,2.4-0.5
			c0.4,0,0.8-0.1,1.2-0.1c0.4-0.1,0.8,0,1.2,0c0.8,0,1.5,0.1,2.1,0.2c0.6,0.1,1.1,0.3,1.5,0.5c0.3,0.1,0.5,0.2,0.5,0.2
			s-0.2,0-0.6,0.1c-0.4,0.1-0.9,0.1-1.4,0.2c-0.6,0.1-1.3,0.2-2,0.3c-0.7,0.1-1.5,0.2-2.3,0.3c-1.6,0.2-3.1,0.4-4.4,0.5
			C1022.9,494.7,1022,494.7,1022,494.7z"/>
	</g>
	<g id="XMLID_792_">
		<path id="XMLID_793_" class="st2" d="M1020.1,499.3c0,0,0.2-0.1,0.6-0.3c0.4-0.1,0.9-0.4,1.6-0.6c0.4-0.1,0.7-0.2,1.2-0.2
			c0.4-0.1,0.8-0.1,1.3-0.1c0.4,0,0.9,0,1.4,0.1c0.5,0.1,0.9,0.1,1.4,0.2c0.5,0.1,0.9,0.2,1.4,0.4c0.5,0.1,0.9,0.3,1.3,0.5
			c0.8,0.3,1.6,0.7,2.2,1c1.2,0.7,1.9,1.3,1.9,1.3s-1-0.1-2.3-0.4c-0.7-0.1-1.4-0.3-2.3-0.5c-0.8-0.2-1.7-0.4-2.5-0.6
			c-0.9-0.1-1.7-0.3-2.5-0.4c-0.4,0-0.8-0.2-1.2-0.2c-0.4,0-0.7-0.1-1.1-0.1c-0.7-0.1-1.3,0-1.7-0.1
			C1020.3,499.4,1020.1,499.3,1020.1,499.3z"/>
	</g>
	<g id="XMLID_790_">
		<path id="XMLID_791_" class="st2" d="M1028.6,490.2c0,0,0.4-0.4,1.1-0.9c0.2-0.1,0.4-0.2,0.6-0.3c0.2-0.1,0.4-0.3,0.6-0.4
			c0.4-0.3,0.8-0.5,1.2-0.8c0.4-0.3,0.8-0.6,1.2-0.8c0.2-0.1,0.4-0.2,0.6-0.3c0.2-0.1,0.4-0.2,0.6-0.3c0.7-0.4,1.3-0.6,1.3-0.6
			s-0.2,0.6-0.6,1.3c-0.2,0.4-0.5,0.8-0.9,1.1c-0.4,0.4-0.8,0.7-1.2,1.1c-0.5,0.3-1.1,0.6-1.6,0.7c-0.3,0.1-0.5,0.2-0.7,0.2
			c-0.2,0-0.5,0-0.7,0.1C1029.2,490.3,1028.6,490.2,1028.6,490.2z"/>
	</g>
	<g id="XMLID_788_">
		<path id="XMLID_789_" class="st2" d="M1060.1,531c0,1.1-0.1,2.2-0.1,3.3c0,1.1-0.2,2.2-0.2,3.3c0,2.2,0,4.3,0,6.5l0,0.9l-0.8,0
			l-5.1,0c-1.7,0-3.4-0.1-5.1-0.2c-1.7-0.1-3.4-0.4-5.1-0.7c-0.8-0.2-1.7-0.4-2.5-0.6c-0.8-0.3-1.6-0.6-2.4-0.9
			c0.9,0.1,1.7,0.2,2.5,0.3c0.8,0.1,1.7,0.1,2.5,0.2l2.5,0.1l2.5,0c3.4,0,6.8,0,10.2,0.1l-0.9,0.8c0.1-2.2,0.3-4.5,0.5-6.7
			c0.2-1.1,0.4-2.1,0.7-3.2C1059.5,533.1,1059.8,532,1060.1,531z"/>
	</g>
	<g id="XMLID_786_">
		<path id="XMLID_787_" class="st2" d="M1022.2,545.3c0,0,0-0.3,0-0.7c0-0.2,0.1-0.5,0.1-0.8c0-0.3,0.1-0.7,0.3-1.1
			c0.1-0.4,0.3-0.8,0.5-1.3c0.2-0.5,0.5-0.8,0.8-1.3c0.3-0.4,0.6-0.9,1-1.2c0.4-0.4,0.8-0.8,1.1-1.2c0.9-0.7,1.7-1.4,2.6-1.8
			c0.9-0.5,1.7-0.9,2.4-1.2c1.5-0.6,2.5-0.9,2.5-0.9s-0.8,0.8-2,1.7c-0.6,0.5-1.3,1-2.1,1.6c-0.8,0.6-1.5,1.3-2.3,1.9
			c-0.7,0.7-1.5,1.3-2.1,2c-0.3,0.4-0.7,0.7-0.9,1c-0.2,0.3-0.5,0.6-0.7,0.9c-0.2,0.3-0.4,0.6-0.6,0.9c-0.2,0.3-0.3,0.5-0.4,0.7
			C1022.3,545.1,1022.2,545.3,1022.2,545.3z"/>
	</g>
	<g id="XMLID_784_">
		<path id="XMLID_785_" class="st9" d="M1156.3,387.7"/>
	</g>
	<g id="XMLID_782_">
		<path id="XMLID_783_" class="st2" d="M1177.2,440.1c0,0,0.3,0.8,0.5,2c0.2,1.2,0.4,2.8,0.4,4.4c0,0.8,0,1.6,0,2.3
			c0,0.7-0.1,1.4-0.1,2c-0.1,1.2-0.3,2-0.3,2s-0.4-0.7-0.7-1.9c-0.4-1.2-0.5-2.8-0.6-4.4c0-1.6,0.1-3.2,0.3-4.4
			C1177,440.9,1177.2,440.1,1177.2,440.1z"/>
	</g>
	<g id="XMLID_780_">
		<path id="XMLID_781_" class="st2" d="M1182.4,441.8c0,0,0.4,0.5,0.8,1.4c0.1,0.2,0.2,0.4,0.3,0.7c0.1,0.3,0.2,0.5,0.4,0.8
			c0.3,0.5,0.5,1,0.7,1.6c0.5,1.1,0.9,2.2,1.2,3.2c0.3,0.9,0.3,1.6,0.3,1.6s-0.6-0.4-1.2-1.1c-0.6-0.7-1.3-1.8-1.9-2.9
			c-0.2-0.6-0.4-1.3-0.6-1.9c-0.2-0.6-0.1-1.1-0.2-1.6C1182.3,442.4,1182.4,441.8,1182.4,441.8z"/>
	</g>
	<g id="XMLID_778_">
		<path id="XMLID_779_" class="st2" d="M1122,529.2c0,0,0.2,0.4,0.4,1.3c0.2,0.8,0.4,2,0.6,3.5c0.2,1.4,0.4,3.1,0.6,4.9
			c0.1,0.9,0.3,1.8,0.5,2.6c0.1,0.4,0.2,0.9,0.4,1.2c0.1,0.2,0.2,0.3,0.3,0.4l0.1,0.1l0,0l0,0l0,0c-0.3-0.2-0.1,0-0.1-0.1l0.1,0
			l0.3,0.2c0.6,0.2,1.5,0.2,2.3,0.1c0.9-0.1,1.8-0.2,2.6-0.5c1.7-0.4,3.3-0.9,4.7-1.4c1.4-0.5,2.5-0.9,3.3-1.2
			c0.8-0.3,1.2-0.6,1.2-0.6s-0.3,0.4-1,0.9c-0.7,0.5-1.7,1.2-3,1.9c-1.3,0.7-2.9,1.4-4.7,1.9c-0.9,0.3-1.8,0.5-2.8,0.7
			c-1,0.1-2.1,0.2-3.4-0.3l-0.3-0.2l-0.1,0l-0.2-0.1l0,0l0,0l0,0l-0.2-0.2c-0.3-0.3-0.4-0.5-0.5-0.8c-0.2-0.5-0.4-1-0.5-1.5
			c-0.2-1-0.3-2-0.4-2.9c-0.1-1.8-0.1-3.6-0.1-5c0-1.5,0.1-2.7,0.1-3.5C1122,529.7,1122,529.2,1122,529.2z"/>
	</g>
	<g id="XMLID_776_">
		<path id="XMLID_777_" class="st2" d="M1136.1,405.9c0,0,0.1,0.6,0.2,1.6c0.1,1,0.3,2.4,0.4,4.2c0.1,0.9,0.1,1.8,0.2,2.8
			c0.1,1,0.2,2,0.3,3.1c0.2,2.1,0.4,4.4,0.5,6.7c0.1,2.3,0.2,4.6,0.2,6.8c0,1.1,0.1,2.1,0,3.1c-0.1,1-0.2,1.9-0.2,2.8
			c-0.1,1.7-0.3,3.2-0.4,4.2c-0.1,1-0.2,1.6-0.2,1.6s-0.1-0.6-0.1-1.6c0-1-0.2-2.4-0.2-4.2c0-0.9-0.1-1.8-0.1-2.8c0-1-0.2-2-0.2-3.1
			c-0.2-2.1-0.3-4.4-0.4-6.7c-0.1-2.3-0.3-4.6-0.3-6.8c-0.1-2.2,0-4.2,0-5.9c0-1.7,0.2-3.2,0.2-4.2
			C1136,406.5,1136.1,405.9,1136.1,405.9z"/>
	</g>
	<g id="XMLID_774_">
		<path id="XMLID_775_" class="st2" d="M1196.6,409.1c0,0,0.3,0.2,0.9,0.4c0.6,0.3,1.3,0.8,2.2,1.2c0.5,0.2,1,0.4,1.5,0.7
			c0.5,0.3,1.1,0.4,1.7,0.7c1.2,0.5,2.5,0.9,3.8,1.3c2.7,0.7,5.3,1.5,7.3,2c2,0.6,3.3,1.1,3.3,1.1s-1.4,0.1-3.5-0.1
			c-1-0.1-2.3-0.2-3.6-0.4c-0.6-0.1-1.3-0.2-2-0.4c-0.7-0.2-1.4-0.3-2.1-0.5c-0.7-0.2-1.3-0.5-2-0.7c-0.7-0.2-1.3-0.6-1.9-0.8
			c-0.6-0.3-1.2-0.6-1.7-0.9c-0.5-0.3-1-0.7-1.4-1c-0.9-0.6-1.4-1.3-1.9-1.7C1196.8,409.3,1196.6,409.1,1196.6,409.1z"/>
	</g>
	<circle id="XMLID_57_" class="st10" cx="1084.6" cy="294.3" r="4.5"/>
	<circle id="XMLID_56_" class="st10" cx="1118.5" cy="294.3" r="4.5"/>
	<path id="XMLID_55_" class="st5" d="M1088.2,277.4c-0.3,0-0.7-0.1-0.9-0.4c-0.1-0.1-1.7-1.7-5.3-1.7c-3.7,0-5.8,1.7-5.8,1.8
		c-0.5,0.4-1.3,0.4-1.8-0.1c-0.5-0.5-0.4-1.3,0.1-1.8c0.1-0.1,2.8-2.4,7.5-2.4c4.8,0,7,2.4,7.1,2.5c0.5,0.5,0.4,1.3-0.1,1.8
		C1088.8,277.3,1088.5,277.4,1088.2,277.4z"/>
	<path id="XMLID_54_" class="st5" d="M1125.4,277.4c-0.3,0-0.7-0.1-0.9-0.4c-0.1-0.1-1.7-1.7-5.3-1.7c-3.7,0-5.8,1.7-5.8,1.8
		c-0.5,0.4-1.3,0.4-1.8-0.1c-0.5-0.5-0.4-1.3,0.1-1.8c0.1-0.1,2.8-2.4,7.5-2.4c4.8,0,7,2.4,7.1,2.5c0.5,0.5,0.4,1.3-0.1,1.8
		C1126,277.3,1125.7,277.4,1125.4,277.4z"/>
	<path id="XMLID_49_" class="st11" d="M1100.3,337.4c-0.4,0-0.7,0-1.1-0.1c-4-0.4-6.8-3.4-7-3.5c-0.5-0.5-0.5-1.3,0-1.8
		c0.5-0.5,1.3-0.5,1.8,0c0,0,2.4,2.4,5.3,2.7c4.8,0.4,7-2.8,7.1-3c0.4-0.6,1.2-0.8,1.8-0.4c0.6,0.4,0.8,1.2,0.4,1.7
		C1108.5,333.4,1105.9,337.4,1100.3,337.4z"/>
	<g id="XMLID_52_">
		<path id="XMLID_772_" class="st5" d="M180.9,824.8c-2,4.1-8,7.4-11.9,10.2c-3.5,2.6-9.7,5.3-11.7,9.3c-2.4,4.9,4.5,4.7,7.8,4.5
			c7.5-0.4,14.5-3.4,21.4-6.3c3.6-1.5,7.2-3.3,10.8-4.8c2-0.9,5.5-1.1,6.7-3.1c1.1-1.8,0.1-4.1,0-6c-0.1-2,0.1-3.9-0.3-5.8
			L180.9,824.8z"/>
		<path id="XMLID_770_" class="st5" d="M253.3,824.8c2,4.1,8,7.4,11.9,10.2c3.5,2.6,9.7,5.3,11.7,9.3c2.4,4.9-4.5,4.6-7.8,4.5
			c-7.5-0.4-14.5-3.4-21.4-6.3c-3.6-1.5-7.2-3.3-10.8-4.8c-2-0.9-5.5-1.1-6.7-3.1c-1.1-1.8-0.1-4.1,0-6c0.1-2-0.1-3.9,0.3-5.8
			L253.3,824.8z"/>
		<path id="XMLID_768_" class="st1" d="M167.7,538c-1.3,20.1,3.4,211.5,7.7,250.2c0.5,5.2,3.3,11.3,2.8,16.1
			c-0.5,4.3-3.3,4.7-4.3,8.5c-0.9,4.3,4.3,5.2-0.5,9.4c0.5,2.4,0.9,2.4,0.9,4.7c8.5,2.4,26.5,5.7,34,0.5c0.3-25.7,0.9-54.3,0.9-79.4
			c0-20.3,10.5-135.1,11-139.3c-0.9,38.3,1.8,209.7,5.5,214c-2.4,1.4-1.4,2.2-0.5,4.6c7.6,1.6,16.1,1.8,23.7,0.5
			c2.9-0.5,6.4-0.4,8.4-2.8c1.9-2.2,2.4-6.4-0.3-8.1c2.5-2.3,2.7-4.4,2.3-7.7c-0.8-7.2-1.4-15.2-1-22.5c2.4-44.4,0-89.3,4.3-133.7
			c1.9-21.3,3.8-42.5,4.7-64.2c0.9-13.2,3-34.4,3-47.6L167.7,538z"/>
		<path id="XMLID_746_" class="st5" d="M281.7,412.7c0-10.9-0.9-21.3-1.9-32.1c-0.5-6.6,0.9-10.4-5.7-14.2
			c-4.7-2.8-10.4-2.4-15.1-3.8c-4.2-0.9-14.3-5-18.2-6.4c-4.2,6.7-13.7,7.7-21.1,6.2c-6.2-1.2-11.3-2.5-13.7-7.8
			c-8.9,1.9-13.4,6.2-18.7,6.5c-10.4,0.5-26.9-3.3-29.3,9.9c-0.9,5.2,1.4,10.4,2.4,15.6c1.4,7.6-1.9,10.9-2.8,17.9
			c-0.5,4.7,0.9,9,0.5,13.7c-0.9,5.2-2.4,9.4-2.8,14.6c-0.5,10.9-0.1,28.5,1.8,35.1c1.7,6,7.3,6.4,8.7,11.1c1.4,4.3-5.3,91.7,1.8,95
			c9.4,4.7,19.5,3.8,28.8,0.2c12.1-4.7,21.7-11.6,29.3-19.1c4.7,9,12.5,16.3,21.5,20.1c9.9,4.3,23.8,10.2,27.1-1.6
			c5.7-17.5,0.8-82.4,1.1-98.7C288,474.1,281.7,423.5,281.7,412.7z"/>
		<path id="XMLID_744_" class="st12" d="M219.7,362.4c7.4,1.5,16.9,0.4,21.1-6.2c-0.1,0-0.1,0-0.2-0.1l-17-1.5
			c-7.5-1.2-13.1-0.9-17.7,0.1C208.4,359.9,213.5,361.2,219.7,362.4z"/>
		<path id="XMLID_741_" class="st12" d="M237.3,361.7c-9,4.7-19.4-0.5-28.8,0c-0.9,11.8,0.9,59,18.4,61.4
			c11.3,1.9,14.6-42.5,14.6-53.4L237.3,361.7z"/>
		<path id="XMLID_739_" class="st5" d="M267.5,249.7c13.2-0.9,17.5,9,14.6,21.3c-0.5,3.8-5.2,13.2-10.4,12.8
			c-6.1-0.9-6.1-15.6-6.6-20.3L267.5,249.7z"/>
		<path id="XMLID_737_" class="st4" d="M275.5,279.9c-2.4-24.1,2.8-50.5-24.1-62.8c-19.8-9-47.2-3.6-62.8,12
			c-1.4,1.4-2.8,2.9-3.8,4.9h0.5c-10.4,12-9.4,31-9,46.6c-14.2,0.5-13.2,17.6-3.8,25.2c4.7,3.8,10.6-0.9,12.5,5.9
			c2,7.1,12.5,16.8,19.1,20.1c5.2,3.3,9,4.1,11.3,6.3c4.4,4.1-0.5,17.5,1.4,22.7c1.9,4.7,6.1,5.6,11.3,3.7c6.6-2.8,3.8-4.2,4.3-11.2
			c0-1.9-0.5-11.3-0.5-13.2c15.1,0.3,25.6-1.7,33.6-11.1c7.6-9.4,6.9-17.3,8.8-28.1c0.4,0,0.8-0.1,1.2-0.1
			C275.4,292.8,275.1,285.2,275.5,279.9z"/>
		<path id="XMLID_735_" class="st0" d="M275.5,279.9c-0.4,5.2-0.1,12.8,0.1,20.6C283.6,298.8,285.5,278.6,275.5,279.9z"/>
		<path id="XMLID_732_" class="st5" d="M168.3,282.8c1.4-0.9,2.8-1.4,4.3-1.9c7.1-1.4,8.5,6.1,12.3,6.6c6.6,0.9,3.8-9.4,3.3-13.7
			c-0.5-2.8-2.4-3.8-1.9-6.1c0.5-2.8,5.2-5.7,5.7-9c3.3-12.8-13.7-23.6-21.7-12.8c-2.3,2.9-3.2,6.7-3.7,10.3
			c-0.7,5.5-1.2,10.8-0.5,16.4C166.3,276.1,167.1,279.5,168.3,282.8z"/>
		<path id="XMLID_720_" class="st5" d="M222.2,374.9c-3.8,13.5-7.6,23.1-9.4,31.6c3.3,6.1,11.4,13.5,16.6,18.2
			c11.8-15.6,3.7-34.3-1.9-50.8L222.2,374.9z"/>
		<path id="XMLID_718_" class="st5" d="M228.3,364.5c-0.7-0.2-1.5-0.2-2.3-0.2c-6.4,0.3-11.2,11.1-4,13.9
			C231.1,381.7,236.5,366.4,228.3,364.5z"/>
		<path id="XMLID_716_" class="st8" d="M207.4,355.1c5.4,3.2,9.3,4.2,16.7,4.2c1.9,11.8-10.4,21.3-16.1,29.8
			c-2.4-9.4-4.3-19.4-6.6-28.8L207.4,355.1z"/>
		<path id="XMLID_712_" class="st2" d="M173,382c0,0,0.3,0.9,0.8,2.4c0.4,1.6,1.2,3.8,1.9,6.5c0.4,1.3,0.8,2.8,1.2,4.3
			c0.5,1.5,0.7,3.2,1.1,4.9c0.7,3.4,1.3,7.1,2,10.8c0.4,3.7,0.8,7.4,1.1,10.9c0.2,1.7,0.4,3.4,0.4,5c0,1.6,0.1,3.1,0.1,4.5
			c0.1,2.8,0,5.1,0,6.7c0,1.6,0,2.6,0,2.6s-0.1-0.9-0.3-2.5c-0.2-1.6-0.5-3.9-0.7-6.7c-0.1-1.4-0.2-2.9-0.4-4.5
			c-0.1-1.6-0.5-3.2-0.6-5c-0.5-3.4-0.9-7.1-1.3-10.8c-0.6-3.6-1.2-7.3-1.8-10.7c-0.3-1.7-0.4-3.4-0.8-4.9c-0.3-1.6-0.6-3-0.9-4.4
			c-0.6-2.7-0.9-5-1.3-6.6C173.2,382.9,173,382,173,382z"/>
		<path id="XMLID_710_" class="st2" d="M160.8,434.9c0,0,1.2,0.1,2.8,0.4c0.8,0.1,1.8,0.3,2.8,0.5c1,0.2,2.1,0.5,3.2,0.9
			c0.5,0.2,1.1,0.4,1.6,0.6c0.5,0.2,1,0.5,1.5,0.7c1,0.5,1.8,1,2.5,1.6c0.7,0.5,1.2,1.1,1.5,1.4c0.3,0.4,0.5,0.6,0.5,0.6
			s-0.3-0.1-0.7-0.3c-0.5-0.2-1.1-0.5-1.8-0.8c-0.4-0.2-0.8-0.3-1.2-0.5c-0.4-0.2-0.9-0.3-1.4-0.5c-0.9-0.4-2-0.7-3-1.1
			c-2.1-0.7-4.2-1.4-5.8-2.1C161.7,435.5,160.8,434.9,160.8,434.9z"/>
		<path id="XMLID_708_" class="st1" d="M206.1,354.6c-9.9,5.5-15.4,5.2-26.9,12.4c8.5,1.6,23.7,10.7,22.9,11.8
			c-0.9,1.1-12.5,10.8-15.8,15.1c12.8,11.3,25.6,26.2,43,30.9C216.2,403.8,206.1,354.6,206.1,354.6z"/>
		<path id="XMLID_706_" class="st1" d="M240.6,356.1c9.9,1.8,19.6,4.7,29.2,11.7c-7.1,1.6-19.7,10.5-19,11.6
			c0.7,1.1,10.4,10.6,13.1,14.8c-10.6,11.2-20.4,26.5-34.9,31.2C238.4,401.4,240.6,356.1,240.6,356.1z"/>
		<path id="XMLID_704_" class="st2" d="M229,422.9c0,0,0,2.1,0.1,5.7c0,3.6,0.1,8.8,0,15c0,3.1,0,6.5,0,10c0,3.6-0.1,7.3-0.3,11.2
			c-0.3,7.8-0.6,16-0.9,24.3c-0.4,8.3-0.7,16.5-1,24.3c-0.1,3.9-0.4,7.6-0.5,11.2c-0.1,3.6-0.2,6.9-0.3,10c-0.1,6.2-0.4,11.4-0.5,15
			c-0.1,3.6-0.2,5.7-0.2,5.7s0-2.1-0.1-5.7c0-3.6-0.1-8.8-0.2-15c0-3.1,0-6.5,0-10c-0.1-3.6,0.1-7.3,0.2-11.2
			c0.3-7.8,0.5-16,0.8-24.3c0.4-8.3,0.8-16.5,1.1-24.3c0.1-3.9,0.4-7.6,0.5-11.2c0.1-3.6,0.2-6.9,0.3-10c0.2-6.2,0.5-11.4,0.6-15
			C228.9,424.9,229,422.9,229,422.9z"/>
		<path id="XMLID_702_" class="st2" d="M169.7,524.6c0,0,0.4-0.2,1.1-0.4c0.4-0.1,0.8-0.3,1.3-0.4c0.5-0.1,1-0.4,1.6-0.6
			c0.6-0.2,1.2-0.5,1.8-0.7c0.6-0.3,1.3-0.6,2-1c0.7-0.3,1.4-0.7,2.2-1c0.7-0.4,1.5-0.7,2.2-1.1c3-1.5,6-3,8.3-4
			c2.3-1,3.9-1.6,3.9-1.6s-0.3,0.3-0.9,0.7c-0.6,0.4-1.5,1.1-2.5,1.8c-1.1,0.7-2.3,1.5-3.7,2.3c-1.4,0.8-2.9,1.6-4.4,2.4
			c-1.6,0.7-3.1,1.5-4.6,2c-0.8,0.3-1.5,0.5-2.2,0.8c-0.7,0.2-1.4,0.4-2,0.5c-0.6,0.1-1.2,0.3-1.7,0.3c-0.5,0-1,0.1-1.3,0.1
			C170.2,524.6,169.7,524.6,169.7,524.6z"/>
		<path id="XMLID_700_" class="st2" d="M250.5,512.8c0,0,1,0.8,2.3,2c0.3,0.3,0.7,0.7,1.1,1c0.4,0.4,0.8,0.7,1.2,1.1
			c0.9,0.7,1.7,1.6,2.6,2.4c0.9,0.8,1.8,1.6,2.6,2.4c0.4,0.4,0.8,0.8,1.2,1.1c0.4,0.3,0.7,0.7,1.1,1c1.3,1.3,2.1,2.2,2.1,2.2
			s-1.1-0.5-2.7-1.4c-0.8-0.5-1.7-1-2.6-1.7c-0.9-0.7-1.9-1.5-2.8-2.2c-0.9-0.9-1.8-1.8-2.5-2.6c-0.4-0.4-0.8-0.8-1.1-1.3
			c-0.3-0.4-0.6-0.8-0.8-1.2C251,513.9,250.5,512.8,250.5,512.8z"/>
		<path id="XMLID_698_" class="st2" d="M265.1,389.5c0,0,0.1,0.7,0.3,2c0.1,1.3,0.4,3.1,0.6,5.3c0.1,1.1,0.2,2.3,0.3,3.5
			c0.2,1.3,0.1,2.6,0.1,4c0,2.8-0.1,5.7-0.2,8.7c-0.3,2.9-0.7,5.9-1.1,8.6c-0.2,1.4-0.3,2.7-0.6,3.9c-0.3,1.2-0.5,2.4-0.8,3.5
			c-0.5,2.2-1,3.9-1.3,5.2c-0.3,1.2-0.5,2-0.5,2s0.1-0.7,0.2-2c0.2-1.3,0.3-3.1,0.6-5.3c0.2-1.1,0.3-2.3,0.5-3.5
			c0.2-1.2,0.2-2.6,0.4-3.9c0.2-2.7,0.6-5.6,0.9-8.5c0.1-2.9,0.2-5.8,0.4-8.6c0-1.4,0.3-2.7,0.2-4c0-1.3,0-2.5,0-3.6
			c0-2.2,0.1-4.1,0.1-5.3C265.1,390.3,265.1,389.5,265.1,389.5z"/>
		<path id="XMLID_696_" class="st2" d="M169.3,428.3c0,0,0.9,0.4,2.1,1.1c1.2,0.7,2.8,1.8,4.3,3c0.7,0.6,1.4,1.3,2.1,1.9
			c0.7,0.6,1.2,1.3,1.6,1.9c0.9,1.2,1.3,2,1.3,2s-0.9-0.5-2-1.3c-0.3-0.2-0.6-0.4-0.9-0.7c-0.3-0.3-0.7-0.5-1-0.8
			c-0.7-0.5-1.4-1.1-2.1-1.7c-1.5-1.2-2.9-2.5-3.8-3.6C169.8,429.1,169.3,428.3,169.3,428.3z"/>
		<path id="XMLID_694_" class="st2" d="M264.7,433.9c0,0,0.8-0.6,2-1.3c0.6-0.3,1.3-0.7,2.1-1.2c0.8-0.4,1.6-0.8,2.4-1.2
			c0.9-0.4,1.7-0.7,2.6-1c0.8-0.3,1.6-0.5,2.3-0.6c1.4-0.3,2.4-0.3,2.4-0.3s-0.8,0.6-2,1.3c-0.3,0.2-0.6,0.3-1,0.5
			c-0.4,0.2-0.7,0.4-1.1,0.6c-0.8,0.4-1.6,0.8-2.4,1.2c-1.7,0.7-3.5,1.5-4.8,1.7C265.6,433.9,264.7,433.9,264.7,433.9z"/>
		<path id="XMLID_692_" class="st1" d="M276.9,449.5c-3.3-14.6-37.3-8.5-49.1-10.9c-4.7-1.4-12.3-5.7-17.5-3.3
			c-4.7,1.9-4.7,9-3.3,14.6c2.8,9.9,19.8,13.7,28.8,18.4c10.4,5.7,21.7,7.1,33.1,7.1c11.8,0.5,10.9-3.8,12.3-14.2L276.9,449.5z"/>
		<path id="XMLID_690_" class="st2" d="M275.8,446.7c-0.6-0.8-1.3-1.6-2.1-2.2c-0.8-0.7-1.7-1.1-2.6-1.6c-0.9-0.4-1.9-0.8-2.9-1.1
			c-1-0.3-2-0.5-3-0.7c-4.1-0.8-8.2-1-12.4-1.1c-4.1-0.1-8.3,0-12.5,0.1c-2.1,0-4.2,0.1-6.3,0c-2.1,0-4.2-0.1-6.3-0.5l-0.1,0
			c-2.3-0.7-4.5-1.7-6.7-2.4c-2.2-0.8-4.4-1.4-6.7-1.5c-1.1,0-2.2,0.1-3.2,0.5c-0.3,0.1-0.5,0.2-0.7,0.3c-0.3,0.1-0.5,0.3-0.7,0.4
			c-0.4,0.2-0.8,0.6-1,1c-1.2,1.7-1.6,4-1.5,6.3c0,1.1,0.1,2.3,0.3,3.4c0.1,0.6,0.2,1.1,0.3,1.7c0.1,0.2,0.1,0.7,0.2,0.7l0.3,0.8
			l0.3,0.8l0.4,0.7c0.3,0.5,0.5,0.9,0.9,1.3c0.7,0.9,1.5,1.7,2.3,2.4c1.7,1.5,3.8,2.7,5.8,3.8c2.1,1.1,4.2,2,6.4,3l6.6,2.7
			c1.1,0.5,2.2,0.9,3.3,1.4l3.2,1.6c1.1,0.5,2.1,1.1,3.2,1.6l3.2,1.3c2.2,0.7,4.5,1.5,6.8,2c1.1,0.3,2.3,0.5,3.5,0.7
			c1.2,0.2,2.3,0.4,3.5,0.5c2.3,0.3,4.7,0.5,7,0.7c2.4,0.1,4.7,0.2,7.1,0.2c1.2,0,2.4-0.1,3.5-0.4c1.1-0.2,2.3-0.7,3.1-1.6
			c-0.8,0.9-1.9,1.4-3.1,1.7c-1.2,0.3-2.3,0.5-3.5,0.5c-2.4,0.1-4.7,0-7.1,0c-2.4-0.1-4.8-0.2-7.1-0.4c-1.2-0.1-2.4-0.3-3.5-0.5
			c-1.2-0.2-2.4-0.4-3.5-0.6c-2.4-0.4-4.6-1.1-6.9-1.8l-3.4-1.3c-1.1-0.4-2.2-1-3.2-1.5c-2.2-1-4.2-2-6.4-2.9l-6.6-2.7
			c-2.2-0.9-4.4-1.9-6.5-3c-2.1-1.1-4.2-2.3-6.1-3.9c-0.9-0.8-1.8-1.6-2.6-2.6c-0.4-0.5-0.8-1-1.1-1.6l-0.5-0.8l-0.3-0.8l-0.3-0.8
			c-0.2-0.5-0.2-0.6-0.3-1c-0.1-0.6-0.3-1.2-0.4-1.8c-0.2-1.2-0.3-2.4-0.3-3.7c0-2.4,0.3-5.1,1.9-7.3c0.2-0.3,0.4-0.5,0.7-0.8
			c0.2-0.2,0.5-0.5,0.8-0.7c0.3-0.2,0.6-0.4,0.8-0.5c0.2-0.1,0.6-0.3,0.9-0.4c1.2-0.5,2.5-0.6,3.8-0.6c2.5,0.1,4.9,0.8,7.1,1.6
			c2.3,0.8,4.4,1.8,6.6,2.5l-0.1,0c2,0.4,4,0.5,6.1,0.6c2.1,0.1,4.1,0.1,6.2,0.1c4.2,0,8.3,0,12.5,0.2c4.2,0.2,8.4,0.6,12.4,1.5
			c1,0.2,2,0.5,3,0.9c1,0.3,2,0.8,2.9,1.2c0.9,0.5,1.8,1.1,2.6,1.8C274.6,445,275.2,445.8,275.8,446.7z"/>
		<path id="XMLID_688_" class="st2" d="M162.6,415.4c0,0,0.1-0.2,0.4-0.4c0.3-0.3,0.7-0.5,1.1-1c0.2-0.2,0.4-0.4,0.7-0.6
			c0.2-0.2,0.5-0.5,0.7-0.7c0.5-0.5,1-1.1,1.6-1.6c1.1-1.1,2.2-2.3,3-3.1c0.9-0.8,1.6-1.4,1.6-1.4s-0.2,0.8-0.7,1.9
			c-0.3,0.6-0.6,1.2-1.1,1.8c-0.2,0.3-0.4,0.7-0.7,1c-0.3,0.3-0.5,0.6-0.8,0.9c-0.6,0.6-1.2,1.2-1.9,1.6c-0.6,0.5-1.3,0.8-1.9,1
			c-0.6,0.3-1.1,0.3-1.4,0.4C162.8,415.3,162.6,415.4,162.6,415.4z"/>
		<path id="XMLID_684_" class="st5" d="M211.5,295.8c-9.5,0-17.2-7.7-17.2-17.2c0-9.5,7.7-17.2,17.2-17.2c9.5,0,17.2,7.7,17.2,17.2
			C228.7,288.1,220.9,295.8,211.5,295.8z M211.5,263.1c-8.5,0-15.5,6.9-15.5,15.5c0,8.5,6.9,15.5,15.5,15.5
			c8.5,0,15.5-6.9,15.5-15.5C226.9,270.1,220,263.1,211.5,263.1z"/>
		<path id="XMLID_677_" class="st5" d="M227.8,279.5c-0.2,0-0.5-0.1-0.6-0.3c-0.3-0.3-0.3-0.9,0-1.2c0.1-0.1,9.7-9,19.1-0.5
			c0.4,0.3,0.4,0.9,0.1,1.2c-0.3,0.4-0.9,0.4-1.2,0.1c-8.2-7.4-16.4,0.1-16.7,0.5C228.2,279.4,228,279.5,227.8,279.5z"/>
		<path id="XMLID_675_" class="st5" d="M169.7,282.9c-0.4,0-0.8-0.3-0.8-0.7c-0.1-0.5,0.2-0.9,0.7-1l25.6-5.5c0.5-0.1,0.9,0.2,1,0.7
			c0.1,0.5-0.2,0.9-0.7,1l-25.6,5.5C169.8,282.9,169.8,282.9,169.7,282.9z"/>
		<path id="XMLID_673_" class="st4" d="M233.8,439.2c6.8-2.5,11.5-5.3,16.7-5.3c7.1,0,15.6,3.3,19.4,9.4c-9.8,2.6-14.6,7.6-19.8,9.9
			c-5.7,2.8-2.8,2.8-8,0.9c-4.3-0.9-5.2-4.7-10.4-3.8c0.9-3.8,0.5-7.6-1.9-10.4c1.4-0.5,0,0,1.4-0.5L233.8,439.2z"/>
		<path id="XMLID_671_" class="st1" d="M161.2,444.8c18.4-6.6,40.1,1.4,59.5-3.8c5.2-0.9,11.3-5.2,15.6-2.8c4.3,2.4,9,11.8,9,16.5
			c0,7.1-5.2,8-11.8,10.9c-7.6,3.3-15.6,6.1-23.6,8c-12.3,2.4-30.2,7.1-42.5,5.2c-10.4-1.9-17.5-24.1-9-31.6L161.2,444.8z"/>
		<path id="XMLID_668_" class="st2" d="M165.7,443.5l3.4-0.7c1.1-0.2,2.3-0.4,3.4-0.5l3.5-0.3l3.5-0.2c4.6-0.1,9.2,0.1,13.8,0.3
			c2.3,0.1,4.6,0.2,6.9,0.2c2.3,0,4.6,0,6.9-0.1l3.4-0.2l3.4-0.4l3.4-0.6l3.3-0.8l0,0l0,0c2.4-0.5,4.7-1.5,7.1-2.3
			c1.2-0.4,2.4-0.8,3.8-1.1c1.3-0.2,2.7-0.3,4.1,0.1c0.7,0.2,1.4,0.6,1.9,0.9c0.5,0.4,1.1,0.9,1.6,1.3c0.9,0.9,1.7,2,2.5,3.1
			c1.5,2.2,2.6,4.5,3.5,6.9c0.5,1.2,0.8,2.5,1,3.8c0.1,0.7,0.2,1.4,0.1,2.1l-0.1,0.9l-0.2,1c-0.3,1.4-0.9,2.7-1.8,3.8
			c-0.9,1.1-2.1,1.8-3.2,2.4c-2.3,1.2-4.7,2-7,3c-2.4,0.9-4.6,2-7,2.8c-2.4,0.9-4.8,1.8-7.2,2.5l-3.6,1.1l-3.7,0.9
			c-2.4,0.7-5,1.1-7.4,1.6l-7.4,1.4c-2.5,0.5-5,0.9-7.5,1.3c-2.5,0.4-5,0.7-7.5,1c-2.5,0.2-5,0.5-7.6,0.4c-2.5,0.1-5-0.3-7.5-0.5
			c2.5,0.1,5,0.4,7.5,0.2c2.5,0,5-0.4,7.5-0.6c2.5-0.4,5-0.7,7.4-1.2c2.5-0.5,4.9-0.9,7.4-1.5l7.4-1.6c2.5-0.6,4.9-1,7.3-1.7l3.6-1
			l3.6-1.2c2.4-0.7,4.7-1.6,7.1-2.5c2.3-0.9,4.7-1.9,7-2.9c2.3-1,4.7-1.8,6.9-3c1.1-0.6,2-1.2,2.7-2.1c0.7-0.8,1.2-1.9,1.4-3
			l0.1-0.8l0-0.9c0-0.5,0-1.1-0.1-1.7c-0.2-1.2-0.5-2.3-0.9-3.5c-0.8-2.3-1.9-4.5-3.3-6.6c-0.7-1-1.4-2-2.2-2.8
			c-0.4-0.5-0.8-0.8-1.3-1.1c-0.6-0.4-0.9-0.6-1.5-0.8c-2.1-0.6-4.6,0.1-6.9,0.9c-2.4,0.8-4.7,1.8-7.3,2.3l0.1,0l-3.4,0.8L214,443
			l-3.5,0.3l-3.5,0.1c-2.3,0-4.6,0-6.9-0.1c-2.3-0.1-4.6-0.2-6.9-0.4l-6.9-0.4c-2.3-0.1-4.6-0.2-6.9-0.3l-3.4,0l-3.4,0.2l-3.4,0.4
			L165.7,443.5z"/>
		<path id="XMLID_666_" class="st2" d="M220.7,441c0,0,0.4,0.2,1.1,0.6c0.3,0.2,0.7,0.5,1.2,0.8c0.5,0.3,1,0.6,1.5,1
			c0.5,0.4,1.1,0.9,1.7,1.4c0.3,0.3,0.6,0.5,0.9,0.8c0.3,0.3,0.6,0.6,0.9,0.9c0.5,0.7,1.3,1.3,1.7,2.1c0.5,0.8,1,1.6,1.5,2.4
			c0.4,0.9,0.7,1.7,1.1,2.6c0.3,0.9,0.5,1.8,0.7,2.6c0.2,0.8,0.3,1.7,0.4,2.5c0.1,0.8,0.1,1.5,0.2,2.2c0,1.4-0.1,2.5-0.1,3.3
			c0,0.8-0.1,1.3-0.1,1.3s-0.1-0.4-0.3-1.2c-0.1-0.8-0.3-1.9-0.6-3.2c-0.2-0.7-0.3-1.4-0.5-2.1c-0.1-0.8-0.3-1.5-0.6-2.3
			c-0.3-0.8-0.5-1.6-0.8-2.4c-0.3-0.8-0.7-1.6-1.1-2.4c-0.4-0.8-0.9-1.5-1.3-2.2c-0.4-0.8-1-1.4-1.5-2c-0.5-0.7-1-1.3-1.5-1.8
			c-0.5-0.5-1-1.1-1.5-1.6c-0.5-0.5-0.9-0.9-1.3-1.3c-0.4-0.4-0.7-0.7-1-1C221,441.4,220.7,441,220.7,441z"/>
		<path id="XMLID_664_" class="st4" d="M196.2,430.5c0.4-4-5.1-5.8-9-3c-7,5.1-17.3,25.8-5,15.8c-1.9,5.7,3.1,4.4,6.8,3
			c-1.5,4.1,1.6,6,8.5,2.7c0,1.5,0,1.5,0.5,1.9c7.1,1.9,22.2-12.8,10.4-13.2c0.6-3.4-0.5-4.9-3.3-5.7
			C205.2,427.8,199.1,428.3,196.2,430.5L196.2,430.5z"/>
		<path id="XMLID_661_" class="st0" d="M182,443.7c0,0,0.6-1.1,1.6-2.6c0.5-0.8,1.1-1.7,1.8-2.6c0.4-0.5,0.7-1,1.1-1.4
			c0.4-0.5,0.8-0.9,1.2-1.4c0.5-0.4,0.9-0.9,1.4-1.3c0.5-0.4,1-0.8,1.4-1.1c0.9-0.7,2-1.2,2.8-1.6c1.7-0.7,2.9-1.1,2.9-1.1
			s-0.9,0.8-2.4,1.9c-0.7,0.6-1.5,1.2-2.3,2c-0.8,0.7-1.7,1.6-2.5,2.4c-1.6,1.7-3.2,3.6-4.6,4.9C183,442.9,182,443.7,182,443.7z"/>
		<path id="XMLID_658_" class="st0" d="M189.1,446.4c0,0,0.7-1.2,1.8-2.9c0.3-0.4,0.6-0.9,1-1.3c0.4-0.5,0.7-1,1.1-1.5
			c0.9-1,1.9-1.9,2.9-2.9c0.5-0.5,1-0.9,1.6-1.3c0.5-0.4,1.1-0.8,1.6-1.2c1-0.8,2.1-1.3,3-1.8c1.8-0.9,3.1-1.4,3.1-1.4s-1,1-2.5,2.3
			c-0.4,0.3-0.8,0.7-1.3,1c-0.4,0.4-0.9,0.8-1.4,1.2c-0.5,0.4-1,0.8-1.5,1.2c-0.5,0.4-1,0.8-1.5,1.3c-1,0.9-1.9,1.8-2.9,2.6
			c-0.9,0.9-1.7,1.8-2.5,2.5C190.2,445.5,189.1,446.4,189.1,446.4z"/>
		<path id="XMLID_656_" class="st0" d="M197.6,449c0,0,0.5-0.9,1.4-2.1c0.2-0.3,0.5-0.6,0.7-1c0.3-0.3,0.5-0.7,0.8-1.1
			c0.5-0.7,1.2-1.5,1.8-2.2c0.7-0.7,1.4-1.5,2-2.1c0.3-0.3,0.7-0.6,1-0.9c0.3-0.3,0.7-0.5,1-0.7c1.2-0.9,2.1-1.3,2.1-1.3
			s-0.5,0.9-1.4,2.1c-0.4,0.6-1,1.2-1.6,1.9c-0.6,0.7-1.2,1.5-1.8,2.2c-0.7,0.7-1.3,1.5-2,2.1c-0.6,0.7-1.3,1.2-1.9,1.7
			C198.5,448.6,197.6,449,197.6,449z"/>
		<circle id="XMLID_1325_" class="st10" cx="212.7" cy="279.3" r="4.5"/>
		<circle id="XMLID_1326_" class="st10" cx="257.6" cy="279.9" r="4.5"/>
		<path id="XMLID_1324_" class="st5" d="M217.9,252.7c-0.3,0-0.7-0.1-0.9-0.4c-0.1-0.1-1.7-1.7-5.3-1.7c-3.7,0-5.8,1.7-5.8,1.8
			c-0.5,0.4-1.3,0.4-1.8-0.1c-0.5-0.5-0.4-1.3,0.1-1.8c0.1-0.1,2.8-2.4,7.5-2.4c4.8,0,7,2.4,7.1,2.5c0.5,0.5,0.4,1.3-0.1,1.8
			C218.5,252.6,218.2,252.7,217.9,252.7z"/>
		<path id="XMLID_1323_" class="st5" d="M264,252.7c-0.3,0-0.7-0.1-0.9-0.4c-0.1-0.1-1.7-1.7-5.3-1.7c-3.7,0-5.8,1.7-5.8,1.8
			c-0.5,0.4-1.3,0.4-1.8-0.1c-0.5-0.5-0.4-1.3,0.1-1.8c0.1-0.1,2.8-2.4,7.5-2.4c4.8,0,7,2.4,7.1,2.5c0.5,0.5,0.4,1.3-0.1,1.8
			C264.6,252.6,264.3,252.7,264,252.7z"/>
		<path id="XMLID_1322_" class="st11" d="M233.6,319.5c-0.4,0-0.7,0-1.1-0.1c-4-0.4-6.8-3.4-7-3.5c-0.5-0.5-0.5-1.3,0-1.8
			c0.5-0.5,1.3-0.5,1.8,0c0,0,2.4,2.4,5.3,2.7c4.8,0.4,7-2.8,7.1-3c0.4-0.6,1.2-0.8,1.8-0.4c0.6,0.4,0.8,1.2,0.4,1.7
			C241.8,315.5,239.2,319.5,233.6,319.5z"/>
		<path id="XMLID_751_" class="st0" d="M275.5,279.9c-2.1-21.6,1.8-45.2-16.8-58.6c7.1,16.5,11.1,35.3,11.1,55.3
			c0,21.6-4.7,41.9-12.9,59.3c3.2-1.7,6.1-3.9,8.8-7c7.6-9.4,6.9-17.3,8.8-28.1c0.4,0,0.8-0.1,1.2-0.1
			C275.4,292.8,275.1,285.2,275.5,279.9z"/>
		<path id="XMLID_682_" class="st5" d="M261.8,295.8c-5.2,0-9.8-2.2-13.1-6.3c-0.3-0.4-0.2-0.9,0.1-1.2c0.4-0.3,0.9-0.2,1.2,0.1
			c3,3.7,7,5.6,11.7,5.6c8.5,0,15.5-6.9,15.5-15.5c0-8.5-6.9-15.5-15.5-15.5c-8.5,0-15.2,6.6-15.2,15c0,0.5-0.4,0.9-0.9,0.9
			c-0.5,0-0.9-0.4-0.9-0.9c0-9.4,7.5-16.7,17-16.7c9.5,0,17.2,7.7,17.2,17.2C279,288.1,271.3,295.8,261.8,295.8z"/>
		<g id="XMLID_655_">
			<path id="XMLID_657_" class="st0" d="M228.7,364.2c6.1-2.7,3.4-4.1,3.9-11.1c0-1.9-0.5-11.3-0.5-13.2c-1,0-2.1,0-3.4,0V364.2z"/>
			<path id="XMLID_662_" class="st0" d="M232.1,339.9C232.1,339.9,232.1,339.9,232.1,339.9c0.8,0,1.5,0,2,0
				C233.6,340,232.9,340,232.1,339.9z"/>
			<path id="XMLID_665_" class="st0" d="M234.1,340C235.6,340,235.4,340,234.1,340L234.1,340z"/>
		</g>
		<path id="XMLID_714_" class="st8" d="M242.5,357.5c-5.8,1.7-13.1,1.8-19.2,1.8c1.9,8,9.3,22.2,15.4,27.9
			c2.8-8.5,4.7-17.9,3.3-26.9L242.5,357.5z"/>
	</g>
	<g id="XMLID_51_">
		<g id="XMLID_1044_">
			<g id="XMLID_1047_">
				<path id="XMLID_1048_" class="st4" d="M427.2,772.8c0.8,1,1,2.1,1.7,3c3.1-0.8,6.1-3.1,9-4.5c1.8-0.9,3.2-1.7,4.7-2.7
					c-0.1-1.4-0.3-3-0.3-4.1c-0.1-2.5-0.2-5-0.5-7.4c-0.3-2.4-0.5-4.7-0.8-7.1c-0.1-1.3-0.1-4.1-1-4.9l-12.5,3.6
					c0.9,4.3,1.7,8.6,2.3,12.9c0.3,1.7,0,2.6-1.4,3.9c-1.3,1.1-2.9,2.1-4.3,3c-0.9,0.6-1.8,1.2-2.6,1.8c0.6,0.1,1.2,0.2,1.8,0.4
					C424.7,771.2,426.2,771.6,427.2,772.8z"/>
			</g>
			<g id="XMLID_1045_">
				<path id="XMLID_1046_" class="st5" d="M437.9,771.3c-2.9,1.5-5.9,3.7-9,4.5c-0.7-0.8-0.9-2-1.7-3c-1-1.2-2.5-1.6-3.9-2.2
					c-0.6-0.2-1.2-0.3-1.8-0.4c-2.4,1.7-4.9,3.5-7.5,5.1c-1.7,1.1-7.7,4.1-6.6,7.1c0.9,3,6.6,1.3,8.4,0.9c4-1,7.6-1.9,11.4-3.5
					c3.1-1.4,5.9-3.1,9-4.6c1.8-0.8,5.8-2,6.3-3.7c0.2-0.8,0.2-1.8,0.2-2.9C441.1,769.5,439.6,770.4,437.9,771.3z"/>
			</g>
		</g>
		<g id="XMLID_1042_">
			<path id="XMLID_1043_" class="st1" d="M420.6,772.7c-1.8,1.5-4.7,2.8-6.7,4.4c-1.2,0.9-3.2,2.2-1.3,2.9c0.9,0.3,2.4-0.3,3.1-0.5
				c2.5-0.6,4.6-1.7,6.7-2.8c1.3-0.7,3-0.6,2.5-2c-0.3-1.1-2.4-1.7-3.3-2.3l0-0.1L420.6,772.7z"/>
		</g>
		<g id="XMLID_1037_">
			<g id="XMLID_1040_">
				<path id="XMLID_1041_" class="st4" d="M460.7,772.1c-0.7,1-0.9,2.2-1.6,3.1c-3.1-0.7-6.2-2.8-9.2-4.1c-1.8-0.8-3.3-1.6-4.8-2.5
					c0-1.4,0.2-3,0.1-4.2c-0.1-2.5,0-5,0.2-7.5c0.2-2.4,0.3-4.8,0.5-7.1c0.1-1.3-0.1-4.1,0.8-5l12.7,3.1c-0.7,4.3-1.3,8.7-1.8,13
					c-0.2,1.7,0.2,2.6,1.6,3.9c1.3,1,3,2,4.4,2.8c0.9,0.6,1.8,1.1,2.7,1.7c-0.6,0.1-1.2,0.3-1.8,0.5
					C463.1,770.4,461.6,770.9,460.7,772.1z"/>
			</g>
			<g id="XMLID_1038_">
				<path id="XMLID_1039_" class="st5" d="M450,771c2.9,1.3,6,3.4,9.2,4.1c0.6-0.9,0.8-2.1,1.6-3.1c0.9-1.2,2.4-1.7,3.8-2.4
					c0.6-0.2,1.2-0.4,1.8-0.5c2.5,1.6,5,3.3,7.7,4.7c1.7,1,7.9,3.7,6.9,6.8c-0.8,3-6.5,1.5-8.4,1.3c-4-0.8-7.7-1.6-11.5-3
					c-3.2-1.2-6-2.9-9.2-4.2c-1.9-0.7-5.9-1.7-6.4-3.4c-0.2-0.8-0.3-1.8-0.3-2.9C446.6,769.4,448.2,770.2,450,771z"/>
			</g>
		</g>
		<g id="XMLID_1035_">
			<path id="XMLID_1036_" class="st1" d="M466.8,771.7c1.9,1.5,5,2.6,7.1,4.1c1.2,0.8,3.4,2.1,1.6,2.9c-0.9,0.3-2.3-0.2-3.1-0.4
				c-2.5-0.5-4.6-1.5-6.8-2.5c-1.3-0.6-3.4-0.5-3-1.9c0.3-1.1,2.8-1.8,2.8-2.4v-0.1L466.8,771.7z"/>
		</g>
		<g id="XMLID_1033_">
			<path id="XMLID_1034_" class="st1" d="M475.6,175.7c-9.5-10.6,2.5-24.3,14.4-25.8c15.5-1.8,28.5,13.8,21.6,28.3
				c-5.1,11.5-15.6,11.7-26.2,9.6L475.6,175.7z"/>
		</g>
		<g id="XMLID_1030_">
			<g id="XMLID_1031_">
				<path id="XMLID_1032_" class="st6" d="M507.5,183.9c3.7,5.3,7.5,10.6,11.4,15.7c0.7,0.9,1.9-0.4,1.2-1.2
					c-3.9-5-7.6-10.1-11.2-15.3C508.4,182.2,506.9,183,507.5,183.9L507.5,183.9z"/>
			</g>
		</g>
		<g id="XMLID_1027_">
			<g id="XMLID_1028_">
				<path id="XMLID_1029_" class="st6" d="M473.9,132.5c4.3,7.9,9.5,15.3,14.6,22.7c0.6,0.9,2.1,0.1,1.5-0.9
					c-5-7.5-10.3-14.8-14.6-22.7C474.9,130.6,473.4,131.5,473.9,132.5L473.9,132.5z"/>
			</g>
		</g>
		<g id="XMLID_1025_">
			<path id="XMLID_1026_" class="st5" d="M490.7,152.6c0,0,0,0.1,0.1,0.3c0,0.2,0.1,0.5,0.1,0.9c0,0.4-0.1,0.9-0.3,1.3
				c-0.1,0.5-0.4,0.9-0.6,1.3c-0.3,0.4-0.6,0.8-0.9,1.1c-0.3,0.3-0.7,0.6-1,0.8c-0.6,0.4-1.2,0.6-1.2,0.6s0.1-0.5,0.4-1.2
				c0.3-0.7,0.7-1.5,1.2-2.2c0.2-0.4,0.5-0.7,0.7-1.1c0.3-0.3,0.5-0.6,0.7-0.9c0.2-0.2,0.4-0.5,0.5-0.7
				C490.6,152.7,490.7,152.6,490.7,152.6z"/>
		</g>
		<g id="XMLID_1023_">
			<path id="XMLID_1024_" class="st4" d="M425.3,184.8c-1.4,0.8-2.7,1.7-3.9,2.7c-5.1,4.2-7.1,12.3-8.4,18.4
				c-1.9,9-1.9,21.6-0.5,30.6c-16-4.1-14.4,25.8,3.5,24.5c1.4,8.1,3.6,15.2,9.5,21.1c3.1,2.9,6.4,6.2,10.4,7.6
				c2.4,0.8,11.3,4.2,11.3,4.2c1,2.6,0.9,18,0.9,18c1.8,2.1,6.9,1.6,9.3,1.3c4.5-0.7,5.1,2,5.6-1.9c0.8-4.5,0.3-13.5,0.2-18
				c9.9-2.3,17-2.2,24.1-9.5c5.6-5.5,9.2-16.1,9.7-24.5c7.2-1.4,13.3-6.3,15-13.8c1.1-5.4-3.7-14.9-11.1-11.1
				c-0.3-6.4,0.5-7.8-0.9-14.1c-1.6-5.7-2.3-11.3-4.6-17c-3.2-7.7-7.2-13.9-14.2-18.9c-7.1-5-14.8-4.7-23-5.6
				c-5.4-0.6-10.9-0.7-16.2,0.2C436.6,179.8,430.4,181.8,425.3,184.8z"/>
		</g>
		<g id="XMLID_1019_">
			<path id="XMLID_1020_" class="st1" d="M491.4,183.2c-0.9,1.5-5,3.1-5.3,5.5c-0.3,2.1,4.4,8.3,5.3,10.4c1,2.7,2.3,8,6.2,7.4
				c0.8-3.3-1-6-2.3-9.2c1.8,2.1,2.8,4.7,5.8,5.3c-0.1-3-1.6-5.4-2.9-8c1.3,2.7,2.8,5.9,5.8,6.2c1.4-5.4-8.1-13.6-11.5-17.4
				L491.4,183.2z"/>
		</g>
		<g id="XMLID_1017_">
			<path id="XMLID_1018_" class="st1" d="M460.2,171c-9.2,1.7-19.1,2.2-28.3,6.6c-7.1,3.8-13,10.2-0.7,9.3c-2.1,2.1-5.6,4.3-6.1,7.6
				c2.7,0.8,5.1-1,7.1-2.6c-8.5,7.4,3.1,5.6,7.6,5.2c6.9-1,14.7-1.2,20.6-4.6c8.3-4.7,0-12.6,0.2-20.1L460.2,171z"/>
		</g>
		<g id="XMLID_1008_">
			<path id="XMLID_1009_" class="st4" d="M362.9,415.5c4.6,6.8,12.5,11.4,17.5,17.9c3.1,4.4,9.5,22,17.2,17.9
				c1.5-0.6,4.9-9.1,4.9-10.6c-0.1-3.9-5.3-7.7-8-10c-4-3.8-8.3-7.3-12.2-11.1c-2.4-2.3-5-8-7.7-9.4l0,0.3L362.9,415.5z"/>
		</g>
		<g id="XMLID_1006_">
			<path id="XMLID_1007_" class="st4" d="M508.2,418.3c-3.5,6.1-11.8,8.9-16.8,13.9l0,0c1.3,4.5,1.7,8.7,2.4,13.1
				c0.7,4.5,0.5,9.9,5.9,7.7c4.5-1.9,5.5-8.5,8.7-11.9c3.2-3.7,6.4-6.7,9-11L508.2,418.3z"/>
		</g>
		<g id="XMLID_1004_">
			<path id="XMLID_1005_" class="st1" d="M407.4,420.2c-1.5,12.2-11.7,22.8-16.6,33.4c-10,20.2-6.8,47.6-1.1,73
				c4.9,21.7,9.3,34.6,15.8,56.2c7.5,25,4.5,38,0.7,62.4c-5.4,31.4,11.2,63.1,19.7,92.5c-3.9,2.9-7.2,3.6-1,7.8c0,0-1.8,2-1.9,2.2
				c-0.4,0.8-0.4,2.1,0.2,2.8c0.7,0.9,1.7,0.6,2.6,1.1c-0.2-0.1-2.1,2-2.1,2.3c-0.8,6.2,27.1,4.8,31,4.7c4.4-0.1,18.5,0.8,13.9-7.3
				c-0.3-0.6-0.5-0.2-0.5-0.8c0-0.3,0.7-1.1,0.8-1.5c0.6-1.6,0.1-2.9-0.3-4.5c-0.6-2.2,1.7-3.9,1.1-6.2c-0.6-2.3-2.4-4-2-6.6
				c1-5.6,9-38.3,9.9-44.7c1-6.9,1.5-14.1,2.2-21.2c1.3-15.1,1.6-30.3,1.2-45.4c-0.6-27.8,13-58.6,18.7-86.8
				c4.1-20.4,4.6-31.1,3.4-49.4c-1.2-16.5-7.7-40.9-16.7-52.8L407.4,420.2z"/>
		</g>
		<g id="XMLID_1002_">
			<path id="XMLID_1003_" class="st2" d="M441.6,501.6c0,0,0.2,1,0.6,2.8c0.1,0.5,0.2,1,0.3,1.5c0.1,0.6,0.1,1.2,0.2,1.9
				c0.2,1.3,0.4,2.9,0.4,4.7c0.3,3.5,0.2,7.7,0.2,12.6c-0.1,4.9-0.4,10.4-0.4,16.3c0,12-0.1,25.9-0.1,40.9
				c-0.1,7.5-0.1,15.2-0.2,23.1c0,2,0,3.9,0,5.9c0,2,0.1,4,0.1,5.9c0.1,4,0.2,8,0.2,11.9c0.1,8,0.2,16,0.4,23.8
				c0.1,3.9,0.1,7.8,0.2,11.7c0.1,3.8,0.3,7.7,0.4,11.4c0.2,7.5,0.4,14.7,0.7,21.6c0.2,6.9,0.4,13.3,0.5,19.3
				c0.3,23.9,0.5,39.9,0.5,39.9s-0.6-16-1.5-39.9c-0.2-6-0.4-12.5-0.7-19.3c-0.3-6.9-0.6-14.1-0.9-21.6c-0.1-3.7-0.3-7.5-0.4-11.4
				c-0.1-3.9-0.2-7.8-0.3-11.7c-0.2-7.9-0.3-15.8-0.5-23.8c-0.1-4-0.1-8-0.2-12c0-2-0.1-4-0.1-6c0-2,0-4,0.1-5.9
				c0.1-7.9,0.2-15.6,0.3-23.1c0.2-15,0.5-28.9,0.7-40.9c0-6,0.5-11.5,0.7-16.3c0.2-4.9,0.3-9.1,0.2-12.6c0-1.7-0.2-3.3-0.3-4.6
				c-0.1-0.7-0.1-1.3-0.2-1.9c-0.1-0.6-0.2-1.1-0.3-1.5C441.7,502.6,441.6,501.6,441.6,501.6z"/>
		</g>
		<g id="XMLID_1000_">
			<path id="XMLID_1001_" class="st2" d="M418.8,493.4c0,0,0.7,0.2,2,0.4c1.3,0.3,3.1,0.7,5.3,1.4c2.2,0.7,4.7,1.5,7.4,2.3
				c1.3,0.4,2.7,0.9,4.1,1.2c1.4,0.4,2.9,0.7,4.3,1l2.2,0.3c0.7,0.1,1.5,0.1,2.2,0.1c0.7,0.1,1.4,0,2.1,0l1.1,0l1-0.1
				c0.7-0.1,1.4-0.2,2-0.3c0.6-0.2,1.3-0.3,1.9-0.5c1.2-0.3,2.3-0.8,3.4-1.2c1-0.5,2-0.9,2.8-1.3c0.8-0.4,1.5-0.8,2.1-1.1
				c1.2-0.6,1.8-1,1.8-1s-0.6,0.5-1.6,1.3c-0.5,0.4-1.2,0.9-2,1.4c-0.8,0.5-1.7,1.1-2.7,1.6c-1.1,0.4-2.2,1.1-3.4,1.5
				c-0.6,0.2-1.3,0.4-1.9,0.6c-0.7,0.2-1.4,0.3-2.1,0.4l-1.1,0.2l-1.1,0.1c-0.7,0-1.5,0.2-2.3,0.1c-0.8,0-1.5-0.1-2.3-0.1l-2.3-0.3
				c-1.5-0.3-3-0.6-4.5-1.1c-1.5-0.4-2.8-0.9-4.2-1.4c-2.7-1-5.1-2-7.2-2.8c-2.1-0.8-3.8-1.6-5.1-2
				C419.5,493.7,418.8,493.4,418.8,493.4z"/>
		</g>
		<g id="XMLID_998_">
			<path id="XMLID_999_" class="st2" d="M444.7,440.2c0,0,0.2,0.9,0.5,2.6c0.1,0.8,0.3,1.8,0.5,3c0.2,1.1,0.3,2.5,0.4,3.9
				c0.1,1.4,0.2,3,0.4,4.6c0.1,1.6,0.1,3.4,0.2,5.1c0,1.8,0.1,3.6,0.1,5.5c0,1.9,0,3.8-0.1,5.7c-0.1,3.8-0.2,7.6-0.4,11.2
				c-0.2,3.6-0.4,6.9-0.6,9.7c-0.4,5.7-0.6,9.5-0.6,9.5s-0.1-1-0.2-2.6c-0.1-1.7-0.2-4-0.2-6.9c0-2.9,0-6.2,0-9.7
				c0.1-3.6,0.1-7.4,0.2-11.2c0.1-3.8,0.2-7.6,0.2-11.1c0-1.8,0.1-3.5,0.1-5.1c0-1.6,0-3.2-0.1-4.6c-0.1-1.4,0-2.7-0.1-3.9
				c-0.1-1.2-0.2-2.2-0.2-3C444.8,441.1,444.7,440.2,444.7,440.2z"/>
		</g>
		<g id="XMLID_996_">
			<path id="XMLID_997_" class="st2" d="M436.7,440.3c0,0,0.1,0.7,0.3,2.1c0.1,1.3,0.2,3.2,0.2,5.5c0,2.3,0.1,4.9,0.1,7.7
				c0,2.8,0,5.8,0.1,8.8c0.1,3,0.3,6,0.6,8.7c0.2,1.4,0.4,2.7,0.6,3.9c0.3,1.2,0.6,2.4,1,3.4c0.4,1,0.9,1.9,1.4,2.6
				c0.2,0.4,0.6,0.6,0.8,0.9c0.3,0.2,0.6,0.4,0.8,0.6c0.6,0.3,1,0.5,1.4,0.6c0.3,0.1,0.5,0.1,0.5,0.1s-0.2,0-0.5,0
				c-0.4,0-0.9-0.1-1.5-0.4c-0.3-0.2-0.6-0.3-1-0.6c-0.3-0.3-0.7-0.5-1-0.9c-0.7-0.7-1.3-1.6-1.8-2.6c-1-2.1-1.8-4.7-2.3-7.5
				c-0.5-2.8-0.7-5.9-0.8-8.9c-0.1-3-0.1-6.1,0.1-8.9c0.1-2.8,0.3-5.5,0.5-7.7c0.1-2.3,0.3-4.1,0.4-5.4
				C436.7,441.1,436.7,440.3,436.7,440.3z"/>
		</g>
		<g id="XMLID_974_">
			<path id="XMLID_975_" class="st13" d="M476.2,313.3c-9.2,1.4-21.4-1.3-31.3-1.6c-4.6,0.1-14.5-1.4-18.5,0.4c-5.7,3-5,9.4-6,15.8
				c-5.1,31.9-15.3,106.4-18,112.9c0,0,27.2,16,36.6,22.2c3.8-6.4,7.1-14.1,10.4-20c5.9,7.5,8.6,13.9,12.7,18.9
				c6.3,7.6,33.8-14.6,34.9-19.3c1.1-4.1-6.2-18.4-7.5-23c-7.1-34,0.2-69.5-5.7-102.9L476.2,313.3z"/>
		</g>
		<g id="XMLID_972_">
			<path id="XMLID_973_" class="st8" d="M449.4,442.9c0,0,0.2-2,0.5-5.6c0.2-1.8,0.3-3.9,0.6-6.4c0.1-2.5,0.3-5.3,0.4-8.3
				c0.1-3,0.4-6.3,0.5-9.8c0.1-3.5,0.2-7.2,0.4-11c0.4-7.6,0.5-15.7,0.7-23.9c0.5-16.2,0.9-32.5,1.3-44.7c0.2-6.1,0.4-11.2,0.5-14.7
				c0.1-3.6,0.2-5.6,0.2-5.6s0.2,8.1,0.3,20.3c0,6.1,0,13.2-0.1,20.8c-0.1,3.8-0.1,7.7-0.2,11.7c-0.1,4-0.1,8.1-0.3,12.1
				c-0.3,8.1-0.5,16.3-1,23.9c-0.2,3.8-0.4,7.5-0.6,11c-0.2,3.5-0.5,6.8-0.8,9.8c-0.2,3-0.5,5.8-0.7,8.3c-0.3,2.5-0.6,4.6-0.9,6.4
				C449.6,440.9,449.4,442.9,449.4,442.9z"/>
		</g>
		<g id="XMLID_967_">
			<g id="XMLID_970_">
				<path id="XMLID_971_" class="st1" d="M439.2,310.5c0-0.4,0.8-2.2,1.2-2.6c-1.6,0.6-3.2,0.9-4.8,1.1c-6.5,7-14,12.7-19.1,17.7
					c4,2.1,11.1,3.2,14.6,6.2c-2.1,4-10.5,4.6-12.1,8.9c-1,3.4,5.6,46.7,13.7,65.6C437.7,371.5,440.8,316.2,439.2,310.5z"/>
			</g>
			<g id="XMLID_968_">
				<path id="XMLID_969_" class="st5" d="M419.1,341.8c1.6-4.4,10-5,12.1-8.9c-3.5-3-10.7-4.1-14.6-6.2c5.1-4.9,12.6-10.7,19.1-17.7
					c-7.5,0.8-15.7-1.6-22.9,0.4c-3.5,0.9-25.8,28.8-35.8,38.1c-6.4,6-34.1,24.2-36.9,32.9c-3.7,9.2,31.2,55.9,42.2,63.1
					c3-3.5,11.4-11.5,12.8-15.4c0.8-2.3-6-8.8-8.3-13.6c-3.2-6.4-7.1-12.7-10-18.9c-8.7-18.6,0.6-7.8-1.2-14.3
					c0.5,3,3.4,1.8,3.9,0.5c0-1.3-0.5-1.9-0.5-3.2c4.4,2.5,23-15,27.6-19.6c1.2,11.6-2.6,49.8-2.8,59l-0.3,3.9
					c1.4,4.7,15.5,15.3,20.8,16c3.1,0.8,6.1-12.4,8.6-30.6C424.7,388.5,418,345.2,419.1,341.8z"/>
			</g>
		</g>
		<g id="XMLID_962_">
			<g id="XMLID_965_">
				<path id="XMLID_966_" class="st1" d="M479.6,338.4c-2.2-3-6-5.2-8.3-8.2c3.4-1.4,7.8-2.3,10.8-4.6c-3.4-5-7.5-12.6-11.8-17.4
					l-4.2-1.4c1.9,6.9,1.3,17.3,1.4,25.1c0.2,8.4,1.7,52.4,2,83C475.7,392.7,483.3,343.2,479.6,338.4z"/>
			</g>
			<g id="XMLID_963_">
				<path id="XMLID_964_" class="st1" d="M489.1,307.7c-6.5-0.7-11.5,3.8-17.6,0.9l-1.2-0.4c4.3,4.8,8.4,12.4,11.8,17.4
					c-3,2.2-7.3,3.2-10.8,4.6c2.2,3,6.1,5.3,8.3,8.2c3.6,4.8-3.9,54.3-10.2,76.6c0.1,8.9,0.1,16.7-0.1,22.1
					c4.8-0.5,18.9-7.4,21.9-11.3c3.4-4.4,0.9-16.5,1.2-22.6c0.9-16.5,0.9-29.5,3.6-47.5c6.3,5.9,13,14.8,17.5,21
					c7.3,10,4.7,16.4,9,15.9c0.7,7.5-20.8,23-28.4,31c8.4,5.5,12.8,11.7,15.2,21.7c14-15.1,39.5-40.7,41.1-46.3
					C552.2,393.5,500,308.7,489.1,307.7z"/>
			</g>
		</g>
		<g id="XMLID_958_">
			<path id="XMLID_959_" class="st8" d="M447.5,304c-4.6,1.5-7.8,7.9-8.2,12.5c-0.5,3.9,1.3,9.3,5.1,8.1c3.3-1.2,8.5-8.9,10.1-11.7
				c-3.9-2.1-5-4.4-7-7.9L447.5,304z"/>
		</g>
		<g id="XMLID_948_">
			<path id="XMLID_949_" class="st4" d="M395.3,437.5c-4,2,1.7,9.2,3.1,11.4c1,1.6,3.1,5.4,5.4,5.3c2.5-0.2,1.7-3.8,1.3-5.4
				c2.5,3.7,6.9,2.7,5-1.9c3.7,3,3.1-7.4,3-9.2c-0.2-3.1-1.4-7-2.7-9.8c1.5,1.2,5.8,9.7,8.1,7.2c2.3-2.5-0.7-9-2.2-11.1
				c-2.4-3.3-6.5-8.5-11.2-8.2c-4.4,0.2-1.5,5.5-0.3,7.6c-4-0.7-7.4,3.2-4.4,6.6c-3,0.4-5.4,4.4-3.3,7.1L395.3,437.5z"/>
		</g>
		<g id="XMLID_946_">
			<path id="XMLID_947_" class="st0" d="M405.1,448.9c0,0-0.1-0.2-0.3-0.5c-0.1-0.2-0.2-0.4-0.3-0.6c-0.1-0.3-0.3-0.5-0.5-0.8
				c-0.2-0.3-0.4-0.5-0.5-0.9c-0.2-0.3-0.4-0.6-0.6-1c-0.4-0.7-0.9-1.4-1.3-2.1c-0.5-0.7-0.9-1.4-1.3-2.1c-0.4-0.7-0.8-1.3-1.1-1.9
				c-0.3-0.6-0.6-1-0.8-1.4c-0.2-0.3-0.3-0.6-0.3-0.6s0.8,0.4,1.8,1.3c0.5,0.4,1.1,1,1.6,1.6c0.6,0.6,1,1.4,1.6,2.1
				c0.4,0.8,0.9,1.5,1.2,2.3c0.3,0.8,0.6,1.5,0.7,2.2c0.2,0.7,0.2,1.2,0.2,1.6C405.1,448.7,405.1,448.9,405.1,448.9z"/>
		</g>
		<g id="XMLID_944_">
			<path id="XMLID_945_" class="st0" d="M410.3,446.5c0,0-0.6-0.8-1.3-2.1c-0.2-0.3-0.4-0.7-0.5-1c-0.2-0.4-0.4-0.7-0.6-1.1
				c-0.4-0.8-0.9-1.6-1.3-2.4c-0.5-0.8-0.9-1.6-1.3-2.4c-0.2-0.4-0.4-0.8-0.6-1.2c-0.2-0.4-0.4-0.7-0.5-1c-0.6-1.3-0.9-2.3-0.9-2.3
				s0.8,0.6,1.8,1.7c0.5,0.5,1.1,1.2,1.6,2c0.5,0.8,1,1.6,1.5,2.4c0.4,0.9,0.8,1.8,1.1,2.7c0.4,0.9,0.5,1.7,0.7,2.4
				C410.2,445.5,410.3,446.5,410.3,446.5z"/>
		</g>
		<g id="XMLID_942_">
			<path id="XMLID_943_" class="st0" d="M407.1,424.6c0,0,0.4,0,1,0.1c0.5,0.1,1.1,0.5,1.6,1c0.4,0.6,0.8,1.2,0.9,1.8
				c0.1,0.6,0,1,0,1s-0.4-0.2-0.8-0.4c-0.2-0.1-0.4-0.3-0.7-0.5c-0.2-0.2-0.4-0.4-0.6-0.6c-0.4-0.4-0.7-1-1-1.4
				C407.1,425.1,407.1,424.6,407.1,424.6z"/>
		</g>
		<g id="XMLID_940_">
			<path id="XMLID_941_" class="st4" d="M499.4,439.6c3.9,2.1-2.1,9.1-3.6,11.3c-1.1,1.6-3.3,5.3-5.6,5c-2.5-0.3-1.5-3.8-1-5.4
				c-2.6,3.6-7,2.4-4.9-2.1c-3.8,2.9-2.8-7.6-2.7-9.3c0.3-3.1,1.7-6.9,3.1-9.7c-1.6,1.1-6.2,9.5-8.4,6.8c-2.2-2.6,1.1-8.9,2.7-11
				c2.6-3.2,6.9-8.2,11.5-7.8c4.4,0.4,1.3,5.6,0,7.6c4-0.5,7.3,3.5,4.1,6.8c3,0.6,5.2,4.6,3,7.2L499.4,439.6z"/>
		</g>
		<g id="XMLID_938_">
			<path id="XMLID_939_" class="st0" d="M489,450.6c0,0,0-0.2,0-0.6c0-0.4,0-0.9,0.3-1.6c0.2-0.7,0.5-1.4,0.8-2.2
				c0.3-0.8,0.9-1.5,1.3-2.2c0.6-0.7,1.1-1.4,1.7-2c0.6-0.6,1.1-1.1,1.7-1.5c1-0.8,1.9-1.2,1.9-1.2s-0.1,0.2-0.3,0.5
				c-0.2,0.3-0.5,0.8-0.8,1.4c-0.4,0.5-0.8,1.2-1.2,1.8c-0.5,0.7-0.9,1.3-1.4,2c-0.5,0.7-1,1.4-1.4,2c-0.2,0.3-0.5,0.6-0.7,0.9
				c-0.2,0.3-0.4,0.6-0.6,0.8c-0.2,0.3-0.4,0.5-0.5,0.7c-0.1,0.2-0.3,0.4-0.4,0.6C489.2,450.4,489,450.6,489,450.6z"/>
		</g>
		<g id="XMLID_936_">
			<path id="XMLID_937_" class="st0" d="M483.9,448c0,0,0.1-1,0.5-2.4c0.2-0.7,0.4-1.5,0.8-2.4c0.4-0.8,0.8-1.7,1.3-2.6
				c0.5-0.8,1.1-1.6,1.6-2.4c0.5-0.8,1.1-1.4,1.6-1.9c1-1,1.8-1.6,1.8-1.6s-0.3,1-1,2.2c-0.2,0.3-0.4,0.7-0.6,1
				c-0.2,0.3-0.4,0.8-0.6,1.1c-0.4,0.8-0.9,1.6-1.4,2.4c-0.4,0.8-0.9,1.6-1.4,2.4c-0.2,0.4-0.5,0.7-0.7,1.1c-0.2,0.4-0.4,0.7-0.6,1
				C484.6,447.3,483.9,448,483.9,448z"/>
		</g>
		<g id="XMLID_934_">
			<path id="XMLID_935_" class="st0" d="M488.1,426.3c0,0-0.1,0.4-0.4,0.9c-0.3,0.5-0.6,1-1.1,1.4c-0.2,0.2-0.4,0.4-0.7,0.6
				c-0.3,0.2-0.5,0.3-0.7,0.5c-0.4,0.3-0.9,0.4-0.9,0.4s-0.1-0.4,0-1c0.1-0.6,0.5-1.2,0.9-1.7c0.5-0.5,1.2-0.9,1.7-1
				C487.6,426.3,488.1,426.3,488.1,426.3z"/>
		</g>
		<g id="XMLID_932_">
			<path id="XMLID_933_" class="st8" d="M443,384.6c0,0,1.1-0.6,2.9-1.3c1.8-0.7,4.2-1.5,6.6-2.1c2.4-0.6,4.9-1.1,6.8-1.4
				c1.9-0.3,3.2-0.3,3.2-0.3s-1.1,0.6-2.9,1.3c-1.8,0.7-4.2,1.5-6.6,2.1c-2.4,0.6-4.9,1.1-6.8,1.4C444.3,384.6,443,384.6,443,384.6z
				"/>
		</g>
		<g id="XMLID_930_">
			<path id="XMLID_931_" class="st2" d="M522.7,393.3c0,0,0.2-0.2,0.5-0.4c0.1-0.1,0.3-0.3,0.5-0.5c0.2-0.2,0.4-0.4,0.7-0.5
				c0.6-0.3,1.3-0.8,2.1-1.1c0.4-0.1,0.8-0.3,1.2-0.4c0.4-0.1,0.9-0.2,1.3-0.3c0.9-0.1,1.8-0.3,2.6-0.2c0.8,0,1.6,0,2.3,0.1
				c1.3,0.2,2.2,0.4,2.2,0.4s-0.9,0.3-2.1,0.6c-1.3,0.3-3,0.5-4.6,0.8c-0.8,0.1-1.6,0.3-2.4,0.5c-0.8,0.1-1.4,0.4-2.1,0.5
				c-0.6,0.2-1.2,0.3-1.5,0.4C522.9,393.3,522.7,393.3,522.7,393.3z"/>
		</g>
		<g id="XMLID_928_">
			<path id="XMLID_929_" class="st2" d="M521.7,389.4c0,0,0.1-0.2,0.3-0.5c0.2-0.3,0.4-0.7,0.8-1.1c0.8-0.9,2-1.8,3.4-2.5
				c1.3-0.7,2.8-1.2,3.9-1.5c1.1-0.3,1.9-0.3,1.9-0.3s-0.6,0.5-1.5,1.2c-0.9,0.6-2.2,1.4-3.5,2.1c-0.6,0.3-1.3,0.7-1.9,1
				c-0.6,0.3-1.2,0.6-1.7,0.8c-0.5,0.2-0.9,0.5-1.2,0.6C521.9,389.3,521.7,389.4,521.7,389.4z"/>
		</g>
		<g id="XMLID_926_">
			<path id="XMLID_927_" class="st2" d="M360.8,373.9c0,0,1,0.3,2.4,0.9c0.7,0.3,1.5,0.7,2.3,1.1c0.8,0.4,1.7,1,2.5,1.6
				c0.4,0.3,0.8,0.7,1.2,1c0.4,0.3,0.7,0.7,1.1,1.1c0.7,0.7,1.2,1.5,1.6,2.1c0.4,0.7,0.6,1.3,0.7,1.7c0.1,0.4,0.2,0.7,0.2,0.7
				s-0.2-0.2-0.5-0.5c-0.3-0.3-0.7-0.8-1.2-1.3c-0.3-0.2-0.6-0.5-0.9-0.8c-0.3-0.3-0.6-0.5-1-0.8c-0.7-0.6-1.4-1.2-2.2-1.7
				c-1.6-1.1-3.2-2.3-4.3-3.2C361.4,374.6,360.8,373.9,360.8,373.9z"/>
		</g>
		<g id="XMLID_924_">
			<path id="XMLID_925_" class="st2" d="M363.3,370.8c0,0,0.2,0,0.6-0.1c0.4,0,0.9-0.2,1.5-0.1c0.7,0,1.4,0,2.2,0.2
				c0.4,0.1,0.8,0.1,1.2,0.3c0.4,0.1,0.8,0.3,1.2,0.4c0.4,0.2,0.8,0.4,1.2,0.6c0.4,0.2,0.7,0.4,1.1,0.7c0.7,0.5,1.2,1,1.7,1.5
				c0.5,0.5,0.7,1,0.9,1.3c0.2,0.3,0.3,0.5,0.3,0.5s-0.2-0.1-0.5-0.3c-0.3-0.2-0.7-0.5-1.3-0.8c-0.3-0.1-0.6-0.3-0.8-0.5
				c-0.3-0.2-0.6-0.3-1-0.5c-0.6-0.4-1.4-0.6-2.1-1c-0.7-0.3-1.5-0.6-2.2-0.8c-0.4-0.1-0.7-0.3-1-0.4c-0.3-0.1-0.6-0.2-0.9-0.3
				c-0.6-0.2-1.1-0.4-1.4-0.5C363.5,370.9,363.3,370.8,363.3,370.8z"/>
		</g>
		<g id="XMLID_922_">
			<path id="XMLID_923_" class="st2" d="M406.9,362.4c0,0-0.1-0.5-0.2-1.3c-0.1-0.9-0.3-2.1-0.4-3.5c-0.3-2.9-0.6-6.8-0.7-10.7
				c0-3.9,0.1-7.8,0.2-10.8c0.1-1.5,0.2-2.7,0.3-3.5c0.1-0.9,0.2-1.3,0.2-1.3s0.1,0.5,0.2,1.3c0.1,0.9,0.3,2.1,0.4,3.5
				c0.3,2.9,0.4,6.8,0.5,10.7c0,2,0.1,3.9,0.1,5.7c0,1.8,0,3.5-0.1,5c-0.1,1.5-0.2,2.7-0.2,3.5C407,361.9,406.9,362.4,406.9,362.4z"
				/>
		</g>
		<g id="XMLID_920_">
			<path id="XMLID_921_" class="st2" d="M496.1,355.5c0,0-0.4-1.6-0.7-4c-0.3-2.4-0.7-5.5-0.8-8.7c-0.1-3.2-0.1-6.4,0-8.8
				c0.1-2.4,0.3-4,0.3-4s0.4,1.6,0.7,4c0.3,2.4,0.6,5.5,0.8,8.7c0.2,3.2,0.2,6.4,0.1,8.8C496.3,353.9,496.1,355.5,496.1,355.5z"/>
		</g>
		<circle id="XMLID_47_" class="st10" cx="439" cy="241.2" r="4.5"/>
		<circle id="XMLID_46_" class="st10" cx="473" cy="241.2" r="4.5"/>
		<path id="XMLID_44_" class="st5" d="M442.6,222.2c-0.3,0-0.7-0.1-0.9-0.4c-0.1-0.1-1.7-1.7-5.3-1.7c-3.7,0-5.8,1.7-5.8,1.8
			c-0.5,0.4-1.3,0.4-1.8-0.1c-0.5-0.5-0.4-1.3,0.1-1.8c0.1-0.1,2.8-2.4,7.5-2.4c4.8,0,7,2.4,7.1,2.5c0.5,0.5,0.4,1.3-0.1,1.8
			C443.3,222.1,443,222.2,442.6,222.2z"/>
		<path id="XMLID_42_" class="st5" d="M479.9,221.6c-0.3,0-0.7-0.1-0.9-0.4c-0.1-0.1-1.7-1.7-5.3-1.7c-3.7,0-5.8,1.7-5.8,1.8
			c-0.5,0.4-1.3,0.4-1.8-0.1c-0.5-0.5-0.4-1.3,0.1-1.8c0.1-0.1,2.8-2.4,7.5-2.4c4.8,0,7,2.4,7.1,2.5c0.5,0.5,0.4,1.3-0.1,1.8
			C480.5,221.5,480.2,221.6,479.9,221.6z"/>
		<path id="XMLID_41_" class="st11" d="M456.8,275.2c-0.4,0-0.7,0-1.1-0.1c-4-0.4-6.8-3.4-7-3.5c-0.5-0.5-0.5-1.3,0-1.8
			c0.5-0.5,1.3-0.5,1.8,0c0,0,2.4,2.4,5.3,2.7c4.8,0.4,7-2.8,7.1-3c0.4-0.6,1.2-0.8,1.8-0.4c0.6,0.4,0.8,1.2,0.4,1.7
			C464.9,271.2,462.3,275.2,456.8,275.2z"/>
		<path id="XMLID_40_" class="st0" d="M500.8,233.5c-0.3-6.4,0.5-7.8-0.9-14.1c-1.6-5.7-2.3-11.3-4.6-17
			c-3.2-7.7-7.2-13.9-14.2-18.9c-2.1-1.5-4.2-2.5-6.4-3.2c9,16.1,14.2,34.8,14.2,54.8c0,20-5.2,38.7-14.2,54.8
			c4.5-1.2,8.5-2.9,12.5-7.1c5.6-5.5,9.2-16.1,9.7-24.5c7.2-1.4,13.3-6.3,15-13.8C513,239.2,508.2,229.7,500.8,233.5z"/>
		<g id="XMLID_1021_">
			<path id="XMLID_1022_" class="st5" d="M405.8,200.6c-1.3,6.7-2,16.2-1,23.1c0.7,5.7,8.9,22.6,10.7,9.7c0.7-7.2-1-16.2,1.6-23.1
				c3.1-8.2,24.1-7.4,31.6-8.5c11.4-1.4,26.5-6,33.8-15.1c0.7,4.8,0.2,9,2.4,13.7c2.2,5,6.2,9.2,8.7,13.9c4.1,7.4,3.4,17,7.7,23.8
				c15-10.5,9.8-32.6,2.9-46.2c-1.9-4.2-3.8-8.3-8-10c-1.2-0.6-3.6-0.2-4.5-0.8c-1.8-1.2-1.3-2.7-2.5-4.4c-3.1-5-11.3-8.7-17.6-10.1
				c-6.9-1.6-15.9-1.1-23.1,0.2C441.6,168.1,410.6,175.2,405.8,200.6z"/>
		</g>
		<path id="XMLID_39_" class="st0" d="M465.5,293.1c-2.6,0.2-5.2,0.3-7.9,0.4v20c4.2-0.6,4.9,1.9,5.4-1.9c0.8-4.5,0.3-13.5,0.2-18
			C464,293.4,464.8,293.2,465.5,293.1z"/>
		<g id="XMLID_960_">
			<path id="XMLID_961_" class="st8" d="M463.4,303.4c5.1,4.2,6.4,8.1,7,12.7c0.6,3.8,0,9.1-3.9,8.1c-3.3-1-10.4-8.5-12.1-11.2
				c3.8-2.3,6.8-4.9,8.7-8.5L463.4,303.4z"/>
		</g>
	</g>
	<g id="XMLID_48_">
		<g id="XMLID_1165_">
			<path id="XMLID_1166_" class="st13" d="M675.2,362.8c-3.9,2-15.2,0.5-21.6,1c-17.2,1.5-18.2,11.8-23.6,26
				c-4.4,11.3-12.8,21.6-18.7,32.4c-5.9,11.3-15.7,20.6-19.1,32.9c-1,4.4-4.4,18.2,2.5,20.1c6.4,2,12.3-11.8,15.2-15.7
				c8.8-13.7,19.6-29,25.5-44.2c0.5,10.8-2,25.6-2.9,36.4c-0.5,7.4-1,14.2-1,21.1c0,5.9-2.5,10.8-2.9,15.7
				c-2,23.1,46.2,21.6,60.4,19.6c9.3-1,20.1,0,28-4.4c14.7-7.9,7.7-14.4,6.2-25.2c-1-9.8,1.2-48.2,0.2-61c8.1,19,24.3,39,27.7,49.4
				c0,0-2,7.5-10.8,24.4c-5.1,9.9-9.1,15.9-17.9,25.6c5.4,3.9,5.4,12,11.7,15.9c7.4-9.3,39.3-57.7,38.8-66
				c-1-7.9-11.3-22.3-15.2-28.7c-5.4-8.3-34.5-74.1-47.1-73.9L675.2,362.8z"/>
		</g>
		<g id="XMLID_1163_">
			<path id="XMLID_1164_" class="st0" d="M722.2,517.5c4.9-3.2,10.9,6,11.9,10c0.8,3.4-1.3,6-4.4,3.6c-2.8-2.1-4.7-5.1-6.1-8.1
				c-0.6-1.4-0.9-2.8-1.6-4.2L722.2,517.5z"/>
		</g>
		<g id="XMLID_1161_">
			<path id="XMLID_1162_" class="st5" d="M700.4,227.2c0-1.2,1.2-3.5,1.2-5.8l0,0c25.5,10.4,22,49.8,10.4,68.3
				c-8.1-15-8.1-41.7-10.4-57.9L700.4,227.2z"/>
		</g>
		<g id="XMLID_1150_">
			<g id="XMLID_1159_">
				<path id="XMLID_1160_" class="st4" d="M580.3,402.5c0.4-5.3-1.5-9.5-3.8-13.3c-5-7.2-3.4-11.4-3.1-20.6c0.4-8.4-0.4-13-4.2-20.6
					c-2.7-5.3-5-11.8-5-17.9c5.7-1.1,8.4,13.3,11.1,17.2c0-6.1-4.6-32.4,3.8-31.3c-1.1-5,5.8-8.5,6.6-2.7c10-4,8.7,24.6,8.3,30.2
					c4.6-9.5,6.6,9.1,6.6,11.3c0,6.1-0.9,12.7-1.2,18.8c-0.4,8.4-6.5,10.3-10.3,17.2c-2.3,4.2-1.9,11.1-0.8,16L580.3,402.5z"/>
			</g>
			<g id="XMLID_1157_">
				<path id="XMLID_1158_" class="st0" d="M584.9,384.6c0,0-0.3-0.7-0.6-1.9c-0.3-1.2-0.9-3-1.2-5.2c-0.1-1.1-0.2-2.3,0-3.7l0-0.1
					l0,0l0-0.1l0,0l0-0.1l0.1-0.2l0.2-0.4c0.1-0.3,0.3-0.6,0.4-0.9c0.4-0.6,0.9-1.2,1.4-1.8c1.1-1,2.4-1.8,3.7-2.4
					c1.2-0.7,2.6-1.2,3.4-2.2c0.9-0.8,1.1-2.1,1.3-3.4c0.2-1.3,0.2-2.7,0.2-4.1c0-2.7-0.1-5.2-0.2-7.4c-0.1-2.2,0-4,0.1-5.3
					c0-0.6,0.1-1.1,0.2-1.5c0.1-0.3,0.1-0.5,0.1-0.5s0,0.2,0,0.5c0,0.3,0,0.8,0,1.5c0,1.3,0.3,3.1,0.5,5.2c0.2,2.2,0.6,4.7,0.8,7.4
					c0.1,1.4,0.1,2.8-0.1,4.3c-0.2,1.4-0.5,3.2-1.7,4.5l-0.9,0.8l-1,0.6c-0.7,0.4-1.3,0.7-2,1c-1.3,0.6-2.4,1.2-3.4,2
					c-0.4,0.4-0.8,0.8-1.2,1.3c-0.3,0.5-0.6,1.1-0.8,1.6c-0.3,1.1-0.3,2.2-0.3,3.3c0.1,2.1,0.3,3.9,0.5,5.2
					C584.8,383.8,584.9,384.6,584.9,384.6z"/>
			</g>
			<g id="XMLID_1155_">
				<path id="XMLID_1156_" class="st0" d="M579.2,315.9c0,0,0.1,0.1,0.2,0.3c0.1,0.2,0.3,0.4,0.5,0.9c0.3,0.8,0.8,1.9,1.1,3.3
					c0.7,2.8,1.3,6.6,1.7,10.4c0.4,3.8,0.6,7.6,0.6,10.5c0.1,2.9,0.1,4.8,0.1,4.8s-0.2-0.5-0.4-1.3c-0.2-0.8-0.5-2-0.8-3.4
					c-0.5-2.8-1-6.6-1.4-10.4c-0.3-3.8-0.7-7.6-0.9-10.4c-0.1-1.4-0.2-2.6-0.4-3.4c-0.1-0.4-0.2-0.7-0.2-0.9
					C579.2,316,579.2,315.9,579.2,315.9z"/>
			</g>
			<g id="XMLID_1153_">
				<path id="XMLID_1154_" class="st0" d="M585.8,313.2c0,0,0.1,0.4,0.3,1.2c0.2,0.8,0.5,1.9,0.8,3.2c0.6,2.7,1.2,6.3,1.7,9.9
					c0.4,3.6,0.6,7.3,0.6,10c0,1.4,0,2.5,0,3.3c0,0.8,0,1.3,0,1.3s-0.1-0.4-0.3-1.2c-0.2-0.8-0.4-1.9-0.6-3.2
					c-0.5-2.7-1-6.3-1.3-9.9c-0.2-1.8-0.4-3.6-0.6-5.3c-0.2-1.7-0.3-3.3-0.3-4.7c-0.1-1.4-0.1-2.5-0.1-3.3
					C585.7,313.6,585.8,313.2,585.8,313.2z"/>
			</g>
			<g id="XMLID_1151_">
				<path id="XMLID_1152_" class="st14" d="M574.1,348.6c0,0,0.9-0.8,2.3-1.7c0.7-0.5,1.5-1,2.5-1.4c1-0.5,2-0.9,3.1-1.3
					c1.1-0.4,2.2-0.7,3.2-1c1-0.3,2-0.5,2.8-0.7c1.7-0.3,2.8-0.4,2.8-0.4s-1,0.6-2.5,1.4c-0.8,0.4-1.7,0.8-2.6,1.2
					c-1,0.4-2,0.8-3.1,1.2c-1,0.4-2.1,0.8-3.1,1.1c-0.5,0.2-1,0.3-1.4,0.5c-0.5,0.2-0.9,0.3-1.3,0.5
					C575.2,348.4,574.1,348.6,574.1,348.6z"/>
			</g>
		</g>
		<g id="XMLID_1148_">
			<path id="XMLID_1149_" class="st4" d="M633.7,294.6c0.4-3.8-9-1.7-11.4,0c-8,5.3-3,21.4,9.9,21.4c2.8,0,5.7,1.5,5.7,1.5
				s3.8,5.7,5.3,8c3.1,4.6,5.7,8,10.3,10.7c6.3,3.4,15,7.8,17.8,8.2c1.6,0.2,0.9,3.7,0.9,5.2c-0.1,6.3-0.9,12.3-0.9,19.9
				c3.4,0,8.3,0.8,11.7,0c5.7-0.8,5.2,5.2,5.6-0.1c0.4-6.9-1.9-18.3-1.1-25.2c20.2-2.3,34.7-19.1,32.8-40
				c-0.8-9.2-5.7-17.9-5.7-27.1c0-9.5,1.1-17.9-1.1-27.8c-1.5-7.6-4.6-16.4-11.1-21c-11.1-8.4-27.1-7.2-38.5-1.1
				c-11.4,6.1-22.9,9.9-28.6,22.1c-5.7,11.8-4.2,24-4.2,36.6L633.7,294.6z"/>
		</g>
		<g id="XMLID_1131_">
			<g id="XMLID_1138_">
				<path id="XMLID_1139_" class="st9" d="M651,826.4c0.6-0.4,1.1-0.7,1.6-1.1C652,825.6,651.5,826,651,826.4z"/>
			</g>
			<g id="XMLID_1136_">
				<path id="XMLID_1137_" class="st5" d="M615.3,834.6c1.3,5.7,12,4.7,17.3,3.4c3.8-0.8,10.3-2.7,13.3-5.3c2-1.4,3.1-4.4,5.1-6.2
					C639,834,624.4,840.2,615.3,834.6z"/>
			</g>
			<g id="XMLID_1134_">
				<path id="XMLID_1135_" class="st1" d="M661.6,801l-11.8,0.4c-3.1,5.3-9.9,11.1-14.5,15.3c-5.3,4.2-18.3,8.8-19.8,14.9
					c-0.3,1.2-0.3,2.2-0.1,3.1c9.2,5.5,23.8-0.6,35.7-8.2c0.5-0.4,1-0.8,1.6-1.1c4.5-3,8.6-6.1,11.7-8.8
					C664.5,811.4,664.2,804.6,661.6,801z"/>
			</g>
			<g id="XMLID_1132_">
				<path id="XMLID_1133_" class="st5" d="M652.6,825.4c0.3-0.1,0.6-0.3,0.9-0.3c0,3.8,3.8,3.4,6.9,2.3c3.8-1.9,3.4-4.2,3.8-8.4
					c0.1-0.7,0.1-1.5,0.1-2.4C661.2,819.3,657.1,822.4,652.6,825.4z"/>
			</g>
		</g>
		<g id="XMLID_1122_">
			<g id="XMLID_1129_">
				<path id="XMLID_1130_" class="st9" d="M692.8,826.4c-0.6-0.4-1.1-0.7-1.6-1.1C691.8,825.6,692.3,826,692.8,826.4z"/>
			</g>
			<g id="XMLID_1127_">
				<path id="XMLID_1128_" class="st5" d="M728.5,834.6c-1.3,5.7-12,4.7-17.3,3.4c-3.8-0.8-10.3-2.7-13.3-5.3
					c-2-1.4-3.1-4.4-5.1-6.2C704.7,834,719.3,840.2,728.5,834.6z"/>
			</g>
			<g id="XMLID_1125_">
				<path id="XMLID_1126_" class="st1" d="M682.2,801l11.8,0.4c3.1,5.3,9.9,11.1,14.5,15.3c5.3,4.2,18.3,8.8,19.8,14.9
					c0.3,1.2,0.3,2.2,0.1,3.1c-9.2,5.5-23.8-0.6-35.7-8.2c-0.5-0.4-1-0.8-1.6-1.1c-4.5-3-8.6-6.1-11.7-8.8
					C679.2,811.4,679.6,804.6,682.2,801z"/>
			</g>
			<g id="XMLID_1123_">
				<path id="XMLID_1124_" class="st5" d="M691.2,825.4c-0.3-0.1-0.6-0.3-0.9-0.3c0,3.8-3.8,3.4-6.9,2.3c-3.8-1.9-3.4-4.2-3.8-8.4
					c-0.1-0.7-0.1-1.5-0.1-2.4C682.6,819.3,686.6,822.4,691.2,825.4z"/>
			</g>
		</g>
		<g id="XMLID_1120_">
			<path id="XMLID_1121_" class="st6" d="M632.4,501.3c0,3.4,0,6.9,0,9.8c14,4.4,84.4,4.1,85.4-0.5c0.6-2.7,1-4.9,0-8.4
				C717.8,502.2,635.4,501.3,632.4,501.3z"/>
		</g>
		<g id="XMLID_1118_">
			<path id="XMLID_1119_" class="st1" d="M642.3,501.1c1,2,1.5,5,1,7.5c-3.4,1.5-6.9,2-10.3,2c-3,11.5-2.1,24.7-2,36.4
				c0.1,20.7,0.9,41.5,1.9,62.2c2,43.2,4.8,86.3,8,129.4c0.5,6.7,1,13.4,1.6,20.2c0.2,2.2,0.5,4.5,0.6,6.7
				c0.2,6.4,4.6,14.1,3.3,20.2c-0.6,2.7-4,3.8-3.9,6.9c0.1,3.3,3.1,4.3,3,8.3c-0.1,3.2-2.9,4,0,6.4c1.7,1.4,6.1,1.3,8.3,1.6
				c4.8,0.7,12.9,3.6,14.2-3.2l-3.4-255.5h15c-0.5,24-0.9,49.6-1.4,74.6c-0.7,39.5-1.4,78.8-2.2,118.3c-0.3,15.2-0.6,30.4-1.3,45.6
				c-0.2,5.2-0.7,12.4,1,17.1c2,5.4,7.9,4.5,13.7,4.4c5.5-0.1,12.1-1.5,7.9-8.3c4.9-3.6-1.1-4.7-2-7.4c-0.7-2.1,1.1-7,0.5-9.8
				c0,0,3.4-10.3,3.4-22.6c0-12.3,3.2-57,3.2-57l15.8-194.3l-7.9-2v-6.6l-9-0.9v7.5l-50,2v-9.7H642.3z"/>
		</g>
		<g id="XMLID_1108_">
			<path id="XMLID_1109_" class="st2" d="M648.2,797.8c0,0,0.2,0,0.7,0.2c0.4,0.1,1,0.3,1.7,0.4c0.3,0.1,0.7,0.1,1.1,0.3
				c0.4,0.1,0.8,0.1,1.2,0.2c0.8,0.2,1.7,0.2,2.6,0.3c0.9,0,1.8,0.1,2.6,0c0.4-0.1,0.8,0,1.2-0.1c0.4-0.1,0.7-0.1,1.1-0.2
				c0.3,0,0.6-0.1,0.9-0.2c0.3-0.1,0.5-0.2,0.7-0.2c0.4-0.1,0.6-0.2,0.6-0.2s-0.2,0.2-0.5,0.5c-0.2,0.1-0.3,0.3-0.6,0.5
				c-0.2,0.2-0.5,0.4-0.8,0.6c-0.3,0.2-0.7,0.4-1.1,0.5c-0.4,0.2-0.8,0.2-1.3,0.3c-0.5,0.1-0.9,0.2-1.4,0.2c-0.5,0-1,0-1.5,0
				c-0.5-0.1-1-0.2-1.5-0.2c-0.5,0-0.9-0.2-1.4-0.4c-0.9-0.3-1.7-0.7-2.3-1c-0.7-0.3-1.1-0.8-1.4-1
				C648.3,798,648.2,797.8,648.2,797.8z"/>
		</g>
		<g id="XMLID_1106_">
			<path id="XMLID_1107_" class="st2" d="M651.6,793.4c0,0,0.1,0,0.3,0c0.2,0,0.5,0,0.8-0.1c0.2,0,0.6-0.1,0.9-0.1
				c0.3-0.1,0.7-0.1,1.1-0.2c0.7-0.1,1.5-0.2,2.2-0.2c0.6,0,1.1,0.1,1.1,0.1s-0.3,0.4-0.8,0.8c-0.3,0.2-0.6,0.4-1,0.6
				c-0.4,0.2-0.8,0.3-1.3,0.4c-0.4,0.1-0.9,0.1-1.3,0c-0.4-0.1-0.8-0.2-1.2-0.4c-0.4-0.2-0.5-0.4-0.6-0.6
				C651.6,793.5,651.6,793.4,651.6,793.4z"/>
		</g>
		<g id="XMLID_1104_">
			<path id="XMLID_1105_" class="st2" d="M676.6,794.9c0,0,0.2,0.1,0.6,0.2c0.4,0.1,0.8,0.4,1.4,0.7c0.3,0.1,0.6,0.3,0.9,0.4
				c0.3,0.2,0.7,0.3,1,0.4c0.7,0.3,1.5,0.5,2.3,0.8c0.8,0.2,1.6,0.5,2.3,0.6c0.4,0,0.7,0.2,1.1,0.2c0.3,0,0.7,0.1,1,0.1
				c0.6,0.1,1.1,0,1.5,0c0.4,0,0.6,0,0.6,0s-0.2,0.1-0.5,0.3c-0.4,0.1-0.9,0.5-1.5,0.6c-0.3,0.1-0.7,0.2-1.1,0.2
				c-0.4,0.1-0.8,0-1.2,0c-0.4,0-0.9,0-1.3-0.1c-0.4-0.1-0.9-0.2-1.3-0.3c-0.4-0.2-0.8-0.3-1.3-0.5c-0.4-0.1-0.8-0.4-1.2-0.6
				c-0.7-0.4-1.4-0.9-1.9-1.4c-0.5-0.4-0.8-0.9-1.1-1.2C676.8,795.1,676.6,794.9,676.6,794.9z"/>
		</g>
		<g id="XMLID_1102_">
			<path id="XMLID_1103_" class="st2" d="M681.5,790.9c0,0,0.4-0.3,1.1-0.6c0.2-0.1,0.3-0.1,0.5-0.2c0.2-0.1,0.4-0.2,0.5-0.3
				c0.4-0.2,0.7-0.3,1.1-0.4c0.4-0.2,0.8-0.3,1.2-0.4c0.2-0.1,0.4-0.1,0.6-0.2c0.2-0.1,0.4-0.1,0.5-0.2c0.7-0.2,1.2-0.2,1.2-0.2
				s-0.2,0.5-0.7,1.1c-0.2,0.3-0.6,0.6-1,0.8c-0.4,0.3-0.8,0.5-1.3,0.7c-0.5,0.1-1,0.3-1.5,0.3c-0.5,0.1-0.9,0-1.2-0.1
				C682,791.2,681.5,790.9,681.5,790.9z"/>
		</g>
		<g id="XMLID_1100_">
			<path id="XMLID_1101_" class="st2" d="M671.2,509.1c0,0,0.1,0.6,0.3,1.7c0.2,1.1,0.4,2.6,0.7,4.4c0.5,3.6,1,8.5,1.4,13.3
				c0.4,4.8,0.6,9.7,0.6,13.4c0,1.8,0,3.4,0,4.4c0,1.1,0,1.7,0,1.7s-0.1-0.6-0.3-1.6c-0.2-1.1-0.4-2.6-0.7-4.4
				c-0.5-3.6-1-8.5-1.4-13.3c-0.4-4.8-0.6-9.7-0.6-13.4c0-1.8,0-3.4,0-4.4C671.2,509.7,671.2,509.1,671.2,509.1z"/>
		</g>
		<g id="XMLID_1098_">
			<path id="XMLID_1099_" class="st2" d="M677.1,506.7c0,0,0.1,0.4,0.3,1.2c0.2,0.8,0.4,1.9,0.7,3.2c0.3,1.3,0.6,2.9,0.8,4.6
				c0.2,1.7,0.4,3.5,0.4,5.4c0,1.8-0.1,3.7-0.5,5.4c-0.1,0.9-0.5,1.7-0.8,2.4c-0.4,0.7-0.7,1.4-1.1,2c-0.4,0.6-0.8,1.1-1.3,1.4
				c-0.5,0.4-0.8,0.7-1.2,0.8c-0.7,0.3-1.2,0.5-1.2,0.5s0.4-0.3,1-0.8c0.3-0.2,0.6-0.6,1-1c0.4-0.4,0.6-0.9,0.9-1.5
				c0.3-0.5,0.5-1.2,0.8-1.9c0.2-0.7,0.4-1.5,0.5-2.3c0.2-0.8,0.2-1.6,0.2-2.5c0-0.9,0.1-1.7,0-2.6c0-1.8-0.1-3.6-0.2-5.2
				c-0.1-1.7-0.2-3.3-0.3-4.6c-0.1-1.4,0-2.5-0.1-3.3C677.1,507.1,677.1,506.7,677.1,506.7z"/>
		</g>
		<g id="XMLID_1092_">
			<path id="XMLID_1093_" class="st8" d="M750.7,467.8c0,0,0-0.2,0.1-0.6c0.1-0.4,0.3-0.9,0.7-1.5c0.4-0.5,0.9-1.2,1.5-1.7
				c0.6-0.6,1.4-1,2.2-1.4c0.4-0.2,0.8-0.4,1.2-0.5c0.4-0.2,0.8-0.2,1.3-0.3c0.8-0.1,1.6-0.2,2.3,0c0.3,0,0.6,0.1,0.9,0.2
				c0.3,0.1,0.5,0.2,0.6,0.3c0.3,0.2,0.5,0.3,0.5,0.3s-0.2,0-0.6,0c-0.4,0-0.9,0-1.5,0.2c-0.3,0-0.6,0.1-0.9,0.2
				c-0.3,0.1-0.7,0.2-1,0.3c-0.7,0.3-1.4,0.5-2.1,0.9c-1.4,0.7-2.8,1.5-3.7,2.2c-0.5,0.4-0.8,0.7-1.1,0.9
				C750.8,467.7,750.7,467.8,750.7,467.8z"/>
		</g>
		<g id="XMLID_1090_">
			<path id="XMLID_1091_" class="st8" d="M723.6,419c0,0-0.3-1.6-0.5-4c-0.2-2.4-0.3-5.5-0.3-8.7c0-3.2,0.2-6.3,0.5-8.7
				c0.2-2.4,0.5-3.9,0.5-3.9s0.3,1.6,0.5,4c0.2,2.4,0.3,5.5,0.3,8.7c0,3.2-0.2,6.3-0.5,8.7C723.9,417.4,723.6,419,723.6,419z"/>
		</g>
		<g id="XMLID_1088_">
			<path id="XMLID_1089_" class="st8" d="M635.3,415.8c0,0-0.2-1.2-0.2-3c-0.1-1.8,0-4.2,0.2-6.6c0.3-2.4,0.8-4.8,1.2-6.6
				c0.4-1.8,0.9-2.9,0.9-2.9s0.1,1.2,0.1,3.1c0,1.8-0.2,4.2-0.5,6.6c-0.2,2.4-0.6,4.8-0.9,6.6C635.7,414.6,635.3,415.8,635.3,415.8z
				"/>
		</g>
		<g id="XMLID_1086_">
			<path id="XMLID_1087_" class="st13" d="M576.4,398.3c4,0,8.7,0.3,13-2c4.9,16.6,10.7,34,14.5,51.2c1.2,5.8,2.9,13.4,0.3,18.9
				c-2.3,4.9-7.6,12.8-14,8.4c-4.1-3.2-4.9-12.5-6.1-17.2c-1.7-7-2.6-13.7-3.2-20.6c-0.6-6.7-1.1-13.4-2-20.1
				c-0.6-5.2-0.6-12.8-2.6-17.4V398.3z"/>
		</g>
		<g id="XMLID_1084_">
			<path id="XMLID_1085_" class="st8" d="M578.3,411c0,0,0.3,0,0.7,0c0.4,0,1.1,0,1.8,0c0.4,0,0.7,0,1.1,0c0.4,0,0.8-0.1,1.3-0.1
				c0.4,0,0.9-0.1,1.3-0.2c0.4-0.1,0.9-0.1,1.3-0.2c0.4-0.1,0.9-0.2,1.3-0.4c0.4-0.1,0.8-0.3,1.2-0.5c0.4-0.1,0.8-0.3,1.1-0.5
				c0.4-0.2,0.7-0.3,1-0.5c0.3-0.1,0.6-0.3,0.9-0.5c0.3-0.1,0.5-0.3,0.7-0.4c0.4-0.2,0.6-0.3,0.6-0.3s-0.1,0.2-0.4,0.6
				c-0.1,0.2-0.3,0.4-0.5,0.6c-0.2,0.2-0.4,0.5-0.7,0.8c-0.3,0.3-0.6,0.5-0.9,0.8c-0.3,0.3-0.7,0.6-1.2,0.8
				c-0.4,0.2-0.9,0.5-1.3,0.7c-0.5,0.2-1,0.3-1.5,0.5c-0.5,0.1-1,0.1-1.5,0.2c-0.5,0.1-1,0-1.5,0c-0.5,0-0.9,0-1.4-0.1
				c-0.4-0.1-0.8-0.2-1.2-0.3c-0.7-0.2-1.3-0.5-1.7-0.6C578.5,411.1,578.3,411,578.3,411z"/>
		</g>
		<g id="XMLID_1082_">
			<path id="XMLID_1083_" class="st8" d="M730.9,506.7c0,0,0.3,0,0.9,0.1c0.6,0.1,1.4,0.2,2.3,0.5c0.5,0.1,1,0.3,1.5,0.5
				c0.5,0.2,1.1,0.4,1.7,0.7c0.6,0.3,1.1,0.7,1.7,1c0.5,0.4,1.1,0.9,1.5,1.4c0.5,0.5,0.9,1.1,1.2,1.7c0.4,0.6,0.5,1.3,0.7,1.9
				c0.2,0.6,0.3,1.2,0.3,1.8c0.1,0.6,0.1,1.1,0,1.6c-0.1,2-0.4,3.3-0.4,3.3s-0.1-0.3-0.2-0.9c-0.1-0.6-0.2-1.3-0.4-2.3
				c-0.1-0.5-0.2-1-0.3-1.5c-0.1-0.5-0.3-1-0.5-1.6c-0.2-0.5-0.5-1-0.7-1.5c-0.3-0.5-0.6-1-1-1.4c-0.4-0.5-0.8-0.8-1.3-1.2
				c-0.5-0.3-0.9-0.8-1.4-1c-1-0.6-1.9-1.2-2.8-1.6c-0.8-0.4-1.6-0.8-2.1-1.1C731.2,506.8,730.9,506.7,730.9,506.7z"/>
		</g>
		<g id="XMLID_1080_">
			<path id="XMLID_1081_" class="st1" d="M675.7,379.7c1.5,7.6-11.9,85.5-8.7,92.2c2.3,4.9,7.9,17.4,12.5,20.4
				c4.8-5.5,10-15.4,11.8-22.4c1.7-9-8.7-80-9.3-87.2c0-0.9,0-1.7-0.3-2.3L675.7,379.7z"/>
		</g>
		<g id="XMLID_1078_">
			<path id="XMLID_1079_" class="st8" d="M724.8,412.9C724.8,412.9,724.9,412.9,724.8,412.9c0.1-0.1,0.1-0.2,0.1-0.3
				c0.1-0.2,0.1-0.5,0.3-0.8c0.2-0.7,0.7-1.5,1.2-2.3c0.6-0.8,1.2-1.4,1.9-1.9c0.6-0.4,1.2-0.6,1.2-0.6s-0.1,0.5-0.4,1.2
				c-0.3,0.7-0.7,1.5-1.2,2.3c-0.6,0.8-1.2,1.4-1.8,1.9c-0.3,0.2-0.6,0.4-0.8,0.5C725.1,412.9,725,412.9,724.8,412.9
				C724.8,412.9,724.8,412.9,724.8,412.9z"/>
		</g>
		<g id="XMLID_1076_">
			<path id="XMLID_1077_" class="st8" d="M628.9,405.9c0,0,0.5,0.1,1.1,0.4c0.6,0.3,1.2,0.8,1.8,1.3c0.6,0.5,1.1,1.1,1.4,1.7
				c0.3,0.5,0.4,1,0.4,1s-0.5,0-1.1-0.3c-0.6-0.2-1.3-0.7-2-1.2c-0.6-0.6-1-1.3-1.3-1.8C628.9,406.4,628.9,405.9,628.9,405.9z"/>
		</g>
		<g id="XMLID_1064_">
			<path id="XMLID_1065_" class="st7" d="M664,499.7c0,4.8-0.1,7,0.5,12.4c6.1,0.1,26,0.3,26.4-0.7c0.4-1.1,0-11.2-0.1-11.9
				L664,499.7z"/>
		</g>
		<g id="XMLID_1062_">
			<path id="XMLID_1063_" class="st1" d="M679.7,369.6c-5.5-1.5-9.6,7.6-4.7,11.6c7.6,7,16-4.9,7.8-10.5L679.7,369.6z"/>
		</g>
		<g id="XMLID_1060_">
			<path id="XMLID_1061_" class="st15" d="M671.3,357.6c-3.5-0.9-8.7,5.2-9.6,9c-2,8.1,5.8,13.7,11.3,18c2.6-4.9,6.1-11,8.1-16.3
				c-7.3-0.3-9.9-2.1-9.6-10.2L671.3,357.6z"/>
		</g>
		<g id="XMLID_1056_">
			<path id="XMLID_1057_" class="st4" d="M716.9,517.4c2.6,2.4,6.3,0.7,8.7,3.7c2.8,3.2,5.8,7.4,6.7,11.7c1.3,6-1.3,12.1-5,16.8
				c-2.2,2.8-7.6,12.1-11.9,9.1c-5.4,3.4-6.9-3.3-3.7-6.7c-2.2,3.2-4.8,2.4-4.7-1.3c0-3.2,2.2-5.2,3.3-8c-0.7,1.5-3.5,5.2-5.8,3.5
				c-2.2-1.5,0.2-6.9,0.9-8.6c1.3-2.8,2.8-5.4,4.7-7.6c2-2.2,5.2-4.3,6.5-7.1L716.9,517.4z"/>
		</g>
		<g id="XMLID_1054_">
			<path id="XMLID_1055_" class="st0" d="M710,543.1c0,0,0.4-1.1,1.2-2.6c0.4-0.7,0.9-1.6,1.5-2.5c0.6-0.9,1.3-1.8,2-2.7
				c0.7-0.9,1.3-1.8,2-2.5c0.3-0.4,0.7-0.8,0.9-1.2c0.3-0.4,0.5-0.7,0.8-1.1c1-1.3,1.8-2.2,1.8-2.2s-0.3,1.1-1,2.7
				c-0.2,0.4-0.4,0.8-0.6,1.3c-0.2,0.5-0.5,0.9-0.8,1.3c-0.6,0.9-1.2,1.8-1.9,2.7c-0.7,0.9-1.4,1.7-2.1,2.5
				c-0.7,0.8-1.3,1.5-1.9,2.1C710.9,542.4,710,543.1,710,543.1z"/>
		</g>
		<g id="XMLID_1052_">
			<path id="XMLID_1053_" class="st0" d="M710.5,553.3c0,0,0.6-1.2,1.8-2.9c1.1-1.7,2.8-3.9,4.4-6c0.8-1.1,1.7-2.1,2.4-3.1
				c0.8-1,1.5-1.9,2.1-2.7c0.6-0.8,1.1-1.5,1.4-2c0.4-0.5,0.6-0.8,0.6-0.8s-0.1,0.3-0.3,0.9c-0.2,0.6-0.4,1.4-0.9,2.3
				c-0.4,0.9-1,2-1.7,3.1c-0.6,1.1-1.5,2.2-2.3,3.3c-0.9,1.1-1.7,2.1-2.6,3c-0.9,0.9-1.7,1.8-2.4,2.5
				C711.6,552.4,710.5,553.3,710.5,553.3z"/>
		</g>
		<g id="XMLID_1050_">
			<path id="XMLID_1051_" class="st0" d="M714.3,559.4c0,0,0.6-1,1.6-2.2c0.3-0.3,0.5-0.7,0.9-1c0.3-0.3,0.5-0.8,0.9-1.2
				c0.6-0.8,1.2-1.6,1.9-2.5c1.2-1.8,2.6-3.4,3.6-4.7c1.1-1.2,1.9-2,1.9-2s-0.4,1.1-1.1,2.5c-0.4,0.7-0.8,1.6-1.3,2.5
				c-0.5,0.9-1.1,1.8-1.8,2.7c-0.7,0.9-1.4,1.7-2.2,2.5c-0.4,0.4-0.7,0.8-1.1,1.1c-0.4,0.3-0.7,0.6-1.1,0.8
				C715.3,558.9,714.3,559.4,714.3,559.4z"/>
		</g>
		<circle id="XMLID_38_" class="st10" cx="663.9" cy="280.4" r="4.5"/>
		<circle id="XMLID_37_" class="st10" cx="697.8" cy="280.4" r="4.5"/>
		<path id="XMLID_36_" class="st5" d="M667.5,263.5c-0.3,0-0.7-0.1-0.9-0.4c-0.1-0.1-1.7-1.7-5.3-1.7c-3.7,0-5.8,1.7-5.8,1.8
			c-0.5,0.4-1.3,0.4-1.8-0.1s-0.4-1.3,0.1-1.8c0.1-0.1,2.8-2.4,7.5-2.4c4.8,0,7,2.4,7.1,2.5c0.5,0.5,0.4,1.3-0.1,1.8
			C668.1,263.4,667.8,263.5,667.5,263.5z"/>
		<path id="XMLID_35_" class="st5" d="M704.8,263.5c-0.3,0-0.7-0.1-0.9-0.4c-0.1-0.1-1.7-1.7-5.3-1.7c-3.7,0-5.8,1.7-5.8,1.8
			c-0.5,0.4-1.3,0.4-1.8-0.1s-0.4-1.3,0.1-1.8c0.1-0.1,2.8-2.4,7.5-2.4c4.8,0,7,2.4,7.1,2.5c0.5,0.5,0.4,1.3-0.1,1.8
			C705.4,263.4,705.1,263.5,704.8,263.5z"/>
		<path id="XMLID_34_" class="st11" d="M681.2,323.5c-0.4,0-0.7,0-1.1-0.1c-4-0.4-6.8-3.4-7-3.5c-0.5-0.5-0.5-1.3,0-1.8
			c0.5-0.5,1.3-0.5,1.8,0c0,0,2.4,2.4,5.3,2.7c4.8,0.4,7-2.8,7.1-3c0.4-0.6,1.2-0.8,1.8-0.4c0.6,0.4,0.8,1.2,0.4,1.7
			C689.4,319.5,686.7,323.5,681.2,323.5z"/>
		<path id="XMLID_33_" class="st0" d="M720.3,303.2c-0.8-9.2-5.7-17.9-5.7-27.1c0-9.5,1.1-17.9-1.1-27.8c-1.5-7.6-4.6-16.4-11.1-21
			c-2.4-1.8-5.1-3.2-7.9-4.2c6.9,11.1,10.9,24,10.9,37.8c0,2.5-0.1,5-0.4,7.4c5.2,7.8,8.3,17.5,8.3,28.1c0,22.1-13.7,40.6-32.1,45.7
			v26.7c0.6-0.1,1.3-0.1,1.8-0.3c5.7-0.8,5.2,5.2,5.6-0.1c0.4-6.9-1.9-18.3-1.1-25.2C707.7,340.9,722.2,324.1,720.3,303.2z"/>
		<g id="XMLID_1146_">
			<path id="XMLID_1147_" class="st5" d="M645.2,230.1c-8.4,1.1-14.1,3.4-19.4,12.6c-4.2,8-4.6,17.9-3.4,26.7
				c1.1,7.2,4.2,17.9,8.8,23.3c8.4,10.3,7.2-11.1,6.9-16.4c-0.4-3.8-0.8-7.6-2.3-11.1c12.6-0.8,16.4-15.6,16-26.3
				c6.9-0.8,14.1,2.7,21.4,2.7c8.4,0,16-1.9,23.6-5.3c3.4-1.5,6.1-3.8,9.5-5.7c3.8-2.3,7.2-1.5,11.1-3.4c2.3-1.5,6.9-5.7,5.7-8.8
				c-1.1-3.4-7.2-1.9-10.3-0.8c2.7-2.3,6.1-8.4,2.7-11.1c-4.6-3.8-7.6,4.2-10.3,6.9c-2.7-5.3-9.9-3.1-14.1-0.8
				c-6.5,3.4-9.5,4.6-17.5,4.2c-13.7-0.4-23.3-1.5-27.5,13.7L645.2,230.1z"/>
		</g>
		<g id="XMLID_1066_">
			<path id="XMLID_1067_" class="st5" d="M700.1,306.5c-23.7,5.3-42.3-0.6-42.3-0.6c-1.7,5.8-2.5,13.7-2.5,19.8
				c0,8.1,2.3,11.8,9.3,16.2c9,5.5,33,4.5,37.2-5.7C704.3,330.2,703.5,305.7,700.1,306.5z M700.1,327.3c-0.5,6.2-6.6,9.7-14,9.7
				c-1.5-2.3,0-5.9-1.6-9c-0.3,0.6-1.9,2.3-1.9,3.1c-0.3-0.6-1.7-2-2-2.6h-0.3c-0.3,0.9-0.9,1.7-1.2,2.9c-0.6-0.9-2.3-2-2.9-2.9
				c-0.3,2.3-0.5,5.3-0.5,7.6v0.8c-4.9,0-13.6-1.8-15.6-6.7c-1.7-4.7-0.7-15.6,1.3-20c5.5,1.7,12.8,3.4,18.6,3.4
				c4.4,0,17.6-3,18.3-3.1C699.9,310.3,700.4,323.9,700.1,327.3z"/>
		</g>
		<g id="XMLID_1058_">
			<path id="XMLID_1059_" class="st15" d="M688.6,357.6c3.5-0.9,8.7,5.2,9.6,9c2,8.1-5.8,13.7-11.3,18c-2.6-4.9-6.1-11-8.1-16.3
				c7.3-0.3,9.5-3,9.2-10.8L688.6,357.6z"/>
		</g>
	</g>
	<g id="XMLID_27_">
		<g id="XMLID_1289_">
			<path id="XMLID_1290_" class="st5" d="M856.8,185.1c-7.9,4.9-14.4,11.8-15,20.2c-0.9,9.5,0.9,18.7,2.2,27.8
				c1.7,10.8,3.9,20.8-2.2,29.1c-7.4,9.1-10.8,15.6-3.5,26c-7.4-0.4-23,0.4-11.3,11.3c-5.2-1.7-13-4.3-18.2-1.3
				c-6.9,4.3-4.3,12.2,2.6,14.3c-13.9,2.2-9.1,15.6,3.5,13.5c-3,8.7,7.4,16.1,15.2,11.3c-3,10,10,22.1,16.1,10.9
				c6.5,6.9,17.4,10.4,23,1.3c6.9,7.4,26.5,13.9,25.6-2.6c6.1,4.3,34.3,14.8,33.4-0.9c7.4,1.3,14.3,5.2,21.3,0.4
				c4.8-3.9,6.9-10.4,2.6-15.6c18.7-3,6.1-32.1-4.8-22.6c5.6-7.8,2.8-26.5-8-15.2c6.9-4.3,10.6-23-1.5-16.1l0,0l0,0
				c15.2-3.5,0-21.5-0.9-29.3c-1.3-10.9,0.4-22.5,0.4-33.3c0-10.8-2.2-27.3-12.6-33.8c-12.2-7.6-34.9-6.1-48.5-3.2
				C869.4,178.8,862.7,181.4,856.8,185.1z"/>
		</g>
		<g id="XMLID_1287_">
			<path id="XMLID_1288_" class="st16" d="M845.4,267.2c-9.4,4.5-1.8,18.7,3.6,24.5l0,0c-7.1,0-29.8,2.2-15.1,13.8
				c-15.1-4.5-19.6,10.7-3.1,11.6c-13.4,10.2,12,34.3,15.6,15.6c-0.4,19.6,36.1,19.2,33.4-2.7c9.4,10.7,32.5,13.4,37.9-2.2
				c4.5,14.7,26.3,4,16-9.8c8,5.3,11.1-18.3-0.4-22.3c6.2-6.7,5.3-15.6,0-22.3c-2.7-3.1-12.9-10.2-11.1-1.3
				c9.8-13.8-38.3-21.8-47.2-4.9c-6.2-9.4-20-8-26.3,0.4L845.4,267.2z"/>
		</g>
		<g id="XMLID_1279_">
			<g id="XMLID_1284_">
				<path id="XMLID_1286_" class="st5" d="M859.6,775.4c-2.7,2.7-6.1,5.2-9.3,7.5c-2.3,1.8-5,3-8.1,2c-1.8-0.6-2.8-1.9-3.6-3.3
					c-7.6,6-13.4,10.5-9.9,11.5c8.2,4.3,20-0.9,26.5-5.6c2.2-1.7,8.7-9.5,11.3-9.1c3,0.5,3.9,6.1,4.3,8.4c0.1,0.7,0,3.2,1.2,3.2
					c1.1,0,1.4-3.1,1.5-4c0.2-1.3,0.3-2.7,0.5-4c0.2-2.3,0.2-4.7,0.8-6.9c0.9-3.7-0.3-7-0.8-10.6c-3,2.3-6.2,4-9.5,6.1
					C862.4,771.9,861.2,773.7,859.6,775.4z"/>
			</g>
			<g id="XMLID_1280_">
				<path id="XMLID_1282_" class="st17" d="M874.2,756.2c0.3-7.4,0-14.8-0.2-22.2l-10.2,3.8c-0.8,9.3,0.6,16-4.4,24.1
					c-4.1,6.6-13.4,13.8-20.9,19.7c0.8,1.4,1.9,2.6,3.6,3.3c3,1.1,5.8-0.2,8.1-2c3.2-2.3,6.5-4.7,9.3-7.5c1.5-1.7,2.7-3.5,4.7-4.9
					c3.3-2.1,6.5-3.8,9.5-6.1c-0.1-0.7-0.2-1.4-0.2-2.1C873.6,760.1,874.2,758.3,874.2,756.2z"/>
			</g>
		</g>
		<g id="XMLID_1274_">
			<g id="XMLID_1277_">
				<path id="XMLID_1278_" class="st5" d="M912.5,775.4c2.7,2.7,6.1,5.2,9.3,7.5c2.3,1.8,5,3,8.1,2c1.8-0.6,2.8-1.9,3.6-3.3
					c7.6,6,13.4,10.5,9.9,11.5c-8.2,4.3-20-0.9-26.5-5.6c-2.2-1.7-8.7-9.5-11.3-9.1c-3,0.5-3.9,6.1-4.3,8.4c-0.1,0.7,0,3.2-1.2,3.2
					c-1.1,0-1.4-3.1-1.5-4c-0.2-1.3-0.3-2.7-0.5-4c-0.2-2.3-0.2-4.7-0.8-6.9c-0.9-3.7,0.3-7,0.8-10.6c3,2.3,6.2,4,9.5,6.1
					C909.8,771.9,911,773.7,912.5,775.4z"/>
			</g>
			<g id="XMLID_1275_">
				<path id="XMLID_1276_" class="st17" d="M897.9,756.2c-0.3-7.4,0-14.8,0.2-22.2l10.2,3.8c0.8,9.3-0.6,16,4.4,24.1
					c4.1,6.6,13.4,13.8,20.9,19.7c-0.8,1.4-1.9,2.6-3.6,3.3c-3,1.1-5.8-0.2-8.1-2c-3.2-2.3-6.5-4.7-9.3-7.5
					c-1.5-1.7-2.7-3.5-4.7-4.9c-3.3-2.1-6.5-3.8-9.5-6.1c0.1-0.7,0.2-1.4,0.2-2.1C898.6,760.1,898,758.3,897.9,756.2z"/>
			</g>
		</g>
		<g id="XMLID_1272_">
			<path id="XMLID_1273_" class="st17" d="M814.4,496.1c2.6,11,7.4,23,14.3,32.1c2.2-10-1.3-21.1-1.3-32.1H814.4z"/>
		</g>
		<g id="XMLID_1270_">
			<path id="XMLID_1271_" class="st17" d="M972,364.6c0-5.6,2.2-13.9-0.9-18.2c-1.7-3.9-3.9-6.9-4.3-11.3c-0.9-5.2,1.7-10,1.3-14.8
				c-0.4-3.5-9.5-27.3,1.7-27.3c4.3,0,4.4,11.3,5.3,14.3c1.3,5.6-1,6.9,2.9,10.4c7.4,6.5,20.3,8.9,18.5,18.9
				c-1.3,5.2-12,17.1-13.8,21.5c-2.2,3.9-0.9,11.7-2.6,14.3L972,364.6z"/>
		</g>
		<g id="XMLID_1268_">
			<path id="XMLID_1269_" class="st18" d="M991.5,313.6c-0.6-0.5-1.2-0.9-1.9-1.2c-5.2-2.6-12.8-2.8-15.7,3.2
				c-0.8,1.6-1.5,3.8-1.6,5.6c-0.1,1.8,0,4.2,1,5.8c0.4,0.7,1.3,0.8,1.7,1.3c0.3,0.5,0.2,2,0.2,2.6c0.1,1.4,0.5,4.5,2.6,4.3
				c0.1,0.9-0.3,1.9-0.3,2.9c0,1.2,0.1,2.3,0.3,3.4c0.2,0.9,0.4,2,1.2,2.5c0.3,0.2,0.9,0.1,1.2,0.2c0.4,0.3,0.1,0.4,0.2,0.9
				c0.1,1,0.5,1.6,1.6,1.9c1.4,0.4,2.1-0.1,2.8-1.2c1-1.7,1.9-3.9,4.1-4.1c1.6-0.2,2.6,0.8,4-0.4c1.3-1,2.3-2.6,3.2-4
				c1.4-2,1.5-4.5,1.6-6.9C998,324.5,996.3,317.5,991.5,313.6z"/>
		</g>
		<g id="XMLID_1266_">
			<path id="XMLID_1267_" class="st19" d="M977.9,335.2c0,0,0.1,0.4,0.1,1c0,0.3,0,0.7,0,1.2c0,0.2,0,0.4,0,0.7
				c0,0.2,0.1,0.5,0.1,0.7c0.1,0.5,0.2,1.1,0.3,1.8c0,0.3,0.1,0.7,0.1,0.9c0.1,0.3,0.1,0.6,0.2,0.9c0.2,0.5,0.5,0.9,0.9,0.9
				c0,0,0.1,0,0.1,0l0.3,0c0.1,0,0.4,0.1,0.6,0.2l0.1,0l0,0l0.1,0.1l0,0l0.1,0.1c0-0.1,0.4,0.5,0.3,0.9c0,0.1-0.1,0.3,0,0.3
				c0,0,0,0.1,0,0l0.1,0.3c0.1,0.5,0.2,0.4,0.2,0.6c0.1,0.1,0.1,0.1,0.2,0.2c0.1,0,0.2,0.1,0.3,0.1c0.6,0.2,1,0.2,1.3,0
				c0.4-0.2,0.7-0.7,1.1-1.2c0.3-0.5,0.7-1,1-1.5c0.4-0.5,0.8-0.8,1.1-1.1c0.2-0.1,0.4-0.2,0.6-0.4c0.2-0.1,0.4-0.1,0.5-0.2
				c0.3-0.1,0.6-0.1,0.8-0.1c0.2,0,0.3,0,0.3,0s-0.1,0-0.2,0.1c-0.2,0.1-0.4,0.1-0.6,0.3c-0.1,0.1-0.3,0.2-0.4,0.3
				c-0.1,0.1-0.3,0.3-0.4,0.4c-0.3,0.3-0.5,0.7-0.8,1.2c-0.2,0.5-0.5,1-0.8,1.6c-0.3,0.5-0.5,1.3-1.3,1.9c-0.8,0.6-2,0.6-2.7,0.3
				l-0.7-0.3c-0.2-0.1-0.4-0.3-0.6-0.5c-0.4-0.4-0.7-1.1-0.7-1.4l0-0.3c0-0.3,0-0.4,0-0.6c0-0.2,0-0.2,0-0.2c0,0.1,0,0.2,0.1,0.3
				c0,0,0.1,0.1,0.1,0.1l0-0.1l-0.1-0.1l0-0.1l0,0c0.1,0.1-0.1-0.1,0.1,0.1l0,0l0,0c0,0,0.2,0,0.1,0l-0.2,0l-0.4-0.1
				c-1.1-0.3-1.6-1.3-1.8-2.1c-0.1-0.4-0.2-0.8-0.2-1.1c0-0.5,0-0.7,0-1c0-0.6,0-1.2,0-1.8c0-0.3,0-0.6,0-0.8
				c0.1-0.3,0.1-0.5,0.1-0.8c0.1-0.4,0.2-0.8,0.3-1.1c0.1-0.3,0.1-0.6,0.2-0.7C977.9,335.3,977.9,335.2,977.9,335.2z"/>
		</g>
		<g id="XMLID_1264_">
			<path id="XMLID_1265_" class="st19" d="M975.6,313.1c0,0-0.2,0.3-0.6,0.9c-0.2,0.3-0.3,0.7-0.5,1.1c-0.2,0.4-0.3,0.9-0.5,1.5
				c-0.2,0.6-0.3,1.2-0.5,1.8c-0.1,0.6-0.3,1.3-0.3,2c-0.1,0.6,0,1.4,0,2.2c0.1,0.7,0.1,1.5,0.3,2.1c0.1,0.4,0.1,0.7,0.3,1l0.2,0.5
				l0.1,0.2l0,0.1l0,0l0,0c0-0.1,0.1,0.1-0.1-0.1l0,0l0.1,0.1c0.1,0.1,0.3,0.3,0.3,0.3c0.1,0,0.1,0.1,0.3,0.2c0.3,0.2,1,0.6,1.1,1.2
				c0,0.2,0.1,0.3,0.1,0.5l0,0.3c0,0.2,0,0.4,0,0.6c0,0.4,0,0.7-0.1,1c0,0.6,0,1.2,0.1,1.8c0.1,1.1,0.5,2,1,2.4c0.5,0.4,1,0.4,1,0.4
				c0,0-0.4,0.2-1.1-0.1c-0.7-0.3-1.4-1.3-1.8-2.5c-0.2-0.6-0.3-1.2-0.4-2c0-0.3-0.1-0.7-0.1-1l-0.1-0.5l0-0.2c0,0,0,0,0-0.1
				c0,0-0.1-0.3,0-0.1c0,0-0.1,0-0.1-0.1c0,0-0.2-0.1-0.3-0.2c-0.1,0-0.4-0.2-0.6-0.4c-0.3-0.2-0.3-0.3-0.5-0.5l-0.1-0.1l0,0
				c-0.2-0.3-0.1-0.1-0.1-0.1l0,0l0,0l0-0.1l-0.1-0.3l-0.3-0.6c-0.2-0.4-0.3-0.8-0.4-1.2c-0.2-0.8-0.2-1.7-0.3-2.5
				c0-0.8,0-1.5,0.2-2.4c0.1-0.8,0.4-1.5,0.6-2.2c0.3-0.7,0.5-1.3,0.8-1.8c0.3-0.5,0.5-1,0.9-1.4c0.3-0.4,0.5-0.8,0.8-1
				C975.3,313.4,975.6,313.1,975.6,313.1z"/>
		</g>
		<g id="XMLID_1262_">
			<path id="XMLID_1263_" class="st19" d="M980.2,346.4c0,0-0.1-0.3-0.2-0.8c-0.1-0.5-0.3-1.2-0.2-2.2c0-0.5,0-1,0.1-1.5
				c0.1-0.5,0.2-1.1,0.3-1.6c0.1-0.6,0.3-1.1,0.5-1.7c0.2-0.6,0.4-1.2,0.7-1.7c0.3-0.5,0.6-1.1,0.9-1.6c0.3-0.5,0.8-0.9,1.1-1.4
				c0.7-0.9,1.6-1.6,2.3-2.1c0.7-0.6,1.5-0.8,1.9-1.1c0.5-0.2,0.8-0.3,0.8-0.3s-0.2,0.2-0.6,0.6c-0.3,0.4-0.9,0.9-1.4,1.5
				c-0.3,0.3-0.6,0.7-0.9,1.1c-0.3,0.4-0.6,0.8-0.9,1.2c-0.3,0.4-0.6,0.9-0.9,1.4c-0.3,0.5-0.5,1-0.8,1.5c-0.3,0.5-0.5,1-0.7,1.5
				c-0.2,0.5-0.5,1-0.6,1.5c-0.2,0.5-0.4,1-0.5,1.5c-0.1,0.5-0.2,0.9-0.3,1.3c-0.1,0.4-0.2,0.8-0.3,1.2c-0.1,0.4-0.1,0.7-0.2,0.9
				C980.3,346.1,980.2,346.4,980.2,346.4z"/>
		</g>
		<g id="XMLID_1260_">
			<path id="XMLID_1261_" class="st19" d="M978,336.6c0,0,0-0.3-0.1-0.7c0-0.5-0.1-1.1,0.1-1.9c0.1-0.8,0.3-1.7,0.6-2.6
				c0.1-0.5,0.3-0.9,0.5-1.4c0.2-0.5,0.4-0.9,0.7-1.4c0.3-0.4,0.5-0.9,0.8-1.3c0.3-0.4,0.6-0.8,0.9-1.2c0.5-0.8,1.2-1.4,1.7-2
				c0.5-0.5,1.1-0.9,1.4-1.2c0.4-0.3,0.6-0.4,0.6-0.4s-0.1,0.2-0.3,0.6c-0.2,0.4-0.5,0.9-0.9,1.6c-0.3,0.7-0.8,1.4-1.2,2.2
				c-0.5,0.8-0.9,1.6-1.4,2.5c-0.3,0.4-0.5,0.9-0.7,1.3c-0.2,0.4-0.5,0.8-0.6,1.3c-0.4,0.8-0.8,1.6-1,2.3c-0.1,0.3-0.3,0.6-0.4,0.9
				c-0.1,0.3-0.2,0.5-0.3,0.8C978.1,336.4,978,336.6,978,336.6z"/>
		</g>
		<g id="XMLID_1258_">
			<path id="XMLID_1259_" class="st19" d="M975.2,329.6c0,0-0.2-1-0.2-2.4c0-1.5,0.2-3.5,1-5.4c0.2-0.5,0.5-0.9,0.7-1.4
				c0.3-0.4,0.6-0.8,0.9-1.2c0.7-0.7,1.5-1.2,2.2-1.5c0.3-0.2,0.7-0.2,1-0.3c0.3-0.1,0.6-0.1,0.8-0.1c0.4,0,0.7,0,0.7,0
				s-0.2,0.1-0.6,0.3c-0.2,0.1-0.4,0.2-0.6,0.4c-0.2,0.2-0.5,0.3-0.8,0.5c-1.1,0.8-2.1,2.2-2.8,3.8c-0.7,1.6-1.2,3.4-1.6,4.8
				C975.6,328.7,975.2,329.6,975.2,329.6z"/>
		</g>
		<g id="XMLID_1256_">
			<path id="XMLID_1257_" class="st19" d="M976.3,353.8c0,0-0.2-0.7-0.2-1.7c0-0.3,0-0.5,0-0.8c0-0.3-0.1-0.6-0.1-0.9
				c-0.1-0.6,0-1.2,0-1.8c-0.1-0.6-0.1-1.2-0.1-1.8c0-0.3,0-0.6,0-0.9c0-0.3-0.1-0.5-0.1-0.8c-0.1-1,0-1.7,0-1.7s0.5,0.5,0.9,1.5
				c0.1,0.2,0.3,0.5,0.4,0.8c0.1,0.3,0.2,0.6,0.3,0.9c0.1,0.6,0.2,1.3,0.3,2c0,0.7-0.1,1.4-0.2,2.1c0,0.3-0.1,0.6-0.2,0.9
				c-0.1,0.3-0.2,0.5-0.3,0.8C976.7,353.2,976.3,353.8,976.3,353.8z"/>
		</g>
		<g id="XMLID_1254_">
			<path id="XMLID_1255_" class="st13" d="M842.3,452.4c-0.8,3.1-1.5,6.3-2.1,9.4c-2.4,11.4-0.5,37.3-9.5,37.1
				c-3.3-0.1-10.9,0.9-13.8-1c-4.3-2.8-3.3-9-3.3-14.7c-0.9-12.4,1.9-22.3,4.3-34.7c1-4.3,1-9.5,1.9-14.3c0.9-3.3,2.4-6.7,3.3-10.5
				c0.5-1.9,1-5.7,1.4-7.1c3.3-6.2,5.2-7.1,6.2-14.7c1-7.1,1.4-13.8,1.9-20.9c1.4-14.3,5.7-29.9,9.5-43.7
				c3.8-14.3,7.6-17.6,21.4-19.5c5.4-0.6,30.4-1,37,0.1c7.2,1.2,13.6-0.9,20.5,1.9c9,3.7,15.2,26.1,17.2,31.8
				c5.7,16.3,4.9,13.7,8.1,21.5c2.6,6.3,9.1,17.5,13.3,22.8c5.7-15.3,6.1-25.8,9.7-39.6c2.4,3.3,5,4.6,7.8,6.4
				c2.8,1.8,7.6,2.6,10.7,3.6c0.6,6.7-14.9,63.6-22.4,63.3c-4.8-0.2-16.3-17.9-19.5-22.3c-5.3-7.6-22.3-33.7-24.7-37
				c0.1,9.3-1.7,22.5-0.5,31.8c1.2,9.2,4.7,18.6,7.2,27.1c1.9,6.5,5.6,16.9,2.7,23.8c-4.2,9.9-24.2,13.8-33.5,14.3
				c-15,0.7-29.6-7.2-42.4-13.3c-1.6-0.8-3-1.6-4.1-2.5L842.3,452.4z"/>
		</g>
		<g id="XMLID_1252_">
			<path id="XMLID_1253_" class="st8" d="M809.3,481.8c0,0,0.5,0.2,1.3,0.6c0.4,0.2,0.9,0.4,1.4,0.7c0.5,0.3,1.2,0.5,1.9,0.7
				c0.7,0.2,1.5,0.5,2.2,0.8c0.8,0.3,1.7,0.4,2.6,0.6c0.9,0.2,1.8,0.5,2.8,0.6c1,0.1,1.9,0.3,2.9,0.5c1,0.1,2,0.1,2.9,0.2
				c1,0.1,1.9,0.1,2.8,0.1c0.9,0,1.8,0.1,2.7,0c0.8-0.1,1.6-0.1,2.4-0.2c0.7,0,1.4-0.1,2-0.2c0.6-0.1,1.1-0.2,1.6-0.3
				c0.9-0.1,1.4-0.2,1.4-0.2s-0.5,0.2-1.3,0.5c-0.4,0.2-0.9,0.4-1.5,0.6c-0.3,0.1-0.6,0.2-0.9,0.3c-0.3,0.1-0.7,0.2-1.1,0.2
				c-0.7,0.2-1.6,0.3-2.4,0.5c-0.9,0.2-1.8,0.2-2.7,0.3c-1,0.1-2,0.2-3,0.1c-1-0.1-2-0.1-3.1-0.2c-1-0.2-2-0.4-3-0.5
				c-1-0.1-1.9-0.5-2.9-0.8c-0.9-0.3-1.8-0.6-2.6-0.9c-0.8-0.4-1.6-0.8-2.2-1.1c-0.7-0.3-1.3-0.7-1.8-1.1c-0.5-0.4-0.9-0.7-1.3-0.9
				C809.7,482.2,809.3,481.8,809.3,481.8z"/>
		</g>
		<g id="XMLID_1250_">
			<path id="XMLID_1251_" class="st20" d="M840.4,436.8c-5.5,18.4-16.9,36.4-15.8,56.6c0.4,6.6,1.1,12.9,1.1,19.8
				c0,9.2,3.7,16.5,5.1,25.3c3.3,18,7.1,26.8,9.3,44.8c1.5,11.4,1.3,13.6,2.4,25.3c0.4,5.5,0.7,25.7,1.1,31.2
				c0.4,6.2,2.2,16.2,2.6,22.4c3.9,19.9,10.5,40.8,11.4,61c0.1,2.4-0.9,3.4-1.2,5.5c-0.1,0.8-0.5,1.7-0.3,2.6
				c0.3,1.2,1.6,1.3,1.9,2.3c0.7,2.2-0.3,2.8-0.4,5c-0.2,10.4,17.6,8.6,22.6,4V588.1L876,507c0,0,5.6,1.5,9.4-1.5
				c3.8-2.9,3.7,128.6,3.7,128.6c0.7,24.8,1.5,49.5,2.2,74.3c0.2,6.5,0.4,12.9,0.6,19.4c0.1,1.9,0.1,3.8,0.2,5.7
				c0.4,5.8,5.9,8.7,11.5,10.1c3.2,0.8,11.4,2.3,13.9-0.5c1.4-1.5,0.8-4.1,0.8-6.2c0-1.8-1.3-4.6-1.1-5.9c0.3-2.1,2.3-3.6,2.2-6.3
				c0-2.2-0.6-7.1-1.5-9.2c0,0,12.1-65,4.4-96.3c0,0-2.2-9.9,6.2-38.9s25-101.8,2.2-134.5l-11.4-15.1L840.4,436.8z"/>
		</g>
		<g id="XMLID_1248_">
			<path id="XMLID_1249_" class="st5" d="M867.6,501.4c0,0,0.3,0.2,0.7,0.6c0.5,0.4,1.1,0.9,2,1.4c0.4,0.3,0.9,0.5,1.4,0.8
				c0.5,0.3,1.1,0.5,1.6,0.7c0.6,0.2,1.2,0.4,1.8,0.6c0.6,0.2,1.3,0.3,1.9,0.4c1.3,0.2,2.6,0.3,3.8,0.2c0.6-0.1,1.2-0.1,1.8-0.2
				c0.6-0.1,1.1-0.2,1.6-0.3c1-0.2,1.8-0.5,2.4-0.7c0.6-0.2,0.9-0.3,0.9-0.3s-0.3,0.2-0.7,0.6c-0.2,0.2-0.5,0.4-0.9,0.6
				c-0.4,0.2-0.8,0.5-1.3,0.7c-0.5,0.2-1,0.4-1.6,0.6c-0.6,0.2-1.2,0.3-1.9,0.4c-0.7,0.1-1.4,0.2-2.1,0.1c-0.7,0-1.4-0.1-2.2-0.2
				c-0.7-0.2-1.4-0.3-2.1-0.5c-0.7-0.2-1.3-0.5-1.9-0.8c-0.6-0.3-1.2-0.6-1.7-1c-0.5-0.4-1-0.7-1.3-1.1c-0.4-0.4-0.7-0.7-1-1.1
				c-0.3-0.3-0.5-0.6-0.6-0.9C867.8,501.7,867.6,501.4,867.6,501.4z"/>
		</g>
		<g id="XMLID_1246_">
			<path id="XMLID_1247_" class="st5" d="M879,498.9c0,0-0.1-0.5-0.2-1.3c-0.1-0.8-0.2-2.1-0.3-3.5c0-0.7-0.1-1.5-0.1-2.3
				c0-0.8-0.2-1.7-0.2-2.6c-0.1-1.8-0.2-3.7-0.3-5.6c-0.1-1.9-0.3-3.8-0.4-5.6c-0.1-0.9-0.1-1.8-0.1-2.6c-0.1-0.8-0.1-1.6-0.1-2.3
				c-0.1-1.4-0.1-2.7-0.1-3.5c0-0.9,0-1.3,0-1.3s0.1,0.5,0.3,1.3c0.2,0.8,0.5,2,0.8,3.4c0.3,1.4,0.6,3.1,0.8,4.9
				c0.2,1.8,0.4,3.7,0.6,5.7c0.1,1.9,0.1,3.9,0.1,5.7c0,1.8-0.1,3.5-0.2,5c-0.1,1.4-0.3,2.7-0.4,3.5
				C879.1,498.4,879,498.9,879,498.9z"/>
		</g>
		<g id="XMLID_1244_">
			<path id="XMLID_1245_" class="st5" d="M883.4,467.3c0,0,0.1,0.4,0.3,1.2c0.1,0.8,0.4,1.9,0.5,3.2c0.1,0.7,0.1,1.4,0.2,2.2
				c0.1,0.8,0,1.6,0,2.5c0,0.9,0,1.7-0.1,2.6c-0.1,0.9-0.2,1.8-0.3,2.7c-0.2,0.9-0.3,1.8-0.5,2.7c-0.1,0.9-0.4,1.7-0.6,2.6
				c-0.4,1.7-0.9,3.2-1.4,4.4c-0.4,1.3-1,2.3-1.3,3c-0.3,0.7-0.6,1.1-0.6,1.1s0.1-0.5,0.2-1.2c0.2-0.8,0.4-1.9,0.7-3.2
				c0.1-0.7,0.3-1.4,0.4-2.1c0.2-0.7,0.3-1.6,0.4-2.4c0.3-1.6,0.5-3.4,0.8-5.1c0.2-1.8,0.4-3.5,0.5-5.2c0-0.8,0.2-1.6,0.2-2.4
				c0-0.8,0.1-1.5,0.1-2.1c0.1-1.3,0.1-2.5,0.1-3.3C883.4,467.7,883.4,467.3,883.4,467.3z"/>
		</g>
		<g id="XMLID_1230_">
			<path id="XMLID_1231_" class="st17" d="M858.7,193.2c-0.4,9.5,5.7,17.8-2.2,26.5c-2.2,2.6-6,3.2-7.3,5.8
				c-0.9,2.2,0.4,9.2,0.4,11.4c0.9,5.2,1.7,10.6,1.7,15.3c-6.1,0-9.1-2.2-12.6,3.5c-2.6,4.3-2.2,11.3,0.4,15.6
				c3.5,6.9,12.5,5,12.6,6.1c0.4,4.4,4.7,10.6,7.8,13.9c5.5,5.9,12.9,12,19.4,14.2c2.7,0.9,1,4.8,1.9,14.2c0.6,5.9,1.8,0.9,8.2,2
				c10.9,2,7,0,7.9-7.2c0.2-1.8-0.2-5.1,0.3-8c18.2-2.6,30.4-13,31.2-32.6c7.4-0.9,13-3,14.8-11.3c2.2-8.2-2.6-15.2-11.3-14.3
				c-0.4-7.4,1.3-19.5-2.2-26c-2.2-4.3-6.1-5.6-7.8-11.7c-1.3-4.8-0.3-6.5-1.4-11.5c-11.7,3.5-22.7,7-36.7,6
				c-7-0.5-15.4,0.2-22.1-7.4L858.7,193.2z"/>
		</g>
		<g id="XMLID_1218_">
			<path id="XMLID_1219_" class="st8" d="M827.8,416.3c0,0,0.8,0,2,0.3c0.3,0.1,0.6,0.1,0.9,0.2c0.3,0.1,0.7,0.1,1,0.2
				c0.7,0.1,1.4,0.3,2.1,0.4c0.7,0.1,1.5,0.2,2.1,0.4c0.3,0.1,0.7,0.2,1,0.2c0.3,0,0.6,0.1,0.9,0.2c1.1,0.2,1.9,0.6,1.9,0.6
				s-0.8,0.3-1.9,0.4c-0.6,0.1-1.3,0.2-2,0.1c-0.7,0-1.5-0.1-2.3-0.2c-0.8-0.2-1.6-0.4-2.3-0.7c-0.3-0.1-0.7-0.2-1-0.4
				c-0.3-0.2-0.6-0.3-0.8-0.5C828.4,416.8,827.8,416.3,827.8,416.3z"/>
		</g>
		<g id="XMLID_1216_">
			<path id="XMLID_1217_" class="st8" d="M825.5,422.9c0,0,0.9-0.3,2.2-0.5c0.7-0.1,1.5-0.2,2.3-0.3c0.8-0.1,1.7-0.2,2.6-0.2
				c0.9-0.1,1.7-0.2,2.6-0.2c0.4,0,0.8,0,1.2-0.1c0.4,0,0.7-0.1,1.1-0.1c1.3-0.1,2.3,0,2.3,0s-0.8,0.5-2.1,1
				c-0.3,0.1-0.7,0.3-1.1,0.4c-0.4,0.2-0.8,0.2-1.2,0.3c-0.8,0.2-1.8,0.3-2.7,0.4c-1.8,0.1-3.7,0-5-0.2
				C826.4,423.2,825.5,422.9,825.5,422.9z"/>
		</g>
		<g id="XMLID_1209_">
			<path id="XMLID_1210_" class="st21" d="M884.9,331.7c1.5,6.6-3.3,16.2-4.8,22.8c-1.5,9.2,1.8,21.3,9.6,27.2
				c5.9-9.2,8.1-14.3,5.5-24.6c-2.2-8.8-4-17.6-6.2-26.5L884.9,331.7z"/>
		</g>
		<g id="XMLID_1207_">
			<path id="XMLID_1208_" class="st19" d="M853.3,282c0,0-0.6-1-1.3-2.7c-0.2-0.4-0.4-0.9-0.5-1.3c-0.1-0.5-0.3-1-0.4-1.6
				c-0.3-1.1-0.5-2.3-0.7-3.5c-0.1-1.2-0.2-2.4-0.3-3.5c-0.1-1.1,0-2.2,0-3.1c0.1-1.8,0.3-3,0.3-3s0.4,1.2,0.7,2.9
				c0.1,0.9,0.3,1.9,0.5,3c0.2,1.1,0.3,2.3,0.4,3.4c0,0.6,0.2,1.1,0.2,1.7c0.1,0.6,0.1,1.1,0.2,1.7c0.1,0.5,0.1,1.1,0.2,1.6
				c0.1,0.5,0.2,1,0.3,1.4C853.3,280.8,853.3,282,853.3,282z"/>
		</g>
		<g id="XMLID_1205_">
			<path id="XMLID_1206_" class="st19" d="M928.1,276.8c0,0,0-0.3,0-0.8c0-0.2,0-0.5,0-0.9c0-0.3,0-0.7,0-1.1c0-0.8,0-1.7,0-2.8
				c0-1,0-2.1,0-3.2c0-2.2,0-4.4,0.1-6c0.1-1.7,0.3-2.8,0.3-2.8s0.4,1.1,0.7,2.7c0.2,0.8,0.3,1.8,0.4,2.8c0.1,1,0.1,2.2,0.2,3.3
				c0,1.1,0,2.2-0.2,3.3c-0.1,1-0.3,2-0.5,2.9c-0.2,0.8-0.5,1.5-0.7,1.9C928.3,276.6,928.1,276.8,928.1,276.8z"/>
		</g>
		<g id="XMLID_1203_">
			<path id="XMLID_1204_" class="st7" d="M849.6,274.6c-0.8-0.3-1.7-0.4-2.5-0.1c-1.8,0.8-1.6,3.2-2.1,4.8c-0.7,2.5-0.5,5.8,0.7,8.3
				c2.8,6.1,6.1,2,6.3-2.4c0.1-2.7,1-6.9-0.7-9.3C850.9,275.4,850.3,274.9,849.6,274.6z"/>
		</g>
		<g id="XMLID_1196_">
			<g id="XMLID_1199_">
				<path id="XMLID_1200_" class="st1" d="M889.6,374.5c-0.2,0.3-0.5,0.7-0.7,1c-6.6-9.6-10-19.3-13.6-32.3
					c-2.8-10.3-2.6-16.4-4.8-26.7l-17.1,2.5c3.3,18.4,6.5,30.7,2.9,49.5c-0.7,4.4-4,9.2-6.6,13.2c-2.9,5.1-4,0.4-4,9.2
					c0,9.2,0,18-1.8,26.8c-1.5,6.6-6.6,17.3-5.1,23.5c1.1,7,9.6,16.5,14,22c4.4,5.9,14.3,17.3,20.9,12.5c7-5.1,11.4-17.3,13.6-25.3
					c0.1,0.1,0.1,0.1,0.2,0.2C887.9,427.1,891,398.1,889.6,374.5z"/>
			</g>
			<g id="XMLID_1197_">
				<path id="XMLID_1198_" class="st5" d="M931.5,435.3c-2.9-8.8-6.6-15.4-7-25c-0.4-7.3-0.7-14.3-1.1-21.3
					c-0.7-9.2-8.1-12.5-9.2-22.4c-2.2-16.2,0.8-30.8,1.2-50.2l-13.2-0.7l0,1.6c0,11-0.4,18-2.6,29c-1.4,8.4-4.6,20.6-10.1,28.1
					c1.4,23.6-1.7,52.7-2.4,76.1c6.2,8,10.2,17.1,18.2,24c4.8,4.4,6.6,3.3,11.4-1.5c3.3-3.7,6.2-8.4,8.8-12.9
					C930.1,452.6,934.8,443.8,931.5,435.3z"/>
			</g>
		</g>
		<g id="XMLID_1194_">
			<path id="XMLID_1195_" class="st1" d="M882.6,319c0.4,3.7-3.2,14.6,4.1,14.9c7,0.4,10.4-14.8,0.1-14.8L882.6,319z"/>
		</g>
		<g id="XMLID_1192_">
			<path id="XMLID_1193_" class="st8" d="M886.8,317.4c-5,0.9-12.4-4.5-13.4-1.6c-2,5.4,2.3,18.5,4.9,22.6c2.2-6.6,7.2-11,7.9-17.9
				L886.8,317.4z"/>
		</g>
		<g id="XMLID_1190_">
			<path id="XMLID_1191_" class="st8" d="M898.7,316.1c-1.8,1-8.2,2.3-11.9,1.9c0,5.1,5.4,18.7,10.2,20.9c1.8-9.2,4-14.8,4-22.8
				H898.7z"/>
		</g>
		<g id="XMLID_1188_">
			<path id="XMLID_1189_" class="st8" d="M958.8,395.6c0,0,0,0.3,0.1,0.8c0,0.5,0.1,1.2,0.1,2c-0.1,1.7-0.4,3.9-0.7,6
				c-0.1,0.5-0.1,1.1-0.2,1.6c-0.1,0.5-0.1,1-0.1,1.5c0,0.5-0.1,1-0.1,1.4c0,0.4,0,0.9,0,1.3c0,0.8,0.2,1.5,0.2,2
				c0,0.5,0.1,0.8,0.1,0.8s-0.1-0.2-0.4-0.7c-0.2-0.4-0.6-1.1-0.8-1.9c-0.1-0.4-0.2-0.9-0.3-1.4c-0.1-0.5-0.1-1-0.2-1.5
				c0-0.5-0.1-1.1,0-1.6c0.1-0.6,0.1-1.1,0.2-1.7c0.4-2.2,1-4.3,1.5-5.9c0.2-0.8,0.4-1.5,0.6-1.9
				C958.7,395.8,958.8,395.6,958.8,395.6z"/>
		</g>
		<g id="XMLID_1186_">
			<path id="XMLID_1187_" class="st8" d="M967.1,364.5c0,0,0.2,0.3,0.5,0.9c0.1,0.3,0.4,0.6,0.6,0.9c0.2,0.3,0.5,0.7,0.8,1.1
				c0.6,0.8,1.5,1.6,2.5,2.4c0.5,0.4,1,0.7,1.6,1.1c0.5,0.4,1.2,0.7,1.7,1c1.2,0.7,2.4,1.2,3.6,1.7c1.2,0.5,2.3,0.9,3.3,1.2
				c1,0.3,1.8,0.6,2.4,0.8c0.6,0.2,0.9,0.3,0.9,0.3s-0.4,0-1,0c-0.6,0-1.5,0-2.6-0.2c-1.1-0.1-2.3-0.4-3.6-0.8
				c-0.6-0.2-1.3-0.4-2-0.7c-0.7-0.3-1.3-0.6-2-0.9c-0.6-0.4-1.3-0.7-1.9-1.2c-0.6-0.4-1.1-0.9-1.7-1.3c-0.5-0.5-1-1-1.4-1.5
				c-0.4-0.5-0.7-1-1-1.5c-0.3-0.5-0.5-0.9-0.6-1.4c-0.2-0.4-0.3-0.8-0.3-1.1C967.1,364.8,967.1,364.5,967.1,364.5z"/>
		</g>
		<g id="XMLID_1184_">
			<path id="XMLID_1185_" class="st8" d="M919.8,370.4c0,0-0.2-1.3-0.3-3.1c-0.1-0.9-0.1-2,0-3.2c0.1-1.2,0.2-2.4,0.3-3.7
				c0.2-1.2,0.4-2.5,0.7-3.6c0.2-1.2,0.6-2.2,0.9-3.1c0.6-1.8,1.2-2.9,1.2-2.9s0,1.3-0.2,3.1c-0.1,0.9-0.3,2-0.4,3.2
				c-0.1,1.2-0.3,2.4-0.5,3.6c-0.1,0.6-0.2,1.2-0.3,1.8c-0.1,0.6-0.2,1.2-0.3,1.8c-0.2,1.1-0.4,2.2-0.5,3.1
				C920.2,369.1,919.8,370.4,919.8,370.4z"/>
		</g>
		<g id="XMLID_1182_">
			<path id="XMLID_1183_" class="st8" d="M845.5,384.9c0,0,0-0.4,0-1.2c0-0.8,0-1.9-0.1-3.1c0-0.6-0.1-1.3-0.1-2.1
				c0-0.7-0.1-1.5-0.1-2.3c-0.1-1.6-0.2-3.3-0.3-5c-0.2-3.4-0.4-6.9-0.3-9.5c0-1.3,0.1-2.4,0.1-3.1c0-0.8,0.1-1.2,0.1-1.2
				s0.1,0.4,0.2,1.2c0.1,0.7,0.3,1.8,0.5,3.1c0.4,2.6,0.8,6,1.1,9.4c0.1,1.7,0.2,3.5,0.1,5.1c0,1.6-0.1,3.2-0.3,4.5
				c-0.1,1.3-0.4,2.3-0.6,3.1C845.6,384.5,845.5,384.9,845.5,384.9z"/>
		</g>
		<g id="XMLID_1180_">
			<circle id="XMLID_1181_" class="st7" cx="884.9" cy="384.8" r="3.1"/>
		</g>
		<g id="XMLID_1178_">
			<circle id="XMLID_1179_" class="st7" cx="884.9" cy="407.4" r="3.1"/>
		</g>
		<g id="XMLID_1176_">
			<circle id="XMLID_1177_" class="st7" cx="883.1" cy="433.4" r="3.1"/>
		</g>
		<g id="XMLID_1174_">
			<path id="XMLID_1175_" class="st5" d="M846.1,408c0,0,0.1,0.3,0.2,0.9c0.1,0.6,0.4,1.3,0.7,2.1c0.2,0.4,0.4,0.9,0.6,1.3
				c0.2,0.5,0.6,0.9,0.8,1.4c0.6,0.9,1.4,1.9,2.2,2.8c0.8,0.9,1.7,1.7,2.6,2.4c0.9,0.7,1.8,1.3,2.6,1.8c0.8,0.5,1.5,0.9,2,1.2
				c0.5,0.3,0.8,0.4,0.8,0.4s-0.3,0-0.9-0.1c-0.6-0.1-1.4-0.3-2.3-0.6c-0.9-0.3-2-0.8-3-1.5c-0.5-0.3-1.1-0.7-1.6-1.1
				c-0.5-0.4-1-0.9-1.5-1.3c-0.4-0.5-0.9-1-1.3-1.5c-0.4-0.5-0.7-1.1-1-1.6c-0.3-0.6-0.5-1.1-0.7-1.7c-0.2-0.5-0.3-1.1-0.4-1.6
				c-0.1-0.5-0.1-0.9-0.1-1.4c0-0.4,0-0.8,0-1C846.1,408.3,846.1,408,846.1,408z"/>
		</g>
		<g id="XMLID_1172_">
			<path id="XMLID_1173_" class="st5" d="M845.7,418.4c0,0,0.7,0.6,1.6,1.7c0.9,1.1,1.9,2.6,2.9,4.1c0.9,1.6,1.7,3.2,2.2,4.5
				c0.5,1.3,0.7,2.2,0.7,2.2s-0.7-0.6-1.6-1.7c-0.9-1.1-1.9-2.6-2.9-4.1c-0.9-1.6-1.7-3.2-2.2-4.5
				C845.9,419.4,845.7,418.4,845.7,418.4z"/>
		</g>
		<g id="XMLID_1170_">
			<path id="XMLID_1171_" class="st2" d="M921.6,408c0,0-0.2,1-0.6,2.3c-0.2,0.7-0.5,1.5-1,2.2c-0.4,0.8-0.9,1.6-1.4,2.5
				c-1.1,1.5-2.3,3-3.4,4c-1,1-1.8,1.6-1.8,1.6s0.3-0.9,1-2.2c0.3-0.6,0.8-1.3,1.2-2.1c0.4-0.8,1-1.5,1.5-2.3c0.5-0.8,1-1.5,1.5-2.2
				c0.2-0.4,0.5-0.7,0.7-1c0.2-0.3,0.4-0.7,0.7-0.9C920.9,408.7,921.6,408,921.6,408z"/>
		</g>
		<g id="XMLID_1168_">
			<path id="XMLID_1169_" class="st1" d="M868,189.2c6.6,5.8,16.2,9.9,25.3,8.3c4-0.8,11.1-6.1,3.5-7.8c4.3,1.5,16.4-2,7.8-4.5
				c5.8,2,12.1-2,4.8-5.6c-3.3-1.5-7.3-2-10.6-1.8c-6.8,0.3-18.5,0.8-24.3,4.5c1,1,2,2,2.8,3c-2,1.5-5.6,2.3-8.1,3L868,189.2z"/>
		</g>
		<circle id="XMLID_32_" class="st10" cx="873.3" cy="244.7" r="4.5"/>
		<circle id="XMLID_31_" class="st10" cx="907.3" cy="244.7" r="4.5"/>
		<path id="XMLID_30_" class="st5" d="M877,227.9c-0.3,0-0.7-0.1-0.9-0.4c-0.1-0.1-1.7-1.7-5.3-1.7c-3.7,0-5.8,1.7-5.8,1.8
			c-0.5,0.4-1.3,0.4-1.8-0.1c-0.5-0.5-0.4-1.3,0.1-1.8c0.1-0.1,2.8-2.4,7.5-2.4c4.8,0,7,2.4,7.1,2.5c0.5,0.5,0.4,1.3-0.1,1.8
			C877.6,227.7,877.3,227.9,877,227.9z"/>
		<path id="XMLID_29_" class="st5" d="M914.2,227.9c-0.3,0-0.7-0.1-0.9-0.4c-0.1-0.1-1.7-1.7-5.3-1.7c-3.7,0-5.8,1.7-5.8,1.8
			c-0.5,0.4-1.3,0.4-1.8-0.1c-0.5-0.5-0.4-1.3,0.1-1.8c0.1-0.1,2.8-2.4,7.5-2.4c4.8,0,7,2.4,7.1,2.5c0.5,0.5,0.4,1.3-0.1,1.8
			C914.8,227.7,914.5,227.9,914.2,227.9z"/>
		<path id="XMLID_28_" class="st11" d="M889.1,287.8c-0.4,0-0.7,0-1.1-0.1c-4-0.4-6.8-3.4-7-3.5c-0.5-0.5-0.5-1.3,0-1.8
			c0.5-0.5,1.3-0.5,1.8,0c0,0,2.4,2.4,5.3,2.7c4.8,0.4,7-2.8,7.1-3c0.4-0.6,1.2-0.8,1.8-0.4c0.6,0.4,0.8,1.2,0.4,1.7
			C897.3,283.8,894.7,287.8,889.1,287.8z"/>
		<g id="XMLID_43_">
			<path id="XMLID_45_" class="st22" d="M932,248.4c-0.4-7.4,1.3-19.5-2.2-26c-2.2-4.3-6.1-5.6-7.8-11.7c-1.3-4.8-0.3-6.5-1.4-11.5
				c-2.8,0.8-5.6,1.7-8.4,2.5c7,13.7,11,29.8,11,47.1c0,20.9-5.9,40.1-15.7,55.3c12.4-4.6,20.3-14.4,21-30c7.4-0.9,13-3,14.8-11.3
				C945.5,254.5,940.7,247.5,932,248.4z"/>
		</g>
		<g id="XMLID_1201_">
			<path id="XMLID_1202_" class="st7" d="M930.8,272.9c0.8-0.3,1.7-0.4,2.5-0.1c1.8,0.8,1.6,3.2,2.1,4.8c0.7,2.5,0.5,5.8-0.7,8.3
				c-2.8,6.1-6.1,2-6.3-2.4c-0.1-2.7-1-6.9,0.7-9.3C929.4,273.7,930.1,273.2,930.8,272.9z"/>
		</g>
	</g>
	<path id="XMLID_50_" class="st0" d="M1148.6,266.2c-0.8-15-9.4-26.3-21.3-32.9c8.3,13.5,13.2,29.8,13.2,47.3
		c0,33.7-18,62.8-44.1,76.5v26.6c5.6,0.7,11.5-0.1,11-3.9c-0.3-2.9-1.1-17.4-2-22.1c8.2-2,11.8-3.1,17.3-6.7
		c6.8-4.4,11.7-11.1,15.2-18.3c3-6.7,5.8-14.1,6.7-21.3c0.7-6.6,2.4-12.7,3.6-19.3C1149.4,283.9,1149,274.6,1148.6,266.2z"/>
	<g id="XMLID_841_">
		<path id="XMLID_842_" class="st5" d="M1105.9,221.6c-7.2-5-9.9-5.6-15.4-6c-12.7-0.5-26.9,3.4-36.2,12.3
			c-9.3,8.6-14.9,20.6-18.1,32.6c-0.7,2.7-1.6,4.2-1.8,5.4c-0.1,1.2,28.6,15.2,31.7,12.5c1.6-1.3,7.9-14.9,10.7-18.2
			c3.6-4.8,8.8-11.3,15.4-11.1c4.8,0.2,10.4,3.8,13.6,7.1c4.9-4.1,6.9-10.2,14-11.4c5.5-0.6,10.3,1.1,13.8,5.5c6,7.8,7,20.5,5.9,30
			c6.1,0.1,26.3-7,28.1-7.9c1.6-0.8-0.4-4.7-1-8.2c-2.4-12.4-4.8-27.9-13.9-37.2c-6.5-6.5-15.3-10.5-24.2-10.9
			C1121.4,215.8,1114.6,215,1105.9,221.6L1105.9,221.6z"/>
	</g>
</g>
</svg>
