<?xml version="1.0" encoding="utf-8"?>
<!-- Generator: Adobe Illustrator 19.0.0, SVG Export Plug-In . SVG Version: 6.00 Build 0)  -->
<svg version="1.1" id="Calque_1" xmlns="http://www.w3.org/2000/svg" xmlns:xlink="http://www.w3.org/1999/xlink" x="0px" y="0px"
	 viewBox="0 0 1400 980" style="enable-background:new 0 0 1400 980;" xml:space="preserve">
<style type="text/css">
	.st0{fill:#C2C5C3;}
	.st1{fill:#42313E;}
	.st2{fill:#524253;}
	.st3{fill:#FFFFFF;stroke:#DADADA;stroke-miterlimit:10;}
	.st4{fill:#F7B58F;}
	.st5{fill:#59398E;}
	.st6{fill:#FFFFFF;}
	.st7{fill:#F5A673;}
	.st8{fill:#EE8E61;}
	.st9{fill:#191919;}
	.st10{fill:#23201D;}
</style>
<g id="XMLID_47_">
	<path id="XMLID_111_" class="st0" d="M794.4,784.1L794.4,784.1c-3.5,0-6.3-2.8-6.3-6.3V89.4c0-3.5,2.8-6.3,6.3-6.3l0,0
		c3.5,0,6.3,2.8,6.3,6.3v688.3C800.7,781.2,797.9,784.1,794.4,784.1z"/>
	<path id="XMLID_110_" class="st1" d="M802.5,858.3h-17.2c-2,0-3.7-1.7-3.7-3.7V750.5c0-2,1.7-3.7,3.7-3.7h17.2c2,0,3.7,1.7,3.7,3.7
		v104.1C806.1,856.7,804.5,858.3,802.5,858.3z"/>
	<path id="XMLID_109_" class="st1" d="M738.1,853.9v-17.2c0-2,1.7-3.7,3.7-3.7h104.1c2,0,3.7,1.7,3.7,3.7v17.2c0,2-1.7,3.7-3.7,3.7
		H741.8C739.8,857.6,738.1,855.9,738.1,853.9z"/>
	<path id="XMLID_108_" class="st2" d="M927.8,131.4H659.9c-3.7,0-6.7-2.8-6.7-6.3l0,0c0-3.5,3-6.3,6.7-6.3h267.8
		c3.7,0,6.7,2.8,6.7,6.3l0,0C934.5,128.5,931.5,131.4,927.8,131.4z"/>
	<path id="XMLID_107_" class="st2" d="M927.8,459.5H659.9c-3.7,0-6.7-2.8-6.7-6.3l0,0c0-3.5,3-6.3,6.7-6.3h267.8
		c3.7,0,6.7,2.8,6.7,6.3l0,0C934.5,456.6,931.5,459.5,927.8,459.5z"/>
	<rect id="XMLID_106_" x="659.9" y="131.4" class="st3" width="267.8" height="315.5"/>
	<path id="XMLID_101_" class="st4" d="M590,600.8c0,0,2.7,14,0,27.9c-2.7,14-22.9,167.5-21.5,184c1.3,16.4,4,24.6,17.5,31.2
		c13.5,6.6,16.2,12.3,0.7,13.1c-15.5,0.8-22.9,0-31.6-12.3l-6.1-7.4v14l-5.4,0.8c0,0-2-17.2-4-28.7c-2-11.5,12.8-22.2,10.1-37
		s-8.7-69-4-91.2c4.7-22.2,14.8-41.1,14.1-53.4c-0.7-12.3-3.4-41.1-3.4-41.1H590z"/>
	<path id="XMLID_100_" class="st4" d="M549,600.8c0,0-2.7,27.4-6.7,44.7s-28.2,123.1-32.9,147.3c-4.7,24.3-1.3,31.8-13.4,52.7
		c-12.1,20.9-25.5,26.9-25.5,0s24.2-37.1,22.8-55.9c-1.3-18.8,3.4-88.6,6-108.2c2.7-19.6,16.1-43.1,16.1-50.9
		c0-7.8-0.7-29.8-0.7-29.8H549z"/>
	<path id="XMLID_98_" class="st5" d="M613.9,478.3l-59.9,11v-0.1l-0.2,0.1l-0.2-0.1v0.1l-52.3-11c0,0-6.7,41.4,4.2,126.6
		c0,0,19.3,3.9,48,3.9v0c0.1,0,0.1,0,0.2,0s0.1,0,0.2,0v0c28.8,0,45.6-3.9,45.6-3.9C610.6,519.7,613.9,478.3,613.9,478.3z"/>
	<polygon id="XMLID_97_" class="st4" points="579.1,283.7 552.6,283.7 526.2,283.7 517.1,350.5 558.4,432.1 588.2,350.5 	"/>
	<rect id="XMLID_96_" x="533.6" y="258" class="st4" width="38.1" height="29.1"/>
	<path id="XMLID_95_" class="st6" d="M524.4,299.5c0,0,10.1,13.2,28.2,13.2c18.1,0,28.6-13.2,28.6-13.2v77.4l-22.9,53.8l-33.9-52.3
		V299.5z"/>
	<path id="XMLID_94_" class="st7" d="M533.6,265.1c4,2.3,10.6,5.2,19.1,5.2c8.4,0,15.1-2.9,19.1-5.2V254h-38.1V265.1z"/>
	<path id="XMLID_140_" class="st5" d="M610.6,231.1c6.3,9.4-16.4,18.5-11.8-6.8c4.6-25.3,5.7-40.6,0-62.6
		c-7.6-29.5-45.9-27.9-45.9-27.9s-16.5-1.3-23.7,5.7c0,0-15.2,0.5-22.3,22.2c-7.1,21.7-4.6,37.3,0,62.6c4.6,25.3-18.1,16.2-11.8,6.8
		c0,0-9.1,12,1,23.2c10.2,11.2,37.5,14.6,56.7,3.4c19.2,11.2,46.5,7.8,56.7-3.4C619.7,243.1,610.6,231.1,610.6,231.1z"/>
	<path id="XMLID_91_" class="st8" d="M508.7,196.2c0,0-10.1-4.2-9.7,5.7c0.4,9.9,9.7,17.5,9.7,17.5V196.2z"/>
	<path id="XMLID_89_" class="st8" d="M593.1,198c0,0,10.1-4.2,9.7,5.7c-0.4,9.9-9.7,17.5-9.7,17.5V198z"/>
	<path id="XMLID_88_" class="st4" d="M552.7,155.1c-2.3-0.1-33.2-0.8-44.5,19c0,0,2.2,40.3,3.4,49.4c2.8,21.4,23.4,41.5,41,41.7v0
		c0,0,0.1,0,0.1,0c0,0,0.1,0,0.1,0v0c17.6-0.2,38.1-20.3,41-41.7c1.2-9.1,3.4-49.4,3.4-49.4C585.9,154.3,555,155,552.7,155.1z"/>
	<circle id="XMLID_46_" class="st6" cx="504.3" cy="214.7" r="2.3"/>
	<circle id="XMLID_45_" class="st6" cx="597.2" cy="216.5" r="2.3"/>
	<path id="XMLID_44_" class="st5" d="M618.9,299.2l-47.2-23.6l-1.8,72.7l-11.5,83.9l-23-83.9l-1.8-72.7l-47.2,23.6
		c0,0,21.2,120.6,23.1,134c0.6,3.9-26.1,47.2-26.1,47.2l69.3,15.6l69.3-15.6c0,0-12.2-45.8-11.6-49.7
		C612.2,417.3,618.9,299.2,618.9,299.2z"/>
	<path id="XMLID_43_" class="st2" d="M533.6,274.1c0,0-11,3.9-11.1,6c-0.1,2.1-13.3,53.1-13,55.2c0.3,2.1,14.7,4.7,14.7,4.7
		s-7.6,7.3-7.3,8.5c0.3,1.2,41.6,82.2,41.6,82.2l-23-83.9L533.6,274.1z"/>
	<path id="XMLID_42_" class="st2" d="M571.7,274.1c0,0,11,3.9,11.1,6c0.1,2.1,13.3,53.1,13,55.2c-0.3,2.1-14.7,4.7-14.7,4.7
		s7.6,7.3,7.3,8.5c-0.3,1.2-30.1,82.2-30.1,82.2l11.5-83.9L571.7,274.1z"/>
	<path id="XMLID_41_" class="st5" d="M486.4,299.2c0,0-53.2,76.1-53.2,81.8c0,7.5,51.6,47,51.6,47l11.4-14c0,0-35.8-33.7-35.2-34.4
		c5.4-7,32.8-38.1,32.8-38.1L486.4,299.2z"/>
	<path id="XMLID_40_" class="st4" d="M495.2,415.3c0,0,6.1,6,9,5.1c1.9-0.6,14.1-9.7,16.2-9.8c2.2-0.1,11.7,2.9,13.6,3
		c2,0.2,2.8,3.2-2.9,2.8c-5.9-0.4-9.5-1.3-10-1.3c-0.6,0.1-5.5,2.6-5.5,2.6s6.2-0.7,7.3-0.3c1.2,0.4,10.9,7.4,12.3,10.1
		c1.3,2.7-6.3,11.7-10.5,10.4c-4.2-1.3-6-5.2-9.4-4.3c-3.4,0.9-8,3.6-11.9,2.9c-3.9-0.6-4.6-2.7-7.4-4.4c-2.8-1.7-8.6-5.3-8.6-5.3
		L495.2,415.3z"/>
	<polygon id="XMLID_39_" class="st2" points="503.8,412.5 492.2,398.9 482,410.9 486.4,418.6 478.6,415.1 471,423.2 486.8,432.5 	
		"/>
	<path id="XMLID_38_" class="st5" d="M548.9,837.3l6.1,7.4c8.7,12.3,16.2,13.1,31.6,12.3c15-0.8,12.9-6.3,0.4-12.6
		c-1.3,2.9-6.1,5.3-14.9,4c-12.8-2-25.6-26.4-25.6-34.4c0-3.7-1.5-4.9-3.2-5.1c-2.6,4.9-4.7,9.7-3.9,14.5c2,11.5,4,28.7,4,28.7
		l5.4-0.8V837.3z"/>
	<path id="XMLID_29_" class="st5" d="M496.5,844.6c-4.3,3-11.1,7-16.7,7c-5.5,0-7.8-7.4-8.7-13.4c-0.4,2.3-0.6,4.8-0.6,7.4
		c0,26.9,13.4,20.9,25.5,0C496.1,845.2,496.3,844.9,496.5,844.6z"/>
	<circle id="XMLID_222_" class="st9" cx="567.8" cy="207.9" r="4.5"/>
	<circle id="XMLID_221_" class="st9" cx="537.3" cy="207.9" r="4.5"/>
	<path id="XMLID_220_" class="st5" d="M574.2,195.7c-0.3,0-0.7-0.1-0.9-0.4c-0.1-0.1-1.7-1.7-5.3-1.7c-3.7,0-5.8,1.7-5.8,1.8
		c-0.5,0.4-1.3,0.4-1.8-0.1c-0.5-0.5-0.4-1.3,0.1-1.8c0.1-0.1,2.8-2.4,7.5-2.4c4.8,0,7,2.4,7.1,2.5c0.5,0.5,0.4,1.3-0.1,1.8
		C574.8,195.6,574.5,195.7,574.2,195.7z"/>
	<path id="XMLID_93_" class="st5" d="M543.7,195.7c-0.3,0-0.7-0.1-0.9-0.4c-0.1-0.1-1.7-1.7-5.3-1.7c-3.7,0-5.8,1.7-5.8,1.8
		c-0.5,0.4-1.3,0.4-1.8-0.1c-0.5-0.5-0.4-1.3,0.1-1.8c0.1-0.1,2.8-2.4,7.5-2.4c4.8,0,7,2.4,7.1,2.5c0.5,0.5,0.4,1.3-0.1,1.8
		C544.3,195.6,544,195.7,543.7,195.7z"/>
	<path id="XMLID_92_" class="st10" d="M552,248c-0.4,0-0.7,0-1.1-0.1c-4-0.4-6.8-3.4-7-3.5c-0.5-0.5-0.5-1.3,0-1.8
		c0.5-0.5,1.3-0.5,1.8,0c0,0,2.4,2.4,5.3,2.7c4.8,0.4,7-2.8,7.1-3c0.4-0.6,1.2-0.8,1.8-0.4c0.6,0.4,0.8,1.2,0.4,1.7
		C560.2,244,557.6,248,552,248z"/>
	<path id="XMLID_386_" class="st8" d="M588.1,164.3c0.5,0.7,1,1.5,1.5,2.3c0,0-2.4,43.6-3.7,53.5c-2.8,20.9-21.2,40.6-38.7,44.5
		c1.8,0.4,3.6,0.6,5.4,0.7v0c0,0,0.1,0,0.1,0c0,0,0.1,0,0.1,0v0c17.6-0.2,38.1-20.3,41-41.7c1.2-9.1,3.4-49.4,3.4-49.4
		C594.8,170,591.7,166.8,588.1,164.3z"/>
	<path id="XMLID_385_" class="st8" d="M562.3,258c0.9,2.8,1.4,5.8,1.4,8.9c0,7.9-3.2,15-8.4,20.2h16.3V258H562.3z"/>
	<path id="XMLID_49_" class="st5" d="M538.6,162.2c0,0,7.6,25.1,46.2,26.9c0,0,0.2-10.4-3.8-16.2c0,0,14.3,16.5,12.2,38.7
		c0,0,9.9-22,6.3-42.1c-3.7-20.1-54.6-25-62.4-18c0,0-27.5-0.1-29.6,21.4c-2.1,21.5,2.1,24.6,2.1,24.6S537.6,184.9,538.6,162.2z"/>
	<g id="XMLID_375_">
		<circle id="XMLID_37_" class="st6" cx="536.1" cy="281" r="2.5"/>
		<circle id="XMLID_36_" class="st6" cx="540.4" cy="283.5" r="2.5"/>
		<circle id="XMLID_35_" class="st6" cx="545" cy="285.4" r="2.5"/>
		<circle id="XMLID_34_" class="st6" cx="550" cy="286.8" r="2.5"/>
		<circle id="XMLID_33_" class="st6" cx="555" cy="286.8" r="2.5"/>
		<circle id="XMLID_32_" class="st6" cx="560" cy="285.4" r="2.5"/>
		<circle id="XMLID_31_" class="st6" cx="564.7" cy="283.5" r="2.5"/>
		<circle id="XMLID_30_" class="st6" cx="568.9" cy="281" r="2.5"/>
	</g>
	<g id="XMLID_577_">
		<path id="XMLID_576_" class="st5" d="M738.5,359.6h-34.1c-1.3,0-2.4-1.1-2.4-2.4v-65.1c0-1.3,1.1-2.4,2.4-2.4h34.1
			c1.3,0,2.4,1.1,2.4,2.4v65.1C740.9,358.5,739.8,359.6,738.5,359.6z"/>
		<path id="XMLID_578_" class="st5" d="M786.8,359.6h-34.1c-1.3,0-2.4-1.1-2.4-2.4V235.6c0-1.3,1.1-2.4,2.4-2.4h34.1
			c1.3,0,2.4,1.1,2.4,2.4v121.7C789.1,358.5,788.1,359.6,786.8,359.6z"/>
		<path id="XMLID_579_" class="st5" d="M835,359.6h-34.1c-1.3,0-2.4-1.1-2.4-2.4v-88.9c0-1.3,1.1-2.4,2.4-2.4H835
			c1.3,0,2.4,1.1,2.4,2.4v88.9C837.4,358.5,836.3,359.6,835,359.6z"/>
		<path id="XMLID_580_" class="st5" d="M883.3,359.6h-34.1c-1.3,0-2.4-1.1-2.4-2.4V221.1c0-1.3,1.1-2.4,2.4-2.4h34.1
			c1.3,0,2.4,1.1,2.4,2.4v136.1C885.6,358.5,884.6,359.6,883.3,359.6z"/>
	</g>
	<path id="XMLID_99_" class="st4" d="M697.5,287.1c0,0,3.3-5.8,5.4-8.6c2.1-2.8-2.3-7.9-1.3-12.4c1-4.5,1.9-13.2,3.4-16.7
		c1.5-3.4,5.4-4.6,6-1.6c0.6,3,1.2,15,1.2,15s10.2-4.2,14.7-8.7c4.5-4.5,7.5-11.4,8.4-13.1c0.9-1.7,3.6-1.4,4.1,0.8
		c0.5,2.1-3.3,9.5-3.3,9.5s3.9-5.6,5-8.4c1.1-2.9,4.4-2.3,3.6,1.2c-0.8,3.5-2.6,7.2-2.6,7.2s2.4-2.3,3.6-4.1
		c1.2-1.8,3.3-0.7,2.3,1.8c-1.1,2.6-5.7,8.7-5.7,8.7s2.6-1.8,3.6-3.2c1.1-1.4,2.1,0,1.7,2.3c-0.5,2.3-8.4,15.3-12.6,18.5
		c-4.2,3.2-10.8,6.6-13.5,8.6c-2.7,2-9.1,11.3-9.1,11.3L697.5,287.1z"/>
	<path id="XMLID_28_" class="st5" d="M618.9,299.2c0,0,33.7,53.1,36,53.1c2.3,0,37.4-62.5,37.4-62.5l19.9,9.8
		c0,0-43.1,86.2-57.1,86.2c-14.1,0-44.8-46.8-44.8-46.8L618.9,299.2z"/>
	<polygon id="XMLID_27_" class="st2" points="695.1,283.1 684.6,297.6 698.6,304.8 705.1,298.7 703.5,307.1 713.1,312.6 
		718.5,295.1 	"/>
</g>
</svg>
