<?xml version="1.0" encoding="utf-8"?>
<!-- Generator: Adobe Illustrator 19.0.0, SVG Export Plug-In . SVG Version: 6.00 Build 0)  -->
<svg version="1.1" id="Capa_1" xmlns="http://www.w3.org/2000/svg" xmlns:xlink="http://www.w3.org/1999/xlink" x="0px" y="0px"
	 viewBox="90 -90 430 430" style="enable-background:new 90 -90 430 430;" xml:space="preserve">
<style type="text/css">
	.st0{fill:#6EBDFF;}
</style>
<g>
	<path class="st0" d="M194.1,195.8c7.7,3.2,15.8,4.9,24,4.9c18.1,0,35.2-7.8,47-21.5c2.1-2.4,2.9-5.7,2.2-8.8s-2.9-5.7-5.9-6.9
		L170,125c-3-1.2-6.3-1-9.1,0.7c-2.7,1.7-4.5,4.5-4.8,7.7C154,160.3,169.3,185.3,194.1,195.8z M238.5,175.4
		c-6.2,3.4-13.1,5.2-20.3,5.2c-5.6,0-11.1-1.1-16.3-3.3c-12.1-5.1-20.9-15.3-24.3-27.4L238.5,175.4z"/>
	<path class="st0" d="M513.5-73.9c-3.9-1.5-8.3-0.4-11,2.8l-74.5,85.3c-34.2-30.8-77.5-47.7-123-47.7c-45.5,0-88.8,16.9-123,47.7
		l-74.5-85.3c-2.7-3.1-7.1-4.2-11-2.8c-3.9,1.5-6.5,5.2-6.5,9.4v213.9c0,45.3,35.4,82.6,79.9,85.6l49.8,84.6
		c2.3,3.9,6.9,5.8,11.2,4.6s7.4-5.1,7.4-9.6v-79.3h133.4v79.3c0,4.5,3,8.5,7.4,9.6c0.9,0.2,1.8,0.4,2.6,0.4c3.5,0,6.8-1.8,8.6-4.9
		L440,235c44.6-3,79.9-40.2,79.9-85.6V-64.5C520-68.7,517.4-72.4,513.5-73.9z M278,215.2h-49.7c-5.5,0-10,4.5-10,10v52.6l-33.9-57.7
		c-1.8-3.1-5.1-4.9-8.6-4.9c-36.3,0-65.8-29.5-65.8-65.8V-37.8l168,192.3V215.2z M312,150.7v64.5h-14v-64.5c0-2.4-0.9-4.8-2.5-6.6
		L195.2,29.3C225.7,1.6,264.4-13.5,305-13.5c40.6,0,79.3,15.1,109.8,42.8L314.5,144.1C312.9,145.9,312,148.3,312,150.7z M500,149.4
		c0,36.3-29.5,65.8-65.8,65.8c-3.5,0-6.8,1.9-8.6,4.9l-33.9,57.7v-52.6c0-5.5-4.5-10-10-10H332v-60.8L500-37.8V149.4z"/>
	<path class="st0" d="M391.8,200.6c8.3,0,16.3-1.6,24-4.9c24.8-10.4,40.1-35.5,37.9-62.3c-0.3-3.2-2-6.1-4.8-7.7
		c-2.7-1.7-6.1-1.9-9.1-0.7l-91.5,38.4c-3,1.2-5.1,3.8-5.9,6.9c-0.7,3.1,0.1,6.4,2.2,8.8C356.6,192.8,373.8,200.6,391.8,200.6z
		 M432.4,149.9c-3.4,12.1-12.2,22.4-24.3,27.4c-5.2,2.2-10.7,3.3-16.3,3.3c-7.2,0-14.2-1.8-20.3-5.2L432.4,149.9z"/>
</g>
</svg>
