<?xml version="1.0" encoding="utf-8"?>
<!-- Generator: Adobe Illustrator 19.0.0, SVG Export Plug-In . SVG Version: 6.00 Build 0)  -->
<svg version="1.1" id="Capa_1" xmlns="http://www.w3.org/2000/svg" xmlns:xlink="http://www.w3.org/1999/xlink" x="0px" y="0px"
	 viewBox="105 -105 460 460" style="enable-background:new 105 -105 460 460;" xml:space="preserve">
<style type="text/css">
	.st0{fill:#6EBDFF;}
</style>
<g>
	<path class="st0" d="M464.5-49.3c-17.1-17.7-37.1-31.6-59.4-41.2c-22.3-9.6-45.9-14.5-70-14.5s-47.7,4.9-70,14.5
		c-22.3,9.6-42.3,23.5-59.4,41.2c-36.4,37.7-56.5,90.5-56.5,148.5c0,59.5,20.2,122.6,55.5,173.1C241.2,324.9,288.8,355,335,355
		s93.8-30.1,130.5-82.7c35.2-50.5,55.5-113.6,55.5-173.1C520.9,41.1,500.9-11.6,464.5-49.3z M449.1,260.9
		C416.2,308,374.6,335,335,335s-81.2-27-114.1-74.1c-32.5-46.5-51.9-106.9-51.9-161.7C169.1-20.4,254.6-85,335-85
		S500.9-20.4,500.9,99.2C500.9,153.9,481.5,214.4,449.1,260.9z"/>
	<path class="st0" d="M323.8,145.8c-0.6-0.5-63.2-52.5-108.2-109.7c-2.4-3-6.3-4.4-10.1-3.6c-3.8,0.9-6.7,3.8-7.6,7.6
		c-6.7,29.9-5.9,64,2.2,93.7c10.5,38.2,32.4,66.8,63.5,82.8c1.4,0.7,3,1.1,4.6,1.1c2.6,0,5.1-1,7.1-2.9c1.3-1.3,33-33,50-55.1
		C328.7,155.3,328,149.3,323.8,145.8z M266.5,195.2c-45.3-27.7-56.1-85.7-52.3-129.3c34.5,40.4,73.2,75,89.3,88.9
		C291.3,169.6,274.9,186.7,266.5,195.2z"/>
	<path class="st0" d="M472,40.1c-0.8-3.8-3.8-6.7-7.6-7.6c-3.8-0.9-7.7,0.5-10.1,3.6c-44.9,57.1-107.5,109.2-108.2,109.7
		c-4.1,3.4-4.8,9.5-1.6,13.8c17,22.1,48.7,53.8,50,55.1c1.9,1.9,4.5,2.9,7.1,2.9c1.6,0,3.1-0.4,4.6-1.1c31.1-16,53-44.6,63.5-82.8
		C477.9,104.2,478.7,70,472,40.1z M403.5,195.2c-8.3-8.5-24.8-25.7-37-40.4c16-13.9,54.8-48.5,89.3-88.9
		C459.5,109.5,448.8,167.5,403.5,195.2z"/>
</g>
</svg>
