<?xml version="1.0" encoding="utf-8"?>
<!-- Generator: Adobe Illustrator 19.0.0, SVG Export Plug-In . SVG Version: 6.00 Build 0)  -->
<svg version="1.1" id="Layer_1" xmlns="http://www.w3.org/2000/svg" xmlns:xlink="http://www.w3.org/1999/xlink" x="0px" y="0px"
	 viewBox="500 -340 1400 980" style="enable-background:new 500 -340 1400 980;" xml:space="preserve">
<style type="text/css">
	.st0{fill:#57449B;}
	.st1{fill:#FAB08A;}
	.st2{fill:#493C87;}
	.st3{fill:#FFD495;}
	.st4{fill:#EF8D65;}
	.st5{fill:#191919;}
	.st6{fill:#E8892C;}
	.st7{fill:#E5E5E5;}
	.st8{fill:#5B4F5F;}
	.st9{fill:#B8BEBC;}
	.st10{fill:#3B2D3D;}
	.st11{fill:#4C4152;}
	.st12{fill:#34769B;}
	.st13{fill:#459DC5;}
	.st14{fill:#5C5661;}
	.st15{fill:#3C3142;}
	.st16{fill:#B28F66;}
	.st17{fill:#DDBF97;}
	.st18{fill:none;stroke:#4C4152;stroke-linecap:round;stroke-linejoin:round;stroke-miterlimit:10;}
	.st19{fill:#FEC023;}
</style>
<path id="XMLID_1419_" class="st0" d="M827.4,473.3l25.1,4.8c0,0-0.6,5.1,1.6,7c2.2,1.9,28.7,1.9,38.8,10.5
	c10.2,8.6,4.4,11.7,4.4,11.7H823c0,0-2.1-11.4,0-17.8C825.1,483.1,827.4,473.3,827.4,473.3z"/>
<polyline id="XMLID_547_" class="st1" points="856.6,467.3 850.4,477.6 829.2,473.6 835.7,454.6 "/>
<path id="XMLID_1415_" class="st2" d="M906,168.7c0,0,25.4,130.7,24.7,145.9c-0.6,15.2-71.7,154.2-71.7,154.2l-26-15.9
	c0,0,52-123.1,52-137.7s-62-146.5-62-146.5H906z"/>
<polygon id="XMLID_1413_" class="st0" points="787,168.7 795.4,480.1 821.7,480.1 859.1,168.7 "/>
<path id="XMLID_1411_" class="st0" d="M797.9,480.1c0,0-4.1,11.9-4.8,18.9c-0.6,7-0.6,7-0.6,7s26.6,17.1,47.6,16.2
	c20.9-1,19-8.9,19-8.9s-31.8-19.7-36.1-23.8c-4.2-4.1-3.9-9.4-3.9-9.4H797.9z"/>
<path id="XMLID_1408_" class="st3" d="M881.7-193.3c16.7,0,43,2.2,43,39.7s0,119.3,0,119.3l-79.1-1.3c0,0-47.7,46.6-57.2,14.9
	s9.2-47.9,20.9-68.8s17.1-48.3,17.1-70.1S847.2-193.3,881.7-193.3z"/>
<polygon id="XMLID_546_" class="st2" points="877.7,-69.2 912.2,-56.2 964.7,23 930.5,42.1 907.1,17.4 907.1,139.9 877.7,139.9 
	877.7,-45.8 "/>
<path id="XMLID_539_" class="st4" d="M859-50.2L859-50.2c8.3,2.1,16.8-3,18.9-11.3l11.2-44.6c2.1-8.3-3-16.8-11.3-18.9l0,0
	c-8.3-2.1-16.8,3-18.9,11.3L847.7-69C845.6-60.7,850.7-52.2,859-50.2z"/>
<path id="XMLID_1402_" class="st3" d="M839.7-95.9h68.2c7.3,0,13.3-6,13.3-13.3v-70.9c0-7.3-6-13.2-13.3-13.2h-68.2
	c-7.3,0-13.3,6-13.3,13.2v70.9C826.4-101.9,832.4-95.9,839.7-95.9z"/>
<path id="XMLID_536_" class="st4" d="M876-75.3h11.4c18.5,0,33.6-15.1,33.6-33.6v-47.2c0-18.5-15.1-33.6-33.6-33.6H876
	c-18.5,0-33.6,15.1-33.6,33.6v47.2C842.4-90.4,857.5-75.3,876-75.3z"/>
<path id="XMLID_534_" class="st1" d="M887.4-75.3L887.4-75.3c18.5,0,33.6-15.1,33.6-33.6v-47.2c0-18.5-15.1-33.6-33.6-33.6l0,0
	c-18.5,0-33.6,15.1-33.6,33.6v47.2C853.8-90.4,868.9-75.3,887.4-75.3z"/>
<path id="XMLID_533_" class="st4" d="M849.5-137c0,0-1.7-3.5-7.1-3.5c-5.4,0-8.4,2.5-8.4,16s8.4,14.2,8.4,14.2L849.5-137z"/>
<circle id="XMLID_530_" class="st5" cx="881.7" cy="-125.7" r="4.5"/>
<circle id="XMLID_526_" class="st5" cx="912.2" cy="-125.7" r="4.5"/>
<path id="XMLID_529_" class="st3" d="M887.3-138.2c-0.1-0.1-2.1-1.8-5.8-1.8c-3.6,0-5.2,1.6-5.3,1.7l-1.9-1.7
	c0.1-0.1,2.3-2.5,7.1-2.5c4.7,0,7.4,2.3,7.5,2.4L887.3-138.2z"/>
<path id="XMLID_527_" class="st3" d="M917.8-138.2c-0.1-0.1-2.1-1.8-5.8-1.8c-3.6,0-5.2,1.6-5.3,1.7l-1.9-1.7
	c0.1-0.1,2.3-2.5,7.1-2.5c4.7,0,7.4,2.3,7.5,2.4L917.8-138.2z"/>
<polygon id="XMLID_524_" class="st1" points="870.6,-167.1 865.1,-178.7 871.7,-168.3 "/>
<path id="XMLID_522_" class="st0" d="M848.5-71.9c-0.1,1.6-0.9,12.2,0,14.7c1,2.7,19.6,38.1,19.6,38.1l9.5-41l29.6,156.9v93.4H786.6
	V72.4c0,0-2.1-112.6,3.3-119C794.6-52.1,820.3-67.5,848.5-71.9z"/>
<path id="XMLID_519_" class="st1" d="M726.1,44.2c-16.3,25.6,62.6,103.2,62.6,103.2s24.6,6.4,10.8-12.8
	c-13.8-19.2-28.9-49-41.2-74.6C753.4,51.1,735.7,29.2,726.1,44.2z"/>
<path id="XMLID_520_" class="st5" d="M897.4-95.4c-5.6,0-8.2-4-8.3-4.2c-0.4-0.6-0.2-1.4,0.4-1.8c0.6-0.4,1.4-0.2,1.8,0.4
	c0.1,0.1,2.3,3.4,7.1,3c3-0.3,5.3-2.7,5.4-2.7c0.5-0.5,1.3-0.5,1.8,0s0.5,1.3,0,1.8c-0.1,0.1-3,3.1-7,3.5
	C898.2-95.4,897.8-95.4,897.4-95.4z"/>
<path id="XMLID_1378_" class="st4" d="M749.4,88.7c-12.1-24.7-10.8-31.9-10.8-31.9s-2.8-9.5-5.7-17.6c-2.5,0.4-4.8,1.9-6.7,5
	c-16.3,25.6,62.6,103.2,62.6,103.2l0,0l3.8-4.5C792.5,142.8,761.5,113.4,749.4,88.7z"/>
<path id="XMLID_517_" class="st0" d="M790.3-47.9c0,0-63.9,84.3-65.6,95.3c-1.7,11,35.9,11.7,35.9,11.7s49.6-55.9,58.9-71.2
	C828.8-27.4,835.9-63.8,790.3-47.9z"/>
<path id="XMLID_516_" class="st1" d="M962.2,47.4c13.5-10.1-33.6-82.4-34.6-89.3c-1-7-21.8,0.3-15.2,8.4c6.6,8,10,27,19.9,69
	C934.6,45.3,947.9,58,962.2,47.4z"/>
<path id="XMLID_499_" class="st1" d="M912.4-33.5l15.2-8.4c0,0-0.7-11.4-4.9-18.8s-13.6-16.6-16.3-17.8c-2.6-1.2-2.7,5.1,0.6,8.6
	c3.3,3.5,4.7,6.8,4.3,8.4s-10.4-3.2-15.7-9.2c-5.3-6-5.6-13-7.6-15.3c-2-2.2-5.3-2.9-4.5,3.2c0.7,6.1,3.3,9.6,3.3,9.6
	s-2,16.6,2.9,23.2C894.5-43.2,903.7-41.6,912.4-33.5z"/>
<path id="XMLID_1364_" class="st4" d="M912.4-33.5l2.4-1.3l1.6-0.9c-1.8-2.3-5.2-6.1-11-10.2c-9.3-6.6-10.3-8.1-10.5-11.2
	c-0.3-3.3-10.9-22.1-10.5-30.2c-0.9,0.4-1.4,1.8-1.1,4.6c0.7,6.1,3.3,9.6,3.3,9.6l0,0c0,0-0.8,6.5-0.2,13c0.1,1.3,0.3,2.6,0.5,3.8
	c0.5,2.5,1.3,4.8,2.5,6.4C894.5-43.2,903.7-41.6,912.4-33.5z"/>
<path id="XMLID_1362_" class="st4" d="M955.9,50.6c-16.4-1.8-27.4-57-38-84.2c0,0-1.6-2.7-5.5-6.5c-1.6,1.9-2,4.2-0.1,6.5
	c6.6,8,10,27,19.9,69C934.3,43.8,944.2,54.2,955.9,50.6z"/>
<path id="XMLID_511_" class="st0" d="M886.2-115.8H874c-4.3,0-7.7-3.5-7.7-7.7v-7.8c0-4.3,3.5-7.7,7.7-7.7h12.3
	c4.3,0,7.7,3.5,7.7,7.7v7.8C894-119.3,890.5-115.8,886.2-115.8z M874-136.5c-2.9,0-5.2,2.3-5.2,5.2v7.8c0,2.9,2.3,5.2,5.2,5.2h12.3
	c2.9,0,5.2-2.3,5.2-5.2v-7.8c0-2.9-2.3-5.2-5.2-5.2H874z"/>
<rect id="XMLID_510_" x="892.7" y="-128.7" class="st0" width="8.3" height="2.5"/>
<rect id="XMLID_509_" x="849" y="-131.7" transform="matrix(-0.9495 -0.3137 0.3137 -0.9495 1714.5387 14.9236)" class="st0" width="18.9" height="2.5"/>
<path id="XMLID_1352_" class="st3" d="M921.1-161.6c0,9.2,0,29.1,0,29.1c0-12.8-11.2-23-21-26.8c-9.8-3.8-16.2-13.6-16.2-13.6
	s-11.7,5-17,14.1c-5.2,9-8.9,50.3-17.4,65.2s-11.3,19.8-11.3,19.8s-11.8-25.5-11.8-55.6s20.7-63.8,45.3-63.8
	C905.8-193.3,921.1-188.8,921.1-161.6z"/>
<path id="XMLID_1350_" class="st6" d="M849.1-197.8L849.1-197.8c0,0-1.6-2.2-1.8-4.2c-0.2-2-2.5-4-5.1-2.7s-2,4.2,0,5.3
	c2,1,3.8,2.8,3.8,2.8l0,0c-7.9,3.1-15.4,7.1-21.9,11.7c-26.4,18.6-5.4,43.7,0,44.9c5.4,1.2,9.9-0.4,23.1-5.8
	c13.2-5.4,32.6-16.1,42.7-26.5c9.6-9.9,18.3-15.9,18.3-15.9C897.9-206.2,872.4-206.2,849.1-197.8z"/>
<path id="XMLID_501_" class="st0" d="M919.7-115.8h-12.3c-4.3,0-7.7-3.5-7.7-7.7v-7.8c0-4.3,3.5-7.7,7.7-7.7h12.3
	c4.3,0,7.7,3.5,7.7,7.7v7.8C927.4-119.3,923.9-115.8,919.7-115.8z M907.4-136.5c-2.9,0-5.2,2.3-5.2,5.2v7.8c0,2.9,2.3,5.2,5.2,5.2
	h12.3c2.9,0,5.2-2.3,5.2-5.2v-7.8c0-2.9-2.3-5.2-5.2-5.2H907.4z"/>
<path id="XMLID_497_" class="st0" d="M1601.7,480.1c0,0,4.1,11.9,4.8,18.9c0.6,7,0.6,7,0.6,7s-26.6,17.1-47.6,16.2
	c-20.9-1-19-8.9-19-8.9s31.8-19.7,36.1-23.8c4.2-4.1,3.9-9.4,3.9-9.4H1601.7z"/>
<path id="XMLID_495_" class="st0" d="M1545.9,473.7h-26.6c0,0,0,9.8-2.3,11.7c-2.3,1.9-28.7,1.9-38.8,10.5s-4.4,11.7-4.4,11.7h74.3
	c0,0,2.1-11.4,0-17.8C1545.8,483.6,1545.9,473.7,1545.9,473.7z"/>
<path id="XMLID_494_" class="st1" d="M795.4,134.6c0,0,3.9-2.5,10.3,0.1c6.6,2.6,11.9,5.4,10.2,9c-1.5,3.3-9.9-2-9.9-2l1.4,2.7
	l-10.1,16c0,0-10.4-4.3-12.8-13L795.4,134.6z"/>
<path id="XMLID_492_" class="st7" d="M1606.3-55.9c-5.4-6.3-39-26-72-26.5l-41.9,14.1L1492,9.3C1492,9.4,1611.7-49.5,1606.3-55.9z"
	/>
<polygon id="XMLID_491_" class="st0" points="1518.9,-77.2 1484.5,-64.2 1421.2,27.4 1455.4,46.5 1489.5,9.4 1489.5,131.9 
	1518.9,131.9 1518.9,-53.8 "/>
<path id="XMLID_490_" class="st0" d="M1573.5-167.7c0,0,0,48.4,0,55.2s5.4,12,15.5,12c10.2,0,13.5,17.2,0,17.2s-60.3,0-60.3,0
	l-9.9-66L1573.5-167.7z"/>
<path id="XMLID_487_" class="st4" d="M1537.6-58.1L1537.6-58.1c-8.3,2.1-16.8-3-18.9-11.3l-11.2-44.6c-2.1-8.3,3-16.8,11.3-18.9l0,0
	c8.3-2.1,16.8,3,18.9,11.3l11.2,44.6C1551-68.7,1545.9-60.2,1537.6-58.1z"/>
<path id="XMLID_484_" class="st0" d="M1539.9-103.9h-30.7c-18.5,0-33.6-15.1-33.6-33.6v-30.1c0-18.5,15.1-33.6,33.6-33.6h30.7
	c18.5,0,33.6,15.1,33.6,33.6v30.1C1573.5-119,1558.4-103.9,1539.9-103.9z"/>
<path id="XMLID_483_" class="st4" d="M1520.6-83.3h-11.4c-18.5,0-33.6-15.1-33.6-33.6v-47.2c0-18.5,15.1-33.6,33.6-33.6h11.4
	c18.5,0,33.6,15.1,33.6,33.6v47.2C1554.3-98.4,1539.1-83.3,1520.6-83.3z"/>
<path id="XMLID_481_" class="st1" d="M1509.2-83.3L1509.2-83.3c-18.5,0-33.6-15.1-33.6-33.6v-47.2c0-18.5,15.1-33.6,33.6-33.6l0,0
	c18.5,0,33.6,15.1,33.6,33.6v47.2C1542.8-98.4,1527.7-83.3,1509.2-83.3z"/>
<path id="XMLID_480_" class="st0" d="M1554.3-145c0,0-2.9-10.2-7.1,0c-4.3,10.2,5,31.6,1.6,31.6c0,0-10.5-14-10.5-37.3
	c0-11.7-13.3-25.6-13.3-25.6s-6,10.5-21.3,13.4c-25.6,4.9-26.7,11.8-28.1,16.5c0,0-8.8-54.8,26.2-54.8c28.4,0,29.6,0,29.6,0
	l12.1,5.2l14.9,14.4L1554.3-145z"/>
<path id="XMLID_478_" class="st4" d="M1547.1-145c0,0,1.7-3.5,7.1-3.5s8.4,2.5,8.4,16s-8.4,14.2-8.4,14.2L1547.1-145z"/>
<circle id="XMLID_473_" class="st5" cx="1514.9" cy="-133.7" r="4.5"/>
<circle id="XMLID_471_" class="st5" cx="1484.5" cy="-133.7" r="4.5"/>
<path id="XMLID_477_" class="st0" d="M1521.3-145.9c-0.3,0-0.7-0.1-0.9-0.4c-0.1-0.1-1.7-1.7-5.3-1.7c-3.7,0-5.8,1.7-5.8,1.8
	c-0.5,0.4-1.3,0.4-1.8-0.1s-0.4-1.3,0.1-1.8c0.1-0.1,2.8-2.4,7.5-2.4c4.8,0,7,2.4,7.1,2.5c0.5,0.5,0.4,1.3-0.1,1.8
	C1522-146.1,1521.6-145.9,1521.3-145.9z"/>
<path id="XMLID_474_" class="st0" d="M1490.9-145.9c-0.3,0-0.7-0.1-0.9-0.4c-0.1-0.1-1.7-1.7-5.3-1.7c-3.7,0-5.8,1.7-5.8,1.8
	c-0.5,0.4-1.3,0.4-1.8-0.1s-0.4-1.3,0.1-1.8c0.1-0.1,2.8-2.4,7.5-2.4c4.8,0,7,2.4,7.1,2.5c0.5,0.5,0.4,1.3-0.1,1.8
	C1491.5-146.1,1491.2-145.9,1490.9-145.9z"/>
<polygon id="XMLID_470_" class="st1" points="1526,-175.1 1531.5,-186.7 1524.9,-176.3 "/>
<path id="XMLID_469_" class="st0" d="M1547.8-81.2c0.1,1.6,0.9,12.2,0,14.7c-1,2.7-19.6,38.1-19.6,38.1l-9.5-41L1492,87.5v93.4
	h117.6V63.1c0,0,2.1-112.6-3.3-119C1601.7-61.3,1576-76.7,1547.8-81.2z"/>
<path id="XMLID_468_" class="st1" d="M1652.5,47.1c12.1,11.8-37.6,87.8-37.6,87.8l-15.5-12c0,0,19.8-57.4,22.7-67
	C1624.9,46.2,1639.8,34.6,1652.5,47.1z"/>
<path id="XMLID_465_" class="st1" d="M1599.3,122.9c0,0-6.7-0.7-13,2.2c-6.3,2.8-8.3,7.1-5.8,9.6c2.6,2.5,8.6-4.4,8.6-4.4l-0.9,2.9
	l16.8,17.1c0,0,9.2-6.4,9.7-15.4L1599.3,122.9z"/>
<path id="XMLID_1285_" class="st4" d="M1599.4,144.4L1599.4,144.4l5.8,5.9c0,0,9.2-6.4,9.7-15.4l-6.3-4.9
	C1609.7,133.8,1599.4,144.4,1599.4,144.4z"/>
<path id="XMLID_1283_" class="st4" d="M1643.1,41.9c4,6.1,0.7,17-8.2,39c-8.9,22-26.3,49.1-26.3,49.1l0,0l6.3,4.9
	c0,0,49.7-76.1,37.6-87.8C1649.4,44.1,1646.2,42.5,1643.1,41.9z"/>
<polygon id="XMLID_1281_" class="st0" points="1457.7,48 1419.4,26.6 1430.9,10 1470.8,33.7 "/>
<polygon id="XMLID_464_" class="st1" points="1450.4,43.9 1416.9,79.8 1398,70 1426.9,30.3 "/>
<path id="XMLID_466_" class="st5" d="M1499.2-103.4c-0.4,0-0.7,0-1.1-0.1c-4-0.4-6.8-3.4-7-3.5c-0.5-0.5-0.5-1.3,0-1.8
	s1.3-0.5,1.8,0c0,0,2.4,2.4,5.3,2.7c4.8,0.4,7-2.8,7.1-3c0.4-0.6,1.2-0.8,1.8-0.4c0.6,0.4,0.8,1.2,0.4,1.7
	C1507.4-107.4,1504.8-103.4,1499.2-103.4z"/>
<polygon id="XMLID_463_" class="st0" points="1606,157.8 1606,480.1 1572.9,480.1 1550.2,157.8 "/>
<polygon id="XMLID_456_" class="st2" points="1550.9,157.8 1548.5,473.7 1515.9,473.7 1495.1,157.8 "/>
<path id="XMLID_452_" class="st8" d="M1431.1,365h-40.7c-6.7,0-12.3-5.5-12.3-12.3V335c0-6.7,5.5-12.3,12.3-12.3h40.7
	c6.7,0,12.3,5.5,12.3,12.3v17.8C1443.4,359.5,1437.9,365,1431.1,365z"/>
<path id="XMLID_449_" class="st8" d="M1470.8,351.9h-120.1c-6.7,0-12.3-5.5-12.3-12.3v-17.8c0-6.7,5.5-12.3,12.3-12.3h120.1
	c6.7,0,12.3,5.5,12.3,12.3v17.8C1483.1,346.4,1477.6,351.9,1470.8,351.9z"/>
<rect id="XMLID_448_" x="879.1" y="200.1" class="st8" width="25.4" height="323"/>
<rect id="XMLID_447_" x="966.6" y="200.1" class="st8" width="25.4" height="322.1"/>
<rect id="XMLID_441_" x="1398.1" y="365" class="st9" width="25.4" height="108.7"/>
<path id="XMLID_440_" class="st8" d="M1394.5,473.7v-46.8c0-2.1,1.7-3.8,3.8-3.8h25.1c2.1,0,3.8,1.7,3.8,3.8v46.8
	c0,2.1-1.7,3.8-3.8,3.8h-25.1C1396.2,477.4,1394.5,475.8,1394.5,473.7z"/>
<rect id="XMLID_435_" x="916.7" y="244.4" class="st10" width="128.6" height="262.3"/>
<rect id="XMLID_434_" x="916.7" y="506.7" class="st8" width="229.3" height="15.5"/>
<rect id="XMLID_432_" x="1045.3" y="244.4" class="st11" width="100.7" height="262.3"/>
<rect id="XMLID_430_" x="1146" y="272.8" class="st10" width="51.6" height="56.7"/>
<rect id="XMLID_428_" x="1184.9" y="267.3" class="st11" width="12.7" height="62.2"/>
<rect id="XMLID_427_" x="1172.2" y="252" class="st12" width="12.7" height="20.7"/>
<rect id="XMLID_425_" x="1146" y="252" class="st13" width="26.2" height="20.7"/>
<path id="XMLID_423_" class="st10" d="M1443,338.4h-172.7c-11.5,0-20.9-9.3-20.9-20.9v-7.8c0-11.5,9.3-20.9,20.9-20.9H1443
	c11.5,0,20.9,9.3,20.9,20.9v7.8C1463.9,329,1454.5,338.4,1443,338.4z"/>
<path id="XMLID_420_" class="st10" d="M1518.6,309.8h-156.7c-5,0-9-4.1-9-9c0,0-5.1-94.5-5.1-126c0-32,5.1-128,5.1-128
	c0-5,4.1-9,9-9h156.7c5,0,9,4.1,9,9c0,0-5.1,96-5.1,128c0,31.5,5.1,126,5.1,126C1527.6,305.7,1523.6,309.8,1518.6,309.8z"/>
<path id="XMLID_418_" class="st11" d="M1522.6,174.7c0-32,5.1-128,5.1-128c0-5-4.1-9-9-9h-4.4c-5,0-9,4.1-9,9c0,0-5.1,96-5.1,128
	c0,24.7,3.1,87.9,4.5,114.2H1445c-11.5,0-20.9,9.3-20.9,20.9v7.8c0,11.5,9.3,20.9,20.9,20.9h77.3c3.1,0,5.6-2.5,5.6-5.6v-23.1
	c0-1.9-0.3-3.7-0.7-5.5c0.5-1.1,0.7-2.3,0.7-3.6C1527.6,300.7,1522.6,206.2,1522.6,174.7z"/>
<rect id="XMLID_417_" x="1003.5" y="163.9" class="st10" width="126.3" height="10.8"/>
<rect id="XMLID_414_" x="1129.8" y="163.9" class="st14" width="32.7" height="10.8"/>
<path id="XMLID_412_" class="st7" d="M1505.4,144.9c0,0-59.9-82.9-65.3-89.2c-5.4-6.3-39-26-72-26.5l-41.9,14.1l-96.1,131.3h37.3
	l58.4-53.7v53.7v68.8h140.6v-68.8L1505.4,144.9z"/>
<polygon id="XMLID_411_" class="st2" points="1352.6,34.4 1326.2,43.3 1230.1,174.7 1274.9,174.7 1315.6,121 1315.6,174.7 
	1315.6,243.5 1352.6,243.5 1352.6,57.8 "/>
<path id="XMLID_410_" class="st4" d="M1374.6,57.8L1374.6,57.8c-6,6-15.9,6-22,0l-32.5-32.5c-6-6-6-15.9,0-22l0,0c6-6,15.9-6,22,0
	l32.5,32.5C1380.7,41.8,1380.7,51.7,1374.6,57.8z"/>
<polygon id="XMLID_409_" class="st7" points="1241,135.6 1255.2,42.3 1290.7,42.3 1275,135.6 "/>
<polygon id="XMLID_407_" class="st0" points="1230.1,174.7 1252.1,53.9 1290.7,53.9 1274.9,174.7 "/>
<polygon id="XMLID_405_" class="st1" points="1282.5,42.3 1289.1,32.5 1295.3,28.6 1289.4,0.7 1280.4,5.9 1260,42.3 "/>
<path id="XMLID_404_" class="st0" d="M1381.4,30.3c0,0,8.2,5.1,8.2,20.4s0,192.9,0,192.9h76.8v-68.8l44.2-27l-69.2-94.2
	C1441.3,53.5,1413.9,29.4,1381.4,30.3z"/>
<path id="XMLID_402_" class="st2" d="M1352.6,241.5c0,0-72,0-91.5,0c-19.6,0-39,0-51.3,43.1c-12.3,43.1-25.8,189.1-25.8,189.1h51.6
	l34.6-184.9h31.1h50.8L1352.6,241.5z"/>
<polygon id="XMLID_400_" class="st8" points="1427.1,457.4 1530.8,477.4 1530.8,494.7 1521.3,495.7 1521.3,486.5 1427.1,471.3 "/>
<polygon id="XMLID_399_" class="st8" points="1394.5,457.4 1290.8,477.4 1290.8,494.7 1300.3,495.7 1300.3,486.5 1394.5,471.3 "/>
<polygon id="XMLID_398_" class="st8" points="1427.1,456.4 1461.6,477.4 1461.6,494.7 1452.1,495.7 1452.1,486.5 1427.1,470.4 "/>
<polygon id="XMLID_397_" class="st8" points="1394.5,456.4 1359.9,477.4 1359.9,494.7 1369.4,495.7 1369.4,486.5 1394.5,470.4 "/>
<path id="XMLID_395_" class="st8" d="M1294.9,490.2c-10.5,0-19,8.5-19,19h38.1C1314,498.8,1305.4,490.2,1294.9,490.2z"/>
<path id="XMLID_394_" class="st8" d="M1364.1,490.2c-10.5,0-19,8.5-19,19h38.1C1383.1,498.8,1374.6,490.2,1364.1,490.2z"/>
<path id="XMLID_393_" class="st8" d="M1457.5,490.2c-10.5,0-19,8.5-19,19h38.1C1476.5,498.8,1468,490.2,1457.5,490.2z"/>
<path id="XMLID_392_" class="st8" d="M1526.6,490.2c-10.5,0-19,8.5-19,19h38.1C1545.7,498.8,1537.1,490.2,1526.6,490.2z"/>
<polygon id="XMLID_391_" class="st9" points="1191.7,473.7 1230.6,473.7 1228,495.7 1189.2,495.7 "/>
<rect id="XMLID_390_" x="1153.2" y="514.3" class="st15" width="79.1" height="8.5"/>
<path id="XMLID_389_" class="st0" d="M1227.4,488.4c0,0,1.1,6.6-9,6.6s-12.8-13.4-12.8-13.4h-19l-4.2,13.7c0,0-5.2,6.3-14.9,6.3
	h-3.1c-6.1,0-11.1,5-11.1,11.1v1.7h79.1v-12.8C1232.3,494.6,1232,488.4,1227.4,488.4z"/>
<path id="XMLID_388_" class="st0" d="M1500.9,174.7h-73.8v-30.5h73.8c8.4,0,15.2,6.8,15.2,15.2l0,0
	C1516.1,167.9,1509.3,174.7,1500.9,174.7z"/>
<rect id="XMLID_387_" x="1416.6" y="148.7" class="st7" width="10.5" height="26"/>
<path id="XMLID_384_" class="st1" d="M1395.1,147.8c-8.9-1.1-23.9,5.1-28.1,7.6s-16.3,14.6-16.5,16.5s3.8,2.7,4.7,2.7
	c0.8,0,16.3-12.1,16.3-12.1s-9.1,8.2-10.4,10.2c-1.3,1.9,5.3,1.9,5.3,1.9l11.4-8.9c0,0-5.7,5.1-6.1,7c-0.4,1.9,3.6,1.9,3.6,1.9
	l4.6-2.5c0,0,2.6,2.5,10.2,2.5c5,0,9.6,0,10.8,0c3,0,15.8,0,15.8,0v-22.2C1416.6,152.5,1404,148.9,1395.1,147.8z"/>
<polygon id="XMLID_382_" class="st4" points="1289.4,0.7 1280.4,5.9 1289.3,25.6 1278.6,42.3 1287.6,42.3 1294.1,32.5 1300.3,28.6 
	"/>
<path id="XMLID_680_" class="st0" d="M1365.6,15.1h-63c-7.3,0-13.3-6-13.3-13.3V-69c0-7.3,6-13.3,13.3-13.3h63
	c7.3,0,13.2,6,13.2,13.3V1.9C1378.8,9.1,1372.9,15.1,1365.6,15.1z"/>
<path id="XMLID_381_" class="st4" d="M1334.4,43.3H1323c-18.5,0-33.6-15.1-33.6-33.6v-58.4c0-18.5,15.1-33.6,33.6-33.6h11.4
	c18.5,0,33.6,15.1,33.6,33.6V9.7C1368.1,28.2,1352.9,43.3,1334.4,43.3z"/>
<path id="XMLID_380_" class="st1" d="M1323,43.3L1323,43.3c-18.5,0-33.6-15.1-33.6-33.6v-58.4c0-18.5,15.1-33.6,33.6-33.6l0,0
	c18.5,0,33.6,15.1,33.6,33.6V9.7C1356.6,28.2,1341.5,43.3,1323,43.3z"/>
<path id="XMLID_670_" class="st0" d="M1368.1-26h-7.1c0,0-1,15.7-4.3,15.7c0,0-4.6,1.9-4.6-21.5s-7.5-25.7-7.5-25.7
	s-11.9,10.3-27.1,13.5s-32.7,3.2-35.4,7.5c0,0-1.6-45.8,33.5-45.8c28.4,0,29.6,0,29.6,0l12.1,5.2l14.9,14.4L1368.1-26z"/>
<path id="XMLID_379_" class="st4" d="M1360.9-26c0,0,1.7-3.5,7.1-3.5c5.4,0,8.4,2.5,8.4,16S1368,0.7,1368,0.7L1360.9-26z"/>
<circle id="XMLID_663_" class="st5" cx="1328.7" cy="-14.7" r="4.5"/>
<circle id="XMLID_660_" class="st5" cx="1298.3" cy="-14.7" r="4.5"/>
<rect id="XMLID_378_" x="845.2" y="174.7" class="st16" width="761.4" height="25.4"/>
<rect id="XMLID_377_" x="1568.1" y="200.1" class="st8" width="25.4" height="323"/>
<rect id="XMLID_374_" x="1655.7" y="200.1" class="st8" width="25.4" height="323"/>
<rect id="XMLID_372_" x="1606.6" y="174.7" class="st17" width="116.7" height="25.4"/>
<circle id="XMLID_371_" class="st9" cx="1526.6" cy="509.3" r="13.8"/>
<circle id="XMLID_370_" class="st9" cx="1294.9" cy="509.3" r="13.8"/>
<circle id="XMLID_369_" class="st9" cx="1457.5" cy="509.3" r="13.8"/>
<circle id="XMLID_368_" class="st9" cx="1364.1" cy="509.3" r="13.8"/>
<path id="XMLID_367_" class="st0" d="M1295.3,473.7h52.5c0,0,2.5-168.4,8.9-184.9h88.1c0,0,21.7-21.9,21.7-45.4c0,0-100.9,0-124.4,0
	s-38.7,9.2-41.9,58.1C1297,350.4,1295.3,473.7,1295.3,473.7z"/>
<rect id="XMLID_366_" x="1299.5" y="473.7" class="st9" width="38.9" height="22"/>
<rect id="XMLID_365_" x="1264.2" y="514.3" class="st15" width="79.1" height="8.5"/>
<path id="XMLID_274_" class="st0" d="M1338.4,488.4c0,0,1.1,6.6-9,6.6s-12.8-13.4-12.8-13.4h-19l-4.2,13.7c0,0-5.2,6.3-14.9,6.3
	h-3.1c-6.1,0-11.1,5-11.1,11.1v1.7h79.1v-12.8C1343.3,494.6,1343,488.4,1338.4,488.4z"/>
<path id="XMLID_364_" class="st5" d="M1324.2,21.1h-18.4c-0.7,0-1.3-0.6-1.3-1.3s0.6-1.3,1.3-1.3h18.4c0.7,0,1.3,0.6,1.3,1.3
	S1324.9,21.1,1324.2,21.1z"/>
<path id="XMLID_361_" class="st0" d="M1335.1-26.9c-0.3,0-0.7-0.1-0.9-0.4c-0.1-0.1-1.7-1.7-5.3-1.7c-3.7,0-5.8,1.7-5.8,1.8
	c-0.5,0.5-1.3,0.4-1.8-0.1s-0.4-1.3,0.1-1.8c0.1-0.1,2.8-2.4,7.5-2.4c4.8,0,7,2.4,7.1,2.5c0.5,0.5,0.4,1.3-0.1,1.8
	C1335.8-27,1335.5-26.9,1335.1-26.9z"/>
<path id="XMLID_275_" class="st0" d="M1304.7-26.9c-0.3,0-0.7-0.1-0.9-0.4c-0.1-0.1-1.7-1.7-5.3-1.7c-3.7,0-5.8,1.7-5.8,1.8
	c-0.5,0.5-1.3,0.4-1.8-0.1s-0.4-1.3,0.1-1.8c0.1-0.1,2.8-2.4,7.5-2.4c4.8,0,7,2.4,7.1,2.5c0.5,0.5,0.4,1.3-0.1,1.8
	C1305.3-27,1305-26.9,1304.7-26.9z"/>
<polygon id="XMLID_273_" class="st2" points="1460.1,144.2 1427.1,107.7 1427.1,144.2 "/>
<path id="XMLID_270_" class="st4" d="M1381.4,168.2c-2.5,0.6-8.6,6.1-8.6,6.1l0,0c1.1,0.4,2.5,0.4,2.5,0.4l4.6-2.5
	c0,0,2.6,2.5,10.2,2.5c5,0,9.6,0,10.8,0c3,0,15.8,0,15.8,0v-6.5C1416.6,168.2,1383.9,167.5,1381.4,168.2z"/>
<path id="XMLID_593_" class="st18" d="M1568.3,132.4"/>
<rect id="XMLID_257_" x="1469.8" y="147.2" class="st13" width="161.1" height="27.4"/>
<rect id="XMLID_235_" x="1469.8" y="147.2" class="st12" width="64.9" height="27.4"/>
<rect id="XMLID_223_" x="1476.9" y="153.3" class="st7" width="153.9" height="15.3"/>
<rect id="XMLID_179_" x="1482.7" y="119.8" class="st19" width="161.1" height="27.4"/>
<rect id="XMLID_178_" x="1482.7" y="119.8" class="st6" width="64.9" height="27.4"/>
<rect id="XMLID_176_" x="1489.9" y="125.4" class="st7" width="153.9" height="16.2"/>
<path id="XMLID_137_" class="st0" d="M1606.3-55.9c0,0,48.4,91.8,50.1,102.8s-36.9,8.8-36.9,8.8S1586.3-4.8,1577-20
	S1560.7-71.8,1606.3-55.9z"/>
<path id="XMLID_567_" class="st4" d="M801.2,154.3c0,0-9.9-1-12.7-11.5l-3.8,4.5c2.4,8.7,12.8,13,12.8,13L801.2,154.3L801.2,154.3z"
	/>
<path id="XMLID_135_" class="st10" d="M1214.8,127.1h-255c-4.4,0-7.9-3.6-7.9-7.9v-165c0-4.4,3.6-7.9,7.9-7.9h255.1
	c4.4,0,7.9,3.6,7.9,7.9v165C1222.8,123.5,1219.2,127.1,1214.8,127.1z"/>
<path id="XMLID_134_" class="st14" d="M1214.8,127.1L1214.8,127.1c-4.4,0-7.9-3.6-7.9-7.9v-165c0-4.4,3.6-7.9,7.9-7.9l0,0
	c4.4,0,7.9,3.6,7.9,7.9v165C1222.8,123.5,1219.2,127.1,1214.8,127.1z"/>
<polygon id="XMLID_77_" class="st11" points="1095.9,163.9 1044.5,163.9 1049.5,36.7 1100.9,36.7 "/>
<polygon id="XMLID_76_" class="st14" points="1088.9,163.9 1037.5,163.9 1042.6,36.7 1094,36.7 "/>
<path id="XMLID_4_" class="st4" d="M848.1-60.2c0,0,13.8,21.9,29.5,0.1l-9.5,41l-20-38.6V-60.2z"/>
</svg>
