<?xml version="1.0" encoding="iso-8859-1"?>
<!-- Generator: Adobe Illustrator 19.0.0, SVG Export Plug-In . SVG Version: 6.00 Build 0)  -->
<svg version="1.1" id="Capa_1" xmlns="http://www.w3.org/2000/svg" xmlns:xlink="http://www.w3.org/1999/xlink" x="0px" y="0px"
	 viewBox="0 0 511.881 511.881" style="enable-background:new 0 0 511.881 511.881;" xml:space="preserve">
<path style="fill:#D7E9FF;" d="M334.563,319.137l-10.638,32.789h-80.22l-10.08-35.75
	C268.336,319.855,302.571,320.816,334.563,319.137z"/>
<path style="fill:#5C9EFF;" d="M149.728,301.782l-17.758,18.151H51.989v-52.308v-0.078
	C82.142,282.099,115.416,293.463,149.728,301.782z"/>
<path style="fill:#94C1FF;" d="M131.97,159.971l17.598,17.996c-34.234,8.318-67.348,19.597-97.579,34.07v-52.066H131.97z"/>
<path style="fill:#AC92EC;" d="M149.568,177.967c166.438-40.311,358.313-10.076,358.313,61.907
	c0,45.669-75.825,74.303-173.318,79.263c-31.992,1.679-66.227,0.718-100.938-2.961c-27.993-2.96-56.307-7.678-83.897-14.395
	c-34.312-8.318-67.586-19.683-97.739-34.234c-17.116-8.162-33.19-17.355-47.988-27.673c14.798-10.318,30.954-19.597,47.988-27.759
	v-0.078C82.22,197.564,115.334,186.286,149.568,177.967z"/>
<path style="fill:#94C1FF;" d="M149.568,177.967c166.438-40.311,358.313-10.076,358.313,61.907
	c0,45.669-75.825,74.303-173.318,79.263c-31.992,1.679-66.227,0.718-100.938-2.961c-27.993-2.96-56.307-7.678-83.897-14.395
	c-34.312-8.318-67.586-19.683-97.739-34.234c-17.116-8.162-33.19-17.355-47.988-27.673c14.798-10.318,30.954-19.597,47.988-27.759
	v-0.078C82.22,197.564,115.334,186.286,149.568,177.967z"/>
<path style="fill:#5C9EFF;" d="M334.563,303.14C137.969,310.538,4.001,239.875,4.001,239.875
	c14.798,10.317,30.872,19.511,47.988,27.673c30.153,14.552,63.427,25.916,97.739,34.234c27.591,6.717,55.904,11.435,83.897,14.395
	c34.711,3.679,68.945,4.64,100.938,2.961c97.493-4.96,173.318-33.594,173.318-79.263c0-2.664-0.344-5.249-0.858-7.803
	C498.494,272.961,426.135,299.696,334.563,303.14z"/>
<path style="fill:#D7E9FF;" d="M334.563,176.749C137.969,169.352,4.001,240.015,4.001,240.015
	c14.798-10.318,30.872-19.511,47.988-27.673c30.153-14.551,63.427-25.916,97.739-34.234c27.591-6.717,55.904-11.435,83.897-14.396
	c34.711-3.679,68.945-4.639,100.938-2.96c97.493,4.96,173.318,33.594,173.318,79.263c0,2.663-0.344,5.249-0.858,7.803
	C498.494,206.929,426.135,180.193,334.563,176.749z"/>
<path style="fill:#94C1FF;" d="M331.939,327.213l2.624-8.076c-31.992,1.679-66.227,0.718-100.938-2.961l2.312,8.201
	C268.922,327.759,301.407,328.681,331.939,327.213z"/>
<g style="opacity:0.5;">
	<path style="fill:#FFFFFF;" d="M235.938,324.378l7.768,27.549h7.998l-7.568-26.838
		C241.398,324.838,238.679,324.659,235.938,324.378z"/>
</g>
<path style="fill:#D7E9FF;" d="M311.772,239.945c0,15.465-12.536,27.993-27.993,27.993c-15.458,0-27.994-12.528-27.994-27.993
	c0-15.458,12.536-27.994,27.994-27.994C299.236,211.951,311.772,224.487,311.772,239.945z"/>
<g>
	<path style="fill:#116FFF;" d="M252.18,339.921c-2.206,0-4.038-1.789-4.038-4c0-2.21,1.75-3.998,3.96-3.998h0.078
		c2.21,0,3.999,1.788,3.999,3.998C256.179,338.132,254.39,339.921,252.18,339.921z"/>
	<path style="fill:#116FFF;" d="M268.18,339.921c-2.21,0-4.038-1.789-4.038-4c0-2.21,1.75-3.998,3.952-3.998h0.086
		c2.203,0,3.999,1.788,3.999,3.998C272.179,338.132,270.383,339.921,268.18,339.921z"/>
	<path style="fill:#116FFF;" d="M284.176,339.921c-2.21,0-4.038-1.789-4.038-4c0-2.21,1.75-3.998,3.953-3.998h0.085
		c2.203,0,3.999,1.788,3.999,3.998C288.175,338.132,286.379,339.921,284.176,339.921z"/>
	<path style="fill:#116FFF;" d="M300.173,339.921c-2.211,0-4.039-1.789-4.039-4c0-2.21,1.75-3.998,3.953-3.998h0.086
		c2.202,0,3.998,1.788,3.998,3.998C304.171,338.132,302.376,339.921,300.173,339.921z"/>
	<path style="fill:#116FFF;" d="M316.169,339.921c-2.211,0-4.039-1.789-4.039-4c0-2.21,1.75-3.998,3.953-3.998h0.086
		c2.202,0,3.999,1.788,3.999,3.998C320.169,338.132,318.372,339.921,316.169,339.921z"/>
	<path style="fill:#116FFF;" d="M4.004,243.874c-1.266,0-2.511-0.602-3.288-1.719c-1.262-1.812-0.812-4.304,1-5.561
		c137.979-96.024,379.43-96.399,468.666-49.77c27.15,14.176,41.498,32.523,41.498,53.05c0,2.21-1.788,3.999-3.999,3.999
		c-2.21,0-3.999-1.789-3.999-3.999c0-21.925-20.229-37.101-37.202-45.966c-87.55-45.731-324.681-45.185-460.395,49.246
		C5.59,243.639,4.794,243.874,4.004,243.874z"/>
	<path style="fill:#116FFF;" d="M305.703,323.855c-104.733,0-225.485-26.072-303.986-80.7c-1.812-1.258-2.262-3.749-1-5.561
		c1.254-1.812,3.757-2.257,5.569-1c135.847,94.517,372.899,95.235,460.301,49.566c17.012-8.896,37.296-24.136,37.296-46.286
		c0-2.211,1.789-3.999,3.999-3.999c2.211,0,3.999,1.788,3.999,3.999c0,20.698-14.379,39.154-41.592,53.37
		C431.634,313.443,371.859,323.855,305.703,323.855z"/>
	<path style="fill:#116FFF;" d="M139.796,171.961c-1.039,0-2.073-0.398-2.858-1.203l-7.826-7.998
		c-1.543-1.578-1.516-4.108,0.062-5.655c1.577-1.531,4.112-1.516,5.654,0.062l7.827,7.998c1.542,1.578,1.515,4.108-0.062,5.655
		C141.816,171.578,140.804,171.961,139.796,171.961z"/>
	<path style="fill:#116FFF;" d="M131.97,163.962H51.989c-2.21,0-3.999-1.788-3.999-3.999c0-2.21,1.789-3.999,3.999-3.999h79.981
		c2.211,0,3.999,1.789,3.999,3.999C135.969,162.174,134.181,163.962,131.97,163.962z"/>
	<path style="fill:#116FFF;" d="M51.989,202.68c-2.21,0-3.999-1.789-3.999-3.999v-38.718c0-2.21,1.789-3.999,3.999-3.999
		c2.211,0,3.999,1.789,3.999,3.999v38.718C55.988,200.891,54.2,202.68,51.989,202.68z"/>
	<path style="fill:#116FFF;" d="M131.97,323.925c-1.008,0-2.019-0.383-2.796-1.141c-1.578-1.547-1.605-4.077-0.062-5.655
		l7.826-7.998c1.555-1.577,4.077-1.593,5.655-0.062c1.577,1.547,1.604,4.077,0.062,5.655l-7.827,7.998
		C134.044,323.527,133.009,323.925,131.97,323.925z"/>
	<path style="fill:#116FFF;" d="M131.97,323.925H51.989c-2.21,0-3.999-1.789-3.999-4c0-2.21,1.789-3.998,3.999-3.998h79.981
		c2.211,0,3.999,1.788,3.999,3.998C135.969,322.136,134.181,323.925,131.97,323.925z"/>
	<path style="fill:#116FFF;" d="M51.989,323.925c-2.21,0-3.999-1.789-3.999-4v-38.834c0-2.211,1.789-3.999,3.999-3.999
		c2.211,0,3.999,1.788,3.999,3.999v38.834C55.988,322.136,54.2,323.925,51.989,323.925z"/>
	<path style="fill:#116FFF;" d="M139.968,243.874H51.989c-2.21,0-3.999-1.789-3.999-3.999c0-2.211,1.789-3.999,3.999-3.999h87.979
		c2.211,0,3.999,1.788,3.999,3.999C143.967,242.085,142.179,243.874,139.968,243.874z"/>
	<path style="fill:#116FFF;" d="M491.885,243.874h-15.996c-2.21,0-3.999-1.789-3.999-3.999c0-2.211,1.789-3.999,3.999-3.999h15.996
		c2.21,0,3.999,1.788,3.999,3.999C495.884,242.085,494.095,243.874,491.885,243.874z"/>
	<path style="fill:#116FFF;" d="M491.885,227.948c-0.602,0-1.211-0.133-1.788-0.422l-15.997-7.998
		c-1.976-0.992-2.772-3.39-1.788-5.366c1-1.968,3.39-2.772,5.365-1.789l15.996,7.998c1.977,0.992,2.773,3.39,1.789,5.366
		C494.759,227.135,493.346,227.948,491.885,227.948z"/>
	<path style="fill:#116FFF;" d="M475.889,267.938c-1.461,0-2.874-0.812-3.577-2.21c-0.984-1.977-0.188-4.374,1.788-5.366
		l15.997-7.998c1.976-0.984,4.373-0.188,5.365,1.788c0.984,1.977,0.188,4.374-1.789,5.366l-15.996,7.998
		C477.1,267.805,476.491,267.938,475.889,267.938z"/>
	<path style="fill:#116FFF;" d="M243.69,355.918c-1.746,0-3.347-1.148-3.847-2.914l-7.748-27.478
		c-0.598-2.124,0.641-4.335,2.765-4.937c2.137-0.594,4.339,0.641,4.937,2.766l7.748,27.478c0.598,2.124-0.641,4.335-2.765,4.937
		C244.417,355.871,244.049,355.918,243.69,355.918z"/>
	<path style="fill:#116FFF;" d="M323.925,355.918h-80.231c-2.21,0-3.999-1.789-3.999-3.999c0-2.211,1.789-3.999,3.999-3.999h80.231
		c2.21,0,3.999,1.788,3.999,3.999C327.924,354.129,326.135,355.918,323.925,355.918z"/>
	<path style="fill:#116FFF;" d="M323.925,355.918c-0.406,0-0.828-0.062-1.234-0.195c-2.102-0.68-3.249-2.938-2.569-5.038
		l7.998-24.643c0.679-2.101,2.952-3.249,5.038-2.569c2.101,0.68,3.249,2.937,2.569,5.037l-7.998,24.643
		C327.182,354.839,325.612,355.918,323.925,355.918z"/>
	<path style="fill:#116FFF;" d="M260.975,260.026c-1.262,0-2.503-0.594-3.28-1.703c-3.765-5.381-5.753-11.7-5.753-18.292
		c0-14.044,9.396-26.65,22.847-30.673c2.147-0.625,4.342,0.578,4.982,2.687c0.633,2.117-0.578,4.351-2.687,4.983
		c-10.098,3.008-17.144,12.474-17.144,23.003c0,4.936,1.488,9.678,4.304,13.699c1.273,1.812,0.828,4.305-0.98,5.569
		C262.568,259.792,261.768,260.026,260.975,260.026z"/>
	<path style="fill:#116FFF;" d="M291.933,270.867c-1.727,0-3.32-1.125-3.836-2.858c-0.625-2.116,0.578-4.343,2.695-4.976
		c10.091-2.999,17.137-12.458,17.137-23.002c0-4.804-1.414-9.443-4.094-13.419c-1.241-1.828-0.757-4.312,1.078-5.545
		c1.805-1.242,4.304-0.758,5.546,1.078c3.577,5.296,5.468,11.481,5.468,17.887c0,14.059-9.396,26.673-22.854,30.672
		C292.69,270.812,292.308,270.867,291.933,270.867z"/>
	<path style="fill:#116FFF;" d="M291.621,251.715c-1.023,0-2.047-0.391-2.828-1.172l-15.684-15.684
		c-1.562-1.562-1.562-4.093,0-5.655s4.093-1.562,5.655,0l15.684,15.684c1.562,1.562,1.562,4.093,0,5.655
		C293.667,251.325,292.643,251.715,291.621,251.715z"/>
	<path style="fill:#116FFF;" d="M275.936,236.032c-1.022,0-2.046-0.391-2.827-1.172c-1.562-1.562-1.562-4.093,0-5.655l31.992-31.993
		c1.562-1.562,4.093-1.562,5.655,0s1.562,4.093,0,5.655l-31.992,31.992C277.983,235.641,276.96,236.032,275.936,236.032z"/>
	<path style="fill:#116FFF;" d="M259.628,283.708c-1.022,0-2.046-0.391-2.827-1.171c-1.562-1.562-1.562-4.094,0-5.655l31.992-31.993
		c1.562-1.562,4.093-1.562,5.655,0s1.562,4.093,0,5.655l-31.993,31.993C261.674,283.317,260.651,283.708,259.628,283.708z"/>
</g>
<g>
</g>
<g>
</g>
<g>
</g>
<g>
</g>
<g>
</g>
<g>
</g>
<g>
</g>
<g>
</g>
<g>
</g>
<g>
</g>
<g>
</g>
<g>
</g>
<g>
</g>
<g>
</g>
<g>
</g>
</svg>
