<?xml version="1.0" encoding="utf-8"?>
<!-- Generator: Adobe Illustrator 19.0.0, SVG Export Plug-In . SVG Version: 6.00 Build 0)  -->
<svg version="1.1" id="Calque_1" xmlns="http://www.w3.org/2000/svg" xmlns:xlink="http://www.w3.org/1999/xlink" x="0px" y="0px"
	 viewBox="0 0 180 170" style="enable-background:new 0 0 180 170;" xml:space="preserve">
<style type="text/css">
	.st0{fill:none;stroke:#19AD87;stroke-width:4;stroke-linecap:round;stroke-linejoin:round;stroke-miterlimit:10;}
	.st1{fill:none;stroke:#4C626E;stroke-width:5;stroke-miterlimit:10;}
</style>
<g id="currency">
	<polyline id="XMLID_144_" class="st0" points="106.8,47.6 134.8,37.3 138.4,47.2 	"/>
	<rect id="XMLID_445_" x="24.6" y="48" class="st1" width="130.9" height="91"/>
	<rect id="XMLID_160_" x="36" y="59.4" class="st0" width="108.1" height="68.3"/>
	<path id="XMLID_157_" class="st0" d="M53,59.4c0,9.4-7.6,17.1-17.1,17.1"/>
	<path id="XMLID_156_" class="st0" d="M141.2,76.5c-9.4,0-17.1-7.6-17.1-17.1"/>
	<path id="XMLID_147_" class="st0" d="M124.1,127.7c0-9.4,7.6-17.1,17.1-17.1"/>
	<path id="XMLID_146_" class="st0" d="M36,110.6c9.4,0,17.1,7.6,17.1,17.1"/>
	<polyline id="XMLID_145_" class="st1" points="75.8,48 141.6,22.7 150.5,47.3 	"/>
	<path id="XMLID_143_" class="st0" d="M96.2,83.1c0,0-1.9-3.9-6.6-4c-7.4-0.1-10.6,10.5-1.9,13.5c13.6,4.7,8.7,15.6,2,15.7
		c-5.6,0.1-7.8-3.8-8.1-4.3"/>
	<line id="XMLID_142_" class="st0" x1="89.3" y1="74.4" x2="89.5" y2="113.2"/>
</g>
</svg>
