<?xml version="1.0" encoding="utf-8"?>
<!-- Generator: Adobe Illustrator 19.0.0, SVG Export Plug-In . SVG Version: 6.00 Build 0)  -->
<svg version="1.1" id="Calque_1" xmlns="http://www.w3.org/2000/svg" xmlns:xlink="http://www.w3.org/1999/xlink" x="0px" y="0px"
	 viewBox="0 0 155.6 115" style="enable-background:new 0 0 155.6 115;" xml:space="preserve">
<style type="text/css">
	.st0{fill:none;stroke:#CDCCCC;stroke-width:3;stroke-miterlimit:10;}
	.st1{fill:none;stroke:#CDCCCC;stroke-miterlimit:10;}
	.st2{fill:none;stroke:#CDCCCC;stroke-width:2;stroke-miterlimit:10;}
	.st3{fill:#FFFFFF;stroke:#1DAE88;stroke-miterlimit:10;}
	.st4{opacity:0.2;fill:none;stroke:#514F4F;stroke-width:2;stroke-linejoin:round;stroke-miterlimit:10;}
</style>
<path id="XMLID_574_" class="st0" d="M112.4,37.9c0-2.8-2.4-4.9-5.3-4.9H6.9C4,33,1.6,35,1.6,37.9V111h110.7V37.9z"/>
<path id="XMLID_573_" class="st0" d="M-7.9,111v5.3c0,2.8,3.9,5.1,7.1,5.1h115.4c3.3,0,6.2-2.2,6.2-5.1V111H-7.9z"/>
<rect id="XMLID_572_" x="8.2" y="39.1" class="st1" width="97" height="64.4"/>
<line id="XMLID_571_" class="st2" x1="50.8" y1="116.7" x2="63.6" y2="116.7"/>
<polyline id="XMLID_562_" class="st2" points="8.4,86 39.5,67 68.9,80.9 105.1,56.1 "/>
<circle id="XMLID_561_" class="st3" cx="39.3" cy="68.3" r="4.3"/>
<circle id="XMLID_560_" class="st3" cx="69.7" cy="80.4" r="4.3"/>
<polygon id="XMLID_559_" class="st3" points="109.5,55.2 69.8,55.2 69.8,66.6 87.5,66.6 89.8,70.6 92.2,66.6 109.5,66.6 "/>
<line id="XMLID_558_" class="st4" x1="73.5" y1="59" x2="85.9" y2="59"/>
<line id="XMLID_556_" class="st4" x1="73.5" y1="63.2" x2="105.7" y2="63.2"/>
<polygon id="XMLID_555_" class="st3" points="84.9,25.7 45.2,25.7 45.2,37.1 63,37.1 65.4,41.1 67.7,37.1 84.9,37.1 "/>
<line id="XMLID_554_" class="st4" x1="81.1" y1="33.3" x2="68.8" y2="33.3"/>
<line id="XMLID_553_" class="st4" x1="81.1" y1="29" x2="48.9" y2="29"/>
<polygon id="XMLID_552_" class="st3" points="21.5,95.4 61.2,95.4 61.2,84.1 43.4,84.1 41,80 38.7,84.1 21.5,84.1 "/>
<line id="XMLID_551_" class="st4" x1="25.3" y1="87.9" x2="37.6" y2="87.9"/>
<line id="XMLID_550_" class="st4" x1="25.3" y1="92.1" x2="57.5" y2="92.1"/>
<polygon id="XMLID_549_" class="st3" points="43.7,46.7 4.4,46.7 4.4,58 21.4,58 24.4,63.1 27.3,58 43.7,58 "/>
<line id="XMLID_548_" class="st4" x1="7.8" y1="50.5" x2="20.5" y2="50.5"/>
<line id="XMLID_547_" class="st4" x1="7.8" y1="54.3" x2="40.4" y2="54.3"/>
</svg>
