<?xml version="1.0" encoding="utf-8"?>
<!-- Generator: Adobe Illustrator 19.0.0, SVG Export Plug-In . SVG Version: 6.00 Build 0)  -->
<svg version="1.1" id="Calque_1" xmlns="http://www.w3.org/2000/svg" xmlns:xlink="http://www.w3.org/1999/xlink" x="0px" y="0px"
	 viewBox="0 0 180 170" style="enable-background:new 0 0 180 170;" xml:space="preserve">
<style type="text/css">
	.st0{fill:none;stroke:#4C616D;stroke-width:5;stroke-miterlimit:10;}
	.st1{fill:none;stroke:#4C616D;stroke-width:4;stroke-miterlimit:10;}
	.st2{fill:none;stroke:#1CAE88;stroke-width:4;stroke-linecap:round;stroke-linejoin:round;stroke-miterlimit:10;}
</style>
<g id="XMLID_148_">
	<polyline id="XMLID_154_" class="st0" points="26,31.7 29.4,31.7 122.7,31.7 	"/>
	<polyline id="XMLID_155_" class="st0" points="122.7,128.3 29.4,128.3 26,128.3 	"/>
	<circle id="XMLID_151_" class="st1" cx="76" cy="141.7" r="3.3"/>
	<polyline id="XMLID_149_" class="st2" points="122.7,41.7 156,71.7 162.7,121.7 169.4,138.3 	"/>
	<path id="XMLID_152_" class="st0" d="M122.7,98.3v43.3c0,7.4-6,13.3-13.3,13.3h-70C32,155,26,149,26,141.7v-110v-3.3
		C26,21,32,15,39.4,15h70c7.4,0,13.3,6,13.3,13.3v30"/>
	<path id="XMLID_150_" class="st2" d="M139.4,88.3l-19.3-18.8c-3.3-3.3-8.5-3.3-11.8,0l0,0c-3.3,3.3-3.3,8.5,0,11.8l25.9,25.9
		c0,0-11.1,19,1.8,34.4"/>
</g>
</svg>
