<?xml version="1.0" encoding="utf-8"?>
<!-- Generator: Adobe Illustrator 19.0.0, SVG Export Plug-In . SVG Version: 6.00 Build 0)  -->
<svg version="1.1" id="Calque_1" xmlns="http://www.w3.org/2000/svg" xmlns:xlink="http://www.w3.org/1999/xlink" x="0px" y="0px"
	 viewBox="0 0 180 170" style="enable-background:new 0 0 180 170;" xml:space="preserve">
<style type="text/css">
	.st0{opacity:0.3;fill:none;stroke:#4C626E;stroke-width:5;stroke-miterlimit:10;}
	.st1{fill:none;stroke:#19AD87;stroke-width:4;stroke-linecap:round;stroke-linejoin:round;stroke-miterlimit:10;}
</style>
<g id="XMLID_845_">
	<g id="home_33_">
	</g>
	<g id="home-1_33_">
	</g>
	<g id="home-2_33_">
	</g>
	<g id="home-3_33_">
	</g>
	<g id="home-4_33_">
	</g>
	<g id="door_33_">
	</g>
	<g id="window_33_">
	</g>
	<g id="home-5_33_">
	</g>
	<g id="home-6_33_">
	</g>
	<g id="home-7_33_">
	</g>
	<g id="home-8_33_">
	</g>
	<g id="office_33_">
	</g>
	<g id="four-floors_33_">
	</g>
	<g id="classic-pillers_33_">
	</g>
	<g id="church_33_">
	</g>
	<g id="detached-church_33_">
	</g>
	<g id="wind-mill_33_">
	</g>
	<g id="light-house_67_">
	</g>
	<g id="light-house_66_">
	</g>
	<g id="light-house-2_33_">
	</g>
	<g id="Trash_House-shutter_33_">
	</g>
	<g id="Trash_House_33_">
	</g>
	<g id="Layer_1_33_">
	</g>
	<g id="tree-3_33_">
	</g>
	<g id="tree-2_33_">
	</g>
	<g id="tree-1_33_">
	</g>
	<g id="tree_33_">
	</g>
	<g id="round-tree-1_33_">
	</g>
	<g id="round-tree_33_">
	</g>
	<g id="triangle-tree-1_33_">
	</g>
	<g id="triangle-tree_33_">
	</g>
	<g id="ellips-tree-1_33_">
	</g>
	<g id="ellipse-tree_33_">
	</g>
	<g id="skyscraper-3_33_">
	</g>
	<g id="long-story-house_33_">
	</g>
	<g id="skyscrapers-1_33_">
	</g>
	<g id="skyscraper_33_">
	</g>
	<g id="large-building-7_33_">
	</g>
	<g id="larg-building-6_33_">
	</g>
	<g id="small-flat_33_">
	</g>
	<g id="green-building_33_">
	</g>
	<g id="squar-building_33_">
	</g>
	<g id="bank_33_">
	</g>
	<g id="gate-house-2_33_">
	</g>
	<g id="gate-house_33_">
	</g>
	<g id="pak-mahal_33_">
	</g>
	<g id="Indian-mahal_33_">
	</g>
	<g id="chinees-arch_33_">
	</g>
	<g id="cathedral_33_">
	</g>
	<g id="pizza_33_">
	</g>
	<g id="chinees_33_">
	</g>
	<g id="large-factory_33_">
	</g>
	<g id="factory_33_">
	</g>
	<g id="villa_33_">
	</g>
	<g id="shope-2_33_">
	</g>
	<g id="shop_33_">
	</g>
	<g id="snow-home-3_33_">
	</g>
	<g id="snow-home-2_33_">
	</g>
	<g id="snow-home_33_">
	</g>
	<g id="small-store_33_">
	</g>
	<g id="frontage-mid_33_">
	</g>
	<g id="bricks-house_33_">
	</g>
	<g id="old-house_33_">
	</g>
	<g id="pillers-gate-2_33_">
	</g>
	<g id="pillers-gate-1_33_">
	</g>
	<g id="pillers-gate_33_">
	</g>
	<g id="dome-pillers_33_">
	</g>
	<g id="garden-piller-1_33_">
	</g>
	<g id="graden-pillers_33_">
	</g>
	<g id="temple-gate_33_">
	</g>
	<g id="chinees-gate_33_">
	</g>
	<g id="central-museum_33_">
	</g>
	<g id="mosque_33_">
	</g>
	<g id="garden-wall_33_">
	</g>
	<g id="fire_33_">
	</g>
	<g id="pyramid_33_">
	</g>
	<g id="large-building-5_33_">
	</g>
	<g id="large-building-4_33_">
	</g>
	<g id="large-buildin-3_33_">
	</g>
	<g id="large-building-2_33_">
	</g>
	<g id="large-building-1_33_">
	</g>
	<g id="large-building_33_">
	</g>
	<g id="facto-house-1_33_">
	</g>
	<g id="facto-house_33_">
	</g>
	<g id="golf-area_33_">
	</g>
	<g id="playground_33_">
	</g>
	<g id="block-store_33_">
	</g>
	<g id="favorite_33_">
	</g>
	<g id="open-store_33_">
		<path id="XMLID_855_" class="st0" d="M89.3,75.4c0,7.8-6.4,14.2-14.2,14.2s-14.2-6.4-14.2-14.2"/>
		<path id="XMLID_854_" class="st0" d="M60.9,75.4c0,7.8-6.4,14.2-14.2,14.2s-14.2-6.4-14.2-14.2l9.6-28.7c0.7-2.2,2.8-3.7,5.1-3.7
			h84.1c2.3,0,4.4,1.5,5.1,3.7l9.6,28.7c0,7.8-6.4,14.2-14.2,14.2c-7.8,0-14.2-6.4-14.2-14.2"/>
		<path id="XMLID_853_" class="st0" d="M117.7,75.4c0,7.8-6.4,14.2-14.2,14.2s-14.2-6.4-14.2-14.2"/>
		<line id="XMLID_852_" class="st0" x1="138" y1="94.3" x2="138" y2="88.9"/>
		<path id="XMLID_851_" class="st0" d="M40.7,88.9v46c0,3,2.4,5.4,5.4,5.4H111"/>
		<path id="XMLID_850_" class="st0" d="M48.8,40.2v-8.1c0-3,2.4-5.4,5.4-5.4h70.3c3,0,5.4,2.4,5.4,5.4v8.1"/>
		<polyline id="XMLID_849_" class="st0" points="89.3,137.6 89.3,102.4 97.4,102.4 		"/>
		<polyline id="XMLID_848_" class="st0" points="78.5,102.4 78.5,118.6 51.5,118.6 51.5,102.4 		"/>
		<circle id="XMLID_847_" class="st1" cx="121.8" cy="115.9" r="25.7"/>
		<polyline id="XMLID_846_" class="st1" points="111,118.6 119.1,124.1 132.6,107.8 		"/>
	</g>
	<g id="close-store_33_">
	</g>
	<g id="locate-house_33_">
	</g>
	<g id="store_33_">
	</g>
	<g id="block-house_33_">
	</g>
	<g id="success-house_33_">
	</g>
	<g id="load-house_33_">
	</g>
	<g id="move-house_33_">
	</g>
	<g id="close-house_33_">
	</g>
	<g id="add-house_33_">
	</g>
	<g id="house_33_">
	</g>
	<g id="Trash_House-door_33_">
	</g>
	<g id="verticle-wall_33_">
	</g>
</g>
</svg>
