<?xml version="1.0" encoding="utf-8"?>
<!-- Generator: Adobe Illustrator 19.0.0, SVG Export Plug-In . SVG Version: 6.00 Build 0)  -->
<svg version="1.1" xmlns="http://www.w3.org/2000/svg" xmlns:xlink="http://www.w3.org/1999/xlink" x="0px" y="0px"
	 viewBox="0 0 450 450" style="enable-background:new 0 0 450 450;" xml:space="preserve">
<style type="text/css">
	.st0{fill:#FFFFFF;stroke:#236D9B;stroke-miterlimit:10;}
	.st1{fill:#E6F7FC;stroke:#236D9B;stroke-miterlimit:10;}
	.st2{fill:#A2DFFF;stroke:#236D9B;stroke-miterlimit:10;}
	.st3{fill:#6EBDFF;stroke:#236D9B;stroke-miterlimit:10;}
	.st4{fill:#FFFFFF;stroke:#6EBDFF;stroke-miterlimit:10;}
	.st5{fill:#A2DFFF;}
	.st6{fill:#6EBDFF;stroke:#236D9B;stroke-linecap:round;stroke-linejoin:round;stroke-miterlimit:10;}
	.st7{fill:#FFFFFF;stroke:#236D9B;stroke-linecap:round;stroke-linejoin:round;stroke-miterlimit:10;}
	.st8{fill:#FFFFFF;}
	.st9{fill:#FFFFFF;stroke:#236D9B;stroke-linejoin:round;stroke-miterlimit:10;}
	.st10{fill:none;stroke:#236D9B;stroke-miterlimit:10;}
	.st11{fill:#6EBDFF;stroke:#236D9B;stroke-linejoin:round;stroke-miterlimit:10;}
	.st12{fill:none;stroke:#236D9B;stroke-linecap:round;stroke-linejoin:round;stroke-miterlimit:10;}
	.st13{fill:#6EBDFF;}
</style>
<g id="Calque_1">
</g>
<g id="Calque_2">
</g>
<g id="Calque_4">
</g>
<g id="Calque_3">
	<g>
		<rect x="64.5" y="300.2" class="st0" width="79.4" height="59"/>
		<rect x="143.9" y="260" class="st1" width="79.4" height="99.3"/>
		<rect x="84" y="332.4" class="st1" width="16" height="26.8"/>
		<rect x="100.1" y="332.4" class="st2" width="25.3" height="26.8"/>
		<rect x="116.4" y="280.3" class="st1" width="10.5" height="19.9"/>
		<rect x="126.9" y="280.3" class="st2" width="17" height="19.9"/>
		<rect x="223.3" y="219.7" class="st2" width="78.3" height="139.6"/>
		<rect x="301.6" y="178.9" class="st3" width="78.9" height="180.3"/>
		<rect x="257.7" y="328.5" class="st1" width="18" height="30.7"/>
		<rect x="275.7" y="328.5" class="st2" width="39.3" height="30.7"/>
		<rect x="265.6" y="312.9" class="st3" width="11.8" height="15.6"/>
		<rect x="277.4" y="312.9" class="st0" width="18" height="15.6"/>
		<line class="st0" x1="20.4" y1="359.2" x2="429.6" y2="359.2"/>
		<line class="st4" x1="40.2" y1="366.1" x2="247.8" y2="366.1"/>
		<line class="st4" x1="260.3" y1="366.1" x2="394.2" y2="366.1"/>
		<line class="st4" x1="79.6" y1="370.9" x2="175.9" y2="370.9"/>
		<line class="st4" x1="194.7" y1="370.9" x2="282.1" y2="370.9"/>
		<line class="st4" x1="297.6" y1="370.9" x2="317.1" y2="370.9"/>
		<line class="st4" x1="155.2" y1="377.1" x2="236.3" y2="377.1"/>
		<line class="st4" x1="257.7" y1="377.1" x2="275.7" y2="377.1"/>
		<line class="st4" x1="327.2" y1="370.9" x2="361.7" y2="370.9"/>
		<path class="st5" d="M61.9,268.9L167.2,186c2.2-1.7,5.4-0.8,6.4,1.7l7.2,18.5c1.2,3.1,5.3,3.6,7.2,0.9l50.5-71
			c1.1-1.5,3.1-2.1,4.9-1.4l22.6,9c1.3,0.5,2.7,0.3,3.8-0.4L360,81.4h-8.2c-2.2,0-4-1.7-4.1-4l0-0.3c-0.1-2.3,1.8-4.3,4.1-4.3h22.1
			c2.8,0,4.8,2.8,3.9,5.4l-7.9,23.5c-0.7,1.9-2.6,3.1-4.7,2.7l-0.1,0c-2.5-0.5-4-3-3.1-5.4l3.6-10.4l-95.9,65
			c-1.1,0.8-2.6,0.9-3.8,0.4l-20.1-8c-1.8-0.7-3.8-0.1-4.9,1.4l-55.3,76.5c-1.9,2.6-6,2.1-7.2-0.9l-8.6-21.7c-1-2.6-4.2-3.4-6.4-1.7
			L67,275.4c-1.8,1.4-4.3,1.1-5.8-0.7h0C59.8,273,60.1,270.4,61.9,268.9z"/>
		<path class="st6" d="M392.6,352.1l-0.5,2.2c0,0-4.2,2.6-4.3,4.4h11.6v-7.1L392.6,352.1z"/>
		<path class="st6" d="M408.1,351.7v2.6l-3.4,2.9v1.7h11.9c0,0,0.6-1.2-0.6-2.7s-1.6-4.4-1.6-4.4H408.1z"/>
		<path class="st6" d="M309.7,212.9c0,0-0.3-1.3,0.6-1.8c1-0.5,8.6-4.4,9.7-5.3s6.1-0.4,6.1-0.4s1,7.7,0,8.2s-16.4,0-16.4,0
			L309.7,212.9z"/>
		<path class="st6" d="M323.3,212.9l0.7-1.5c0,0,8.6-4.8,10.2-5.2c1.6-0.4,4.1-0.4,4.1-0.4h1c0,0,0.7,5.6,0.3,6.6
			c-0.3,1-0.9,1.2-0.9,1.2h-15.5V212.9z"/>
		<path class="st6" d="M327.4,207.3c0,0,2.5-23.8,1.9-26.7c0,0,6.6,0.3,8.2-0.7c1.5-1,1.3-10.4,1.3-10.4h-16.6c0,0-1.8,1.9-3.2,5
			s-2.1,32.8-2.1,32.8H327.4z"/>
		<path class="st2" d="M330.4,207.3l1.9-33.3c0,0,0.1-3.7,4.7-4.2c4.6-0.5,17.7-3.5,17.7-3.5h10.7c0,0,0,7.2-0.4,8.1
			c-0.4,0.9-1,4.5-3.3,5.3l-18.8-0.2c0,0-1.6,24.9-2.5,27.5L330.4,207.3z"/>
		<path class="st7" d="M379.9,108.3c0,0-1.9-1.1-1.8-3.1c0.1-2,1.8-1.9,1.8-1.9l1.2,1.8l0.4-3.9l5.6,1c0,0,1.7,4.5,0.7,5.3
			c-1,0.8-2.5,3-2.5,3h-3.7L379.9,108.3z"/>
		<polygon class="st7" points="349.8,131.6 349.8,126.9 356.7,126.3 356.7,131.6 		"/>
		<path class="st2" d="M189.4,352.6c0,0,0,4.8,0,5.4s11.5,0,11.5,0s-7.2-6.4-7.7-6.6S189.4,352.6,189.4,352.6z"/>
		<path class="st2" d="M166.9,358.2c0,0-0.2-1.5,0-2.3s2.9-4.6,2.9-4.6h4.7c0,0,2.1,5.1,2.8,5.4c0.6,0.4,0.4,1.5,0.4,1.5H166.9z"/>
		<path class="st0" d="M167.6,306.4c0,0-1.9,7.1-0.8,8.6c1.1,1.5,2.8,1.4,2.8,1.4l0.9-5.3c0,0,2.6,3.1,2.6,3.8c0,0.6,1.4-4,1.4-4
			l-5.3-6.6L167.6,306.4z"/>
		<polygon class="st8" points="99,196 99.6,206.4 105.8,206.4 105.8,195.6 99.2,196 		"/>
		<path class="st2" d="M118.5,271.7c0,0-0.9,6.5,0,7.8l13,0.4l3.6-2.4c0,0-14.7-4-15-5.2C119.8,271.1,118.5,271.7,118.5,271.7z"/>
		<path class="st2" d="M98.7,292.5v7.7h16.1c0,0,0.2-1-0.6-2c-0.8-1-11.9-3.8-12.2-4.9C101.7,292.1,98.7,292.5,98.7,292.5z"/>
		<path class="st6" d="M107.7,246.7c-2.8,1.5-2.1,1.2-2.8,1.5c-0.1,0-0.1,0.7-0.2,1.9c-0.3,8.7,0.2,44,0.2,44h-7.3l-2.8-55.6H115
			l0.8,4.4c0,0,9.8,6.1,10.8,8.3c1,2.2-1.9,22.4-1.9,22.4H117c0,0,2.1-13.8,2.2-17.1l-14.9-8.1"/>
		<rect x="129.8" y="185.8" class="st0" width="10.7" height="94"/>
		<polygon class="st7" points="140.5,185.5 135.1,173.5 129.8,185.5 		"/>
		<line class="st2" x1="132.5" y1="179.3" x2="137.7" y2="179.3"/>
		<path class="st0" d="M119.4,217.3l-1.3,19.2c-0.2,3.1-2.8,5.5-5.8,5.5H97.8c-3.1,0-5.6-2.4-5.8-5.5l-1.7-25.1c0,0-2.4-7.4,3-7.4
			h23.6c0,0,3.4-0.1,5.3,3c1.9,3.2,7.7,9.5,7.7,9.5v8.3C129.8,224.8,125.6,227.6,119.4,217.3z"/>
		<path class="st0" d="M99.8,213.4c0,0,6.4,9.3,7.1,9.9c0.7,0.6,20.4-3.1,20.4-3.1l1,8.8c0,0-15.4,4.3-23.2,3.3
			s-14.6-18.9-14.6-18.9"/>
		<path class="st9" d="M99.3,204v-4.2l-1.1-11.6l6-1.7l3.4,0.7l1-0.7l2.8,4.6l-0.6,2.6l2.5,1.5l-1.5,0.9l-1.1,4.2
			c0,0-0.7,1.6-2.6,1.4s-5.4-1.5-5.4-1.5"/>
		<line class="st10" x1="105.8" y1="204" x2="105.8" y2="201.2"/>
		<path class="st11" d="M103,197.6c0.7-1.3,0.7-1.3,0.7-1.3s-1.6,0.2-2.2-1.8c-0.6-2,2.2-1.4,2.2-1.4l1.1,0.4l-0.3-2.2
			c0,0,1-1.5,2-1.8s4.4-0.4,4.8-0.9c0.5-0.5,2.2-1.5,2.4-2.8s-9.7-3.6-11.7-3.1c-1.9,0.5-5.4,1.7-6,5.9c0,0-2.4,3.3,1.2,8.4
			c0,0,2.2,3.9,2.7,4.2C100.6,201.6,103,197.6,103,197.6z"/>
		<path class="st11" d="M118.5,211.5c0,0,0.9,4.7,0.9,5.8"/>
		<path class="st6" d="M172.2,315.3c0,0-0.6-9.7,0-10.6c0.6-0.9,19.6,0,19.6,0l1.2,0.8c0,0,3.2,26.7,3.1,34.8
			c-0.1,8.1,0,13.5,0,13.5h-7.7c0,0-2.2-35.7-3.5-39.7c0,0-2.2-0.3-3.8-1.5c0,0-1.6,35.7-4.2,41.2h-9
			C168,353.9,172,322.5,172.2,315.3z"/>
		<path class="st0" d="M215.2,253.2v-5.7l1.2-0.7v-4h1.9v3l1.6-6.8c0,0,1.1-0.6,1.3,0.5c0.2,1.1,0,5.6,0,5.6l3.3,3.5
			c0,0-1.8,5.3-3.3,5.9C219.7,255.2,215.2,253.2,215.2,253.2z"/>
		<path class="st0" d="M178.1,272.8v-0.4v-9.1l-1.4-4.7l4.6-5.8l4,1c0,0,3.6-0.4,4.4,4.8c0,0,1.2,2.6,2,2.7c0.8,0.1-0.4,1.2-0.4,1.2
			l-1.2,0.3c0,0,0.3,3.9-0.4,4.5c-0.7,0.6-3.2,0.6-4.3,0.5c-1-0.1,0,5.7,0,5.7l-5,1.8"/>
		<path class="st6" d="M186.8,259.8c0,0-1.7-1.7-2.8,0c-1.2,1.7,1.4,2.6,1.4,2.6l-0.4,2c0,0-2.5,2.9-5.5,2.9c-3,0-4.7-2.9-5.7-4.7
			c-1-1.8-0.6-5.7-0.5-6.3c0.1-0.6-3.1-2.6-0.8-5.5c2.4-2.9,5-0.8,5-0.8s1.3,0.9,1.2,1.4c0,0,3.2-2.1,7.3,0.5s1.5,3.6,1.5,3.6
			l-1.7,0.8c0,0-0.2,0.8,0.3,1.3C186.5,258.2,186.8,259.8,186.8,259.8z"/>
		<path class="st0" d="M94,204c0,0,3.7,2.2,4.3,6.7"/>
		<path class="st2" d="M173.5,308.4"/>
		<path class="st2" d="M172.8,276.3c-0.3,0.6-3,28.5-3,29.3s0.8,2.1,1.9,2.5c1.1,0.4,21.6,0.3,22.5-0.8c1-1.1-2.4-17.3-2.4-17.3
			s0-1.6,0.7-2.6c0.6-1,2.4-1.7,2.6-6.2c0,0,13.6-1.7,15.9-3.6c0,0,11.8-22.1,11.3-22.9c-0.5-0.8-8-2.5-8-2.5
			c-0.4,0.6-9.2,16.6-9.2,16.6s-2.2,1.9-10.6,2.8c-8.4,1-18.8,0-18.8,0s-4.1,0.6-5.3,3.5s-4.3,31.7-4.3,31.7s-0.3,1.2,0.6,1.5
			c0,0,4.8,1,5.3,0.9"/>
		<line class="st2" x1="192" y1="281.2" x2="195.2" y2="281.1"/>
		<path class="st6" d="M181.2,312.6c0,0-2-0.9-2.2-1.5"/>
		<path class="st7" d="M325.8,161.1c0,0,10.4-16.2,10.4-19.2c0,0-0.6-7.2,5.8-7.7c6.5-0.6,5.6-0.6,5.6-0.6l0-2.3v-0.9H360v2.7
			l7.4-0.1c0,0,8-1.7,9.7-4.8c1.7-3.1,2.1-18.7,2.1-18.7s6.1-1,7.5,0c1.4,1-1.1,22.8-1.4,23.2c-0.3,0.4-5,7.5-16.3,8.6l-1.2,26.1
			c0,0-0.9,2.6-2.1,2.5c-1.2-0.1-23.9,0-23.9,0s0.5-13.8,0.1-14.9c0,0-6.4,11.1-9,11.5C330.2,166.9,325.8,161.1,325.8,161.1z"/>
		<path class="st12" d="M347.5,133.5c0,0,4.1,0.2,5.8,0"/>
		<path class="st12" d="M340.4,141.5c0,0,0.5,10.4,1.3,13.4"/>
		<rect x="379.6" y="98.1" class="st7" width="2.3" height="5.3"/>
		<rect x="382.5" y="98.6" class="st7" width="1.9" height="5.3"/>
		<rect x="385.1" y="99.3" class="st7" width="1.7" height="4.4"/>
		<rect x="387.4" y="100.7" class="st7" width="1.6" height="3.3"/>
		<path class="st7" d="M347.5,113.7l-0.3,12.7c0,0,1.6,2.3,4.1,2.3c2.6,0,6.8-1.2,6.8-1.8c0.1-0.6,0-13.4,0-13.4l-4.4-2.8
			L347.5,113.7z"/>
		<path class="st11" d="M347.3,122.4c0,0,8.1,0.8,10.9-0.9l0,5.3c0,0-7.3,4.5-11-0.5L347.3,122.4z"/>
		<path class="st7" d="M358.4,118.8c0.9,0,1.6,0.7,1.6,1.6c0,0.9-0.7,1.6-1.6,1.6"/>
		<path class="st7" d="M347.3,118.7c-0.9,0-1.6,0.7-1.6,1.6s0.7,1.6,1.6,1.6"/>
		<path class="st11" d="M348.3,117.6c0,0-1.8,1-2.4-0.6s0.2-5.6,0.2-5.6s1.9-3.3,3.9-1.7c0,0,1.2,3.1,0.5,3.8
			c-0.8,0.7-1.6,1.6-1.6,1.6L348.3,117.6z"/>
		<path class="st11" d="M350,109.9c0,0,2.9-3.5,6-2c3.2,1.6,3.6,2.8,3.8,3.6s1.1,4.8,0,6c-1.1,1.2-2.6,1.1-2.6,1.1s-0.8-1.2-0.8-2
			c-0.1-0.7-2.7-4.1-5.7-3.6C350.7,113.1,350.7,110.6,350,109.9z"/>
		<polygon class="st11" points="300.3,152.9 324.5,152.9 334.5,167.3 309.9,167.3 		"/>
		<rect x="309.9" y="167.3" class="st11" width="24.6" height="2.5"/>
		<rect x="334.5" y="167.3" class="st11" width="15" height="2.5"/>
		<path class="st12" d="M394.9,282.3c0,0-4.5,11.2-5.5,12.1"/>
		<path class="st2" d="M391.4,300.5l-0.6,52.8h9.5v-40c0,0,1.7-0.1,2.2-0.4s0,16.6,0,16.6s1.8,18.5,3.3,23.8h10.1
			c0,0-3.6-23.8-5-26.4s0.6-20.6,0.3-25.3C410.9,296.9,391.4,300.5,391.4,300.5z"/>
		<path class="st12" d="M402.5,312.9c0,0,1.5-0.9,2.2-2.2"/>
		<path class="st0" d="M365.7,288c0,0-0.8-1.7,0-2.2c0.8-0.6,0.3-3.7,1-3.5c0.6,0.2,1-0.1,1.4,0.9c0.4,1,0.8,6.6,1.6,7.1
			c0.8,0.6,1.2,2.9,1.2,2.9s-7.8-1.5-8.4-3.7s-0.8-4.7-0.5-4.7s1.2-0.8,1.2-0.8s0.1-1.2,0.5-1.7l2.4-0.8"/>
		<path class="st0" d="M405.9,266.6l-0.3,6.8h-9.2c0,0,3.7-4.6,3.1-5.8c0,0-4.7,0.1-5.3-0.4c-0.5-0.5-0.7-3.4-0.7-4
			c0.1-0.6-1.4-0.4-1.4-0.4s0.5-2.4,1.1-2.8l0.3-2.4c0,0,0.5-4.1,1.8-4.4c1.2-0.4,9.1-0.3,9.1-0.3s1.6,2.5,1.5,2.7
			C405.8,255.8,405.9,266.6,405.9,266.6z"/>
		<path class="st6" d="M393.2,253.3c0,0,1.4,2.5,3,2.1s1.7,3.1,1.7,3.1l-0.6,1.6c0,0,0.7-1.7,2.5-0.6c1.8,1-0.6,2.8-0.6,2.8
			s-1.1,0.9-0.3,1.7c0.7,0.8,4.3,3,5.3,3s5.9-5.7,5.7-6.8c-0.2-1.1,1.8-6-1.7-8.2c0,0-1.4-2.4-3.2-2.7c-1.8-0.3-2.4-0.3-4.6-0.3
			c-2.2,0-2.6,0.7-3.5,0.7s-3.3-0.3-4,0c-0.7,0.3-0.8,1.4-0.8,1.4S391.8,252.7,393.2,253.3z"/>
		<path class="st6" d="M363.3,275.5c0,0.4,6,18.9,6,18.9l18.5-3.2l-3-15.7H363.3z"/>
		<polygon class="st2" points="366.3,277.9 371.3,291 385.4,289.4 382.8,277.2 366.1,277.2 		"/>
		<path class="st0" d="M378.9,282.3c0,0,3-1.9,3.3-2c0.4-0.1,0.1,1.7,0,2.3c-0.1,0.6,1,1,2.9,0.9s4.9-2.9,4.9-2.9l-0.5-2.2
			c0,0-7.2-0.8-7.9-0.3c-0.8,0.5-3.5,2.5-3.7,2.7s-0.4,1.8,0,1.9S378.9,282.3,378.9,282.3z"/>
		<path class="st0" d="M367.4,295.2c0,0,0-5.9,3.5-8.6c0,0,8.6,3.6,9.4,3.6s6.9-15.5,8.3-17c1.4-1.5,19.8-2.4,24.3-1.1
			c0,0,2.3,0.5,1,10.9c-1.2,10.4-0.1,18.4-0.1,18.4s-1.5,1.9-2.4,2.1c0,0-18.6,0.3-20.6-0.4c-1.9-0.7-1.4-8.8-1.4-8.8
			s-1.8,5.6-3.9,5.6c0,0-2.6,0.9-6.8-0.6C374.6,298,368,296.4,367.4,295.2z"/>
		<path class="st0" d="M389.4,294.4c0,0,2.3-5.8,3.1-9.4"/>
		<rect x="135" y="186.3" class="st5" width="2.5" height="93.2"/>
		<rect x="137.5" y="186.3" class="st13" width="2.5" height="93.2"/>
		<path class="st0" d="M127.4,221.5c-0.6,0,0.8,6.1,0.8,6.1s5.1-0.7,6.9-3c1.8-2.3,0-2.3,0-2.3l1.8-1.5l-1.8-1.8h-5.3L127.4,221.5z"
			/>
	</g>
</g>
</svg>
