<?xml version="1.0" encoding="utf-8"?>
<!-- Generator: Adobe Illustrator 19.0.0, SVG Export Plug-In . SVG Version: 6.00 Build 0)  -->
<svg version="1.1" id="Calque_1" xmlns="http://www.w3.org/2000/svg" xmlns:xlink="http://www.w3.org/1999/xlink" x="0px" y="0px"
	 viewBox="-674 376 450 450" style="enable-background:new -674 376 450 450;" xml:space="preserve">
<style type="text/css">
	.st0{fill:none;stroke:#C5EDF9;stroke-width:3;stroke-linecap:round;stroke-miterlimit:10;}
	.st1{fill:#236D9B;}
	.st2{fill:#B8DFF2;}
	.st3{fill:#6EBDFF;stroke:#236D9B;stroke-miterlimit:10;}
	.st4{fill:#FFFFFF;stroke:#236D9B;stroke-linecap:round;stroke-miterlimit:10;}
	.st5{fill:#B9E5EF;stroke:#236D9B;stroke-linecap:round;stroke-miterlimit:10;}
	.st6{fill:#C5EDF9;stroke:#236D9B;stroke-linecap:round;stroke-miterlimit:10;}
	.st7{fill:#A2DFFE;stroke:#236D9B;stroke-miterlimit:10;}
	.st8{fill:none;stroke:#236D9B;stroke-miterlimit:10;}
	.st9{fill:none;stroke:#6EBDFF;stroke-linecap:round;stroke-miterlimit:10;}
	.st10{fill:none;stroke:#236D9B;stroke-linecap:round;stroke-miterlimit:10;}
	.st11{fill:#FFFFFF;}
	.st12{fill:#36AAEA;stroke:#236D9B;stroke-miterlimit:10;}
	.st13{fill:#FFFFFF;stroke:#236D9B;stroke-miterlimit:10;}
</style>
<g id="Calque_5">
</g>
<g id="Calque_6">
</g>
<g id="Calque_7">
</g>
<g id="Calque_8">
</g>
<rect x="-596" y="471.5" class="st0" width="293" height="125"/>
<rect x="-389.6" y="567" class="st1" width="11.3" height="5.6"/>
<rect x="-389.6" y="578.3" class="st1" width="11.3" height="5.3"/>
<rect x="-372.6" y="578.3" class="st2" width="11.3" height="5.3"/>
<rect x="-355.5" y="578.3" class="st2" width="11.3" height="5.3"/>
<path class="st3" d="M-574.5,579.2c0,0-4.4,2.5-5.7,1.6c-1.3-0.9-2.1-5.1-2.3-6.7c-0.2-1.5-2-5.3-1.9-7.8c0.1-2.5,0-12.1,12.1-15
	c0,0,5.8-1.2,15.9-0.6c0,0,1.5,0.6,0,4.9c0,0,2.2,3.3,1.8,6.3c-0.4,3-2.8,10.3-2.8,10.3l-9.7,2.4L-574.5,579.2z"/>
<polygon class="st4" points="-574.5,590.7 -573.3,580.8 -564.6,582.5 -563.6,583.2 -564.1,591.6 "/>
<path class="st5" d="M-560.6,589.6c0,0,4.9-2.1,8.3-1.5c3.4,0.6,9.2,6.9,9.2,6.9l6.8,10.1l-3.9,15.8l-26.2-6.1L-560.6,589.6z"/>
<path class="st3" d="M-587.1,651.2c0,0-2.4,11.5,10.7,18.9c0,0,4.2,1,6.5,1c2.3,0,35.6,0,35.6,0l16.8,44.7h20.9l-27.2-59.6l-25-1.7
	L-587.1,651.2z"/>
<path class="st3" d="M-317.4,592.4l0.4-30.6c0,0,2.3-12.3,15.5-13.6c0,0,14.2-0.5,17.7,14v33.1l-14.7,2.3l-16.7-2.4L-317.4,592.4z"
	/>
<polygon class="st4" points="-305.3,579.5 -305.3,591.2 -294.6,591.2 -295.7,578.7 "/>
<path class="st5" d="M-348.7,628.2l25.9-35.5c0,0,5.3-6.6,9.2-2.4c3.9,4.2,2.9,13.2,2.9,13.2l-5.9,1.3l-15,20.5h6l0.1,11.1h-23.2
	C-348.7,636.4-352.4,631.3-348.7,628.2z"/>
<path class="st6" d="M-281.6,624.1l0.3-16.6l12.6,17.6l-12.8-0.5l-4.9-0.2v12l26.5,0.2c10.8-3.1,5.3-11.5,5.3-11.5l-18.9-26.1
	c-4.5-9.7-12.8-11-12.8-11s-17.3,0.3-24.7,0c-7.4-0.3-8.6,6.8-8.6,6.8v58.5h38.2l0.2-16"/>
<path class="st4" d="M-325.6,627.9c0,0,4-0.7,5.4,0c1.5,0.7,6.8,4.5,7.8,7.5s0,1.3,0,1.3l-13.1-0.3L-325.6,627.9z"/>
<path class="st4" d="M-344.5,671.1l-3.2,2.1l-19.9,36.1l0.2,6.5c0,0-15.2,3.5-16.4,3.2c-1.2-0.3-2.1-2.2-2.1-2.2s5.9-6,8.7-8.1
	c2.7-2.1,14.9-46.5,14.9-46.5s13.8-8.9,16.2-9c2.4-0.1,19.9,0,19.9,0l-2.6,8.5"/>
<path class="st7" d="M-386,716.8c0,0-5.7,3.9-6.1,4.9c-0.3,1-0.2,2.5-0.2,2.5s20.5-1.3,24.1-2.7s0.7-5.8,0.7-5.8l-16.4,3.2
	C-383.8,718.9-386.4,717.2-386,716.8z"/>
<path class="st6" d="M-279.5,677.6h-51c-0.8,0-1.5-0.7-1.5-1.5v-6c0-0.8,0.7-1.5,1.5-1.5h51c0.8,0,1.5,0.7,1.5,1.5v6
	C-278,676.9-278.7,677.6-279.5,677.6z"/>
<path class="st6" d="M-299.5,686.9H-310c-0.2,0-0.3-0.1-0.3-0.3V678c0-0.2,0.1-0.3,0.3-0.3h10.5c0.2,0,0.3,0.1,0.3,0.3v8.6
	C-299.2,686.7-299.3,686.9-299.5,686.9z"/>
<rect x="-309.1" y="686.9" class="st3" width="8.2" height="18.3"/>
<rect x="-310.3" y="705.1" class="st6" width="11.2" height="6.8"/>
<path class="st3" d="M-329.4,715.9c0,0-0.1-3.3,3.5-3.7c3.6-0.4,42.9-0.3,42.9-0.3s3.4,1.5,3,4H-329.4z"/>
<circle class="st3" cx="-325.6" cy="720.8" r="3.7"/>
<circle class="st3" cx="-304.7" cy="720.8" r="3.7"/>
<circle class="st3" cx="-284" cy="720.8" r="3.7"/>
<path class="st6" d="M-538.9,680.5h-51c-0.8,0-1.5-0.7-1.5-1.5v-6c0-0.8,0.7-1.5,1.5-1.5h51c0.8,0,1.5,0.7,1.5,1.5v6
	C-537.4,679.8-538.1,680.5-538.9,680.5z"/>
<path class="st6" d="M-558.8,686.9h-10.5c-0.2,0-0.3-0.1-0.3-0.3v-5.8c0-0.2,0.1-0.3,0.3-0.3h10.5c0.2,0,0.3,0.1,0.3,0.3v5.8
	C-558.5,686.7-558.7,686.9-558.8,686.9z"/>
<rect x="-568.4" y="686.9" class="st3" width="8.2" height="18.3"/>
<rect x="-569.7" y="705.1" class="st6" width="11.2" height="6.8"/>
<path class="st3" d="M-588.8,715.9c0,0-0.1-3.3,3.5-3.7c3.6-0.4,42.9-0.3,42.9-0.3s3.4,1.5,3,4H-588.8z"/>
<circle class="st3" cx="-585" cy="720.8" r="3.7"/>
<circle class="st3" cx="-564.1" cy="720.8" r="3.7"/>
<path class="st4" d="M-330,636.4c0,0,0.6-4.8,5.8-4.8c5.2,0.1,41.8,0,41.8,0v5L-330,636.4z"/>
<circle class="st3" cx="-543.4" cy="720.8" r="3.7"/>
<line class="st8" x1="-292" y1="573.7" x2="-290.6" y2="573.6"/>
<path class="st4" d="M-292.3,569l1.6-0.2c-0.3,0-2.5-0.6-3.6-6c-1-5.2-7.4-5.4-7.4-5.4c-2.8,5.4-10,5.2-10,5.2v12.2
	c0,0,1.7,8.5,10.7,8.7c9.1,0.2,10.4-8.4,10.4-8.4v-1.6c0,0,2.4-0.2,2-2.8c-0.3-2.6-2.2-2-2.2-2"/>
<path class="st9" d="M-299.2,566.6c0,0,2.4-0.6,3.2,0"/>
<path class="st9" d="M-309.4,566.5c0,0,3.1-0.4,3.5,0"/>
<path class="st8" d="M-304.2,578.3c0,0,0.8,1.3,4.5,0"/>
<path class="st8" d="M-304.2,573.7c0,0,0.8,0.7,2.5,0"/>
<circle class="st1" cx="-307.3" cy="569.7" r="0.7"/>
<circle class="st1" cx="-297.8" cy="569.7" r="0.8"/>
<path class="st8" d="M-301.7,554.3"/>
<path class="st8" d="M-314,562.5"/>
<path class="st8" d="M-288.8,565.7"/>
<path class="st8" d="M-303.2,557.8"/>
<path class="st6" d="M-587.1,637.3V654l38.3,0.5v-58.9c0,0,1.3-6.2-7.1-7.7c-8.4-1.6-27,0-27,0s-5.2,1.5-10.1,8.1
	c-4.9,6.6-20.9,29.4-20.9,29.4s-3.7,5.1,1.3,8.9c0,0,0,1.1,4.2,2.3l26.5,0.2v-11.6l-17.7,0.2l12.6-17.1v16.6"/>
<line class="st8" x1="-505.1" y1="715.8" x2="-514.4" y2="688.9"/>
<path class="st4" d="M-582,625.2h4.7l7.3,6.8c0,0-0.2,2.6-1.4,2.7c-1.2,0.1-2.6,1.1-3.6,0.6c-1-0.6-1.7,0.7-2.8,0.2
	c-1.1-0.5-2.3,0.6-2.3,0.6h-1.9v-10.3V625.2z"/>
<line class="st8" x1="-578.6" y1="628.9" x2="-574.4" y2="635"/>
<line class="st8" x1="-579.9" y1="631.4" x2="-577.9" y2="635"/>
<path class="st4" d="M-553.6,636.8h47.6l8.2-35c0,0-46.1-0.3-48,0c-1.9,0.3-3.4,4.8-3.4,4.8l-5.2,30.2h-9h-5.4l-0.7-3.3l11.7-0.3
	l5.4-28.4c0,0,1.3-5.5,11.5-3.9"/>
<path class="st4" d="M-557.2,563.4l0.5,6.8c0,0,2.4,0.4,2.1,2.7c-0.3,2.4-2.6,2.9-2.6,2.9c-0.5,4.5-4,6.7-4,6.7s-4.4,3.4-10.3,1.9
	s-7-9-7-9s-1.1-0.3-1.2-2.3c-0.1-2,1.2-2.6,1.2-2.6l-0.1-5.3c0,0,1.2-3.1,4.1-3.8s7.6,0.6,11.1-0.4c3.5-1.1,4-1.9,4-1.9
	S-556.9,561.9-557.2,563.4z"/>
<circle class="st1" cx="-570.4" cy="571.2" r="0.9"/>
<circle class="st1" cx="-561.3" cy="571.2" r="0.9"/>
<line class="st9" x1="-572.9" y1="567.6" x2="-568.7" y2="567.6"/>
<line class="st9" x1="-562.8" y1="568" x2="-559.4" y2="568"/>
<path class="st8" d="M-565.3,568.6l1.7,5.7c0,0,0.6,2.2-0.3,2.2c-0.9,0-2.2,0-2.2,0"/>
<line class="st10" x1="-578.5" y1="570.7" x2="-576.4" y2="570.7"/>
<line class="st10" x1="-578.5" y1="575.5" x2="-577" y2="575.5"/>
<path class="st8" d="M-559.4,559.3c0,0,1.2-1.1,1.7-2.2"/>
<path class="st8" d="M-569.5,579.1c0,0,2.1,1.8,4.9,0.4"/>
<path class="st4" d="M-301.6,633.2l6.2-7.8h9.1v11l-6.2,0.2v-1.1c0,0-1.8,0-2-1.5l-1.4,1.6c0,0-2,0.4-2.3-1.3
	C-298.2,634.4-301.7,635.8-301.6,633.2z"/>
<line class="st8" x1="-298.2" y1="634.4" x2="-294.1" y2="628.9"/>
<line class="st8" x1="-294.6" y1="634.1" x2="-290.9" y2="628.9"/>
<line class="st8" x1="-292.5" y1="635.6" x2="-288.9" y2="630.8"/>
<path class="st3" d="M-333.3,653.3h51.9c0,0,1.1,12.7-13.9,14.6h-38.1v-14.6H-333.3z"/>
<path class="st7" d="M-370.4,717.8c0,0-5.7,2.5-5.9,4.5c-0.2,2,5.9,1.9,5.9,1.9l14.7-2c0,0,6.5-4.4,7-4.9c0.5-0.6-3.1-5.6-3.2-6.1"
	/>
<path class="st4" d="M-370.4,717.8c0,0,4.7-5.7,9.1-6.6l14.6-50.6c0,0,3.2-8.3,13.4-7.3v14.6c0,0-18.3,40-18.5,41s0,3.1,0,3.1
	s-11.1,7.1-15.3,7S-370.4,717.8-370.4,717.8z"/>
<path class="st8" d="M-299.7,553c0,0,0.3,2.2-2.3,4.9"/>
<path class="st11" d="M-551.2,622.8c0,0,2.2-20.6,5.5-20.3s4.5,0,4.5,0l-7.5,20.6L-551.2,622.8z"/>
<g>
	<rect x="-620.6" y="636" class="st4" width="351.4" height="9.5"/>
	<line class="st10" x1="-614.8" y1="645.5" x2="-614.8" y2="725.2"/>
	<line class="st10" x1="-604.5" y1="645.5" x2="-604.5" y2="725.2"/>
	<line class="st10" x1="-294.9" y1="645.5" x2="-294.9" y2="724.9"/>
	<line class="st10" x1="-284.4" y1="645.5" x2="-284.4" y2="724.9"/>
	<path class="st6" d="M-339.6,579.2c0,0,7.1-0.9,8.3,3.5v35.1c0,0-2.2,5.3-7.7,3.5s-16.3-14.1-16.3-14.1L-339.6,579.2z"/>
	<polygon class="st10" points="-352.2,618.8 -352.2,625.3 -344.2,634 -343.8,636 -378.2,636 -369.5,616.6 	"/>
	<path class="st4" d="M-397,585.2v36.1h58c0,0,4.9-0.8,4-7l0.1-31.4c0,0-0.8-3.9-4.7-3.8c-3.9,0.1-55,0-55,0s-2.5,0.9-2.5,3.5
		C-397,585.2-397,585.2-397,585.2z"/>
</g>
<g>
	<polygon class="st7" points="-429.7,718.7 -407,710.9 -403.2,710.9 -400.1,724.3 -429.7,724.7 	"/>
	<path class="st4" d="M-473.9,602.2c0,0,1.4-2,2.1-2.5c0.7-0.6,8.6-4.9,8.6-4.9s0.6-0.3,1.2,0c0.6,0.3,5.3-3.3,5.3-3.3
		s2.8-1.8,2.7,2.1c0,0-6.4,6.9-8.1,7.8s-4.3,2.4-4.3,2.4l-2.8,3.4L-473.9,602.2z"/>
	<path class="st10" d="M-467.1,600.5l5.1-3.3c0,0,0.7-1.7,0-2.5"/>
	<path class="st4" d="M-515.2,665.4l14.2-0.5c0,0-8.1,42.3-8.7,44c-0.6,1.7,10.7,6.7,10,8.2c-0.6,1.5-16.8-2.4-16.8-2.4l-2-2.4
		c0,0,0.9-41.8,1.8-43.3c1-1.5,1.2-4.1,1.2-4.1"/>
	<path class="st4" d="M-495.8,657.6c0,0,6.5-2.2,11.4,2.6c5,4.7-3.4,30.4-3.4,30.4l-3.3,18.3l9.4,8.4c0,0-0.4,1.4-2.9,1.4
		s-15-5.8-15-5.8l1.8-50.3L-495.8,657.6z"/>
	<path class="st7" d="M-518.5,712.3l-0.6,12h3.1l1-4.3c0,0,11.4,6.3,20.7,4.5c0,0,1.8-3.9-2.2-6s-4.1-2.9-4.1-2.9s2.7,2-0.6,1.7
		c-3.3-0.3-15.2-2.7-15.2-2.7L-518.5,712.3z"/>
	<path class="st4" d="M-525.3,590.2v-14.4l-3.4-13.8l16.3-7.1l5.4,0.8l3.4,12.7l-2.6,1.8c0,0-0.1,1.5-0.4,2.4
		c-0.3,0.9,0.4,5.3-5.2,6c-5.6,0.8-1.5,2.3-1.5,2.3L-514,591L-525.3,590.2z"/>
	<path class="st3" d="M-506.6,550.5c0,0-6.3-5.5-17.9-3.2s-13.4,20.3-13.4,20.3s-0.3,11.3,0.6,14.6c0,0,25.3,1.9,29,0.3
		c0,0-2.7-11.4-2.3-12.5c0,0-1.7-1.1-1.6-3.7c0.2-2.6,2.1-2.7,2.1-2.7s-0.1-5.8,4.2-8.8C-505.9,554.9-504.9,552.5-506.6,550.5z"/>
	<path class="st10" d="M-452.6,632.8c0,0-0.9,3.4,0,3.4s16.8,0,16.8,0v-2.7l-3.7-1.2L-452.6,632.8z"/>
	<path class="st4" d="M-450.5,630.2c0.4-0.2,10.3-3.8,10.3-3.8l6.6,0.6l0.6,5.7c0,0-4.1,0.8-6.6,0.5s-6.1,1.1-6.1,1.1l-2.3-1
		l-3.3-1.3L-450.5,630.2z"/>
	<line class="st10" x1="-448.8" y1="633" x2="-439.5" y2="629.6"/>
	<path class="st12" d="M-412.1,664l-1.5,48.9h12.3c0,0,6.1-46.4,5.2-50.2C-397,658.8-412.1,664-412.1,664z"/>
	<path class="st7" d="M-455.1,721.1c0.3-0.4,24.5-9.6,24.5-9.6l7.1-0.6l1.3,4.3v9.6l-32.2-0.5C-454.5,724.3-457,723.4-455.1,721.1z"
		/>
	<path class="st4" d="M-389.6,589.1l0.4-6.6c0,0-6.8-2.6-7.4-9.8c0,0-2.4-0.9-2.7-2.4c-0.4-1.5,3.1-7.7,3.1-7.7l-1.1-2.1
		c0,0-0.4-6.3,2.7-8.1c3.1-1.8,16.8-1.9,16.8-1.9l5.8,5.6l-0.9,17.3l-4.4,3.9l-0.1,13l-11.4,1.2L-389.6,589.1z"/>
	<path class="st10" d="M-383.7,583.7c0,0-4.8-0.3-5.5-1.2"/>
	<path class="st10" d="M-392.3,574.9c0,0-0.5,1-3.6,0.9"/>
	<line class="st9" x1="-395.2" y1="560.5" x2="-390" y2="560.3"/>
	<circle class="st1" cx="-392" cy="564.5" r="1.2"/>
	<path class="st3" d="M-398.7,543.6c0,0-2.7,7.8,3.9,10.8l11.6,0.4c0,0,4.9,5.7,3.3,9.7l-0.1,1.2c0,0,5.9,2,0.7,5.7
		c0,0-0.3,5.8-1.1,7.2c-0.8,1.4,7.7,1,9.5-1.1c1.8-2.1,3.2-9.8,3.2-9.8s3.9-8.8-0.5-16.1s-12.3-8.4-12.3-8.4l-17.9-0.2L-398.7,543.6
		z"/>
	<path class="st3" d="M-545,651.5l-1.8,13.1l6.5,6.6h42l6.6-14.2c0,0-28.6-4.9-33.5-5.5c-4.9-0.6-13.7,0-13.7,0H-545z"/>
	<path class="st7" d="M-499.6,712.9l-0.4,11.3h3.8l0.2-4.3c0,0,9.8,4.9,15.4,4.3c5.6-0.5,5.6-0.5,5.6-0.5s0.9-3.9-3.5-5.1
		s-3.2-1.2-3.2-1.2s-0.8,1.5-2.9,1.4C-486.8,718.6-499.6,712.9-499.6,712.9z"/>
	<path class="st3" d="M-434.6,713.9h12.9c0,0,4-40.9,3.9-42.7c-0.2-1.8,56.6,0,56.6,0v-25.5l-36.7-1.3l-5.4,10.1h-19.9
		c0,0-10.3,5.3-9.4,13.5C-431.6,676.3-434.6,713.9-434.6,713.9z"/>
	<path class="st6" d="M-403.3,654.5h43.9v-58.9c0,0-0.1-7.4-11.2-8.4c-11.2-1.1-28.8,0-28.8,0s-5.7,2.7-6.6,8.7
		c-0.9,5.9-11.5,27.2-11.5,27.2s-14,2.5-18.8,1.9c0,0,0.9,10.3,0.3,11s25.4,0.3,25.4,0.3s5.9-5,7.1-7.4c1.2-2.4,1.2,3.6,1.2,3.6
		L-403.3,654.5z"/>
	<line class="st10" x1="-391.4" y1="604.1" x2="-403.5" y2="628.7"/>
	<line class="st10" x1="-509.1" y1="607" x2="-505.2" y2="616.1"/>
	<path class="st6" d="M-548.8,658.1l9.3-63.2c0,0,3.8-7.2,10.5-7.4c6.7-0.2,24.9,0,24.9,0s4.6,2.4,5.6,5.9s10.8,24.3,10.8,24.3
		l11.9-17.6l7.8,7.9c0,0-12.3,22.2-13.2,23.6c-0.9,1.4-3.7,4.9-8.2,4.9s-7.9-3.8-7.9-3.8l-7.8-16.6c0,0-3,5.7-5.9,7.2l-4.2,29.4
		l-17.2-0.5L-548.8,658.1z"/>
</g>
<line class="st10" x1="-509.1" y1="604.5" x2="-505.2" y2="616.6"/>
<polygon class="st13" points="-544.9,677.1 -544.3,724.4 -541.8,724.4 -539.7,675.8 "/>
<polygon class="st13" points="-515.1,677.3 -513.4,725 -510.9,725 -510.9,676.9 "/>
<path class="st7" d="M-557.4,626.8l6,50.3c0,0-0.3,4.3,4.3,4h38.8c0,0,2.5-0.7,2.5-3.6c0.1-2.9,0-3.7,0-3.7s0-2.7-3.4-2.6
	c-3.4,0.1-6.3,0.2-6.3,0.2l-9.2-45.6c0,0-0.4-2.6-4.1-2.2c-3.8,0.4-26.9,0-26.9,0S-558,623.7-557.4,626.8z"/>
<line class="st8" x1="-514.6" y1="675.2" x2="-515.5" y2="671.4"/>
<path class="st7" d="M-355.1,680.9h-47.8c0,0-3.3-0.1-3-3.3c0.3-3.2,0-3.5,0-3.5s0.2-3,3.5-2.7c3.3,0.3,14.5,0,14.5,0l9.5-45.5
	c0,0,0.7-2.4,3.2-2.3c2.5,0.2,28.3,0.4,28.3,0.4s1.7,0.2,1.2,3.3s-6.3,50.8-6.3,50.8S-352,681.2-355.1,680.9z"/>
<line class="st8" x1="-389" y1="674.9" x2="-387.9" y2="671.4"/>
<path class="st7" d="M-373.8,687.9h-10.5c-0.1,0-0.3-0.1-0.3-0.3v-6.4c0-0.1,0.1-0.3,0.3-0.3h10.5c0.1,0,0.3,0.1,0.3,0.3v6.4
	C-373.5,687.8-373.7,687.9-373.8,687.9z"/>
<rect x="-383" y="687.9" class="st3" width="8.1" height="17.9"/>
<path class="st7" d="M-374,712.4h-10.2c-0.2,0-0.4-0.2-0.4-0.4v-5.8c0-0.2,0.2-0.4,0.4-0.4h10.2c0.2,0,0.4,0.2,0.4,0.4v5.8
	C-373.5,712.2-373.7,712.4-374,712.4z"/>
<path class="st7" d="M-403.6,716.7c0,0,1.2-4.3,4.1-4.3s42.3,0,42.3,0s2.8,1.3,3.1,4.1L-403.6,716.7z"/>
<circle class="st7" cx="-399.6" cy="720.7" r="3.2"/>
<circle class="st7" cx="-378.8" cy="720.7" r="3.2"/>
<circle class="st7" cx="-358.1" cy="720.7" r="3.2"/>
<line class="st10" x1="-659" y1="725.2" x2="-239" y2="725.2"/>
<polyline class="st0" points="-572.9,537.5 -519.3,514.5 -481.7,543 -442.1,525.5 -422.2,534 -359.4,506 -317.4,524.5 "/>
</svg>
