<?xml version="1.0" encoding="utf-8"?>
<!-- Generator: Adobe Illustrator 19.0.0, SVG Export Plug-In . SVG Version: 6.00 Build 0)  -->
<svg version="1.1" id="Calque_1" xmlns="http://www.w3.org/2000/svg" xmlns:xlink="http://www.w3.org/1999/xlink" x="0px" y="0px"
	 viewBox="102 20.9 800 800" style="enable-background:new 102 20.9 800 800;" xml:space="preserve">
<style type="text/css">
	.st0{fill:#F55F44;}
	.st1{fill:#0F7CFF;}
	.st2{fill:#555362;}
	.st3{fill:#FFFFFF;}
	.st4{fill:#DFDFDF;}
	.st5{fill:#CBCACA;}
	.st6{fill:#14D4B4;}
	.st7{fill:none;stroke:#50A5A5;stroke-miterlimit:10;}
	.st8{fill:#EEEEEF;}
	.st9{fill:#F9F9F9;}
	.st10{fill:#ECECEB;}
	.st11{fill:#C7DBFE;}
	.st12{fill:none;stroke:#484B72;stroke-miterlimit:10;}
	.st13{fill:#F4A57F;}
	.st14{fill:#F19E73;}
</style>
<g id="BACKGROUND">
</g>
<g id="DESIGN">
</g>
<g id="XMLID_848_">
	<ellipse id="XMLID_669_" class="st0" cx="408.4" cy="393.1" rx="67.6" ry="68.7"/>
	<circle id="XMLID_671_" class="st0" cx="386.8" cy="326" r="11.8"/>
	<circle id="XMLID_695_" class="st0" cx="411.7" cy="306.3" r="27.6"/>
	<circle id="XMLID_696_" class="st0" cx="439.3" cy="322.5" r="11.3"/>
	<path id="XMLID_703_" class="st1" d="M317.1,522.1c0,0,7.1-32.3,63.2-46.9s98.2,19.6,98.2,19.6s9.8,7.4,14.8,25.2
		c5,17.8,0,98.2,0,98.2H317.1V522.1z"/>
	<path id="XMLID_705_" class="st2" d="M504,646.1H309.2c-10.4,0-18.8-8.4-18.8-18.8v-97.5c0-10.4,8.4-18.8,18.8-18.8H504
		c10.4,0,18.8,8.4,18.8,18.8v97.5C522.7,637.7,514.3,646.1,504,646.1z"/>
	<circle id="XMLID_708_" class="st3" cx="406.5" cy="578.5" r="8.8"/>
	<rect id="XMLID_709_" x="124" y="646.1" class="st4" width="565.5" height="19.3"/>
	<rect id="XMLID_712_" x="147.6" y="665.4" class="st5" width="518.6" height="2.7"/>
	<rect id="XMLID_754_" x="147.6" y="668" class="st4" width="518.6" height="5"/>
	<path id="XMLID_778_" class="st6" d="M180,626.2c0,0-0.2-18.8-11.1-22.2c-10.9-3.4-1.9-12.3-1.9-12.3s5.7-7.9,2.8-15.2
		c0,0-2.4-7.2-5.2-8.7s-3.2-5.6-3.2-5.6s2.7-6.7,17.5-6.9c14.8-0.2,11.3-15.9,11.3-15.9s-2.8-11.9,5.6-11.6c0,0,11.9-2.8,17.5,7.9
		c0,0,2.4,14,5,16.8c2.5,2.7,6.1,5,6.9,5.9c0.8,0.8,5.8,5.7,3.5,13.8c0,0-7.7,12.2-9.6,14c-1.9,1.8-0.2,6-0.2,6s9.3,11.5,3.2,17.6
		c-6.2,6.2-12.7,4.3-12.7,4.3s-8.1,5.2-9,9s-0.9,7.4-0.9,7.4L180,626.2z"/>
	<g>
		<path id="XMLID_779_" class="st7" d="M194.2,624.1c0,0,9.3-52.2,4-94.6"/>
		<path id="XMLID_780_" class="st7" d="M162.9,562.1c0,0,29.1,0.9,36.6,9.9"/>
		<path id="XMLID_781_" class="st7" d="M199,582.5c0,0,10.5-14.5,28.4-17.8"/>
		<path id="XMLID_782_" class="st7" d="M197.5,600.1c0,0-12.3-5.6-31.6-2.4"/>
		<path id="XMLID_783_" class="st7" d="M196.3,610.2c0,0,14.4-6.2,24.6-2.1"/>
	</g>
	<path id="XMLID_785_" class="st8" d="M619.8,600.6c0,0,0.5-8.9-5.8-9.3c-6.3-0.4-6.5-7.9-6.5-7.9s0.7-3.3,6.2-3.3s-2-9.2-2-9.2
		s-7.3-2.7-3.6-5.4c3.8-2.7,20.1,0,20.1,0s15.4,5.3,15.7,13c0.3,7.6-5,5.8-5,5.8s1.6,2.2,0.4,3.9c-1.3,1.6-3.5,3.6-6.8,3.1
		s-5.9-0.2-6.5,1c-0.7,1.2-0.9,8.2-0.9,8.2L619.8,600.6z"/>
	<path id="XMLID_786_" class="st1" d="M643.9,605.2c6.4,0,11.6,5.2,11.6,11.6c0,6.4-5.2,11.6-11.6,11.6"/>
	<path id="XMLID_787_" class="st3" d="M643.9,610.3c3.6,0,6.5,2.9,6.5,6.5c0,3.6-2.9,6.5-6.5,6.5"/>
	<circle id="XMLID_784_" class="st9" cx="535.6" cy="490.7" r="10.8"/>
	<circle id="XMLID_788_" class="st9" cx="555" cy="455.9" r="10.4"/>
	<path id="XMLID_789_" class="st9" d="M877.6,429.9H501.9c-1.3,0-2.4-1.1-2.4-2.4V171.1c0-1.3,1.1-2.4,2.4-2.4h375.7
		c1.3,0,2.4,1.1,2.4,2.4v256.5C880,428.9,878.9,429.9,877.6,429.9z"/>
	<g id="XMLID_791_">
		<g>
			<rect x="684.7" y="348.9" class="st3" width="62.3" height="49.6"/>
		</g>
	</g>
	<rect id="XMLID_796_" x="684.7" y="348.9" class="st1" width="62.3" height="10.9"/>
	<rect id="XMLID_801_" x="702.9" y="364.5" class="st4" width="39.9" height="6"/>
	<rect id="XMLID_802_" x="710.9" y="376.4" class="st4" width="16.6" height="2.4"/>
	<rect id="XMLID_803_" x="714.5" y="387.1" class="st4" width="13.7" height="1.9"/>
	<g id="XMLID_804_">
		<g>
			<rect x="749.7" y="187.4" class="st3" width="103.8" height="123.1"/>
		</g>
	</g>
	<rect id="XMLID_805_" x="765.9" y="241.1" class="st10" width="71.2" height="3"/>
	<rect id="XMLID_806_" x="765.9" y="255.3" class="st10" width="30.3" height="3.7"/>
	<rect id="XMLID_807_" x="765.9" y="261.3" class="st10" width="71.2" height="3"/>
	<rect id="XMLID_810_" x="765.9" y="266.2" class="st10" width="71.2" height="3"/>
	<rect id="XMLID_809_" x="815" y="255.3" class="st6" width="22.1" height="3.7"/>
	<rect id="XMLID_808_" x="790.9" y="278.8" class="st1" width="22.6" height="4.5"/>
	<path id="XMLID_811_" class="st1" d="M813,221h-22c-0.4,0-0.8-0.4-0.8-0.8V209c0-0.4,0.4-0.8,0.8-0.8h22c0.4,0,0.8,0.4,0.8,0.8
		v11.3C813.8,220.7,813.4,221,813,221z"/>
	<rect id="XMLID_812_" x="798.2" y="204.9" class="st1" width="6.3" height="0.8"/>
	<rect id="XMLID_813_" x="803.7" y="204.9" class="st1" width="0.8" height="4.1"/>
	<rect id="XMLID_814_" x="798.2" y="204.9" class="st1" width="0.7" height="4.1"/>
	<g id="XMLID_815_">
		<g>
			<path class="st3" d="M722.6,274.5h-46.5c-0.6,0-1.1-0.5-1.1-1.1v-45.1c0-0.6,0.5-1.1,1.1-1.1h46.5c0.6,0,1.1,0.5,1.1,1.1v45.1
				C723.7,274,723.2,274.5,722.6,274.5z"/>
		</g>
	</g>
	<rect id="XMLID_816_" x="691.4" y="255.3" class="st11" width="17.2" height="2.5"/>
	<rect id="XMLID_817_" x="685.1" y="259.6" class="st10" width="28.6" height="2.7"/>
	<g id="XMLID_827_">
		<g id="XMLID_846_">
			<g>
				<path class="st3" d="M620.8,280.3h-80c-2.5,0-4.5-2-4.5-4.5v-73.9c0-2.5,2-4.5,4.5-4.5h80c2.5,0,4.5,2,4.5,4.5v73.9
					C625.3,278.2,623.3,280.3,620.8,280.3z"/>
			</g>
		</g>
		<path id="XMLID_845_" class="st11" d="M556,224.3h-10.2c-1.2,0-2.1-1-2.1-2.1v-8.7c0-1.2,1-2.1,2.1-2.1H556c1.2,0,2.1,1,2.1,2.1
			v8.7C558.1,223.3,557.2,224.3,556,224.3z"/>
		<rect id="XMLID_844_" x="562.6" y="211.3" class="st10" width="58.3" height="2.1"/>
		<rect id="XMLID_843_" x="562.6" y="216" class="st12" width="58.3" height="2.1"/>
		<rect id="XMLID_842_" x="542.2" y="231.5" class="st10" width="78.8" height="2"/>
		<rect id="XMLID_841_" x="542.2" y="236" class="st10" width="78.8" height="2"/>
		<rect id="XMLID_840_" x="542.2" y="241.8" class="st10" width="78.8" height="2"/>
		<rect id="XMLID_839_" x="542.2" y="252.7" class="st10" width="78.8" height="2"/>
		<rect id="XMLID_838_" x="542.2" y="257.4" class="st10" width="78.8" height="2"/>
		<rect id="XMLID_837_" x="542.2" y="263.2" class="st10" width="78.8" height="2"/>
		<rect id="XMLID_836_" x="542.2" y="246.9" class="st10" width="45.1" height="2"/>
		<rect id="XMLID_835_" x="542.2" y="267.1" class="st10" width="45.1" height="2"/>
	</g>
	<g id="XMLID_847_">
		<g id="XMLID_818_">
			<g>
				<path class="st3" d="M633,297.5h-80c-2.5,0-4.5-2-4.5-4.5v-73.9c0-2.5,2-4.5,4.5-4.5h80c2.5,0,4.5,2,4.5,4.5V293
					C637.5,295.5,635.4,297.5,633,297.5z"/>
			</g>
		</g>
		<path id="XMLID_823_" class="st11" d="M568.2,241.5H558c-1.2,0-2.1-1-2.1-2.1v-8.7c0-1.2,1-2.1,2.1-2.1h10.2c1.2,0,2.1,1,2.1,2.1
			v8.7C570.3,240.5,569.4,241.5,568.2,241.5z"/>
		<rect id="XMLID_824_" x="574.8" y="228.5" class="st10" width="58.3" height="2.1"/>
		<rect id="XMLID_826_" x="574.8" y="233.2" class="st10" width="58.3" height="2.1"/>
		<rect id="XMLID_825_" x="554.3" y="248.7" class="st10" width="78.8" height="2"/>
		<rect id="XMLID_828_" x="554.3" y="253.2" class="st10" width="78.8" height="2"/>
		<rect id="XMLID_829_" x="554.3" y="259.1" class="st10" width="78.8" height="2"/>
		<rect id="XMLID_831_" x="554.3" y="269.9" class="st10" width="78.8" height="2"/>
		<rect id="XMLID_832_" x="554.3" y="274.6" class="st10" width="78.8" height="2"/>
		<rect id="XMLID_834_" x="554.3" y="280.4" class="st10" width="78.8" height="2"/>
		<rect id="XMLID_830_" x="554.3" y="264.1" class="st10" width="45.1" height="2"/>
		<rect id="XMLID_833_" x="554.3" y="284.3" class="st10" width="45.1" height="2"/>
	</g>
	<path id="XMLID_713_" class="st1" d="M215.5,646.1h-42.6c-5.4,0-9.8-4.4-9.8-9.8v-5.1c0-5.4,4.4-9.8,9.8-9.8h42.6
		c5.4,0,9.8,4.4,9.8,9.8v5.1C225.3,641.7,220.9,646.1,215.5,646.1z"/>
	<path id="XMLID_777_" class="st1" d="M637.2,646.1h-29.3c-3.7,0-6.8-3-6.8-6.8v-42.2H644v42.2C643.9,643.1,640.9,646.1,637.2,646.1
		z"/>
	<path id="XMLID_674_" class="st13" d="M384.2,444.6l1.5,40.9c0,0,6,15,21.9,15.9s22.9-15.7,22.9-15.7v-42.3L384.2,444.6z"/>
	<path id="XMLID_694_" class="st14" d="M383.4,432.2l1.5,32.9c0,0,19.4,8.6,45.5,1v-36.2L383.4,432.2z"/>
	<path id="XMLID_670_" class="st13" d="M460.1,434.5c16-31.4,0-62.8,0-62.8c-76.1,21.1-91.7-13.1-91.7-13.1
		c-38.4,29.4-11.1,77-11.1,77s13.9,24.9,43.6,25.6C400.9,461.3,444.3,465.7,460.1,434.5z"/>
	<g id="XMLID_790_">
		<g>
			<rect x="644.6" y="329.7" class="st3" width="77.9" height="63.5"/>
		</g>
	</g>
	<rect id="XMLID_792_" x="644.6" y="329.7" class="st1" width="77.9" height="13.6"/>
	<rect id="XMLID_793_" x="651.2" y="348" class="st4" width="66.2" height="9.2"/>
	<rect id="XMLID_794_" x="654.5" y="350.6" class="st6" width="18.5" height="4"/>
	<rect id="XMLID_795_" x="651.2" y="363.6" class="st4" width="46.9" height="1.8"/>
	<rect id="XMLID_797_" x="651.2" y="367.9" class="st4" width="30.6" height="1.8"/>
	<rect id="XMLID_798_" x="651.2" y="373.5" class="st4" width="40.4" height="1.8"/>
	<rect id="XMLID_799_" x="651.2" y="377.9" class="st4" width="47.3" height="1.8"/>
	<rect id="XMLID_800_" x="651.2" y="383.1" class="st4" width="21.8" height="1.8"/>
	<g id="XMLID_697_">
		<rect id="XMLID_822_" x="691.1" y="237.4" class="st11" width="17.6" height="9.6"/>
		<rect id="XMLID_821_" x="695.9" y="234.2" class="st11" width="7.1" height="0.9"/>
		<rect id="XMLID_820_" x="702.1" y="234.2" class="st11" width="0.9" height="4.6"/>
		<rect id="XMLID_819_" x="695.9" y="234.2" class="st11" width="0.8" height="4.6"/>
	</g>
</g>
</svg>
