<?xml version="1.0" encoding="utf-8"?>
<!-- Generator: Adobe Illustrator 16.0.0, SVG Export Plug-In . SVG Version: 6.00 Build 0)  -->
<!DOCTYPE svg PUBLIC "-//W3C//DTD SVG 1.1//EN" "http://www.w3.org/Graphics/SVG/1.1/DTD/svg11.dtd">
<svg version="1.1" id="Activity" xmlns="http://www.w3.org/2000/svg" xmlns:xlink="http://www.w3.org/1999/xlink" x="0px" y="0px"
	 width="135px" height="81px" viewBox="0 0 135 81" enable-background="new 0 0 135 81" xml:space="preserve">
<g>
	<path fill="#5B6166" d="M67.499,81c-1.57,0-3.04-0.821-3.858-2.185L40.859,40.845L26.525,69.513C25.763,71.037,24.205,72,22.5,72
		h-18C2.015,72,0,69.985,0,67.5S2.015,63,4.5,63h15.219l16.756-33.513c0.734-1.469,2.211-2.421,3.852-2.484
		c1.644-0.069,3.187,0.773,4.032,2.181l22.202,37.004L90.286,2.92C90.946,1.161,92.627,0,94.499,0c0.028,0,0.057,0,0.084,0.001
		c1.906,0.035,3.583,1.268,4.187,3.076L115.743,54H130.5c2.485,0,4.5,2.015,4.5,4.5s-2.015,4.5-4.5,4.5h-18
		c-1.937,0-3.656-1.239-4.27-3.077L94.25,17.981L71.714,78.08c-0.606,1.617-2.086,2.745-3.806,2.901
		C67.771,80.994,67.635,81,67.499,81z"/>
</g>
</svg>
