<?xml version="1.0" encoding="utf-8"?>
<!-- Generator: Adobe Illustrator 16.0.0, SVG Export Plug-In . SVG Version: 6.00 Build 0)  -->
<!DOCTYPE svg PUBLIC "-//W3C//DTD SVG 1.1//EN" "http://www.w3.org/Graphics/SVG/1.1/DTD/svg11.dtd">
<svg version="1.1" id="Add_User" xmlns="http://www.w3.org/2000/svg" xmlns:xlink="http://www.w3.org/1999/xlink" x="0px" y="0px"
	 width="116.521px" height="111.014px" viewBox="0 0 116.521 111.014" enable-background="new 0 0 116.521 111.014"
	 xml:space="preserve">
<g>
	<path fill="#5B6166" d="M50.687,58.224c-14.612,0-26.378-17.422-26.378-31.847C24.309,11.833,36.142,0,50.687,0
		C65.23,0,77.062,11.833,77.062,26.377C77.062,40.802,65.297,58.224,50.687,58.224z M50.687,9c-9.583,0-17.378,7.795-17.378,17.377
		c0,10.07,8.182,22.846,17.378,22.846c9.194,0,17.375-12.776,17.375-22.846C68.062,16.795,60.268,9,50.687,9z"/>
</g>
<g>
	<path fill="#5B6166" d="M51.027,111.014c-0.218,0-0.438-0.017-0.661-0.049c-22.301-3.28-46.363-11.805-47.376-12.166
		c-2.022-0.72-3.253-2.768-2.941-4.892c1.194-8.144,3.672-22.387,6.847-26.284c0.948-1.158,2.178-2.279,3.662-3.344
		c8.982-6.405,21.605-10.32,22.138-10.484c2.375-0.728,4.893,0.606,5.622,2.982c0.729,2.376-0.606,4.894-2.982,5.622
		c-0.211,0.065-11.809,3.686-19.542,9.2c-0.823,0.59-1.494,1.187-1.929,1.718c-1.107,1.67-2.99,10.124-4.333,18.2
		c7.474,2.47,25.59,8.107,42.145,10.543c2.458,0.361,4.158,2.648,3.797,5.107C55.144,109.405,53.222,111.013,51.027,111.014z"/>
</g>
<g>
	<path fill="#5B6166" d="M51.015,111.014c-2.195,0-4.117-1.609-4.446-3.846c-0.362-2.459,1.338-4.745,3.797-5.107
		c6.065-0.893,12.916-2.299,20.363-4.18c2.409-0.606,4.855,0.853,5.465,3.262c0.608,2.409-0.852,4.855-3.262,5.465
		c-7.74,1.955-14.892,3.421-21.256,4.357C51.454,110.998,51.233,111.014,51.015,111.014z"/>
</g>
<g>
	<path fill="#5B6166" d="M74.829,65.075c-0.563,0-1.135-0.106-1.688-0.331c-3.676-1.489-6.409-2.336-6.437-2.345
		c-2.374-0.731-3.707-3.249-2.977-5.623c0.73-2.375,3.246-3.708,5.621-2.979c0.125,0.039,3.109,0.959,7.173,2.607
		c2.304,0.934,3.414,3.558,2.479,5.86C78.292,64.014,76.607,65.075,74.829,65.075z"/>
</g>
<g>
	<path fill="#5B6166" d="M94.021,103.346c-2.485,0-4.5-2.015-4.5-4.5v-36c0-2.485,2.015-4.5,4.5-4.5s4.5,2.015,4.5,4.5v36
		C98.521,101.332,96.506,103.346,94.021,103.346z"/>
</g>
<g>
	<path fill="#5B6166" d="M112.021,85.346h-36c-2.485,0-4.5-2.015-4.5-4.5s2.015-4.5,4.5-4.5h36c2.485,0,4.5,2.015,4.5,4.5
		S114.506,85.346,112.021,85.346z"/>
</g>
</svg>
