<?xml version="1.0" encoding="utf-8"?>
<!-- Generator: Adobe Illustrator 16.0.0, SVG Export Plug-In . SVG Version: 6.00 Build 0)  -->
<!DOCTYPE svg PUBLIC "-//W3C//DTD SVG 1.1//EN" "http://www.w3.org/Graphics/SVG/1.1/DTD/svg11.dtd">
<svg version="1.1" id="Bookmark" xmlns="http://www.w3.org/2000/svg" xmlns:xlink="http://www.w3.org/1999/xlink" x="0px" y="0px"
	 width="81px" height="117px" viewBox="0 0 81 117" enable-background="new 0 0 81 117" xml:space="preserve">
<g>
	<polyline fill="#5B6166" points="4.5,112.5 4.5,4.5 76.5,4.5 76.5,112.5 40.5,76.5 4.5,112.5 	"/>
	<path fill="#5B6166" d="M76.501,117c-1.171,0-2.322-0.457-3.183-1.318L40.5,82.864L7.682,115.682
		c-1.287,1.288-3.223,1.672-4.903,0.976C1.097,115.961,0,114.32,0,112.5V4.5C0,2.015,2.015,0,4.5,0h72C78.985,0,81,2.015,81,4.5v108
		c0,1.82-1.097,3.461-2.778,4.157C77.665,116.888,77.081,117,76.501,117z M40.5,72c1.151,0,2.304,0.439,3.182,1.318L72,101.636V9H9
		v92.636l28.318-28.317C38.196,72.439,39.349,72,40.5,72z"/>
</g>
</svg>
