<?xml version="1.0" encoding="utf-8"?>
<!-- Generator: Adobe Illustrator 16.0.0, SVG Export Plug-In . SVG Version: 6.00 Build 0)  -->
<!DOCTYPE svg PUBLIC "-//W3C//DTD SVG 1.1//EN" "http://www.w3.org/Graphics/SVG/1.1/DTD/svg11.dtd">
<svg version="1.1" id="Arrow_x5F_down" xmlns="http://www.w3.org/2000/svg" xmlns:xlink="http://www.w3.org/1999/xlink" x="0px"
	 y="0px" width="135px" height="135px" viewBox="0 0 135 135" enable-background="new 0 0 135 135" xml:space="preserve">
<g>
	<path fill="#5B6166" d="M67.5,135C30.281,135,0,104.719,0,67.5C0,30.28,30.281,0,67.5,0S135,30.28,135,67.5
		C135,104.719,104.72,135,67.5,135z M67.5,9C35.243,9,9,35.243,9,67.5S35.243,126,67.5,126c32.257,0,58.5-26.243,58.5-58.5
		S99.757,9,67.5,9z"/>
</g>
<g>
	<path fill="#5B6166" d="M67.5,90c-1.151,0-2.304-0.439-3.182-1.318l-27-26.999c-1.757-1.757-1.757-4.606,0-6.364
		c1.758-1.757,4.606-1.757,6.364,0L67.5,79.135l23.818-23.817c1.756-1.757,4.607-1.757,6.363,0c1.758,1.757,1.758,4.607,0,6.364
		l-27,26.999C69.804,89.56,68.652,90,67.5,90z"/>
</g>
</svg>
