<?xml version="1.0" encoding="utf-8"?>
<!-- Generator: Adobe Illustrator 16.0.0, SVG Export Plug-In . SVG Version: 6.00 Build 0)  -->
<!DOCTYPE svg PUBLIC "-//W3C//DTD SVG 1.1//EN" "http://www.w3.org/Graphics/SVG/1.1/DTD/svg11.dtd">
<svg version="1.1" id="Arrow_x5F_up" xmlns="http://www.w3.org/2000/svg" xmlns:xlink="http://www.w3.org/1999/xlink" x="0px"
	 y="0px" width="81px" height="90px" viewBox="0 0 81 90" enable-background="new 0 0 81 90" xml:space="preserve">
<g>
	<path fill="#5B6166" d="M76.5,45c-1.151,0-2.304-0.439-3.182-1.318L40.5,10.864L7.682,43.682c-1.758,1.757-4.606,1.757-6.364,0
		c-1.757-1.757-1.757-4.607,0-6.364l36-36c1.756-1.757,4.608-1.757,6.364,0l36,36c1.758,1.757,1.758,4.607,0,6.364
		C78.804,44.561,77.651,45,76.5,45z"/>
</g>
<g>
	<path fill="#5B6166" d="M40.5,90c-2.485,0-4.5-2.015-4.5-4.5v-81C36,2.015,38.015,0,40.5,0S45,2.015,45,4.5v81
		C45,87.985,42.985,90,40.5,90z"/>
</g>
</svg>
