<?xml version="1.0" encoding="utf-8"?>
<!-- Generator: Adobe Illustrator 16.0.0, SVG Export Plug-In . SVG Version: 6.00 Build 0)  -->
<!DOCTYPE svg PUBLIC "-//W3C//DTD SVG 1.1//EN" "http://www.w3.org/Graphics/SVG/1.1/DTD/svg11.dtd">
<svg version="1.1" id="Layer_58" xmlns="http://www.w3.org/2000/svg" xmlns:xlink="http://www.w3.org/1999/xlink" x="0px" y="0px"
	 width="126px" height="108px" viewBox="0 0 126 108" enable-background="new 0 0 126 108" xml:space="preserve">
<g>
	<path fill="#5B6166" d="M112.5,54h-27C75.596,54,72,45.927,72,40.5v-27C72,3.595,80.073,0,85.5,0h27c9.904,0,13.5,8.073,13.5,13.5
		v27C126,50.405,117.927,54,112.5,54z"/>
</g>
<g>
	<path fill="#5B6166" d="M85.5,108c-2.484,0-4.5-2.016-4.5-4.5s2.016-4.5,4.5-4.5c31.143,0,31.5-30.214,31.5-31.5v-27
		c0-2.485,2.016-4.5,4.5-4.5s4.5,2.015,4.5,4.5v27c0,0.411-0.057,10.176-4.975,20.014C116.352,96.857,106.396,108,85.5,108z"/>
</g>
<g>
	<path fill="#5B6166" d="M40.5,54h-27C3.595,54,0,45.927,0,40.5v-27C0,3.595,8.073,0,13.5,0h27C50.405,0,54,8.073,54,13.5v27
		C54,50.405,45.927,54,40.5,54z"/>
</g>
<g>
	<path fill="#5B6166" d="M13.5,108c-2.485,0-4.5-2.016-4.5-4.5s2.015-4.5,4.5-4.5C44.642,99,45,68.786,45,67.5v-27
		c0-2.485,2.015-4.5,4.5-4.5s4.5,2.015,4.5,4.5v27c0,0.411-0.057,10.176-4.975,20.014C44.352,96.857,34.395,108,13.5,108z"/>
</g>
</svg>
