<?xml version="1.0" encoding="utf-8"?>
<!-- Generator: Adobe Illustrator 16.0.0, SVG Export Plug-In . SVG Version: 6.00 Build 0)  -->
<!DOCTYPE svg PUBLIC "-//W3C//DTD SVG 1.1//EN" "http://www.w3.org/Graphics/SVG/1.1/DTD/svg11.dtd">
<svg version="1.1" id="Layer_56" xmlns="http://www.w3.org/2000/svg" xmlns:xlink="http://www.w3.org/1999/xlink" x="0px" y="0px"
	 width="90px" height="117px" viewBox="0 0 90 117" enable-background="new 0 0 90 117" xml:space="preserve">
<g>
	<path fill="#5B6166" d="M58.5,117h-45c-2.485,0-4.5-2.015-4.5-4.5V4.5C9,2.015,11.015,0,13.5,0h45C75.869,0,90,14.131,90,31.5
		c0,11.444-6.136,21.483-15.289,27C83.864,64.017,90,74.056,90,85.5C90,102.869,75.869,117,58.5,117z M18,108h40.5
		C70.906,108,81,97.906,81,85.5S70.906,63,58.5,63h-18c-2.485,0-4.5-2.015-4.5-4.5s2.015-4.5,4.5-4.5h18
		C70.906,54,81,43.907,81,31.5S70.906,9,58.5,9H18V108z"/>
</g>
<g>
	<path fill="#5B6166" d="M13.5,9h-9C2.015,9,0,6.985,0,4.5S2.015,0,4.5,0h9C15.985,0,18,2.015,18,4.5S15.985,9,13.5,9z"/>
</g>
<g>
	<path fill="#5B6166" d="M13.5,117h-9c-2.485,0-4.5-2.015-4.5-4.5s2.015-4.5,4.5-4.5h9c2.485,0,4.5,2.015,4.5,4.5
		S15.985,117,13.5,117z"/>
</g>
</svg>
