<?xml version="1.0" encoding="utf-8"?>
<!-- Generator: Adobe Illustrator 16.0.0, SVG Export Plug-In . SVG Version: 6.00 Build 0)  -->
<!DOCTYPE svg PUBLIC "-//W3C//DTD SVG 1.1//EN" "http://www.w3.org/Graphics/SVG/1.1/DTD/svg11.dtd">
<svg version="1.1" id="Layer_120" xmlns="http://www.w3.org/2000/svg" xmlns:xlink="http://www.w3.org/1999/xlink" x="0px" y="0px"
	 width="112.5px" height="108px" viewBox="0 0 112.5 108" enable-background="new 0 0 112.5 108" xml:space="preserve">
<g>
	<circle fill="#5B6166" cx="9" cy="9" r="9"/>
</g>
<g>
	<path fill="#5B6166" d="M108,13.5H36c-2.485,0-4.5-2.015-4.5-4.5s2.015-4.5,4.5-4.5h72c2.485,0,4.5,2.015,4.5,4.5
		S110.485,13.5,108,13.5z"/>
</g>
<g>
	<circle fill="#5B6166" cx="9" cy="54" r="9"/>
</g>
<g>
	<path fill="#5B6166" d="M90,58.5H36c-2.485,0-4.5-2.015-4.5-4.5s2.015-4.5,4.5-4.5h54c2.485,0,4.5,2.015,4.5,4.5
		S92.485,58.5,90,58.5z"/>
</g>
<g>
	<circle fill="#5B6166" cx="9" cy="99" r="9"/>
</g>
<g>
	<path fill="#5B6166" d="M108,103.5H36c-2.485,0-4.5-2.015-4.5-4.5s2.015-4.5,4.5-4.5h72c2.485,0,4.5,2.015,4.5,4.5
		S110.485,103.5,108,103.5z"/>
</g>
</svg>
