<?xml version="1.0" encoding="utf-8"?>
<!-- Generator: Adobe Illustrator 16.0.0, SVG Export Plug-In . SVG Version: 6.00 Build 0)  -->
<!DOCTYPE svg PUBLIC "-//W3C//DTD SVG 1.1//EN" "http://www.w3.org/Graphics/SVG/1.1/DTD/svg11.dtd">
<svg version="1.1" id="Layer_44" xmlns="http://www.w3.org/2000/svg" xmlns:xlink="http://www.w3.org/1999/xlink" x="0px" y="0px"
	 width="110px" height="117px" viewBox="0 0 110 117" enable-background="new 0 0 110 117" xml:space="preserve">
<g>
	<path fill="#5B6166" d="M32.5,27c-2.485,0-4.5-2.015-4.5-4.5v-18C28,2.015,30.015,0,32.5,0S37,2.015,37,4.5v18
		C37,24.985,34.985,27,32.5,27z"/>
</g>
<g>
	<path fill="#5B6166" d="M77.5,27c-2.485,0-4.5-2.015-4.5-4.5v-18C73,2.015,75.015,0,77.5,0S82,2.015,82,4.5v18
		C82,24.985,79.985,27,77.5,27z"/>
</g>
<g>
	<path fill="#5B6166" d="M95.5,117h-81C6.505,117,0,110.495,0,102.5v-79C0,15.505,6.505,9,14.5,9h81c7.995,0,14.5,6.505,14.5,14.5
		v79C110,110.495,103.495,117,95.5,117z M14.5,18C11.467,18,9,20.467,9,23.5v79c0,3.032,2.467,5.5,5.5,5.5h81
		c3.032,0,5.5-2.468,5.5-5.5v-79c0-3.033-2.468-5.5-5.5-5.5H14.5z"/>
</g>
<g>
	<path fill="#5B6166" d="M105.5,47H5.5C3.015,47,1,44.985,1,42.5S3.015,38,5.5,38h100c2.485,0,4.5,2.015,4.5,4.5
		S107.985,47,105.5,47z"/>
</g>
<g>
	<path fill="#5B6166" d="M32.5,69h-9c-2.485,0-4.5-2.015-4.5-4.5s2.015-4.5,4.5-4.5h9c2.485,0,4.5,2.015,4.5,4.5S34.985,69,32.5,69z
		"/>
</g>
<g>
	<path fill="#5B6166" d="M59.5,69h-9c-2.485,0-4.5-2.015-4.5-4.5s2.015-4.5,4.5-4.5h9c2.485,0,4.5,2.015,4.5,4.5S61.985,69,59.5,69z
		"/>
</g>
<g>
	<path fill="#5B6166" d="M86.5,69h-9c-2.485,0-4.5-2.015-4.5-4.5s2.015-4.5,4.5-4.5h9c2.485,0,4.5,2.015,4.5,4.5S88.985,69,86.5,69z
		"/>
</g>
<g>
	<path fill="#5B6166" d="M32.5,92h-9c-2.485,0-4.5-2.015-4.5-4.5s2.015-4.5,4.5-4.5h9c2.485,0,4.5,2.015,4.5,4.5S34.985,92,32.5,92z
		"/>
</g>
<g>
	<path fill="#5B6166" d="M59.5,92h-9c-2.485,0-4.5-2.015-4.5-4.5s2.015-4.5,4.5-4.5h9c2.485,0,4.5,2.015,4.5,4.5S61.985,92,59.5,92z
		"/>
</g>
</svg>
