<?xml version="1.0" encoding="utf-8"?>
<!-- Generator: Adobe Illustrator 16.0.0, SVG Export Plug-In . SVG Version: 6.00 Build 0)  -->
<!DOCTYPE svg PUBLIC "-//W3C//DTD SVG 1.1//EN" "http://www.w3.org/Graphics/SVG/1.1/DTD/svg11.dtd">
<svg version="1.1" id="Layer_14" xmlns="http://www.w3.org/2000/svg" xmlns:xlink="http://www.w3.org/1999/xlink" x="0px" y="0px"
	 width="81px" height="81px" viewBox="0 0 81 81" enable-background="new 0 0 81 81" xml:space="preserve">
<g>
	<path fill="#5B6166" d="M76.5,81c-1.151,0-2.304-0.439-3.182-1.318l-72-72c-1.757-1.757-1.757-4.607,0-6.364
		c1.758-1.757,4.606-1.757,6.364,0l72,72c1.758,1.757,1.758,4.606,0,6.363C78.804,80.56,77.651,81,76.5,81z"/>
</g>
<g>
	<path fill="#5B6166" d="M4.5,81c-1.152,0-2.303-0.439-3.182-1.318c-1.757-1.757-1.757-4.606,0-6.363l72-72
		c1.756-1.757,4.607-1.757,6.363,0c1.758,1.757,1.758,4.607,0,6.364l-72,72C6.803,80.56,5.652,81,4.5,81z"/>
</g>
</svg>
