<?xml version="1.0" encoding="utf-8"?>
<!-- Generator: Adobe Illustrator 16.0.0, SVG Export Plug-In . SVG Version: 6.00 Build 0)  -->
<!DOCTYPE svg PUBLIC "-//W3C//DTD SVG 1.1//EN" "http://www.w3.org/Graphics/SVG/1.1/DTD/svg11.dtd">
<svg version="1.1" id="Layer_123" xmlns="http://www.w3.org/2000/svg" xmlns:xlink="http://www.w3.org/1999/xlink" x="0px" y="0px"
	 width="122.902px" height="122.789px" viewBox="0 0 122.902 122.789" enable-background="new 0 0 122.902 122.789"
	 xml:space="preserve">
<g>
	<path fill="#5B6166" d="M67.605,36.385c-1.953-1.953-1.953-5.119,0-7.071L92.707,4.211c5.749-5.749,14.911-5.594,20.859,0.354
		l4.95,4.95c5.848,5.849,5.848,15.365-0.001,21.213L93.767,55.477c-0.977,0.976-2.257,1.464-3.536,1.464s-2.561-0.488-3.535-1.464"
		/>
</g>
<g>
	<path fill="#5B6166" d="M96.596,62.806c-1.151,0-2.305-0.439-3.183-1.318l-31.82-31.82c-1.758-1.757-1.758-4.607,0-6.364
		c1.757-1.757,4.607-1.757,6.363,0l31.82,31.82c1.758,1.757,1.758,4.607,0,6.364C98.899,62.367,97.747,62.806,96.596,62.806z"/>
</g>
<g>
	<path fill="#5B6166" d="M34.82,113.716H18.365l-9-9V88.261l58.594-58.594c1.756-1.757,4.607-1.757,6.363,0
		c1.758,1.757,1.758,4.607,0,6.364L18.364,91.99v8.998l3.728,3.729h9L87.05,48.759c1.757-1.757,4.607-1.757,6.363,0
		c1.758,1.757,1.758,4.607,0,6.364L34.82,113.716z"/>
</g>
<g>
	<path fill="#5B6166" d="M6.5,122.789c-1.664,0-3.327-0.636-4.596-1.904c-2.539-2.538-2.539-6.653,0-9.191l8.513-8.514
		c2.538-2.537,6.654-2.537,9.192,0c2.539,2.539,2.539,6.654,0,9.193l-8.513,8.512C9.827,122.153,8.164,122.789,6.5,122.789z"/>
</g>
</svg>
