<?xml version="1.0" encoding="utf-8"?>
<!-- Generator: Adobe Illustrator 16.0.0, SVG Export Plug-In . SVG Version: 6.00 Build 0)  -->
<!DOCTYPE svg PUBLIC "-//W3C//DTD SVG 1.1//EN" "http://www.w3.org/Graphics/SVG/1.1/DTD/svg11.dtd">
<svg version="1.1" id="Layer_19" xmlns="http://www.w3.org/2000/svg" xmlns:xlink="http://www.w3.org/1999/xlink" x="0px" y="0px"
	 width="99px" height="117px" viewBox="0 0 99 117" enable-background="new 0 0 99 117" xml:space="preserve">
<g>
	<path fill="#5B6166" d="M49.5,117c-1.336,0-2.602-0.593-3.457-1.619l-45-54c-1.118-1.342-1.359-3.208-0.618-4.79
		C1.166,55.01,2.754,54,4.5,54H27V4.5C27,2.015,29.015,0,31.5,0h36C69.985,0,72,2.015,72,4.5V54h22.5
		c1.746,0,3.335,1.01,4.075,2.591c0.74,1.582,0.5,3.448-0.618,4.79l-45,54C52.102,116.407,50.836,117,49.5,117z M14.108,63
		L49.5,105.471L84.893,63H67.5c-2.485,0-4.5-2.015-4.5-4.5V9H36v49.5c0,2.485-2.015,4.5-4.5,4.5H14.108z"/>
</g>
</svg>
