<?xml version="1.0" encoding="utf-8"?>
<!-- Generator: Adobe Illustrator 16.0.0, SVG Export Plug-In . SVG Version: 6.00 Build 0)  -->
<!DOCTYPE svg PUBLIC "-//W3C//DTD SVG 1.1//EN" "http://www.w3.org/Graphics/SVG/1.1/DTD/svg11.dtd">
<svg version="1.1" id="Arrow_x5F_up_copy_2" xmlns="http://www.w3.org/2000/svg" xmlns:xlink="http://www.w3.org/1999/xlink"
	 x="0px" y="0px" width="99px" height="108px" viewBox="0 0 99 108" enable-background="new 0 0 99 108" xml:space="preserve">
<g>
	<path fill="#5B6166" d="M49.5,81c-1.151,0-2.304-0.439-3.182-1.318l-36-36c-1.757-1.757-1.757-4.607,0-6.364
		c1.758-1.757,4.606-1.757,6.364,0L49.5,70.136l32.818-32.818c1.756-1.757,4.607-1.757,6.363,0c1.758,1.757,1.758,4.607,0,6.364
		l-36,36C51.804,80.561,50.651,81,49.5,81z"/>
</g>
<g>
	<path fill="#5B6166" d="M49.5,81c-2.485,0-4.5-2.015-4.5-4.5v-72C45,2.015,47.015,0,49.5,0S54,2.015,54,4.5v72
		C54,78.985,51.985,81,49.5,81z"/>
</g>
<g>
	<path fill="#5B6166" d="M94.5,108h-90c-2.485,0-4.5-2.015-4.5-4.5v-9C0,92.015,2.015,90,4.5,90S9,92.015,9,94.5V99h81v-4.5
		c0-2.485,2.015-4.5,4.5-4.5s4.5,2.015,4.5,4.5v9C99,105.985,96.985,108,94.5,108z"/>
</g>
</svg>
