<?xml version="1.0" encoding="utf-8"?>
<!-- Generator: Adobe Illustrator 16.0.0, SVG Export Plug-In . SVG Version: 6.00 Build 0)  -->
<!DOCTYPE svg PUBLIC "-//W3C//DTD SVG 1.1//EN" "http://www.w3.org/Graphics/SVG/1.1/DTD/svg11.dtd">
<svg version="1.1" id="Layer_47" xmlns="http://www.w3.org/2000/svg" xmlns:xlink="http://www.w3.org/1999/xlink" x="0px" y="0px"
	 width="153px" height="117px" viewBox="0 0 153 117" enable-background="new 0 0 153 117" xml:space="preserve">
<g>
	<path fill="#5B6166" d="M148.5,117H4.5c-2.485,0-4.5-2.015-4.5-4.5V4.5C0,2.015,2.015,0,4.5,0h144c2.485,0,4.5,2.015,4.5,4.5v108
		C153,114.985,150.986,117,148.5,117z M9,108h135V9H9V108z"/>
</g>
<g>
	<path fill="#5B6166" d="M76.5,63c-0.95,0-1.9-0.3-2.7-0.9l-72-54c-1.988-1.491-2.391-4.312-0.9-6.3s4.312-2.39,6.3-0.9l69.3,51.975
		L145.8,0.9c1.99-1.491,4.81-1.087,6.3,0.9c1.491,1.988,1.089,4.809-0.899,6.3l-72,54C78.401,62.7,77.451,63,76.5,63z"/>
</g>
</svg>
