<?xml version="1.0" encoding="utf-8"?>
<!-- Generator: Adobe Illustrator 16.0.0, SVG Export Plug-In . SVG Version: 6.00 Build 0)  -->
<!DOCTYPE svg PUBLIC "-//W3C//DTD SVG 1.1//EN" "http://www.w3.org/Graphics/SVG/1.1/DTD/svg11.dtd">
<svg version="1.1" id="Favorite_x5F_Topic" xmlns="http://www.w3.org/2000/svg" xmlns:xlink="http://www.w3.org/1999/xlink" x="0px"
	 y="0px" width="117px" height="103.5px" viewBox="0 0 117 103.5" enable-background="new 0 0 117 103.5" xml:space="preserve">
<g>
	<path fill="#5B6166" d="M58.5,103.5c-8.902,0-23.725-8.361-35.245-19.881C8.259,68.623,0,50.113,0,31.5C0,14.131,14.131,0,31.5,0
		c11.444,0,21.483,6.136,27,15.289C64.017,6.136,74.056,0,85.5,0C102.869,0,117,14.131,117,31.5
		c0,18.613-8.259,37.123-23.256,52.119C82.225,95.139,67.402,103.5,58.5,103.5z M31.5,9C19.093,9,9,19.093,9,31.5
		c0,21.87,12.919,38.055,20.62,45.756C41.383,89.02,53.807,94.5,58.5,94.5c4.692,0,17.117-5.48,28.881-17.244
		C95.081,69.555,108,53.37,108,31.5C108,19.093,97.906,9,85.5,9S63,19.093,63,31.5c0,2.485-2.015,4.5-4.5,4.5S54,33.985,54,31.5
		C54,19.093,43.907,9,31.5,9z"/>
</g>
</svg>
