<?xml version="1.0" encoding="utf-8"?>
<!-- Generator: Adobe Illustrator 16.0.0, SVG Export Plug-In . SVG Version: 6.00 Build 0)  -->
<!DOCTYPE svg PUBLIC "-//W3C//DTD SVG 1.1//EN" "http://www.w3.org/Graphics/SVG/1.1/DTD/svg11.dtd">
<svg version="1.1" id="Group" xmlns="http://www.w3.org/2000/svg" xmlns:xlink="http://www.w3.org/1999/xlink" x="0px" y="0px"
	 width="144.273px" height="112.353px" viewBox="0 0 144.273 112.353" enable-background="new 0 0 144.273 112.353"
	 xml:space="preserve">
<g>
	<path fill="#5B6166" d="M92.303,58.87c-14.771,0-26.666-17.618-26.666-32.205C65.637,11.962,77.599,0,92.303,0
		c14.701,0,26.662,11.962,26.662,26.665C118.965,41.251,107.072,58.87,92.303,58.87z M92.303,9c-9.741,0-17.666,7.924-17.666,17.665
		c0,10.229,8.317,23.205,17.666,23.205c9.347,0,17.662-12.977,17.662-23.205C109.965,16.924,102.042,9,92.303,9z"/>
</g>
<g>
	<path fill="#5B6166" d="M92.647,112.353c-0.218,0-0.438-0.017-0.661-0.049C69.398,108.981,45.026,100.347,44,99.981
		c-2.022-0.72-3.253-2.768-2.941-4.892c1.209-8.244,3.717-22.662,6.924-26.601c0.956-1.167,2.198-2.3,3.699-3.377
		c9.092-6.483,21.872-10.447,22.411-10.612c2.374-0.728,4.894,0.604,5.622,2.981c0.729,2.375-0.605,4.892-2.979,5.622l0,0
		c-0.118,0.036-11.942,3.714-19.817,9.329c-0.839,0.602-1.522,1.21-1.965,1.75c-1.131,1.695-3.049,10.306-4.411,18.518
		c7.543,2.495,25.944,8.227,42.755,10.7c2.459,0.361,4.158,2.648,3.797,5.107C96.765,110.744,94.843,112.353,92.647,112.353z"/>
</g>
<g>
	<path fill="#5B6166" d="M92.636,112.353c-2.195,0-4.117-1.609-4.446-3.846c-0.361-2.459,1.338-4.746,3.797-5.107
		c16.83-2.476,35.216-8.205,42.756-10.699c-1.365-8.215-3.289-16.835-4.469-18.592c-0.386-0.467-1.069-1.075-1.919-1.686
		c-7.863-5.606-19.688-9.284-19.807-9.32c-2.374-0.731-3.708-3.249-2.979-5.623c0.729-2.375,3.239-3.711,5.621-2.98
		c0.539,0.165,13.319,4.129,22.4,10.604c1.512,1.085,2.753,2.217,3.701,3.374c3.216,3.949,5.724,18.367,6.934,26.611
		c0.312,2.123-0.92,4.172-2.941,4.892c-1.026,0.366-25.398,9-47.987,12.323C93.074,112.336,92.854,112.353,92.636,112.353z"/>
</g>
<g>
	<path fill="#5B6166" d="M40.214,56.383c-12.602,0-22.377-14.431-22.377-26.845c0-12.338,10.038-22.376,22.377-22.376
		c12.338,0,22.375,10.038,22.375,22.376C62.589,41.953,52.815,56.383,40.214,56.383z M40.214,16.162
		c-7.376,0-13.377,6-13.377,13.376c0,7.792,6.487,17.845,13.377,17.845c6.889,0,13.375-10.053,13.375-17.845
		C53.589,22.162,47.589,16.162,40.214,16.162z"/>
</g>
<g>
	<path fill="#5B6166" d="M46.572,92.427c-0.218,0-0.438-0.017-0.661-0.049C27.644,89.692,4.053,81.747,3.057,81.41
		c-1.907-0.646-3.153-2.479-3.051-4.49c0.121-2.388,0.75-10.471,3.787-14.197c0.817-1,1.876-1.968,3.15-2.882
		c7.449-5.312,17.887-8.549,18.328-8.684c2.376-0.727,4.893,0.607,5.622,2.982c0.729,2.375-0.605,4.892-2.98,5.622h0
		c-0.095,0.028-9.502,2.957-15.735,7.4c-0.777,0.558-1.199,0.989-1.413,1.252c-0.502,0.675-1.076,2.998-1.439,5.573
		c7.178,2.287,24.376,7.5,37.895,9.488c2.459,0.361,4.159,2.648,3.797,5.106C50.689,90.818,48.767,92.426,46.572,92.427z"/>
</g>
</svg>
