<?xml version="1.0" encoding="utf-8"?>
<!-- Generator: Adobe Illustrator 16.0.0, SVG Export Plug-In . SVG Version: 6.00 Build 0)  -->
<!DOCTYPE svg PUBLIC "-//W3C//DTD SVG 1.1//EN" "http://www.w3.org/Graphics/SVG/1.1/DTD/svg11.dtd">
<svg version="1.1" id="Layer_62" xmlns="http://www.w3.org/2000/svg" xmlns:xlink="http://www.w3.org/1999/xlink" x="0px" y="0px"
	 width="99px" height="117px" viewBox="0 0 99 117" enable-background="new 0 0 99 117" xml:space="preserve">
<g>
	<path fill="#5B6166" d="M22.5,9h-18C2.015,9,0,6.985,0,4.5S2.015,0,4.5,0h18C24.985,0,27,2.015,27,4.5S24.985,9,22.5,9z"/>
</g>
<g>
	<path fill="#5B6166" d="M13.5,117c-2.485,0-4.5-2.015-4.5-4.5V4.5C9,2.015,11.015,0,13.5,0S18,2.015,18,4.5v108
		C18,114.985,15.985,117,13.5,117z"/>
</g>
<g>
	<path fill="#5B6166" d="M22.5,117h-18c-2.485,0-4.5-2.015-4.5-4.5s2.015-4.5,4.5-4.5h18c2.485,0,4.5,2.015,4.5,4.5
		S24.985,117,22.5,117z"/>
</g>
<g>
	<path fill="#5B6166" d="M94.5,9h-18C74.015,9,72,6.985,72,4.5S74.015,0,76.5,0h18C96.985,0,99,2.015,99,4.5S96.985,9,94.5,9z"/>
</g>
<g>
	<path fill="#5B6166" d="M85.5,117c-2.485,0-4.5-2.015-4.5-4.5V4.5C81,2.015,83.015,0,85.5,0S90,2.015,90,4.5v108
		C90,114.985,87.985,117,85.5,117z"/>
</g>
<g>
	<path fill="#5B6166" d="M94.5,117h-18c-2.485,0-4.5-2.015-4.5-4.5s2.015-4.5,4.5-4.5h18c2.485,0,4.5,2.015,4.5,4.5
		S96.985,117,94.5,117z"/>
</g>
<g>
	<path fill="#5B6166" d="M85.5,63h-72C11.015,63,9,60.985,9,58.5s2.015-4.5,4.5-4.5h72c2.485,0,4.5,2.015,4.5,4.5S87.985,63,85.5,63
		z"/>
</g>
</svg>
