<?xml version="1.0" encoding="utf-8"?>
<!-- Generator: Adobe Illustrator 16.0.0, SVG Export Plug-In . SVG Version: 6.00 Build 0)  -->
<!DOCTYPE svg PUBLIC "-//W3C//DTD SVG 1.1//EN" "http://www.w3.org/Graphics/SVG/1.1/DTD/svg11.dtd">
<svg version="1.1" id="Info" xmlns="http://www.w3.org/2000/svg" xmlns:xlink="http://www.w3.org/1999/xlink" x="0px" y="0px"
	 width="135px" height="135px" viewBox="0 0 135 135" enable-background="new 0 0 135 135" xml:space="preserve">
<g>
	<path fill="#5B6166" d="M67.5,135C30.281,135,0,104.719,0,67.5C0,30.28,30.281,0,67.5,0S135,30.28,135,67.5
		C135,104.719,104.72,135,67.5,135z M67.5,9C35.243,9,9,35.243,9,67.5S35.243,126,67.5,126c32.257,0,58.5-26.243,58.5-58.5
		S99.757,9,67.5,9z"/>
</g>
<g>
	<path fill="#5B6166" d="M67.5,108c-2.485,0-4.5-2.015-4.5-4.5v-45c0-2.485,2.015-4.5,4.5-4.5s4.5,2.015,4.5,4.5v45
		C72,105.985,69.986,108,67.5,108z"/>
</g>
<g>
	<path fill="#5B6166" d="M67.5,45c-4.962,0-9-4.038-9-9s4.038-9,9-9c4.963,0,9,4.038,9,9S72.463,45,67.5,45z"/>
</g>
</svg>
