<?xml version="1.0" encoding="utf-8"?>
<!-- Generator: Adobe Illustrator 16.0.0, SVG Export Plug-In . SVG Version: 6.00 Build 0)  -->
<!DOCTYPE svg PUBLIC "-//W3C//DTD SVG 1.1//EN" "http://www.w3.org/Graphics/SVG/1.1/DTD/svg11.dtd">
<svg version="1.1" id="Layer_57" xmlns="http://www.w3.org/2000/svg" xmlns:xlink="http://www.w3.org/1999/xlink" x="0px" y="0px"
	 width="81px" height="117.002px" viewBox="0 0 81 117.002" enable-background="new 0 0 81 117.002" xml:space="preserve">
<g>
	<path fill="#5B6166" d="M76.5,9.001h-45c-2.485,0-4.5-2.015-4.5-4.5s2.015-4.5,4.5-4.5h45c2.485,0,4.5,2.015,4.5,4.5
		S78.985,9.001,76.5,9.001z"/>
</g>
<g>
	<path fill="#5B6166" d="M49.5,117.001h-45c-2.485,0-4.5-2.015-4.5-4.5s2.015-4.5,4.5-4.5h45c2.485,0,4.5,2.015,4.5,4.5
		S51.985,117.001,49.5,117.001z"/>
</g>
<g>
	<path fill="#5B6166" d="M22.5,117.002c-0.472,0-0.951-0.074-1.423-0.231c-2.358-0.786-3.632-3.335-2.846-5.692l36-108
		c0.786-2.358,3.336-3.632,5.692-2.846c2.358,0.786,3.632,3.334,2.847,5.692l-36,108C26.141,115.81,24.385,117.002,22.5,117.002z"/>
</g>
</svg>
