<?xml version="1.0" encoding="utf-8"?>
<!-- Generator: Adobe Illustrator 16.0.0, SVG Export Plug-In . SVG Version: 6.00 Build 0)  -->
<!DOCTYPE svg PUBLIC "-//W3C//DTD SVG 1.1//EN" "http://www.w3.org/Graphics/SVG/1.1/DTD/svg11.dtd">
<svg version="1.1" id="Layer_18" xmlns="http://www.w3.org/2000/svg" xmlns:xlink="http://www.w3.org/1999/xlink" x="0px" y="0px"
	 width="99px" height="130.159px" viewBox="0 0 99 130.159" enable-background="new 0 0 99 130.159" xml:space="preserve">
<g>
	<g>
		<path fill="#5B6166" d="M84.5,130.159h-70c-7.995,0-14.5-6.505-14.5-14.5v-52c0-7.995,6.505-14.5,14.5-14.5h70
			c7.995,0,14.5,6.505,14.5,14.5v52C99,123.654,92.495,130.159,84.5,130.159z"/>
	</g>
</g>
<g>
	<path fill="#5B6166" d="M75.491,64.318c-3.037,0-5.5-2.462-5.5-5.5V31.491C69.991,20.192,60.799,11,49.5,11
		s-20.491,9.192-20.491,20.491v27.328c0,3.038-2.462,5.5-5.5,5.5s-5.5-2.462-5.5-5.5V31.491C18.009,14.126,32.136,0,49.5,0
		s31.491,14.126,31.491,31.491v27.328C80.991,61.856,78.528,64.318,75.491,64.318z"/>
</g>
</svg>
