<?xml version="1.0" encoding="utf-8"?>
<!-- Generator: Adobe Illustrator 16.0.0, SVG Export Plug-In . SVG Version: 6.00 Build 0)  -->
<!DOCTYPE svg PUBLIC "-//W3C//DTD SVG 1.1//EN" "http://www.w3.org/Graphics/SVG/1.1/DTD/svg11.dtd">
<svg version="1.1" id="Login" xmlns="http://www.w3.org/2000/svg" xmlns:xlink="http://www.w3.org/1999/xlink" x="0px" y="0px"
	 width="81px" height="99px" viewBox="0 0 81 99" enable-background="new 0 0 81 99" xml:space="preserve">
<g>
	<path fill="none" stroke="#5B6166" stroke-width="9" stroke-linecap="round" stroke-linejoin="round" stroke-miterlimit="10" d="
		M4.5,4.5"/>
</g>
<g>
	<path fill="#5B6166" d="M58.5,99h-54C2.015,99,0,96.985,0,94.5v-90C0,2.015,2.015,0,4.5,0h54C60.985,0,63,2.015,63,4.5v18
		c0,2.485-2.015,4.5-4.5,4.5S54,24.985,54,22.5V9H9v81h45V76.5c0-2.485,2.015-4.5,4.5-4.5s4.5,2.015,4.5,4.5v18
		C63,96.985,60.985,99,58.5,99z"/>
</g>
<g>
	<path fill="#5B6166" d="M76.5,54h-45c-2.485,0-4.5-2.015-4.5-4.5s2.015-4.5,4.5-4.5h45c2.485,0,4.5,2.015,4.5,4.5
		S78.985,54,76.5,54z"/>
</g>
<g>
	<path fill="#5B6166" d="M40.5,72c-1.151,0-2.304-0.439-3.182-1.318l-18-18c-1.757-1.757-1.757-4.607,0-6.364l18-18
		c1.756-1.757,4.608-1.757,6.364,0c1.758,1.757,1.758,4.607,0,6.364L28.864,49.5l14.818,14.818c1.758,1.757,1.758,4.606,0,6.363
		C42.804,71.561,41.651,72,40.5,72z"/>
</g>
</svg>
