<?xml version="1.0" encoding="utf-8"?>
<!-- Generator: Adobe Illustrator 16.0.0, SVG Export Plug-In . SVG Version: 6.00 Build 0)  -->
<!DOCTYPE svg PUBLIC "-//W3C//DTD SVG 1.1//EN" "http://www.w3.org/Graphics/SVG/1.1/DTD/svg11.dtd">
<svg version="1.1" id="Layer_12" xmlns="http://www.w3.org/2000/svg" xmlns:xlink="http://www.w3.org/1999/xlink" x="0px" y="0px"
	 width="98px" height="98px" viewBox="0 0 98 98" enable-background="new 0 0 98 98" xml:space="preserve">
<g>
	<path fill="#5B6166" d="M58,98H4c-2.209,0-4-1.791-4-4V4c0-2.209,1.791-4,4-4h54c2.209,0,4,1.791,4,4v18c0,2.209-1.791,4-4,4
		s-4-1.791-4-4V8H8v82h46V76c0-2.209,1.791-4,4-4s4,1.791,4,4v18C62,96.209,60.209,98,58,98z"/>
</g>
<g>
	<path fill="#5B6166" d="M85,53H40c-2.209,0-4-1.791-4-4s1.791-4,4-4h45c2.209,0,4,1.791,4,4S87.209,53,85,53z"/>
</g>
<g>
	<path fill="#5B6166" d="M76,71c-1.023,0-2.048-0.391-2.828-1.172c-1.563-1.562-1.563-4.095,0-5.656L88.343,49L73.172,33.829
		c-1.563-1.563-1.563-4.095,0-5.657c1.561-1.562,4.096-1.562,5.656,0l18,18c1.563,1.563,1.563,4.095,0,5.657l-18,18
		C78.048,70.609,77.023,71,76,71z"/>
</g>
</svg>
