<?xml version="1.0" encoding="utf-8"?>
<!-- Generator: Adobe Illustrator 16.0.0, SVG Export Plug-In . SVG Version: 6.00 Build 0)  -->
<!DOCTYPE svg PUBLIC "-//W3C//DTD SVG 1.1//EN" "http://www.w3.org/Graphics/SVG/1.1/DTD/svg11.dtd">
<svg version="1.1" id="Notification_x5F_no" xmlns="http://www.w3.org/2000/svg" xmlns:xlink="http://www.w3.org/1999/xlink"
	 x="0px" y="0px" width="118px" height="136.983px" viewBox="0 0 118 136.983" enable-background="new 0 0 118 136.983"
	 xml:space="preserve">
<g>
	<path fill="#5B6166" d="M109,95.983c-1.279,0-2.56-0.488-3.535-1.465c-9.587-9.587-14.558-42.669-15.354-48.386
		C82.309,23.25,68.144,22.983,68,22.983c-2.762,0-5-2.239-5-5v-6.702c-3.202-2.227-6.113-1.203-8,0.06v6.643c0,2.761-2.239,5-5,5
		c-0.092,0.004-3.946,0.152-8.708,3.404c-2.28,1.558-5.391,0.97-6.949-1.31c-1.557-2.28-0.971-5.392,1.31-6.949
		c3.517-2.401,6.803-3.683,9.347-4.366V8.983c0-1.326,0.527-2.598,1.464-3.536c5.04-5.038,15.875-9.197,25.071,0
		C72.474,6.386,73,7.657,73,8.983v4.79c6.996,1.879,19.608,8.225,26.743,29.629c0.099,0.296,0.17,0.602,0.212,0.911
		c1.85,13.663,6.9,37.455,12.58,43.135c1.953,1.952,1.953,5.118,0,7.07C111.56,95.495,110.279,95.983,109,95.983z"/>
</g>
<g>
	<path fill="#5B6166" d="M58.911,122.022c-29.825,0-50.509-7.903-51.733-8.383c-0.642-0.251-1.226-0.633-1.713-1.121
		c-9.197-9.196-5.039-20.032,0-25.07c5.68-5.681,10.731-29.472,12.581-43.135c0.042-0.309,0.113-0.615,0.211-0.911
		c1.052-3.155,2.276-6.128,3.64-8.836c1.242-2.467,4.248-3.459,6.714-2.217c2.466,1.242,3.459,4.248,2.217,6.714
		c-1.086,2.157-2.074,4.533-2.939,7.069c-0.796,5.717-5.767,38.799-15.354,48.386c-1.507,1.566-4.503,5.636-0.693,10.175
		c6.569,2.271,43.933,13.911,87.805,1.903c2.662-0.73,5.414,0.839,6.143,3.502c0.729,2.664-0.839,5.414-3.502,6.143
		C86.663,120.519,71.917,122.022,58.911,122.022z"/>
</g>
<g>
	<path fill="#5B6166" d="M59.5,136.983c-10.374,0-18.5-6.149-18.5-14c0-2.762,2.239-5,5-5s5,2.238,5,5c0,1.41,3.227,4,8.5,4
		c5.272,0,8.5-2.59,8.5-4c0-2.762,2.238-5,5-5s5,2.238,5,5C78,130.834,69.874,136.983,59.5,136.983z"/>
</g>
<g>
	<path fill="#5B6166" d="M113,128.451c-1.279,0-2.56-0.488-3.535-1.465l-108-108c-1.953-1.953-1.953-5.119,0-7.071
		c1.953-1.952,5.118-1.952,7.071,0l108,108c1.953,1.952,1.953,5.118,0,7.07C115.56,127.963,114.279,128.451,113,128.451z"/>
</g>
</svg>
