<?xml version="1.0" encoding="utf-8"?>
<!-- Generator: Adobe Illustrator 16.0.0, SVG Export Plug-In . SVG Version: 6.00 Build 0)  -->
<!DOCTYPE svg PUBLIC "-//W3C//DTD SVG 1.1//EN" "http://www.w3.org/Graphics/SVG/1.1/DTD/svg11.dtd">
<svg version="1.1" id="Notification" xmlns="http://www.w3.org/2000/svg" xmlns:xlink="http://www.w3.org/1999/xlink" x="0px"
	 y="0px" width="117.967px" height="137px" viewBox="0 0 117.967 137" enable-background="new 0 0 117.967 137"
	 xml:space="preserve">
<g>
	<path fill="#5B6166" d="M59.058,122c-30.227,0-51.026-8.003-51.896-8.344c-0.642-0.251-1.226-0.633-1.713-1.121
		c-9.197-9.196-5.039-20.032,0-25.07c5.68-5.681,10.731-29.473,12.581-43.135c0.042-0.309,0.113-0.615,0.211-0.911
		c7.135-21.404,19.747-27.75,26.744-29.629V9c0-1.326,0.527-2.598,1.465-3.536C47.007,4.905,52.121,0,59.316,0
		c4.408,0,8.628,1.89,12.202,5.464C72.457,6.402,72.983,7.674,72.983,9v4.79c6.996,1.879,19.608,8.225,26.743,29.629
		c0.099,0.296,0.17,0.602,0.212,0.911c1.85,13.663,6.9,37.455,12.58,43.135c5.039,5.038,9.197,15.874,0,25.07
		c-0.549,0.549-1.218,0.963-1.954,1.208C94.129,119.222,76.799,122,59.058,122z M11.827,104.712
		C16.229,106.24,34.456,112,59.058,112c16.231,0,32.084-2.472,47.14-7.348c1.763-2.085,2.197-4.107,1.418-6.446
		c-0.708-2.123-2.153-3.656-2.167-3.671c-9.587-9.587-14.558-42.669-15.354-48.386C82.431,23.681,68.506,23.017,67.913,23
		c-2.762,0-4.93-2.238-4.93-5v-6.718C61.772,10.421,60.563,10,59.316,10c-1.681,0-3.252,0.752-4.333,1.438V18c0,2.761-2.239,5-5,5
		c-0.523,0.017-14.448,0.681-22.111,23.149c-0.796,5.717-5.767,38.799-15.354,48.386C11.012,96.102,8.014,100.172,11.827,104.712z"
		/>
</g>
<g>
	<path fill="#5B6166" d="M59.483,137c-10.374,0-18.5-6.149-18.5-14c0-2.762,2.239-5,5-5s5,2.238,5,5c0,1.41,3.227,4,8.5,4
		c5.272,0,8.5-2.59,8.5-4c0-2.762,2.238-5,5-5s5,2.238,5,5C77.983,130.851,69.857,137,59.483,137z"/>
</g>
</svg>
