<?xml version="1.0" encoding="utf-8"?>
<!-- Generator: Adobe Illustrator 16.0.0, SVG Export Plug-In . SVG Version: 6.00 Build 0)  -->
<!DOCTYPE svg PUBLIC "-//W3C//DTD SVG 1.1//EN" "http://www.w3.org/Graphics/SVG/1.1/DTD/svg11.dtd">
<svg version="1.1" id="Pencil" xmlns="http://www.w3.org/2000/svg" xmlns:xlink="http://www.w3.org/1999/xlink" x="0px" y="0px"
	 width="113.657px" height="113.657px" viewBox="0 0 113.657 113.657" enable-background="new 0 0 113.657 113.657"
	 xml:space="preserve">
<g>
	<path fill="#5B6166" d="M4.5,113.657c-1.182,0-2.33-0.466-3.182-1.318c-1.064-1.063-1.525-2.589-1.23-4.064l6.364-31.819
		c0.326-1.627,1.52-2.943,3.108-3.424c1.589-0.48,3.313-0.048,4.486,1.125l25.456,25.455c1.173,1.173,1.605,2.897,1.125,4.485
		c-0.481,1.589-1.797,2.783-3.425,3.109L5.383,113.57C5.089,113.629,4.793,113.657,4.5,113.657z M13.627,86.466l-3.391,16.955
		l16.956-3.392L13.627,86.466z"/>
</g>
<g>
	<path fill="#5B6166" d="M36.319,107.293c-1.152,0-2.303-0.439-3.182-1.318c-1.757-1.757-1.757-4.606,0-6.363L87.23,45.518
		L68.14,26.426L14.046,80.52c-1.758,1.758-4.606,1.758-6.364,0c-1.757-1.757-1.757-4.606,0-6.363L64.958,16.88
		c0.844-0.844,1.988-1.318,3.182-1.318l0,0c1.193,0,2.338,0.474,3.182,1.318l25.455,25.456c1.758,1.757,1.758,4.607,0,6.364
		l-57.275,57.275C38.623,106.854,37.471,107.293,36.319,107.293z"/>
</g>
<g>
	<path fill="#5B6166" d="M93.595,50.018c-1.151,0-2.304-0.439-3.182-1.318c-1.758-1.757-1.758-4.606,0-6.364l12.729-12.728
		c1.394-1.468,2.563-3.801,0-6.364L90.413,10.516c-1.469-1.394-3.802-2.562-6.364,0L71.321,23.244c-1.756,1.757-4.605,1.757-6.363,0
		c-1.758-1.757-1.758-4.606,0-6.364L77.686,4.152c3.834-3.833,8.576-5.066,13.355-3.473c3.23,1.077,5.345,3.083,5.735,3.474
		l12.729,12.728c3.834,3.833,5.067,8.576,3.474,13.355c-1.076,3.231-3.082,5.346-3.474,5.737L96.776,48.7
		C95.898,49.578,94.746,50.018,93.595,50.018z"/>
</g>
</svg>
