<?xml version="1.0" encoding="utf-8"?>
<!-- Generator: Adobe Illustrator 16.0.0, SVG Export Plug-In . SVG Version: 6.00 Build 0)  -->
<!DOCTYPE svg PUBLIC "-//W3C//DTD SVG 1.1//EN" "http://www.w3.org/Graphics/SVG/1.1/DTD/svg11.dtd">
<svg version="1.1" id="Performatted" xmlns="http://www.w3.org/2000/svg" xmlns:xlink="http://www.w3.org/1999/xlink" x="0px"
	 y="0px" width="153px" height="117.002px" viewBox="0 0 153 117.002" enable-background="new 0 0 153 117.002"
	 xml:space="preserve">
<g>
	<path fill="#5B6166" d="M112.5,99.001c-1.151,0-2.304-0.439-3.182-1.318c-1.758-1.757-1.758-4.606,0-6.363l32.817-32.818
		l-32.817-32.818c-1.758-1.757-1.758-4.607,0-6.364c1.756-1.757,4.607-1.757,6.363,0l36,36c1.758,1.757,1.758,4.607,0,6.364l-36,36
		C114.804,98.562,113.651,99.001,112.5,99.001z"/>
</g>
<g>
	<path fill="#5B6166" d="M40.5,99.001c-1.152,0-2.303-0.439-3.182-1.318l-36-36c-1.757-1.757-1.757-4.606,0-6.364l36-36
		c1.758-1.757,4.606-1.757,6.364,0c1.757,1.757,1.757,4.607,0,6.364L10.864,58.501l32.818,32.818c1.757,1.757,1.757,4.606,0,6.363
		C42.803,98.562,41.652,99.001,40.5,99.001z"/>
</g>
<g>
	<path fill="#5B6166" d="M58.5,117.002c-0.472,0-0.951-0.074-1.423-0.231c-2.358-0.786-3.632-3.335-2.846-5.692l36-108
		c0.786-2.358,3.336-3.632,5.692-2.846c2.358,0.786,3.632,3.334,2.847,5.692l-36,108C62.141,115.81,60.385,117.002,58.5,117.002z"/>
</g>
</svg>
