<?xml version="1.0" encoding="utf-8"?>
<!-- Generator: Adobe Illustrator 16.0.0, SVG Export Plug-In . SVG Version: 6.00 Build 0)  -->
<!DOCTYPE svg PUBLIC "-//W3C//DTD SVG 1.1//EN" "http://www.w3.org/Graphics/SVG/1.1/DTD/svg11.dtd">
<svg version="1.1" id="Layer_17" xmlns="http://www.w3.org/2000/svg" xmlns:xlink="http://www.w3.org/1999/xlink" x="0px" y="0px"
	 width="81px" height="123px" viewBox="0 0 81 123" enable-background="new 0 0 81 123" xml:space="preserve">
<g>
	<path fill="#5B6166" d="M67.5,65.5l-9-50h9v-11h-45h-9v11h9l-9,50h-9v11h72v-11H67.5z M36,54c0,2.484-2.015,4.5-4.5,4.5
		S27,56.484,27,54V27c0-2.485,2.015-4.5,4.5-4.5S36,24.514,36,27V54z"/>
	<path fill="#5B6166" d="M76.5,81h-72C2.015,81,0,78.985,0,76.5v-11C0,63.014,2.015,61,4.5,61h5.238l7.38-41H13.5
		C11.015,20,9,17.985,9,15.5v-11C9,2.015,11.015,0,13.5,0h54C69.985,0,72,2.015,72,4.5v11c0,2.485-2.015,4.5-4.5,4.5h-3.618
		l7.381,41H76.5c2.485,0,4.5,2.015,4.5,4.5v11C81,78.985,78.985,81,76.5,81z M9,72h63v-2h-4.5c-2.178,0-4.043-1.56-4.429-3.703
		l-9-50c-0.236-1.312,0.121-2.661,0.977-3.684C55.902,11.59,57.167,11,58.5,11H63V9H18v2h4.5c1.333,0,2.597,0.591,3.452,1.614
		c0.855,1.022,1.213,2.372,0.977,3.684l-9,50C17.543,68.44,15.678,70,13.5,70H9V72z"/>
</g>
<line fill="none" stroke="#5B6166" stroke-width="11" stroke-linecap="round" stroke-linejoin="round" stroke-miterlimit="10" x1="40.5" y1="117.5" x2="40.5" y2="92.5"/>
</svg>
