<?xml version="1.0" encoding="utf-8"?>
<!-- Generator: Adobe Illustrator 16.0.0, SVG Export Plug-In . SVG Version: 6.00 Build 0)  -->
<!DOCTYPE svg PUBLIC "-//W3C//DTD SVG 1.1//EN" "http://www.w3.org/Graphics/SVG/1.1/DTD/svg11.dtd">
<svg version="1.1" id="Layer_10" xmlns="http://www.w3.org/2000/svg" xmlns:xlink="http://www.w3.org/1999/xlink" x="0px" y="0px"
	 width="100.616px" height="101.207px" viewBox="0 0 100.616 101.207" enable-background="new 0 0 100.616 101.207"
	 xml:space="preserve">
<g>
	<path fill="#5B6166" d="M14.311,101.207C14.311,101.207,14.311,101.207,14.311,101.207c-5.592-0.001-9.579-3.813-10.015-4.247
		c-7.205-7.204-4.01-16.062-0.106-20.258c0.033-0.035,0.066-0.069,0.1-0.104l30.007-30.006c-0.684-1.784-1.218-3.625-1.596-5.501
		c-2.276-11.299,1.225-22.906,9.365-31.047C48.543,3.567,57.155,0,66.315,0c2.408,0,4.821,0.254,7.173,0.755
		c1.225,0.261,2.257,1.08,2.788,2.213c0.532,1.133,0.502,2.451-0.08,3.559l-10.911,20.78l8.024,8.024l20.771-10.918
		c1.11-0.583,2.428-0.612,3.56-0.081c1.134,0.532,1.953,1.564,2.214,2.789c2.433,11.426-1.04,23.172-9.29,31.42
		c-6.477,6.477-15.087,10.044-24.247,10.044c-2.334,0-4.676-0.239-6.96-0.711c-1.802-0.371-3.572-0.889-5.29-1.545L23.771,96.971
		C20.995,99.748,17.729,101.207,14.311,101.207z M10.017,82.185c-1.04,1.171-3.998,5.184-0.068,9.113
		c0.531,0.508,2.418,1.908,4.362,1.908h0c1.286,0,2.525-0.614,3.787-1.876l32.197-32.566c1.204-1.216,3.046-1.534,4.584-0.789
		c1.937,0.935,3.986,1.629,6.095,2.064c1.753,0.361,3.55,0.545,5.343,0.545c7.022,0,13.625-2.735,18.591-7.7
		c5.019-5.019,7.731-11.727,7.706-18.663l-18.189,9.561c-1.549,0.815-3.451,0.526-4.689-0.712L57.546,30.881
		c-1.238-1.238-1.527-3.138-0.713-4.688L66.386,8c-0.023,0-0.047,0-0.071,0c-7.023,0-13.626,2.734-18.592,7.7
		c-6.241,6.242-8.925,15.144-7.179,23.811c0.436,2.164,1.143,4.265,2.102,6.246c0.742,1.533,0.433,3.367-0.771,4.571L10.017,82.185z
		"/>
</g>
</svg>
