<?xml version="1.0" encoding="utf-8"?>
<!-- Generator: Adobe Illustrator 16.0.0, SVG Export Plug-In . SVG Version: 6.00 Build 0)  -->
<!DOCTYPE svg PUBLIC "-//W3C//DTD SVG 1.1//EN" "http://www.w3.org/Graphics/SVG/1.1/DTD/svg11.dtd">
<svg version="1.1" id="Layer_11" xmlns="http://www.w3.org/2000/svg" xmlns:xlink="http://www.w3.org/1999/xlink" x="0px" y="0px"
	 width="98px" height="98px" viewBox="0 0 98 98" enable-background="new 0 0 98 98" xml:space="preserve">
<g>
	<path fill="#5B6166" d="M94.001,98c-1.041,0-2.064-0.406-2.829-1.172L74.343,80H4c-2.209,0-4-1.791-4-4V4c0-2.209,1.791-4,4-4h90
		c2.209,0,4,1.791,4,4v90c0,1.618-0.975,3.076-2.47,3.695C95.036,97.9,94.516,98,94.001,98z M8,72h68
		c1.061,0,2.078,0.422,2.828,1.172L90,84.343V8H8V72z"/>
</g>
</svg>
