<?xml version="1.0" encoding="utf-8"?>
<!-- Generator: Adobe Illustrator 16.0.0, SVG Export Plug-In . SVG Version: 6.00 Build 0)  -->
<!DOCTYPE svg PUBLIC "-//W3C//DTD SVG 1.1//EN" "http://www.w3.org/Graphics/SVG/1.1/DTD/svg11.dtd">
<svg version="1.1" id="Reply_x5F_Topic" xmlns="http://www.w3.org/2000/svg" xmlns:xlink="http://www.w3.org/1999/xlink" x="0px"
	 y="0px" width="117.02px" height="101.572px" viewBox="0 0 117.02 101.572" enable-background="new 0 0 117.02 101.572"
	 xml:space="preserve">
<g>
	<path fill="#5B6166" d="M112.497,101.572c-1.908,0-3.646-1.217-4.267-3.077c-6.69-20.071-20.204-30.249-40.166-30.249
		c-5.378,0-9.946,0.785-12.779,1.425v27.401c0,1.82-1.096,3.461-2.778,4.157c-1.68,0.697-3.616,0.313-4.904-0.976L1.318,53.969
		C0.474,53.125,0,51.98,0,50.787s0.474-2.338,1.318-3.182L47.604,1.319c1.287-1.287,3.222-1.674,4.904-0.975
		c1.682,0.696,2.778,2.337,2.778,4.157v26.61c5.997,0.555,17.137,2.32,28.37,7.936c15.146,7.573,33.189,23.708,33.344,57.587
		c0.014,0.144,0.021,0.29,0.021,0.438c0,2.463-1.979,4.464-4.433,4.499C112.557,101.572,112.527,101.572,112.497,101.572z
		 M10.864,50.787l35.422,35.421V66.215c0-1.938,1.24-3.656,3.077-4.27c0.331-0.109,8.219-2.699,18.702-2.699
		c14.778,0,27.087,5.076,36.144,14.644c-4.399-11.841-12.614-20.811-24.577-26.792c-14.313-7.156-28.702-7.239-28.845-7.239
		c-2.485,0-4.5-2.015-4.5-4.5V15.365L10.864,50.787z"/>
</g>
</svg>
