<?xml version="1.0" encoding="utf-8"?>
<!-- Generator: Adobe Illustrator 16.0.0, SVG Export Plug-In . SVG Version: 6.00 Build 0)  -->
<!DOCTYPE svg PUBLIC "-//W3C//DTD SVG 1.1//EN" "http://www.w3.org/Graphics/SVG/1.1/DTD/svg11.dtd">
<svg version="1.1" id="Layer_119" xmlns="http://www.w3.org/2000/svg" xmlns:xlink="http://www.w3.org/1999/xlink" x="0px" y="0px"
	 width="111.531px" height="117px" viewBox="0 0 111.531 117" enable-background="new 0 0 111.531 117" xml:space="preserve">
<g>
	<path fill="#5B6166" d="M55.766,80.999c-12.406,0-22.499-10.093-22.499-22.499c0-12.406,10.093-22.499,22.499-22.499
		c12.406,0,22.499,10.093,22.499,22.499C78.265,70.906,68.172,80.999,55.766,80.999z M55.766,45.001
		c-7.443,0-13.499,6.056-13.499,13.499s6.056,13.499,13.499,13.499S69.265,65.943,69.265,58.5S63.209,45.001,55.766,45.001z"/>
</g>
<g>
	<path fill="#5B6166" d="M73.769,28.207c-1.691,0-3.313-0.958-4.078-2.591L61.904,9h-12.53L39.67,25.942
		c-1.235,2.157-3.984,2.904-6.141,1.668c-2.157-1.235-2.904-3.985-1.668-6.141l11-19.206C43.663,0.864,45.152,0,46.766,0h18
		c1.746,0,3.334,1.01,4.075,2.59l9,19.206c1.054,2.25,0.085,4.93-2.166,5.984C75.058,28.07,74.408,28.207,73.769,28.207z"/>
</g>
<g>
	<path fill="#5B6166" d="M17.02,63.001c-1.471,0-2.912-0.721-3.774-2.044L0.73,41.751c-0.925-1.42-0.975-3.239-0.127-4.707l9-15.588
		c0.804-1.392,2.289-2.25,3.897-2.25h22.266c2.485,0,4.5,2.015,4.5,4.5s-2.015,4.5-4.5,4.5H16.098l-6.32,10.946l11.007,16.891
		c1.357,2.082,0.769,4.87-1.313,6.228C18.714,62.765,17.862,63.001,17.02,63.001z"/>
</g>
<g>
	<path fill="#5B6166" d="M37.766,97.795H13.5c-1.608,0-3.093-0.857-3.897-2.25l-9-15.589c-0.848-1.468-0.798-3.287,0.127-4.707
		l12.516-19.206c1.356-2.082,4.143-2.669,6.227-1.313c2.082,1.357,2.67,4.145,1.313,6.227L9.778,77.849l6.32,10.946h21.667
		c2.485,0,4.5,2.015,4.5,4.5S40.251,97.795,37.766,97.795z"/>
</g>
<g>
	<path fill="#5B6166" d="M64.766,117h-18c-1.746,0-3.334-1.01-4.075-2.591l-9-19.205c-1.055-2.25-0.085-4.93,2.165-5.984
		c2.25-1.053,4.93-0.086,5.984,2.166L49.626,108h12.278l7.785-16.614c1.055-2.25,3.736-3.218,5.984-2.166
		c2.251,1.055,3.22,3.734,2.166,5.984l-8.999,19.205C68.1,115.99,66.512,117,64.766,117z"/>
</g>
<g>
	<path fill="#5B6166" d="M98.031,97.795H73.765c-2.485,0-4.5-2.015-4.5-4.5s2.015-4.5,4.5-4.5h21.669l6.306-10.922L90.518,60.991
		c-1.375-2.07-0.813-4.863,1.257-6.239c2.07-1.377,4.862-0.813,6.239,1.256l12.766,19.206c0.946,1.424,1.004,3.261,0.149,4.741
		l-9,15.589C101.125,96.938,99.639,97.795,98.031,97.795z"/>
</g>
<g>
	<path fill="#5B6166" d="M94.262,63c-0.855,0.001-1.721-0.243-2.487-0.752c-2.069-1.376-2.632-4.169-1.257-6.239l11.222-16.881
		l-6.306-10.922l-21.668,0c-2.485,0-4.5-2.015-4.5-4.5s2.015-4.5,4.5-4.5l24.266,0c1.607,0,3.094,0.858,3.897,2.25l9,15.589
		c0.854,1.48,0.797,3.317-0.149,4.741L98.014,60.991C97.146,62.295,95.718,63,94.262,63z"/>
</g>
</svg>
