<?xml version="1.0" encoding="utf-8"?>
<!-- Generator: Adobe Illustrator 16.0.0, SVG Export Plug-In . SVG Version: 6.00 Build 0)  -->
<!DOCTYPE svg PUBLIC "-//W3C//DTD SVG 1.1//EN" "http://www.w3.org/Graphics/SVG/1.1/DTD/svg11.dtd">
<svg version="1.1" id="Share_x5F_Topic" xmlns="http://www.w3.org/2000/svg" xmlns:xlink="http://www.w3.org/1999/xlink" x="0px"
	 y="0px" width="102.035px" height="102.032px" viewBox="0 0 102.035 102.032" enable-background="new 0 0 102.035 102.032"
	 xml:space="preserve">
<g>
	<path fill="#5B6166" d="M75.595,102.032c-6.775,0-13.548-2.578-18.704-7.735L46.542,83.949c-1.757-1.757-1.757-4.606,0-6.363
		c1.758-1.758,4.607-1.758,6.364,0l10.348,10.348c6.805,6.803,17.876,6.803,24.683-0.001c6.804-6.804,6.804-17.875-0.001-24.681
		L72.413,47.73c-3.297-3.297-7.679-5.112-12.341-5.112s-9.044,1.815-12.341,5.112c-1.758,1.757-4.606,1.757-6.364,0
		c-1.757-1.757-1.757-4.606,0-6.364c4.996-4.997,11.639-7.749,18.705-7.749s13.709,2.752,18.705,7.749L94.3,56.889
		c10.313,10.314,10.313,27.096,0,37.408C89.144,99.453,82.367,102.031,75.595,102.032z"/>
</g>
<g>
	<path fill="#5B6166" d="M41.962,68.414c-7.066,0-13.709-2.752-18.705-7.748L7.734,45.144c-10.313-10.314-10.313-27.095,0-37.409
		c10.315-10.312,27.097-10.313,37.411,0l11.21,11.211c1.757,1.757,1.757,4.606-0.001,6.364c-1.759,1.757-4.607,1.757-6.364,0
		L38.782,14.098c-6.806-6.804-17.878-6.804-24.684,0c-6.803,6.805-6.803,17.877,0,24.682l15.523,15.522
		c3.296,3.296,7.678,5.112,12.34,5.112s9.045-1.815,12.342-5.112c1.758-1.757,4.606-1.757,6.364,0
		c1.757,1.757,1.757,4.606-0.001,6.364C55.671,65.663,49.028,68.414,41.962,68.414z"/>
</g>
<g>
	<path fill="#5B6166" d="M75.595,49.048c-1.151,0-2.304-0.439-3.183-1.318c-3.296-3.296-7.678-5.111-12.34-5.111
		s-9.044,1.815-12.341,5.112c-1.758,1.757-4.606,1.757-6.364,0c-1.757-1.757-1.757-4.606,0-6.364
		c4.996-4.997,11.639-7.748,18.705-7.748s13.709,2.751,18.705,7.748c1.757,1.757,1.757,4.606-0.001,6.364
		C77.897,48.608,76.746,49.048,75.595,49.048z"/>
</g>
</svg>
