<?xml version="1.0" encoding="utf-8"?>
<!-- Generator: Adobe Illustrator 16.0.0, SVG Export Plug-In . SVG Version: 6.00 Build 0)  -->
<!DOCTYPE svg PUBLIC "-//W3C//DTD SVG 1.1//EN" "http://www.w3.org/Graphics/SVG/1.1/DTD/svg11.dtd">
<svg version="1.1" id="Layer_13" xmlns="http://www.w3.org/2000/svg" xmlns:xlink="http://www.w3.org/1999/xlink" x="0px" y="0px"
	 width="117.02px" height="126px" viewBox="0 0 117.02 126" enable-background="new 0 0 117.02 126" xml:space="preserve">
<g>
	<path fill="#5B6166" d="M112.52,72c-0.004,0.001-0.012,0.001-0.02,0c-2.485,0-4.5-2.015-4.5-4.5c0-7.444-6.056-13.5-13.5-13.5
		S81,60.056,81,67.5c0,2.485-2.015,4.5-4.5,4.5S72,69.985,72,67.5C72,60.056,65.944,54,58.5,54C51.056,54,45,60.056,45,67.5
		c0,2.485-2.015,4.5-4.5,4.5S36,69.985,36,67.5C36,60.056,29.944,54,22.5,54S9,60.056,9,67.5C9,69.985,6.985,72,4.5,72
		S0,69.985,0,67.5C0,35.243,26.243,9,58.5,9c32.109,0,58.26,26.001,58.498,58.056c0.015,0.146,0.021,0.295,0.021,0.444
		C117.02,69.985,115.005,72,112.52,72z M58.5,45c7.352,0,13.892,3.544,18,9.014C80.608,48.544,87.148,45,94.5,45
		c3.197,0,6.24,0.67,8.997,1.877C95.663,29.85,78.439,18,58.5,18S21.337,29.85,13.503,46.877C16.259,45.67,19.303,45,22.5,45
		c7.352,0,13.892,3.544,18,9.014C44.608,48.544,51.148,45,58.5,45z"/>
</g>
<g>
	<path fill="#5B6166" d="M58.5,18c-2.485,0-4.5-2.015-4.5-4.5v-9C54,2.015,56.015,0,58.5,0S63,2.015,63,4.5v9
		C63,15.985,60.985,18,58.5,18z"/>
</g>
<g>
	<path fill="#5B6166" d="M49.5,126c-5.427,0-13.5-3.596-13.5-13.5c0-2.485,2.015-4.5,4.5-4.5s4.5,2.015,4.5,4.5
		c0,3.624,2.476,4.447,4.553,4.5c3.571,0,4.395-2.476,4.447-4.553L54,67.5c0-2.485,2.015-4.5,4.5-4.5s4.5,2.015,4.5,4.5v45
		C63,117.927,59.404,126,49.5,126z"/>
</g>
</svg>
