<?xml version="1.0" encoding="utf-8"?>
<!-- Generator: Adobe Illustrator 16.0.0, SVG Export Plug-In . SVG Version: 6.00 Build 0)  -->
<!DOCTYPE svg PUBLIC "-//W3C//DTD SVG 1.1//EN" "http://www.w3.org/Graphics/SVG/1.1/DTD/svg11.dtd">
<svg version="1.1" id="Layer_49" xmlns="http://www.w3.org/2000/svg" xmlns:xlink="http://www.w3.org/1999/xlink" x="0px" y="0px"
	 width="153px" height="128.571px" viewBox="0 0 153 128.571" enable-background="new 0 0 153 128.571" xml:space="preserve">
<g>
	<path fill="#5B6166" d="M76.5,128.571c-19.638,0-38.158-2.201-52.148-6.198C8.193,117.756,0,111.406,0,103.5
		c0-5.494,4.042-10.291,12.012-14.258c2.226-1.107,4.926-0.2,6.034,2.024c1.107,2.226,0.201,4.927-2.024,6.033
		C10.839,99.879,9,102.252,9,103.5c0,5.455,23.825,16.071,67.5,16.071S144,108.955,144,103.5c0-1.165-1.542-3.248-5.871-5.602
		c-2.184-1.187-2.991-3.919-1.804-6.103c1.187-2.184,3.921-2.994,6.103-1.804C149.443,93.806,153,98.351,153,103.5
		c0,7.906-8.193,14.256-24.352,18.873C114.658,126.37,96.139,128.571,76.5,128.571z"/>
</g>
<g>
	<path fill="#5B6166" d="M121.5,99h-90c-2.485,0-4.5-2.015-4.5-4.5v-90C27,2.015,29.015,0,31.5,0h90c2.485,0,4.5,2.015,4.5,4.5v90
		C126,96.985,123.985,99,121.5,99z M36,90h81V9H36V90z"/>
</g>
<g>
	<path fill="#5B6166" d="M99.5,36h-45c-2.485,0-4.5-2.015-4.5-4.5s2.015-4.5,4.5-4.5h45c2.485,0,4.5,2.015,4.5,4.5
		S101.985,36,99.5,36z"/>
</g>
<g>
	<path fill="#5B6166" d="M81.5,63h-27c-2.485,0-4.5-2.015-4.5-4.5s2.015-4.5,4.5-4.5h27c2.485,0,4.5,2.015,4.5,4.5
		S83.985,63,81.5,63z"/>
</g>
</svg>
