<?xml version="1.0" encoding="utf-8"?>
<!-- Generator: Adobe Illustrator 16.0.0, SVG Export Plug-In . SVG Version: 6.00 Build 0)  -->
<!DOCTYPE svg PUBLIC "-//W3C//DTD SVG 1.1//EN" "http://www.w3.org/Graphics/SVG/1.1/DTD/svg11.dtd">
<svg version="1.1" id="Layer_19" xmlns="http://www.w3.org/2000/svg" xmlns:xlink="http://www.w3.org/1999/xlink" x="0px" y="0px"
	 width="99px" height="117px" viewBox="0 0 99 117" enable-background="new 0 0 99 117" xml:space="preserve">
<g>
	<path fill="#5B6166" d="M49.5,0c1.336,0,2.602,0.593,3.457,1.619l45,54c1.117,1.342,1.358,3.208,0.618,4.79
		C97.834,61.989,96.246,63,94.5,63H72v49.5c0,2.485-2.015,4.5-4.5,4.5h-36c-2.485,0-4.5-2.015-4.5-4.5V63H4.5
		c-1.746,0-3.335-1.011-4.075-2.591c-0.74-1.582-0.5-3.448,0.618-4.79l45-54C46.898,0.593,48.164,0,49.5,0z M84.892,54L49.5,11.529
		L14.107,54H31.5c2.485,0,4.5,2.015,4.5,4.5V108h27V58.5c0-2.485,2.015-4.5,4.5-4.5H84.892z"/>
</g>
</svg>
