<?xml version="1.0" encoding="utf-8"?>
<!-- Generator: Adobe Illustrator 16.0.0, SVG Export Plug-In . SVG Version: 6.00 Build 0)  -->
<!DOCTYPE svg PUBLIC "-//W3C//DTD SVG 1.1//EN" "http://www.w3.org/Graphics/SVG/1.1/DTD/svg11.dtd">
<svg version="1.1" id="User" xmlns="http://www.w3.org/2000/svg" xmlns:xlink="http://www.w3.org/1999/xlink" x="0px" y="0px"
	 width="102.042px" height="111.014px" viewBox="0 0 102.042 111.014" enable-background="new 0 0 102.042 111.014"
	 xml:space="preserve">
<g>
	<path fill="#5B6166" d="M50.687,58.224c-14.612,0-26.378-17.422-26.378-31.847C24.309,11.833,36.142,0,50.687,0
		C65.23,0,77.062,11.833,77.062,26.377C77.062,40.802,65.297,58.224,50.687,58.224z M50.687,9c-9.583,0-17.378,7.795-17.378,17.377
		c0,10.07,8.182,22.846,17.378,22.846c9.194,0,17.375-12.776,17.375-22.846C68.062,16.795,60.268,9,50.687,9z"/>
</g>
<g>
	<path fill="#5B6166" d="M51.027,111.014c-0.218,0-0.438-0.017-0.661-0.049c-22.301-3.28-46.363-11.805-47.376-12.166
		c-2.022-0.72-3.253-2.768-2.941-4.892c1.194-8.144,3.672-22.387,6.847-26.284c0.948-1.158,2.178-2.279,3.662-3.344
		c8.982-6.405,21.605-10.32,22.138-10.484c2.375-0.728,4.893,0.606,5.622,2.982c0.729,2.376-0.606,4.894-2.982,5.622
		c-0.211,0.065-11.809,3.686-19.542,9.2c-0.823,0.59-1.494,1.187-1.929,1.718c-1.107,1.67-2.99,10.124-4.333,18.2
		c7.474,2.47,25.59,8.107,42.145,10.543c2.458,0.361,4.158,2.648,3.797,5.107C55.144,109.405,53.222,111.013,51.027,111.014z"/>
</g>
<g>
	<path fill="#5B6166" d="M51.015,111.014c-2.195,0-4.117-1.609-4.446-3.846c-0.362-2.459,1.338-4.746,3.797-5.107
		c16.572-2.438,34.675-8.072,42.145-10.543c-1.343-8.077-3.233-16.541-4.393-18.277c-0.375-0.454-1.046-1.051-1.88-1.648
		c-7.754-5.529-19.416-9.156-19.533-9.192c-2.374-0.731-3.708-3.249-2.979-5.623c0.729-2.375,3.237-3.711,5.621-2.981
		c0.532,0.164,13.156,4.079,22.127,10.476c1.495,1.073,2.725,2.194,3.664,3.341c3.183,3.908,5.662,18.151,6.856,26.295
		c0.312,2.123-0.92,4.172-2.941,4.892c-1.013,0.361-25.075,8.886-47.377,12.166C51.454,110.998,51.233,111.014,51.015,111.014z"/>
</g>
</svg>
