<?xml version="1.0" encoding="utf-8"?>
<!-- Generator: Adobe Illustrator 16.0.0, SVG Export Plug-In . SVG Version: 6.00 Build 0)  -->
<!DOCTYPE svg PUBLIC "-//W3C//DTD SVG 1.1//EN" "http://www.w3.org/Graphics/SVG/1.1/DTD/svg11.dtd">
<svg version="1.1" id="Layer_48" xmlns="http://www.w3.org/2000/svg" xmlns:xlink="http://www.w3.org/1999/xlink" x="0px" y="0px"
	 width="153px" height="99px" viewBox="0 0 153 99" enable-background="new 0 0 153 99" xml:space="preserve">
<g>
	<path fill="#5B6166" d="M76.5,99c-24.226,0-44.026-12.575-53.673-20.071C11.483,70.113,0,57.175,0,49.5
		c0-7.674,11.483-20.613,22.827-29.428C32.474,12.576,52.274,0,76.5,0c24.227,0,44.026,12.576,53.673,20.072
		C141.517,28.887,153,41.826,153,49.5c0,7.675-11.483,20.613-22.827,29.429C120.526,86.425,100.727,99,76.5,99z M76.5,9
		C39.287,9,9.417,43.016,9,49.524C9.417,55.984,39.287,90,76.5,90s67.084-34.016,67.501-40.524C143.584,43.016,113.713,9,76.5,9z"/>
</g>
<g>
	<circle fill="#5B6166" cx="76.5" cy="49.5" r="27"/>
	<path fill="#5B6166" d="M76.5,81C59.131,81,45,66.869,45,49.5S59.131,18,76.5,18S108,32.131,108,49.5S93.869,81,76.5,81z M76.5,27
		C64.093,27,54,37.093,54,49.5C54,61.906,64.093,72,76.5,72C88.906,72,99,61.906,99,49.5C99,37.093,88.906,27,76.5,27z"/>
</g>
</svg>
