<?xml version="1.0" encoding="utf-8"?>
<!-- Generator: Adobe Illustrator 16.0.0, SVG Export Plug-In . SVG Version: 6.00 Build 0)  -->
<!DOCTYPE svg PUBLIC "-//W3C//DTD SVG 1.1//EN" "http://www.w3.org/Graphics/SVG/1.1/DTD/svg11.dtd">
<svg version="1.1" id="Layer_60_copy_8" xmlns="http://www.w3.org/2000/svg" xmlns:xlink="http://www.w3.org/1999/xlink" x="0px"
	 y="0px" width="136px" height="136px" viewBox="0 0 136 136" enable-background="new 0 0 136 136" xml:space="preserve">
<g>
	<path fill="#5B6166" d="M95,101c-1.535,0-3.071-0.586-4.242-1.758l-27-27c-2.343-2.343-2.343-6.142,0-8.485l18-18
		c2.342-2.343,6.143-2.343,8.484,0c2.344,2.343,2.344,6.142,0,8.485L76.485,68l22.757,22.758c2.344,2.343,2.344,6.142,0,8.484
		C98.071,100.414,96.535,101,95,101z"/>
</g>
<g>
	<path fill="#5B6166" d="M68,136c-37.495,0-68-30.505-68-68S30.505,0,68,0s68,30.505,68,68S105.495,136,68,136z M68,10
		c-31.981,0-58,26.019-58,58s26.019,58,58,58s58-26.019,58-58S99.981,10,68,10z"/>
</g>
</svg>
