<?xml version="1.0" encoding="utf-8"?>
<!-- Generator: Adobe Illustrator 19.0.0, SVG Export Plug-In . SVG Version: 6.00 Build 0)  -->
<svg version="1.1" id="Hero" xmlns="http://www.w3.org/2000/svg" xmlns:xlink="http://www.w3.org/1999/xlink" x="0px" y="0px"
	 viewBox="31 -3310.8 41 38.8" style="enable-background:new 31 -3310.8 41 38.8;" xml:space="preserve">
<style type="text/css">
	.st0{fill:#FF8017;}
	.st1{fill:#CFDCE5;}
	.st2{fill:#6F7592;}
</style>
<g>
	<path class="st0" d="M49.1-3302.2v6.8h-9.7v-9.7h6.8C47.8-3305.1,49.1-3303.8,49.1-3302.2z"/>
	<path class="st1" d="M49.1-3302.2v3.9h-5.7v-6.8h2.8C47.8-3305.1,49.1-3303.8,49.1-3302.2z"/>
	<polyline class="st0" points="44.8,-3272.6 36.1,-3272.6 36.1,-3275.9 50.8,-3275.9 50.8,-3272.6 46.8,-3272.6 	"/>
	<path class="st2" d="M68.5-3303h-19c-0.4-1.5-1.8-2.7-3.4-2.7h-0.2l-1.9-4.6c-0.1-0.2-0.3-0.4-0.6-0.4s-0.5,0.1-0.6,0.4l-1.9,4.6
		h-1.5c-0.3,0-0.6,0.3-0.6,0.6v2.1h-4.3c-0.3,0-0.6,0.3-0.6,0.6v5c0,0.3,0.3,0.6,0.6,0.6h4.3v1.4c0,0.3,0.3,0.6,0.6,0.6h0.9v18.2
		h-4.2c-0.3,0-0.6,0.3-0.6,0.6v3.3c0,0.3,0.3,0.6,0.6,0.6h8.7c0.3,0,0.6-0.3,0.6-0.6s-0.3-0.6-0.6-0.6h-8.1v-2.1h13.4v2.1h-3.3
		c-0.3,0-0.6,0.3-0.6,0.6s0.3,0.6,0.6,0.6h4c0.3,0,0.6-0.3,0.6-0.6v-3.3c0-0.3-0.3-0.6-0.6-0.6h-4.2v-18.2h2.6
		c0.3,0,0.6-0.3,0.6-0.6v-1.4h15.2v5.6h-0.4c-0.3,0-0.6,0.3-0.6,0.6s0.3,0.6,0.6,0.6h0.4v1.6c0,0.3,0.3,0.6,0.6,0.6
		c0.6,0,1.1,0.5,1.1,1.1c0,0.6-0.5,1.1-1.1,1.1c-0.6,0-1.1-0.5-1.1-1.1c0-0.3-0.3-0.6-0.6-0.6c-0.3,0-0.6,0.3-0.6,0.6
		c0,1.3,1.1,2.4,2.4,2.4c1.3,0,2.4-1.1,2.4-2.4c0-1.1-0.7-2-1.7-2.3v-1h0.4c0.3,0,0.6-0.3,0.6-0.6s-0.3-0.6-0.6-0.6h-0.4v-5.6h2.4
		c0.3,0,0.6-0.3,0.6-0.6v-5C69.2-3302.7,68.9-3303,68.5-3303z M67.9-3298.9l-2.8-2.8h2.8V-3298.9z M60.1-3298.1l3.5-3.5l3.5,3.5
		H60.1z M49.7-3298.9v-2.8h2.8L49.7-3298.9z M53.8-3301.3l3.3,3.3h-6.5L53.8-3301.3z M55.2-3301.8h6.9l-3.5,3.5L55.2-3301.8z
		 M43.4-3308.4l1.2,2.7h-2.3L43.4-3308.4z M38.8-3298.9l-2.8-2.8h2.8V-3298.9z M35.1-3300.9l2.8,2.8h-2.8V-3300.9z M45.3-3282.4
		l-3.5-3.5l3.5-3.5V-3282.4z M45-3280.9l-3.5,3.5v-6.9L45-3280.9z M41.6-3287.4v-6.5l3.3,3.3L41.6-3287.4z M42.4-3276.5l2.8-2.8v2.8
		H42.4z M45.3-3291.9l-2.8-2.8h2.8V-3291.9z M48.5-3296H40v-8.4h2.7v1.7c0,0.3,0.3,0.6,0.6,0.6c0.3,0,0.6-0.3,0.6-0.6v-1.7h1.5
		c0,0,0,0,0,0c0,0,0.7,0,0.7,0c1.3,0,2.3,1,2.3,2.3v3.3H44v-1.8c0-0.3-0.3-0.6-0.6-0.6c-0.3,0-0.6,0.3-0.6,0.6v2.5
		c0,0.3,0.3,0.6,0.6,0.6h5.1L48.5-3296L48.5-3296z"/>
</g>
</svg>
