<?xml version="1.0" encoding="utf-8"?>
<!-- Generator: Adobe Illustrator 19.0.0, SVG Export Plug-In . SVG Version: 6.00 Build 0)  -->
<svg version="1.1" id="Hero" xmlns="http://www.w3.org/2000/svg" xmlns:xlink="http://www.w3.org/1999/xlink" x="0px" y="0px"
	 viewBox="-277 402.1 41 38.8" style="enable-background:new -277 402.1 41 38.8;" xml:space="preserve">
<style type="text/css">
	.st0{fill:#DFFFDC;}
	.st1{fill:#A4CFF2;}
	.st2{fill:#FF5555;}
	.st3{fill:#FF3131;}
	.st4{fill:#FFFFFF;}
	.st5{fill:#D3E6F8;}
	.st6{fill:#7BABF1;}
	.st7{fill:#4C4372;}
</style>
<g>
	<title>004 robotic arm</title>
	<g>
		<path class="st0" d="M-241,421.5c0,8.5-6.9,15.5-15.5,15.5c-8.5,0-15.5-6.9-15.5-15.5s6.9-15.5,15.5-15.5
			C-248,406-241,413-241,421.5z"/>
		<path class="st1" d="M-267.6,440.2V434h12.3c1.7,0,3.1,1.4,3.1,3.1s-1.4,3.1-3.1,3.1H-267.6z"/>
		<path class="st2" d="M-246.9,437.1c0,1.5-1.2,2.6-2.6,2.6c-1.5,0-2.6-1.2-2.6-2.6c0-1.5,1.2-2.6,2.6-2.6
			C-248.1,434.5-246.9,435.6-246.9,437.1z"/>
		<path class="st3" d="M-248.4,437.1c0,0.6-0.5,1.1-1.1,1.1c-0.6,0-1.1-0.5-1.1-1.1c0-0.6,0.5-1.1,1.1-1.1
			C-248.9,436-248.4,436.5-248.4,437.1L-248.4,437.1z"/>
		<path class="st4" d="M-249.5,434.5c0.3,0,0.6,0.1,0.9,0.1v-11.3h-1.9v11.4C-250.2,434.5-249.9,434.5-249.5,434.5L-249.5,434.5z"/>
		<path class="st5" d="M-246.7,419.5h-6c-0.7,0-1.2-0.5-1.2-1.2v-7h8.4v7C-245.4,418.9-246,419.5-246.7,419.5L-246.7,419.5z"/>
		<path class="st2" d="M-245.4,411.2h-2.1v-5.5c0-0.6,0.5-1.1,1.1-1.1s1.1,0.5,1.1,1.1V411.2z"/>
		<path class="st2" d="M-247.5,411.2h-2.1v-6.6c0-0.6,0.5-1.1,1.1-1.1c0.6,0,1.1,0.5,1.1,1.1L-247.5,411.2z"/>
		<path class="st2" d="M-249.7,411.2h-2.1v-7.4c0-0.6,0.5-1.1,1.1-1.1s1.1,0.5,1.1,1.1L-249.7,411.2z"/>
		<path class="st2" d="M-253.9,417.6c-1.2,0-2.1-0.9-2.1-2.1v-4.7c0-0.6,0.5-1,1-1s1,0.5,1,1V417.6z"/>
		<path class="st3" d="M-253.9,417.6v-6.7c0-0.6-0.5-1-1-1v7.5C-254.6,417.5-254.2,417.6-253.9,417.6L-253.9,417.6z"/>
		<path class="st3" d="M-246.4,404.7v6.6h0.9v-5.5C-245.4,405.2-245.9,404.7-246.4,404.7L-246.4,404.7z"/>
		<path class="st3" d="M-248.5,403.5v7.7h1v-6.8C-247.6,404-248,403.6-248.5,403.5z"/>
		<path class="st2" d="M-251.8,411.2h-2.1v-6.6c0-0.6,0.5-1.1,1.1-1.1c0.6,0,1.1,0.5,1.1,1.1L-251.8,411.2z"/>
		<path class="st3" d="M-252.7,403.5v7.7h1v-6.8C-251.8,404-252.2,403.6-252.7,403.5z"/>
		<path class="st3" d="M-250.6,402.8v8.4h1v-7.5C-249.7,403.2-250.1,402.9-250.6,402.8z"/>
		<path class="st1" d="M-246.5,419.5c0.6-0.1,1-0.6,1-1.2v-7.1h-1V419.5z"/>
		<path class="st6" d="M-246.9,421.1h-5.6c-0.2,0-0.4-0.2-0.4-0.4c0,0,0,0,0,0v-1.2h6.5v1.2C-246.5,420.9-246.7,421.1-246.9,421.1
			C-246.9,421.1-246.9,421.1-246.9,421.1z"/>
		<path class="st1" d="M-251.4,421.1h3.4v2.2h-3.4V421.1z"/>
		<path class="st4" d="M-249.7,413.4c-1,0-1.8,0.8-1.8,1.8v4.2h3.7v-4.2C-247.8,414.3-248.7,413.4-249.7,413.4L-249.7,413.4z"/>
		<g>
			<path class="st7" d="M-253.9,412.2h-2.1c-0.2,0-0.4-0.2-0.4-0.4s0.2-0.4,0.4-0.4h2.1c0.2,0,0.4,0.2,0.4,0.4
				C-253.4,412-253.6,412.2-253.9,412.2L-253.9,412.2z"/>
			<path class="st7" d="M-251.8,405.9h-2.1c-0.2,0-0.4-0.2-0.4-0.4s0.2-0.4,0.4-0.4l0,0h2.1c0.2,0,0.4,0.2,0.4,0.4
				C-251.3,405.8-251.5,405.9-251.8,405.9L-251.8,405.9L-251.8,405.9z"/>
			<path class="st7" d="M-249.7,405.6h-2.1c-0.2,0-0.4-0.2-0.4-0.4s0.2-0.4,0.4-0.4c0,0,0,0,0,0h2.1c0.2,0,0.4,0.2,0.4,0.4
				C-249.2,405.4-249.4,405.6-249.7,405.6z"/>
			<path class="st7" d="M-247.5,405.9h-2.1c-0.2,0-0.4-0.2-0.4-0.4s0.2-0.4,0.4-0.4h2.1c0.2,0,0.4,0.2,0.4,0.4
				C-247.1,405.8-247.3,405.9-247.5,405.9L-247.5,405.9L-247.5,405.9z"/>
			<path class="st7" d="M-245.4,407.2h-2.1c-0.2,0-0.4-0.2-0.4-0.4c0-0.2,0.2-0.4,0.4-0.4h0h2.1c0.2,0,0.4,0.2,0.4,0.4
				C-245,407-245.2,407.2-245.4,407.2C-245.4,407.2-245.4,407.2-245.4,407.2z"/>
			<path class="st7" d="M-245.4,411.7h-2.1c-0.2,0-0.4-0.2-0.4-0.4v0v-5.5c0-0.8,0.7-1.5,1.5-1.5s1.5,0.7,1.5,1.5v5.5
				C-245,411.5-245.2,411.7-245.4,411.7L-245.4,411.7z M-247.1,410.8h1.2v-5.1c0-0.3-0.3-0.6-0.6-0.6c-0.3,0-0.6,0.3-0.6,0.6V410.8z
				"/>
			<path class="st7" d="M-247.5,411.7h-2.1c-0.2,0-0.4-0.2-0.4-0.4l0,0v-6.6c0-0.8,0.7-1.5,1.5-1.5c0.8,0,1.5,0.7,1.5,1.5v6.6
				C-247.1,411.5-247.3,411.7-247.5,411.7C-247.5,411.7-247.5,411.7-247.5,411.7L-247.5,411.7z M-249.2,410.8h1.2v-6.2
				c0-0.3-0.3-0.6-0.6-0.6s-0.6,0.3-0.6,0.6V410.8z"/>
			<path class="st7" d="M-249.7,411.7h-2.1c-0.2,0-0.4-0.2-0.4-0.4v0v-7.4c0-0.8,0.7-1.5,1.5-1.5c0.8,0,1.5,0.7,1.5,1.5v7.4
				C-249.2,411.5-249.4,411.7-249.7,411.7L-249.7,411.7L-249.7,411.7z M-251.3,410.8h1.2v-6.9c0-0.3-0.3-0.6-0.6-0.6
				c-0.3,0-0.6,0.3-0.6,0.6V410.8z"/>
			<path class="st7" d="M-253.9,418c-1.4,0-2.5-1.1-2.5-2.5v-4.7c0-0.8,0.7-1.5,1.5-1.5c0.8,0,1.5,0.7,1.5,1.5v6.7
				C-253.4,417.8-253.6,418-253.9,418L-253.9,418z M-254.9,410.2c-0.3,0-0.6,0.3-0.6,0.6v4.7c0,0.8,0.5,1.4,1.2,1.6v-6.3
				C-254.3,410.5-254.6,410.2-254.9,410.2L-254.9,410.2z"/>
			<path class="st7" d="M-251.8,411.7h-2.1c-0.2,0-0.4-0.2-0.4-0.4l0,0v-6.6c0-0.8,0.7-1.5,1.5-1.5c0.8,0,1.5,0.7,1.5,1.5v6.6
				C-251.3,411.5-251.5,411.7-251.8,411.7C-251.8,411.7-251.8,411.7-251.8,411.7L-251.8,411.7z M-253.4,410.8h1.2v-6.2
				c0-0.3-0.3-0.6-0.6-0.6c-0.3,0-0.6,0.3-0.6,0.6V410.8z"/>
			<path class="st7" d="M-246.7,419.9h-6c-0.9,0-1.6-0.7-1.6-1.6v-7c0-0.2,0.2-0.4,0.4-0.4h0h8.4c0.2,0,0.4,0.2,0.4,0.4v0v7
				C-245,419.2-245.7,419.9-246.7,419.9L-246.7,419.9z M-253.4,411.7v6.6c0,0.4,0.3,0.8,0.8,0.8h6c0.4,0,0.8-0.3,0.8-0.8v-6.6
				H-253.4z"/>
			<path class="st7" d="M-246.9,421.5h-5.6c-0.5,0-0.9-0.4-0.9-0.9v-1.2c0-0.2,0.2-0.4,0.4-0.4h0h6.5c0.2,0,0.4,0.2,0.4,0.4l0,0v1.2
				C-246,421.1-246.4,421.5-246.9,421.5z M-252.5,419.9v0.8l5.6,0l0-0.8L-252.5,419.9z"/>
			<path class="st7" d="M-248,423.7h-3.4c-0.2,0-0.4-0.2-0.4-0.4v-2.2c0-0.2,0.2-0.4,0.4-0.4h0h3.4c0.2,0,0.4,0.2,0.4,0.4l0,0v2.2
				C-247.6,423.5-247.8,423.7-248,423.7L-248,423.7z M-251,422.9h2.5v-1.4h-2.5V422.9z"/>
		</g>
		<path class="st6" d="M-255.2,434h-2c1.7,0,3.1,1.4,3.1,3.1s-1.4,3.1-3.1,3.1h2c1.7,0,3.1-1.4,3.1-3.1
			C-252.2,435.4-253.6,434-255.2,434z"/>
		<path class="st7" d="M-255.2,440.6h-12.3c-0.2,0-0.4-0.2-0.4-0.4l0,0V434c0-0.2,0.2-0.4,0.4-0.4l0,0h12.3c1.9,0,3.5,1.6,3.5,3.5
			S-253.3,440.6-255.2,440.6L-255.2,440.6z M-267.1,439.7h11.9c1.4,0,2.6-1.2,2.6-2.6s-1.2-2.6-2.6-2.6h-11.9V439.7z"/>
		<path class="st7" d="M-247.8,419.9h-3.7c-0.2,0-0.4-0.2-0.4-0.4l0,0v-4.2c0-1.3,1-2.3,2.3-2.3c1.3,0,2.3,1,2.3,2.3v4.2
			C-247.4,419.7-247.6,419.9-247.8,419.9L-247.8,419.9L-247.8,419.9z M-251.1,419h2.8v-3.8c0-0.8-0.6-1.4-1.4-1.4
			c-0.8,0-1.4,0.6-1.4,1.4L-251.1,419L-251.1,419z"/>
		<path class="st7" d="M-250.6,435.1c-0.2,0-0.4-0.2-0.4-0.4v-11.4c0-0.2,0.2-0.4,0.4-0.4l0,0h1.9c0.2,0,0.4,0.2,0.4,0.4l0,0v11.3
			c0,0.2-0.2,0.4-0.4,0.4c0,0-0.1,0-0.1,0c-0.2-0.1-0.5-0.1-0.7-0.1c-0.3,0-0.6,0.1-0.8,0.2C-250.4,435.1-250.5,435.1-250.6,435.1z
			 M-250.1,423.7v10.3c0.3-0.1,0.7-0.1,1,0v-10.3H-250.1z"/>
		<path class="st7" d="M-249.5,440.2c-1.7,0-3.1-1.4-3.1-3.1c0-1.7,1.4-3.1,3.1-3.1c1.7,0,3.1,1.4,3.1,3.1
			C-246.5,438.8-247.9,440.2-249.5,440.2z M-249.5,434.9c-1.2,0-2.2,1-2.2,2.2c0,1.2,1,2.2,2.2,2.2c1.2,0,2.2-1,2.2-2.2
			C-247.3,435.9-248.3,434.9-249.5,434.9z"/>
		<path class="st7" d="M-249.5,438.7c-0.9,0-1.6-0.7-1.6-1.6c0-0.9,0.7-1.6,1.6-1.6c0.9,0,1.6,0.7,1.6,1.6
			C-248,438-248.7,438.7-249.5,438.7z M-249.5,436.4c-0.4,0-0.7,0.3-0.7,0.7c0,0.4,0.3,0.7,0.7,0.7c0.4,0,0.7-0.3,0.7-0.7
			C-248.9,436.7-249.2,436.4-249.5,436.4L-249.5,436.4z"/>
		<path class="st7" d="M-259.9,440.6c-0.2,0-0.4-0.2-0.4-0.4v0V434c0-0.2,0.2-0.4,0.4-0.4s0.4,0.2,0.4,0.4v6.1
			C-259.4,440.4-259.6,440.6-259.9,440.6L-259.9,440.6z"/>
	</g>
</g>
</svg>
