<?xml version="1.0" encoding="utf-8"?>
<!-- Generator: Adobe Illustrator 19.0.0, SVG Export Plug-In . SVG Version: 6.00 Build 0)  -->
<svg version="1.1" id="Hero" xmlns="http://www.w3.org/2000/svg" xmlns:xlink="http://www.w3.org/1999/xlink" x="0px" y="0px"
	 viewBox="-277 402.1 41 38.8" style="enable-background:new -277 402.1 41 38.8;" xml:space="preserve">
<style type="text/css">
	.st0{fill:#DFFFDC;}
	.st1{fill:#D3E6F8;}
	.st2{fill:#A4CFF2;}
	.st3{fill:#7BABF1;}
	.st4{fill:#FF5555;}
	.st5{fill:#4C4372;}
</style>
<g>
	<title>044 robot 8</title>
	<g>
		<path class="st0" d="M-240.7,421.5c0,8.8-7.1,15.8-15.8,15.8c-8.8,0-15.8-7.1-15.8-15.8s7.1-15.8,15.8-15.8
			C-247.7,405.6-240.7,412.7-240.7,421.5L-240.7,421.5z"/>
		<path class="st1" d="M-250.6,427.1l-11.8,0v-10.3c0-0.6,0.5-1.2,1.2-1.2h9.5c0.6,0,1.2,0.5,1.2,1.2V427.1z"/>
		<path class="st2" d="M-251.7,415.6h-1.2c0.6,0,1.2,0.5,1.2,1.2v10.3l-10.7,0l11.8,0v-10.3C-250.6,416.1-251.1,415.6-251.7,415.6z"
			/>
		<path class="st1" d="M-251.8,413.7h-9.5c-0.6,0-1.2-0.5-1.2-1.2v-6.9c0-0.6,0.5-1.2,1.2-1.2h9.5c0.6,0,1.2,0.5,1.2,1.2v6.9
			C-250.6,413.2-251.1,413.7-251.8,413.7z"/>
		<path class="st2" d="M-251.8,404.6h-1.2c0.6,0,1.2,0.5,1.2,1.2v6.9c0,0.6-0.5,1.2-1.2,1.2h1.2c0.6,0,1.2-0.5,1.2-1.2v-6.9
			C-250.6,405.1-251.1,404.6-251.8,404.6z"/>
		<path class="st2" d="M-253.5,412h-6.1c-0.4,0-0.7,0.3-0.7,0.7v0v1h7.4v-1C-252.8,412.3-253.1,412-253.5,412L-253.5,412z"/>
		<path class="st3" d="M-253.5,412h-1.2c0.4,0,0.7,0.3,0.7,0.7v0v1h1.2v-1C-252.8,412.3-253.1,412-253.5,412L-253.5,412z"/>
		<path class="st3" d="M-249.6,411.2h-1v-4.1h1c0.3,0,0.6,0.3,0.6,0.6v0v3C-249,411-249.3,411.2-249.6,411.2L-249.6,411.2z"/>
		<path class="st4" d="M-251.9,409.1c0,0.9-0.8,1.7-1.7,1.7c-0.9,0-1.7-0.8-1.7-1.7c0-0.9,0.8-1.7,1.7-1.7S-251.9,408.2-251.9,409.1
			z"/>
		<path class="st2" d="M-263.4,411.2h1v-4.1h-1c-0.3,0-0.6,0.3-0.6,0.6v0v3C-264,411-263.7,411.2-263.4,411.2L-263.4,411.2z"/>
		<path class="st4" d="M-257.7,409.1c0,0.9-0.8,1.7-1.7,1.7c-0.9,0-1.7-0.8-1.7-1.7c0-0.9,0.8-1.7,1.7-1.7
			C-258.4,407.4-257.7,408.2-257.7,409.1z"/>
		<path class="st3" d="M-258.5,413.7h4v1.9h-4V413.7z"/>
		<path class="st3" d="M-255.6,402.5h-1.8c-1.1,0-2,0.9-2,2h5.8C-253.6,403.4-254.5,402.5-255.6,402.5L-255.6,402.5z"/>
		<path class="st4" d="M-254.5,422.3h-3.9c-0.8,0-1.5-0.7-1.5-1.5s0.7-1.5,1.5-1.5h3.9c0.8,0,1.5,0.7,1.5,1.5
			S-253.7,422.3-254.5,422.3L-254.5,422.3z"/>
		<path class="st5" d="M-262.4,427.5c-0.1,0-0.2,0-0.3-0.1c-0.1-0.1-0.1-0.2-0.1-0.3v-10.3c0-0.9,0.7-1.6,1.6-1.6h9.5
			c0.9,0,1.6,0.7,1.6,1.6v10.3c0,0.2-0.2,0.4-0.4,0.4l0,0L-262.4,427.5z M-261.3,416.1c-0.4,0-0.7,0.3-0.7,0.7v9.9l11,0v-9.9
			c0-0.4-0.3-0.7-0.7-0.7H-261.3z"/>
		<path class="st5" d="M-251.8,414.2h-9.5c-0.9,0-1.6-0.7-1.6-1.6v-6.9c0-0.9,0.7-1.6,1.6-1.6h9.5c0.9,0,1.6,0.7,1.6,1.6v6.9
			C-250.2,413.5-250.9,414.2-251.8,414.2z M-261.2,405c-0.4,0-0.7,0.3-0.7,0.7v6.9c0,0.4,0.3,0.7,0.7,0.7h9.5c0.4,0,0.7-0.3,0.7-0.7
			v-6.9c0-0.4-0.3-0.7-0.7-0.7L-261.2,405z"/>
		<path class="st5" d="M-252.8,414.2h-7.4c-0.2,0-0.4-0.2-0.4-0.4v0v-1c0-0.6,0.5-1.1,1.1-1.1h6.1c0.6,0,1.1,0.5,1.1,1.1v1
			C-252.3,414-252.5,414.2-252.8,414.2L-252.8,414.2L-252.8,414.2z M-259.8,413.3h6.5v-0.6c0-0.1-0.1-0.2-0.2-0.2h-6.1
			c-0.1,0-0.2,0.1-0.2,0.2L-259.8,413.3z"/>
		<path class="st5" d="M-249.6,411.7h-1c-0.2,0-0.4-0.2-0.4-0.4v0v-4.1c0-0.2,0.2-0.4,0.4-0.4l0,0h1c0.6,0,1,0.5,1,1v3
			C-248.6,411.2-249,411.7-249.6,411.7z M-250.2,410.8h0.6c0.1,0,0.1-0.1,0.1-0.1v-3c0-0.1-0.1-0.1-0.1-0.1h-0.6V410.8z"/>
		<path class="st5" d="M-253.6,411.3c-1.2,0-2.2-1-2.2-2.2c0-1.2,1-2.2,2.2-2.2c1.2,0,2.2,1,2.2,2.2
			C-251.4,410.3-252.4,411.3-253.6,411.3L-253.6,411.3z M-253.6,407.9c-0.7,0-1.3,0.6-1.3,1.3c0,0.7,0.6,1.3,1.3,1.3
			c0.7,0,1.3-0.6,1.3-1.3C-252.3,408.5-252.9,407.9-253.6,407.9z"/>
		<path class="st5" d="M-262.4,411.7h-1c-0.6,0-1-0.5-1-1v-3c0-0.6,0.5-1,1-1h1c0.2,0,0.4,0.2,0.4,0.4v4.1
			C-262,411.5-262.2,411.7-262.4,411.7L-262.4,411.7z M-263.4,407.5c-0.1,0-0.1,0.1-0.1,0.1v3c0,0.1,0.1,0.1,0.1,0.1h0.6v-3.2
			H-263.4z"/>
		<path class="st5" d="M-259.4,411.3c-1.2,0-2.2-1-2.2-2.2c0-1.2,1-2.2,2.2-2.2c1.2,0,2.2,1,2.2,2.2S-258.2,411.3-259.4,411.3
			L-259.4,411.3z M-259.4,407.9c-0.7,0-1.3,0.6-1.3,1.3c0,0.7,0.6,1.3,1.3,1.3c0.7,0,1.3-0.6,1.3-1.3
			C-258.1,408.5-258.7,407.9-259.4,407.9z"/>
		<path class="st5" d="M-254.5,416.1h-4c-0.2,0-0.4-0.2-0.4-0.4v0v-1.9c0-0.2,0.2-0.4,0.4-0.4h0h4c0.2,0,0.4,0.2,0.4,0.4v0v1.9
			C-254.1,415.9-254.3,416.1-254.5,416.1L-254.5,416.1L-254.5,416.1z M-258.1,415.2h3.1v-1h-3.1V415.2z"/>
		<path class="st5" d="M-253.6,405h-5.8c-0.2,0-0.4-0.2-0.4-0.4l0,0c0-1.4,1.1-2.5,2.5-2.5h1.8c1.4,0,2.5,1.1,2.5,2.5
			C-253.1,404.8-253.3,405-253.6,405L-253.6,405z M-258.9,404.1h4.8c-0.2-0.7-0.8-1.1-1.5-1.1h-1.8
			C-258.1,403-258.7,403.5-258.9,404.1L-258.9,404.1z"/>
		<path class="st5" d="M-254.5,422.8h-3.9c-1.1,0-2-0.9-2-2c0-1.1,0.9-2,2-2h3.9c1.1,0,2,0.9,2,2
			C-252.5,421.9-253.4,422.8-254.5,422.8z M-258.5,419.7c-0.6,0-1.1,0.5-1.1,1.1c0,0.6,0.5,1.1,1.1,1.1h3.9c0.6,0,1.1-0.5,1.1-1.1
			c0-0.6-0.5-1.1-1.1-1.1H-258.5z"/>
		<path class="st1" d="M-241,440.4l-11.8,0v-10.3c0-0.6,0.5-1.2,1.2-1.2h9.5c0.6,0,1.2,0.5,1.2,1.2V440.4z"/>
		<path class="st2" d="M-242.2,428.9h-1.2c0.6,0,1.2,0.5,1.2,1.2v10.3l-10.7,0l11.8,0v-10.3C-241,429.5-241.5,428.9-242.2,428.9z"/>
		<path class="st1" d="M-242.2,427.1h-9.5c-0.6,0-1.2-0.5-1.2-1.2v-6.9c0-0.6,0.5-1.2,1.2-1.2h9.5c0.6,0,1.2,0.5,1.2,1.2v6.9
			C-241,426.6-241.5,427.1-242.2,427.1L-242.2,427.1z"/>
		<path class="st2" d="M-242.2,417.9h-1.2c0.6,0,1.2,0.5,1.2,1.2v6.9c0,0.6-0.5,1.2-1.2,1.2h1.2c0.6,0,1.2-0.5,1.2-1.2v-6.9
			C-241,418.4-241.5,417.9-242.2,417.9z"/>
		<path class="st2" d="M-243.9,425.4h-6.1c-0.4,0-0.7,0.3-0.7,0.7v0v1h7.4v-1C-243.2,425.7-243.5,425.4-243.9,425.4L-243.9,425.4z"
			/>
		<path class="st3" d="M-243.9,425.4h-1.2c0.4,0,0.7,0.3,0.7,0.7v1h1.2v-1C-243.2,425.7-243.5,425.4-243.9,425.4L-243.9,425.4z"/>
		<path class="st3" d="M-240,424.6h-1v-4.1h1c0.3,0,0.6,0.3,0.6,0.6v3C-239.4,424.3-239.7,424.6-240,424.6L-240,424.6z"/>
		<path class="st4" d="M-242.3,422.5c0,0.9-0.8,1.7-1.7,1.7c-0.9,0-1.7-0.8-1.7-1.7c0-0.9,0.8-1.7,1.7-1.7
			C-243.1,420.8-242.3,421.5-242.3,422.5L-242.3,422.5z"/>
		<path class="st2" d="M-253.9,424.6h1v-4.1h-1c-0.3,0-0.6,0.3-0.6,0.6v3C-254.4,424.3-254.2,424.6-253.9,424.6L-253.9,424.6z"/>
		<path class="st4" d="M-248.1,422.5c0,0.9-0.8,1.7-1.7,1.7c-0.9,0-1.7-0.8-1.7-1.7c0-0.9,0.8-1.7,1.7-1.7
			C-248.9,420.8-248.1,421.5-248.1,422.5L-248.1,422.5z"/>
		<path class="st3" d="M-248.9,427.1h4v1.9h-4V427.1z"/>
		<path class="st3" d="M-254.2,430.7h1.4v2.6h-1.4V430.7z"/>
		<path class="st3" d="M-241,430.7h1.3v2.6h-1.3V430.7z"/>
		<path class="st3" d="M-246,415.9h-1.8c-1.1,0-2,0.9-2,2h5.8C-244,416.8-244.9,415.9-246,415.9z"/>
		<path class="st4" d="M-245,435.6h-3.9c-0.8,0-1.5-0.7-1.5-1.5c0-0.8,0.7-1.5,1.5-1.5h3.9c0.8,0,1.5,0.7,1.5,1.5
			S-244.1,435.6-245,435.6z"/>
		<path class="st1" d="M-256.5,440.4h2.3V430c0-0.6-0.5-1.1-1.1-1.1c-0.6,0-1.1,0.5-1.1,1.1V440.4z"/>
		<path class="st2" d="M-239.6,440.4h2.3V430c0-0.6-0.5-1.1-1.1-1.1c-0.6,0-1.1,0.5-1.1,1.1L-239.6,440.4L-239.6,440.4z"/>
		<g>
			<path class="st5" d="M-252.8,440.9c-0.1,0-0.2,0-0.3-0.1c-0.1-0.1-0.1-0.2-0.1-0.3v-10.3c0-0.9,0.7-1.6,1.6-1.6h9.5
				c0.9,0,1.6,0.7,1.6,1.6v10.3c0,0.2-0.2,0.4-0.4,0.4h0L-252.8,440.9z M-251.7,429.4c-0.4,0-0.7,0.3-0.7,0.7v9.9l10.9,0v-9.9
				c0-0.4-0.3-0.7-0.7-0.7L-251.7,429.4z"/>
			<path class="st5" d="M-242.2,427.5h-9.5c-0.9,0-1.6-0.7-1.6-1.6v-6.9c0-0.9,0.7-1.6,1.6-1.6h9.5c0.9,0,1.6,0.7,1.6,1.6v6.9
				C-240.6,426.8-241.3,427.5-242.2,427.5L-242.2,427.5z M-251.7,418.4c-0.4,0-0.7,0.3-0.7,0.7v6.9c0,0.4,0.3,0.7,0.7,0.7h9.5
				c0.4,0,0.7-0.3,0.7-0.7v-6.9c0-0.4-0.3-0.7-0.7-0.7H-251.7z"/>
			<path class="st5" d="M-243.2,427.5h-7.4c-0.2,0-0.4-0.2-0.4-0.4v-1c0-0.6,0.5-1.1,1.1-1.1h6.1c0.6,0,1.1,0.5,1.1,1.1v1
				C-242.8,427.3-243,427.5-243.2,427.5L-243.2,427.5L-243.2,427.5z M-250.2,426.6h6.5v-0.6c0-0.1-0.1-0.2-0.2-0.2h-6.1
				c-0.1,0-0.2,0.1-0.2,0.2L-250.2,426.6z"/>
			<path class="st5" d="M-240,425h-1c-0.2,0-0.4-0.2-0.4-0.4v0v-4.1c0-0.2,0.2-0.4,0.4-0.4h0h1c0.6,0,1,0.5,1,1v3
				C-239,424.6-239.4,425-240,425z M-240.6,424.1h0.6c0.1,0,0.1-0.1,0.1-0.1v-3c0-0.1-0.1-0.1-0.1-0.1h-0.6V424.1z"/>
			<path class="st5" d="M-244,424.7c-1.2,0-2.2-1-2.2-2.2s1-2.2,2.2-2.2c1.2,0,2.2,1,2.2,2.2S-242.8,424.7-244,424.7z M-244,421.2
				c-0.7,0-1.3,0.6-1.3,1.3c0,0.7,0.6,1.3,1.3,1.3c0.7,0,1.3-0.6,1.3-1.3C-242.8,421.8-243.3,421.2-244,421.2z"/>
			<path class="st5" d="M-252.8,425h-1c-0.6,0-1-0.5-1-1v-3c0-0.6,0.5-1,1-1h1c0.2,0,0.4,0.2,0.4,0.4l0,0v4.1
				C-252.4,424.8-252.6,425-252.8,425L-252.8,425z M-253.9,420.9c-0.1,0-0.1,0.1-0.1,0.1v3c0,0.1,0.1,0.1,0.1,0.1h0.6v-3.2
				L-253.9,420.9z"/>
			<path class="st5" d="M-249.8,424.7c-1.2,0-2.2-1-2.2-2.2s1-2.2,2.2-2.2c1.2,0,2.2,1,2.2,2.2S-248.6,424.7-249.8,424.7
				L-249.8,424.7z M-249.8,421.2c-0.7,0-1.3,0.6-1.3,1.3c0,0.7,0.6,1.3,1.3,1.3c0.7,0,1.3-0.6,1.3-1.3
				C-248.6,421.8-249.1,421.2-249.8,421.2L-249.8,421.2z"/>
			<path class="st5" d="M-244.9,429.4h-4c-0.2,0-0.4-0.2-0.4-0.4v0v-1.9c0-0.2,0.2-0.4,0.4-0.4h0h4c0.2,0,0.4,0.2,0.4,0.4l0,0v1.9
				C-244.5,429.2-244.7,429.4-244.9,429.4L-244.9,429.4L-244.9,429.4z M-248.5,428.5h3.1v-1h-3.1V428.5z"/>
			<path class="st5" d="M-252.8,433.8h-1.4c-0.2,0-0.4-0.2-0.4-0.4l0,0v-2.6c0-0.2,0.2-0.4,0.4-0.4h0h1.4c0.2,0,0.4,0.2,0.4,0.4v0
				v2.6C-252.4,433.5-252.6,433.8-252.8,433.8L-252.8,433.8z M-253.8,432.9h0.5v-1.7h-0.5V432.9z"/>
			<path class="st5" d="M-239.7,433.8h-1.3c-0.2,0-0.4-0.2-0.4-0.4l0,0v-2.6c0-0.2,0.2-0.4,0.4-0.4h0h1.3c0.2,0,0.4,0.2,0.4,0.4v0
				v2.6C-239.2,433.5-239.4,433.8-239.7,433.8L-239.7,433.8z M-240.6,432.9h0.4v-1.7h-0.4L-240.6,432.9z"/>
			<path class="st5" d="M-244,418.4h-5.8c-0.2,0-0.4-0.2-0.4-0.4l0,0c0-1.4,1.1-2.5,2.5-2.5h1.8c1.4,0,2.5,1.1,2.5,2.5
				C-243.6,418.2-243.8,418.4-244,418.4L-244,418.4z M-249.3,417.5h4.8c-0.2-0.7-0.8-1.1-1.5-1.1h-1.8
				C-248.5,416.3-249.1,416.8-249.3,417.5z"/>
			<path class="st5" d="M-245,436.1h-3.9c-1.1,0-2-0.9-2-2c0-1.1,0.9-2,2-2h3.9c1.1,0,2,0.9,2,2C-243,435.2-243.9,436.1-245,436.1z
				 M-248.9,433c-0.6,0-1.1,0.5-1.1,1.1c0,0.6,0.5,1.1,1.1,1.1h3.9c0.6,0,1.1-0.5,1.1-1.1c0-0.6-0.5-1.1-1.1-1.1H-248.9z"/>
			<path class="st5" d="M-254.2,440.9h-2.3c-0.2,0-0.4-0.2-0.4-0.4V430c0-0.9,0.7-1.6,1.6-1.6c0.9,0,1.6,0.7,1.6,1.6v10.4
				C-253.8,440.7-254,440.9-254.2,440.9L-254.2,440.9L-254.2,440.9z M-256.1,440h1.4v-10c0-0.4-0.3-0.7-0.7-0.7
				c-0.4,0-0.7,0.3-0.7,0.7V440z"/>
			<path class="st5" d="M-237.3,440.9h-2.3c-0.2,0-0.4-0.2-0.4-0.4V430c0-0.9,0.7-1.6,1.6-1.6c0.9,0,1.6,0.7,1.6,1.6v10.4
				C-236.9,440.7-237.1,440.9-237.3,440.9L-237.3,440.9L-237.3,440.9z M-239.2,440h1.4v-10c0-0.4-0.3-0.7-0.7-0.7s-0.7,0.3-0.7,0.7
				V440z"/>
		</g>
		<path class="st1" d="M-260.2,440.4l-11.8,0v-10.3c0-0.6,0.5-1.2,1.2-1.2h9.5c0.6,0,1.2,0.5,1.2,1.2V440.4z"/>
		<path class="st2" d="M-261.3,428.9h-1.2c0.6,0,1.2,0.5,1.2,1.2v10.3l-10.7,0l11.8,0v-10.3C-260.2,429.5-260.7,428.9-261.3,428.9
			L-261.3,428.9z"/>
		<path class="st1" d="M-261.3,427.1h-9.5c-0.6,0-1.2-0.5-1.2-1.2v-6.9c0-0.6,0.5-1.2,1.2-1.2h9.5c0.6,0,1.2,0.5,1.2,1.2v6.9
			C-260.2,426.6-260.7,427.1-261.3,427.1z"/>
		<path class="st2" d="M-261.3,417.9h-1.2c0.6,0,1.2,0.5,1.2,1.2v6.9c0,0.6-0.5,1.2-1.2,1.2h1.2c0.6,0,1.2-0.5,1.2-1.2v-6.9
			C-260.2,418.4-260.7,417.9-261.3,417.9z"/>
		<path class="st2" d="M-263,425.4h-6.1c-0.4,0-0.7,0.3-0.7,0.7v1h7.4v-1C-262.4,425.7-262.7,425.4-263,425.4z"/>
		<path class="st3" d="M-263,425.4h-1.2c0.4,0,0.7,0.3,0.7,0.7v1h1.2v-1C-262.4,425.7-262.7,425.4-263,425.4z"/>
		<path class="st3" d="M-259.1,424.6h-1v-4.1h1c0.3,0,0.6,0.3,0.6,0.6v3C-258.6,424.3-258.8,424.6-259.1,424.6L-259.1,424.6
			L-259.1,424.6z"/>
		<path class="st4" d="M-261.5,422.5c0,0.9-0.8,1.7-1.7,1.7c-0.9,0-1.7-0.8-1.7-1.7c0-0.9,0.8-1.7,1.7-1.7
			C-262.2,420.8-261.5,421.5-261.5,422.5L-261.5,422.5z"/>
		<path class="st2" d="M-273,424.6h1v-4.1h-1c-0.3,0-0.6,0.3-0.6,0.6v3C-273.6,424.3-273.3,424.6-273,424.6L-273,424.6z"/>
		<path class="st4" d="M-267.3,422.5c0,0.9-0.8,1.7-1.7,1.7c-0.9,0-1.7-0.8-1.7-1.7c0-0.9,0.8-1.7,1.7-1.7
			C-268,420.8-267.3,421.5-267.3,422.5L-267.3,422.5z"/>
		<path class="st3" d="M-268.1,427.1h4v1.9h-4V427.1z"/>
		<path class="st3" d="M-273.4,430.7h1.4v2.6h-1.4V430.7z"/>
		<path class="st3" d="M-260.2,430.7h1.3v2.6h-1.3V430.7z"/>
		<path class="st3" d="M-265.2,415.9h-1.8c-1.1,0-2,0.9-2,2h5.8C-263.2,416.8-264.1,415.9-265.2,415.9z"/>
		<path class="st4" d="M-264.1,435.6h-3.9c-0.8,0-1.5-0.7-1.5-1.5c0-0.8,0.7-1.5,1.5-1.5h3.9c0.8,0,1.5,0.7,1.5,1.5
			S-263.3,435.6-264.1,435.6z"/>
		<path class="st1" d="M-275.7,440.4h2.3V430c0-0.6-0.5-1.1-1.1-1.1c-0.6,0-1.1,0.5-1.1,1.1V440.4z"/>
		<path class="st2" d="M-258.8,440.4h2.3V430c0-0.6-0.5-1.1-1.1-1.1c-0.6,0-1.1,0.5-1.1,1.1V440.4z"/>
		<path class="st5" d="M-272,440.9c-0.2,0-0.4-0.2-0.4-0.4v-10.3c0-0.9,0.7-1.6,1.6-1.6h9.5c0.9,0,1.6,0.7,1.6,1.6v10.3
			c0,0.2-0.2,0.4-0.4,0.4l0,0L-272,440.9z M-270.8,429.4c-0.4,0-0.7,0.3-0.7,0.7v9.9l10.9,0v-9.9c0-0.4-0.3-0.7-0.7-0.7
			L-270.8,429.4z"/>
		<path class="st5" d="M-261.3,427.5h-9.5c-0.9,0-1.6-0.7-1.6-1.6v-6.9c0-0.9,0.7-1.6,1.6-1.6h9.5c0.9,0,1.6,0.7,1.6,1.6v6.9
			C-259.7,426.8-260.4,427.5-261.3,427.5L-261.3,427.5z M-270.8,418.4c-0.4,0-0.7,0.3-0.7,0.7v6.9c0,0.4,0.3,0.7,0.7,0.7h9.5
			c0.4,0,0.7-0.3,0.7-0.7v-6.9c0-0.4-0.3-0.7-0.7-0.7L-270.8,418.4z"/>
		<path class="st5" d="M-262.4,427.5h-7.4c-0.2,0-0.4-0.2-0.4-0.4v-1c0-0.6,0.5-1.1,1.1-1.1h6.1c0.6,0,1.1,0.5,1.1,1.1v1
			C-261.9,427.3-262.1,427.5-262.4,427.5L-262.4,427.5L-262.4,427.5z M-269.3,426.6h6.5v-0.6c0-0.1-0.1-0.2-0.2-0.2h-6.1
			c-0.1,0-0.2,0.1-0.2,0.2V426.6z"/>
		<path class="st5" d="M-259.1,425h-1c-0.2,0-0.4-0.2-0.4-0.4v0v-4.1c0-0.2,0.2-0.4,0.4-0.4l0,0h1c0.6,0,1,0.5,1,1v3
			C-258.1,424.6-258.6,425-259.1,425z M-259.7,424.1h0.6c0.1,0,0.1-0.1,0.1-0.1v-3c0-0.1-0.1-0.1-0.1-0.1h-0.6V424.1z"/>
		<path class="st5" d="M-263.2,424.7c-1.2,0-2.2-1-2.2-2.2s1-2.2,2.2-2.2c1.2,0,2.2,1,2.2,2.2S-262,424.7-263.2,424.7L-263.2,424.7z
			 M-263.2,421.2c-0.7,0-1.3,0.6-1.3,1.3c0,0.7,0.6,1.3,1.3,1.3c0.7,0,1.3-0.6,1.3-1.3C-261.9,421.8-262.5,421.2-263.2,421.2
			L-263.2,421.2z"/>
		<path class="st5" d="M-272,425h-1c-0.6,0-1-0.5-1-1v-3c0-0.6,0.5-1,1-1h1c0.2,0,0.4,0.2,0.4,0.4v0v4.1
			C-271.5,424.8-271.7,425-272,425L-272,425z M-273,420.9c-0.1,0-0.1,0.1-0.1,0.1v3c0,0.1,0.1,0.1,0.1,0.1h0.6v-3.2L-273,420.9z"/>
		<path class="st5" d="M-269,424.7c-1.2,0-2.2-1-2.2-2.2s1-2.2,2.2-2.2c1.2,0,2.2,1,2.2,2.2S-267.8,424.7-269,424.7z M-269,421.2
			c-0.7,0-1.3,0.6-1.3,1.3c0,0.7,0.6,1.3,1.3,1.3c0.7,0,1.3-0.6,1.3-1.3C-267.7,421.8-268.3,421.2-269,421.2z"/>
		<path class="st5" d="M-264.1,429.4h-4c-0.2,0-0.4-0.2-0.4-0.4l0,0v-1.9c0-0.2,0.2-0.4,0.4-0.4h0h4c0.2,0,0.4,0.2,0.4,0.4
			c0,0,0,0,0,0v1.9C-263.6,429.2-263.8,429.4-264.1,429.4L-264.1,429.4L-264.1,429.4z M-267.6,428.5h3.1v-1h-3.1V428.5z"/>
		<path class="st5" d="M-272,433.8h-1.4c-0.2,0-0.4-0.2-0.4-0.4v0v-2.6c0-0.2,0.2-0.4,0.4-0.4h0h1.4c0.2,0,0.4,0.2,0.4,0.4v0v2.6
			C-271.6,433.5-271.8,433.8-272,433.8L-272,433.8z M-272.9,432.9h0.5v-1.7h-0.5V432.9z"/>
		<path class="st5" d="M-258.8,433.8h-1.3c-0.2,0-0.4-0.2-0.4-0.4v0v-2.6c0-0.2,0.2-0.4,0.4-0.4h0h1.3c0.2,0,0.4,0.2,0.4,0.4v0v2.6
			C-258.4,433.5-258.6,433.8-258.8,433.8L-258.8,433.8z M-259.7,432.9h0.4v-1.7h-0.4V432.9z"/>
		<path class="st5" d="M-263.2,418.4h-5.8c-0.2,0-0.4-0.2-0.4-0.4v0c0-1.4,1.1-2.5,2.5-2.5h1.8c1.4,0,2.5,1.1,2.5,2.5
			C-262.7,418.2-262.9,418.4-263.2,418.4C-263.2,418.4-263.2,418.4-263.2,418.4z M-268.5,417.5h4.8c-0.2-0.7-0.8-1.1-1.5-1.1h-1.8
			C-267.7,416.3-268.3,416.8-268.5,417.5z"/>
		<path class="st5" d="M-264.1,436.1h-3.9c-1.1,0-2-0.9-2-2c0-1.1,0.9-2,2-2h3.9c1.1,0,2,0.9,2,2
			C-262.1,435.2-263,436.1-264.1,436.1z M-268,433c-0.6,0-1.1,0.5-1.1,1.1c0,0.6,0.5,1.1,1.1,1.1h3.9c0.6,0,1.1-0.5,1.1-1.1
			c0-0.6-0.5-1.1-1.1-1.1H-268z"/>
		<path class="st5" d="M-273.4,440.9h-2.3c-0.2,0-0.4-0.2-0.4-0.4V430c0-0.9,0.7-1.6,1.6-1.6c0.9,0,1.6,0.7,1.6,1.6v10.4
			C-272.9,440.7-273.1,440.9-273.4,440.9L-273.4,440.9L-273.4,440.9z M-275.2,440h1.4v-10c0-0.4-0.3-0.7-0.7-0.7
			c-0.4,0-0.7,0.3-0.7,0.7V440z"/>
		<path class="st5" d="M-256.5,440.9h-2.3c-0.2,0-0.4-0.2-0.4-0.4V430c0-0.9,0.7-1.6,1.6-1.6c0.9,0,1.6,0.7,1.6,1.6v10.4
			C-256.1,440.7-256.3,440.9-256.5,440.9z M-258.3,440h1.4v-10c0-0.4-0.3-0.7-0.7-0.7c-0.4,0-0.7,0.3-0.7,0.7V440z"/>
	</g>
</g>
</svg>
