<?xml version="1.0" encoding="utf-8"?>
<!-- Generator: Adobe Illustrator 19.0.0, SVG Export Plug-In . SVG Version: 6.00 Build 0)  -->
<svg version="1.1" id="Calque_1" xmlns="http://www.w3.org/2000/svg" xmlns:xlink="http://www.w3.org/1999/xlink" x="0px" y="0px"
	 viewBox="93 170 798 454" style="enable-background:new 93 170 798 454;" xml:space="preserve">
<style type="text/css">
	.st0{opacity:0.2;enable-background:new    ;}
</style>
<g>
	<path class="st0" d="M207.4,311.3l49-10.5v41h36v42h-37v72.5c0,0-0.5,26,37,15v38.5c0,0-21,14-63,0c0,0-19.3-14.4-22-39.3
		C204.7,445.6,207.4,311.3,207.4,311.3z"/>
	<path class="st0" d="M308.4,343.3V516h49V397.8c0,0,18-20,36-8.5v-46.8c0,0-9.8-5.3-27.3,0.7c0,0-11,6-13.4,13.5l-2.4-14.6
		l-41.9,0.2L308.4,343.3L308.4,343.3z"/>
	<rect x="406.1" y="343" class="st0" width="48.7" height="173.1"/>
	<polygon class="st0" points="406.1,327.3 454.8,316.6 454.8,277 406.1,287.6 	"/>
	<path class="st0" d="M609.9,372.1c0,0-13.3-25.8-44.8-31.8s-46.3,14.5-46.3,14.5l-2.8,1.5v-54.2v-25.2l-44.6,10.4V516h1.5h49.8v-11
		c19.5,13.3,40.3,12,40.3,12c33.8-7,41.8-24.3,41.8-24.3s11.8-11,18-50S609.9,372.1,609.9,372.1z M558.1,469.9c-21,11-36-5-36-5
		v-72.3c0,0,6-10.3,25.6-9.7c19.6,0.6,27.1,32.3,27.1,32.3S579.1,458.9,558.1,469.9z"/>
	<path class="st0" d="M774.5,401.3c-6-43.3-42-58.3-42-58.3s-47-15.4-78,19s-20.7,87.7-20.7,87.7s4.7,44.3,46,61
		c41.4,16.7,87.7-7,87.7-7l-0.3-38.3c-28,11-40,11.3-62.7,8.5c-22.7-2.8-22.7-27.9-22.7-27.9h95C779.8,417,774.4,401.3,774.5,401.3z
		 M680.9,409.8v-1c0,0-1.2-27.7,24-29.7s26,30.7,26,30.7H680.9z"/>
</g>
</svg>
