<?xml version="1.0" encoding="utf-8"?>
<!-- Generator: Adobe Illustrator 16.0.0, SVG Export Plug-In . SVG Version: 6.00 Build 0)  -->
<!DOCTYPE svg PUBLIC "-//W3C//DTD SVG 1.1//EN" "http://www.w3.org/Graphics/SVG/1.1/DTD/svg11.dtd">
<svg version="1.1" id="B" xmlns="http://www.w3.org/2000/svg" xmlns:xlink="http://www.w3.org/1999/xlink" x="0px" y="0px"
	 width="144px" height="144px" viewBox="0 0 144 144" enable-background="new 0 0 144 144" xml:space="preserve">
<g>
	<circle fill="#218380" cx="72" cy="72" r="72"/>
</g>
<g>
	<path fill="#FFFFFF" d="M92.375,74.799c1.785,2.4,2.68,5.334,2.68,8.801c0,4.8-1.721,8.561-5.16,11.279
		c-3.439,2.721-8.174,4.08-14.2,4.08h-25.6V42.56h24.8c5.865,0,10.467,1.293,13.799,3.88c3.334,2.587,5,6.2,5,10.84
		c0,2.988-0.787,5.574-2.359,7.76c-1.574,2.188-3.748,3.788-6.52,4.8C88.066,70.747,90.586,72.399,92.375,74.799z M60.174,66.319
		h13.041c7.092,0,10.639-2.64,10.639-7.92c0-2.666-0.879-4.64-2.639-5.92s-4.428-1.92-8-1.92H60.174V66.319z M82.734,88.959
		c1.705-1.332,2.561-3.412,2.561-6.24c0-2.826-0.869-4.932-2.602-6.319c-1.732-1.386-4.439-2.08-8.119-2.08h-14.4v16.64h14.4
		C78.307,90.959,81.027,90.293,82.734,88.959z"/>
</g>
</svg>
