<?xml version="1.0" encoding="utf-8"?>
<!-- Generator: Adobe Illustrator 16.0.0, SVG Export Plug-In . SVG Version: 6.00 Build 0)  -->
<!DOCTYPE svg PUBLIC "-//W3C//DTD SVG 1.1//EN" "http://www.w3.org/Graphics/SVG/1.1/DTD/svg11.dtd">
<svg version="1.1" id="C" xmlns="http://www.w3.org/2000/svg" xmlns:xlink="http://www.w3.org/1999/xlink" x="0px" y="0px"
	 width="144px" height="144px" viewBox="0 0 144 144" enable-background="new 0 0 144 144" xml:space="preserve">
<g>
	<circle fill="#679436" cx="72" cy="72" r="72"/>
</g>
<g>
	<path fill="#FFFFFF" d="M61.375,96.119c-4.134-2.372-7.308-5.746-9.52-10.119c-2.214-4.373-3.32-9.467-3.32-15.281
		c0-5.812,1.106-10.892,3.32-15.239c2.212-4.346,5.386-7.706,9.52-10.08c4.132-2.373,8.972-3.56,14.52-3.56
		c3.785,0,7.359,0.587,10.721,1.76c3.359,1.174,6.186,2.827,8.479,4.96l-3.439,7.52c-2.561-2.026-5.094-3.506-7.6-4.44
		c-2.508-0.933-5.174-1.4-8-1.4c-5.44,0-9.64,1.76-12.6,5.28c-2.96,3.52-4.44,8.587-4.44,15.199c0,6.668,1.48,11.761,4.44,15.281
		c2.96,3.52,7.16,5.279,12.6,5.279c2.826,0,5.492-0.467,8-1.4c2.506-0.932,5.039-2.412,7.6-4.439l3.439,7.52
		c-2.293,2.135-5.119,3.788-8.479,4.961c-3.361,1.172-6.936,1.76-10.721,1.76C70.347,99.68,65.507,98.493,61.375,96.119z"/>
</g>
</svg>
