<?xml version="1.0" encoding="utf-8"?>
<!-- Generator: Adobe Illustrator 16.0.0, SVG Export Plug-In . SVG Version: 6.00 Build 0)  -->
<!DOCTYPE svg PUBLIC "-//W3C//DTD SVG 1.1//EN" "http://www.w3.org/Graphics/SVG/1.1/DTD/svg11.dtd">
<svg version="1.1" id="G" xmlns="http://www.w3.org/2000/svg" xmlns:xlink="http://www.w3.org/1999/xlink" x="0px" y="0px"
	 width="144px" height="144px" viewBox="0 0 144 144" enable-background="new 0 0 144 144" xml:space="preserve">
<g>
	<circle fill="#CAC4CE" cx="72" cy="72" r="72"/>
</g>
<g>
	<path fill="#FFFFFF" d="M95.135,68.479v27.04c-2.561,1.279-5.668,2.293-9.32,3.04c-3.653,0.746-7.374,1.12-11.16,1.12
		c-5.813,0-10.854-1.16-15.12-3.48c-4.268-2.32-7.534-5.652-9.8-10c-2.268-4.346-3.4-9.506-3.4-15.48
		c0-5.919,1.133-11.052,3.4-15.399c2.266-4.346,5.492-7.68,9.68-10c4.187-2.32,9.106-3.48,14.76-3.48
		c3.946,0,7.652,0.574,11.12,1.72c3.466,1.147,6.346,2.788,8.64,4.92l-3.439,7.44c-2.614-2.026-5.188-3.48-7.721-4.36
		s-5.319-1.32-8.36-1.32c-5.813,0-10.199,1.72-13.159,5.16c-2.96,3.44-4.44,8.547-4.44,15.319c0,13.868,6.08,20.801,18.24,20.801
		c3.626,0,7.253-0.506,10.88-1.52V75.84h-12.16v-7.36H95.135z"/>
</g>
</svg>
