<?xml version="1.0" encoding="utf-8"?>
<!-- Generator: Adobe Illustrator 16.0.0, SVG Export Plug-In . SVG Version: 6.00 Build 0)  -->
<!DOCTYPE svg PUBLIC "-//W3C//DTD SVG 1.1//EN" "http://www.w3.org/Graphics/SVG/1.1/DTD/svg11.dtd">
<svg version="1.1" id="O" xmlns="http://www.w3.org/2000/svg" xmlns:xlink="http://www.w3.org/1999/xlink" x="0px" y="0px"
	 width="144px" height="144px" viewBox="0 0 144 144" enable-background="new 0 0 144 144" xml:space="preserve">
<g>
	<circle fill="#CC8B8C" cx="72" cy="72" r="72"/>
</g>
<g>
	<path fill="#FFFFFF" d="M57.094,96.16c-4.027-2.348-7.134-5.707-9.32-10.08c-2.188-4.373-3.28-9.493-3.28-15.361
		c0-5.866,1.08-10.972,3.24-15.319c2.16-4.346,5.266-7.692,9.32-10.04c4.053-2.346,8.826-3.52,14.321-3.52
		c5.492,0,10.252,1.174,14.279,3.52c4.025,2.348,7.119,5.694,9.279,10.04c2.16,4.348,3.24,9.454,3.24,15.319
		c0,5.868-1.094,10.988-3.279,15.361c-2.188,4.373-5.295,7.732-9.32,10.08c-4.027,2.347-8.76,3.52-14.199,3.52
		C65.88,99.68,61.121,98.507,57.094,96.16z M83.494,86.08c2.906-3.573,4.359-8.693,4.359-15.361c0-6.666-1.453-11.772-4.359-15.319
		c-2.908-3.546-6.947-5.32-12.119-5.32c-5.228,0-9.294,1.773-12.201,5.32c-2.908,3.547-4.36,8.654-4.36,15.319
		c0,6.668,1.452,11.788,4.36,15.361c2.906,3.573,6.973,5.359,12.201,5.359C76.547,91.439,80.586,89.653,83.494,86.08z"/>
</g>
</svg>
