<?xml version="1.0" encoding="utf-8"?>
<!-- Generator: Adobe Illustrator 16.0.0, SVG Export Plug-In . SVG Version: 6.00 Build 0)  -->
<!DOCTYPE svg PUBLIC "-//W3C//DTD SVG 1.1//EN" "http://www.w3.org/Graphics/SVG/1.1/DTD/svg11.dtd">
<svg version="1.1" id="P" xmlns="http://www.w3.org/2000/svg" xmlns:xlink="http://www.w3.org/1999/xlink" x="0px" y="0px"
	 width="144px" height="144px" viewBox="0 0 144 144" enable-background="new 0 0 144 144" xml:space="preserve">
<g>
	<circle fill="#598181" cx="72" cy="72" r="72"/>
</g>
<g>
	<path fill="#FFFFFF" d="M51.015,42.56h24.64c6.026,0,10.721,1.507,14.08,4.52c3.36,3.014,5.04,7.24,5.04,12.68
		c0,5.44-1.68,9.68-5.04,12.72c-3.359,3.04-8.054,4.56-14.08,4.56h-14.32v21.92h-10.32V42.56z M74.375,69.119
		c7.092,0,10.64-3.092,10.64-9.28c0-3.146-0.88-5.48-2.64-7c-1.761-1.52-4.428-2.28-8-2.28H61.334v18.56H74.375z"/>
</g>
</svg>
