<?xml version="1.0" encoding="utf-8"?>
<!-- Generator: Adobe Illustrator 16.0.0, SVG Export Plug-In . SVG Version: 6.00 Build 0)  -->
<!DOCTYPE svg PUBLIC "-//W3C//DTD SVG 1.1//EN" "http://www.w3.org/Graphics/SVG/1.1/DTD/svg11.dtd">
<svg version="1.1" id="Q" xmlns="http://www.w3.org/2000/svg" xmlns:xlink="http://www.w3.org/1999/xlink" x="0px" y="0px"
	 width="144px" height="144px" viewBox="0 0 144 144" enable-background="new 0 0 144 144" xml:space="preserve">
<g>
	<circle fill="#4B244A" cx="72" cy="72" r="72"/>
</g>
<g>
	<path fill="#FFFFFF" d="M86.814,98.92c0.959,0.826,1.893,1.986,2.801,3.479l5.76,9.36l-8.641,4.16l-7.76-12.561
		c-1.494-2.453-4.027-3.68-7.6-3.68c-5.495,0-10.254-1.173-14.281-3.52c-4.027-2.348-7.134-5.707-9.32-10.08
		c-2.188-4.373-3.28-9.493-3.28-15.361c0-5.866,1.093-10.972,3.28-15.319c2.186-4.346,5.292-7.692,9.32-10.04
		c4.026-2.346,8.786-3.52,14.281-3.52c5.439,0,10.172,1.174,14.199,3.52c4.025,2.348,7.133,5.694,9.32,10.04
		c2.186,4.348,3.279,9.454,3.279,15.319c0,6.4-1.268,11.881-3.799,16.441c-2.535,4.559-6.174,7.879-10.92,9.959
		C84.734,97.493,85.854,98.094,86.814,98.92z M83.494,86.08c2.906-3.573,4.359-8.693,4.359-15.361
		c0-6.666-1.453-11.772-4.359-15.319c-2.908-3.546-6.947-5.32-12.119-5.32c-5.228,0-9.294,1.773-12.201,5.32
		c-2.908,3.547-4.36,8.654-4.36,15.319c0,6.668,1.452,11.788,4.36,15.361c2.906,3.573,6.973,5.359,12.201,5.359
		C76.547,91.439,80.586,89.653,83.494,86.08z"/>
</g>
</svg>
