<?xml version="1.0" encoding="utf-8"?>
<!-- Generator: Adobe Illustrator 16.0.0, SVG Export Plug-In . SVG Version: 6.00 Build 0)  -->
<!DOCTYPE svg PUBLIC "-//W3C//DTD SVG 1.1//EN" "http://www.w3.org/Graphics/SVG/1.1/DTD/svg11.dtd">
<svg version="1.1" id="R" xmlns="http://www.w3.org/2000/svg" xmlns:xlink="http://www.w3.org/1999/xlink" x="0px" y="0px"
	 width="144px" height="144px" viewBox="0 0 144 144" enable-background="new 0 0 144 144" xml:space="preserve">
<g>
	<circle fill="#7180B9" cx="72" cy="72" r="72"/>
</g>
<g>
	<path fill="#FFFFFF" d="M96.895,98.959h-11.2l-9.681-18c-0.907-1.705-2.027-2.906-3.359-3.6c-1.334-0.692-3.014-1.04-5.04-1.04
		h-7.84v22.64h-10.16V42.56h24.96c6.4,0,11.267,1.427,14.6,4.28c3.333,2.854,5,6.974,5,12.36c0,4.32-1.214,7.88-3.64,10.679
		c-2.428,2.801-5.854,4.628-10.28,5.48c2.986,0.801,5.387,2.908,7.2,6.32L96.895,98.959z M81.694,66.2
		c1.813-1.466,2.72-3.72,2.72-6.76c0-3.092-0.907-5.346-2.72-6.76c-1.813-1.413-4.667-2.12-8.56-2.12h-13.44v17.84h13.44
		C77.027,68.399,79.881,67.667,81.694,66.2z"/>
</g>
</svg>
