<?xml version="1.0" encoding="utf-8"?>
<!-- Generator: Adobe Illustrator 16.0.0, SVG Export Plug-In . SVG Version: 6.00 Build 0)  -->
<!DOCTYPE svg PUBLIC "-//W3C//DTD SVG 1.1//EN" "http://www.w3.org/Graphics/SVG/1.1/DTD/svg11.dtd">
<svg version="1.1" id="S" xmlns="http://www.w3.org/2000/svg" xmlns:xlink="http://www.w3.org/1999/xlink" x="0px" y="0px"
	 width="144px" height="144px" viewBox="0 0 144 144" enable-background="new 0 0 144 144" xml:space="preserve">
<g>
	<circle fill="#69747C" cx="72" cy="72" r="72"/>
</g>
<g>
	<path fill="#FFFFFF" d="M58.854,97.92c-3.788-1.173-6.987-2.826-9.6-4.961l3.44-7.52c2.72,2.08,5.586,3.6,8.6,4.561
		c3.013,0.959,6.28,1.439,9.799,1.439c3.893,0,6.894-0.68,9.001-2.04c2.106-1.36,3.16-3.267,3.16-5.72
		c0-2.133-0.975-3.76-2.921-4.881c-1.947-1.119-5.188-2.186-9.72-3.199c-4.693-1.013-8.507-2.187-11.44-3.52
		c-2.934-1.333-5.147-3.041-6.64-5.121c-1.494-2.08-2.24-4.72-2.24-7.92c0-3.306,0.906-6.266,2.72-8.88
		c1.813-2.613,4.372-4.653,7.68-6.12c3.306-1.466,7.12-2.2,11.44-2.2c3.945,0,7.706,0.6,11.279,1.8c3.573,1.2,6.507,2.84,8.801,4.92
		l-3.44,7.52c-5.014-4-10.56-6-16.64-6c-3.628,0-6.494,0.733-8.6,2.2c-2.108,1.468-3.16,3.508-3.16,6.12
		c0,2.188,0.933,3.868,2.8,5.04c1.866,1.174,5.04,2.268,9.52,3.28c4.747,1.068,8.601,2.254,11.561,3.56
		c2.96,1.308,5.226,2.975,6.8,5c1.572,2.027,2.359,4.588,2.359,7.68c0,3.36-0.894,6.309-2.68,8.84
		c-1.787,2.534-4.374,4.48-7.76,5.841c-3.388,1.36-7.374,2.04-11.96,2.04C66.694,99.68,62.641,99.092,58.854,97.92z"/>
</g>
</svg>
