<?xml version="1.0" encoding="utf-8"?>
<!-- Generator: Adobe Illustrator 19.0.0, SVG Export Plug-In . SVG Version: 6.00 Build 0)  -->
<svg version="1.1" id="OBJECTS" xmlns="http://www.w3.org/2000/svg" xmlns:xlink="http://www.w3.org/1999/xlink" x="0px" y="0px"
	 viewBox="0 0 519 321.3" style="enable-background:new 0 0 519 321.3;" xml:space="preserve">
<style type="text/css">
	.st0{fill:none;stroke:#D2E8F9;stroke-miterlimit:10;}
	.st1{fill:none;stroke:#D2E8F9;stroke-miterlimit:10;stroke-dasharray:4.0148,4.0148;}
	.st2{fill:#F0FAFF;}
	.st3{fill:#B5DDF7;}
	.st4{fill:none;stroke:#D2E8F9;stroke-linecap:round;stroke-linejoin:round;stroke-miterlimit:10;}
	.st5{fill:#26387A;}
	.st6{fill:#FFB288;}
	.st7{fill:none;stroke:#0061A6;stroke-width:0.5;stroke-miterlimit:10;}
	.st8{fill:#D9F0FF;}
	.st9{fill:none;stroke:#94C1F2;stroke-width:0.5;stroke-miterlimit:10;}
	.st10{fill:none;stroke:#B4E8FD;stroke-width:5;stroke-linecap:round;stroke-linejoin:round;stroke-miterlimit:10;}
	.st11{fill:#AB65FC;}
	.st12{fill:#7F00FF;}
	.st13{opacity:0.5;fill:#FDAE2B;}
	.st14{fill:#0061A6;}
	.st15{fill:#EF9467;}
	.st16{fill:#E2E8ED;}
	.st17{fill:#B6E9FE;}
	.st18{fill:none;stroke:#6CB1EF;stroke-width:0.5;stroke-miterlimit:10;}
	.st19{fill:#E7F5FE;}
	.st20{fill:#94C1F2;}
</style>
<g>
	<g>
		<g>
			<path class="st0" d="M428.8,82.5c0.6,0,1.3,0,2,0"/>
			<path class="st1" d="M434.8,82.8c12.9,1.3,28.7,6.8,26.8,17.9c-2.9,17.8-82.1,11.2-101,11.4c-38,0.4-76.4,0.5-113.7,8.8
				c-9.1,2-22,6.5-21.1,18c0.3,4,2.7,7.7,5.8,10.4c10.9,9.8,26,10.8,40.1,12.5c21.3,2.6,122.6-0.9,155.7,10
				c6.5,2.1,14.7,4.9,14.9,14.2c0.7,23.7-58.1,22.5-75.8,23c-47.1,1.2-94.2,0.7-141.3-0.2c-38.1-0.8-76.2-1.4-114.2-3.9
				c-14.2-0.9-37.3-1.2-48.1-11.8c-6-5.9-6.8-16.8,2.7-22.3c6.7-3.9,26.5-2.2,34.1-2.8c23-2,16-15.9-2.6-17.7"/>
			<path class="st0" d="M95.2,150.3c-0.7,0-1.3,0-2,0"/>
		</g>
	</g>
	<g>
		<path class="st2" d="M430.2,99.8l-6.1-32.1c-0.4-1.9-2.7-2.7-4.1-1.4l-24.7,21.3c-1.5,1.3-1,3.7,0.8,4.3l30.8,10.8
			C428.7,103.3,430.5,101.7,430.2,99.8z"/>
		<g>
			<path class="st3" d="M425.5,99.3c-0.2,0-0.3,0-0.5-0.1l-25.3-8.9c-0.5-0.2-0.9-0.6-1-1.2c-0.1-0.6,0.1-1.1,0.5-1.5l20.3-17.5
				c0.4-0.4,1-0.5,1.5-0.3c0.5,0.2,0.9,0.6,1,1.2l5,26.4c0.1,0.6-0.1,1.1-0.5,1.5C426.2,99.2,425.9,99.3,425.5,99.3z M401,88.7
				l23.9,8.4l-4.7-24.9L401,88.7z"/>
		</g>
		<path class="st3" d="M414.5,88.6L414.5,88.6c-0.5-0.2-0.7-0.7-0.6-1.2l2.5-8.8c0.2-0.8,1.1-1.3,1.9-1l0,0c0.8,0.3,1.2,1.2,0.9,2
			l-3.5,8.5C415.5,88.5,415,88.7,414.5,88.6z"/>
		<circle class="st3" cx="413.8" cy="90.6" r="1"/>
	</g>
	<g>
		<path class="st2" d="M91.3,139.4l-19.9-9.9c-1.2-0.6-2.6,0.3-2.5,1.7l1.4,22.2c0.1,1.3,1.6,2.1,2.7,1.3l18.6-12.3
			C92.6,141.7,92.5,140,91.3,139.4z"/>
		<g>
			<path class="st3" d="M89.1,141.8c-0.1,0.1-0.2,0.2-0.3,0.2l-15.3,10.1c-0.3,0.2-0.7,0.2-1.1,0.1c-0.3-0.2-0.6-0.5-0.6-0.9
				L70.8,133c0-0.4,0.2-0.7,0.5-1c0.3-0.2,0.7-0.2,1.1-0.1l16.4,8.2c0.3,0.2,0.6,0.5,0.6,0.9C89.3,141.3,89.2,141.6,89.1,141.8z
				 M73.2,150.7l14.4-9.6l-15.5-7.7L73.2,150.7z"/>
		</g>
		<path class="st3" d="M78.7,143.3L78.7,143.3c-0.3,0.2-0.7,0.1-0.9-0.2l-3.8-5c-0.3-0.5-0.2-1.1,0.3-1.4l0,0
			c0.5-0.3,1.1-0.2,1.4,0.3l3.1,5.4C79.1,142.7,79,143.1,78.7,143.3z"/>
		<circle class="st3" cx="79.5" cy="144.6" r="0.7"/>
	</g>
	<g>
		<circle class="st0" cx="105.1" cy="182.6" r="1.7"/>
		<circle class="st0" cx="351.5" cy="151.9" r="1.7"/>
		<circle class="st0" cx="220.8" cy="105.4" r="1.7"/>
		<circle class="st0" cx="218.8" cy="231.6" r="1.7"/>
		<g>
			<line class="st4" x1="257.5" y1="133.9" x2="257.5" y2="137.6"/>
			<line class="st4" x1="259.3" y1="135.7" x2="255.6" y2="135.7"/>
		</g>
		<g>
			<line class="st4" x1="324.9" y1="85.9" x2="324.9" y2="89.6"/>
			<line class="st4" x1="326.7" y1="87.8" x2="323" y2="87.8"/>
		</g>
		<g>
			<line class="st4" x1="429.2" y1="187.2" x2="429.2" y2="190.9"/>
			<line class="st4" x1="431" y1="189.1" x2="427.3" y2="189.1"/>
		</g>
	</g>
</g>
<g>
	<g>
		<g>
			<path class="st5" d="M291.2,294.6c0,0-7,3-7,4.5c0,0.9,9.6-0.4,10.2-0.9c0.9-0.9-0.4-3.4-0.4-3.4L291.2,294.6z"/>
			<path class="st6" d="M290.7,290.4l0.4,4.3c0,0,0.2,0.7,1.2,0.8c1,0.1,1.6-0.8,1.6-0.8l-0.3-5.4"/>
			<g>
				<path class="st5" d="M302.9,191.8c2.5,10.2,1.6,15.4-2.1,23.2c-2.3,26-3.8,51.9-6.9,77.2l-3.2,0.2c-7.3-24.7-14-61.5-13.2-95.3"
					/>
			</g>
			<g>
				<path class="st7" d="M301.3,195.3c0.9,2.4,1.2,5.1,1.1,7.6c-0.1,3.9-1.7,7.4-2.7,11.1c-1.4,4.9-1.5,9.8-1.8,14.9
					c-0.6,7.9-1.2,15.8-1.8,23.7c-1,12.9-2,25.7-3,38.6c0,0.4-0.1,0.8-0.1,1.1"/>
			</g>
		</g>
		<g>
			<path class="st5" d="M319,295.6c0,0-7,3-7,4.5c0,0.9,9.6-0.4,10.2-0.9c0.9-0.9-0.4-3.4-0.4-3.4L319,295.6z"/>
			<path class="st6" d="M318.6,291.4l0.4,4.3c0,0,0.2,0.7,1.2,0.8c1,0.1,1.6-0.8,1.6-0.8l-0.3-5.4"/>
			<g>
				<path class="st5" d="M326.2,190.9c3.2,10.1,2.6,15.3-0.6,23.3c-0.5,26.1-2.3,53.3-3.7,78.8h-3.3c-8.9-24.1-18.5-61.4-19.8-95.1"
					/>
			</g>
			<g>
				<path class="st7" d="M324.6,195.1c0,0,3.7,8.7-2.6,21c-0.7,11.6-1.1,76.9-1.1,76.9"/>
				<path class="st7" d="M315.4,197.9c0.6,1,1.6,1.7,2.7,2.1c1.1,0.4,2.2,0.6,3.4,0.8c1.4,0.2,2.8,0.3,4.2,0.2"/>
				<path class="st7" d="M315.8,199.5c1.2,1.1,2.7,1.7,4.3,2.1c1.6,0.4,3.2,0.4,4.8,0.5"/>
			</g>
		</g>
	</g>
	<g>
		<g>
			<path class="st6" d="M288,142.3c-11.1,19.3-23.1,36.9-30.2,58l-2.1-1.1c0.5-19.6,6.9-48.2,15.3-66"/>
		</g>
		<g>
			<path class="st8" d="M282.6,122.1c0,0-3.4,1-7.5,3.7c-3.8,2.5-6.7,6.3-8.6,10.4c-2,4.1-3,8.6-3.7,13.1c0,0,4.7,2.3,10,3
				c5.3,0.7,11,0,11,0"/>
		</g>
	</g>
	<g>
		<g>
			<path class="st8" d="M274.3,133.6c-1.2,20.9-0.3,42.4,0.3,62.8c0,0,7.3,1.9,25,1.9c17.7,0,29.2-5.4,29.2-5.4
				c-3.4-20.9-6.1-46.6-14.5-63.8c0,0-9.5-10.2-18.8-10.6c-1.9-0.1-3.7,0.6-5.5,1.4c-1.3,0.6-7.4,2.1-7.4,2.1L274.3,133.6z"/>
		</g>
		<path class="st9" d="M274.2,135.4c-0.5,4-0.5,16.4-0.5,16.4"/>
	</g>
	<g>
		<path class="st10" d="M291.8,203c29.6-3.3,42,34.3,48.8,48.8c15.9,34.4,76.1,30.6,103.5,30.6c35.9,0,51.7,12.1,34.9,18.4"/>
		<path class="st11" d="M302,204.7c0,15.2-11.5,24.4-21.4,24.4h-16.2v-48.9h16.2C290.5,180.2,302,189.4,302,204.7z"/>
		<path class="st12" d="M293.7,204.7c0,14.9-8.8,27-19.7,27h-17.8v-53.9H274C284.9,177.7,293.7,189.8,293.7,204.7z"/>
		<path class="st13" d="M297.7,189.9c-3.9,5.3-7.6,10.6-11.3,16c0.5-0.1,1-0.4,1.4-0.7c0,0.4-0.6,1.1-0.1,1.4
			c0.6,0.3,1.2-0.4,1.8-0.2c0.6-0.1,1.1-0.8,1.5-1.2c-0.2,0.4-0.2,0.7-0.3,0.9c3.9-1.5,7.5-5.2,10.5-8.2
			C300.5,194.9,299.2,192.2,297.7,189.9z"/>
		<ellipse class="st11" cx="257.5" cy="204.7" rx="19.7" ry="27"/>
		<g>
			<g>
				<ellipse class="st12" cx="255.7" cy="214.2" rx="3.4" ry="4"/>
			</g>
			<g>
				<ellipse class="st12" cx="255.7" cy="195.1" rx="3.4" ry="4"/>
			</g>
		</g>
	</g>
	<g>
		<g>
			<path class="st6" d="M319.7,149c0,0,1.2,12.7-4.4,23.3c-4.9,9.1-14.5,20.8-22.4,27.2l-1.9-0.5c2.7-10.4,11.3-29,11.8-35.9
				c0.5-6.9,0.4-15,0.5-18.9"/>
		</g>
		<path class="st8" d="M295.5,118.5c0,0,10.5,0.7,16.6,5.9c8.7,7.3,10,21.7,10,25c-2.6,2.8-8.4,3-12.5,3c-4.2,0-7.2-2-7.2-2
			l-0.9-15.8"/>
		<g>
			<path class="st6" d="M291.8,197.6c-1.2,0.1-2.3,0.7-3.4,1.5c-0.9,0.7-2,1.9-1.9,2.5c0.1,0.6,1.6-0.5,1.8-0.3
				c0.2,0.2-2.6,4.4-2.1,4.7c0.5,0.3,2.9-3.5,2.9-3.5s-2.3,4-1.4,4.1c0.7,0.1,2.8-3.7,2.8-3.7s-1.7,3.4-1.1,3.5
				c0.6,0.1,2.2-3.3,2.2-3.3s-1.3,2.9-0.8,3c0.2,0,1.5-1.4,2.1-3.2c0.5-1.7,1.1-3.2,0.7-4.6"/>
		</g>
		<line class="st9" x1="302.7" y1="136.2" x2="302.7" y2="150.6"/>
	</g>
	<g>
		<g>
			<path class="st12" d="M273.8,105.2c-0.1,0.6-0.1,1.3-0.1,1.9c0,1.4,0.2,2.8,1,3.9c0.5,0.8,1.3,1.3,2.2,1.6
				c0.6,0.2,1.5,0.1,1.7-0.5c0.1-0.2,0.1-0.5,0.1-0.7c0-2.3-0.5-4.6-1.3-6.8"/>
		</g>
		<g>
			<path class="st6" d="M289.6,106.5c-0.9-3.5-3.7-8.4-8.3-7.4c-2.9,0.6-5.5,2.6-6.4,5.3c-1,3.3,0.6,7.1,2.6,9.8
				c0.7,1,1.6,1.9,2.7,2.5c2.7,1.4,6.3,0.2,8.1-2S290.3,109.3,289.6,106.5z"/>
		</g>
		<path class="st6" d="M283.1,115.7l1.5,5.5l-2,1c0,0,1.6,2.1,4.6,1.6c6.3-0.9,8.3-5.3,8.3-5.3l-3.5-0.4l-3.9-6.7"/>
		<g>
			<path class="st12" d="M292.6,102.7c-0.4-2.4-2.2-4.5-4.2-5.7c-3.7-2.3-9-2.4-12.3,0.7c-1.9,1.8-5.3,8-1.2,9.3
				c1.3,0.4,2.6-0.4,3.7-1.1c1.1-0.7,2.2-1.5,3.4-2.2c0.4-0.3,0.8-0.5,1.3-0.6c0.8,0,1.4,0.7,1.7,1.4c0.3,0.7,0.3,1.6,0.5,2.3
				c0.1,0.5,0.4,1.1,0.8,1.4c0.5,0.3,1.2,0.2,1.5-0.3c0.2-0.4,0-0.8,0-1.2c0-0.4,0.2-0.9,0.6-0.8c0.1,0,0.3,0.1,0.4,0.2
				c1,0.8,0.7,2.3,1,3.5c0,0.2-0.3,2.6-0.2,2.7C292.7,111.5,293,104.4,292.6,102.7z"/>
		</g>
		<g>
			<path class="st6" d="M288,106.1c-0.1-0.4,0.4-0.9,0.8-0.9c0.4,0,0.9,0.2,1.2,0.5c0.6,0.5,1,1.2,1,2c0,0.6-0.2,1.2-0.6,1.7
				c-0.2,0.3-0.5,0.7-0.9,0.8c-0.5,0.2-1.1-0.1-1.4-0.4"/>
		</g>
	</g>
</g>
<g>
	<g>
		<g>
			<path class="st5" d="M176.7,294.4c0,0,6.7,1.1,6.9,2.6c0.1,0.8-9.5,1.9-10.1,1.4c-1-0.8,0.2-3.8,0.2-3.8L176.7,294.4z"/>
			<path class="st6" d="M176.1,290.3l0.6,4.3c0,0-0.1,0.7-1.1,0.9c-1,0.2-1.7-0.6-1.7-0.6l-0.8-5.3"/>
			<g>
				<path class="st5" d="M150.9,193.1c-1.2,10.5-1.3,15.5,3.4,22.7c2.2,10.1,5.6,20.5,8.2,30.9c-1.1,12.4,6.7,32.2,10.9,46.3l3-0.5
					c4.1-25.4,5.6-64.4,1.9-98.5"/>
			</g>
			<path class="st7" d="M152.9,207.3c0,0,11.6,36.8,11.6,38.8s0.3,8.9,0.8,13.3c0.9,8.2,8.3,32.2,8.3,32.2"/>
			<polygon class="st14" points="173.3,293.6 172.8,291.8 176.7,291.6 176.8,293.3 			"/>
		</g>
		<g>
			<path class="st5" d="M124.2,294.6c0,0,5.3,3.8,4.8,5.2c-0.3,0.8-8.9-2.4-9.2-3.1c-0.5-1.1,1.8-3.1,1.8-3.1L124.2,294.6z"/>
			<path class="st6" d="M125.5,290.9l-1.3,3.9c0,0-0.4,0.6-1.3,0.3c-0.9-0.2-1.2-1.2-1.2-1.2l1.6-4.9"/>
			<g>
				<path class="st5" d="M128.3,190.9c-3.2,10.1-2.6,15.3,0.6,23.3c0.2,9.5,0.3,19.2,0.4,28.8c-6.8,17-7.9,32.2-7,48.4l3.3,1.2
					c0,0,19.5-34,23.1-47.4c4.1-15.4,6.4-31.9,7.1-47.3"/>
			</g>
			<path class="st7" d="M129.1,193.1c0,0-3.5,10.4,1.1,20.4c0,2.8,1.6,26,1,29.6c-0.3,1.7-3.5,9.9-5.6,17.9
				c-2.4,8.8-2.9,29.7-2.9,29.7"/>
			<polygon class="st14" points="121.6,291.4 122.2,289.2 126.4,291.2 125.5,293.1 			"/>
		</g>
	</g>
	<g>
		<path class="st15" d="M182.8,113.3l-2.6-2.2c0,0,0-3.9,0-4.6s-1-5-1.9-5c-0.9,0-1.1-1.1-1.5-0.6c-0.4,0.4,0.4,5.3,0,5.7
			s-0.8-2.3-1.2-2c-0.3,0.3-0.4,2.3-0.4,3.3c0,1,0.8,2.9,1.6,3.7c0.8,0.8,4.3,4.6,4.3,4.6L182.8,113.3z"/>
		<g>
			<path class="st8" d="M181.5,111.8l-2.2,2.5c0,0,8.7,11.5,11.4,15.3c-2.5-0.9-6.1-3.1-8.2-4.4c-4.1-2.7-8.2-4.1-11-4.1
				c-6,0-2.9,19.8,4.1,22.7c13.2,2,28,0.7,30.3-3.9C209.3,133,189.9,116.8,181.5,111.8z"/>
		</g>
		<path class="st9" d="M190.7,129.6c0,0,1.7,4.6,4.6,6.1"/>
	</g>
	<g>
		<g>
			<path class="st8" d="M141.2,126.3c-15.8,17.7-15.5,48.1-15.5,68.8c0,0,11.6,7.9,29.2,7.9c17.7,0,25-4.4,25-4.4
				c0.5-20.9-3.2-30,0.3-64.6c0,0-5.6-12.9-8.6-12.9c-3,0-14.8-1.2-14.8-1.2L141.2,126.3z"/>
		</g>
		<path class="st9" d="M179.3,144.2c0,0,0.4-6.1,1.8-7.5"/>
	</g>
	<g>
		<path class="st6" d="M162,106.7c0.6-3.6,3.1-8.7,7.8-8.1c2.9,0.4,5.2,2.4,6.8,4.8c1.4,2,0.9,4-1.1,9.1c-0.6,1.1-2,2.9-3.1,3.6
			c-2.5,1.6-6.2,0.8-8.2-1.3S161.5,109.5,162,106.7z"/>
	</g>
	<g>
		<path class="st12" d="M162.6,106.2c0.7-0.1,0-0.5,0.3,0.1c0.2,0.4,0.2,0.5,0.6,0.6c0.4,0.1,0.4,0.5,0.7,0.7
			c0.5,0.4,0.9-0.1,1.1-0.5c0.4-0.8,0.4-1.7,0.3-2.5c-0.1-0.7-0.3-1.7,0.4-2.2c0.5-0.4,1.7,0.2,2.2,0.3c0.8,0.2,1.7,0.5,2.5,0.8
			c2,0.6,4.1,1.2,6.3,0.9c1.8-0.2,3.8-1.2,4.6-2.9c1.1-2.1-1.1-4.7-3.2-4.7c-0.6,0-1.1,0.2-1.7,0.3c-0.2,0-0.4,0.1-0.6,0
			c-0.5-0.1-0.7-0.7-0.9-1.1c-0.8-1.2-2.2-1.6-3.6-1.5c-1.6,0.2-3,0.9-4.5,1.4c-0.8,0.2-1.5,0-2.3,0c-0.8,0-1.7,0.6-2.1,1.3
			c-0.7-0.7-2.1,1-2.5,1.4c-1.6,1.9-2.1,4.7-2.1,7.2c0,2.1,0.3,5.3,2.7,6.1c1,0.4,1.6,0.6,1.7-0.4c-0.4-0.9-0.5-2.8-0.6-3.6
			c-0.1-0.8,0.1-1.7,0.9-2"/>
	</g>
	<path class="st6" d="M170.2,115.2l-0.5,5.4l1.8,0.5c0,0-0.9,2.4-4,2.8c-6.3,0.8-10.7-4-10.7-4l2.1-0.4l3.2-10"/>
	<g>
		<path class="st6" d="M163.6,106.2c0-0.4-0.4-0.8-0.9-0.8c-0.4,0-0.9,0.3-1.2,0.6c-1.8,1.8,0.5,6,2.2,3.8"/>
	</g>
	<g>
		<path class="st12" d="M175.5,112.4c-0.3,0.7-1.4,0.9-2,1c-3,0.3-5.4-1.6-8.2-1.9c-0.6-0.1-1.2-0.1-1.6,0.3c-0.4,0.4-0.4,1-0.4,1.5
			c0,0.7,0,1.3,0,2c0.1,0.6,0.2,1.1,0.5,1.6c1.3,2.1,5.5,2.5,7.7,2.4c0.9-0.1,1.8-0.2,2.5-0.7c1-0.7,1.2-2,1.5-3.1
			C175.8,113.9,175.5,112.4,175.5,112.4z"/>
	</g>
	<g>
		<path class="st6" d="M173.4,114.7c-0.1-0.1-0.2-0.1-0.3-0.1c-1.4,0-2.1-0.3-3.2-0.4c-0.2,0-0.4,0-0.5,0c-0.4,0.1-0.6,0.5-0.7,0.9
			c-0.1,0.4,0.1,0.7,0.5,0.9c0.6,0.3,1.4,0.4,2.1,0.5c0.6,0,1.4,0.1,1.9-0.3C173.4,115.8,173.8,115,173.4,114.7z"/>
	</g>
	<g>
		<path class="st10" d="M160.4,192.8c-34.4-1.8-54.4,16-68.7,48.3c-18.5,42-44.3,45.3-55.9,45.1"/>
		<path class="st11" d="M147.2,195.6c1.3,15.2,13.5,23.4,23.3,22.6l16.1-1.3l-4.1-48.7l-16.1,1.3
			C156.6,170.3,145.9,180.4,147.2,195.6z"/>
		<path class="st12" d="M155.5,194.9c1.2,14.8,11,26.1,21.9,25.2l17.8-1.5l-4.5-53.7l-17.8,1.5C162,167.3,154.2,180,155.5,194.9z"/>
		
			<ellipse transform="matrix(-0.9965 8.312135e-002 -8.312135e-002 -0.9965 398.4801 367.1485)" class="st11" cx="191.6" cy="191.9" rx="19.7" ry="27"/>
		<g>
			<g>
				
					<ellipse transform="matrix(-0.9965 8.313130e-002 -8.313130e-002 -0.9965 404.2882 385.655)" class="st12" cx="194.1" cy="201.2" rx="3.4" ry="4"/>
			</g>
			<g>
				
					<ellipse transform="matrix(-0.9965 8.311658e-002 -8.311658e-002 -0.9965 399.5326 347.7802)" class="st12" cx="192.5" cy="182.2" rx="3.4" ry="4"/>
			</g>
		</g>
		<g>
			<path class="st16" d="M193.1,185c2-0.2,25.1-2.1,25.1-2.1c1.5-0.1,2.7-1.5,2.5-3l0,0c-0.1-1.5-1.5-2.7-3-2.6
				c0,0-23.2,1.9-25.1,2.1C190.7,179.5,191.1,185.2,193.1,185z"/>
			<path class="st16" d="M194.7,204c2-0.2,25.1-2.1,25.1-2.1c1.5-0.1,2.7-1.5,2.5-3l0,0c-0.1-1.5-1.5-2.7-3-2.6
				c0,0-23.2,1.9-25.1,2.1C192.3,198.6,192.7,204.2,194.7,204z"/>
		</g>
	</g>
	<g>
		<g>
			<path class="st6" d="M132.8,149c0,0-1.2,12.7,4.4,23.3c4.9,9.1,14.5,20.8,22.4,27.2l1.9-0.5c-2.7-10.4-11.3-29-11.8-35.9
				c-0.5-6.9-0.4-15-0.5-18.9"/>
		</g>
		<path class="st8" d="M156.7,119.9c0,0-11,0.6-17.4,5.4c-11,8.3-8.8,30.6-5.6,41.5c3.2,10.9,18.6,27.2,23.5,30.7
			c0.8,0,3.2-0.2,3.1-2.1c-2.7-8.5-10.6-30.8-10.6-30.8l1.2-30.1"/>
		<g>
			<path class="st6" d="M160.7,197.6c1.2,0.1,2.3,0.7,3.4,1.5c0.9,0.7,2,1.9,1.9,2.5c-0.1,0.6-1.6-0.5-1.8-0.3
				c-0.2,0.2,2.6,4.4,2.1,4.7c-0.5,0.3-2.9-3.5-2.9-3.5s2.3,4,1.4,4.1c-0.7,0.1-2.8-3.7-2.8-3.7s1.7,3.4,1.1,3.5
				c-0.6,0.1-2.2-3.3-2.2-3.3s1.3,2.9,0.8,3c-0.2,0-1.5-1.4-2.1-3.2c-0.5-1.7-1.1-3.2-0.7-4.6"/>
		</g>
		<path class="st9" d="M152.9,173.5c-1.8-5.1-3.1-8.9-3.1-8.9l2.3-25.3"/>
		<path class="st9" d="M131.2,145.5c-0.1,6.9,0.8,15.3,2.5,21.3c1.5,5.2,5.9,11.7,10.6,17.5"/>
	</g>
</g>
<g>
	<path class="st6" d="M367.4,108.3l1.8-1.2c0,0,0.8-3.9,1.3-4.6c0.5-0.7,1.4-2.3,2.4-3c0.4-0.3,2.4-1.4,2.9-0.9
		c0.2,0.2-0.6,2.5-1,2.9c-0.4,0.4-1.5,2.1-1.3,2.6c0.2,0.5,1.1-0.6,1.3-0.9c0.2-0.2,0.5-0.5,0.6-0.2c0.2,0.5-0.8,3.2-1.6,3.9
		c-0.8,0.8-2,1.5-2.9,1.5l-2.8,2.4"/>
	<g>
		<path class="st12" d="M388.7,95.6c2.9,1.7,4.8,5,5.5,8.3c0.1,0.6,0.2,1.2,0.6,1.7c0.3,0.4,0.8,0.5,1.2,0.7
			c2.4,1.1,4.3,3.3,5.2,5.9c0.4,1.1,0.1,2.6,0.5,3.5c0.5,1.1,2.4,1.4,3.5,1.7c3.1,1,5.4,4.1,5.4,7.4c0,3.3-2.2,6.4-5.2,7.5
			c0.8,1.2,0.9,2.7,0.6,4.1c-0.4,1.4-1.2,2.6-2.2,3.6c-3.9,4.4-9.9,6.7-15.7,6.5c-1.7-0.1-3.4-0.4-4.9-1c-1.8-0.7-3.3-1.9-4.8-3.1
			c-1.8-1.4-3.6-3-4.6-5.1c-1-2.1-0.9-4.8,0.7-6.5c-1.9,0.4-3.9-0.6-5-2.3c-1.1-1.6-1.3-3.7-0.8-5.6c0.4-1.9,1.4-3.6,2.6-5.2
			c0.8-1.1,1.8-2.2,1.9-3.6c0.3-2.3-1-4.3-1.3-6.5c-0.5-3.5-0.4-6.5,2.6-8.4c1-2.5,2.1-4.4,4.9-5.1
			C382.6,93.3,385.8,93.8,388.7,95.6z"/>
	</g>
	<path class="st17" d="M381.5,122.1c-10-2.6-21.4,1.5-23.9,1.5c3.5-3.5,9.9-11.2,12.1-13.9c0-1.8-1.1-2.4-1.1-2.4
		s-27.4,14.1-24.6,23.4c2.9,9.6,29.7,4.9,31.8,7.7"/>
	<g>
		<path class="st6" d="M383.5,211.9c0,0.8-3.6,18.4-3.9,20.3c-0.8,5.5,2.1,11,1.9,19.5c-0.3,10.3-4.7,38.2-5.3,39.4
			c-0.6,1.2-3.2,0.1-3.2,0.1s-7.7-37.3-8.2-52.6c-0.4-12.6,1.5-39.8,1.5-39.8"/>
		<path class="st5" d="M376.5,291.5c0,0,0.4,0.9,0.4,1.4c-0.1,1.2-0.1,1.9-0.1,1.9l-0.5,0l-0.2-0.9c0,0-1.3,0.2-2.7,1.1
			c-0.7,0.4-4,0.4-4.5,0.1c-0.6-0.3-0.4-0.8-0.2-1.1c0.2-0.2,3.8-1.8,3.8-1.8"/>
		<path class="st6" d="M372.9,291.2c-0.3,0.7-3.1,2.2-2.9,2.5c0.3,0.2,1.9,0.2,3.7-0.4c1.7-0.6,2.6-1.2,2.7-1.6l-0.3-1.2"/>
	</g>
	<g>
		<path class="st6" d="M408.3,212.6c0,0.8-3,18.5-3.2,20.4c-0.6,5.5,2.5,10.9,2.4,19.4c0,10.4-3.6,38.3-4.1,39.5
			c-0.5,1.2-3.2,0.2-3.2,0.2s-8.9-37-9.8-52.3c-0.7-12.6,0.3-39.8,0.3-39.8"/>
		<path class="st5" d="M403.7,292.4c0,0,0.5,0.9,0.5,1.4c0,1.2,0,2,0,2l-0.5,0l-0.2-0.9c0,0-1.3,0.3-2.7,1.2c-0.6,0.5-4,0.5-4.5,0.3
			c-0.6-0.3-0.4-0.8-0.2-1.1c0.2-0.2,3.7-1.9,3.7-1.9"/>
		<path class="st6" d="M400.2,292.2c-0.3,0.7-3.1,2.3-2.8,2.5c0.3,0.2,1.9,0.2,3.7-0.5c1.6-0.6,2.6-1.3,2.6-1.7l-0.4-1.2"/>
	</g>
	<path class="st12" d="M399.3,167.4c0,0,7.9,5.2,10.9,17.6c4.1,16.8-1.9,49.7-1.9,49.7s-12.4,3.6-25.9,3.5
		c-13.5-0.1-21.5-4.7-21.5-5.5c0-0.8-2-25.7,0.7-42.6c3.1-19,10.9-24.1,10.9-24.1"/>
	<g>
		<g>
			<path class="st17" d="M388.6,121.8c1.2-0.5,4.4,0.7,10.4,2.9c2.6,2.8,3.8,9.1,4.3,14.6c-1.5,13.4-3.3,20.7-2.4,25.2
				c0.2,1.1,1.2,1.9,1,3.4c-0.3,3.1-5.4,3.6-15,4.6c-9.6,1.1-18.2-3.3-17.7-4.6c0.5-1.4,2.2-2.6,2.4-3.5c0.3-0.9,1-12.4,0-13.7
				c-1-1.4-3.7-5.3-3.7-9.1c0-5.4,3-7.8,4.9-10.7c3.2-4.9,5.7-8,8.8-8.8C386.5,120.9,388.6,121.8,388.6,121.8z"/>
		</g>
		<path class="st18" d="M372.4,128.6c0,0,0.3,2.3-0.8,4.2c-0.4,0.6-2.5,2.8-3,4.2"/>
	</g>
	<g>
		<path class="st6" d="M386.3,115.2c2.6-2.6,3-7.5,1.8-10.9c-1.3-3.8-6.7-6.6-10.4-4.2C370.5,104.8,377.8,123.6,386.3,115.2z"/>
	</g>
	<path class="st6" d="M381.3,114.8l0.1,8c0,0-0.3,1.8,2.8,1.9c4.3,0.2,4.3-2.9,4.3-2.9l-2.5-8.3"/>
	<g>
		<path class="st12" d="M384.5,96.6c-0.9-0.6-1.8-0.6-2.7-0.1c-0.6,0.3-1,0.9-1.5,1.1c-0.4,0.2-0.9,0.2-1.4,0.3
			c-2.1,0.6-4.1,2.2-4.9,4.2c-0.9,2-0.6,5.3,1.1,6.7c-0.1-1.5,0.4-3.8,1.2-5.1c0.4-0.7,1.1-1.4,1.9-1.3c0.9,0.1,1.4,1.1,2.1,1.7
			c1,1,2.4,1.2,3.7,1.4c1.5,0.2,2.6,0.5,3.4,1.9c0.3,0.6,0.5,1.3,0.7,2c0.2,0.8,0.4,1.6,0.5,2.5c0,0.5,0,1.1,0.2,1.6
			c0.3,1,1.3,1.6,2.3,1.9c0.8,0.3,2,0.5,2.5-0.4c0.4-0.7,0.7-1.7,0.9-2.5c0.5-2.7-0.4-5.5-1.9-7.8c-1.6-2.5-3.9-4.2-5.9-6.4
			C385.8,97.7,385.2,97,384.5,96.6z"/>
	</g>
	<g>
		<path class="st6" d="M386.6,109c0.2-0.6,0.6-1.2,1.2-1.3c2-0.3,1.7,2.7,0.9,3.8c-0.5,0.6-1.7,1.4-2.2-0.3"/>
	</g>
	<g>
		<path class="st6" d="M408.3,171.5l-1,2.1c0,0-3.6,0.9-4,1.5c-0.6,1-1.5,2.4-1.5,3.2c0,0.8,0.1,4.3,1.1,4.3c0.6,0,2.1-2.8,2.4-3.2
			c0.7-0.9,3.6-1.6,3.6-4.1l1.8-3.7"/>
		<path class="st17" d="M388.6,121.7c0,0,8.5-2.2,15.1,2c5.1,3.2,18.4,19.4,18.4,28.7c0,6.2-12.4,21.7-12.4,21.7l-2.1-1.5
			c0,0,1.2-12.2,4.8-18.8c-2.7-2.7-13-10.9-15.6-13.5"/>
		<path class="st18" d="M395.5,139.4c1.9,1.6,6.7,5.6,6.7,5.6"/>
	</g>
</g>
<g>
	<g>
		<path class="st19" d="M145.5,107.4l-10.2-8.3c0,0,4.6-17-1.5-23c-3.2-3.2-7.3-5.3-11.6-6.9c-9.4-3.6-20.7-4.4-29.1,1.2
			c-6.2,4.1-10,11.2-11.7,18.4c-1.5,6.4-1.4,13.6,2.6,18.8c1.8,2.3,4.2,4.1,6.8,5.5c8.1,4.2,29.5,5.8,38.8-0.4
			c2.6-1.7,2.3-4.1,3.4-7.7L145.5,107.4z"/>
	</g>
</g>
<g>
	<circle class="st20" cx="98.1" cy="92.6" r="2.9"/>
	<circle class="st20" cx="107.7" cy="92.6" r="2.9"/>
	<circle class="st20" cx="117.3" cy="92.6" r="2.9"/>
</g>
</svg>
