<?xml version="1.0" encoding="utf-8"?>
<!-- Generator: Adobe Illustrator 19.0.0, SVG Export Plug-In . SVG Version: 6.00 Build 0)  -->
<svg version="1.1" id="OBJECTS" xmlns="http://www.w3.org/2000/svg" xmlns:xlink="http://www.w3.org/1999/xlink" x="0px" y="0px"
	 viewBox="0 0 519 321.3" style="enable-background:new 0 0 519 321.3;" xml:space="preserve">
<style type="text/css">
	.st0{fill:#98C4F9;}
	.st1{opacity:0.25;}
	.st2{fill:#B671FF;}
	.st3{fill:#092533;}
	.st4{fill:#7F00FF;}
	.st5{fill:url(#XMLID_95_);}
	.st6{fill:url(#XMLID_97_);}
	.st7{fill:url(#XMLID_99_);}
	.st8{opacity:0.25;fill:none;stroke:#FFFFFF;stroke-width:0.4597;stroke-miterlimit:10;}
	.st9{fill:#4FC1EA;}
	.st10{fill:url(#XMLID_100_);}
	.st11{fill:url(#XMLID_108_);}
	.st12{fill:#12006D;}
	.st13{fill:url(#XMLID_110_);}
	.st14{fill:none;stroke:#092533;stroke-width:0.9195;stroke-miterlimit:10;}
	.st15{fill:url(#XMLID_111_);}
	.st16{fill:url(#XMLID_112_);}
	.st17{fill:url(#XMLID_113_);}
	.st18{fill:url(#XMLID_114_);}
	.st19{fill:url(#XMLID_115_);}
	.st20{fill:url(#XMLID_116_);}
	.st21{fill:url(#XMLID_117_);}
	.st22{opacity:0.25;fill:none;stroke:#000000;stroke-width:0.4597;stroke-miterlimit:10;}
	.st23{fill:#6C5BE8;}
	.st24{fill:url(#XMLID_118_);}
	.st25{fill:url(#XMLID_119_);}
	.st26{fill:url(#XMLID_120_);}
	.st27{fill:url(#XMLID_121_);}
</style>
<g id="XMLID_94_">
	<g id="XMLID_2_">
		<path id="XMLID_3_" class="st0" d="M378.7,218.7l-6.2-18.2l-10.4,3.5l-21.2-62.1l-23.6,8l0.1,0.2l-7.6,32.8L299,229.8l6.3,13.9
			l22.3-7.6l8.1-2.8l9-3.1l7.4,21.6l23.6-8l-7.4-21.6L378.7,218.7z M335.8,213l-5.4,1.8l-10.3,3.5l7-34.7l0.7-2.9l10.7,31.4
			L335.8,213z"/>
		<polygon id="XMLID_7_" class="st1" points="368.3,222.2 375.7,243.9 360.7,237.4 336.6,150.9 327.8,180.7 323.7,197.6 309.8,183 
			317.4,150.2 317.3,150 340.9,141.9 362.1,204 372.5,200.5 378.7,218.7 		"/>
		<path id="XMLID_8_" class="st1" d="M335.7,233.3l-8.1,2.8l1.2-16.7v-3l1.7-1.5l1.1-1l4.3-0.8C335.8,213,335.5,225.3,335.7,233.3z"
			/>
		<path id="XMLID_9_" class="st2" d="M335.8,213c0,0-2-2.5-5.6-2.3c-3.5,0.3-5.5,1.6-5.6,5.3c-0.1,3.7,0.8,22.3,0,29.6
			c-0.8,7.4,4.2,8.1,4.5,2.7c0.3-5.5-1.8-22.6-0.3-25.4c1.6-2.8,0.6,3.1,2.3,5c1.7,1.9,3.4-1.5,1.7-6
			C330.9,217.4,335.8,213,335.8,213z"/>
	</g>
	<g id="XMLID_10_">
		<g id="XMLID_11_">
			<path id="XMLID_12_" class="st2" d="M119.7,185.5c-0.6,0-1.1,0-1.2-0.1c-0.2-0.1-0.9-0.4-6.9-11.1l1.1-0.6
				c2.2,4,5.7,9.9,6.4,10.6c0.7,0.1,4.3-0.1,7.4-0.5l0.1,1.2C124.6,185.2,121.5,185.5,119.7,185.5z"/>
		</g>
		<path id="XMLID_13_" class="st3" d="M141.5,190.7v0.4c0,0-0.3,6.8-5.4,6.5c0,0,0,0,0,0c-3.2-0.2-7.1-1.7-9.7-2.8
			c-1.6-0.7-2.8-1.2-2.9-1.2c-0.3,0.1,3.9,17.5,3.8,18.5c0,0.1,0,0.3-0.1,0.4c-0.3,0.9-1.3,2.1-2,2.2c-0.1,0-0.2-0.1-0.4-0.3
			c-1.9-2.4-9.4-16.1-9.6-20.5c-0.2-4.9,2.3-7.9,5.6-8.4c2.5-0.4,9.8,0.6,13.4,1.1c1.3,0.2,2.1,0.3,2.1,0.3L141.5,190.7z"/>
		<g id="XMLID_14_">
			<path id="XMLID_15_" class="st1" d="M127.3,212.1c0,0.1,0,0.3-0.1,0.4c-0.3,0.9-1.3,2.1-2,2.2c-0.1,0-0.2-0.1-0.4-0.3
				c2.7-3.8-4.3-22.2-2.8-22.2c0.8,0,2.4,1.3,4.3,2.6c-1.6-0.7-2.8-1.2-2.9-1.2C123.1,193.6,127.3,211.1,127.3,212.1z"/>
			<path id="XMLID_16_" class="st1" d="M141.5,190.7v0.4c0,0-0.3,6.8-5.4,6.5c1-0.8,1.2-2.2,1.1-3.9c-0.1-2-1.9-5.4-3-7.1
				c1.3,0.2,2.1,0.3,2.1,0.3L141.5,190.7z"/>
		</g>
		<path id="XMLID_17_" class="st4" d="M130.7,168.3c-0.2,0.3-0.3,0.5-0.3,0.7c0,0,0,0,0,0c-0.1-0.1-0.3-0.5-0.5-0.9
			c-0.5-0.7-1.1-1.6-1.5-1.7c-0.6-0.2-2.3,1.9-4.5,2.1c-0.1,0-0.3,0-0.4,0c-2.5-0.1-5.1-3.6-3-7.7c0.7,1.5,2.2,1.5,2.2,1.5
			s-0.9-0.2-1-1.3c2.7,0.5,4.1-1.5,6.4-0.8c2.3,0.7,2.2,2.1,2.2,2.1s1.8-0.7,2.3,1.5C133,165.5,131.4,167.2,130.7,168.3z"/>
		<linearGradient id="XMLID_95_" gradientUnits="userSpaceOnUse" x1="126.7899" y1="171.4704" x2="127.398" y2="165.7204">
			<stop  offset="0" style="stop-color:#FFC5AE"/>
			<stop  offset="1" style="stop-color:#EA8B6A"/>
		</linearGradient>
		<path id="XMLID_18_" class="st5" d="M130.4,168.9c-0.2,0.6-0.5,1.2-0.9,1.7c-0.5,0.6-1.1,1-1.9,1c-1.6,0-3.1-2.1-3.8-3.2
			c2.2-0.2,3.9-2.3,4.5-2.1c0.4,0.1,1,1,1.5,1.7C130.1,168.4,130.3,168.8,130.4,168.9z"/>
		<linearGradient id="XMLID_97_" gradientUnits="userSpaceOnUse" x1="134.4531" y1="169.5473" x2="129.1454" y2="169.9343">
			<stop  offset="0" style="stop-color:#FFC5AE"/>
			<stop  offset="1" style="stop-color:#EA8B6A"/>
		</linearGradient>
		<path id="XMLID_19_" class="st6" d="M132.6,169.1c0,0-1.2,2.7-1.6,2.1c-0.2-0.3-0.9-0.5-1.5-0.7c0.4-0.5,0.7-1.1,0.9-1.7
			c0,0,0,0,0,0c0-0.2,0.1-0.4,0.3-0.7C131.5,168.9,132.6,169.1,132.6,169.1z"/>
		<path id="XMLID_20_" class="st4" d="M140.9,191.9c-1.9-0.3-7-5.8-7-8.2c0-0.3,0-0.7-0.1-1.1c-0.4-2.5-1.8-6.1-2.4-8.7
			c-0.7-3,0.3-4.1,0.3-4.1c2.3-4,7.6,3.9,10.5,10.2l0,0c1,2.1,1.7,4.1,1.7,5.4C144.2,190,142.8,192.2,140.9,191.9z"/>
		<path id="XMLID_21_" class="st1" d="M140.9,191.9c-1.9-0.3-7-5.8-7-8.2c0-0.3,0-0.7-0.1-1.1l0-1.1l1.8-9.7c0,0,2.5,3,3,8.4
			c0.4,5.4,6.4,6.6,3.6-0.3c1,2.1,1.7,4.1,1.7,5.4C144.2,190,142.8,192.2,140.9,191.9z"/>
		<path id="XMLID_22_" class="st4" d="M137,179.9c0,0-0.1,0.1-0.3,0.1c-0.9,0.2-3.4,0.2-4.5,0c-0.2,0-0.3-0.1-0.4-0.1
			c-0.7-0.3,0-1.1-0.2-2.6c-0.2-1.4-0.8-5.6,1.4-6.9c2.2-1.3,3.9,3.8,3.9,6.3C137.1,179.3,137.5,179.5,137,179.9z"/>
		<linearGradient id="XMLID_99_" gradientUnits="userSpaceOnUse" x1="127.5042" y1="191.2121" x2="132.3696" y2="173.7411">
			<stop  offset="0" style="stop-color:#FFC5AE"/>
			<stop  offset="1" style="stop-color:#EA8B6A"/>
		</linearGradient>
		<path id="XMLID_23_" class="st7" d="M136.7,180c0,0-0.1,6.2-1.3,9.1c0,0,0,0,0,0c-0.4,0.9-0.8,1.5-1.5,1.5
			c-2.6-0.1-8.3-6.2-8.9-6.4c-0.5-0.2-3.2,0.2-3.1-0.2c0.1-0.4,1.1-1.2,2.2-1.7c1.1-0.4,0.9-0.2,8,3.1c-0.1-0.6-0.1-3.3,0-4.9
			c0-0.2,0-0.4,0-0.6C133.3,180.2,135.9,180.3,136.7,180z"/>
		<path id="XMLID_24_" class="st4" d="M129.4,216.3c0.2,1.1-7.3,8.7-6.9,6.7c0.4-2,2.7-8.3,2.7-8.3c0.6-0.1,1.7-1.2,2-2.2
			C127.8,213.6,129.2,215.4,129.4,216.3z"/>
		<path id="XMLID_25_" class="st8" d="M136.1,193.1c0,0-11.9-2.2-14.3-1.2c-2.4,1.1,4.3,20,4.3,20"/>
		<path id="XMLID_26_" class="st1" d="M135.5,189.2c0.2-1.2,0.4-4.9-0.2-6.3c-0.4-1-2-1.8-3-2.2c0-0.2,0-0.4,0-0.6
			c1.1,0.2,3.6,0.2,4.5,0C136.7,180,136.6,186.3,135.5,189.2z"/>
	</g>
	<g id="XMLID_27_">
		<path id="XMLID_28_" class="st4" d="M328.4,147.2c-0.2,0.9-0.6,2.1-1.3,3.7c-0.9,2.3-2.2,5.4-4.2,9.8c0,2.2-0.8,16.4-0.9,19.6
			c0,0.4,0,0.6,0,0.7c0,0.1-0.5,0.4-1.1,0.6c-0.5,0.1-1.1,0.2-1.3-0.2c-0.5-0.7-3.9-14-4-17.2c-0.2-3.2-0.3-2.4,3.5-15
			c-0.9,0.4-7,0.3-7,0.3s1.1,15.4,1.1,15.5c0,0,0,0.1,0,0.1c-0.1,0.2-0.3,0.7-0.5,0.9c-0.1,0.1-0.2,0.2-0.3,0.1
			c-0.1,0-0.2-0.1-0.4-0.4c-1.2-1.2-4.4-5.4-6.1-9.3c-2-4.6-2.5-7.8-0.6-11c1.9-3.2,11.7-3.5,11.7-3.5c0.6,0.2,2,0.3,3.5,0.7
			c0.4,0.1,0.8,0.2,1.2,0.3c2.1,0.7,6.2,1.6,7.1,1.1C328.8,144.8,328.9,145.6,328.4,147.2z"/>
		<path id="XMLID_29_" class="st9" d="M336.6,136.5c-0.4,0.2-4.9,0.1-7.9-1.1c0,0.5,0.1,1.4,0.2,2.3c0.1,1.5,0.3,3.3,0.2,4.6
			c0,0.9-0.1,1.6-0.4,1.8c0,0,0,0,0,0c-0.5,0.3-1.8,0.1-3.3-0.1c-1-0.2-2-0.4-2.9-0.7c-0.3-0.1-0.6-0.2-0.9-0.3
			c-1.7-0.6-3.9-0.8-4.7-1c-0.2-0.1-0.3-0.1-0.3-0.2c0-0.3,0.7-1,1.1-1.7c0-0.1,0.1-0.2,0.2-0.4c0.3-0.8,0.8-2.2,1-3.1
			c0.1-0.5,0.2-0.9,0.1-0.8c-0.4,0.2-2.5,4.2-2.7,4.2c-0.1,0-0.5-0.2-1-0.6c-0.9-0.6-1.9-1.4-2-1.8c0-0.1,0-0.1,0-0.1
			c0.5-0.5,4.3-6.9,5.7-8.3c0.6-0.6,1.4-1,2-1.3c0.7-0.3,1.2-0.3,1.2-0.3c0.8,0,1.7,0.1,2.5,0.3c2.7,0.7,5.3,2.4,6.7,3.3
			c1.9,1.1,3.1,0.8,3.6,1.1C335.3,132.5,337,136.3,336.6,136.5z"/>
		<path id="XMLID_30_" class="st2" d="M329,142.3c-2.6,0-8.2-0.2-11.2-2.6c0.3-0.8,0.8-2.2,1-3.1c0,0,6,1.8,10,1.1
			C328.9,139.2,329.1,141,329,142.3z"/>
		<path id="XMLID_31_" class="st1" d="M324.6,127.8c-0.1,1.1-0.5,2.2-1.6,2.1c-1.6-0.1-2-1.5-2.1-2.1c0.7-0.3,1.2-0.3,1.2-0.3
			C322.9,127.5,323.8,127.6,324.6,127.8z"/>
		<path id="XMLID_32_" class="st9" d="M323.9,125.5c0,0-0.3-1.1-0.8-1.7c-0.4,0.7-2.2,1.1-3.5,1.2c-0.6,0-1.2,0-1.5,0
			c-0.9-3.7,2-5.3,3.6-5.4c1.6-0.1,3.1,1.1,2.7,3C325.8,124,323.9,125.5,323.9,125.5z"/>
		<linearGradient id="XMLID_100_" gradientUnits="userSpaceOnUse" x1="321.6264" y1="127.1556" x2="321.8475" y2="122.0967">
			<stop  offset="0" style="stop-color:#FFC5AE"/>
			<stop  offset="1" style="stop-color:#EA8B6A"/>
		</linearGradient>
		<path id="XMLID_33_" class="st10" d="M323.9,125.5c-0.1,0.2-0.2,0.7-0.4,1.1h0c-0.4,0.7-1,1.2-2,0.8c0,0-0.1,0-0.1,0
			c-0.9-0.4-1.4-1.2-1.6-1.8c-0.1-0.2-0.1-0.4-0.2-0.5c1.3-0.1,3.1-0.5,3.5-1.2c0,0,0,0.1,0.1,0.1
			C323.6,124.5,323.9,125.5,323.9,125.5z"/>
		<linearGradient id="XMLID_108_" gradientUnits="userSpaceOnUse" x1="322.6088" y1="129.3068" x2="322.4429" y2="125.7131">
			<stop  offset="0" style="stop-color:#FFC5AE"/>
			<stop  offset="1" style="stop-color:#EA8B6A"/>
		</linearGradient>
		<path id="XMLID_34_" class="st11" d="M323.7,128.3c-0.2,1-1.9,1-2,0.3c-0.1-0.3-0.2-0.7-0.3-0.9c-0.1-0.2-0.1-0.4-0.1-0.4v0
			c0,0,0.1,0,0.1,0c1.1,0.4,1.7-0.2,2-0.8h0c-0.1,0.2,0.2,0.5,0.3,1.1C323.8,127.9,323.8,128.1,323.7,128.3z"/>
		<path id="XMLID_35_" class="st12" d="M315,168.9c-0.2,1.3-6.7,6.2-6.6,5.4c0.1-0.9,3.5-8.5,3.5-8.5c0.2,0.2,0.4,0.4,0.4,0.4
			c0.3,0.1,0.8-0.7,0.9-1.1C314,166.2,315.1,167.7,315,168.9z"/>
		<path id="XMLID_36_" class="st12" d="M319.5,191.7c-1.5-3.3,0-10.4,0-10.4c0.5,0.7,2.4-0.1,2.4-0.4c0,0,0-0.3,0-0.7
			c0,0,0.2,3.4,0.5,6.2C322.8,189.4,321.1,195,319.5,191.7z"/>
		<path id="XMLID_37_" class="st1" d="M319,149.2c-0.9,0.4-7,0.3-7,0.3s1.1,15.4,1.1,15.5c0,0,0,0.1,0,0.1c-0.1,0.2-0.3,0.7-0.5,0.9
			c-1.1-5.3-3.4-15.3-1.6-17.1c2.3-2.2,8.5-2.8,8.6-2.3C319.6,147.1,319,149.2,319,149.2z"/>
		<linearGradient id="XMLID_110_" gradientUnits="userSpaceOnUse" x1="311.5167" y1="156.4342" x2="315.4975" y2="130.5593">
			<stop  offset="0" style="stop-color:#FFC5AE"/>
			<stop  offset="1" style="stop-color:#EA8B6A"/>
		</linearGradient>
		<path id="XMLID_38_" class="st13" d="M314.6,141.9c-0.1,0.2-0.1,0.3-0.1,0.4c0.1,0.5-0.6,7-0.3,7.6c0.3,0.7,0.4,2.8,0.3,4.1
			c-0.1,1.3-2.9,2.1-2.9,1c0-1.1,0.3-3.8,0.4-4.9c0.1-1-0.9-8.5-0.6-9.5c0.2-0.7,0.9-1.8,1.3-2.5c0.2-0.4,0.4-0.6,0.4-0.6
			c0,0.6,2.8,2.4,3,2.4C316.1,140,315,141.2,314.6,141.9z"/>
		<path id="XMLID_39_" class="st1" d="M328.4,147.2c-1.2-0.1-2.6-0.6-3.5-1.6c-1.1-1.1-3-2.1-4.6-2.9c0.4,0.1,0.8,0.2,1.2,0.3
			c2.1,0.7,6.2,1.6,7.1,1.1C328.8,144.8,328.9,145.6,328.4,147.2z"/>
		<path id="XMLID_40_" class="st1" d="M327.2,150.9c-0.9,2.3-2.2,5.4-4.2,9.8c0,2.2-0.8,16.4-0.9,19.6c0,0.4,0,0.6,0,0.7
			c0,0.1-0.5,0.4-1.1,0.6c0.1-4.8,0-15.2,0.8-18.2C322.6,159.6,326.9,151.4,327.2,150.9z"/>
		<path id="XMLID_41_" class="st1" d="M322.4,143.3c-0.3-0.1-0.6-0.2-0.9-0.3c-1.7-0.6-3.9-0.8-4.7-1c-0.2-0.1-0.3-0.1-0.3-0.2
			c0-0.3,0.7-1,1.1-1.7c0.4-0.7,1.6-4.5,1.2-4.3c-0.4,0.2-2.5,4.2-2.7,4.2c-0.1,0-0.5-0.2-1-0.6c0.1-0.1,0.1-0.2,0.2-0.3
			c1.3-2,3.5-4.4,3.9-6.5c0.3-1.5,0.7-0.7,0.7,1.3C319.7,135.7,319.6,141.2,322.4,143.3z"/>
		<path id="XMLID_42_" class="st1" d="M328.6,144.1C328.6,144.1,328.6,144.1,328.6,144.1c-0.5,0.3-1.9,0.1-3.4-0.1
			c2.7-2.7,1.2-10,1.6-9.6c0.5,0.4,1.7,1,1.7,1C328.7,137.4,329.5,143.6,328.6,144.1z"/>
		<path id="XMLID_43_" class="st1" d="M316.1,140c0,0-1.1,1.2-1.5,2c0-0.2,0-0.3,0-0.5c-0.1-0.8-1.3-2.5-1.9-3.3
			c0.2-0.4,0.4-0.6,0.4-0.6C313.1,138.2,315.9,140,316.1,140z"/>
		<path id="XMLID_44_" class="st1" d="M323.1,123.9c-0.7,1.5-2.6,1.6-3.4,1.6c-0.1-0.2-0.1-0.4-0.2-0.5
			C320.9,124.9,322.6,124.5,323.1,123.9C323.1,123.8,323.1,123.9,323.1,123.9z"/>
		<path id="XMLID_45_" class="st1" d="M323.7,127.7c-0.1,0.1-0.3,0.2-0.5,0.2c-0.9,0.2-1.5,0-1.9-0.1c-0.1-0.2-0.1-0.4-0.1-0.4v0
			c0,0,0.1,0,0.1,0c1.1,0.4,1.7-0.2,2-0.8h0C323.3,126.8,323.6,127.1,323.7,127.7z"/>
		<line id="XMLID_155_" class="st14" x1="332.6" y1="13.2" x2="332.6" y2="150.9"/>
		<linearGradient id="XMLID_111_" gradientUnits="userSpaceOnUse" x1="333.7883" y1="125.2251" x2="336.8844" y2="141.5535">
			<stop  offset="0" style="stop-color:#FFC5AE"/>
			<stop  offset="1" style="stop-color:#EA8B6A"/>
		</linearGradient>
		<path id="XMLID_46_" class="st15" d="M338.4,134.5c0,0,0,0.1,0,0.1c-0.4,1.7-1.7,1.8-2,1.7c-0.3-0.1-0.9-0.9-1.5-3.6
			c0-0.1,0-0.1,0-0.2c0,0-1.3-3.2-1.8-4.8c-1.5-0.9-1.7-0.5-1.9-1.5c-0.2-1,0.4-2.3,0.8-2.5c0.4-0.2,2,1.4,2.2,1.9
			C334.4,126.4,338.7,132.7,338.4,134.5z"/>
		<path id="XMLID_47_" class="st1" d="M338.3,134.6c-0.4,1.7-1.7,1.8-2,1.7c-0.3-0.1-0.9-0.9-1.5-3.6c0.4,0.7,0.9,1.7,1.6,2.1
			C337.1,135.3,337.9,135.2,338.3,134.6z"/>
	</g>
	<g id="XMLID_48_">
		<path id="XMLID_49_" class="st9" d="M289.5,221.7l-3.6-18.2c-2.6-13.4-7.7-23.2-15.2-29.4c-7.5-6.2-16.8-8.2-27.9-6
			c-11.1,2.2-18.9,7.5-23.5,16c-4.6,8.5-5.6,19.5-3,33l3.6,18.2c2.6,13.4,7.7,23.2,15.2,29.3c3.2,2.6,6.7,4.5,10.5,5.6
			c5.2,1.5,11,1.7,17.4,0.4c3.3-0.6,6.4-1.6,9.1-2.8c6.3-2.8,11.1-7.2,14.4-13.2C291.1,246.2,292.1,235.2,289.5,221.7z M267.3,246.1
			c-1.2,3.7-3.8,6-7.7,6.7c-4.1,0.8-7.4-0.3-9.9-3.4c-1.7-2.1-3.2-5.2-4.5-9.4c0,0,0,0,0,0c0,0,0,0,0,0c-0.6-1.9-1.1-4.1-1.5-6.4
			l-5-25.5c-1.2-6.7-1.2-11.9,0-15.5c1.2-3.6,3.7-5.9,7.7-6.6c3-0.6,5.6-0.1,7.8,1.5h0c0.7,0.6,1.4,1.2,2.1,2
			c2.6,3.2,4.6,8.3,6,15.5l4.8,24.7C268.5,236.9,268.5,242.4,267.3,246.1z"/>
		<path id="XMLID_53_" class="st1" d="M269.1,249.5c1,1.6,2.4,12.3,3.1,18.3c-2.7,1.2-5.8,2.2-9.1,2.8c-6.4,1.3-12.2,1.1-17.4-0.4
			c0.2-0.5,0.4-1,0.6-1.5c3.3-9.9-0.8-27.9-1-28.7c1.2,4.1,2.7,7.3,4.5,9.4c2.6,3.1,5.9,4.2,9.9,3.4c3.9-0.8,6.5-3,7.7-6.7
			c1.2-3.7,1.1-9.2-0.2-16.4l-4.8-24.7c-1.4-7.2-3.4-12.3-6-15.5c-0.7-0.8-1.4-1.5-2.1-2c7.8,1.5,14.2,25.8,16.9,37.5
			C273.7,236.8,274,242.2,269.1,249.5z"/>
		<path id="XMLID_54_" class="st4" d="M246.9,244.8c0,0,0.5,1.3,3.2,2.1c2.7,0.7,5.2-3.4,6.9-2.1c1.8,1.3,4.6,6.8,7.1,6
			c2.5-0.8,3.2,12.4,2,13.9c-1.2,1.5-2-10.4-5.1-10.1c-3.1,0.4-0.8,9.3-2.5,11c-1.8,1.6-1-4-2.9-5c-1.9-1,2.1,45.1-0.9,45.9
			c-2.9,0.7-4.9-2.1-3.7-11.9c1.2-9.9-0.3-43.9-2.1-45.7C247.2,247,247.3,246.7,246.9,244.8z"/>
	</g>
	<g id="XMLID_55_">
		<line id="XMLID_144_" class="st14" x1="246.2" y1="13.2" x2="246.2" y2="174.2"/>
		<g id="XMLID_56_">
			<path id="XMLID_57_" class="st12" d="M284.5,111.9c0,0-2.3-6.4-2.2-6.9c0.2-0.5,2.8-1.4,3-1.2c0.2,0.3,1.8,5.3,1.5,5.6
				C286.6,109.8,284.5,111.9,284.5,111.9z"/>
			<linearGradient id="XMLID_112_" gradientUnits="userSpaceOnUse" x1="245.9741" y1="101.1381" x2="247.9098" y2="105.2514">
				<stop  offset="0" style="stop-color:#FFC5AE"/>
				<stop  offset="1" style="stop-color:#EA8B6A"/>
			</linearGradient>
			<path id="XMLID_58_" class="st16" d="M245.4,103.5c0,0,1.4,0.6,2.1,2.1c0.6,1.5,0.4-4,0.4-4l-0.7-0.6L245.4,103.5z"/>
			<linearGradient id="XMLID_113_" gradientUnits="userSpaceOnUse" x1="243.0391" y1="101.0365" x2="247.8492" y2="103.0545">
				<stop  offset="0" style="stop-color:#FFC5AE"/>
				<stop  offset="1" style="stop-color:#EA8B6A"/>
			</linearGradient>
			<path id="XMLID_59_" class="st17" d="M244.7,103.5c0,0,1.8,1.3,2.1,1.4s0.9-3.4,0.6-4c-0.3-0.6-1.2-1.1-1.9-0.7
				C244.9,100.5,244.4,103.3,244.7,103.5z"/>
			<linearGradient id="XMLID_114_" gradientUnits="userSpaceOnUse" x1="245.8001" y1="99.4884" x2="248.8962" y2="106.0677">
				<stop  offset="0" style="stop-color:#FFC5AE"/>
				<stop  offset="1" style="stop-color:#EA8B6A"/>
			</linearGradient>
			<path id="XMLID_60_" class="st18" d="M249.4,103.9c0,0-1.4-3.3-2.1-3.9c-0.6-0.6-1.8,0.2-1.9,0.5c-0.1,0.3,1.4,0.5,1.9,1
				c0.5,0.5-0.8,4.2,0.4,5.5C249.1,108.3,249.4,103.9,249.4,103.9z"/>
			<linearGradient id="XMLID_115_" gradientUnits="userSpaceOnUse" x1="289.8872" y1="105.9993" x2="281.0964" y2="116.4487">
				<stop  offset="0" style="stop-color:#FFC5AE"/>
				<stop  offset="1" style="stop-color:#EA8B6A"/>
			</linearGradient>
			<path id="XMLID_61_" class="st19" d="M282.7,112.7c0,0,1.3-0.7,1.5-1.1c0.3-0.4-0.2-1.7,0.6-3c0.8-1.2,2.5-0.9,2.9,0.6
				c0.4,1.5-0.7,3.4-1.2,4c-0.5,0.6-3.9,3-3.9,3"/>
			<path id="XMLID_62_" class="st9" d="M283.6,115.6c0,0.2-0.3,0.6-0.7,1.1c-1.6,1.9-6.1,5.6-14.1,9.8c-0.2,0.6-0.3,1.3-0.4,2
				c-0.3,2.1-0.3,4.2-0.2,6.1c0,0.5,0.1,1,0.1,1.4c0.1,2,0.3,3.7,0.3,4.6c0,0.4-0.1,0.7-0.2,0.8c-0.2,0.2-0.4,0.3-0.6,0.4
				c-4,2.6-11.3-1.3-12.5-2.4c-0.1-0.1-0.1-0.2-0.2-0.2c-0.2-0.8,0.6-1.6,1-2.9c0.1-0.2,0.1-0.7,0.2-1.4c0.2-2,0.4-5.7,0.5-8.5
				c0-1.8,0-3.1-0.1-3.5c0,0,0,0,0,0c-0.2-0.9-6.9-11-8.9-14.6c-0.4-0.7-0.6-1.1-0.6-1.2c0.1-0.8,1.6-3.7,2-3.6
				c0.1,0,0.3,0.3,0.6,0.7c1.6,2.2,5.7,8.7,6.5,9.5c0.7,0.8,4.4,4.6,6,6.3c0.4,0.5,0.7,0.8,0.7,0.8c0.9,0,1.7-0.1,2.6-0.2
				c7.5-1.2,15-6.4,16.9-7.9c0.3-0.2,0.5-0.4,0.5-0.4S283.8,114.5,283.6,115.6z"/>
			<path id="XMLID_63_" class="st2" d="M264.8,124c-2.6,0.4-2.6-2.9-2.4-4.1c0.4,0.5,0.7,0.8,0.7,0.8c0.9,0,1.7-0.1,2.6-0.2
				C266,121.8,265.7,123.9,264.8,124z"/>
			<path id="XMLID_64_" class="st4" d="M267.4,116.8c-0.5,0.3-1.2,0.4-2,0.2c-0.6-0.2-1.4-0.5-2.3-1.1c0,0-0.7,0.8-0.7,2.3
				c-1.8-1.6-2.3-3.2-0.7-3.7c-0.6-2.8,0.7-3.3,3-3.5c2.3-0.1,2.8,2.2,4.1,2.1C268.9,114.4,268.6,116.1,267.4,116.8z"/>
			<linearGradient id="XMLID_116_" gradientUnits="userSpaceOnUse" x1="265.3008" y1="121.9268" x2="264.3609" y2="110.9798">
				<stop  offset="0" style="stop-color:#FFC5AE"/>
				<stop  offset="1" style="stop-color:#EA8B6A"/>
			</linearGradient>
			<path id="XMLID_65_" class="st20" d="M267.4,116.8c0,0.2-0.1,0.5-0.1,0.8c-0.3,1.6-1.1,3.9-2.3,3.7c-0.1,0-0.1,0-0.2,0
				c-1.1-0.3-1.7-1.4-2.1-2.2c-0.2-0.5-0.3-0.9-0.3-0.9c0-0.5,0.1-0.9,0.2-1.2c0.2-0.7,0.5-1.1,0.5-1.1c0.9,0.6,1.6,0.9,2.3,1.1
				C266.3,117.2,266.9,117.1,267.4,116.8z"/>
			<linearGradient id="XMLID_117_" gradientUnits="userSpaceOnUse" x1="263.693" y1="122.0124" x2="264.1353" y2="119.1927">
				<stop  offset="0" style="stop-color:#FFC5AE"/>
				<stop  offset="1" style="stop-color:#EA8B6A"/>
			</linearGradient>
			<path id="XMLID_66_" class="st21" d="M265,122.3c0,0.6-0.1,1-0.5,1.1c-0.8,0.1-1.8-1-1.8-2.1c0-0.4,0-0.8,0-1.2c0-0.4,0-0.7,0-1
				c0.3,0.8,1,1.8,2.1,2.2c0.1,0,0.1,0,0.2,0C265,121.7,265,122,265,122.3z"/>
			<path id="XMLID_67_" class="st2" d="M283.6,115.6c0,0.2-0.3,0.6-0.7,1.1c0-1.3-0.3-3.3-0.4-4.1c0.3-0.2,0.5-0.4,0.5-0.4
				S283.8,114.5,283.6,115.6z"/>
			<path id="XMLID_68_" class="st2" d="M249.9,104.1c-1.2,1-1.8,3.2-2,4.2c-0.4-0.7-0.6-1.1-0.6-1.2c0.1-0.8,1.6-3.7,2-3.6
				C249.4,103.4,249.6,103.7,249.9,104.1z"/>
			<path id="XMLID_69_" class="st2" d="M268.4,136c-2.6,0.4-7.6,0.7-11.9-1.1c0.2-2,0.4-5.7,0.5-8.5c2.1,0.9,6.7,2.5,11.5,2
				C268.1,131.1,268.2,133.7,268.4,136z"/>
			<path id="XMLID_70_" class="st1" d="M267.9,141.9c-4.3,2.8-12.4-1.9-12.6-2.6c-0.2-0.8,0.6-1.6,1-2.9c0.1-0.2,0.1-0.7,0.2-1.4
				c0.2-2,0.4-5.7,0.5-8.5c0-1.8,0-3.1-0.1-3.5c0.1,0.3,1.6,4.9,2.3,9.4c0.8,4.6,0.6,6.9,2.9,8.3C263.4,141.6,265.8,142,267.9,141.9
				z"/>
			<path id="XMLID_71_" class="st0" d="M277.7,154.6c0,1.9-6.9,12.5-8.4,14.7c-0.2,0.3-0.3,0.4-0.3,0.4s-0.9-0.1-1.6-0.4
				c-0.5-0.2-0.9-0.4-0.9-0.8c0-0.1,0-0.2,0-0.3c0.2-1.5,1.8-6.8,3.7-13.9c-1-1.3-8.3-6-8.3-6s0,0,0,0c-0.3,0.7-10.3,23.9-11.5,26.1
				c0,0.1-0.1,0.1-0.1,0.1c-0.5,0.7-2.7,0.7-2.8-0.7c0,0,0,0,0,0c-0.6-5.9,4.4-23.5,6.8-31.4c0.4-1.4,0.8-2.5,1-3.1
				c1.2,1.2,8.5,5,12.5,2.4c0.2-0.1,0.4-0.3,0.6-0.4c0.1-0.1,0.2-0.4,0.2-0.8c0.1,0.1,0.2,0.2,0.2,0.3
				C271.7,144.1,277.7,152.8,277.7,154.6z"/>
			<path id="XMLID_72_" class="st12" d="M251.2,177.7c-0.3,1.4-7.6,5.5-6.9,3c0.5-2,2.6-5.5,3.3-6.8c0,0,0,0,0,0
				c0.1,1.4,2.3,1.3,2.8,0.7c0,0,0-0.1,0.1-0.1C250.9,175.5,251.4,176.8,251.2,177.7z"/>
			<path id="XMLID_73_" class="st12" d="M271.7,176.5c-0.6,0.3-7.7-2.5-7.6-3.4c0.2-0.9,2.4-4.7,2.4-4.7c0,0.1,0,0.2,0,0.3
				c0,0.8,2.6,1.1,2.6,1.1s0.1-0.1,0.3-0.4C269.7,172.2,272.3,176.2,271.7,176.5z"/>
			<path id="XMLID_74_" class="st22" d="M261.1,147.6c0,0-8,15.6-10.9,26.4"/>
			<path id="XMLID_75_" class="st22" d="M263,147.6c0,0,8.8,5.8,9.2,6.7c0.3,0.9-4.6,14-4.6,14"/>
			<path id="XMLID_76_" class="st1" d="M268.9,140.9c-1,3.9-6.6,2.8-9.5,2.1c-1.7-0.4-3.6-0.4-5-0.4c0.4-1.4,0.8-2.5,1-3.1
				c1.2,1.2,8.5,5,12.5,2.4c0.2-0.1,0.4-0.3,0.6-0.4c0.1-0.1,0.2-0.4,0.2-0.8C268.7,140.7,268.8,140.8,268.9,140.9z"/>
			<path id="XMLID_77_" class="st1" d="M267.5,169.4c-0.5-0.2-0.9-0.4-0.9-0.8c0-0.1,0-0.2,0-0.3c0.2-1.5,1.8-6.8,3.7-13.9
				c-1-1.3-8.3-6-8.3-6s0.6-2,1.3-2.1c0.7-0.1,8.3,6.4,9.2,7.8C273.2,155.3,268,165.1,267.5,169.4z"/>
			<path id="XMLID_78_" class="st1" d="M267.4,116.8c0,0.2-0.1,0.5-0.1,0.8c-1.9,1-3.8-1.2-4.1-1.2c-0.1,0-0.4,0.4-0.6,0.6
				c0.2-0.7,0.5-1.1,0.5-1.1c0.9,0.6,1.6,0.9,2.3,1.1C266.3,117.2,266.9,117.1,267.4,116.8z"/>
			<path id="XMLID_79_" class="st1" d="M265,122.3c-1.3-0.3-2-1.6-2.2-2.2c0-0.4,0-0.7,0-1c0.3,0.8,1,1.8,2.1,2.2c0.1,0,0.1,0,0.2,0
				C265,121.7,265,122,265,122.3z"/>
			<path id="XMLID_80_" class="st1" d="M268.5,128.4c-0.3,2.1-0.3,4.2-0.2,6.1c-0.5-2.1-0.9-4.4-0.4-5.7c0.9-2.3,1-2.4,1-2.4
				C268.7,127.1,268.6,127.8,268.5,128.4z"/>
		</g>
	</g>
	<g id="XMLID_81_">
		<g id="XMLID_82_">
			<path id="XMLID_83_" class="st4" d="M206.4,149.6l-23.9-4.1l0,0.2L129.8,205l-1.1,14.8l7.6,1.3l13.1,2.2l17.6,3l1.7,0.3l-1.3,7.3
				l-0.6,3.4l-1.9,11.2l15.5,2.7l8.3,1.4l3.8-21.9l10.5,1.8l3.2-18.4l-10.5-1.8L206.4,149.6z M176.6,180l-4.9,28.3l-5.8-1l-12.7-2.2
				l7.1-8.4l1.6-1.9l13.4-16l1.9-2.2L176.6,180z"/>
			<path id="XMLID_87_" class="st1" d="M166.9,226.4l-17.6-3c2.1-6.8,4.7-16.3,3.8-18.3l12.7,2.2c0.8,1.4,1.5,3.2,1.6,5.8
				C167.9,217.6,167.2,222.3,166.9,226.4z"/>
			<path id="XMLID_88_" class="st0" d="M153.9,205.3c0,0,1.9-2.7,6.2-1.8c4.3,0.8,4.6,6.1,2.8,12c-1.9,5.9-2.3,26.3-1.4,33
				c0.9,6.6,0.3,9.7-1.8,10c-2.1,0.2-3.1-8-1.9-13.7c1.2-5.7,1.1-11.1-0.9-10.2c-2,0.9-0.3,3.1-1.3,5.1c-1,2-4,0.8-3.9-3
				C151.9,232.8,157.9,208.4,153.9,205.3z"/>
			<polygon id="XMLID_89_" class="st1" points="195.6,212.4 206.1,214.2 202.9,232.6 192.5,230.8 188.7,252.7 180.4,251.3 
				195,159.9 206.4,149.6 			"/>
		</g>
		<line id="XMLID_109_" class="st14" x1="188.5" y1="13.2" x2="188.5" y2="155.6"/>
	</g>
	<g id="XMLID_90_">
		<circle id="XMLID_107_" class="st9" cx="228.6" cy="122.9" r="4.3"/>
		<circle id="XMLID_106_" class="st4" cx="378.7" cy="177.7" r="4.3"/>
		<circle id="XMLID_105_" class="st0" cx="153.2" cy="146.2" r="4.3"/>
		<circle id="XMLID_104_" class="st9" cx="224.3" cy="278.1" r="4.3"/>
		<circle id="XMLID_103_" class="st2" cx="354" cy="135.9" r="1.7"/>
		<circle id="XMLID_102_" class="st0" cx="227" cy="161.8" r="1.7"/>
		<circle id="XMLID_101_" class="st23" cx="177.2" cy="139.3" r="1.7"/>
	</g>
	<g id="XMLID_91_">
		<linearGradient id="XMLID_118_" gradientUnits="userSpaceOnUse" x1="426.3553" y1="61.5022" x2="277.2982" y2="96.0022">
			<stop  offset="0" style="stop-color:#FFFFFF;stop-opacity:0"/>
			<stop  offset="1" style="stop-color:#98C4F9"/>
		</linearGradient>
		<path id="XMLID_92_" class="st24" d="M402.2,48.1c0,0-6.6-6.6-19.2-4c-12.6,2.7-21.5,22.6-30.6,27s-27.3,17.5-28.6,28.6
			c17.7-14.7,24.3-8.3,35.8-10.1c11.5-1.8,12.4-15.3,29-14.8c16.6,0.4,34.3,21.1,50.9,9.5c16.6-11.5,36-25.2,20.3-36.5
			C444,36.6,412.2,53.9,402.2,48.1z"/>
		
			<linearGradient id="XMLID_119_" gradientUnits="userSpaceOnUse" x1="-574.3092" y1="149.8808" x2="-723.3716" y2="184.382" gradientTransform="matrix(-0.5639 -0.8258 0.8258 -0.5639 -317.0974 -324.2478)">
			<stop  offset="0" style="stop-color:#FFFFFF;stop-opacity:0"/>
			<stop  offset="1" style="stop-color:#98C4F9"/>
		</linearGradient>
		<path id="XMLID_98_" class="st25" d="M133.1,93c0,0-1.7,9.2,7.6,18.1c9.3,8.9,30.7,5,39.6,10.1c8.8,5.1,29.8,12.7,39.8,7.5
			c-22.1-6.3-20.6-15.4-28.5-23.9c-7.9-8.5-19.6-1.6-28.6-15.6c-9-13.9-1.9-40.2-20.8-47.4c-18.9-7.2-41.2-15.5-41.6,3.8
			C100,64.9,132.2,81.5,133.1,93z"/>
		<linearGradient id="XMLID_120_" gradientUnits="userSpaceOnUse" x1="441.8599" y1="212.4528" x2="227.8992" y2="261.975">
			<stop  offset="0" style="stop-color:#FFFFFF;stop-opacity:0"/>
			<stop  offset="1" style="stop-color:#98C4F9"/>
		</linearGradient>
		<path id="XMLID_93_" class="st26" d="M454.2,145.9c0,0-27,29.6-32.7,64.3c-5.8,34.7-33.4,32.5-42.8,48.9
			c-9.4,16.4-31.8,17.7-42,24.3c-10.3,6.6-33.6-4.9-37.6,0c-4,4.9,21,12.4,53.4,12.8c32.4,0.4,38.6-24.8,67.3-28.3
			c28.7-3.5,57.5-15.9,67.7-62.8S480.3,133.1,454.2,145.9z"/>
		
			<linearGradient id="XMLID_121_" gradientUnits="userSpaceOnUse" x1="-579.6567" y1="224.3729" x2="-793.6174" y2="273.8951" gradientTransform="matrix(-1 0 0 1 -502.5165 0)">
			<stop  offset="0" style="stop-color:#FFFFFF;stop-opacity:0"/>
			<stop  offset="1" style="stop-color:#98C4F9"/>
		</linearGradient>
		<path id="XMLID_96_" class="st27" d="M64.8,157.8c0,0,27,29.6,32.7,64.3c5.7,34.7,33.4,32.5,42.8,48.9s31.8,17.7,42,24.3
			c10.3,6.6,33.6-4.9,37.6,0c4,4.9-21,12.4-53.4,12.8c-32.4,0.4-38.6-24.8-67.3-28.3c-28.7-3.5-57.5-15.9-67.7-62.8
			C21.5,170.1,38.7,145,64.8,157.8z"/>
	</g>
</g>
</svg>
