<?xml version="1.0" encoding="utf-8"?>
<!-- Generator: Adobe Illustrator 19.0.0, SVG Export Plug-In . SVG Version: 6.00 Build 0)  -->
<svg version="1.1" id="OBJECTS" xmlns="http://www.w3.org/2000/svg" xmlns:xlink="http://www.w3.org/1999/xlink" x="0px" y="0px"
	 viewBox="0 0 519 321.3" style="enable-background:new 0 0 519 321.3;" xml:space="preserve">
<style type="text/css">
	.st0{fill:#002E4F;}
	.st1{fill:#00A4E2;}
	.st2{fill:#E1F3F6;}
	.st3{fill:#008DC4;}
	.st4{fill:#00AFE2;}
	.st5{fill:#006091;}
	.st6{fill:#0076AD;}
	.st7{fill:#00D2FD;}
	.st8{fill:#00396A;}
	.st9{fill:none;stroke:#20C6F0;stroke-width:7.6539;stroke-linecap:round;stroke-miterlimit:10;}
	.st10{fill:#0086CF;}
	.st11{fill:#0089E0;}
	.st12{fill:#CDE5E8;}
	.st13{fill:#F8FDFF;}
	.st14{fill:none;stroke:#22FF90;stroke-width:0.8679;stroke-miterlimit:10;}
	.st15{fill:none;stroke:#22FF90;stroke-width:0.755;stroke-miterlimit:10;}
	.st16{fill:#009EE7;}
</style>
<g>
	<g>
		<path class="st0" d="M385.8,273.3c-3.3,4.3-7.2,7.5-6.4,9c0,0,1.8,1.3,6.6,1.3c8.4,0,16.6-0.6,15.2-1.5c-1.9-1.2-7.3-1.6-12.5-3.4
			c-1.3-0.4,2.8-2.9,1.7-3.3C388.3,274.5,386.5,273.8,385.8,273.3z"/>
		<path class="st0" d="M472,282c0,0,1.1,1.5,5.3,1.5c7.2,0,14.8-1,13.6-1.7c-1.6-1-14.3-3.7-14.3-3.7l-2.8-3.5l-4.8,2.7L472,282z"/>
		<g>
			<path class="st1" d="M449.1,175.5c-5.2,0-9.1-1-9.4-1.1c-2.7-0.7-4.3-3.5-3.6-6.2c0.7-2.7,3.5-4.3,6.2-3.6c0.2,0,11.6,3,18.3-2.7
				c4.5-3.8,6.2-11,5-21.4l-0.4-3.3l10.3-5.8c2.4-1.4,5.5-0.5,6.9,1.9c1.4,2.4,0.5,5.5-1.9,6.9l-4.5,2.6c0.7,12.2-2.3,21.3-8.9,26.9
				C461.5,174.3,454.6,175.5,449.1,175.5z"/>
		</g>
		<g>
			<path class="st2" d="M466.6,147.3c-0.2,7.4-2.2,12.7-5.9,15.9c-7.3,6.3-19.8,3.1-20,3c-3-0.8-6,1-6.8,3.9c-0.8,3,0.9,6,3.9,6.8
				c0.4,0.1,4.7,2.2,10.4,2c21.6-0.8,34.6-19.4,34.9-30.3L466.6,147.3z"/>
		</g>
		<g>
			<path class="st3" d="M436.9,121.5c-1.9-0.9-3.8-1.8-5.7-2.8c-17.9,10.2-40.8,23.2-41.2,23.7c0,0,11.4,18.1,12.1,18.8
				c0.5,0.5,28.6-19.7,48.9-34.4C446.4,125,441.5,123.6,436.9,121.5z"/>
			<path class="st4" d="M437.2,121c4.7,2.1,9.6,3.6,14.4,5.4c11.2-8.1,19.8-14.3,19.8-14.3l-19.1-5.4c0,0-9.2,5.2-20.5,11.6
				C433.6,119.3,435.4,120.2,437.2,121z"/>
			<polygon class="st5" points="404.4,97.2 415.6,127.6 437.5,135.7 409.7,84.9 			"/>
			<polygon class="st5" points="438.7,143.2 422.5,143.2 436.9,168.4 459,177.7 			"/>
			<path class="st6" d="M459,177.7l-12.9-22.1l-55.4,32.5l-10.9-18.6l6.8-110.5l24.9-14.6l44.8,76.4l15.1-8.8l12.5,21.4l-15.1,8.8
				l12.9,22.1L459,177.7z M408.8,92l-1.4,0.8l-3.8,59l30-17.6L408.8,92z"/>
			<polygon class="st3" points="361.4,164.5 379.8,169.6 390.7,188.1 371.2,183.2 			"/>
			<polygon class="st4" points="361.4,164.5 379.8,169.6 386.6,59.1 369.7,55 			"/>
			<polygon class="st7" points="369.7,55 386.6,59.1 411.5,44.5 394.4,39.5 			"/>
		</g>
		<path class="st0" d="M406.8,208.5c0,0,2.7,29.2,2.7,39.4c0,0-21.3,16.6-26.5,25.2c2.2,1.7,6.7,4,9.5,3.9
			c14.2-13.5,29.8-23.2,29.8-23.2s6.7-19.5,8.8-36L406.8,208.5z"/>
		<path class="st2" d="M421.9,209.9c4.8,0,9.7-0.8,13.8-3c-1.4-5.8,1.6-23,5.3-32.2c0,0,2.9-6.4,0.9-8.4c-7.6-7.3-14-6.7-16-6.8
			c-6.9,5.9-19.9,23.1-19.3,46C410.1,209.3,417.3,209.9,421.9,209.9z"/>
		<path class="st8" d="M468.8,278.1c2.8-0.8,5.4-2,7.1-4.3c-8.2-13.3-38.3-62.2-39.9-66c0-0.1-0.1-0.2-0.1-0.3
			c-4.4,2.4-9.7,3.2-14.8,3c-4.5-0.2-10.9-0.8-14.5-4.1c0,0.2,0,0.5,0,0.7c0.6,12.8,43,55.3,59.6,71.6
			C467.1,278.5,468,278.3,468.8,278.1z"/>
		<g>
			<path class="st1" d="M381.4,196.7c-1.2,0-2.3-0.2-3.4-0.5c-2.2-0.7-5.2-2.6-6.6-7.4c-0.8-2.7,0.7-5.5,3.4-6.3
				c2.7-0.8,5.5,0.7,6.3,3.4c0.1,0.3,0.2,0.5,0.2,0.6c0.5,0,2.6-0.2,7.4-3c4.4-2.6,9.5-6.4,14.5-10.1c8.4-6.3,16.4-12.2,23-14.2
				c2.7-0.8,5.5,0.6,6.4,3.3c0.8,2.7-0.6,5.5-3.3,6.4c-5,1.6-12.6,7.2-20,12.7C398.6,189.6,389,196.7,381.4,196.7z"/>
		</g>
		<g>
			<path class="st1" d="M390.9,192.9c-0.6-3-1.3-6.3-3.2-8.7c-4.1,2.3-5.8,2.4-6.3,2.4c-0.1-0.1-0.1-0.3-0.2-0.6
				c-0.8-2.7-3.6-4.2-6.3-3.4c-2.7,0.8-4.2,3.6-3.4,6.3c1.4,4.7,4.4,6.6,6.6,7.4c1.1,0.4,2.2,0.5,3.4,0.5c2.9,0,6.2-1.1,9.7-2.8
				C391,193.5,391,193.2,390.9,192.9z"/>
			<path class="st2" d="M432.8,162.5c-0.8-2.7-3.7-4.2-6.4-3.3c-6.6,2.1-14.6,8-23,14.2c-5,3.7-10.2,7.5-14.5,10.1
				c-0.2,0.1-0.4,0.2-0.6,0.3c1.9,2.5,5.2,14.9,5.2,15.2c5.4-2.8,31.2-22.5,36.8-28.4C432.2,168.5,433.6,165.1,432.8,162.5z"/>
		</g>
		<path class="st9" d="M367.9,183.2"/>
		<g>
			<path class="st1" d="M374.2,192.6c-0.3,0-0.6-0.1-0.9-0.3c-4-2.8-6.1-8.3-6.1-8.6c-0.3-0.8,0.1-1.6,0.9-1.9
				c0.8-0.3,1.6,0.1,1.9,0.9l0,0c0,0,1.9,4.9,5.1,7.2c0.7,0.5,0.8,1.4,0.3,2.1C375.2,192.3,374.7,192.6,374.2,192.6z"/>
		</g>
		<g>
			<path class="st1" d="M374.2,188.9c-0.5,0-0.9-0.2-1.2-0.6c-1.9-2.7-3.4-9.1-3.6-9.8c-0.2-0.8,0.3-1.6,1.1-1.8
				c0.8-0.2,1.6,0.3,1.8,1.1c0.4,1.8,1.8,6.9,3.1,8.8c0.5,0.7,0.3,1.6-0.4,2.1C374.8,188.8,374.5,188.9,374.2,188.9z"/>
		</g>
		<g>
			<path class="st1" d="M376.3,188.1c-0.6,0-1.1-0.3-1.4-0.9c-1.4-3.4-1.9-10.4-1.9-10.7c-0.1-0.8,0.6-1.5,1.4-1.6
				c0.8-0.1,1.5,0.6,1.6,1.4c0.1,1.9,0.7,7.4,1.7,9.8c0.3,0.8-0.1,1.6-0.8,1.9C376.7,188,376.5,188.1,376.3,188.1z"/>
		</g>
		<g>
			<path class="st1" d="M378.5,187.4c-0.7,0-1.3-0.4-1.4-1.1c-0.9-3.6-0.1-7.4,0-7.5c0.2-0.8,1-1.3,1.8-1.1c0.8,0.2,1.3,1,1.1,1.8
				c0,0.1-0.7,3.2,0,6.1c0.2,0.8-0.3,1.6-1.1,1.8C378.8,187.4,378.7,187.4,378.5,187.4z"/>
		</g>
		<g>
			<path class="st1" d="M438.5,170.6c-0.7,0-1.4-0.1-2-0.5c-2.4-1.1-3.4-4-2.3-6.4c1.2-2.5,3.3-5,3.5-5.3c1.7-2,4.7-2.3,6.7-0.6
				c2,1.7,2.3,4.7,0.6,6.7l0,0c-0.6,0.7-1.7,2.2-2.2,3.3C442.1,169.6,440.3,170.6,438.5,170.6z"/>
		</g>
		<g>
			<path class="st10" d="M439.2,168.1c0.6,0.6,1.2,1.2,1.8,1.8c0.8-0.5,1.4-1.2,1.9-2c0.5-1,1.6-2.5,2.2-3.3c1.7-2,1.4-5-0.6-6.7
				c-2-1.7-5-1.4-6.7,0.6c-0.1,0.1-0.5,0.6-1,1.3C436.8,162.7,437.1,165.8,439.2,168.1z"/>
		</g>
		<g>
			<path class="st1" d="M454.9,162.9c-1.9,4.6-7.2,6.8-11.8,4.9l0,0c-4.6-1.9-6.8-7.2-4.9-11.8l2.4-5.8c1.9-4.6,7.2-6.8,11.8-4.9
				l0,0c4.6,1.9,6.8,7.2,4.9,11.8L454.9,162.9z"/>
		</g>
		<path class="st8" d="M439.2,155.3c-0.7,3.1-5.2,2.1-6.9,0.5c-2.3-2.2-3.7-8.5,1.4-8.2c-3.7-5.6,8.8-11.6,10.1-5.2
			c1-1.7,2-3.1,4.1-3.3c1.6-0.1,4.3,1.1,4.1,3c2.3-1.8,5.7-1.7,8,0.2c0.7,0.6,2.1,1.9,1.4,2.9c-0.4,0.5-2.2,0.7-2.9,0.9
			c1.1-0.5,5.5,0.5,4.7,2.3c-0.4,0.9-2.6,0.1-3.2-0.1c0,0,0,0.2,0,0.2c2.4,1.3,3.4,2.6,3.1,5.6c-0.1,1.4-0.8,3.9-2.4,4.1
			c-0.8,0.1-1.8-0.4-1.8-1.3c2,2-0.8,7.3-3.3,4.7c-1-1-0.5-2.7,0.4-3.6c-1.5-0.9-4.7-5.4-2.4-6.6c-1.1,0-6-1.7-4.4-3.1
			c0.4,1.7-1.6,3.8-3.3,2.9c1,2.2-2,3.8-3.8,3.9c1.1,1.4-2.3,3.1-3.4,1L439.2,155.3z"/>
	</g>
	<g>
		<path class="st11" d="M269.6,137.3c0,0-2.9-11.1,11.5-13.7l-1.1,13.3L269.6,137.3z"/>
		<g>
			<path class="st12" d="M212,165.3c-3.1,0-6.1-0.6-8.8-1.9c-13.1-6.2-14.5-24.7-14.6-25.5c-0.2-2.8,1.9-5.2,4.7-5.4
				c2.8-0.2,5.2,1.9,5.4,4.7c0.3,3.7,2.4,14.1,8.8,17.1c5.3,2.5,13.5,0,23.7-7.3c2.3-1.6,5.5-1.1,7.1,1.2c1.6,2.3,1.1,5.5-1.2,7.1
				C227.6,161.9,219.2,165.3,212,165.3z"/>
		</g>
		<g>
			<g>
				<path class="st4" d="M239,174.8c1.4-3.7,2.7-7.5,4.2-11.1c-1-0.1-2.1-0.2-3.1-0.4c-4.9-0.9-9.1-2.9-12.5-6
					c-3.4-3.1-6.1-6.9-7.9-11.6c-1.9-4.7-2.9-10-3.2-16c-0.3-6,0.2-12.3,1.4-19c1.3-6.8,3.2-12.9,5.7-18.3c2.5-5.4,5.4-9.9,8.9-13.6
					c3.5-3.7,7.3-6.3,11.6-7.9c4.3-1.6,8.9-1.9,13.8-1c3.9,0.7,7.3,2.2,10.3,4.4c1.4-2.9,3-5.7,4.5-8.5c1.7-3.3,3.4-6.7,4.9-10.1
					c0.7-1.5,1.2-3,1.8-4.5c-5-2.8-10.6-4.9-16.8-6c-8.8-1.7-17.1-1.4-24.8,1c-7.8,2.3-14.7,6.2-20.9,11.6
					c-6.2,5.4-11.5,12.3-15.8,20.5c-4.3,8.2-7.5,17.4-9.4,27.5c-1.9,10.1-2.4,19.8-1.4,29c1,9.2,3.4,17.5,7.1,24.8
					c3.8,7.3,8.8,13.5,15.2,18.5c5.9,4.7,12.9,7.9,20.9,9.7C235.5,183.4,237.3,179.2,239,174.8z"/>
				<path class="st5" d="M307.7,98.5c-1-9.2-3.4-17.5-7.1-24.8c-3.8-7.3-8.8-13.5-15.2-18.5c-1.7-1.3-3.5-2.6-5.4-3.7
					c-0.6,1.5-1.2,3-1.8,4.4c-1.6,3.4-3.2,6.8-4.9,10.1c-1.5,2.8-3,5.7-4.5,8.6c0.5,0.4,1,0.8,1.5,1.2c3.4,3.1,6.1,7,8,11.7
					c1.9,4.7,3,10,3.4,16c0.3,5.9-0.2,12.3-1.5,19.1c-1.3,6.7-3.2,12.7-5.6,18.2c-2.5,5.5-5.5,10-9,13.7c-3.5,3.7-7.4,6.3-11.7,7.9
					c-3.2,1.2-6.5,1.7-9.9,1.5c-1.7,4-3.1,8.1-4.7,12.2c-1.5,4-3.2,7.9-5,11.9c0.4,0.1,0.8,0.2,1.2,0.2c8.8,1.7,17,1.4,24.8-1
					c7.7-2.3,14.7-6.2,20.9-11.6c6.2-5.4,11.5-12.3,15.8-20.5c4.3-8.2,7.5-17.4,9.4-27.5C308.2,117.4,308.7,107.7,307.7,98.5z"/>
			</g>
			<g>
				<path class="st6" d="M250.9,193.3c-8.8-1.7-16.3-5-22.7-10c-6.4-5-11.4-11.2-15.2-18.5c-3.8-7.3-6.2-15.6-7.1-24.8
					c-1-9.2-0.5-18.9,1.4-29c1.9-10.1,5.1-19.3,9.4-27.5c4.3-8.2,9.6-15,15.8-20.5c6.2-5.4,13.2-9.3,20.9-11.6
					c7.7-2.3,16-2.6,24.8-1c8.8,1.7,16.3,5,22.7,10c6.4,5,11.4,11.2,15.2,18.5c3.8,7.3,6.1,15.6,7.1,24.8c1,9.2,0.5,18.9-1.4,29
					c-1.9,10.1-5.1,19.3-9.4,27.5c-4.3,8.2-9.6,15-15.8,20.5c-6.2,5.4-13.2,9.3-20.9,11.6C267.9,194.6,259.6,195,250.9,193.3z
					 M255.6,168.5c4.8,0.9,9.3,0.6,13.6-1c4.3-1.6,8.2-4.2,11.7-7.9c3.5-3.7,6.5-8.2,9-13.7c2.5-5.5,4.4-11.5,5.6-18.2
					c1.3-6.8,1.8-13.1,1.5-19.1c-0.3-5.9-1.4-11.2-3.4-16c-1.9-4.7-4.6-8.6-8-11.7c-3.4-3.1-7.5-5.1-12.3-6c-4.9-0.9-9.5-0.6-13.8,1
					c-4.3,1.6-8.2,4.2-11.6,7.9c-3.5,3.7-6.4,8.2-8.9,13.6c-2.5,5.4-4.4,11.5-5.7,18.3c-1.3,6.7-1.8,13-1.5,19
					c0.3,6,1.4,11.3,3.2,16c1.9,4.7,4.5,8.6,7.9,11.6C246.5,165.6,250.7,167.6,255.6,168.5z"/>
			</g>
		</g>
		<g>
			<path class="st8" d="M340.4,118.8l0.4,18.7c0,0-5.3,4.8-10.1,0l1.8-21L340.4,118.8z"/>
			<path class="st0" d="M318.4,267.6c-0.3-0.2-2.4-1.2-2.7-1.5c-1.1,1.7-1.9,2.6-3.2,4c3.3,2.9,2.4,6.4,2.4,6.4s-2.3,2-3.2,2.5
				c-2.9,1.4-8.3,3.4-8.3,3.4l13.5,1.1l10-10.2C323.4,271.2,320.7,269.4,318.4,267.6z"/>
			<path class="st0" d="M265.6,268.3c-2.1-0.4-4.9,1.3-6.6,0c-0.4,3.8-0.3,5.8-0.3,5.8l-19.9,8.2h25.5c0.2-2.7-0.3-5.3,0.1-7.8
				C264.5,273.2,265.4,269.6,265.6,268.3z"/>
			<path class="st12" d="M288.8,177.8l-22.5,42.8c0,0,9.1,7.7,18.1,10.3l16.9-50.5L288.8,177.8z"/>
			<path class="st0" d="M313.5,271.2c1.4-1.4,2.5-3,3.6-4.7c-5.8-5-8.7-10.1-16.6-19c-3.3-3.7,5.4-24.7,7.5-28.2
				c3.8-6.3,4.4-10.9,7.3-21.8l-22,8.2c-5.2,18.8-11.3,37.5-5.2,46.5c6.5,9.5,17.9,17.1,23.5,20.9
				C311.8,273.3,313.3,271.1,313.5,271.2z"/>
			<g>
				<path class="st1" d="M276.4,135.1c-0.3,0-0.6-0.1-0.9-0.3c-0.7-0.5-0.8-1.4-0.3-2.1c1.8-2.5,2.2-4.5,2.2-4.5
					c0.1-0.8,0.9-1.3,1.7-1.2c0.8,0.1,1.3,0.9,1.2,1.7c0,0.1-0.5,2.7-2.7,5.7C277.4,134.9,276.9,135.1,276.4,135.1z"/>
			</g>
			<path class="st1" d="M313.8,202.1c6.6-18,12.1-46.2,14.2-57.5c-1.2-0.5-2.3-0.9-3.2-1.1c-1.9-0.5-4.3-1.2-6.3-0.5
				c-1,0.3-1.9,0.8-2.8,1.4c-0.8,2.4-1.2,4.5-1.2,4.5s-14.1,26.9-23.2,45.3C299.1,195.8,306.7,198.4,313.8,202.1z"/>
			<path class="st8" d="M291,194.6C291,194.6,291,194.6,291,194.6c-0.8,1.6-1.6,3.2-2.3,4.6c0,0,0,0,0,0c-1.8,3.2-3.7,6.2-5.6,9
				c-18.1,27.3-24.9,49.1-26.2,59.4c1.7,1.3,8.3,2.1,10.4,2.5c3.3-17.1,12-28,27.6-40.8c5.2-4.3,9.1-9.8,12.5-14.3
				c2-2.7,4.1-7.1,6-12.3C306.5,198.9,298.8,196.4,291,194.6z"/>
			<g>
				<path class="st1" d="M273.5,202.2c-2.1,0-4.1-1.3-4.8-3.4c-0.9-2.6,0.5-5.5,3.1-6.5c6.2-2.1,15.6-10.6,22-19.6
					c12.9-18.3,22-28.5,22.4-28.9c1.9-2.1,5.1-2.3,7.2-0.4c2.1,1.9,2.3,5.1,0.4,7.2l0,0c-0.1,0.1-9.1,10.2-21.6,28
					c-6.3,8.9-17.4,20-26.9,23.3C274.6,202.1,274,202.2,273.5,202.2z"/>
			</g>
			<g>
				<path class="st1" d="M324.4,146.3c-0.1,0-0.2,0-0.4,0c-2.6-0.2-4.6-2.5-4.4-5.1c0.2-2.8,1.3-5.9,1.4-6.3c0.9-2.5,3.6-3.8,6.1-3
					c2.5,0.9,3.8,3.6,3,6.1c-0.3,0.9-0.8,2.7-0.9,3.8C329,144.4,326.9,146.3,324.4,146.3z"/>
			</g>
			<g>
				<path class="st10" d="M325.8,141.2c0.8,1,1.8,1.8,2.7,2.6c0.3-0.6,0.6-1.3,0.6-2c0.1-1.1,0.6-3,0.9-3.8c0.9-2.5-0.5-5.2-3-6.1
					c-2.1-0.7-4.3,0.1-5.5,1.8C322.1,136.4,324.3,139.5,325.8,141.2z"/>
			</g>
			<g>
				<path class="st1" d="M338.1,130.9c-0.1,5-4.2,8.9-9.2,8.8l0,0c-5-0.1-8.9-4.2-8.8-9.2l0.1-6.3c0.1-5,4.2-8.9,9.2-8.8l0,0
					c5,0.1,8.9,4.2,8.8,9.2L338.1,130.9z"/>
			</g>
			<g>
				<path class="st1" d="M266.3,200.8c-2.1,0-4.5-0.6-7.1-1.7c-0.8-0.3-1.1-1.2-0.8-2c0.3-0.8,1.2-1.1,2-0.8c3.9,1.7,7.1,1.9,9,0.7
					c0.7-0.4,1.6-0.2,2,0.5c0.4,0.7,0.2,1.6-0.5,2C269.6,200.4,268.1,200.8,266.3,200.8z"/>
			</g>
			<g>
				<path class="st1" d="M268.1,202.9c-2.4,0-4.3-0.5-6.4-1l-0.7-0.2c-0.8-0.2-1.3-1-1.1-1.8c0.2-0.8,1-1.3,1.8-1.1l0.7,0.2
					c3.6,0.9,6,1.5,11.3,0.1c0.8-0.2,1.6,0.3,1.8,1.1c0.2,0.8-0.3,1.6-1.1,1.8C271.8,202.7,269.8,202.9,268.1,202.9z"/>
			</g>
			<g>
				<path class="st1" d="M266.2,197.8c-4.7,0-7.9-2.9-8.1-3c-0.6-0.6-0.6-1.5-0.1-2.1c0.6-0.6,1.5-0.6,2.1-0.1
					c0.1,0.1,3.6,3.2,8.2,2c0.8-0.2,1.6,0.3,1.8,1.1c0.2,0.8-0.3,1.6-1.1,1.8C268.1,197.7,267.1,197.8,266.2,197.8z"/>
			</g>
			<g>
				<path class="st1" d="M269.3,196.2c-0.1,0-0.1,0-0.2,0c-5.1-0.6-7.2-4.3-7.2-4.4c-0.4-0.7-0.1-1.6,0.6-2c0.7-0.4,1.6-0.1,2,0.6
					c0.1,0.1,1.5,2.5,5,2.9c0.8,0.1,1.4,0.8,1.3,1.7C270.7,195.6,270.1,196.2,269.3,196.2z"/>
			</g>
			<g>
				<path class="st1" d="M287.2,137.2c-0.1,0-0.2,0-0.2,0c-2.5-0.4-9.2-1.5-10.8-1.5c-0.8,0-1.5-0.7-1.5-1.5c0-0.8,0.7-1.5,1.5-1.5
					c2.1,0,10.4,1.4,11.3,1.5c0.8,0.1,1.4,0.9,1.2,1.7C288.5,136.7,287.9,137.2,287.2,137.2z"/>
			</g>
			<g>
				<path class="st1" d="M286.2,140.4c-0.1,0-0.3,0-0.4-0.1c-0.1,0-7.2-2-10.5-2.1c-0.8,0-1.5-0.8-1.4-1.6c0-0.8,0.8-1.5,1.6-1.4
					c3.6,0.2,10.8,2.2,11.1,2.2c0.8,0.2,1.3,1,1,1.8C287.5,139.9,286.9,140.4,286.2,140.4z"/>
			</g>
			<g>
				<path class="st1" d="M285.5,143.6c-0.2,0-0.3,0-0.5-0.1c-6.7-2.2-8.4-2.3-9.3-2.4c-0.4,0-0.7-0.1-1.2-0.2
					c-0.8-0.2-1.3-1-1.1-1.8c0.2-0.8,1-1.3,1.8-1.1c0.2,0.1,0.4,0.1,0.7,0.1c1.1,0.1,2.9,0.2,9.9,2.5c0.8,0.3,1.2,1.1,1,1.9
					C286.7,143.2,286.1,143.6,285.5,143.6z"/>
			</g>
			<g>
				<path class="st1" d="M282.5,146c0,0-0.1,0-0.1,0c-6.7-0.5-7-4.1-7-4.6l3-0.1c0,0,0,0,0-0.1c0,0,0.3,1.5,4.3,1.7
					c0.8,0.1,1.4,0.8,1.4,1.6C284,145.4,283.3,146,282.5,146z"/>
			</g>
			<path class="st1" d="M276.9,144.2c0,0-1.3-0.6-3.3-0.6c-1.7,0-4-2.9-4-5.9c0,0-0.8-8.8,8.5-4.8L276.9,144.2z"/>
			<path class="st12" d="M306.2,170.4l-13,64.2c0,0,20.2,4.9,32.6-2.3l3.1-89.2C328.9,143.2,315,138.3,306.2,170.4z"/>
			<path class="st2" d="M309.2,205.8l12.5-0.7c0,0,0.3,19.1-7.2,18.4C314.6,223.5,304.3,225.7,309.2,205.8z"/>
			<path class="st2" d="M324.9,141.6c-1.4-1.2-3.1-1.9-5-1.9c-2.1,0-4.1,0.9-5.6,2.5c-0.4,0.4-9.5,10.6-22.5,29.1
				c-0.9,1.2-1.8,2.4-2.8,3.7l-1.3,1.6l1.4,1.5c1.5,1.6,3.2,3.2,4.7,4.7c0.8,0.8,1.7,1.7,2.5,2.5l1.8,1.8l1.7-2
				c1.5-1.8,2.9-3.6,4.1-5.3c12.5-17.7,21.4-27.7,21.5-27.8C328.2,149.1,328,144.4,324.9,141.6z"/>
			
				<rect x="285.9" y="175.8" transform="matrix(0.7439 0.6683 -0.6683 0.7439 195.5018 -150.9468)" class="st13" width="17.7" height="7.5"/>
			<path class="st8" d="M311,134.5l11.5,4.5c0,0,4.9-23.7,1.3-27.3C323.8,111.7,311,110.5,311,134.5z"/>
			<path class="st8" d="M324.5,115.8c0.4,0.6,9.3,6.5,16.3,4.9c0,0-1.2-10.5-17.5-9L324.5,115.8z"/>
			<circle class="st14" cx="326.4" cy="127" r="5"/>
			<circle class="st15" cx="338.3" cy="128" r="4.3"/>
			<path class="st14" d="M331.4,127c0,0,1.7-0.6,2.6,0.3"/>
		</g>
		<g>
			<g>
				<path class="st10" d="M186.2,135.7c-0.1,0-0.2,0-0.4,0c-2.6-0.2-4.6-2.5-4.4-5.1c0.2-2.7,1.3-5.9,1.4-6.2c0.9-2.5,3.6-3.8,6.1-3
					c2.5,0.9,3.8,3.6,3,6.1c-0.3,0.9-0.8,2.7-0.9,3.8C190.7,133.8,188.6,135.7,186.2,135.7z"/>
			</g>
			<g>
				<path class="st0" d="M183.3,268.3c7.9,3.7,14.4,3.6,14.9,3.7c5.2-9.2,20.7-34,6.6-54.4l-20-10.7
					C184.8,206.8,204.8,227.6,183.3,268.3z"/>
				<path class="st0" d="M193.7,276.4c0,0,1.8-3.7,3.3-6.3c-1.1-0.1-5.9-0.3-7.9-1.1c-1.9,3.8-5.9,9.4-8.8,13.2h26.9L193.7,276.4z"
					/>
				<path class="st8" d="M226.9,218.7c-3.3-6.5-27.6-26-29.8-37.2c-0.2-1-0.4-2-0.5-3.1c-3.9,2.1-9,2.6-13,2.8
					c-4.5,0.2-7.3,0.5-11.7-1.6c0.4,7-0.8,13.7,3.3,20.7c8.1,14,34.8,26,37.8,30.6c5.9,9.1,7.9,28.9,9.9,41c3.2,0,10.6-0.1,13.7-1.2
					C235.7,264.5,237.4,239,226.9,218.7z"/>
				<path class="st0" d="M235.3,275.3c0,0-0.9-3.5-1.1-5.2c-3.1,1.1-4.9,0-8,0c0.5,3,0.1,8.6,0.4,11.9H252L235.3,275.3z"/>
				<path class="st12" d="M183.8,184.9c3.9-0.2,12-1.3,15.3-4.5c-0.7-5.3-3-13.9-2.2-20.8c2.8-23.4-8.6-30.4-8.6-30.4
					s-5.3-3.7-9.5,0.7c-6.4,6.6-12.7,25.3-12.1,53C171.2,185.2,179.2,185.1,183.8,184.9z"/>
			</g>
			<g>
				<path class="st1" d="M242.4,192.3c-0.4,0-0.8,0-1.2-0.1c-18.4-4.3-34-15.3-45-31.9c-8.3-12.4-11.2-23.6-11.3-24
					c-0.7-2.7,1-5.5,3.7-6.2c2.7-0.7,5.5,1,6.2,3.7c0.1,0.2,2.7,10.2,10.1,21.2c9.7,14.4,22.8,23.6,38.7,27.3
					c2.7,0.6,4.4,3.4,3.8,6.1C246.8,190.7,244.7,192.3,242.4,192.3z"/>
			</g>
			<path class="st2" d="M231.2,177c-10.1-4.8-18.8-12.4-25.6-22.6c-7.3-10.8-9.9-20.8-10-20.9c-0.7-2.7-3.1-4.5-5.8-4.5
				c-0.5,0-1,0.1-1.5,0.2c-1.5,0.4-2.8,1.4-3.7,2.7c-0.8,1.4-1.1,3-0.7,4.5l0,0.1c0.8,3.4,3.9,15.4,11.4,26.6
				c8.9,13.4,21.1,23.4,35,29c0.1,0,0.2,0.1,0.3,0.1c0.2,0,0.4-0.1,0.5-0.2c0.2-0.2,0.4-0.4,0.4-0.7v-13.4
				C231.7,177.5,231.5,177.2,231.2,177z"/>
			<g>
				<path class="st1" d="M246.1,192.7c-1.6,0-3.4-0.2-5.2-0.5c-0.8-0.2-1.3-0.9-1.2-1.8c0.2-0.8,0.9-1.3,1.8-1.2
					c4.4,0.9,8.2,0.6,11-1c0.7-0.4,1.6-0.1,2,0.6c0.4,0.7,0.1,1.6-0.6,2C251.7,192.1,249.1,192.7,246.1,192.7z"/>
			</g>
			<g>
				<path class="st1" d="M246.3,189.3c-0.7,0-1.4,0-2.2-0.2c-0.8-0.1-1.4-0.9-1.3-1.7c0.1-0.8,0.9-1.4,1.7-1.3
					c4.8,0.7,9.2-1.8,9.2-1.8c0.7-0.4,1.6-0.2,2,0.6c0.4,0.7,0.2,1.6-0.5,2C255.1,187.1,251.2,189.3,246.3,189.3z"/>
			</g>
			<g>
				<path class="st1" d="M245,186.4c-0.2,0-0.5,0-0.7,0c-0.8-0.1-1.4-0.8-1.4-1.6c0.1-0.8,0.8-1.4,1.6-1.4c3.5,0.2,5.4-1.9,5.4-1.9
					c0.5-0.6,1.5-0.7,2.1-0.2c0.6,0.5,0.7,1.5,0.2,2.1C252.1,183.4,249.7,186.4,245,186.4z"/>
			</g>
			<g>
				<path class="st1" d="M239.8,183.9c-0.8,0-1.5-0.7-1.5-1.5c0-0.8,0.7-1.5,1.5-1.5c0.1,0,3.1-0.1,4.8-2.5c0.5-0.7,1.4-0.8,2.1-0.4
					c0.7,0.5,0.8,1.4,0.4,2.1C244.5,183.8,240,183.9,239.8,183.9z"/>
			</g>
			<g>
				<path class="st1" d="M235,150.2c-0.5,0-0.9-0.2-1.2-0.6c-2.2-3.1-2.7-5.6-2.7-5.7c-0.1-0.8,0.4-1.6,1.2-1.7
					c0.8-0.1,1.6,0.4,1.7,1.2c0,0,0.4,2,2.2,4.5c0.5,0.7,0.3,1.6-0.3,2.1C235.6,150.1,235.3,150.2,235,150.2z"/>
			</g>
			<g>
				<path class="st1" d="M235.3,150.8c-0.1,0-0.2,0-0.3,0c-3.3-0.6-9.7-0.6-9.8-0.6c-0.8,0-1.5-0.7-1.5-1.5c0-0.8,0.7-1.5,1.5-1.5
					c0.3,0,6.8,0,10.4,0.7c0.8,0.2,1.3,0.9,1.2,1.7C236.6,150.3,236,150.8,235.3,150.8z"/>
			</g>
			<g>
				<path class="st1" d="M224.4,153.9c-0.7,0-1.4-0.6-1.5-1.3c-0.1-0.8,0.5-1.6,1.3-1.7c0.9-0.1,9.3-1.1,12-0.7
					c0.8,0.1,1.4,0.9,1.2,1.7c-0.1,0.8-0.9,1.4-1.7,1.2c-1.7-0.3-7.7,0.3-11.2,0.7C224.5,153.9,224.4,153.9,224.4,153.9z"/>
			</g>
			<g>
				<path class="st1" d="M226.3,157.3c-0.7,0-1.3-0.5-1.5-1.2c-0.2-0.8,0.4-1.6,1.2-1.7c3.6-0.7,4.6-1,6.3-1.6
					c0.8-0.3,1.8-0.6,3.4-1c0.8-0.2,1.6,0.2,1.8,1c0.2,0.8-0.2,1.6-1,1.8c-1.5,0.4-2.4,0.7-3.3,1c-1.8,0.6-2.9,0.9-6.7,1.7
					C226.5,157.3,226.4,157.3,226.3,157.3z"/>
			</g>
			<g>
				<path class="st1" d="M229.5,159.7c-0.7,0-1.3-0.5-1.5-1.2c-0.1-0.8,0.4-1.6,1.2-1.7c4.8-0.8,5.8-2.6,5.8-2.6
					c0.3-0.8,1.1-1.2,1.9-1c0.8,0.3,1.2,1.1,0.9,1.9c-0.2,0.6-1.5,3.5-8.1,4.7C229.7,159.7,229.6,159.7,229.5,159.7z"/>
			</g>
			<path class="st1" d="M235.3,157.9l-1.1-12.2c0,0,5.3,0.4,5.3,6C239.5,153.6,238.9,155.6,235.3,157.9z"/>
			<g>
				<path class="st1" d="M201.7,118.3c1.3,5.1-1.7,10.3-6.8,11.7l0,0c-5.1,1.3-10.3-1.7-11.7-6.8l-1.7-6.4
					c-1.3-5.1,1.7-10.3,6.8-11.7l0,0c5.1-1.3,10.3,1.7,11.7,6.8L201.7,118.3z"/>
			</g>
			<g>
				<path class="st8" d="M200.8,114.9c-0.7,2-1.8,4-3.3,5.4c-3.8,3.3-9.7,4.2-14.4,2.2l0.2,0.7c1.3,5.1,6.6,8.1,11.7,6.8
					c5.1-1.3,8.1-6.6,6.8-11.7L200.8,114.9z"/>
			</g>
			<path class="st8" d="M183.2,122.8c-3.6-2.3-7.5-11-1.8-13c3.5-1.2,2.1,9.6,2.1,12.7L183.2,122.8z"/>
			<path class="st8" d="M180.3,110.5c-4.3-3.1,1-12,11.7-12c6.6,0,6.6,5.1,2,7.8c-3.8,2.3-9.7,0.9-12.5,4.8L180.3,110.5z"/>
			<path class="st8" d="M200.8,116.8c-1.5-2.3-4.5-7-5.7-9.6c-0.7-1.7-1.7-4.5,1.6-2.5c2.8,1.7,4.3,7.6,4,10.7L200.8,116.8z"/>
		</g>
	</g>
	<g>
		<g>
			<path class="st5" d="M125.2,138.1c-1.6,1.5-3.5,2.9-4.9,4.6l-21.5,45l16-20.7l17-35.2C129.6,133.9,127.4,136,125.2,138.1z"/>
			<path class="st5" d="M112.4,130.7c1.6-2.1,3.1-4.6,4.8-6.9l-37.7-18.4L43.7,109l62.7,28.9C108.5,135.5,110.6,133.2,112.4,130.7z"
				/>
			<path class="st4" d="M117.8,124.1c-2,2.5-3.6,5.5-5.6,7.8c-1.7,2.1-3.5,4.2-5.2,6.3l28.5,13.1l10.3-13.5L117.8,124.1z"/>
			<path class="st6" d="M74.9,176.3l11.1-23.1L28,125.5l9.3-19.4l95.4-56.2l26,12.5l-38.3,79.9l15.8,7.5l-10.7,22.4l-15.8-7.5
				l-11.1,23.1L74.9,176.3z M117.8,86.7l-1.5-0.7l-51,29.9l31.3,15L117.8,86.7z"/>
			<polygon class="st5" points="136.2,149.8 145.8,137.8 138.3,154.5 125.1,172.9 			"/>
			<path class="st5" d="M132.5,131.1l37.6-82.4l-11.4,13.7l-38.3,79.9C121.5,141.2,131.9,131.7,132.5,131.1z"/>
			<polygon class="st16" points="37.3,106.1 54.3,91.3 147.5,37.8 132.7,49.9 			"/>
			<polygon class="st7" points="132.7,49.9 158.7,62.3 170.1,48.7 147.5,37.8 			"/>
		</g>
		<path class="st1" d="M100.7,110.1c-3.2-2.3-5.4-1.3-6.9-1c-1.7,0.3-2.9-0.7-2.9-0.7c-0.7-0.4-1.6-0.3-2.1,0.4
			c-0.4,0.7-0.3,1.6,0.4,2.1c0.1,0,1.4,0.9,3.6,1.5c-2.5,2.3-5,5-5.2,5.1c-0.6,0.6-0.5,1.5,0.1,2.1c0.3,0.3,0.7,0.4,1,0.4
			c0.4,0,0.8-0.2,1.1-0.5c0,0,1.8-1.9,3.8-3.8c-1.8,2.3-3.5,4.7-3.9,5.1c-0.5,0.7-0.3,1.6,0.3,2.1c0.3,0.2,0.6,0.3,0.9,0.3
			c0.5,0,0.9-0.2,1.2-0.6c1-1.4,2.4-3.2,3.7-4.9c-0.5,1-1.1,2.1-2.4,4.1c-0.4,0.7-0.2,1.6,0.5,2.1c0.2,0.2,0.5,0.2,0.8,0.2
			c0.5,0,1-0.2,1.3-0.7c0.5-0.8,0.9-1.5,1.3-2.1c-0.3,0.6,0,1.4,0.6,1.8c0.3,0.2,0.5,0.2,0.8,0.2c0.5,0,1-0.2,1.3-0.7
			c1.4-2.2,2.1-3.9,2.4-5.3l0.1,0C103.3,113.2,102.3,111.2,100.7,110.1z M97.7,120.6c0.5-0.9,0.8-1.5,1.1-2.2
			C98.6,119.1,98.2,119.8,97.7,120.6z"/>
		<path class="st8" d="M55,127c-4.7-0.3-11.6,9-4.6,11.5c-6.4-0.2-7.9,8.8-2.1,11.3c-10.2-2-9,11.2-4.2,16c-3.3-0.5-6.6,2.6-6.1,6
			c0.5,3.4,1.9,8.2,10.3,10.7c8.5,2.5,13.7-2.2,17.9-6.7c2.7,5.5,16-1.9,14.6-8.5c5,1.8,9.5-3.9,9.6-8.5c0.1-4.5-3-7.9-6-10.7
			c2.1-1.9,2.5-5.5,1.9-8.2c-0.9-4.5-6.6-5-6.6-8.5c0-1.3,0.2-5.2-0.8-6.9c-1.7-2.7-4.7-5.4-8.4-4.1C55,113,55,127,55,127z"/>
		<path class="st0" d="M64.1,272c-4.3-0.8-5-0.5-9.3-1.6l-9.8,12h38.2l-22.2-6L64.1,272z"/>
		<path class="st0" d="M135.3,275.4l-2.3-3c-2,1.3-4.2,2.4-6.5,3.2l6,6.7H155L135.3,275.4z"/>
		<path class="st0" d="M50.8,272c4.3,1,8.6,2.1,12.9,2.9L95.3,236l-5.4-15.4l-22.1-25.5l6.4,36.1L50.8,272z"/>
		<path class="st8" d="M93.8,184.5c-8.7-2.3-20.4,0.6-28.8,3.8c0,0,5.2,20.6,8.6,26.7c9.9,17.9,52.6,62.4,52.6,62.4
			c2.3-0.8,6.9-4.1,8.9-5.4L93.8,184.5z"/>
		<path class="st12" d="M63.8,196.3c8.4-3.1,25.1-8.4,33.7-6.3c0,0-11.4-26.8-16.6-32.7c-3.5-4-22.6-15.2-22.6-0.5
			C58.4,176.9,63.8,196.3,63.8,196.3z"/>
		<g>
			<path class="st1" d="M71.2,155.5c-0.1,0-0.2,0.1-0.3,0.1c-2.5,0.7-5.2-0.8-5.9-3.4c-0.7-2.7-0.8-6-0.8-6.4c0-2.6,2.1-4.8,4.8-4.8
				c2.6,0,4.8,2.1,4.8,4.7c0,0.9,0.1,2.8,0.4,3.9C74.9,152.2,73.6,154.7,71.2,155.5z"/>
		</g>
		<g>
			<path class="st10" d="M74.4,150.8c0-0.3-0.1-0.7-0.2-1c-0.3-1.1-0.4-3-0.4-3.9c0-2.6-2.2-4.8-4.8-4.7c-2.6,0-4.8,2.2-4.8,4.8
				c0,0.1,0,0.2,0,0.4C66.6,149,70.5,150.2,74.4,150.8z"/>
		</g>
		<g>
			<path class="st1" d="M79.1,136.5c1.5,4.7-1.1,9.8-5.8,11.4l0,0c-4.7,1.5-9.8-1.1-11.4-5.8l-1.9-6c-1.5-4.7,1.1-9.8,5.8-11.4l0,0
				c4.7-1.5,9.8,1.1,11.4,5.8L79.1,136.5z"/>
		</g>
		<path class="st1" d="M132.3,131.7c-0.2-0.2-0.4-0.3-0.6-0.3c0.2-0.2,0.5-0.5,0.7-0.8c0.6-0.6,0.5-1.6-0.1-2.1
			c-0.1-0.1-0.2-0.1-0.2-0.2c0.4-0.6,0.3-1.4-0.2-1.9c-0.4-0.4-1-0.5-1.5-0.3c0.7-0.7,1.1-1.2,1.2-1.2c0.5-0.6,0.5-1.6-0.1-2.1
			c-0.6-0.5-1.6-0.5-2.1,0.1c0,0-3.3,3.7-6.6,5.6c-1.4-2.2-3.4-3-3.5-3c-0.8-0.3-1.6,0.1-1.9,0.9c-0.3,0.8,0.1,1.6,0.8,1.9
			c0.1,0,1.2,0.5,2.1,1.9c-0.1,0.3-0.3,0.8-0.3,1.4c-22,29.7-51.1,19.2-52.4,18.7c-2.6-1-5.5,0.3-6.6,2.9c-1,2.6,0.3,5.6,2.9,6.6
			c0.4,0.1,7.5,2.8,17.7,2.8c2,0,4.2-0.1,6.5-0.4c11-1.3,27.2-7.6,40.1-24.3c0.2-0.1,0.5-0.3,0.9-0.6c0.3-0.2,0.5-0.4,0.8-0.6l0,0
			c0.8-0.6,1.7-1.6,2.8-2.8C133,133.2,132.9,132.2,132.3,131.7z"/>
		<path class="st2" d="M91.8,150.3l-1.2,0.3c-3,0.7-6.1,1-9.3,1c-7.7,0-13-1.9-13.6-2.2c-0.7-0.3-1.4-0.4-2.1-0.4
			c-2.5,0-4.7,1.5-5.6,3.8c-0.6,1.5-0.7,3.2,0.1,4.6c2.9,5.2,10.9,7.3,21.3,7.3c2.2,0,4.4-0.1,6.6-0.4c1.3-0.2,2.7-0.4,4.1-0.7
			l0.9-0.2c0,0-1.2-3.8-1.5-7.6C91.3,154.3,91.8,150.3,91.8,150.3z"/>
		<path class="st8" d="M59.8,140.9c3.1-2,4.2-5.7,3.9-9.5c2.7,1.8,4.9,0.7,6.6-2.5c5.2,7.3,13.1-3.6,2.3-7.5
			c-8.7-3.1-17.1,5.4-14.9,14L59.8,140.9z"/>
	</g>
</g>
</svg>
