<?xml version="1.0" encoding="utf-8"?>
<!-- Generator: Adobe Illustrator 19.0.0, SVG Export Plug-In . SVG Version: 6.00 Build 0)  -->
<svg version="1.1" id="OBJECTS" xmlns="http://www.w3.org/2000/svg" xmlns:xlink="http://www.w3.org/1999/xlink" x="0px" y="0px"
	 viewBox="0 0 519 321.3" style="enable-background:new 0 0 519 321.3;" xml:space="preserve">
<style type="text/css">
	.st0{fill:#E2D9FC;}
	.st1{opacity:0.55;fill:#B49DFC;}
	.st2{fill:#0082C8;}
	.st3{fill:#D7F0F9;}
	.st4{fill:#FFFFFF;}
	.st5{fill:#C9B3FF;}
	.st6{fill:#00668E;}
	.st7{fill:#0582C1;}
	.st8{fill:#05556D;}
	.st9{fill:#F98D3D;}
	.st10{fill:#ED701B;}
	.st11{fill:none;}
	.st12{fill:#6441A5;}
	.st13{fill:#EFAA3A;}
	.st14{fill:#5027B7;}
	.st15{fill:#79C9E8;}
	.st16{fill:#49B4D6;}
	.st17{fill:#F77E2D;}
	.st18{opacity:0.55;fill:url(#SVGID_1_);}
	.st19{opacity:0.29;fill:#F98D2B;}
</style>
<g>
	<g>
		<g>
			<path class="st0" d="M438.4,299.3c6.1,0,11.1-4.9,11.2-11c0.5-30.5,2.9-75.5-54.6-88c-46.5-10.1-18.9-92.7-144.2-87.4
				c-89.9,3.8-66,79.6-136,85.9c-46.5,4.2-46.9,63-45.1,90c0.4,5.9,5.3,10.5,11.2,10.5H438.4z"/>
			<g>
				<path class="st1" d="M395.1,200.3c-46.5-10.1-18.9-92.7-144.2-87.4c-21.4,0.9-36.3,5.9-47.6,13.1c3.8-0.5,7.9-0.9,12.2-1
					c125.3-5.3,97.7,77.3,144.2,87.4c56.9,12.3,55.1,56.5,54.6,87h24.2c6.1,0,11.1-4.9,11.2-11C450.1,257.8,452.5,212.8,395.1,200.3
					z"/>
			</g>
			<g>
				<rect x="195.9" y="-47.4" class="st2" width="2" height="144.3"/>
				<rect x="337.7" y="-47.4" class="st2" width="2" height="166.5"/>
				<g>
					<path class="st3" d="M339.5,109.4L192.4,92.2c-6.3-0.7-12,3.8-12.7,10.1l-11,94.1c-0.7,6.3,3.8,12,10.1,12.7l147.1,17.2
						c6.3,0.7,12-3.8,12.7-10.1l11-94.1C350.3,115.8,345.8,110.1,339.5,109.4z"/>
					<path class="st2" d="M348.4,131.4l1.1-9.3c0.7-6.3-3.8-12-10.1-12.7L192.4,92.2c-6.3-0.7-12,3.8-12.7,10.1l-1.1,9.3
						L348.4,131.4z"/>
					<g>
						<path class="st2" d="M202.4,168.5l18.6-32.9c1.2-2.1,3.5-3.3,5.9-3l0,0c3.3,0.4,5.7,3.4,5.3,6.7l-3.9,33.2l0.2,0
							c2.3,0.3,3.9,2.3,3.7,4.6l0,0c-0.3,2.3-2.3,3.9-4.6,3.7l-0.2,0l-0.7,6.1c-0.3,2.5-2.5,4.2-5,4l0,0c-2.5-0.3-4.2-2.5-4-5
							l0.7-6.1l-13.4-1.6c-2.3-0.3-3.9-2.3-3.7-4.6l0.4-3C201.8,169.8,202,169.1,202.4,168.5z M219.5,171l2.4-20.6
							c0-0.1-0.2-0.2-0.2-0.1l-11,19.4c-0.2,0.3,0,0.8,0.4,0.8l7.8,0.9C219.2,171.5,219.5,171.3,219.5,171z"/>
						<path class="st2" d="M284.7,178.1l18.6-32.9c1.2-2.1,3.5-3.3,5.9-3l0,0c3.3,0.4,5.7,3.4,5.3,6.7l-3.9,33.2l0.2,0
							c2.3,0.3,3.9,2.3,3.7,4.6l0,0c-0.3,2.3-2.3,3.9-4.6,3.7l-0.2,0l-0.7,6.1c-0.3,2.5-2.5,4.2-5,4l0,0c-2.5-0.3-4.2-2.5-4-5
							l0.7-6.1l-13.4-1.6c-2.3-0.3-3.9-2.3-3.7-4.6l0.4-3C284.1,179.4,284.3,178.8,284.7,178.1z M301.8,180.6l2.4-20.6
							c0-0.1-0.2-0.2-0.2-0.1l-11,19.4c-0.2,0.3,0,0.8,0.4,0.8l7.8,0.9C301.5,181.1,301.7,180.9,301.8,180.6z"/>
						<path class="st2" d="M247.7,149.2c1.1-9.3,6.6-14,15.5-13c9,1,13.2,6.9,12.1,16.2l-3.5,30.2c-1.1,9.3-6.6,14-15.5,13
							c-9-1-13.2-6.9-12.1-16.2L247.7,149.2z M253.2,181c-0.5,4.1,1.2,5.9,4.1,6.3c2.9,0.3,4.9-1,5.4-5.2l3.7-31.3
							c0.5-4.1-1.2-5.9-4.1-6.3c-2.9-0.3-4.9,1-5.4,5.2L253.2,181z"/>
					</g>
					<g>
						<circle class="st4" cx="192.9" cy="104.8" r="3.1"/>
						<circle class="st5" cx="207.6" cy="106.6" r="3.1"/>
						<circle class="st5" cx="222.9" cy="108.4" r="3.1"/>
					</g>
				</g>
			</g>
			<g>
				<path class="st6" d="M166.8,215.8c0,0-2,8.8-1.7,17.8c0.3,8.1-0.7,61.1-0.7,61.1h6.5c0,0,9.2-41.5,9.6-44.8
					c0.3-3.3,5-36.1,5-36.1L166.8,215.8z"/>
				<path class="st7" d="M171.1,213.4c0,0,1.5,11.3,4,19.4c2.5,8,15,61.9,15,61.9h6.5c0,0-1.2-41.5-1.6-44.8
					c-0.4-3.3-3.7-36.1-3.7-36.1L171.1,213.4z"/>
				<path class="st7" d="M190.6,294.7v4.5H203c0.7,0,1-0.9,0.4-1.3c-1.8-1.2-4.7-2.9-7.4-3.2H190.6z"/>
				<path class="st7" d="M164.8,294.7v4.5h12.3c0.7,0,1-0.9,0.4-1.3c-1.8-1.2-4.7-2.9-7.4-3.2H164.8z"/>
				<g>
					<path class="st6" d="M187.1,160.7c0,0,4.2-6.4-0.6-7.1c-3.7-0.5-5.3,0.6-5.3,0.6s-4.3-0.5-6.7,1.6c-1.6,1.4-7.5,12.2,2,16.2
						s7.5-6.1,7.5-6.1L187.1,160.7z"/>
					<path class="st8" d="M186.4,153.7c-3.7-0.5-5.3,0.6-5.3,0.6s-4.3-0.5-6.7,1.6c-1.6,1.4-7.5,12.2,2,16.2
						c4.5,1.8,6.4,0.6,7.2-1.2c-9.1,2.6-10.1-8.4-8.6-11.5c1.5-3.2,5.2-1.7,5.2-1.7c1.4-3.6,6.1-3.2,8-2.9
						C188,154.2,187.4,153.8,186.4,153.7z"/>
					<path class="st9" d="M181.1,163.9c0,0-1.3-1.3-2.2,0c-0.9,1.3-0.3,4.1,1.3,4.2c0,0-0.5,4.1-3.6,3.9v3.3h7.4v-2.5
						c0,0,4.6-1.9,4.4-5.7c-0.2-3.8-1.3-6.4-1.3-6.4S184.5,163.6,181.1,163.9z"/>
					<path class="st10" d="M182.2,173.9c0.7,0.3,0.6,0.8,0.6,1.5h1.1v-2.5c0,0-1.8,0.6-4.4-0.9C179.5,171.9,181,173.4,182.2,173.9z"
						/>
				</g>
				<path class="st9" d="M183.7,157.9c0,0-3.8-1.5-4.3-0.4c-0.3,0.7,0.5,1.4,1.5,2l-0.9,0.1c-0.2,0-0.3,0.3-0.1,0.4
					c0.3,0.2,0.9,0.3,2.4,0.4L183.7,157.9z"/>
				<g>
					<polygon class="st11" points="161,199.4 166.1,215.9 166,215 166.1,215.9 167.8,191.8 					"/>
					<path class="st12" d="M211,167.5c-7.3-5.4-27.2-9.7-27.2-9.7l-1.6,3c0,0,18.1,7,16.9,8.1c-0.7,0.6-9.5,4.7-12.5,6
						c-0.6,0.3-1.3,0.4-2.1,0.4l-9.2-0.1c0,0-6.6-0.8-11.8,5.2c-4.6,5.3-12.5,17.7-12.5,17.7l13.3,19.6l1.5,2.2l0,0l0,0.2
						c0,0,0.5,0.1,1.3,0.1c4.3,0.4,18,1.5,25.2-0.1l0.2,0l-0.3-32.1c11.6-9.2,17.1-16.2,19.1-18.5
						C211.8,168.8,211.7,167.9,211,167.5z M166.4,211.2l-1.3-2.8l-4.1-9l6.9-7.7l-1.2,16.9L166.4,211.2z"/>
				</g>
				<polygon class="st13" points="165.1,208.4 166.4,211.2 165.8,219.8 165.8,219.8 164.3,217.6 				"/>
				<path class="st14" d="M189.1,186.7c-1.2,0.9-0.9,8.8-1.2,13.8c-0.5,8.3-1,15.5-0.6,20.1c1.9-0.1,3.6-0.3,5.1-0.6l0.2,0
					l-0.3-32.1c11.6-9.2,17.1-16.2,19.1-18.5c0.5-0.6,0.4-1.5-0.2-2C211,167.5,201.9,177.4,189.1,186.7z"/>
				<path class="st6" d="M195,249.9c-0.3-2.4-2.1-20.1-3.1-29.8l-4.7,0.5c0,0,6.8,55.8,7.2,74.1h2.2
					C196.6,294.7,195.4,253.2,195,249.9z"/>
				<g>
					<path class="st7" d="M165.1,164.8l-1.4-2.5c0.7-1.3,1.1-2.8,1.1-4.4c0-5.2-4.3-9.5-9.5-9.5c-5.2,0-9.5,4.3-9.5,9.5
						c0,5.2,4.3,9.5,9.5,9.5c2.6,0,5-1.1,6.8-2.8L165.1,164.8z"/>
				</g>
			</g>
			<g>
				<g>
					<g>
						<path class="st15" d="M128.7,279c0,0-2-1.9-0.7-8.9c1.3-7.1,4.7-13.9,3.1-21.5c-1.7-7.7-14.7-27-14.8-28.3
							c0-1.3-4,22.5,2.7,31.9c6.8,9.4,7.6,12.6,7.3,17.5c-0.3,4.9,0.1,8.9,0.8,10L128.7,279z"/>
						<path class="st16" d="M127.5,264.8c-0.8,3.2-1.3,11.1,0,13c0.1,0.2,0.3,0.1,0.5-0.3c-0.4-1.3-0.6-3.6,0.1-7.4
							c1.3-7.1,4.7-13.9,3.1-21.5c-1.7-7.7-14.7-27-14.8-28.3c0,0,2,16.1,8.6,27.2C129.7,255.4,128.3,261.6,127.5,264.8z"/>
					</g>
					<g>
						<path class="st15" d="M131.1,278.5c0,0-3.8-9.6,2.7-17.9c6.5-8.3,16.9-19,17.1-23.2c0,0,2.7,20-5.8,25.7
							c-8.5,5.7-14.4,6.6-12.9,15.3L131.1,278.5z"/>
						<path class="st16" d="M140.2,259.1c-9.4,6.9-10.2,14.8-8.8,18.5c0.1,0.3,0.3,0.5,0.6,0.6c-1.3-8.4,4.6-9.4,13-15
							c8.5-5.7,5.8-25.7,5.8-25.7S149.7,252.3,140.2,259.1z"/>
					</g>
					<g>
						<path class="st15" d="M124.8,278.7c0,0,1.2-5.1,0.6-10.6c-0.7-5.5-6.4-8.6-11.7-14.4c-2.8-3-3.6-18.7-1.9-20.2
							c0,0-9.4,11.4-8,19.8c1.5,8.4,16.9,13.8,18.3,17.9c1.4,4,1.3,7.4,1.3,7.4L124.8,278.7z"/>
						<g>
							<path class="st16" d="M108.6,238.1c-3.1,8.5,0.1,18.7,10.4,25c7.6,4.7,5.2,14.4,5.2,14.4l1.2-3.8c0.1-1.7,0.1-3.6-0.1-5.6
								c-0.7-5.5-6.4-8.6-11.7-14.4c-2.7-2.9-3.5-17.6-2-20C111.2,234.4,109.9,236,108.6,238.1z"/>
							<path class="st16" d="M111.6,233.9c0.1-0.1,0.2-0.2,0.2-0.2C111.7,233.7,111.6,233.8,111.6,233.9z"/>
						</g>
					</g>
					<g>
						<path class="st15" d="M133.1,278.1c0,0,2.2-8.2,7.7-9.3c5.5-1.1,11.8-9.2,12.1-10.8C152.9,258,151.9,273.3,133.1,278.1z"/>
						<path class="st16" d="M140.4,271.5c-3.4,1.7-4.7,3.9-5.2,6c16.8-5.4,17.7-19.5,17.7-19.5c-0.1,0.3-0.4,0.9-0.9,1.6
							C150.3,262.5,146.4,268.5,140.4,271.5z"/>
					</g>
				</g>
				<path class="st12" d="M144.9,275.1h-28.6l3.4,21.4c0.3,1.6,1.7,2.8,3.3,2.8h15.2c1.6,0,3-1.2,3.3-2.8L144.9,275.1z"/>
				<polygon class="st14" points="144.3,278.6 144.9,275.1 116.3,275.1 116.8,278.6 				"/>
				<path class="st14" d="M138,275.1l-3.4,21.4c-0.3,1.6-1.7,2.8-3.3,2.8h6.9c1.6,0,3-1.2,3.3-2.8l3.4-21.4H138z"/>
			</g>
			<g>
				<rect x="213" y="236.9" class="st12" width="129.4" height="26.3"/>
				<polygon class="st17" points="224.2,236.9 236,236.9 232.9,243.3 221.1,243.3 				"/>
				<polygon class="st17" points="250.8,236.9 262.7,236.9 259.5,243.3 247.7,243.3 				"/>
				<polygon class="st17" points="277.4,236.9 289.3,236.9 286.1,243.3 274.3,243.3 				"/>
				<polygon class="st17" points="304.1,236.9 315.9,236.9 312.7,243.3 300.9,243.3 				"/>
				<polygon class="st17" points="342.4,236.9 342.4,237.1 339.3,243.3 327.5,243.3 330.7,236.9 				"/>
				<rect x="229.1" y="263.3" class="st15" width="9.1" height="36"/>
				<rect x="236.1" y="263.3" class="st16" width="2.1" height="36"/>
				<rect x="317.9" y="263.3" class="st15" width="9.1" height="36"/>
				<rect x="324.3" y="263.3" class="st16" width="2.7" height="36"/>
				<rect x="229.1" y="263.2" class="st16" width="9.1" height="4.5"/>
				<rect x="317.9" y="263.2" class="st16" width="9.1" height="4.5"/>
				<rect x="229.1" y="232.8" class="st15" width="9.1" height="4.1"/>
				<rect x="236.1" y="232.8" class="st16" width="2.1" height="4.1"/>
				<rect x="317.9" y="232.8" class="st15" width="9.1" height="4.1"/>
				<rect x="324.3" y="232.8" class="st16" width="2.7" height="4.1"/>
				<rect x="229.1" y="236.4" class="st16" width="9.1" height="0.5"/>
				<rect x="317.9" y="236.4" class="st16" width="9.1" height="0.5"/>
				<g>
					<g>
						<polygon class="st7" points="236,236.9 223,263.3 213,263.3 213,259.6 224.2,236.9 						"/>
						<polygon class="st7" points="250.8,236.9 237.8,263.3 249.6,263.3 262.7,236.9 						"/>
						<polygon class="st7" points="289.3,236.9 276.2,263.3 264.4,263.3 277.4,236.9 						"/>
						<polygon class="st7" points="315.9,236.9 302.8,263.3 291,263.3 304.1,236.9 						"/>
						<polygon class="st7" points="330.7,236.9 317.6,263.3 329.4,263.3 342.4,237.1 						"/>
					</g>
				</g>
				<linearGradient id="SVGID_1_" gradientUnits="userSpaceOnUse" x1="278.3671" y1="270.9523" x2="278.3671" y2="249.7595">
					<stop  offset="0" style="stop-color:#FFFFFF"/>
					<stop  offset="1" style="stop-color:#FFFFFF;stop-opacity:0"/>
				</linearGradient>
				<rect x="216.6" y="248.3" class="st18" width="123.6" height="13.2"/>
				<circle class="st12" cx="233.4" cy="227.1" r="8.1"/>
				<circle class="st7" cx="233.4" cy="227.1" r="3.7"/>
				<circle class="st12" cx="322.4" cy="227.1" r="8.1"/>
				<circle class="st7" cx="322.4" cy="227.1" r="3.7"/>
			</g>
			<g>
				<path class="st12" d="M391.4,296.4h-41.2l6.3-15.3v0l2.5-6.2l0.7-1.7l1.1-2.8l0.2-0.6l2.5-6.2l0.5-1.1l4.5-10.9
					c0.8-2,3.6-2,4.4,0l4.5,10.9l0.5,1.1l2.5,6.2l0.2,0.6l1.1,2.8l0.7,1.7l2.5,6.2v0L391.4,296.4z"/>
				<polygon class="st19" points="352.9,289.9 350.2,296.4 391.4,296.4 388.7,289.9 				"/>
				<rect x="346.9" y="292.5" class="st15" width="47.2" height="6.7"/>
				<rect x="383.9" y="292.5" class="st16" width="10.2" height="6.7"/>
				<g>
					<path class="st19" d="M389.8,292.5h-5.8l-4.7-11.4v0l-2.5-6.2l-0.7-1.7l-1.1-2.8l-0.2-0.6l-2.5-6.2l-0.5-1.1l-3.8-9.2l0.7-1.7
						c0.8-2,3.6-2,4.4,0l4.5,10.9l0.5,1.1l2.5,6.2l0.2,0.6l1.1,2.8l0.7,1.7l2.5,6.2v0L389.8,292.5z"/>
					<g>
						<polygon class="st7" points="380.5,270 361.1,270 363.6,263.8 378,263.8 						"/>
						<polygon class="st7" points="385.1,281.2 385.1,281.2 356.5,281.2 356.5,281.2 359,275 382.6,275 						"/>
					</g>
				</g>
			</g>
			<g>
				<path class="st0" d="M128.7,146.6c3.1,0,5.8-2.2,6.2-5.3c0.1-0.5,0.1-1.1,0.1-1.7c0-6.8-5.5-12.3-12.3-12.3c-0.3,0-0.6,0-0.8,0
					c-0.6-6.7-6.2-12-13-12c-7.2,0-13.1,5.8-13.1,13.1c0,0.3,0,0.6,0,1c-2-1.1-4.4-1.8-7-1.6c-6.6,0.3-12,5.5-12.4,12.1
					c0,0.1,0,0.1,0,0.2c-0.2,3.6,2.7,6.6,6.2,6.6H128.7z"/>
				<path class="st0" d="M422.2,156.3c9.7,0,10.3-14.6,0.5-15.1c-0.3,0-0.5,0-0.8,0c-1.7,0-3.4,0.3-5,0.8c-1.3-7.9-8.2-14-16.5-14
					c-8.5,0-15.5,6.3-16.5,14.5c-2-1-4.3-1.5-6.6-1.5c-1.3,0-2.6,0.2-3.8,0.5c-8.5,2.2-6.7,14.8,2.1,14.8H422.2z"/>
				<path class="st0" d="M305.4,84.2c9.7,0,10.3-14.6,0.5-15.1c-0.3,0-0.5,0-0.8,0c-1.7,0-3.4,0.3-5,0.8c-1.3-7.9-8.2-14-16.5-14
					c-8.5,0-15.5,6.3-16.5,14.5c-2-1-4.3-1.5-6.6-1.5c-1.3,0-2.6,0.2-3.8,0.5c-8.5,2.2-6.7,14.8,2.1,14.8H305.4z"/>
				<circle class="st0" cx="150.6" cy="87.9" r="23.3"/>
				<path class="st1" d="M150.8,64.6c6.3,4.2,10.5,11.3,10.5,19.5c0,12.9-10.4,23.3-23.3,23.3c-0.1,0-0.1,0-0.2,0
					c3.7,2.4,8.1,3.8,12.8,3.8c12.9,0,23.3-10.4,23.3-23.3C174,75.1,163.6,64.7,150.8,64.6z"/>
			</g>
		</g>
	</g>
	<g>
		<circle class="st5" cx="152.4" cy="157.8" r="1.3"/>
		<circle class="st5" cx="155.5" cy="157.8" r="1.3"/>
		<circle class="st5" cx="158.5" cy="157.8" r="1.3"/>
	</g>
</g>
</svg>
