<?xml version="1.0" encoding="utf-8"?>
<!-- Generator: Adobe Illustrator 19.0.0, SVG Export Plug-In . SVG Version: 6.00 Build 0)  -->
<svg version="1.1" id="OBJECTS" xmlns="http://www.w3.org/2000/svg" xmlns:xlink="http://www.w3.org/1999/xlink" x="0px" y="0px"
	 viewBox="0 0 519 321.3" style="enable-background:new 0 0 519 321.3;" xml:space="preserve">
<style type="text/css">
	.st0{opacity:3.000000e-002;fill:#FFFFFF;}
	.st1{fill:#41AFF9;}
	.st2{fill:#00A4FF;}
	.st3{fill:#00B783;}
	.st4{fill:#00EDB1;}
	.st5{fill:#5AF9CB;}
	.st6{opacity:0.4;fill:#FFA53E;}
	.st7{fill:#6EBDFF;}
	.st8{clip-path:url(#SVGID_2_);}
	.st9{clip-path:url(#SVGID_2_);fill:#6EBDFF;}
	.st10{opacity:0.4;clip-path:url(#SVGID_2_);}
	.st11{fill:#DAD0FF;}
	.st12{fill:#B2A7FF;}
	.st13{clip-path:url(#SVGID_2_);fill:#41AFF9;}
	.st14{fill:#9FD8FF;}
	.st15{opacity:0.3;}
	.st16{fill:#FFFFFF;}
	.st17{opacity:0.6;fill:#B2A7FF;}
	.st18{fill:#1C2A8A;}
	.st19{fill:#F5FAFC;}
	.st20{fill:#D8E1EF;}
	.st21{fill:#1C66EF;}
	.st22{fill:#2E76FF;}
	.st23{fill:#1A53D8;}
	.st24{fill:#EBF8FF;}
	.st25{fill:#1756C7;}
	.st26{fill:#C9D6F1;}
	.st27{fill:#2E8DFF;}
	.st28{opacity:0.3;fill:#FFFFFF;}
</style>
<circle class="st0" cx="193.4" cy="42.2" r="41.2"/>
<circle class="st0" cx="193.4" cy="42.2" r="20.5"/>
<circle class="st0" cx="193.4" cy="42.2" r="12.4"/>
<g>
	<path class="st1" d="M197.2,46.5c-4.4,0-8-3.6-8-8c0-2.2,0.9-4.1,2.2-5.6c-4.1,1-7.2,4.7-7.2,9.1c0,5.2,4.2,9.4,9.4,9.4
		c4.4,0,8-3,9.1-7.1C201.2,45.7,199.3,46.5,197.2,46.5z"/>
	<polygon class="st1" points="295.3,73.5 296.8,76.2 299.5,77.7 296.8,79.2 295.3,81.9 293.8,79.2 291.1,77.7 293.8,76.2 	"/>
	<polygon class="st1" points="235.6,19.3 237.1,22.1 239.9,23.6 237.1,25 235.6,27.8 234.2,25 231.4,23.6 234.2,22.1 	"/>
	<polygon class="st1" points="201.5,60 203,62.7 205.7,64.2 203,65.7 201.5,68.4 200,65.7 197.3,64.2 200,62.7 	"/>
	<polygon class="st1" points="125,-9.5 126.5,-6.8 129.2,-5.3 126.5,-3.8 125,-1.1 123.5,-3.8 120.8,-5.3 123.5,-6.8 	"/>
	<polygon class="st1" points="310.9,62.1 311.6,63.4 313,64.2 311.6,64.9 310.9,66.3 310.2,64.9 308.8,64.2 310.2,63.4 	"/>
	<polygon class="st1" points="404.6,36.1 405.3,37.4 406.7,38.2 405.3,38.9 404.6,40.3 403.8,38.9 402.5,38.2 403.8,37.4 	"/>
	<polygon class="st1" points="446.4,113.1 447.2,114.5 448.5,115.2 447.2,116 446.4,117.3 445.7,116 444.3,115.2 445.7,114.5 	"/>
	<polygon class="st1" points="364.5,149.6 365.3,151 366.6,151.8 365.3,152.5 364.5,153.9 363.8,152.5 362.4,151.8 363.8,151 	"/>
	<polygon class="st1" points="325.8,141.7 326.5,143 327.9,143.8 326.5,144.5 325.8,145.9 325,144.5 323.7,143.8 325,143 	"/>
	<polygon class="st1" points="413.5,146.3 414.3,147.7 415.7,148.4 414.3,149.2 413.5,150.5 412.8,149.2 411.4,148.4 412.8,147.7 	
		"/>
	<polygon class="st1" points="144.2,143.8 145,145.1 146.3,145.9 145,146.6 144.2,148 143.5,146.6 142.1,145.9 143.5,145.1 	"/>
	<polygon class="st1" points="355,105 355.8,105.8 357.1,106.2 355.8,106.6 355,107.3 354.3,106.6 352.9,106.2 354.3,105.8 	"/>
	<polygon class="st1" points="280.9,31.7 281.4,32.6 282.3,33.1 281.4,33.6 280.9,34.5 280.4,33.6 279.4,33.1 280.4,32.6 	"/>
	<polygon class="st1" points="300.6,17.1 300.9,17.6 301.4,17.9 300.9,18.2 300.6,18.7 300.4,18.2 299.8,17.9 300.4,17.6 	"/>
	<polygon class="st1" points="267.1,35.2 267.4,35.7 267.9,36 267.4,36.3 267.1,36.8 266.8,36.3 266.3,36 266.8,35.7 	"/>
	<polygon class="st1" points="257.4,18.5 257.7,19.1 258.2,19.3 257.7,19.6 257.4,20.1 257.1,19.6 256.6,19.3 257.1,19.1 	"/>
	<polygon class="st1" points="242.7,36.6 243,37.1 243.5,37.4 243,37.7 242.7,38.2 242.4,37.7 241.9,37.4 242.4,37.1 	"/>
	<polygon class="st1" points="274.6,67.6 274.9,68.1 275.4,68.4 274.9,68.7 274.6,69.2 274.3,68.7 273.8,68.4 274.3,68.1 	"/>
	<polygon class="st1" points="240.6,92.3 240.9,92.8 241.4,93.1 240.9,93.3 240.6,93.9 240.3,93.3 239.8,93.1 240.3,92.8 	"/>
	<polygon class="st1" points="255.7,102.8 256,103.3 256.5,103.6 256,103.9 255.7,104.4 255.5,103.9 254.9,103.6 255.5,103.3 	"/>
	<polygon class="st1" points="217.4,120.7 217.7,121.2 218.2,121.5 217.7,121.7 217.4,122.3 217.1,121.7 216.6,121.5 217.1,121.2 	
		"/>
	<polygon class="st1" points="135.1,121.5 135.4,122 135.9,122.3 135.4,122.5 135.1,123 134.8,122.5 134.3,122.3 134.8,122 	"/>
	<polygon class="st1" points="96.2,127.2 96.5,127.7 97,128 96.5,128.3 96.2,128.8 95.9,128.3 95.4,128 95.9,127.7 	"/>
	<polygon class="st1" points="125,138.8 125.3,139.4 125.8,139.6 125.3,139.9 125,140.4 124.7,139.9 124.2,139.6 124.7,139.4 	"/>
	<polygon class="st1" points="186.2,128 186.5,128.5 187,128.8 186.5,129.1 186.2,129.6 185.9,129.1 185.4,128.8 185.9,128.5 	"/>
	<polygon class="st1" points="198.1,138 198.4,138.6 198.9,138.8 198.4,139.1 198.1,139.6 197.8,139.1 197.3,138.8 197.8,138.6 	"/>
	<polygon class="st1" points="388.9,128.8 389.2,129.3 389.7,129.6 389.2,129.9 388.9,130.4 388.6,129.9 388.1,129.6 388.6,129.3 	
		"/>
	<polygon class="st1" points="290.6,121.5 290.9,122 291.4,122.3 290.9,122.5 290.6,123 290.3,122.5 289.8,122.3 290.3,122 	"/>
	<polygon class="st1" points="380.8,93.1 381.1,93.6 381.6,93.9 381.1,94.1 380.8,94.7 380.5,94.1 380,93.9 380.5,93.6 	"/>
	<polygon class="st1" points="440.3,138 440.6,138.6 441.1,138.8 440.6,139.1 440.3,139.6 440.1,139.1 439.6,138.8 440.1,138.6 	"/>
	<polygon class="st1" points="423,156.3 423.3,156.8 423.8,157.1 423.3,157.4 423,157.9 422.7,157.4 422.2,157.1 422.7,156.8 	"/>
	<polygon class="st1" points="381.6,129.6 381.8,130.1 382.4,130.4 381.8,130.6 381.6,131.2 381.3,130.6 380.8,130.4 381.3,130.1 	
		"/>
	<polygon class="st1" points="352.9,130.4 353.2,130.9 353.7,131.2 353.2,131.4 352.9,132 352.6,131.4 352.1,131.2 352.6,130.9 	"/>
	<polygon class="st1" points="357.9,73.5 358.2,74 358.7,74.3 358.2,74.6 357.9,75.1 357.6,74.6 357.1,74.3 357.6,74 	"/>
	<polygon class="st1" points="121.1,72.7 121.4,73.2 121.9,73.5 121.4,73.8 121.1,74.3 120.8,73.8 120.3,73.5 120.8,73.2 	"/>
	<polygon class="st1" points="173.2,45.4 173.4,45.9 174,46.2 173.4,46.5 173.2,47 172.9,46.5 172.4,46.2 172.9,45.9 	"/>
	<polygon class="st1" points="197.3,35.2 197.6,35.7 198.1,36 197.6,36.3 197.3,36.8 197,36.3 196.5,36 197,35.7 	"/>
	<polygon class="st1" points="151,16.3 151.3,16.8 151.8,17.1 151.3,17.4 151,17.9 150.7,17.4 150.2,17.1 150.7,16.8 	"/>
	<polygon class="st1" points="222.7,81.1 223,81.7 223.5,81.9 223,82.2 222.7,82.7 222.4,82.2 221.9,81.9 222.4,81.7 	"/>
	<polygon class="st1" points="138.7,76.1 139,76.6 139.5,76.9 139,77.2 138.7,77.7 138.5,77.2 137.9,76.9 138.5,76.6 	"/>
	<polygon class="st1" points="336.6,-10.3 336.9,-9.8 337.4,-9.5 336.9,-9.3 336.6,-8.7 336.3,-9.3 335.8,-9.5 336.3,-9.8 	"/>
	<polygon class="st1" points="441.1,-6.1 441.4,-5.6 441.9,-5.3 441.4,-5.1 441.1,-4.5 440.9,-5.1 440.3,-5.3 440.9,-5.6 	"/>
	<polygon class="st1" points="413.5,55.9 413.8,56.4 414.3,56.7 413.8,57 413.5,57.5 413.3,57 412.7,56.7 413.3,56.4 	"/>
	<polygon class="st1" points="373.8,-27 374,-26.5 374.6,-26.2 374,-25.9 373.8,-25.4 373.5,-25.9 373,-26.2 373.5,-26.5 	"/>
	<polygon class="st1" points="434.3,34.4 434.6,34.9 435.1,35.2 434.6,35.5 434.3,36 434,35.5 433.5,35.2 434,34.9 	"/>
	<polygon class="st1" points="139.5,27 139.8,27.5 140.3,27.8 139.8,28.1 139.5,28.6 139.3,28.1 138.7,27.8 139.3,27.5 	"/>
	<polygon class="st1" points="216.6,99.9 216.9,100.4 217.4,100.7 216.9,101 216.6,101.5 216.3,101 215.8,100.7 216.3,100.4 	"/>
	<polygon class="st1" points="308.8,106.5 309.1,107 309.6,107.3 309.1,107.6 308.8,108.1 308.5,107.6 308,107.3 308.5,107 	"/>
	<polygon class="st1" points="327.6,76.9 327.9,77.4 328.4,77.7 327.9,78 327.6,78.5 327.4,78 326.8,77.7 327.4,77.4 	"/>
	<polygon class="st1" points="334.7,113.6 335,114.1 335.5,114.4 335,114.7 334.7,115.2 334.4,114.7 333.9,114.4 334.4,114.1 	"/>
	<polygon class="st1" points="429.2,138.8 429.5,139.4 430,139.6 429.5,139.9 429.2,140.4 428.9,139.9 428.4,139.6 428.9,139.4 	"/>
	<polygon class="st1" points="281.5,-8.2 282,-7.3 282.9,-6.8 282,-6.3 281.5,-5.3 281,-6.3 280.1,-6.8 281,-7.3 	"/>
	<polygon class="st1" points="310.9,34.5 311.4,35.5 312.3,36 311.4,36.5 310.9,37.4 310.4,36.5 309.5,36 310.4,35.5 	"/>
	<polygon class="st1" points="373.8,-6 374.3,-5 375.2,-4.5 374.3,-4 373.8,-3.1 373.3,-4 372.3,-4.5 373.3,-5 	"/>
	<polygon class="st1" points="435.1,18.7 435.6,19.6 436.6,20.1 435.6,20.6 435.1,21.6 434.6,20.6 433.7,20.1 434.6,19.6 	"/>
	<polygon class="st1" points="391.1,71.3 391.6,72.2 392.5,72.7 391.6,73.2 391.1,74.1 390.6,73.2 389.7,72.7 390.6,72.2 	"/>
	<polygon class="st1" points="262.6,90.5 263.2,91.4 264.1,91.9 263.2,92.4 262.6,93.4 262.1,92.4 261.2,91.9 262.1,91.4 	"/>
	<polygon class="st1" points="179,3.9 179.5,4.8 180.4,5.3 179.5,5.8 179,6.7 178.5,5.8 177.6,5.3 178.5,4.8 	"/>
	<polygon class="st1" points="221.3,39.4 221.8,40.3 222.7,40.8 221.8,41.3 221.3,42.2 220.8,41.3 219.8,40.8 220.8,40.3 	"/>
	<polygon class="st1" points="239.1,80.5 239.6,81.4 240.6,81.9 239.6,82.4 239.1,83.4 238.6,82.4 237.7,81.9 238.6,81.4 	"/>
	<polygon class="st1" points="250.4,67.8 250.9,68.7 251.9,69.2 250.9,69.7 250.4,70.6 249.9,69.7 249,69.2 249.9,68.7 	"/>
	<polygon class="st1" points="168,103.6 168.5,104.5 169.4,105 168.5,105.6 168,106.5 167.5,105.6 166.6,105 167.5,104.5 	"/>
	<polygon class="st1" points="341.4,33.1 341.9,34 342.9,34.5 341.9,35 341.4,36 340.9,35 340,34.5 340.9,34 	"/>
	<polygon class="st1" points="287.6,60.6 288.1,61.6 289,62.1 288.1,62.6 287.6,63.5 287.1,62.6 286.2,62.1 287.1,61.6 	"/>
</g>
<g>
	<g>
		<path class="st2" d="M166.8,199.6c-0.1,0-0.1,0-0.2,0c-7-1.8-10.9-4.6-10.9-7.7c0-5.5,12.5-9.7,28.5-9.7c4.4,0,8.5,0.3,12.4,0.9
			c0.3,0.1,0.6,0.4,0.5,0.7c-0.1,0.3-0.4,0.6-0.7,0.5c-3.8-0.6-7.9-0.9-12.2-0.9c-16.3,0-27.3,4.4-27.3,8.5c0,2.4,3.7,4.8,10,6.5
			c0.3,0.1,0.5,0.4,0.5,0.8C167.4,199.4,167.1,199.6,166.8,199.6z"/>
	</g>
	<g>
		<path class="st2" d="M184.3,197.9c-8.3,0-17.1-2.1-17.1-6c0-3.9,8.8-6,17.1-6c8.3,0,17.1,2.1,17.1,6
			C201.3,195.8,192.5,197.9,184.3,197.9z M184.3,187.2c-9.3,0-15.8,2.5-15.8,4.7c0,2.2,6.5,4.7,15.8,4.7c9.3,0,15.8-2.5,15.8-4.7
			C200,189.7,193.6,187.2,184.3,187.2z"/>
	</g>
	<g>
		<path class="st2" d="M185.2,195c-4.3,0-8.8-1.1-8.8-3.1c0-2,4.5-3.1,8.8-3.1c0.2,0,0.3,0.1,0.3,0.3c0,0.2-0.1,0.3-0.3,0.3
			c-4.8,0-8.1,1.3-8.1,2.4c0,1.2,3.3,2.4,8.1,2.4c0.2,0,0.3,0.1,0.3,0.3C185.5,194.8,185.3,195,185.2,195z"/>
	</g>
</g>
<g>
	<g>
		<path class="st2" d="M359.1,205.6c-5.6,0-11-0.3-16.1-1c-0.5-0.1-0.9-0.6-0.8-1.1c0.1-0.5,0.5-0.9,1.1-0.8c5,0.7,10.4,1,15.8,1
			c24.6,0,41.2-6.6,41.2-12.8c0-2.3-2.4-4.8-6.7-6.8c-0.5-0.2-0.7-0.8-0.5-1.3c0.2-0.5,0.8-0.7,1.3-0.5c5.1,2.5,7.8,5.4,7.8,8.6
			C402.2,199.1,383.2,205.6,359.1,205.6z"/>
	</g>
	<g>
		<path class="st2" d="M332.7,202.6c-0.1,0-0.2,0-0.2,0c-10.6-2.8-16.5-6.9-16.5-11.7c0-8.2,18.9-14.7,43.1-14.7
			c6.6,0,12.9,0.5,18.8,1.4c0.5,0.1,0.9,0.6,0.8,1.1c-0.1,0.5-0.6,0.9-1.1,0.8c-5.8-0.9-12-1.4-18.5-1.4c-24.6,0-41.2,6.6-41.2,12.8
			c0,3.7,5.6,7.3,15.1,9.8c0.5,0.1,0.8,0.7,0.7,1.2C333.5,202.3,333.1,202.6,332.7,202.6z"/>
	</g>
	<g>
		<path class="st2" d="M359.1,199.9c-12.5,0-25.8-3.2-25.8-9.1c0-5.9,13.3-9.1,25.8-9.1c12.5,0,25.8,3.2,25.8,9.1
			C384.8,196.8,371.6,199.9,359.1,199.9z M359.1,183.7c-14.1,0-23.8,3.8-23.8,7.1c0,3.4,9.8,7.1,23.8,7.1c14.1,0,23.8-3.8,23.8-7.1
			C382.9,187.5,373.1,183.7,359.1,183.7z"/>
	</g>
	<g>
		<path class="st2" d="M355.2,195.5c-6.4,0-13.3-1.6-13.3-4.6c0-3,6.8-4.6,13.3-4.6c0.3,0,0.5,0.2,0.5,0.5c0,0.3-0.2,0.5-0.5,0.5
			c-7.2,0-12.3,1.9-12.3,3.7c0,1.7,5,3.7,12.3,3.7c0.3,0,0.5,0.2,0.5,0.5C355.7,195.3,355.4,195.5,355.2,195.5z"/>
	</g>
	<g>
		<path class="st2" d="M371.2,192.7c2.2,0,4.6-0.6,4.6-1.8c0-1.2-2.4-1.8-4.6-1.8c-0.3,0-0.5,0.2-0.5,0.5c0,0.3,0.2,0.5,0.5,0.5
			c2.3,0,3.5,0.6,3.6,0.9c-0.1,0.2-1.3,0.8-3.6,0.8c-0.3,0-0.5,0.2-0.5,0.5C370.7,192.5,370.9,192.7,371.2,192.7z"/>
	</g>
</g>
<g>
	<g>
		<g>
			<polygon class="st3" points="294.9,60.2 295,61.1 226.8,74.1 222.3,52 290.4,38.2 290.6,39.1 288.2,50.1 			"/>
			<polygon class="st4" points="295,61.1 226.9,74.9 222.5,52.9 290.6,39.1 288.3,51 			"/>
			<g>
				<polygon class="st5" points="258.8,68.4 265.4,67.1 282.9,40.6 276.4,41.9 				"/>
				<path class="st5" d="M263.6,44.5L242,48.9c-4.3,6.2-10.4,15.7-15.5,23.8l0.4,2.2L246,71L263.6,44.5z"/>
				<rect x="224.6" y="51.6" transform="matrix(0.98 -0.199 0.199 0.98 -8.0995 46.0859)" class="st6" width="1.2" height="23.4"/>
			</g>
		</g>
		<path class="st7" d="M244.1,155.8c0.1,0.4-0.2,0.8-0.6,0.9l0,0c-0.4,0.1-0.8-0.2-0.9-0.6L221.6,52.4c-0.1-0.4,0.2-0.8,0.6-0.9l0,0
			c0.4-0.1,0.8,0.2,0.9,0.6L244.1,155.8z"/>
	</g>
	<circle class="st4" cx="221.5" cy="48.3" r="3.8"/>
	<circle class="st5" cx="220.5" cy="47" r="1.5"/>
	<circle class="st5" cx="221.9" cy="46.4" r="0.7"/>
	<circle class="st5" cx="222.7" cy="50" r="0.7"/>
</g>
<g>
	<path class="st3" d="M199.2,150.5V128c-1.7-0.2-3.4-0.4-5.1-0.5c-1.7-0.1-3.4-0.2-5.1-0.2c-1.6,0-3.1,0.1-4.6,0.2
		c-1.5,0.1-3,0.3-4.6,0.5v22.5h-20.1l29.1-54l-0.1-4.8c-2.6-2.1-5.4-3.6-8.4-4.6c-3-1-6-1.7-9.2-2l-39.8,80.4v4.4l48.5-2.5v19.7
		c1.7,0.2,3.4,0.4,5.1,0.5c1.7,0.1,3.4,0.2,5.1,0.2c1.6,0,3.1-0.1,4.6-0.2c1.5-0.1,3-0.3,4.6-0.5v-19.7h10.1
		c0.3-1.3,0.5-2.7,0.6-4.2c0.1-1.5,0.2-3,0.2-4.4c0-2.9-0.3-5.7-0.8-8.4H199.2z M378.3,150.5h-10.1V128c-1.7-0.2-3.4-0.4-5.1-0.5
		c-1.7-0.1-3.4-0.2-5.1-0.2c-1.6,0-3.1,0.1-4.6,0.2c-1.5,0.1-3,0.3-4.6,0.5v22.5h-20.1l29-58.8c-2.6-2.1-5.4-3.6-8.4-4.6
		c-3-1-6-1.7-9.2-2l-39.8,80.4l1.3,2h47.3v19.7c1.7,0.2,3.4,0.4,5.1,0.5c1.7,0.1,3.4,0.2,5.1,0.2c1.6,0,3.1-0.1,4.6-0.2
		c1.5-0.1,3-0.3,4.6-0.5v-19.7h10.1c0.3-1.3,0.5-2.7,0.6-4.2c0.1-1.5,0.2-3,0.2-4.4C379.2,156.1,378.9,153.3,378.3,150.5z"/>
	<path class="st3" d="M357.7,91.8v4.9h-1.9l-2.7-1.2c0,0-0.7-1.9-0.6-2.4c0.1-0.5-0.5-1.1,0-1.2"/>
	<path class="st4" d="M199.2,154.5V132c-1.7-0.2-3.4-0.4-5.1-0.5c-1.7-0.1-3.4-0.2-5.1-0.2c-1.6,0-3.1,0.1-4.6,0.2
		c-1.5,0.1-3,0.3-4.6,0.5v22.5h-20.1l29.1-58l-0.1-0.8c-2.6-2.1-5.4-3.6-8.4-4.6c-3-1-6-1.7-9.2-2l-39.8,80.4v0.8l48.5,1.1v19.7
		c1.7,0.2,3.4,0.4,5.1,0.5c1.7,0.1,3.4,0.2,5.1,0.2c1.6,0,3.1-0.1,4.6-0.2c1.5-0.1,3-0.3,4.6-0.5v-19.7h10.1
		c0.3-1.3,0.5-2.7,0.6-4.2c0.1-1.5,0.2-3,0.2-4.4c0-2.9-0.3-5.7-0.8-8.4H199.2z M378.3,154.5h-10.1V132c-1.7-0.2-3.4-0.4-5.1-0.5
		c-1.7-0.1-3.4-0.2-5.1-0.2c-1.6,0-3.1,0.1-4.6,0.2c-1.5,0.1-3,0.3-4.6,0.5v22.5h-20.1l29-57.8v-0.9c-2.6-2.1-5.4-3.6-8.4-4.6
		c-3-1-6-1.7-9.2-2l-39.8,80.4l1.3,2h47.3v19.7c1.7,0.2,3.4,0.4,5.1,0.5c1.7,0.1,3.4,0.2,5.1,0.2c1.6,0,3.1-0.1,4.6-0.2
		c1.5-0.1,3-0.3,4.6-0.5v-19.7h10.1c0.3-1.3,0.5-2.7,0.6-4.2c0.1-1.5,0.2-3,0.2-4.4C379.2,160,378.9,157.2,378.3,154.5z"/>
	<g>
		<path class="st5" d="M358.1,132.1c-1.6,0-3.1,0.1-4.6,0.2c-1.5,0.1-3,0.3-4.6,0.5v20.5l19.4-19.4v-1.1c-1.7-0.2-3.4-0.4-5.1-0.5
			C361.5,132.2,359.8,132.1,358.1,132.1z"/>
		<polygon class="st5" points="346.8,155.3 328.7,155.3 354.9,102.2 313.6,143.5 300.3,170.4 301.5,172.3 329.8,172.3 		"/>
		<polygon class="st5" points="348.8,177.3 370.8,155.3 368.2,155.3 368.2,144.9 340.8,172.3 348.8,172.3 		"/>
		<path class="st5" d="M199.2,144.2v-11.4c-1.7-0.2-3.4-0.4-5.1-0.5c-1.7-0.1-3.4-0.2-5.1-0.2c-1.6,0-3.1,0.1-4.6,0.2
			c-1.5,0.1-3,0.3-4.6,0.5v22.5h-20.1l16.2-32.9l-41.4,41.4l-3.3,6.6l1.3,2H171L199.2,144.2z"/>
		<path class="st5" d="M209.7,157.7c-0.1-0.8-0.2-1.6-0.4-2.4h-10.1v-0.1l-19.4,19.4v13L209.7,157.7z"/>
	</g>
</g>
<g>
	<defs>
		<path id="SVGID_1_" d="M339.9,222c0,10.5-33.2,18.9-74.2,18.9c-41,0-74.2-8.5-74.2-18.9c-6-13.9-14.7-98.7,74.2-98.7
			C361.5,123.3,343.6,212.1,339.9,222z"/>
	</defs>
	<clipPath id="SVGID_2_">
		<use xlink:href="#SVGID_1_"  style="overflow:visible;"/>
	</clipPath>
	<g class="st8">
		<g>
			<g>
				<path class="st3" d="M309.4,152l-9.1,18.3l1.3,2h28.3C324.3,164.4,317.4,157.5,309.4,152z"/>
			</g>
			<g>
				<path class="st3" d="M209.3,172.3c0.3-1.3,0.5-2.7,0.6-4.2c0.1-1.5,0.2-3,0.2-4.4c0-0.6,0-1.2,0-1.8c-3.1,3.2-6,6.7-8.6,10.4
					H209.3z"/>
			</g>
			<g>
				<path class="st3" d="M191.5,192.7c1,0,2-0.1,3-0.2c1.5-0.1,3-0.3,4.6-0.5v-16.1C196,181.2,193.4,186.8,191.5,192.7z"/>
			</g>
		</g>
	</g>
	<circle class="st9" cx="265.7" cy="216.6" r="74.3"/>
	<g class="st10">
		<path class="st11" d="M203.6,175.8c2.2,1.9,4.9,3,7.8,3c3.9,0,7.5-1.9,9.6-5.1c1.1,0.6,2.3,0.9,3.6,0.9c4.2,0,7.7-3.5,7.7-7.7
			c0-4.2-3.5-7.7-7.7-7.7c-1.3,0-2.6,0.3-3.8,1c-0.4-0.6-0.9-1.1-1.5-1.6C213.2,163.4,207.9,169.3,203.6,175.8z"/>
		<path class="st11" d="M248.1,158.2c0,3.8,3.1,6.9,6.9,6.9c3.8,0,6.9-3.1,6.9-6.9c0-3.8-3.1-6.9-6.9-6.9
			C251.2,151.4,248.1,154.4,248.1,158.2z"/>
		<path class="st11" d="M284.2,202.3c0-7-5.7-12.7-12.7-12.7c-1.4,0-2.7,0.2-4,0.7c-5.3-9.1-15.1-14.8-25.7-14.8
			c-16.4,0-29.7,13.3-29.7,29.7c0,16.4,13.3,29.7,29.7,29.7c12.8,0,24.1-8.1,28.2-20.1C277.7,215.9,284.2,209.8,284.2,202.3z"/>
		<path class="st11" d="M270.5,227c0,3.8,3.1,6.9,6.9,6.9s6.9-3.1,6.9-6.9c0-3.8-3.1-6.9-6.9-6.9S270.5,223.2,270.5,227z"/>
		<path class="st11" d="M333.2,234.6c0-5.4-4.4-9.9-9.9-9.9c-2.8,0-5.4,1.2-7.3,3.2c-2.6-5.5-8.1-9.1-14.3-9.1
			c-8.7,0-15.8,7.1-15.8,15.8c0,8.7,7.1,15.8,15.8,15.8c6.2,0,11.7-3.6,14.3-9.1c1.8,2,4.5,3.2,7.2,3.2
			C328.8,244.4,333.2,240,333.2,234.6z"/>
		<path class="st11" d="M307.6,214c0,3.8,3.1,6.9,6.9,6.9c3.8,0,6.9-3.1,6.9-6.9c0-3.8-3.1-6.9-6.9-6.9
			C310.7,207.2,307.6,210.3,307.6,214z"/>
		<path class="st11" d="M294.6,148.1c-5.5,5.8-8.5,13.4-8.5,21.4c0,17.2,14,31.1,31.1,31.1c7,0,13.8-2.4,19.3-6.7
			C329.8,173.3,314.4,156.5,294.6,148.1z"/>
	</g>
	<g class="st8">
		<path class="st12" d="M271.6,190.6c-1.6,0-3.1,0.3-4.4,0.9c-4.9-8.9-14.4-15-25.3-15c-15.9,0-28.8,12.9-28.8,28.8
			c0,15.9,12.9,28.8,28.8,28.8c12.9,0,23.9-8.5,27.5-20.3c0.7,0.1,1.5,0.2,2.2,0.2c6.5,0,11.7-5.2,11.7-11.7
			C283.3,195.9,278.1,190.6,271.6,190.6z"/>
		<circle class="st12" cx="255" cy="158.2" r="5.9"/>
		<circle class="st12" cx="314.5" cy="214" r="5.9"/>
		<circle class="st12" cx="277.4" cy="227" r="5.9"/>
		<path class="st12" d="M317.2,199.7c7.2,0,13.8-2.5,18.9-6.7c-6.7-19.9-21.5-36.1-40.6-44.5c-5.3,5.4-8.5,12.8-8.5,21
			C287,186.2,300.5,199.7,317.2,199.7z"/>
		<path class="st12" d="M323.4,225.7c-3.2,0-5.9,1.7-7.5,4.1c-2-5.9-7.5-10.1-14-10.1c-8.2,0-14.8,6.6-14.8,14.8
			c0,8.2,6.6,14.8,14.8,14.8c6.5,0,12.1-4.2,14-10.1c1.6,2.5,4.3,4.1,7.5,4.1c4.9,0,8.9-4,8.9-8.9
			C332.3,229.7,328.3,225.7,323.4,225.7z"/>
		<path class="st12" d="M220.8,172.4c1.1,0.8,2.4,1.2,3.9,1.2c3.7,0,6.8-3,6.8-6.7c0-3.7-3-6.7-6.8-6.7c-1.5,0-2.9,0.5-4.1,1.4
			c-0.5-0.9-1.2-1.7-2-2.4c-5.5,4.5-10.4,9.9-14.4,15.8c1.9,1.8,4.5,2.9,7.3,2.9C215.4,177.9,218.9,175.7,220.8,172.4z"/>
	</g>
	<path class="st13" d="M308.6,214c0,3.3,2.6,5.9,5.9,5.9c3.3,0,5.9-2.6,5.9-5.9s-2.6-5.9-5.9-5.9C311.2,208.1,308.6,210.8,308.6,214
		z M317.2,199.7c7.2,0,13.8-2.5,18.9-6.7c-6.7-19.9-21.5-36.1-40.6-44.5c-5.3,5.4-8.5,12.8-8.5,21
		C287,186.2,300.5,199.7,317.2,199.7z M255,164.1c3.3,0,5.9-2.6,5.9-5.9c0-3.3-2.6-5.9-5.9-5.9s-5.9,2.6-5.9,5.9
		C249.1,161.5,251.7,164.1,255,164.1z M271.6,190.6c-1.6,0-3.1,0.3-4.4,0.9c-4.9-8.9-14.4-15-25.3-15c-15.9,0-28.8,12.9-28.8,28.8
		c0,15.9,12.9,28.8,28.8,28.8c12.9,0,23.9-8.5,27.5-20.3c0.7,0.1,1.5,0.2,2.2,0.2c6.5,0,11.7-5.2,11.7-11.7
		C283.3,195.9,278.1,190.6,271.6,190.6z M323.4,225.7c-3.2,0-5.9,1.7-7.5,4.1c-2-5.9-7.5-10.1-14-10.1c-8.2,0-14.8,6.6-14.8,14.8
		c0,8.2,6.6,14.8,14.8,14.8c6.5,0,12.1-4.2,14-10.1c1.6,2.5,4.3,4.1,7.5,4.1c4.9,0,8.9-4,8.9-8.9
		C332.3,229.7,328.3,225.7,323.4,225.7z M277.4,221.1c-3.3,0-5.9,2.6-5.9,5.9c0,3.3,2.6,5.9,5.9,5.9c3.3,0,5.9-2.6,5.9-5.9
		C283.3,223.8,280.6,221.1,277.4,221.1z M220.8,172.4c1.1,0.8,2.4,1.2,3.9,1.2c3.7,0,6.8-3,6.8-6.7c0-3.7-3-6.7-6.8-6.7
		c-1.5,0-2.9,0.5-4.1,1.4c-0.5-0.9-1.2-1.7-2-2.4c-5.5,4.5-10.4,9.9-14.4,15.8c1.9,1.8,4.5,2.9,7.3,2.9
		C215.4,177.9,218.9,175.7,220.8,172.4z"/>
	<g class="st10">
		<path class="st12" d="M220.8,172.4c1.1,0.8,2.4,1.2,3.9,1.2c3.7,0,6.8-3,6.8-6.7c0-0.1,0-0.3,0-0.4c-0.2,3.5-3.1,6.4-6.7,6.4
			c-1.4,0-2.8-0.5-3.9-1.2c-1.8,3.2-5.3,5.4-9.3,5.4c-2.7,0-5.1-1-6.9-2.6c-0.1,0.2-0.2,0.3-0.3,0.5c1.9,1.8,4.5,2.9,7.3,2.9
			C215.4,177.9,218.9,175.7,220.8,172.4z"/>
		<path class="st12" d="M314.5,220c3.3,0,5.9-2.6,5.9-5.9c0-0.1,0-0.3,0-0.4c-0.2,3.1-2.8,5.5-5.9,5.5s-5.7-2.4-5.9-5.5
			c0,0.1,0,0.3,0,0.4C308.6,217.3,311.2,220,314.5,220z"/>
		<path class="st12" d="M255,164.1c3.3,0,5.9-2.6,5.9-5.9c0-0.1,0-0.3,0-0.4c-0.2,3.1-2.8,5.5-5.9,5.5c-3.1,0-5.7-2.4-5.9-5.5
			c0,0.1,0,0.3,0,0.4C249.1,161.5,251.7,164.1,255,164.1z"/>
		<path class="st12" d="M277.4,232.2c-3.1,0-5.7-2.4-5.9-5.5c0,0.1,0,0.3,0,0.4c0,3.3,2.6,5.9,5.9,5.9c3.3,0,5.9-2.6,5.9-5.9
			c0-0.1,0-0.3,0-0.4C283.1,229.7,280.5,232.2,277.4,232.2z"/>
		<path class="st12" d="M317.2,198.9c-16.5,0-30-13.3-30.2-29.8c0,0.1,0,0.3,0,0.4c0,16.7,13.5,30.2,30.2,30.2
			c7.2,0,13.8-2.5,18.9-6.7c-0.1-0.2-0.1-0.4-0.2-0.6C330.8,196.5,324.3,198.9,317.2,198.9z"/>
		<path class="st12" d="M323.4,242.7c-3.2,0-5.9-1.7-7.5-4.1c-2,5.9-7.5,10.1-14,10.1c-8.1,0-14.6-6.4-14.8-14.5c0,0.1,0,0.3,0,0.4
			c0,8.2,6.6,14.8,14.8,14.8c6.5,0,12.1-4.2,14-10.1c1.6,2.5,4.3,4.1,7.5,4.1c4.9,0,8.9-4,8.9-8.9c0-0.1,0-0.3,0-0.4
			C332.1,238.9,328.2,242.7,323.4,242.7z"/>
		<path class="st12" d="M271.6,213.3c-0.8,0-1.5-0.1-2.2-0.2c-3.6,11.7-14.6,20.3-27.5,20.3c-15.8,0-28.6-12.7-28.8-28.4
			c0,0.1,0,0.3,0,0.4c0,15.9,12.9,28.8,28.8,28.8c12.9,0,23.9-8.5,27.5-20.3c0.7,0.1,1.5,0.2,2.2,0.2c6.5,0,11.7-5.2,11.7-11.7
			c0-0.1,0-0.3,0-0.4C283.1,208.2,277.9,213.3,271.6,213.3z"/>
	</g>
</g>
<g>
	<path class="st14" d="M265.7,240.9c-39.1,0-71.2-7.7-74-17.5c3.4,37.9,35.2,67.5,74,67.5c38.7,0,70.5-29.7,74-67.5
		C336.8,233.2,304.8,240.9,265.7,240.9z"/>
</g>
<g>
	<path class="st2" d="M223.5,250.5c0,0-0.1,0-0.2,0c-37.6-4.8-61-15.4-61-27.6c0-5.7,5.1-11.1,14.8-15.8c0.6-0.3,1.3,0,1.6,0.5
		c0.3,0.6,0,1.3-0.5,1.6c-8.8,4.2-13.5,9-13.5,13.7c0,10.6,23.7,20.7,58.9,25.2c0.6,0.1,1.1,0.7,1,1.3
		C224.5,250,224,250.5,223.5,250.5z"/>
</g>
<g>
	<path class="st2" d="M251.5,252.7C251.5,252.7,251.5,252.7,251.5,252.7c-4.7-0.2-9.3-0.4-13.8-0.8c-0.6-0.1-1.1-0.6-1.1-1.3
		c0.1-0.6,0.6-1.1,1.3-1.1c4.5,0.4,9.1,0.6,13.7,0.8c0.6,0,1.1,0.6,1.1,1.2C252.6,252.2,252.1,252.7,251.5,252.7z"/>
</g>
<g>
	<path class="st2" d="M265.1,253c-2,0-4,0-5.9,0c-0.6,0-1.2-0.5-1.2-1.2c0-0.6,0.5-1.1,1.2-1.2c1.9,0,3.9,0,5.9,0
		c14.3,0,28.1-0.8,41-2.5c0.6-0.1,1.2,0.4,1.3,1c0.1,0.6-0.4,1.2-1,1.3C293.4,252.2,279.5,253,265.1,253z"/>
</g>
<g>
	<path class="st2" d="M329,246.6c-0.5,0-1-0.4-1.1-0.9c-0.1-0.6,0.2-1.3,0.9-1.4c23.1-5.3,36.8-13.3,36.8-21.4
		c0-4.7-4.7-9.5-13.6-13.7c-0.6-0.3-0.8-1-0.6-1.6c0.3-0.6,1-0.8,1.6-0.5c9.7,4.7,14.9,10.1,14.9,15.8c0,9.4-14.1,18-38.7,23.6
		C329.2,246.6,329.1,246.6,329,246.6z"/>
</g>
<g>
	<path class="st2" d="M265.1,246.6c-32.6,0-62.4-4.9-77.8-12.7c-7.2-3.7-10.8-7.7-10.8-12.1c0-3.6,2.4-7,7.3-10.1
		c0.5-0.4,1.3-0.2,1.6,0.3c0.4,0.5,0.2,1.3-0.3,1.6c-4.1,2.7-6.2,5.4-6.2,8.2c0,3.4,3.3,6.9,9.5,10.1c15.1,7.7,44.5,12.5,76.7,12.5
		c17.2,0,33.8-1.4,48-3.9c0.6-0.1,1.2,0.3,1.4,0.9c0.1,0.6-0.3,1.2-0.9,1.4C299.2,245.2,282.4,246.6,265.1,246.6z"/>
</g>
<path class="st2" d="M339.5,207.9c0.1,0.9,0.2,1.8,0.3,2.8c7.5,3.4,11.6,7.3,11.6,11c0,5.6-8.9,11.3-24.5,15.5
	c-0.6,0.2-1,0.8-0.8,1.4c0.1,0.5,0.6,0.9,1.1,0.9c0.1,0,0.2,0,0.3,0c9.8-2.7,26.2-8.5,26.2-17.8
	C353.7,216.3,348.3,211.7,339.5,207.9z"/>
<g>
	<path class="st2" d="M183.1,202.3c3.3-1.1,6.7-2,10.3-3c0.2-0.9,0.4-1.8,0.7-2.7c-28.5,7-46.7,18.3-46.7,31.2
		c0,6.5,4.5,12.6,13.3,18.2c0.2,0.1,0.4,0.2,0.6,0.2c0.4,0,0.8-0.2,1-0.5c0.3-0.5,0.2-1.3-0.4-1.6c-8-5-12.2-10.6-12.2-16.2
		C149.8,218.4,161.9,209.1,183.1,202.3z"/>
</g>
<g>
	<path class="st2" d="M265.1,266.7c-26.9,0-53.2-3-74-8.5c-0.6-0.2-1-0.8-0.8-1.4c0.2-0.6,0.8-1,1.4-0.8c20.6,5.5,46.7,8.5,73.4,8.5
		c3,0,6.1,0,9.1-0.1c0,0,0,0,0,0c0.6,0,1.2,0.5,1.2,1.1c0,0.6-0.5,1.2-1.1,1.2C271.2,266.7,268.2,266.7,265.1,266.7z"/>
</g>
<g>
	<path class="st2" d="M291.4,265.7c-0.6,0-1.1-0.5-1.2-1.1c0-0.6,0.4-1.2,1.1-1.3c51.7-3.8,89.2-18.8,89.2-35.6
		c0-4.3-2.4-8.5-7.2-12.6c-0.5-0.4-0.6-1.2-0.1-1.6c0.4-0.5,1.2-0.6,1.6-0.1c5.3,4.5,8.1,9.4,8.1,14.4
		C382.8,246.1,345.2,261.7,291.4,265.7C291.4,265.7,291.4,265.7,291.4,265.7z"/>
</g>
<circle class="st2" cx="333.2" cy="288.2" r="2.7"/>
<circle class="st2" cx="351" cy="266.7" r="2.7"/>
<circle class="st2" cx="277.3" cy="278.4" r="2.7"/>
<circle class="st2" cx="214" cy="255.9" r="2.7"/>
<circle class="st2" cx="182.6" cy="250.6" r="2.7"/>
<circle class="st2" cx="280.6" cy="293.5" r="2.7"/>
<circle class="st2" cx="367.8" cy="257.8" r="1"/>
<circle class="st2" cx="398" cy="214.2" r="1"/>
<circle class="st2" cx="158.3" cy="204.3" r="1"/>
<circle class="st2" cx="106.6" cy="223.7" r="1"/>
<circle class="st2" cx="337.2" cy="247.1" r="1"/>
<circle class="st2" cx="351.5" cy="233.5" r="1"/>
<circle class="st2" cx="175.8" cy="266.7" r="1"/>
<circle class="st2" cx="198.2" cy="277.4" r="1"/>
<circle class="st2" cx="242.2" cy="275.3" r="1"/>
<circle class="st2" cx="222.6" cy="274.3" r="1"/>
<circle class="st2" cx="391.6" cy="246.6" r="2.7"/>
<circle class="st2" cx="329" cy="273.2" r="2.7"/>
<circle class="st2" cx="378.9" cy="208.3" r="1.5"/>
<circle class="st2" cx="381.1" cy="249.6" r="1.5"/>
<circle class="st2" cx="145.5" cy="265.7" r="1.5"/>
<circle class="st2" cx="129.2" cy="246.1" r="1.5"/>
<circle class="st2" cx="146" cy="209.6" r="1.5"/>
<circle class="st2" cx="144.6" cy="223.7" r="1.5"/>
<g>
	<g>
		<path class="st2" d="M393.7,305.7c-6.6,0-13.1-0.4-19.1-1.2c-0.6-0.1-1.1-0.7-1-1.3c0.1-0.6,0.7-1.1,1.3-1
			c6,0.8,12.3,1.2,18.8,1.2c29.3,0,49-7.9,49-15.2c0-2.8-2.8-5.7-8-8.1c-0.6-0.3-0.8-1-0.5-1.5c0.3-0.6,1-0.8,1.5-0.5
			c6.1,2.9,9.3,6.4,9.3,10.2C444.9,298,422.4,305.7,393.7,305.7z"/>
	</g>
	<g>
		<path class="st2" d="M362.3,302.1c-0.1,0-0.2,0-0.3,0c-12.6-3.3-19.6-8.2-19.6-13.9c0-9.8,22.5-17.5,51.3-17.5
			c7.8,0,15.4,0.6,22.3,1.7c0.6,0.1,1,0.7,0.9,1.3c-0.1,0.6-0.7,1-1.3,0.9c-6.9-1.1-14.3-1.7-22-1.7c-29.3,0-49,7.9-49,15.2
			c0,4.4,6.7,8.7,17.9,11.6c0.6,0.2,1,0.8,0.8,1.4C363.3,301.7,362.8,302.1,362.3,302.1z"/>
	</g>
	<g>
		<path class="st2" d="M393.7,298.9c-14.9,0-30.6-3.8-30.6-10.8c0-7,15.8-10.8,30.6-10.8c14.9,0,30.6,3.8,30.6,10.8
			C424.3,295.2,408.5,298.9,393.7,298.9z M393.7,279.7c-16.7,0-28.4,4.5-28.4,8.5s11.6,8.5,28.4,8.5c16.7,0,28.3-4.5,28.3-8.5
			S410.4,279.7,393.7,279.7z"/>
	</g>
	<g>
		<path class="st2" d="M395.2,293.7c-7.6,0-15.8-1.9-15.8-5.5c0-3.6,8.1-5.5,15.8-5.5c0.3,0,0.6,0.3,0.6,0.6c0,0.3-0.3,0.6-0.6,0.6
			c-8.6,0-14.6,2.3-14.6,4.4c0,2.1,6,4.4,14.6,4.4c0.3,0,0.6,0.3,0.6,0.6C395.8,293.4,395.6,293.7,395.2,293.7z"/>
	</g>
	<g>
		<path class="st2" d="M395.2,290.3c-0.3,0-0.6-0.3-0.6-0.6c0-0.3,0.3-0.6,0.6-0.6c2.8,0,4.2-0.7,4.3-1c-0.1-0.3-1.5-1-4.3-1
			c-0.3,0-0.6-0.3-0.6-0.6c0-0.3,0.3-0.6,0.6-0.6c2.6,0,5.4,0.7,5.4,2.2C400.7,289.7,397.8,290.3,395.2,290.3z"/>
	</g>
	<g>
		<path class="st2" d="M395.2,290.3c-2.6,0-5.4-0.7-5.4-2.2c0-1.5,2.8-2.2,5.4-2.2c0.3,0,0.6,0.3,0.6,0.6c0,0.3-0.3,0.6-0.6,0.6
			c-2.8,0-4.2,0.7-4.3,1c0.1,0.3,1.5,1,4.3,1c0.3,0,0.6,0.3,0.6,0.6C395.8,290.1,395.6,290.3,395.2,290.3z"/>
	</g>
</g>
<g>
	<g>
		<path class="st2" d="M207.4,290.2c-4.2,0-8.2-0.3-12.1-0.8c-0.4-0.1-0.7-0.4-0.6-0.8c0.1-0.4,0.4-0.7,0.8-0.6
			c3.8,0.5,7.8,0.8,11.9,0.8c18.5,0,30.9-5,30.9-9.6c0-1.7-1.8-3.6-5-5.1c-0.4-0.2-0.5-0.6-0.3-1c0.2-0.4,0.6-0.5,1-0.3
			c3.8,1.8,5.8,4.1,5.8,6.4C239.7,285.4,225.5,290.2,207.4,290.2z"/>
	</g>
	<g>
		<path class="st2" d="M187.6,287.9c-0.1,0-0.1,0-0.2,0c-8-2.1-12.4-5.2-12.4-8.7c0-6.2,14.2-11,32.4-11c4.9,0,9.7,0.4,14.1,1.1
			c0.4,0.1,0.7,0.4,0.6,0.8c-0.1,0.4-0.4,0.7-0.8,0.6c-4.3-0.7-9-1.1-13.9-1.1c-18.5,0-30.9,5-30.9,9.6c0,2.7,4.2,5.5,11.3,7.3
			c0.4,0.1,0.6,0.5,0.5,0.9C188.2,287.7,187.9,287.9,187.6,287.9z"/>
	</g>
	<g>
		<path class="st2" d="M207.4,286c-9.4,0-19.3-2.4-19.3-6.8c0-4.4,10-6.8,19.3-6.8s19.3,2.4,19.3,6.8
			C226.7,283.6,216.7,286,207.4,286z M207.4,273.8c-10.5,0-17.9,2.8-17.9,5.3c0,2.5,7.3,5.3,17.9,5.3c10.5,0,17.9-2.8,17.9-5.3
			C225.3,276.6,217.9,273.8,207.4,273.8z"/>
	</g>
	<g>
		<path class="st2" d="M208.4,282.7c-4.8,0-9.9-1.2-9.9-3.5c0-2.3,5.1-3.5,9.9-3.5c0.2,0,0.4,0.2,0.4,0.4c0,0.2-0.2,0.4-0.4,0.4
			c-5.4,0-9.2,1.5-9.2,2.8c0,1.3,3.8,2.8,9.2,2.8c0.2,0,0.4,0.2,0.4,0.4C208.7,282.5,208.6,282.7,208.4,282.7z"/>
	</g>
	<g>
		<path class="st2" d="M208.4,280.5c-0.2,0-0.4-0.2-0.4-0.4c0-0.2,0.2-0.4,0.4-0.4c1.7,0,2.6-0.5,2.7-0.6c0-0.2-1-0.6-2.7-0.6
			c-0.2,0-0.4-0.2-0.4-0.4c0-0.2,0.2-0.4,0.4-0.4c1.6,0,3.4,0.4,3.4,1.4C211.8,280.1,210,280.5,208.4,280.5z"/>
	</g>
	<g>
		<path class="st2" d="M208.4,280.5c-1.6,0-3.4-0.4-3.4-1.4c0-0.9,1.8-1.4,3.4-1.4c0.2,0,0.4,0.2,0.4,0.4c0,0.2-0.2,0.4-0.4,0.4
			c-1.7,0-2.6,0.5-2.7,0.6c0.1,0.2,1,0.6,2.7,0.6c0.2,0,0.4,0.2,0.4,0.4C208.7,280.4,208.6,280.5,208.4,280.5z"/>
	</g>
</g>
<g>
	<g>
		<path class="st2" d="M112.6,369.4c-2.7,0-5.4-0.2-7.9-0.5c-0.3,0-0.4-0.3-0.4-0.5c0-0.3,0.3-0.4,0.5-0.4c2.5,0.3,5.1,0.5,7.7,0.5
			c12,0,20.1-3.2,20.1-6.2c0-1.1-1.2-2.3-3.3-3.3c-0.2-0.1-0.3-0.4-0.2-0.6c0.1-0.2,0.4-0.3,0.6-0.2c2.5,1.2,3.8,2.6,3.8,4.2
			C133.6,366.2,124.4,369.4,112.6,369.4z"/>
	</g>
	<g>
		<path class="st2" d="M99.7,367.9c0,0-0.1,0-0.1,0c-5.2-1.4-8.1-3.4-8.1-5.7c0-4,9.3-7.2,21.1-7.2c3.2,0,6.3,0.2,9.2,0.7
			c0.3,0,0.4,0.3,0.4,0.5c0,0.3-0.3,0.4-0.5,0.4c-2.8-0.5-5.9-0.7-9-0.7c-12,0-20.1,3.2-20.1,6.3c0,1.8,2.8,3.6,7.4,4.8
			c0.3,0.1,0.4,0.3,0.3,0.6C100.1,367.8,99.9,367.9,99.7,367.9z"/>
	</g>
	<g>
		<path class="st2" d="M112.6,366.6c-6.1,0-12.6-1.6-12.6-4.4c0-2.9,6.5-4.4,12.6-4.4c6.1,0,12.6,1.6,12.6,4.4
			C125.2,365.1,118.7,366.6,112.6,366.6z M112.6,358.7c-6.9,0-11.7,1.8-11.7,3.5c0,1.6,4.8,3.5,11.7,3.5c6.9,0,11.7-1.8,11.7-3.5
			C124.2,360.6,119.4,358.7,112.6,358.7z"/>
	</g>
	<g>
		<path class="st2" d="M113.2,364.5c-3.1,0-6.5-0.8-6.5-2.3c0-1.5,3.3-2.3,6.5-2.3c0.1,0,0.2,0.1,0.2,0.2c0,0.1-0.1,0.2-0.2,0.2
			c-3.5,0-6,0.9-6,1.8c0,0.9,2.5,1.8,6,1.8c0.1,0,0.2,0.1,0.2,0.2C113.4,364.4,113.3,364.5,113.2,364.5z"/>
	</g>
	<g>
		<path class="st2" d="M113.2,363.1c-0.1,0-0.2-0.1-0.2-0.2c0-0.1,0.1-0.2,0.2-0.2c1.1,0,1.7-0.3,1.8-0.4c0-0.1-0.6-0.4-1.8-0.4
			c-0.1,0-0.2-0.1-0.2-0.2c0-0.1,0.1-0.2,0.2-0.2c1.1,0,2.2,0.3,2.2,0.9C115.4,362.8,114.3,363.1,113.2,363.1z"/>
	</g>
	<g>
		<path class="st2" d="M113.2,363.1c-1.1,0-2.2-0.3-2.2-0.9c0-0.6,1.2-0.9,2.2-0.9c0.1,0,0.2,0.1,0.2,0.2c0,0.1-0.1,0.2-0.2,0.2
			c-1.1,0-1.7,0.3-1.8,0.4c0,0.1,0.6,0.4,1.8,0.4c0.1,0,0.2,0.1,0.2,0.2C113.4,363,113.3,363.1,113.2,363.1z"/>
	</g>
</g>
<g>
	<g>
		<path class="st2" d="M335.5,388.1c-1.5,0-3-0.1-4.4-0.3c-0.1,0-0.2-0.2-0.2-0.3c0-0.1,0.1-0.2,0.3-0.2c1.4,0.2,2.8,0.3,4.3,0.3
			c6.7,0,11.1-1.8,11.1-3.5c0-0.6-0.6-1.3-1.8-1.9c-0.1-0.1-0.2-0.2-0.1-0.3c0.1-0.1,0.2-0.2,0.3-0.1c1.4,0.7,2.1,1.5,2.1,2.3
			C347.1,386.4,342,388.1,335.5,388.1z"/>
	</g>
	<g>
		<path class="st2" d="M328.3,387.3C328.3,387.3,328.3,387.3,328.3,387.3c-2.9-0.8-4.5-1.9-4.5-3.2c0-2.2,5.1-4,11.7-4
			c1.8,0,3.5,0.1,5.1,0.4c0.1,0,0.2,0.2,0.2,0.3c0,0.1-0.2,0.2-0.3,0.2c-1.6-0.3-3.2-0.4-5-0.4c-6.7,0-11.1,1.8-11.1,3.5
			c0,1,1.5,2,4.1,2.6c0.1,0,0.2,0.2,0.2,0.3C328.5,387.2,328.4,387.3,328.3,387.3z"/>
	</g>
	<g>
		<path class="st2" d="M335.5,386.6c-3.4,0-7-0.9-7-2.4c0-1.6,3.6-2.4,7-2.4c3.4,0,7,0.9,7,2.4C342.4,385.7,338.8,386.6,335.5,386.6
			z M335.5,382.2c-3.8,0-6.5,1-6.5,1.9c0,0.9,2.6,1.9,6.5,1.9c3.8,0,6.4-1,6.4-1.9C341.9,383.2,339.3,382.2,335.5,382.2z"/>
	</g>
</g>
<g>
	<g>
		<path class="st2" d="M365.2,374.7c-4.2,0-8.3-0.3-12.2-0.8c-0.4-0.1-0.7-0.4-0.6-0.8c0.1-0.4,0.4-0.7,0.8-0.6
			c3.8,0.5,7.8,0.8,12,0.8c18.6,0,31.1-5,31.1-9.7c0-1.8-1.8-3.6-5.1-5.2c-0.4-0.2-0.5-0.6-0.3-1c0.2-0.4,0.6-0.5,1-0.3
			c3.9,1.8,5.9,4.1,5.9,6.5C397.8,369.8,383.5,374.7,365.2,374.7z"/>
	</g>
	<g>
		<path class="st2" d="M345.2,372.4c-0.1,0-0.1,0-0.2,0c-8-2.1-12.5-5.2-12.5-8.8c0-6.2,14.3-11.1,32.6-11.1c5,0,9.8,0.4,14.2,1.1
			c0.4,0.1,0.7,0.4,0.6,0.8c-0.1,0.4-0.4,0.7-0.8,0.6c-4.4-0.7-9.1-1.1-14-1.1c-18.6,0-31.1,5-31.1,9.7c0,2.8,4.3,5.5,11.4,7.4
			c0.4,0.1,0.6,0.5,0.5,0.9C345.9,372.2,345.6,372.4,345.2,372.4z"/>
	</g>
	<g>
		<path class="st2" d="M365.2,370.4c-9.4,0-19.5-2.4-19.5-6.8c0-4.4,10-6.8,19.5-6.8c9.4,0,19.5,2.4,19.5,6.8
			C384.7,368,374.6,370.4,365.2,370.4z M365.2,358.2c-10.6,0-18,2.8-18,5.4c0,2.5,7.4,5.4,18,5.4c10.6,0,18-2.8,18-5.4
			C383.2,361,375.8,358.2,365.2,358.2z"/>
	</g>
	<g>
		<path class="st2" d="M366.2,367.1c-4.9,0-10-1.2-10-3.5c0-2.3,5.2-3.5,10-3.5c0.2,0,0.4,0.2,0.4,0.4c0,0.2-0.2,0.4-0.4,0.4
			c-5.5,0-9.3,1.5-9.3,2.8c0,1.3,3.8,2.8,9.3,2.8c0.2,0,0.4,0.2,0.4,0.4C366.5,366.9,366.4,367.1,366.2,367.1z"/>
	</g>
	<g>
		<path class="st2" d="M366.2,364.9c-0.2,0-0.4-0.2-0.4-0.4c0-0.2,0.2-0.4,0.4-0.4c1.8,0,2.7-0.5,2.7-0.6c0-0.2-1-0.6-2.7-0.6
			c-0.2,0-0.4-0.2-0.4-0.4c0-0.2,0.2-0.4,0.4-0.4c1.7,0,3.4,0.4,3.4,1.4C369.6,364.5,367.8,364.9,366.2,364.9z"/>
	</g>
	<g>
		<path class="st2" d="M366.2,364.9c-1.7,0-3.4-0.4-3.4-1.4c0-0.9,1.8-1.4,3.4-1.4c0.2,0,0.4,0.2,0.4,0.4c0,0.2-0.2,0.4-0.4,0.4
			c-1.8,0-2.7,0.5-2.7,0.6c0.1,0.2,1,0.6,2.7,0.6c0.2,0,0.4,0.2,0.4,0.4C366.5,364.8,366.4,364.9,366.2,364.9z"/>
	</g>
</g>
<g>
	<g>
		<path class="st2" d="M118.8,233c-2,0-4-0.1-5.9-0.4c-0.2,0-0.3-0.2-0.3-0.4c0-0.2,0.2-0.3,0.4-0.3c1.9,0.2,3.8,0.4,5.8,0.4
			c9.1,0,15.2-2.4,15.2-4.7c0-0.9-0.9-1.8-2.5-2.5c-0.2-0.1-0.3-0.3-0.2-0.5c0.1-0.2,0.3-0.3,0.5-0.2c1.9,0.9,2.9,2,2.9,3.2
			C134.6,230.6,127.7,233,118.8,233z"/>
	</g>
	<g>
		<path class="st2" d="M109.1,231.9C109,231.9,109,231.9,109.1,231.9c-4-1-6.2-2.6-6.2-4.3c0-3,7-5.4,15.9-5.4
			c2.4,0,4.8,0.2,6.9,0.5c0.2,0,0.3,0.2,0.3,0.4c0,0.2-0.2,0.3-0.4,0.3c-2.1-0.3-4.4-0.5-6.8-0.5c-9.1,0-15.2,2.4-15.2,4.7
			c0,1.3,2.1,2.7,5.5,3.6c0.2,0,0.3,0.2,0.3,0.4C109.4,231.8,109.2,231.9,109.1,231.9z"/>
	</g>
	<g>
		<path class="st2" d="M118.8,230.9c-4.6,0-9.5-1.2-9.5-3.3c0-2.2,4.9-3.3,9.5-3.3c4.6,0,9.5,1.2,9.5,3.3
			C128.3,229.8,123.4,230.9,118.8,230.9z M118.8,225c-5.2,0-8.8,1.4-8.8,2.6c0,1.2,3.6,2.6,8.8,2.6c5.2,0,8.8-1.4,8.8-2.6
			C127.6,226.3,124,225,118.8,225z"/>
	</g>
	<g>
		<path class="st2" d="M119.3,229.3c-2.4,0-4.9-0.6-4.9-1.7c0-1.1,2.5-1.7,4.9-1.7c0.1,0,0.2,0.1,0.2,0.2s-0.1,0.2-0.2,0.2
			c-2.7,0-4.5,0.7-4.5,1.4c0,0.6,1.9,1.4,4.5,1.4c0.1,0,0.2,0.1,0.2,0.2C119.4,229.2,119.4,229.3,119.3,229.3z"/>
	</g>
	<g>
		<path class="st2" d="M119.3,228.3c-0.1,0-0.2-0.1-0.2-0.2c0-0.1,0.1-0.2,0.2-0.2c0.9,0,1.3-0.2,1.3-0.3c0-0.1-0.5-0.3-1.3-0.3
			c-0.1,0-0.2-0.1-0.2-0.2c0-0.1,0.1-0.2,0.2-0.2c0.8,0,1.7,0.2,1.7,0.7C120.9,228,120.1,228.3,119.3,228.3z"/>
	</g>
	<g>
		<path class="st2" d="M119.3,228.3c-0.8,0-1.7-0.2-1.7-0.7c0-0.5,0.9-0.7,1.7-0.7c0.1,0,0.2,0.1,0.2,0.2c0,0.1-0.1,0.2-0.2,0.2
			c-0.9,0-1.3,0.2-1.3,0.3c0,0.1,0.5,0.3,1.3,0.3c0.1,0,0.2,0.1,0.2,0.2C119.4,228.2,119.4,228.3,119.3,228.3z"/>
	</g>
</g>
<g>
	<g class="st15">
		<path class="st16" d="M307.3,162.5c15.4,12.8,25.5,29.3,26.5,49.6c0.5,9.2-13.8,9.2-14.3,0c-0.8-16.6-9.8-29.2-22.3-39.5
			C290.1,166.7,300.3,156.6,307.3,162.5L307.3,162.5z"/>
	</g>
	<g class="st15">
		<path class="st16" d="M284.8,164.4c-0.5-0.3-1-0.6-1.5-0.8c-0.7-0.3-0.7-0.3,0.2,0c-0.3-0.1-0.7-0.3-1-0.4
			c-1.4-0.5-2.7-0.9-4.1-1.4c-3.7-1.3-6.1-4.8-5-8.8c1-3.5,5.1-6.3,8.8-5c3.4,1.2,6.8,2.2,9.9,4c3.3,2,4.5,6.4,2.6,9.8
			C292.6,165.1,288.2,166.4,284.8,164.4L284.8,164.4z"/>
	</g>
	<g class="st15">
		<path class="st16" d="M210.7,214.9c-0.1-0.6-0.1-1.1-0.2-1.7c0-0.8,0-0.8,0,0.2c0-0.4,0-0.7,0-1.1c0.1-1.4,0.2-2.9,0.3-4.3
			c0.2-3.9-2.1-7.5-6.2-8c-3.6-0.5-7.8,2.3-8,6.2c-0.2,3.6-0.7,7.1-0.2,10.7c0.5,3.9,4.1,6.7,8,6.2
			C208.3,222.4,211.2,218.8,210.7,214.9L210.7,214.9z"/>
	</g>
</g>
<polygon class="st1" points="22,83.4 23,85.2 24.7,86.1 23,87.1 22,88.8 21.1,87.1 19.4,86.1 21.1,85.2 "/>
<path class="st17" d="M280.2,145.5c0-0.8-1-1.5-2.8-2.1c0,0,0.1-0.1,0.1-0.1c-0.2,0-0.4-0.1-0.6-0.1c-2.8-0.9-7.1-1.4-11.9-1.4
	c-5.5,0-10.3,0.7-13,1.8c-1.6,0.3-3.3,0.7-4.9,1.1c-0.5,1.4-0.9,3-1.1,5c-0.9,0.2-1.4,0.5-1.4,0.9l-0.4,6.5c0,0-1.7,2.8-1.8,6.5
	c0,0-0.2,0.9,1.4,1.2c0,0,6.1,1.1,10.7-4.5l0.6-9.2c0-0.4-0.5-0.7-1.3-1c0.1-0.8,0.2-1.5,0.3-2c1.9,0.5,4.3,0.8,7.1,1
	c0,0.5-0.1,1.1-0.1,1.7c-0.8,0.3-1.3,0.7-1.3,1.1l0.3,6.5c0,0-1.4,3-1.1,6.7c0,0,0,1,1.5,1.1c0,0,6.2,0.5,10.2-5.6l-0.4-9.2
	c0-0.4-0.5-0.7-1.4-0.9c0-0.5,0-0.9,0-1.3C275.4,148.6,280.2,147.2,280.2,145.5z"/>
<g>
	<path class="st2" d="M281.7,135.2c0,5.9-4.8,10.7-10.7,10.7l0,0c-5.9,0-10.7-4.8-10.7-10.7v-9.6c0-5.9,4.8-10.7,10.7-10.7l0,0
		c5.9,0,10.7,4.8,10.7,10.7V135.2z"/>
	<path class="st18" d="M281.7,131.2v-5.6c0-0.7-0.1-1.4-0.2-2.1c-0.2,0.4-0.3,0.8-0.4,1.3c-1.1,1-2.5,2.1-3.9,2.8
		c0.2-0.4,0.3-0.9,0.3-1.4c0-0.2,0-0.5-0.1-0.7c1.4-1,2.6-2.2,3.5-3.7c-1.5-4-5.4-6.9-10-6.9c-5.9,0-10.7,4.8-10.7,10.7v9.6
		c0,5.7,4.4,10.3,10.1,10.7c0.3-0.6,0.6-1,0.8-1.2c0.2-0.1,0.4-0.3,0.6-0.4c0.1,0,0.1-0.1,0.2-0.1c0.6-0.4,1.1-0.9,1.6-1.4
		c0.1-0.1,0.2-0.2,0.2-0.2c0.1-0.1,0.2-0.3,0.4-0.4c0.1-0.1,0.2-0.2,0.3-0.4c0.1-0.1,0.2-0.3,0.3-0.4c0.2-0.2,0.3-0.5,0.5-0.8
		c0.1-0.1,0.1-0.2,0.2-0.4c0.1-0.2,0.2-0.4,0.3-0.6c0.1-0.1,0.1-0.2,0.2-0.4c0.1-0.2,0.2-0.5,0.3-0.7c0-0.1,0.1-0.2,0.1-0.2
		c0.1-0.3,0.2-0.6,0.3-1c0-0.1,0-0.2,0.1-0.3c0-0.3,0.1-0.5,0.1-0.8c0-0.1,0-0.2,0-0.3c0-0.4,0.1-0.7,0.1-1.1v-1.1
		c1.3-0.4,2.6-0.9,3.7-1.6C280.7,131.8,281.2,131.5,281.7,131.2z"/>
	<g>
		<g>
			<g>
				<path class="st19" d="M249.5,133.2c-5.5,0-10.6-2.2-10.9-2.3c-1.4-0.6-2-2.2-1.4-3.6c0.6-1.4,2.2-2,3.6-1.4
					c2.1,0.9,8.3,2.9,12.5,1.2c1.4-0.5,3,0.1,3.5,1.5c0.5,1.4-0.1,3-1.5,3.5C253.5,132.9,251.5,133.2,249.5,133.2z"/>
			</g>
			<path class="st20" d="M250.7,133.1c1.6-0.1,3.2-0.4,4.7-1c0.7-0.3,1.2-0.8,1.5-1.4l0.2-1.6c0-0.2-0.1-0.3-0.1-0.5
				c0-0.1-0.1-0.1-0.1-0.2l-1-1.1c-0.7-0.4-1.6-0.5-2.4-0.2c-0.8,0.3-1.7,0.5-2.6,0.6C251.2,128.5,252.4,131.1,250.7,133.1z"/>
			<g>
				<path class="st21" d="M245.7,130.5c-0.6,1.9-2.6,2.9-4.5,2.3l-3.8-1.1c-1.9-0.6-2.9-2.6-2.3-4.5l0,0c0.6-1.9,2.6-2.9,4.5-2.3
					l3.8,1.1C245.3,126.6,246.3,128.6,245.7,130.5L245.7,130.5z"/>
				<g>
					<path class="st22" d="M240.4,123.5c1.5,1,1.9,3,0.9,4.5l-1.7,2.5c-1,1.5-3,1.9-4.5,0.9l-2.5-1.7c-1.5-1-1.9-3-0.9-4.5l1.7-2.5
						c1-1.5,3-1.9,4.5-0.9L240.4,123.5z"/>
				</g>
				<g>
					<path class="st22" d="M232.6,126.1c0.8,0.3,1.2,1.2,0.8,2l0,0c-0.3,0.8-1.2,1.2-2,0.8l-4.2-1.7c-0.8-0.3-1.2-1.2-0.8-2l0,0
						c0.3-0.8,1.2-1.2,2-0.8L232.6,126.1z"/>
				</g>
				<g>
					<path class="st22" d="M234.6,123.5c0.6,0.6,1.6,0.6,2.2,0l0,0c0.6-0.6,0.6-1.6,0-2.2l-3.2-3.2c-0.6-0.6-1.6-0.6-2.2,0l0,0
						c-0.6,0.6-0.6,1.6,0,2.2L234.6,123.5z"/>
				</g>
				<g>
					<path class="st22" d="M233.9,123.2c0.7,0.5,0.9,1.4,0.4,2.1l0,0c-0.5,0.7-1.4,0.9-2.1,0.4l-3.7-2.5c-0.7-0.5-0.9-1.4-0.4-2.1
						l0,0c0.5-0.7,1.4-0.9,2.1-0.4L233.9,123.2z"/>
				</g>
				<g>
					<path class="st22" d="M241.7,127.5c-0.5,0.7-1.4,1-2.2,0.5c-0.8-0.4-1.1-1.4-0.7-2.2c1.3-2.3-0.3-4.6-0.4-4.6
						c-0.5-0.7-0.3-1.8,0.4-2.3c0.7-0.5,1.8-0.3,2.3,0.4c0.1,0.2,2.8,4,0.6,8.1C241.7,127.4,241.7,127.4,241.7,127.5z"/>
				</g>
				<g>
					<g>
						<path class="st21" d="M237.3,128.9c-0.2,0-0.4-0.1-0.5-0.4c-1.3-4,1.2-5.9,1.3-5.9c0.2-0.2,0.6-0.1,0.8,0.1
							c0.2,0.2,0.1,0.6-0.1,0.8l0,0c-0.1,0.1-2,1.5-0.9,4.7c0.1,0.3-0.1,0.6-0.3,0.7C237.5,128.9,237.4,128.9,237.3,128.9z"/>
					</g>
					<g>
						<path class="st21" d="M235,128.2c-0.1,0-0.2,0-0.3-0.1c-0.2-0.2-0.3-0.5-0.1-0.8c0.9-1,2.3-1,2.4-1c0.3,0,0.5,0.3,0.5,0.6
							c0,0.3-0.3,0.5-0.6,0.5c0,0-1,0-1.5,0.6C235.4,128.1,235.2,128.2,235,128.2z"/>
					</g>
					<g>
						<path class="st21" d="M231.6,127.2c0,0-0.1,0-0.1,0c-0.3-0.1-0.5-0.3-0.4-0.6c0.6-3,2.2-4.4,2.9-5c0.1-0.1,0.1-0.1,0.2-0.1
							c0.1-0.1,0.2-0.3,0.4-0.3c0.3-0.1,0.6,0.1,0.7,0.4c0.1,0.4-0.2,0.6-0.5,0.9c-0.6,0.5-2,1.7-2.5,4.4
							C232.1,127.1,231.8,127.2,231.6,127.2z"/>
					</g>
				</g>
			</g>
			<g>
				<g>
					<g>
						<path class="st22" d="M244.3,146.9l-1.1,6.4c0,0-2,2.6-2.6,6.3c0,0-0.3,0.9,1.2,1.4c0,0,5.9,1.8,11.1-3.2l1.6-9l-1.5,0.5
							l-1.9-0.2l-3.8-0.9l-2.3-1L244.3,146.9z"/>
						
							<ellipse transform="matrix(0.9846 0.1748 -0.1748 0.9846 29.6742 -41.3174)" class="st23" cx="249.4" cy="147.8" rx="5.2" ry="1.5"/>
						<path class="st24" d="M254.6,135.5c-0.6,0-1.2,0.1-1.8,0.4l0,0c-0.6,0.3-5.7,2.7-7.2,11.1c0,0,0,0,0,0c0,0,0,0,0,0
							c-0.1,0.5,1.5,1.2,3.6,1.6c2.1,0.4,3.9,0.3,4-0.2c0,0,0,0,0,0c0,0,0,0,0,0c0.6-3.9,2-5.2,2.5-5.6c1.3-0.5,2.3-1.8,2.4-3.3
							C258.3,137.4,256.7,135.6,254.6,135.5z"/>
						<path class="st20" d="M256.1,139.5l-0.9-1.8l-3.2-1.4l0,0c0,0-0.5,4.6,2.6,7.8c0.5-0.8,0.9-1.2,1.1-1.3
							c0.7-0.3,1.4-0.8,1.8-1.5L256.1,139.5z"/>
					</g>
					
						<ellipse transform="matrix(0.8569 0.5155 -0.5155 0.8569 108.8459 -108.6275)" class="st23" cx="250.1" cy="141.7" rx="2.2" ry="3"/>
					
						<ellipse transform="matrix(0.8566 0.516 -0.516 0.8566 108.6772 -108.4769)" class="st5" cx="249.5" cy="141.3" rx="1.2" ry="1.6"/>
					
						<ellipse transform="matrix(0.8565 0.5162 -0.5162 0.8565 108.5133 -108.3967)" class="st3" cx="249.2" cy="140.9" rx="0.6" ry="0.7"/>
					<path class="st25" d="M249.5,156.5c-0.2,1.4,0.5,2.4,1.5,2.2c1-0.2,1.9-1.5,2.1-3c0.2-1.4-0.5-2.4-1.5-2.2
						C250.6,153.7,249.7,155.1,249.5,156.5z"/>
					<path class="st24" d="M249.9,156.4c-0.1,1.1,0.4,1.9,1.1,1.7c0.8-0.2,1.5-1.2,1.6-2.3c0.1-1.1-0.4-1.9-1.1-1.7
						C250.8,154.3,250.1,155.3,249.9,156.4z"/>
					<path class="st22" d="M250.3,156.4c-0.1,0.8,0.3,1.4,0.8,1.3c0.6-0.1,1.1-0.9,1.2-1.7c0.1-0.8-0.3-1.4-0.8-1.3
						C250.9,154.8,250.4,155.6,250.3,156.4z"/>
					<path class="st5" d="M250.7,156.3c-0.1,0.5,0.2,0.8,0.5,0.7c0.3-0.1,0.6-0.5,0.7-1c0.1-0.5-0.2-0.8-0.5-0.7
						C251.1,155.4,250.8,155.8,250.7,156.3z"/>
				</g>
				<path class="st16" d="M275.5,134.8c0,6.5-5.3,11.8-11.8,11.8l0,0c-6.5,0-11.8-5.3-11.8-11.8v-10.5c0-6.5,5.3-11.8,11.8-11.8l0,0
					c6.5,0,11.8,5.3,11.8,11.8V134.8z"/>
				<path class="st20" d="M259.4,145.7c1.3,0.5,2.7,0.8,4.1,0.8c1.1-0.5,1.5-1.2,1.5-1.2l1.6-2.6l0.8-1.8l1.3-1.2l-1.4-2.1
					C267.3,137.6,261.4,138.5,259.4,145.7z"/>
				<path class="st24" d="M263.7,112.5c-1.1,0-2.1,0.2-3.1,0.4c5,1.4,8.6,5.9,8.6,11.3v10.5c0,2.9-1,5.5-2.8,7.6
					c0.6,0.4,1.2,0.9,1.5,1.6c0.3,0.5,0.5,1,0.6,1.6c4.1-1.9,6.9-5.9,6.9-10.7v-10.5C275.5,117.7,270.2,112.5,263.7,112.5z"/>
				<circle class="st24" cx="269.6" cy="130.4" r="2.2"/>
				<circle class="st24" cx="269.6" cy="132.7" r="1.1"/>
				<g>
					<path class="st26" d="M284,107.7c-1.7,7.8-11.7,12.3-19.5,10.6l-7.3-1.6c-7.8-1.7-12.8-9.5-11.1-17.3l0,0
						c1.7-7.8,9.5-12.8,17.3-11.1l9.1,2C280.4,92,285.7,99.9,284,107.7L284,107.7z"/>
					<path class="st5" d="M276.4,126.2c0,1.9-1.5,3.4-3.5,3.4h-18.5c-1.9,0-3.5-1.5-3.5-3.4l0,0c0-1.9,1.5-3.5,3.5-3.5H273
						C274.9,122.7,276.4,124.3,276.4,126.2L276.4,126.2z"/>
					<path class="st3" d="M273,122.7h-18.5c-1.9,0-3.5,1.5-3.5,3.5c0,0.1,0,0.2,0,0.3c0.2,0,0.4,0.1,0.6,0.1l13.4,1.9
						c4.2,0.6,8.3-0.7,11.3-3.3C275.9,123.8,274.5,122.7,273,122.7z"/>
					<path class="st16" d="M282,116.9c-1.7,7.8-9.4,12.7-17.1,11l-13.2-2.9c-7.8-1.7-12.7-9.4-11-17.1l1.8-8.1
						c1.7-7.8,9.4-12.7,17.1-11l13.2,2.9c7.8,1.7,12.7,9.4,11,17.1L282,116.9z"/>
					<path class="st26" d="M256.4,88.5l15.6,3.4l-1.5-2.1l-7-1.5C261,87.8,258.6,87.9,256.4,88.5z"/>
					<path class="st26" d="M271.6,91.4l-11.9-2.6c-7.8-1.7-15.4,3.2-17.1,11l-1.8,8.1c-0.8,3.8-0.1,7.6,1.8,10.6
						c0.1,0,0.1,0,0.2,0.1l9.9,2.2c10,2.2,20-4.2,22.2-14.2C276,101.2,274.8,95.7,271.6,91.4z"/>
					<path class="st22" d="M269.6,91l-10-2.2c-7.8-1.7-15.4,3.2-17.1,11l-1.8,8.1c-0.7,3.2-0.3,6.4,1,9.1c0.4,0.1,0.8,0.3,1.3,0.3
						l9.9,2.2c9.4,2.1,18.7-3.9,20.7-13.3C274.9,100.6,273.2,95,269.6,91z"/>
					<g>
						<path class="st27" d="M273.6,106.2c0.1-0.6,0.2-1.3,0.3-1.9l-23,14.8l2,0.4c1.7,0.4,3.4,0.5,5.1,0.3l13.8-8.8
							C272.6,109.6,273.3,108,273.6,106.2z"/>
						<path class="st27" d="M269.6,91l-1.8-0.4L240.7,108c-0.7,3.2-0.2,6.3,1,9c0.4,0.1,0.8,0.3,1.3,0.3l1.3,0.3l29.3-18.8
							C273,95.9,271.6,93.2,269.6,91z"/>
						<polygon class="st27" points="241.4,105 264.8,89.9 261.6,89.2 242.1,101.8 						"/>
					</g>
					<g>
						<circle class="st16" cx="270.4" cy="113.4" r="7.8"/>
						<circle class="st26" cx="270.4" cy="113.4" r="7"/>
						<circle class="st5" cx="270.4" cy="113.4" r="4.9"/>
						<circle class="st22" cx="270.4" cy="113.4" r="3.2"/>
						<circle class="st3" cx="270.4" cy="113.4" r="1.9"/>
					</g>
					<path class="st5" d="M258,123.5c-0.1,0.3-0.4,0.5-0.7,0.5l-3.2-0.7c-0.3-0.1-0.5-0.4-0.5-0.7l0,0c0.1-0.3,0.4-0.5,0.7-0.5
						l3.2,0.7C257.8,122.9,258,123.2,258,123.5L258,123.5z"/>
					<g>
						<g>
							<g>
								<path class="st5" d="M260.9,124.2c-0.1,0.3-0.4,0.5-0.7,0.5l-0.3-0.1c-0.3-0.1-0.5-0.4-0.5-0.7l0,0c0.1-0.3,0.4-0.5,0.7-0.5
									l0.3,0.1C260.8,123.5,261,123.8,260.9,124.2L260.9,124.2z"/>
							</g>
							<g>
								<path class="st5" d="M261.3,122.4c-0.1,0.3-0.4,0.5-0.7,0.5l-0.3-0.1c-0.3-0.1-0.5-0.4-0.5-0.7l0,0c0.1-0.3,0.4-0.5,0.7-0.5
									l0.3,0.1C261.1,121.8,261.3,122.1,261.3,122.4L261.3,122.4z"/>
							</g>
							<g>
								<path class="st5" d="M263.1,122.8c-0.1,0.3-0.4,0.5-0.7,0.5l-0.3-0.1c-0.3-0.1-0.5-0.4-0.5-0.7l0,0c0.1-0.3,0.4-0.5,0.7-0.5
									l0.3,0.1C262.9,122.2,263.1,122.5,263.1,122.8L263.1,122.8z"/>
							</g>
							<g>
								<path class="st5" d="M262.7,124.6c-0.1,0.3-0.4,0.5-0.7,0.5l-0.3-0.1c-0.3-0.1-0.5-0.4-0.5-0.7l0,0c0.1-0.3,0.4-0.5,0.7-0.5
									l0.3,0.1C262.6,123.9,262.8,124.2,262.7,124.6L262.7,124.6z"/>
							</g>
						</g>
					</g>
					<path class="st28" d="M249.1,98.1c-0.2,1-1.2,1.7-2.3,1.5l0,0c-1-0.2-1.7-1.2-1.5-2.3l0.4-1.9c0.2-1,1.2-1.7,2.3-1.5l0,0
						c1,0.2,1.7,1.2,1.5,2.3L249.1,98.1z"/>
					<path class="st28" d="M246.4,110.5c-0.2,1-1.2,1.7-2.3,1.5l0,0c-1-0.2-1.7-1.2-1.5-2.3l1.5-7c0.2-1,1.2-1.7,2.3-1.5l0,0
						c1,0.2,1.7,1.2,1.5,2.3L246.4,110.5z"/>
				</g>
				<g>
					<g>
						<path class="st22" d="M259.2,149.9l-0.4,6.5c0,0-1.7,2.8-1.9,6.5c0,0-0.2,0.9,1.4,1.2c0,0,6.1,1.2,10.7-4.4l0.6-9.2l-1.4,0.7
							l-1.9,0l-3.9-0.4l-2.4-0.8L259.2,149.9z"/>
						
							<ellipse transform="matrix(0.9976 6.894497e-002 -6.894497e-002 0.9976 10.9881 -17.87)" class="st23" cx="264.4" cy="150.3" rx="5.2" ry="1.5"/>
						<path class="st24" d="M268.2,137.4c-0.6,0-1.2,0.2-1.7,0.6l0,0c-0.6,0.3-5.4,3.2-6,11.8c0,0,0,0,0,0c0,0,0,0,0,0
							c0,0.5,1.7,1.1,3.8,1.2c2.1,0.1,3.9-0.2,3.9-0.7c0,0,0,0,0,0c0,0,0,0,0,0c0.2-3.9,1.4-5.4,1.9-5.8c1.3-0.7,2.1-2,2.1-3.5
							C272.1,138.9,270.3,137.3,268.2,137.4z"/>
						<g>
							<path class="st16" d="M266.8,150.2c-0.1,0-0.3-0.1-0.3-0.3c0-0.2,0-5.7,4.1-8.4c0.1-0.1,0.3,0,0.4,0.1c0.1,0.1,0,0.3-0.1,0.4
								c-3.8,2.5-3.8,7.9-3.8,8C267,150,266.9,150.2,266.8,150.2z"/>
						</g>
					</g>
					
						<ellipse transform="matrix(0.9068 0.4215 -0.4215 0.9068 85.382 -98.0102)" class="st23" cx="264.4" cy="144.1" rx="2.2" ry="3"/>
					
						<ellipse transform="matrix(0.9069 0.4214 -0.4214 0.9069 85.1328 -97.7636)" class="st5" cx="263.8" cy="143.8" rx="1.2" ry="1.6"/>
					
						<ellipse transform="matrix(0.9067 0.4218 -0.4218 0.9067 85.0828 -97.7285)" class="st3" cx="263.5" cy="143.5" rx="0.6" ry="0.7"/>
					<path class="st25" d="M265.4,158.9c0,1.4,0.7,2.4,1.7,2.1c1-0.3,1.8-1.7,1.8-3.2c0-1.4-0.7-2.4-1.7-2.1
						C266.2,156,265.4,157.5,265.4,158.9z"/>
					<path class="st24" d="M265.8,158.8c0,1.1,0.6,1.8,1.3,1.6c0.7-0.2,1.3-1.3,1.4-2.4c0-1.1-0.6-1.8-1.3-1.6
						C266.5,156.6,265.8,157.7,265.8,158.8z"/>
					<path class="st22" d="M266.2,158.7c0,0.8,0.4,1.3,1,1.2c0.5-0.2,1-1,1-1.8c0-0.8-0.4-1.3-1-1.2
						C266.6,157.1,266.2,157.9,266.2,158.7z"/>
					<path class="st5" d="M266.6,158.5c0,0.5,0.2,0.8,0.6,0.7c0.3-0.1,0.6-0.6,0.6-1c0-0.5-0.2-0.8-0.6-0.7
						C266.9,157.6,266.6,158.1,266.6,158.5z"/>
				</g>
			</g>
			<path class="st22" d="M276,116.3"/>
			<g>
				<g>
					<path class="st16" d="M279.2,132.1c4.8-2.8,8.1-7.2,8.3-7.4c0.9-1.2,0.6-2.9-0.6-3.8c-1.2-0.9-2.9-0.6-3.8,0.6
						c-1.3,1.8-5.8,6.6-10.3,7.3c-1.5,0.2-2.5,1.6-2.3,3.1c0.2,1.5,1.6,2.5,3.1,2.3C275.6,133.8,277.5,133.1,279.2,132.1z"/>
				</g>
				<g>
					<path class="st21" d="M281.1,127.8c1.5,1.3,3.7,1.2,5.1-0.3l2.7-2.9c1.3-1.5,1.2-3.7-0.3-5.1l0,0c-1.5-1.3-3.7-1.2-5.1,0.3
						l-2.7,2.9C279.5,124.2,279.7,126.5,281.1,127.8L281.1,127.8z"/>
					<g>
						<path class="st22" d="M282.3,119.2c-0.8,1.6-0.2,3.6,1.4,4.4l2.7,1.4c1.6,0.8,3.6,0.2,4.4-1.4l1.4-2.7
							c0.8-1.6,0.2-3.6-1.4-4.4l-2.7-1.4c-1.6-0.8-3.6-0.2-4.4,1.4L282.3,119.2z"/>
					</g>
					<g>
						<path class="st22" d="M290.4,117.6c-0.5,0.7-0.4,1.6,0.3,2.2l0,0c0.7,0.5,1.6,0.4,2.2-0.3l2.8-3.5c0.5-0.7,0.4-1.6-0.3-2.2
							l0,0c-0.7-0.5-1.6-0.4-2.2,0.3L290.4,117.6z"/>
					</g>
					<g>
						<path class="st22" d="M287.3,116.3c-0.2,0.8-1.1,1.3-1.9,1l0,0c-0.8-0.2-1.3-1.1-1-1.9l1.2-4.3c0.2-0.8,1.1-1.3,1.9-1l0,0
							c0.8,0.2,1.3,1.1,1,1.9L287.3,116.3z"/>
					</g>
					<g>
						<path class="st22" d="M287.7,115.6c-0.4,0.8-0.1,1.7,0.7,2.1l0,0c0.8,0.4,1.7,0.1,2.1-0.7l2-4c0.4-0.8,0.1-1.7-0.7-2.1l0,0
							c-0.8-0.4-1.7-0.1-2.1,0.7L287.7,115.6z"/>
					</g>
					<g>
						<path class="st22" d="M283.1,123.2c0.8,0.4,1.7,0.1,2.1-0.6c0.5-0.8,0.2-1.8-0.5-2.3c-2.2-1.4-2-4.2-2-4.2
							c0.1-0.9-0.6-1.7-1.5-1.8c-0.9-0.1-1.7,0.6-1.8,1.5c0,0.2-0.4,4.9,3.5,7.3C283.1,123.2,283.1,123.2,283.1,123.2z"/>
					</g>
					<g>
						<g>
							<path class="st21" d="M287.6,122.3c0.2-0.1,0.3-0.3,0.3-0.6c-0.8-4.2-3.9-4.5-4.1-4.5c-0.3,0-0.6,0.2-0.6,0.5
								c0,0.3,0.2,0.6,0.5,0.6l0,0c0.1,0,2.4,0.3,3.1,3.6c0.1,0.3,0.3,0.5,0.6,0.4C287.5,122.4,287.6,122.4,287.6,122.3z"/>
						</g>
						<g>
							<path class="st21" d="M289.2,120.6c0.1-0.1,0.2-0.2,0.2-0.3c0.1-0.3,0-0.6-0.3-0.7c-1.3-0.5-2.5,0.3-2.6,0.4
								c-0.2,0.2-0.3,0.5-0.2,0.7c0.2,0.2,0.5,0.3,0.7,0.2c0,0,0.8-0.5,1.6-0.2C288.9,120.6,289.1,120.6,289.2,120.6z"/>
						</g>
						<g>
							<path class="st21" d="M291.8,118C291.8,118,291.8,118,291.8,118c0.3-0.3,0.3-0.6,0.1-0.8c-2.1-2.3-4.1-2.7-5-2.9
								c-0.1,0-0.2,0-0.2,0c-0.1-0.1-0.3-0.1-0.5-0.1c-0.3,0.1-0.5,0.4-0.4,0.7c0.1,0.4,0.4,0.4,0.8,0.5c0.8,0.2,2.6,0.5,4.4,2.5
								C291.3,118.1,291.5,118.1,291.8,118z"/>
						</g>
					</g>
				</g>
			</g>
		</g>
		<g class="st15">
			<g>
				<path class="st16" d="M227.8,126.1c0.9,0,0.9-1.4,0-1.4C226.9,124.8,226.9,126.1,227.8,126.1L227.8,126.1z"/>
			</g>
			<g>
				<path class="st16" d="M229.3,126.8c0.9,0,0.9-1.4,0-1.4C228.4,125.4,228.4,126.8,229.3,126.8L229.3,126.8z"/>
			</g>
			<g>
				<path class="st16" d="M229.2,122.3c0.2,0.2,0.5,0.3,0.7,0.5c0.7,0.5,1.4-0.7,0.7-1.2c-0.2-0.2-0.5-0.3-0.7-0.5
					C229.2,120.6,228.5,121.8,229.2,122.3L229.2,122.3z"/>
			</g>
			<g>
				<path class="st16" d="M231,123.5C231,123.5,231,123.6,231,123.5c0.7,0.7,1.6-0.3,1-0.9c0,0,0,0-0.1-0.1
					C231.3,121.9,230.4,122.9,231,123.5L231,123.5z"/>
			</g>
			<g>
				<path class="st16" d="M232.6,119.2c0.9,0,0.9-1.4,0-1.4C231.8,117.9,231.8,119.2,232.6,119.2L232.6,119.2z"/>
			</g>
			<g>
				<path class="st16" d="M239.7,120.7c0.7,0.6,1,1.3,1,2.3c0.1,0.9,1.4,0.9,1.4,0c-0.1-1.3-0.5-2.4-1.4-3.2
					C240,119.2,239,120.1,239.7,120.7L239.7,120.7z"/>
			</g>
			<g>
				<path class="st16" d="M240.6,125.4C240.6,125.4,240.6,125.4,240.6,125.4c0.7,0.7,1.6-0.3,1-0.9c0,0,0,0-0.1-0.1
					C240.9,123.8,240,124.8,240.6,125.4L240.6,125.4z"/>
			</g>
			<g>
				<path class="st16" d="M244.7,149.9c-0.1,1.2-0.4,2.4-0.4,3.6c-0.1,0.9,1.3,0.9,1.4,0c0.1-1.2,0.4-2.4,0.4-3.6
					C246.1,149,244.8,149,244.7,149.9L244.7,149.9z"/>
			</g>
			<g>
				<path class="st16" d="M243.2,155.2c-0.4,0.7-0.7,1.5-0.9,2.3c-0.3,0.8,1,1.2,1.3,0.4c0.2-0.7,0.4-1.3,0.8-2
					C244.8,155.1,243.6,154.5,243.2,155.2L243.2,155.2z"/>
			</g>
			<g>
				<path class="st16" d="M241.6,159.3C241.6,159.3,241.6,159.3,241.6,159.3c0,0.9,1.4,0.9,1.4,0.1c0,0,0,0,0-0.1
					C243,158.4,241.6,158.4,241.6,159.3L241.6,159.3z"/>
			</g>
			<g>
				<path class="st16" d="M259.9,152.8c0,0.9-0.2,1.8-0.2,2.7c-0.1,0.9,1.3,0.9,1.4,0c0.1-0.9,0.2-1.8,0.2-2.7
					C261.3,151.9,259.9,151.9,259.9,152.8L259.9,152.8z"/>
			</g>
			<g>
				<path class="st16" d="M259.7,157.9C259.7,157.9,259.7,157.9,259.7,157.9c0.7,0.7,1.6-0.3,1-0.9c0,0,0,0-0.1-0.1
					C260,156.3,259.1,157.3,259.7,157.9L259.7,157.9z"/>
			</g>
			<g>
				<path class="st16" d="M258.7,159.2c-0.3,0.7-0.4,1.4-0.4,2.1c-0.1,0.9,1.3,0.9,1.4,0c0.1-0.6,0.1-1.2,0.4-1.8
					C260.3,158.7,259,158.4,258.7,159.2L258.7,159.2z"/>
			</g>
			<g>
				<path class="st16" d="M280.4,116c-0.4,2.2,0.6,4.2,2.1,5.8c0.6,0.6,1.5-0.3,1-1c-1.1-1.2-2-2.8-1.7-4.4
					C281.8,115.5,280.5,115.2,280.4,116L280.4,116z"/>
			</g>
			<g>
				<path class="st16" d="M284.5,123.1c0.9,0,0.9-1.4,0-1.4S283.6,123.1,284.5,123.1L284.5,123.1z"/>
			</g>
			<g>
				<path class="st16" d="M286.7,112C286.8,112,286.8,112,286.7,112c0.9,0,0.9-1.4,0.1-1.4c0,0,0,0-0.1,0
					C285.9,110.7,285.9,112,286.7,112L286.7,112z"/>
			</g>
			<g>
				<path class="st16" d="M290.5,112.7C290.5,112.7,290.5,112.8,290.5,112.7c0.7,0.7,1.6-0.3,1-0.9c0,0,0,0-0.1-0.1
					C290.8,111.2,289.8,112.1,290.5,112.7L290.5,112.7z"/>
			</g>
			<g>
				<path class="st16" d="M293.7,114.6c-0.3,0.4-0.7,0.8-1,1.2c-0.6,0.7,0.4,1.6,1,1c0.3-0.4,0.7-0.8,1-1.2
					C295.2,114.9,294.2,113.9,293.7,114.6L293.7,114.6z"/>
			</g>
			<g>
				<path class="st16" d="M285.7,116.9c0.5,0,0.9,0.3,1.3,0.6c0.7,0.5,1.4-0.6,0.7-1.2c-0.6-0.4-1.2-0.7-2-0.8
					C284.8,115.5,284.8,116.9,285.7,116.9L285.7,116.9z"/>
			</g>
			<g>
				<path class="st16" d="M288.5,118.3C288.5,118.3,288.5,118.4,288.5,118.3c0.7,0.7,1.6-0.3,1-0.9c0,0,0,0-0.1-0.1
					C288.8,116.7,287.9,117.7,288.5,118.3L288.5,118.3z"/>
			</g>
		</g>
	</g>
</g>
</svg>
