<?xml version="1.0" encoding="utf-8"?>
<!-- Generator: Adobe Illustrator 19.0.0, SVG Export Plug-In . SVG Version: 6.00 Build 0)  -->
<svg version="1.1" id="OBJECTS" xmlns="http://www.w3.org/2000/svg" xmlns:xlink="http://www.w3.org/1999/xlink" x="0px" y="0px"
	 viewBox="-46 236.7 519 321.3" style="enable-background:new -46 236.7 519 321.3;" xml:space="preserve">
<style type="text/css">
	.st0{fill:#FF6098;}
	.st1{fill:#2A0466;}
	.st2{fill:#7617FC;}
	.st3{fill:#E2D2F9;}
	.st4{fill:#9539FF;}
	.st5{fill:#FA8B29;}
	.st6{opacity:0.1;}
	.st7{fill:#FFFFFF;}
	.st8{fill:#5E0AE2;}
	.st9{fill:#CED5D8;}
	.st10{opacity:0.24;}
	.st11{opacity:0.33;}
	.st12{fill:#AEAEFF;}
	.st13{fill:#4D288A;}
	.st14{fill:#B988FF;}
	.st15{fill:#F1E7F2;}
	.st16{fill:#BECCE4;}
	.st17{fill:#D5E1EF;}
	.st18{fill:#9AA2BE;}
	.st19{fill:#C3D2E8;}
	.st20{opacity:0.29;}
	.st21{opacity:0.42;fill:#C3D2E8;enable-background:new    ;}
	.st22{fill:#9E39A4;}
	.st23{clip-path:url(#SVGID_2_);}
	.st24{fill:url(#SVGID_3_);}
	.st25{opacity:0.2;}
	.st26{clip-path:url(#SVGID_5_);}
	.st27{fill:url(#SVGID_6_);}
	.st28{opacity:0.2;fill:#FFFFFF;enable-background:new    ;}
	.st29{opacity:0.5;fill:#FFFFFF;enable-background:new    ;}
	.st30{fill:#F7FB70;}
	.st31{fill:#F7E470;}
	.st32{opacity:0.18;}
	.st33{fill:#E4A9C2;}
	.st34{fill:#F8BECA;}
	.st35{opacity:0.19;fill:url(#SVGID_7_);}
	.st36{opacity:0.17;}
	.st37{opacity:0.23;}
</style>
<g>
	<g>
		<g>
			<path class="st0" d="M276.7,421c1.1-0.5,2.2-0.9,3.3-1.3c0.6-0.3,1.3-0.3,2-0.3c-1.5-4.3-2.1-7.3-2.1-7.4
				c-0.3-1.4-1.7-2.3-3.2-2.1c-1.5,0.3-2.5,1.6-2.2,3C274.5,413.2,275.1,416.4,276.7,421z"/>
			<path class="st1" d="M349.3,495.1c-17.5-2.1-39.5-6-54-18.1c-7.1-5.9-9.8-12.5-7.3-18.1c1.4-3.1,4.2-5.7,8-7.7
				c5.5,4.8,11.8,8.3,18.6,10.1c15.2,4.2,26.2,1.7,30.4-2.6c2.1-2.2,2.6-4.8,1.6-7.4c-2.2-5.2-10.6-8.5-23.6-9.4
				c-10.9-0.7-19.4,0.6-25.8,3c-0.4-0.4-0.8-0.8-1.2-1.2c-1.4,1.2-2.7,2.3-4.1,3.4c0.1,0.1,0.1,0.1,0.2,0.2
				c-0.8,0.4-1.5,0.9-2.1,1.4c-0.1,0.1-0.3,0.2-0.4,0.3c-0.2,0.1-0.4,0.3-0.5,0.4c-2.9,2.3-4.9,4.8-6.1,7.4
				c-3.4,7.8-0.8,17.3,8.2,24.9c8.2,6.9,25.5,16.6,57.5,18.6c0.1,0,0.2,0,0.3,0c1.4,0,2.6-1,2.7-2.3
				C351.9,496.5,350.8,495.2,349.3,495.1z M322.6,447.1c13.2,0.9,18,4.3,18.8,6.1c0.1,0.3,0.4,0.9-0.5,1.9c-2.5,2.6-11.1,5-24.7,1.2
				c-5.6-1.6-10.4-4.2-14.5-7.4C307.5,447.3,314.6,446.6,322.6,447.1z"/>
		</g>
		<g>
			<path class="st2" d="M349,500.2c-0.1,0-0.2,0-0.3,0c-34.8-4.3-48.7-13.2-57-20.5c-9-8-12.1-17.2-8.7-25.4c1.5-3.6,4.5-7.2,9.2-10
				c-3.6-4.1-6.9-9-9.7-14.5c-5.8-11.3-7.7-21.4-7.8-21.9c-0.3-1.5,0.7-2.9,2.2-3.2c1.5-0.3,2.9,0.7,3.2,2.2
				c0.1,0.3,4,20.5,17.2,34.8c6.4-2.6,14.9-3.9,25.8-3.2c13,0.9,21.3,4.4,23.6,9.9c1.1,2.7,0.5,5.5-1.6,7.8
				c-4.2,4.6-15.2,7.3-30.4,2.8c-6.8-2-13.1-5.6-18.6-10.7c-3.9,2.1-6.7,4.8-8,8.1c-2.5,5.9,0.2,12.9,7.3,19.2
				c14.5,12.9,36.5,17,54,19.2c1.5,0.2,2.6,1.6,2.4,3.1C351.5,499.2,350.3,500.2,349,500.2z M301.8,445.9c4.1,3.4,8.9,6.2,14.5,7.8
				c13.7,4,22.3,1.5,24.7-1.2c0.9-1,0.7-1.7,0.6-2c-0.8-2-5.7-5.6-18.8-6.5C314.7,443.4,307.6,444.1,301.8,445.9z"/>
		</g>
		<g>
			<path class="st3" d="M350,497.1c2.3,0,4.3-1.5,4.8-3.8c0.2-0.9-1.1-1.2-1.3-0.4c-0.4,1.7-1.7,2.8-3.5,2.8
				C349.1,495.7,349.1,497.1,350,497.1L350,497.1z"/>
		</g>
		<g>
			<path class="st3" d="M349.6,499.3c1,0.6,1.8,1.3,2.5,2.2c0.2,0.3,0.6,0.4,0.9,0.2c0.3-0.2,0.5-0.6,0.2-0.9c-0.8-1.1-1.8-2-3-2.7
				C349.6,497.6,348.9,498.8,349.6,499.3L349.6,499.3z"/>
		</g>
		<g>
			<path class="st3" d="M351.4,498.5c1.1,0.3,2.3,0.3,3.4,0c0.9-0.2,0.5-1.5-0.4-1.3s-1.8,0.2-2.7,0
				C350.9,497,350.5,498.3,351.4,498.5L351.4,498.5z"/>
		</g>
		<g>
			<path class="st1" d="M296.1,448.3l-4-4c-0.4,0.2-0.7,0.5-1.1,0.7c2.5,1.1,2.6,3.7,2.6,4.9C294.4,449.3,295.2,448.7,296.1,448.3z"
				/>
			<path class="st1" d="M301.6,445.8l1.1-0.1c0.8-0.2,1.6-0.4,2.4-0.6c-4.1-0.4-7.3-3-7.8-3.4l0,0
				C298.9,443.8,301.6,445.8,301.6,445.8z"/>
		</g>
		<polygon class="st4" points="352,491.6 352.1,492.6 353.2,492.8 352.1,493 352,494 351.8,493 350.7,492.8 351.8,492.6 		"/>
		<polygon class="st4" points="356.1,494 356.3,495.1 357.3,495.3 356.3,495.4 356.1,496.5 356,495.4 354.9,495.3 356,495.1 		"/>
		<polygon class="st4" points="353.4,490.1 353.6,490.6 354,490.7 353.6,490.8 353.4,491.3 353.3,490.8 352.8,490.7 353.3,490.6 		
			"/>
		<polygon class="st4" points="355.2,492.5 355.3,492.8 355.6,492.9 355.3,493 355.2,493.3 355.2,493 354.9,492.9 355.2,492.8 		"/>
		<polygon class="st4" points="353.7,494 353.8,494.3 354,494.4 353.8,494.5 353.7,494.8 353.6,494.5 353.3,494.4 353.6,494.3 		"/>
		<polygon class="st4" points="355.2,490.6 355.3,490.9 355.6,490.9 355.3,491 355.2,491.3 355.2,491 354.9,490.9 355.2,490.9 		"/>
		<polygon class="st4" points="345.2,492.2 348.3,493.2 348.7,492.8 350.2,493.7 348.5,491.5 348,492.2 346.5,490.3 		"/>
		<path class="st1" d="M412.4,510.3c-10.5-6.2-26.4-8.1-44.3-9.6c-1.5-0.1-2.8,0.9-2.9,2.3s1,2.6,2.5,2.8
			c16.6,1.5,32.5,3.3,41.9,8.9c5.1,3,7.6,6.1,7.5,9.1c-0.1,3.6-3.7,7.1-7.1,9.5c-5-5.5-14.3-3.8-18.4-1.8c0,0-0.1,0-0.1,0.1l0,0
			c0,0,0,0-0.1,0c-2.9,1.5-4.2,4.9-3.7,8.7l-2.1,1.1l0,0l-0.9,0.5c-1.2,0.6-1.6,2.1-0.9,3.3s2.3,1.6,3.5,1l2-1
			c0.1,0.3,0.3,0.6,0.5,0.8c0.2,0.3,0.3,0.5,0.5,0.8l-1.1,0.6l0,0l-0.9,0.5c-1.2,0.6-1.6,2.1-0.9,3.3c0.7,1.2,2.3,1.6,3.5,1l3-1.5
			c1.8,1.3,3.8,2.2,5.7,2.4l0,0l0,0c0.4,0,0.7,0.1,1.1,0.1c0.1,0,0.2,0,0.2,0c0.3,0,0.6,0,0.8-0.1c0.1,0,0.2,0,0.3,0
			c0.3,0,0.5-0.1,0.8-0.2c0.1,0,0.2,0,0.3-0.1c0.3-0.1,0.7-0.2,1-0.4c0,0,0,0,0.1,0l0,0l0,0c0.2-0.1,0.4-0.2,0.6-0.3
			c0,0,0.1,0,0.1-0.1c0.2-0.1,0.5-0.3,0.7-0.5l0.1-0.1c0.2-0.2,0.5-0.4,0.7-0.5l0.1-0.1c0.3-0.2,0.5-0.4,0.8-0.6l0,0
			c0.5-0.5,1.1-1,1.6-1.6l0,0c0.3-0.3,0.5-0.6,0.7-0.9l0,0c0.2-0.3,0.5-0.6,0.7-0.9l0,0c0.9-1.3,1.6-2.8,2-4.4l0,0
			c0.3-1.2,0.3-2.5,0.1-3.7c4.2-2.8,10.1-7.8,10.2-14.1C422.8,519,419.3,514.4,412.4,510.3z"/>
		<g>
			<g>
				<path class="st2" d="M406.6,539.8c-1,0-2-0.6-2.5-1.5c-0.7-1.4-0.1-3,1.2-3.7c3.1-1.6,11.4-7,11.7-12.8c0.2-3.2-2.2-6.4-7.1-9.6
					c-9.1-6-24.9-7.9-41.6-9.4c-1.5-0.1-2.6-1.5-2.5-3s1.5-2.6,3-2.5c18.1,1.7,33.9,3.6,44.1,10.3c6.6,4.3,9.8,9.2,9.5,14.5
					c-0.6,10.1-14.1,17.1-14.7,17.4C407.5,539.7,407,539.8,406.6,539.8z"/>
			</g>
			<g>
				<g>
					<g>
						
							<ellipse transform="matrix(-0.4869 -0.8735 0.8735 -0.4869 118.4688 1151.4236)" class="st5" cx="397.4" cy="540.9" rx="12.2" ry="9"/>
					</g>
					<g>
						<path class="st4" d="M410.9,533.4c4.3,7.7-3.2,15.7-7.5,18.1c-4.3,2.4-10.5-0.4-13.8-6.2c-3.3-5.9-2.4-12.6,2-15
							C395.9,527.8,406.5,525.6,410.9,533.4z"/>
					</g>
					<g>
						<g>
							<path class="st2" d="M406.1,543.9l-7.1,8.4c1.5,0.2,3-0.1,4.4-0.8c3.9-2.2,10.3-8.8,8.5-15.7
								C410.4,541.3,406.1,543.9,406.1,543.9z"/>
						</g>
						<g>
							<path class="st2" d="M404.2,540.9c4.7-2.7,6.7-5.9,7.1-6.6c-0.1-0.3-0.3-0.6-0.4-0.8c-0.1-0.2-0.3-0.5-0.5-0.7l-6.8,4.7
								L404.2,540.9z"/>
						</g>
					</g>
					<g class="st6">
						
							<ellipse transform="matrix(-0.4869 -0.8735 0.8735 -0.4869 118.6665 1151.3497)" class="st7" cx="397.5" cy="540.8" rx="12.2" ry="9.1"/>
					</g>
					<g>
						
							<ellipse transform="matrix(-0.4869 -0.8735 0.8735 -0.4869 118.4688 1151.4236)" class="st8" cx="397.4" cy="540.9" rx="12.2" ry="9"/>
					</g>
					<g class="st6">
						
							<ellipse transform="matrix(-0.4869 -0.8735 0.8735 -0.4869 118.8559 1151.4313)" class="st7" cx="397.6" cy="540.8" rx="9.3" ry="6.9"/>
					</g>
					<g>
						
							<ellipse transform="matrix(-0.4869 -0.8735 0.8735 -0.4869 118.4698 1151.4224)" class="st4" cx="397.4" cy="540.9" rx="9.1" ry="6.7"/>
					</g>
					<g>
						<path class="st3" d="M402.2,548.1c-3.1,1.7-7.5-0.3-9.8-4.4c-2.3-4.2-1.7-8.9,1.4-10.7c0.8-0.5,1.7-0.6,2.6-0.6
							c-1.2-0.2-2.4,0-3.4,0.6c-3.2,1.8-3.9,6.8-1.5,11.2c2.4,4.4,7,6.4,10.3,4.6c1-0.6,1.8-1.5,2.3-2.6
							C403.7,547,403.1,547.6,402.2,548.1z"/>
					</g>
				</g>
				<g>
					<g>
						<g>
							<path class="st9" d="M394.3,535.8L394.3,535.8l-9.5,5.3c-1.2,0.7-1.6,2.2-1,3.4c0.7,1.2,2.2,1.6,3.4,1l9.5-5.3l0,0
								L394.3,535.8z"/>
						</g>
						<g>
							<path class="st7" d="M395.2,535.3C395.2,535.3,395.1,535.3,395.2,535.3l-9.5,5.3c-1.2,0.7-1.6,2.2-1,3.4
								c0.7,1.2,2.2,1.6,3.4,1l9.5-5.3l0,0L395.2,535.3z"/>
						</g>
						<g class="st10">
							<g>
								<polygon class="st9" points="392.7,536.7 391.9,537.1 390,543.9 390.8,543.5 								"/>
							</g>
							<g>
								<path class="st9" d="M387,539.8l-1.5,5.1c0.7,0.4,1.7,0.5,2.5,0l0.9-0.5l1.9-6.9L387,539.8z"/>
							</g>
							<g>
								<polygon class="st9" points="395,535.4 393.5,536.2 391.5,543.1 393,542.2 								"/>
							</g>
						</g>
					</g>
					<g>
						<g>
							<path class="st9" d="M397.7,541.9C397.6,541.9,397.6,541.9,397.7,541.9l-9.5,5.3c-1.2,0.7-1.6,2.2-1,3.4
								c0.7,1.2,2.2,1.6,3.4,1l9.5-5.3l0,0L397.7,541.9z"/>
						</g>
						<g>
							<path class="st7" d="M398.5,541.4L398.5,541.4l-9.5,5.3c-1.2,0.7-1.6,2.2-1,3.4c0.7,1.2,2.2,1.6,3.4,1l9.5-5.3l0,0
								L398.5,541.4z"/>
						</g>
					</g>
				</g>
				<g class="st11">
					<g>
						<path class="st9" d="M390.1,546.1l-1.4,4.8c0.8,0.6,1.8,0.7,2.7,0.2l0.6-0.3l1.9-6.9L390.1,546.1z"/>
					</g>
					<g>
						<polygon class="st9" points="395.8,542.9 395,543.3 393.1,550.2 393.8,549.8 						"/>
					</g>
					<g>
						<polygon class="st9" points="398.1,541.6 396.6,542.5 394.6,549.3 396.1,548.5 						"/>
					</g>
				</g>
			</g>
			<g>
				<g>
					<path class="st3" d="M366.4,498.9c-1,0.1-1.9-0.1-2.8-0.4c-0.8-0.3-1.2,1-0.4,1.3c1,0.4,2.1,0.6,3.1,0.5
						C367.3,500.2,367.3,498.9,366.4,498.9L366.4,498.9z"/>
				</g>
			</g>
			<g>
				<g>
					<path class="st3" d="M367.6,497.3c-0.7-0.2-1.3-0.7-1.6-1.3c-0.4-0.8-1.6-0.1-1.2,0.7c0.5,1,1.4,1.6,2.4,2
						C368.1,498.9,368.4,497.6,367.6,497.3L367.6,497.3z"/>
				</g>
			</g>
			<g>
				<g>
					<path class="st3" d="M367.2,500.5c-0.9,0.3-1.7,0.9-2.3,1.6c-0.5,0.7,0.4,1.7,1,1c0.5-0.6,1-1,1.7-1.3
						C368.4,501.6,368,500.2,367.2,500.5L367.2,500.5z"/>
				</g>
			</g>
			<g>
				<polygon class="st4" points="362.4,494.4 362.7,496.1 364.4,496.3 362.7,496.6 362.4,498.3 362.2,496.6 360.5,496.3 
					362.2,496.1 				"/>
			</g>
			<g>
				<polygon class="st4" points="366.7,493.7 366.8,494.6 367.8,494.8 366.8,494.9 366.7,495.9 366.5,494.9 365.6,494.8 
					366.5,494.6 				"/>
			</g>
			<g>
				<polygon class="st4" points="363.9,501.3 364,501.8 364.5,501.9 364,502 363.9,502.5 363.8,502 363.3,501.9 363.8,501.8 				"/>
			</g>
			<g>
				<polygon class="st4" points="371.4,495 368.8,495.9 368.5,495.5 367.2,496.3 368.7,494.4 369,495 370.3,493.4 				"/>
			</g>
		</g>
		<polygon class="st4" points="349.4,490.8 349.9,492.1 350.2,492.1 350.3,492.8 350.5,491.7 350.1,491.7 350.3,490.7 		"/>
		<g>
			<path class="st12" d="M418.3,517.2c0.8,3.2,0.4,6.3-1.3,9.2c-0.5,0.8,0.7,1.5,1.2,0.7c1.9-3.1,2.4-6.7,1.4-10.2
				C419.4,516,418.1,516.4,418.3,517.2L418.3,517.2z"/>
		</g>
		<g>
			<path class="st12" d="M416.4,529.2c0.9,0,0.9-1.4,0-1.4S415.5,529.2,416.4,529.2L416.4,529.2z"/>
		</g>
		<g>
			<path class="st12" d="M414.3,531.3c0.9,0,0.9-1.4,0-1.4C413.4,530,413.4,531.3,414.3,531.3L414.3,531.3z"/>
		</g>
		<g>
			<path class="st12" d="M372,500.6c5.7,0.6,11.4,1.4,17.1,2.3c0.9,0.1,1.2-1.2,0.4-1.3c-5.8-0.9-11.6-1.7-17.5-2.4
				C371.1,499.1,371.1,500.5,372,500.6L372,500.6z"/>
		</g>
		<g>
			<path class="st12" d="M392.2,503.2c0.9,0,0.9-1.4,0-1.4C391.3,501.8,391.3,503.2,392.2,503.2L392.2,503.2z"/>
		</g>
		<g>
			<path class="st12" d="M394.6,503.7c0.9,0,0.9-1.4,0-1.4C393.7,502.4,393.7,503.7,394.6,503.7L394.6,503.7z"/>
		</g>
		<g>
			<path class="st12" d="M285.8,452.7c-3,5.9-2.7,12.6,0.9,18.2c0.5,0.7,1.7,0.1,1.2-0.7c-3.3-5.2-3.6-11.3-0.9-16.8
				C287.4,452.6,286.2,451.9,285.8,452.7L285.8,452.7z"/>
		</g>
		<g>
			<path class="st12" d="M288.9,473.1c0.9,0,0.9-1.4,0-1.4C288.1,471.7,288.1,473.1,288.9,473.1L288.9,473.1z"/>
		</g>
		<g>
			<path class="st12" d="M290.2,475.3c0.9,0,0.9-1.4,0-1.4C289.4,473.9,289.4,475.3,290.2,475.3L290.2,475.3z"/>
		</g>
		<g>
			<path class="st12" d="M321.7,458.6c5.6,1.2,11.1,0.9,16.5-0.8c0.8-0.3,0.5-1.6-0.4-1.3c-5.2,1.7-10.4,1.9-15.8,0.8
				C321.2,457.1,320.8,458.5,321.7,458.6L321.7,458.6z"/>
		</g>
		<g>
			<path class="st12" d="M339.9,456.3l0.1,0.1c0.6,0.6,1.6-0.3,1-1l-0.1-0.1C340.2,454.7,339.2,455.7,339.9,456.3L339.9,456.3z"/>
		</g>
		<g>
			<path class="st12" d="M342.5,455.3c0.9,0,0.9-1.4,0-1.4S341.6,455.3,342.5,455.3L342.5,455.3z"/>
		</g>
		<g>
			<path class="st12" d="M343.8,452.7h0.1c0.9,0,0.9-1.4,0-1.4h-0.1C342.9,451.3,342.9,452.7,343.8,452.7L343.8,452.7z"/>
		</g>
		<g>
			<path class="st12" d="M287.2,433.3c2.1,3.3,4.4,6.5,6.9,9.5c0.6,0.7,1.5-0.3,1-1c-2.4-2.9-4.6-6-6.6-9.2
				C287.9,431.8,286.7,432.5,287.2,433.3L287.2,433.3z"/>
		</g>
		<g>
			<path class="st12" d="M296.8,444.6c0.9,0,0.9-1.4,0-1.4C295.9,443.3,295.9,444.6,296.8,444.6L296.8,444.6z"/>
		</g>
		<g>
			<path class="st12" d="M297.9,446.2l0.1,0.1c0.6,0.6,1.6-0.3,1-1l-0.1-0.1C298.3,444.6,297.3,445.6,297.9,446.2L297.9,446.2z"/>
		</g>
	</g>
	<path class="st13" d="M222.1,492.9H172c-24.9,0-45.3-20.4-45.3-45.3v-41.7c0-24.9,20.4-45.3,45.3-45.3h50.1
		c24.9,0,45.3,20.4,45.3,45.3v41.8C267.4,472.6,247,492.9,222.1,492.9z"/>
	<g>
		<path class="st2" d="M177.2,527.9L177.2,527.9c-3.5-0.9-5.6-4.5-4.7-7.9l8-31.1c0.9-3.5,4.5-5.6,7.9-4.7l0,0
			c3.5,0.9,5.6,4.5,4.7,7.9l-8,31.1C184.3,526.7,180.7,528.8,177.2,527.9z"/>
		<path class="st2" d="M243.9,527.9L243.9,527.9c3.5-0.9,5.6-4.5,4.7-7.9l-8-31.1c-0.9-3.5-4.5-5.6-7.9-4.7l0,0
			c-3.5,0.9-5.6,4.5-4.7,7.9l8,31.1C236.8,526.7,240.4,528.8,243.9,527.9z"/>
		<path class="st4" d="M163.5,536.2L163.5,536.2c-3.5-0.9-5.6-4.5-4.7-7.9l8-31.1c0.9-3.5,4.5-5.6,7.9-4.7l0,0
			c3.5,0.9,5.6,4.5,4.7,7.9l-8,31.1C170.6,535,167,537.1,163.5,536.2z"/>
		<path class="st4" d="M258,536.2L258,536.2c3.5-0.9,5.6-4.5,4.7-7.9l-8-31.1c-0.9-3.5-4.5-5.6-7.9-4.7l0,0
			c-3.5,0.9-5.6,4.5-4.7,7.9l8,31.1C251,535,254.5,537.1,258,536.2z"/>
		<path class="st14" d="M151.1,506.2v-21.9c0-5.8,4.7-10.5,10.5-10.5H260c5.8,0,10.5,4.7,10.5,10.5v21.9c0,5.8-4.7,10.5-10.5,10.5
			h-98.3C155.8,516.7,151.1,512,151.1,506.2z"/>
		<circle class="st14" cx="212.4" cy="374.1" r="44.3"/>
		<path class="st4" d="M240.9,342.8h-60.2c-39.6,0-71.8,32.2-71.8,71.8V439c0,39.6,32.2,71.8,71.8,71.8h60.2
			c39.6,0,71.8-32.2,71.8-71.8v-24.4C312.7,375,280.5,342.8,240.9,342.8z"/>
		<path class="st7" d="M240.9,347.6h-60.2c-37,0-67.1,30.1-67.1,67.1v24.4c0,37,30.1,67.1,67.1,67.1h60.2c37,0,67.1-30.1,67.1-67.1
			v-24.4C307.9,377.7,277.8,347.6,240.9,347.6z"/>
		<path class="st15" d="M288.9,389.3h-0.6c-7.9,0-14.3,6.4-14.3,14.3V450c0,7.9,6.4,14.3,14.3,14.3h0.6c7.9,0,14.3-6.4,14.3-14.3
			v-46.4C303.2,395.7,296.8,389.3,288.9,389.3z"/>
		<path class="st16" d="M288.6,462.6L288.6,462.6c-7.1,0-12.9-5.8-12.9-12.9v-45.8c0-7.1,5.8-12.9,12.9-12.9l0,0
			c7.1,0,12.9,5.8,12.9,12.9v45.8C301.5,456.8,295.7,462.6,288.6,462.6z"/>
		<g>
			<path class="st17" d="M295.7,454.9h-14.2c-0.8,0-1.4-0.6-1.4-1.4v-0.8c0-0.8,0.6-1.4,1.4-1.4h14.2c0.8,0,1.4,0.6,1.4,1.4v0.8
				C297.1,454.3,296.4,454.9,295.7,454.9z"/>
			<path class="st17" d="M295.3,448.9h-13.4c-1,0-1.8-0.8-1.8-1.8l0,0c0-1,0.8-1.8,1.8-1.8h13.4c1,0,1.8,0.8,1.8,1.8l0,0
				C297.1,448.1,296.3,448.9,295.3,448.9z"/>
			<path class="st17" d="M295.3,443h-13.4c-1,0-1.8-0.8-1.8-1.8l0,0c0-1,0.8-1.8,1.8-1.8h13.4c1,0,1.8,0.8,1.8,1.8l0,0
				C297.1,442.2,296.3,443,295.3,443z"/>
			<path class="st17" d="M295.3,437h-13.4c-1,0-1.8-0.8-1.8-1.8l0,0c0-1,0.8-1.8,1.8-1.8h13.4c1,0,1.8,0.8,1.8,1.8l0,0
				C297.1,436.2,296.3,437,295.3,437z"/>
			<path class="st17" d="M295.3,431.1h-13.4c-1,0-1.8-0.8-1.8-1.8l0,0c0-1,0.8-1.8,1.8-1.8h13.4c1,0,1.8,0.8,1.8,1.8l0,0
				C297.1,430.3,296.3,431.1,295.3,431.1z"/>
			<path class="st17" d="M295.3,425.1h-13.4c-1,0-1.8-0.8-1.8-1.8l0,0c0-1,0.8-1.8,1.8-1.8h13.4c1,0,1.8,0.8,1.8,1.8l0,0
				C297.1,424.3,296.3,425.1,295.3,425.1z"/>
		</g>
		<g>
			<path class="st18" d="M295.3,455.3h-13.4c-1,0-1.8-0.8-1.8-1.8l0,0c0-1,0.8-1.8,1.8-1.8h13.4c1,0,1.8,0.8,1.8,1.8l0,0
				C297.1,454.5,296.3,455.3,295.3,455.3z"/>
			<path class="st18" d="M295.3,449.3h-13.4c-1,0-1.8-0.8-1.8-1.8l0,0c0-1,0.8-1.8,1.8-1.8h13.4c1,0,1.8,0.8,1.8,1.8l0,0
				C297.1,448.5,296.3,449.3,295.3,449.3z"/>
			<path class="st18" d="M295.3,443.4h-13.4c-1,0-1.8-0.8-1.8-1.8l0,0c0-1,0.8-1.8,1.8-1.8h13.4c1,0,1.8,0.8,1.8,1.8l0,0
				C297.1,442.6,296.3,443.4,295.3,443.4z"/>
			<path class="st18" d="M295.3,437.4h-13.4c-1,0-1.8-0.8-1.8-1.8l0,0c0-1,0.8-1.8,1.8-1.8h13.4c1,0,1.8,0.8,1.8,1.8l0,0
				C297.1,436.6,296.3,437.4,295.3,437.4z"/>
			<path class="st18" d="M295.3,431.5h-13.4c-1,0-1.8-0.8-1.8-1.8l0,0c0-1,0.8-1.8,1.8-1.8h13.4c1,0,1.8,0.8,1.8,1.8l0,0
				C297.1,430.6,296.3,431.5,295.3,431.5z"/>
			<path class="st18" d="M295.7,425.5h-14.2c-0.8,0-1.4-0.6-1.4-1.4v-0.8c0-0.8,0.6-1.4,1.4-1.4h14.2c0.8,0,1.4,0.6,1.4,1.4v0.8
				C297.1,424.9,296.4,425.5,295.7,425.5z"/>
		</g>
		<g>
			<circle class="st19" cx="275.7" cy="474.6" r="10.1"/>
			<circle class="st14" cx="275.7" cy="474.6" r="8"/>
			<circle class="st4" cx="275.7" cy="474.6" r="6.4"/>
			<path class="st14" d="M279.7,470.6c-0.9-0.9-2.3-0.9-3.2,0l-4.8,4.8c-0.4,0.4-0.7,1-0.7,1.6c0,0.6,0.2,1.2,0.7,1.6
				c0.4,0.4,1,0.7,1.6,0.7s1.1-0.2,1.6-0.7l4.8-4.8l0,0C280.6,472.9,280.6,471.5,279.7,470.6z"/>
			<path class="st4" d="M279.4,473.5l-4.8,4.8c-0.7,0.7-1.8,0.7-2.5,0l0,0c-0.7-0.7-0.7-1.8,0-2.5l4.8-4.8c0.7-0.7,1.8-0.7,2.5,0
				l0,0C280.1,471.6,280.1,472.8,279.4,473.5z"/>
		</g>
		<g>
			<g>
				<circle class="st19" cx="248" cy="492.9" r="3.6"/>
				<circle class="st4" cx="248" cy="492.9" r="2.9"/>
				<circle class="st14" cx="248" cy="492.9" r="2.3"/>
			</g>
			<g>
				<circle class="st19" cx="256.8" cy="492.9" r="3.6"/>
				<circle class="st4" cx="256.8" cy="492.9" r="2.9"/>
				<circle class="st14" cx="256.8" cy="492.9" r="2.3"/>
			</g>
			<g>
				<circle class="st19" cx="265.5" cy="492.9" r="3.6"/>
				<circle class="st4" cx="265.5" cy="492.9" r="2.9"/>
				<circle class="st14" cx="265.5" cy="492.9" r="2.3"/>
			</g>
		</g>
		<g class="st20">
			<path class="st19" d="M240.9,347.6h-34.2l-93,93c0.5,19.4,9.2,36.7,22.7,48.7L271,354.7C261.9,350.2,251.7,347.6,240.9,347.6z"/>
			<path class="st19" d="M306.7,402c-0.3-1.8-0.7-3.5-1.2-5.2L196.3,506h6.4L306.7,402z"/>
			<path class="st19" d="M298.8,380.8c-2.4-4.2-5.3-8-8.5-11.6L157.6,501.9c5.2,1.9,10.6,3.2,16.3,3.8L298.8,380.8z"/>
		</g>
		<path class="st21" d="M240.9,348.8c36.3,0,65.9,29.5,65.9,65.9v24.4c0,36.3-29.5,65.9-65.9,65.9h-60.2
			c-36.3,0-65.9-29.5-65.9-65.9v-24.4c0-36.3,29.5-65.9,65.9-65.9H240.9 M240.9,347.6h-60.2c-37,0-67.1,30.1-67.1,67.1v24.4
			c0,37,30.1,67.1,67.1,67.1h60.2c37,0,67.1-30.1,67.1-67.1v-24.4C307.9,377.7,277.8,347.6,240.9,347.6L240.9,347.6z"/>
		<path class="st19" d="M213.5,357.7h-32.8c-31.4,0-56.9,25.5-56.9,56.9V439c0,31.4,25.5,56.9,56.9,56.9h32.8
			c31.4,0,56.9-25.5,56.9-56.9v-24.4C270.4,383.2,244.9,357.7,213.5,357.7z"/>
		<path class="st13" d="M222.1,492.9H172c-24.9,0-45.3-20.4-45.3-45.3v-41.7c0-24.9,20.4-45.3,45.3-45.3h50.1
			c24.9,0,45.3,20.4,45.3,45.3v41.8C267.4,472.6,247,492.9,222.1,492.9z"/>
		<g>
			<path class="st3" d="M195.2,338L195.2,338c-0.8,0.5-1.9,0.2-2.4-0.6L170,297.2c-0.5-0.8-0.2-1.9,0.6-2.4l0,0
				c0.8-0.5,1.9-0.2,2.4,0.6l22.9,40.2C196.4,336.5,196.1,337.5,195.2,338z"/>
			<g>
				<path class="st14" d="M174.5,292.6c-1.2,0.1-2.7,0.6-4.3,1.5c-1.5,0.9-2.7,1.9-3.5,2.9l-1.4,0.8l0.9,1.5
					c0.7,1.2,3.6,0.9,6.5-0.8c2.9-1.7,4.7-4,4-5.2l-0.9-1.5L174.5,292.6z"/>
				
					<ellipse transform="matrix(-0.4952 -0.8688 0.8688 -0.4952 -1.0514 589.045)" class="st3" cx="170.6" cy="294.8" rx="2.6" ry="6.1"/>
			</g>
		</g>
		<g>
			<g>
				<g>
					<path class="st3" d="M228.2,337.9c-0.3,0-0.6-0.1-0.9-0.2c-0.9-0.5-1.1-1.6-0.6-2.4l5.3-9c0.3-0.5,0.8-0.8,1.3-0.9l3.3-0.4
						l-1.4-3.8c-0.2-0.5-0.1-1.2,0.2-1.6c0.3-0.5,0.9-0.8,1.5-0.8h4.2l-0.9-7.1c0-0.4,0-0.8,0.2-1.1l8.9-15.4
						c0.5-0.9,1.6-1.2,2.4-0.7c0.9,0.5,1.1,1.6,0.7,2.4l-8.7,14.8l1.1,8.5c0.1,0.5-0.1,1-0.4,1.4s-0.8,0.6-1.3,0.6h-3.7l1.3,3.5
						c0.2,0.5,0.1,1.1-0.2,1.5c-0.3,0.5-0.8,0.8-1.3,0.8l-4.7,0.6l-4.8,8.2C229.4,337.6,228.8,337.9,228.2,337.9z"/>
				</g>
				<path class="st14" d="M247.4,292.6c1.2,0.1,2.7,0.6,4.3,1.5c1.5,0.9,2.7,1.9,3.5,2.9l1.4,0.8l-0.9,1.5c-0.7,1.2-3.6,0.9-6.5-0.8
					c-2.9-1.7-4.7-4-4-5.2l0.9-1.5L247.4,292.6z"/>
				
					<ellipse transform="matrix(-0.4952 0.8688 -0.8688 -0.4952 631.7775 222.532)" class="st3" cx="251.2" cy="294.8" rx="2.6" ry="6.1"/>
			</g>
		</g>
	</g>
	<g>
		<polygon class="st22" points="133.1,415.1 133.9,414.6 134.4,413.8 134.8,414.6 135.7,415.1 134.8,415.5 134.4,416.4 133.9,415.5 
					"/>
		<polygon class="st22" points="185.8,400.9 186.7,400.4 187.1,399.6 187.6,400.4 188.4,400.9 187.6,401.3 187.1,402.2 186.7,401.3 
					"/>
		<polygon class="st22" points="203.7,414.8 204.5,414.4 205,413.5 205.4,414.4 206.3,414.8 205.4,415.3 205,416.1 204.5,415.3 		
			"/>
		<polygon class="st22" points="214.1,411.9 214.9,411.4 215.4,410.6 215.9,411.4 216.7,411.9 215.9,412.3 215.4,413.2 214.9,412.3 
					"/>
		<polygon class="st22" points="258.6,431.5 259.4,431 259.9,430.2 260.3,431 261.2,431.5 260.3,431.9 259.9,432.7 259.4,431.9 		
			"/>
		<polygon class="st22" points="221.5,401.6 222.4,401.2 222.8,400.3 223.3,401.2 224.1,401.6 223.3,402.1 222.8,402.9 222.4,402.1 
					"/>
		<polygon class="st22" points="214.1,401.1 214.9,400.6 215.4,399.8 215.9,400.6 216.7,401.1 215.9,401.5 215.4,402.4 214.9,401.5 
					"/>
		<polygon class="st22" points="227.2,416.1 228.1,415.7 228.5,414.8 229,415.7 229.8,416.1 229,416.6 228.5,417.4 228.1,416.6 		
			"/>
		<polygon class="st22" points="231,381.3 231.3,381.2 231.4,380.9 231.6,381.2 231.9,381.3 231.6,381.5 231.4,381.8 231.3,381.5 		
			"/>
		<polygon class="st22" points="220.9,392.4 221.2,392.3 221.4,392 221.6,392.3 221.9,392.4 221.6,392.6 221.4,392.9 221.2,392.6 		
			"/>
		<polygon class="st22" points="215.9,395.7 216.2,395.6 216.4,395.3 216.6,395.6 216.9,395.7 216.6,395.9 216.4,396.2 216.2,395.9 
					"/>
		<polygon class="st22" points="247.2,470.8 247.5,470.6 247.6,470.3 247.8,470.6 248.1,470.8 247.8,471 247.6,471.3 247.5,471 		
			"/>
		<polygon class="st22" points="258.6,451.9 258.9,451.7 259.1,451.4 259.2,451.7 259.5,451.9 259.2,452.1 259.1,452.4 258.9,452.1 
					"/>
		<polygon class="st22" points="205.8,488 206.1,487.9 206.3,487.6 206.4,487.9 206.7,488 206.4,488.2 206.3,488.5 206.1,488.2 		
			"/>
		<polygon class="st22" points="226.7,484.8 227.1,484.6 227.2,484.3 227.4,484.6 227.7,484.8 227.4,484.9 227.2,485.2 227.1,484.9 
					"/>
		<polygon class="st22" points="207.9,469.5 208.2,469.4 208.4,469 208.6,469.4 208.9,469.5 208.6,469.7 208.4,470 208.2,469.7 		
			"/>
		<polygon class="st22" points="172.3,365.9 172.6,365.7 172.7,365.4 172.9,365.7 173.2,365.9 172.9,366 172.7,366.3 172.6,366 		
			"/>
		<polygon class="st22" points="191.8,374.6 192.2,374.4 192.3,374.1 192.5,374.4 192.8,374.6 192.5,374.7 192.3,375 192.2,374.7 		
			"/>
		<polygon class="st22" points="198.3,365.9 198.6,365.7 198.8,365.4 199,365.7 199.3,365.9 199,366 198.8,366.3 198.6,366 		"/>
		<polygon class="st22" points="237.3,375.5 237.6,375.3 237.8,375 238,375.3 238.3,375.5 238,375.7 237.8,376 237.6,375.7 		"/>
		<polygon class="st22" points="224.2,409.5 224.5,409.4 224.6,409.1 224.8,409.4 225.1,409.5 224.8,409.7 224.6,410 224.5,409.7 		
			"/>
		<polygon class="st22" points="213.7,419.1 214.1,418.9 214.3,418.4 214.6,418.9 215,419.1 214.6,419.3 214.3,419.7 214.1,419.3 		
			"/>
		<polygon class="st22" points="209.1,433.4 209.5,433.2 209.7,432.8 209.9,433.2 210.4,433.4 209.9,433.7 209.7,434.1 209.5,433.7 
					"/>
		<polygon class="st22" points="224,430.7 224.4,430.5 224.6,430.1 224.9,430.5 225.3,430.7 224.9,430.9 224.6,431.3 224.4,430.9 		
			"/>
		<polygon class="st22" points="174.3,421.3 174.8,421.1 175,420.7 175.2,421.1 175.6,421.3 175.2,421.6 175,422 174.8,421.6 		"/>
		<polygon class="st22" points="177.6,414.8 178,414.6 178.2,414.2 178.5,414.6 178.9,414.8 178.5,415.1 178.2,415.5 178,415.1 		
			"/>
		<polygon class="st22" points="169.2,407.3 169.6,407.1 169.8,406.7 170,407.1 170.4,407.3 170,407.5 169.8,407.9 169.6,407.5 		
			"/>
		<polygon class="st22" points="177,406.7 177.4,406.5 177.6,406.1 177.8,406.5 178.2,406.7 177.8,406.9 177.6,407.3 177.4,406.9 		
			"/>
		<polygon class="st22" points="164.8,399.5 165.2,399.3 165.4,398.9 165.7,399.3 166.1,399.5 165.7,399.7 165.4,400.1 165.2,399.7 
					"/>
		<polygon class="st22" points="165.9,435.6 166.7,436.1 167.2,436.9 167.6,436.1 168.5,435.6 167.6,435.1 167.2,434.3 166.7,435.1 
					"/>
		<polygon class="st22" points="177.3,477.4 178.1,477.8 178.6,478.6 179,477.8 179.9,477.4 179,476.9 178.6,476.1 178.1,476.9 		
			"/>
		<polygon class="st22" points="188.8,464.4 189.6,464.9 190.1,465.7 190.5,464.9 191.4,464.4 190.5,464 190.1,463.2 189.6,464 		
			"/>
		<polygon class="st22" points="231.8,469.5 232.6,470 233.1,470.8 233.5,470 234.4,469.5 233.5,469.1 233.1,468.2 232.6,469.1 		
			"/>
		<polygon class="st22" points="249.7,442.1 250.5,442.5 251,443.4 251.5,442.5 252.3,442.1 251.5,441.6 251,440.8 250.5,441.6 		
			"/>
		<polygon class="st22" points="228.5,454.5 229.3,454.9 229.8,455.8 230.2,454.9 231.1,454.5 230.2,454 229.8,453.2 229.3,454 		
			"/>
		<polygon class="st22" points="192.3,394 193.1,394.4 193.6,395.3 194,394.4 194.9,394 194,393.5 193.6,392.7 193.1,393.5 		"/>
		<polygon class="st22" points="192.3,419.7 193.1,420.2 193.6,421 194,420.2 194.9,419.7 194,419.2 193.6,418.4 193.1,419.2 		"/>
		<polygon class="st22" points="171.4,379.6 172.3,380 172.7,380.9 173.2,380 174,379.6 173.2,379.1 172.7,378.3 172.3,379.1 		"/>
		<polygon class="st22" points="208.9,364.6 209.8,365 210.2,365.9 210.7,365 211.5,364.6 210.7,364.1 210.2,363.3 209.8,364.1 		
			"/>
		<polygon class="st22" points="255.9,387.1 256.7,387.6 257.2,388.4 257.6,387.6 258.5,387.1 257.6,386.7 257.2,385.8 256.7,386.7 
					"/>
		<polygon class="st22" points="245.1,428.8 245.9,429.2 246.3,430.1 246.8,429.2 247.6,428.8 246.8,428.3 246.3,427.5 245.9,428.3 
					"/>
		<polygon class="st22" points="245.1,385.2 245.9,385.7 246.3,386.5 246.8,385.7 247.6,385.2 246.8,384.8 246.3,383.9 245.9,384.8 
					"/>
		<polygon class="st22" points="201.3,395.7 202.2,396.2 202.6,397 203.1,396.2 203.9,395.7 203.1,395.3 202.6,394.5 202.2,395.3 		
			"/>
		<polygon class="st22" points="135.7,459 136.5,459.5 137,460.3 137.4,459.5 138.2,459 137.4,458.6 137,457.7 136.5,458.6 		"/>
		<polygon class="st22" points="160.2,469.5 161,470 161.5,470.8 161.9,470 162.8,469.5 161.9,469.1 161.5,468.2 161,469.1 		"/>
		<polygon class="st4" points="257.2,482.4 258,482.9 258.5,483.7 258.9,482.9 259.7,482.4 258.9,482 258.5,481.1 258,482 		"/>
		<polygon class="st22" points="207.1,453.2 207.9,453.6 208.4,454.5 208.9,453.6 209.7,453.2 208.9,452.7 208.4,451.9 207.9,452.7 
					"/>
		<polygon class="st22" points="183.2,445.8 184,446.3 184.5,447.1 184.9,446.3 185.8,445.8 184.9,445.4 184.5,444.5 184,445.4 		
			"/>
		<polygon class="st22" points="150.6,457.7 151.4,458.2 151.8,459 152.3,458.2 153.1,457.7 152.3,457.3 151.8,456.5 151.4,457.3 		
			"/>
		<polygon class="st22" points="170.2,448.9 170.6,449.1 170.8,449.5 171,449.1 171.4,448.9 171,448.7 170.8,448.3 170.6,448.7 		
			"/>
		<polygon class="st22" points="144.7,438.5 145.1,438.7 145.3,439.1 145.6,438.7 146,438.5 145.6,438.2 145.3,437.8 145.1,438.2 		
			"/>
		<polygon class="st22" points="196.2,482.2 196.6,482.4 196.8,482.8 197,482.4 197.4,482.2 197,482 196.8,481.6 196.6,482 		"/>
		<polygon class="st22" points="209,437.9 209.4,438.2 209.6,438.6 209.8,438.2 210.2,437.9 209.8,437.7 209.6,437.3 209.4,437.7 		
			"/>
		<polygon class="st22" points="218.5,446.6 218.9,446.8 219.1,447.2 219.4,446.8 219.8,446.6 219.4,446.3 219.1,445.9 218.9,446.3 
					"/>
		<polygon class="st22" points="191,436.9 191.5,437.1 191.7,437.5 191.9,437.1 192.3,436.9 191.9,436.7 191.7,436.3 191.5,436.7 		
			"/>
		<polygon class="st22" points="143.5,389.8 143.9,390.1 144.1,390.5 144.3,390.1 144.7,389.8 144.3,389.6 144.1,389.2 143.9,389.6 
					"/>
		<polygon class="st22" points="137.6,406.8 138,407.1 138.2,407.5 138.5,407.1 138.9,406.8 138.5,406.6 138.2,406.2 138,406.6 		
			"/>
		<polygon class="st22" points="155.4,414.2 155.8,414.4 156,414.8 156.2,414.4 156.7,414.2 156.2,414 156,413.6 155.8,414 		"/>
		<polygon class="st22" points="156,398.9 156.4,399.1 156.7,399.5 156.9,399.1 157.3,398.9 156.9,398.6 156.7,398.2 156.4,398.6 		
			"/>
		<polygon class="st22" points="153.1,439.1 153.5,439.3 153.8,439.7 154,439.3 154.4,439.1 154,438.9 153.8,438.5 153.5,438.9 		
			"/>
		<polygon class="st22" points="203.3,379.6 203.7,379.8 203.9,380.2 204.1,379.8 204.5,379.6 204.1,379.4 203.9,379 203.7,379.4 		
			"/>
		<polygon class="st22" points="250.4,406.7 250.8,406.9 251,407.3 251.2,406.9 251.6,406.7 251.2,406.5 251,406.1 250.8,406.5 		
			"/>
		<polygon class="st22" points="154.8,385.2 155.2,385 155.4,384.6 155.6,385 156,385.2 155.6,385.4 155.4,385.8 155.2,385.4 		"/>
		<polygon class="st22" points="151.3,370.9 151.7,370.7 151.9,370.3 152.1,370.7 152.5,370.9 152.1,371.2 151.9,371.6 151.7,371.2 
					"/>
		<polygon class="st22" points="202.6,424.1 203,423.9 203.2,423.5 203.5,423.9 203.9,424.1 203.5,424.3 203.2,424.7 203,424.3 		
			"/>
		<polygon class="st22" points="218,424.7 218.4,424.5 218.6,424.1 218.8,424.5 219.2,424.7 218.8,424.9 218.6,425.4 218.4,424.9 		
			"/>
	</g>
	<g>
		<g>
			<defs>
				<path id="SVGID_1_" d="M222.1,492.9H172c-24.9,0-45.3-20.4-45.3-45.3v-41.7c0-24.9,20.4-45.3,45.3-45.3h50.1
					c24.9,0,45.3,20.4,45.3,45.3v41.8C267.4,472.6,247,492.9,222.1,492.9z"/>
			</defs>
			<clipPath id="SVGID_2_">
				<use xlink:href="#SVGID_1_"  style="overflow:visible;"/>
			</clipPath>
			<g class="st23">
				
					<radialGradient id="SVGID_3_" cx="73.9344" cy="397.146" r="79.8833" gradientTransform="matrix(-0.9793 -0.2023 0.2023 -0.9793 181.3158 816.7921)" gradientUnits="userSpaceOnUse">
					<stop  offset="0" style="stop-color:#FF8CD2"/>
					<stop  offset="0.1626" style="stop-color:#FB8AD1"/>
					<stop  offset="0.3185" style="stop-color:#F084CD"/>
					<stop  offset="0.4716" style="stop-color:#DC79C6"/>
					<stop  offset="0.6231" style="stop-color:#C16ABD"/>
					<stop  offset="0.7733" style="stop-color:#9E57B1"/>
					<stop  offset="0.9206" style="stop-color:#7440A2"/>
					<stop  offset="1" style="stop-color:#5A3299"/>
				</radialGradient>
				<path class="st24" d="M183,480.3c-0.6,2.7-5.6,13-2.8,13.6c2.4,0.5,11.6,3.3,12.5,1c0.4,0.2,4-3.9,4.4-3.8
					c1.3,0.3,1.3-0.6,2.3-1.2c0.8,3.4,1.6-0.7,5.3,0.1c2.5,0.5,4.9,0,6.9-1.2c2.7,3.9,6.7,6.8,11.7,7.8c10.2,2.1,20.1-4.4,22.2-14.6
					c0.8-3.7,0.4-7.3-0.9-10.6c0.7,0.2,1.4,0.4,2.2,0.6c10.2,2.1,20.1-4.4,22.2-14.6s-4.4-20.1-14.6-22.2
					c-10.2-2.1-20.1,4.4-22.2,14.6c-0.8,3.7-0.4,7.3,0.9,10.6c-0.7-0.2-1.4-0.4-2.2-0.6c-9.3-1.9-18.4,3.4-21.5,12.1
					c-0.3-0.1-0.6-0.2-0.9-0.2c-3.8-0.8-7.6,0.9-9.7,3.9c-0.7-0.9-1.7-1.5-2.9-1.7c-2.4-0.5-4.8,0.8-5.7,3.1
					c-0.4-0.2-0.8-0.3-1.2-0.4C186.3,475.8,183.6,477.6,183,480.3z M119.3,429.8c-2.8,2.6-4.9,6.1-5.8,10.1
					c-2.1,10.3,4.5,20.4,14.8,22.5c1.6,0.3,3.2,0.4,4.7,0.4c-0.6,6.5,3.7,12.5,10.2,13.8c3.3,0.7,6.5,0,9.2-1.6
					c0.6,3.4,3.3,6.2,6.9,7c2,0.4,4,0.1,5.7-0.7c1.2,1.7,0.2,12.7,2.4,13.1c3.1,0.6,11.7-3.1,13.7-5.2c2.5,0.2,2.1-8.6,2.6-11.2
					c0.6-2.7-1.1-5.3-3.7-5.9c-1.2-2.4-3.3-4.2-6.1-4.7c-2-0.4-4-0.1-5.7,0.7c-1.2-1.7-3.1-2.9-5.3-3.3c-1.5-0.3-2.9-0.2-4.2,0.2
					c0.4-6-3.4-11.5-9.2-13.2c0.6-1.3,1.1-2.7,1.4-4.1c1.5-7.2-1.3-14.2-6.6-18.6c2.7-2.6,4.7-5.9,5.5-9.9
					c2.1-10.2-4.4-20.1-14.6-22.2c-10.2-2.1-20.1,4.4-22.2,14.6C111.6,418.6,114.2,425.5,119.3,429.8z"/>
				<g class="st25">
					<path class="st7" d="M144.2,429.9c0.2-0.2,0.3-0.3,0.5-0.5c5.1,4.4,7.7,11.3,6.2,18.3c0,0.1-0.1,0.3-0.1,0.4
						C152.1,441,149.4,434.1,144.2,429.9z"/>
					<path class="st7" d="M179.8,472.9c-1.2-2.4-3.3-4.2-6.1-4.7c-2-0.4-4-0.1-5.7,0.7c-1.2-1.7-3.1-2.9-5.3-3.3
						c-1.5-0.3-2.9-0.2-4.2,0.2c0.4-6-3.4-11.5-9.2-13.2c0.1-0.2,0.2-0.5,0.3-0.7c5.7,1.8,9.4,7.2,9,13.1c1.3-0.4,2.8-0.5,4.2-0.2
						c2.2,0.5,4,1.7,5.3,3.3c1.7-0.8,3.7-1.2,5.7-0.7c2.8,0.6,5,2.4,6.1,4.7c2.6,0.7,4.3,3.3,3.7,5.9c0,0.1-0.1,0.2-0.1,0.4
						C184,476,182.4,473.5,179.8,472.9z"/>
					<path class="st7" d="M135.1,397.8c-10.1-2.1-19.9,4.3-22.2,14.3c0-0.1,0-0.3,0.1-0.4c2.1-10.2,12.1-16.7,22.2-14.6
						c10.2,2.1,16.7,12.1,14.6,22.2c0,0.1-0.1,0.3-0.1,0.4C151.7,409.6,145.2,399.8,135.1,397.8z"/>
					<path class="st7" d="M183.6,478.9L183.6,478.9c1.1-1.9,3.2-2.9,5.4-2.5c0.4,0.1,0.8,0.2,1.2,0.4c0.9-2.2,3.3-3.6,5.7-3.1
						c1.2,0.2,2.2,0.9,2.9,1.7c2.1-3,5.8-4.7,9.7-3.9c0.3,0.1,0.6,0.1,0.9,0.2c3.1-8.7,12.2-14,21.5-12.1c0.6,0.1,1.2,0.3,1.7,0.5
						c0.1,0.3,0.2,0.6,0.3,0.9c-0.7-0.2-1.4-0.4-2.2-0.6c-9.3-1.9-18.4,3.4-21.5,12.1c-0.3-0.1-0.6-0.2-0.9-0.2
						c-3.8-0.8-7.6,0.9-9.7,3.9c-0.7-0.9-1.7-1.5-2.9-1.7c-2.4-0.5-4.8,0.8-5.7,3.1c-0.4-0.2-0.8-0.3-1.2-0.4
						c-2.6-0.5-5.2,1-5.9,3.6c0-0.1,0-0.2,0.1-0.4l0,0C183.3,479.9,183.5,479.4,183.6,478.9z"/>
					<path class="st7" d="M254.2,435.8c-10.1-2.1-19.9,4.3-22.2,14.3c0-0.1,0-0.3,0.1-0.4c2.1-10.2,12.1-16.7,22.2-14.6
						c10.1,2.1,16.7,12.1,14.6,22.2c0,0.1-0.1,0.2-0.1,0.4C270.8,447.7,264.3,437.9,254.2,435.8z"/>
					<path class="st7" d="M119.2,430.6c-2.7,2.5-4.8,5.8-5.6,9.7c0-0.1,0-0.2,0.1-0.3c0.8-3.8,2.7-7.1,5.3-9.7
						C119,430.4,119.1,430.5,119.2,430.6z"/>
					<path class="st7" d="M244.9,472.2c1,3,1.3,6.4,0.6,9.7c0,0.1-0.1,0.2-0.1,0.3c0.6-3.5,0.3-7-1-10.2
						C244.6,472.1,244.7,472.2,244.9,472.2z"/>
				</g>
			</g>
		</g>
		<g>
			<defs>
				<path id="SVGID_4_" d="M222.1,492.9H172c-24.9,0-45.3-20.4-45.3-45.3v-41.7c0-24.9,20.4-45.3,45.3-45.3h50.1
					c24.9,0,45.3,20.4,45.3,45.3v41.8C267.4,472.6,247,492.9,222.1,492.9z"/>
			</defs>
			<clipPath id="SVGID_5_">
				<use xlink:href="#SVGID_4_"  style="overflow:visible;"/>
			</clipPath>
			<g class="st26">
				
					<radialGradient id="SVGID_6_" cx="200.4159" cy="382.6164" r="92.3584" gradientTransform="matrix(1 0 0 -1 0 797.4)" gradientUnits="userSpaceOnUse">
					<stop  offset="0" style="stop-color:#FF8CD2"/>
					<stop  offset="0.1952" style="stop-color:#FB8AD1"/>
					<stop  offset="0.3821" style="stop-color:#F086CD"/>
					<stop  offset="0.5658" style="stop-color:#DC7EC6"/>
					<stop  offset="0.7475" style="stop-color:#C172BD"/>
					<stop  offset="0.926" style="stop-color:#9F64B1"/>
					<stop  offset="1" style="stop-color:#8E5DAB"/>
				</radialGradient>
				<path class="st27" d="M185,491.6c-0.5,0-1,0.1-1.5,0.2c-0.5-2.9-3.1-5.1-6.1-5.1c-1.5,0-2.8,0.5-3.9,1.4
					c-1.7-4.1-5.8-7.1-10.6-7.1c-0.4,0-0.7,0-1.1,0.1c-1.6-11.2-11.2-19.9-22.8-19.9c-0.9,0-1.9,0.1-2.8,0.2
					c2.3-3.6,3.7-7.9,3.7-12.5c0-12.7-10.3-23.1-23.1-23.1c-12.7,0-23.1,10.3-23.1,23.1c0,12.7,10.3,23.1,23.1,23.1
					c0.9,0,1.9-0.1,2.8-0.2c-2.3,3.6-3.7,7.9-3.7,12.5c0,12.7,10.3,23.1,23.1,23.1c6.2,0,11.8-2.5,16-6.4c2.1,2,4.9,3.2,7.9,3.2
					c4.6,0,8.5-2.7,10.4-6.5c1.1,1,2.6,1.6,4.2,1.6c0.5,0,1-0.1,1.5-0.2c0.5,2.9,3.1,5.1,6.1,5.1c3.4,0,6.2-2.8,6.2-6.2
					C191.2,494.4,188.4,491.6,185,491.6z M292.2,432.7c0-12.7-10.3-23.1-23.1-23.1c-12.7,0-23.1,10.3-23.1,23.1
					c0,4.9,1.6,9.5,4.2,13.2c-7.4,3.9-12.5,11.7-12.5,20.7c0,1.8,0.2,3.6,0.6,5.3c-7.4,0.6-13.3,6.3-14.3,13.6
					c-1.5-0.8-3.2-1.3-5-1.3c-2.7,0-5.2,1-7.1,2.7c-1.8-1.4-4.1-2.3-6.6-2.3c-3.5,0-6.5,1.6-8.5,4.2c-3.3,0.1-6,2.9-6,6.2
					c0,3.1,2.3,5.7,5.4,6.2c1.9,3,5.3,5.1,9.1,5.1c2.7,0,5.2-1,7.1-2.7c1.8,1.4,4.1,2.3,6.6,2.3c4.5,0,8.4-2.8,10-6.7
					c2.8,2.6,6.5,4.2,10.6,4.2c8.1,0,14.8-6.2,15.6-14.1c1.9,0.5,3.8,0.8,5.8,0.8c12.9,0,23.4-10.5,23.4-23.4
					c0-5.1-1.6-9.8-4.4-13.6C287.3,449.1,292.2,441.5,292.2,432.7z"/>
				<g class="st25">
					<path class="st7" d="M250.3,446.9c-0.2-0.2-0.3-0.5-0.4-0.7c-7.2,4-12,11.6-12,20.4c0,0.2,0,0.3,0,0.5
						C238,458.3,243,450.7,250.3,446.9z"/>
					<path class="st7" d="M196.8,489.7c2-2.5,5.1-4.2,8.5-4.2c2.5,0,4.8,0.9,6.6,2.3c1.9-1.7,4.4-2.7,7.1-2.7c1.8,0,3.5,0.5,5,1.3
						c1-7.3,6.9-12.9,14.3-13.6c-0.1-0.3-0.1-0.6-0.2-0.9c-7.3,0.7-13.1,6.3-14.1,13.5c-1.5-0.8-3.2-1.3-5-1.3c-2.7,0-5.2,1-7.1,2.7
						c-1.8-1.4-4.1-2.3-6.6-2.3c-3.5,0-6.5,1.6-8.5,4.2c-3.3,0.1-6,2.9-6,6.2c0,0.2,0,0.3,0,0.5
						C191.1,492.3,193.7,489.9,196.8,489.7z"/>
					<path class="st7" d="M269.1,410.6c12.6,0,22.8,10.1,23,22.7c0-0.2,0-0.4,0-0.5c0-12.7-10.3-23.1-23.1-23.1
						c-12.7,0-23.1,10.3-23.1,23.1c0,0.2,0,0.3,0,0.5C246.3,420.7,256.5,410.6,269.1,410.6z"/>
					<path class="st7" d="M190.9,495.9L190.9,495.9c-0.8-2.5-3.1-4.3-5.9-4.3c-0.5,0-1,0.1-1.5,0.2c-0.5-2.9-3.1-5.1-6.1-5.1
						c-1.5,0-2.8,0.5-3.9,1.4c-1.7-4.1-5.8-7.1-10.6-7.1c-0.4,0-0.7,0-1.1,0.1c-1.6-11.2-11.2-19.9-22.8-19.9
						c-0.7,0-1.5,0.1-2.2,0.1c-0.2,0.3-0.4,0.7-0.6,1c0.9-0.1,1.8-0.2,2.8-0.2c11.6,0,21.3,8.6,22.8,19.9c0.4,0,0.7-0.1,1.1-0.1
						c4.8,0,8.9,2.9,10.6,7.1c1.1-0.9,2.4-1.4,3.9-1.4c3.1,0,5.6,2.2,6.1,5.1c0.5-0.1,1-0.2,1.5-0.2c3.3,0,6,2.5,6.2,5.8
						c0-0.2,0-0.3,0-0.5l0,0C191,497.2,190.9,496.6,190.9,495.9z"/>
					<path class="st7" d="M116.8,426.8c12.6,0,22.8,10.1,23,22.7c0-0.2,0-0.4,0-0.5c0-12.7-10.3-23.1-23.1-23.1
						c-12.7,0-23.1,10.3-23.1,23.1c0,0.2,0,0.3,0,0.5C94,436.9,104.2,426.8,116.8,426.8z"/>
					<path class="st7" d="M280.1,453.9c2.7,3.7,4.3,8.2,4.4,13.1c0-0.1,0-0.3,0-0.4c0-4.8-1.5-9.2-3.9-12.9
						C280.4,453.8,280.3,453.9,280.1,453.9z"/>
					<path class="st7" d="M118.9,472.8c-2,3.4-3.1,7.3-3.1,11.5c0,0.1,0,0.3,0,0.4c0.1-4.4,1.4-8.5,3.7-12
						C119.3,472.7,119.1,472.8,118.9,472.8z"/>
				</g>
			</g>
		</g>
	</g>
	<g>
		<circle class="st28" cx="239.6" cy="431.4" r="1.9"/>
		<path class="st28" d="M240.7,430.2L240.7,430.2l-6.9-6.9v0.6l-9.9-8.3l0.1,0.6l-6.2-3.9l4.5,5.7h-0.6l9.7,8.6l-0.6,0.1l7.6,5.6
			c0.1,0.2,0.4,0.4,0.6,0.6c0.8,0.4,1.8,0.1,2.2-0.7C241.4,431.5,241.3,430.7,240.7,430.2z"/>
		<path class="st29" d="M239.3,432.5c0.3-0.3,0.5-0.6,0.9-0.8c0.2-0.2,0.4-0.3,0.6-0.5l-4-4v0.4l-6-5l0.1,0.4l-8.1-6.2l7.1,7.3h-0.4
			l5.8,5.2l-0.4,0.1L239.3,432.5z"/>
		<circle class="st30" cx="239.6" cy="431.4" r="1.5"/>
		<path class="st31" d="M239,432c-0.2,0-0.4,0.1-0.5,0.3c0.2,0.3,0.6,0.5,0.9,0.5c0.1-0.1,0.1-0.2,0.1-0.3
			C239.5,432.3,239.3,432,239,432z M239,431.2c-0.2,0-0.3,0.1-0.3,0.3c0,0.2,0.1,0.3,0.3,0.3s0.3-0.1,0.3-0.3
			C239.3,431.3,239.2,431.2,239,431.2z M240,431.1c0.2,0,0.4-0.2,0.4-0.4s-0.2-0.4-0.4-0.4c-0.2,0-0.4,0.2-0.4,0.4
			C239.5,430.9,239.7,431.1,240,431.1z M238.9,430.9c0.3,0,0.5-0.2,0.5-0.5c0-0.1,0-0.2-0.1-0.3c-0.4,0.1-0.7,0.3-0.9,0.6
			C238.5,430.8,238.7,430.9,238.9,430.9z M239.8,431.5c0-0.1,0-0.1-0.1-0.1s-0.1,0-0.1,0.1c0,0.1,0,0.1,0.1,0.1
			S239.8,431.6,239.8,431.5z M239.7,431.9c0,0.1,0.1,0.2,0.2,0.2s0.2-0.1,0.2-0.2c0-0.1-0.1-0.2-0.2-0.2
			C239.8,431.7,239.7,431.8,239.7,431.9z M240.9,430.7L240.9,430.7c-0.4,0-0.7,0.3-0.7,0.7c0,0.2,0.1,0.5,0.3,0.6
			c-0.1,0.1-0.2,0.2-0.2,0.4c0,0.1,0.1,0.3,0.2,0.3c0.4-0.3,0.6-0.7,0.6-1.2C241.1,431.2,241.1,430.9,240.9,430.7z M240,432.6
			c-0.1,0-0.3,0.1-0.3,0.3l0,0c0.2,0,0.3-0.1,0.5-0.1C240.2,432.7,240.1,432.6,240,432.6z"/>
		<g class="st32">
			<path class="st33" d="M238.9,430.9L238.9,430.9c-0.2,0-0.4-0.1-0.5-0.3c0.2-0.3,0.5-0.5,0.9-0.6l0,0c-0.4,0.1-0.7,0.3-0.9,0.6
				C238.5,430.8,238.7,430.9,238.9,430.9z"/>
			<path class="st33" d="M238.5,432.4c0.1-0.2,0.3-0.3,0.5-0.3l0,0C238.8,432,238.6,432.2,238.5,432.4c0.2,0.3,0.5,0.5,0.9,0.5l0,0
				C239,432.9,238.7,432.7,238.5,432.4z"/>
			<path class="st33" d="M238.6,431.5c0,0.2,0.1,0.3,0.3,0.3l0,0C238.8,431.8,238.7,431.7,238.6,431.5c0-0.2,0.2-0.3,0.3-0.3l0,0
				C238.8,431.2,238.6,431.3,238.6,431.5z"/>
			<path class="st33" d="M240,432.1L240,432.1c-0.1,0-0.2-0.1-0.2-0.2c0-0.1,0.1-0.2,0.2-0.2l0,0c-0.1,0-0.2,0.1-0.2,0.2
				C239.7,432,239.8,432.1,240,432.1z"/>
			<path class="st33" d="M240,431.1L240,431.1c-0.2,0-0.4-0.2-0.4-0.4s0.2-0.4,0.4-0.4l0,0c-0.2,0-0.4,0.2-0.4,0.4
				C239.5,430.9,239.7,431.1,240,431.1z"/>
			<path class="st33" d="M240.4,432.3c0-0.1,0.1-0.3,0.2-0.4c-0.2-0.1-0.3-0.3-0.3-0.6c0-0.4,0.3-0.7,0.7-0.7l0,0l0,0
				c-0.4,0-0.7,0.3-0.7,0.7c0,0.2,0.1,0.5,0.3,0.6C240.4,432,240.3,432.2,240.4,432.3c0,0.1,0.1,0.3,0.2,0.3l0,0
				C240.4,432.6,240.4,432.4,240.4,432.3z"/>
			<path class="st33" d="M239.8,432.9c0-0.1,0.1-0.3,0.2-0.3l0,0C239.9,432.6,239.7,432.8,239.8,432.9
				C239.7,432.9,239.7,432.9,239.8,432.9C239.7,432.9,239.7,432.9,239.8,432.9L239.8,432.9z"/>
			<path class="st33" d="M239.7,431.6c-0.1,0-0.1,0-0.1-0.1s0-0.1,0.1-0.1l0,0c-0.1,0-0.1,0-0.1,0.1S239.7,431.6,239.7,431.6
				L239.7,431.6z"/>
		</g>
	</g>
	<circle class="st28" cx="197.2" cy="421.4" r="39.1"/>
	<circle class="st28" cx="197.2" cy="421.4" r="31.3"/>
	<g>
		<circle class="st34" cx="197.2" cy="421.4" r="25.7"/>
		<path class="st33" d="M185.8,431.8c-3.9,0-7.2,2.3-8.6,5.6c3.9,4.9,9.7,8.3,16.2,9.3c1.1-1.6,1.8-3.5,1.8-5.5
			C195.2,436,191,431.8,185.8,431.8z M185.8,416.4c-3.2,0-5.7,2.6-5.7,5.7c0,3.2,2.6,5.7,5.7,5.7c3.2,0,5.7-2.6,5.7-5.7
			C191.5,418.9,188.9,416.4,185.8,416.4z M202.6,414.9c3.9,0,7-3.1,7-7c0-3.9-3.1-7-7-7s-7,3.1-7,7
			C195.6,411.8,198.7,414.9,202.6,414.9z M184.5,411.6c5.2,0,9.4-4.2,9.4-9.4c0-2.2-0.8-4.3-2.1-5.9c-6.4,1.4-11.9,5.1-15.6,10.3
			C177.8,409.5,180.9,411.6,184.5,411.6z M200.8,422.8c0-1-0.8-1.8-1.8-1.8s-1.8,0.8-1.8,1.8s0.8,1.8,1.8,1.8
			C200,424.7,200.8,423.8,200.8,422.8z M198.9,429.2c0,2,1.6,3.7,3.7,3.7c2,0,3.7-1.6,3.7-3.7c0-2-1.6-3.7-3.7-3.7
			C200.6,425.5,198.9,427.1,198.9,429.2z M219.3,408.3C219.2,408.3,219.2,408.3,219.3,408.3c-6.6,0-12,5.3-12,11.9
			c0,4.2,2.1,7.8,5.4,9.9c-2,1.3-3.3,3.6-3.3,6.1c0,2.4,1.1,4.5,2.9,5.8c6.4-4.7,10.5-12.2,10.5-20.7
			C222.8,416.6,221.5,412.2,219.3,408.3z M203.3,442.1c-2.4,0-4.4,2-4.4,4.4c0,0.2,0,0.3,0,0.5c3-0.2,5.8-0.9,8.5-2.1
			C206.8,443.3,205.2,442.1,203.3,442.1z"/>
		<g class="st32">
			<path class="st33" d="M184.5,411.6c0.1,0,0.1,0,0.2,0c-3.5,0-6.6-2-8.2-5c3.6-5.1,9.1-8.8,15.4-10.2c0,0,0,0,0-0.1
				c-6.4,1.4-11.9,5.1-15.6,10.3C177.8,409.5,180.9,411.6,184.5,411.6z"/>
			<path class="st33" d="M177.4,437.5c1.4-3.3,4.7-5.6,8.5-5.6c-0.1,0-0.1,0-0.2,0c-3.9,0-7.2,2.3-8.6,5.6c3.9,4.9,9.7,8.3,16.2,9.3
				l0,0C187,445.7,181.3,442.3,177.4,437.5z"/>
			<path class="st33" d="M180.1,422.1c0,3.2,2.6,5.7,5.7,5.7h0.1c-3.1-0.1-5.6-2.6-5.6-5.7s2.5-5.6,5.6-5.7h-0.1
				C182.6,416.4,180.1,418.9,180.1,422.1z"/>
			<path class="st33" d="M202.6,432.9h0.1c-2-0.1-3.5-1.7-3.5-3.7s1.6-3.6,3.5-3.7h-0.1c-2,0-3.7,1.6-3.7,3.7
				C198.9,431.2,200.6,432.9,202.6,432.9z"/>
			<path class="st33" d="M202.6,414.9h0.1c-3.8-0.1-6.9-3.2-6.9-7c0-3.8,3.1-6.9,6.9-7h-0.1c-3.9,0-7,3.1-7,7
				C195.6,411.8,198.7,414.9,202.6,414.9z"/>
			<path class="st33" d="M209.6,436.3c0-2.6,1.3-4.8,3.3-6.1c-3.2-2.1-5.4-5.8-5.4-9.9c0-6.5,5.2-11.8,11.7-11.9l0,0c0,0,0,0-0.1,0
				c-6.6,0-11.9,5.3-11.9,11.9c0,4.2,2.1,7.8,5.4,9.9c-2,1.3-3.3,3.6-3.3,6.1c0,2.4,1.1,4.5,2.9,5.8l0.1-0.1
				C210.7,440.7,209.6,438.6,209.6,436.3z"/>
			<path class="st33" d="M199.1,446.5c0-2.4,1.9-4.3,4.3-4.4c-0.1,0-0.1,0-0.1,0c-2.4,0-4.4,2-4.4,4.4c0,0.2,0,0.3,0,0.5
				c0.1,0,0.2,0,0.3,0C199.2,446.8,199.1,446.7,199.1,446.5z"/>
			<path class="st33" d="M199.1,424.7c-1-0.1-1.7-0.9-1.7-1.8c0-1,0.8-1.8,1.7-1.8H199c-1,0-1.8,0.8-1.8,1.8s0.8,1.8,1.8,1.8
				C199,424.7,199,424.7,199.1,424.7z"/>
		</g>
	</g>
	<g>
		<circle class="st28" cx="237.8" cy="395.5" r="2.9"/>
		<path class="st28" d="M239.4,393.6L239.4,393.6L229,383.2v0.9l-14.9-12.4l0.1,0.9l-9.3-5.8l6.8,8.6h-0.9l14.5,12.8l-0.9,0.1
			l11.3,8.4c0.2,0.4,0.5,0.7,0.9,0.9c1.2,0.6,2.7,0.2,3.3-1C240.4,395.6,240.2,394.4,239.4,393.6z"/>
		<path class="st29" d="M237.2,397c0.4-0.5,0.8-0.9,1.3-1.3c0.3-0.3,0.6-0.5,1-0.7l-6.1-6.1v0.6l-9-7.5l0.1,0.6l-12.2-9.3l10.7,11
			h-0.6l8.8,7.8l-0.6,0.1L237.2,397z"/>
		<circle class="st30" cx="237.8" cy="395.5" r="2.2"/>
		<path class="st31" d="M236.8,396.4c-0.3,0-0.6,0.2-0.7,0.5c0.3,0.4,0.8,0.7,1.4,0.8c0.1-0.1,0.2-0.3,0.2-0.5
			C237.6,396.7,237.2,396.4,236.8,396.4z M236.8,395c-0.3,0-0.5,0.2-0.5,0.5c0,0.3,0.2,0.5,0.5,0.5s0.5-0.2,0.5-0.5
			C237.3,395.2,237,395,236.8,395z M238.2,394.9c0.3,0,0.6-0.3,0.6-0.6c0-0.3-0.3-0.6-0.6-0.6c-0.3,0-0.6,0.3-0.6,0.6
			C237.6,394.6,237.9,394.9,238.2,394.9z M236.6,394.6c0.5,0,0.8-0.4,0.8-0.8c0-0.2-0.1-0.4-0.2-0.5c-0.6,0.1-1,0.4-1.4,0.9
			C236.1,394.4,236.3,394.6,236.6,394.6z M238.1,395.6c0-0.1-0.1-0.2-0.2-0.2s-0.2,0.1-0.2,0.2s0.1,0.2,0.2,0.2
			C238,395.7,238.1,395.7,238.1,395.6z M237.9,396.1c0,0.2,0.1,0.3,0.3,0.3c0.2,0,0.3-0.1,0.3-0.3s-0.1-0.3-0.3-0.3
			C238.1,395.8,237.9,396,237.9,396.1z M239.7,394.3L239.7,394.3c-0.6,0-1,0.5-1,1c0,0.4,0.2,0.7,0.5,0.9c-0.2,0.1-0.3,0.3-0.3,0.5
			s0.1,0.4,0.3,0.5c0.6-0.4,0.9-1.1,0.9-1.8C240,395,239.9,394.7,239.7,394.3z M238.3,397.3c-0.2,0-0.4,0.2-0.4,0.4l0,0
			c0.3,0,0.5-0.1,0.7-0.2C238.6,397.4,238.4,397.3,238.3,397.3z"/>
		<g class="st32">
			<path class="st33" d="M236.6,394.6C236.7,394.6,236.7,394.6,236.6,394.6c-0.3,0-0.6-0.2-0.7-0.4c0.3-0.4,0.8-0.8,1.3-0.9l0,0
				c-0.6,0.1-1,0.4-1.4,0.9C236.1,394.4,236.3,394.6,236.6,394.6z"/>
			<path class="st33" d="M236,396.9c0.1-0.3,0.4-0.5,0.7-0.5l0,0C236.4,396.4,236.1,396.6,236,396.9c0.3,0.4,0.8,0.7,1.4,0.8l0,0
				C236.9,397.6,236.4,397.3,236,396.9z"/>
			<path class="st33" d="M236.3,395.5c0,0.3,0.2,0.5,0.5,0.5l0,0C236.5,396,236.3,395.8,236.3,395.5c0-0.3,0.2-0.5,0.5-0.5l0,0
				C236.5,395,236.3,395.2,236.3,395.5z"/>
			<path class="st33" d="M238.2,396.5L238.2,396.5c-0.2,0-0.3-0.1-0.3-0.3s0.1-0.3,0.3-0.3l0,0c-0.2,0-0.3,0.1-0.3,0.3
				C237.9,396.3,238.1,396.5,238.2,396.5z"/>
			<path class="st33" d="M238.2,394.9L238.2,394.9c-0.3,0-0.6-0.3-0.6-0.6c0-0.3,0.3-0.6,0.6-0.6l0,0c-0.3,0-0.6,0.3-0.6,0.6
				C237.6,394.6,237.9,394.9,238.2,394.9z"/>
			<path class="st33" d="M238.8,396.8c0-0.2,0.1-0.4,0.3-0.5c-0.3-0.2-0.5-0.5-0.5-0.9c0-0.6,0.5-1,1-1l0,0l0,0c-0.6,0-1,0.5-1,1
				c0,0.4,0.2,0.7,0.5,0.9C238.9,396.3,238.8,396.5,238.8,396.8c0,0.2,0.1,0.4,0.2,0.5l0,0C238.9,397.1,238.8,397,238.8,396.8z"/>
			<path class="st33" d="M237.9,397.6c0-0.2,0.2-0.4,0.4-0.4l0,0C238.1,397.3,237.9,397.4,237.9,397.6
				C237.9,397.7,237.9,397.7,237.9,397.6C237.9,397.7,237.9,397.7,237.9,397.6C237.9,397.7,237.9,397.7,237.9,397.6z"/>
			<path class="st33" d="M237.9,395.7c-0.1,0-0.1-0.1-0.1-0.2c0-0.1,0.1-0.2,0.1-0.2l0,0c-0.1,0-0.2,0.1-0.2,0.2
				C237.7,395.7,237.8,395.7,237.9,395.7L237.9,395.7z"/>
		</g>
	</g>
	<g>
		<circle class="st28" cx="175.2" cy="458.7" r="1.4"/>
		<path class="st28" d="M176,457.8L176,457.8l-5-5v0.4l-7.1-6l0.1,0.4l-4.5-2.8l3.2,4.1h-0.4l6.9,6.1l-0.4,0.1l5.4,4
			c0.1,0.2,0.3,0.3,0.4,0.4c0.6,0.3,1.3,0.1,1.6-0.5C176.5,458.8,176.4,458.2,176,457.8z"/>
		<path class="st29" d="M175,459.5c0.2-0.2,0.4-0.4,0.6-0.6c0.1-0.1,0.3-0.2,0.5-0.3l-2.9-2.9v0.3l-4.3-3.6v0.3l-5.8-4.5l5.1,5.3
			h-0.3l4.2,3.7h-0.3L175,459.5z"/>
		<circle class="st30" cx="175.2" cy="458.7" r="1.1"/>
		<path class="st31" d="M174.7,459.2c-0.2,0-0.3,0.1-0.4,0.2c0.2,0.2,0.4,0.3,0.7,0.4c0-0.1,0.1-0.1,0.1-0.2
			C175.1,459.3,175,459.2,174.7,459.2z M174.7,458.5c-0.1,0-0.2,0.1-0.2,0.2s0.1,0.2,0.2,0.2s0.2-0.1,0.2-0.2
			S174.9,458.5,174.7,458.5z M175.5,458.5c0.2,0,0.3-0.1,0.3-0.3s-0.1-0.3-0.3-0.3s-0.3,0.1-0.3,0.3S175.3,458.5,175.5,458.5z
			 M174.7,458.3c0.2,0,0.4-0.2,0.4-0.4c0-0.1,0-0.2-0.1-0.2c-0.3,0.1-0.5,0.2-0.6,0.4C174.4,458.2,174.5,458.3,174.7,458.3z
			 M175.4,458.8C175.4,458.7,175.3,458.7,175.4,458.8c-0.1-0.1-0.2,0-0.2,0S175.3,458.9,175.4,458.8
			C175.3,458.9,175.4,458.8,175.4,458.8z M175.3,459c0,0.1,0.1,0.2,0.2,0.2c0.1,0,0.2-0.1,0.2-0.2c0-0.1-0.1-0.2-0.2-0.2
			C175.4,458.9,175.3,459,175.3,459z M176.1,458.2L176.1,458.2c-0.3,0-0.5,0.2-0.5,0.5c0,0.2,0.1,0.3,0.2,0.4
			c-0.1,0.1-0.1,0.1-0.1,0.3c0,0.1,0,0.2,0.1,0.2c0.3-0.2,0.4-0.5,0.4-0.9C176.3,458.5,176.2,458.3,176.1,458.2z M175.5,459.6
			c-0.1,0-0.2,0.1-0.2,0.2l0,0c0.1,0,0.2,0,0.4-0.1C175.6,459.6,175.6,459.6,175.5,459.6z"/>
		<g class="st32">
			<path class="st33" d="M174.7,458.3L174.7,458.3c-0.1,0-0.3-0.1-0.3-0.2c0.2-0.2,0.4-0.4,0.6-0.4l0,0c-0.3,0.1-0.5,0.2-0.6,0.4
				C174.4,458.2,174.5,458.3,174.7,458.3z"/>
			<path class="st33" d="M174.4,459.4c0.1-0.1,0.2-0.2,0.4-0.2l0,0C174.6,459.2,174.5,459.3,174.4,459.4c0.2,0.2,0.4,0.3,0.7,0.4
				l0,0C174.8,459.7,174.6,459.6,174.4,459.4z"/>
			<path class="st33" d="M174.5,458.7c0,0.1,0.1,0.2,0.2,0.2l0,0C174.6,459,174.5,458.9,174.5,458.7c0-0.1,0.1-0.2,0.2-0.2l0,0
				C174.6,458.5,174.5,458.6,174.5,458.7z"/>
			<path class="st33" d="M175.5,459.2L175.5,459.2c-0.1,0-0.1-0.1-0.1-0.2c0-0.1,0.1-0.1,0.1-0.2l0,0c-0.1,0-0.2,0.1-0.2,0.2
				C175.3,459.1,175.4,459.2,175.5,459.2z"/>
			<path class="st33" d="M175.5,458.5L175.5,458.5c-0.2,0-0.3-0.1-0.3-0.3s0.1-0.3,0.3-0.3l0,0c-0.2,0-0.3,0.1-0.3,0.3
				S175.3,458.5,175.5,458.5z"/>
			<path class="st33" d="M175.7,459.3c0-0.1,0.1-0.2,0.1-0.3c-0.1-0.1-0.2-0.2-0.2-0.4c0-0.3,0.2-0.5,0.5-0.5l0,0l0,0
				c-0.3,0-0.5,0.2-0.5,0.5c0,0.2,0.1,0.3,0.2,0.4C175.8,459.1,175.7,459.2,175.7,459.3s0,0.2,0.1,0.2l0,0
				C175.8,459.5,175.7,459.4,175.7,459.3z"/>
			<path class="st33" d="M175.3,459.8c0-0.1,0.1-0.2,0.2-0.2l0,0C175.4,459.6,175.3,459.7,175.3,459.8L175.3,459.8L175.3,459.8
				L175.3,459.8z"/>
			<path class="st33" d="M175.3,458.9C175.3,458.9,175.2,458.8,175.3,458.9c-0.1-0.1,0-0.1,0-0.2l0,0
				C175.3,458.7,175.2,458.7,175.3,458.9C175.2,458.8,175.3,458.9,175.3,458.9L175.3,458.9z"/>
		</g>
	</g>
	
		<radialGradient id="SVGID_7_" cx="202.1699" cy="427.4783" r="96.1222" gradientTransform="matrix(1 0 0 -1 0 797.4)" gradientUnits="userSpaceOnUse">
		<stop  offset="0" style="stop-color:#FFFDE0"/>
		<stop  offset="0.165" style="stop-color:#FCF9DF"/>
		<stop  offset="0.3232" style="stop-color:#F4EEDB"/>
		<stop  offset="0.4786" style="stop-color:#E7DAD5"/>
		<stop  offset="0.6323" style="stop-color:#D3BFCC"/>
		<stop  offset="0.7848" style="stop-color:#BB9CC0"/>
		<stop  offset="0.9344" style="stop-color:#9D72B2"/>
		<stop  offset="1" style="stop-color:#8E5DAB"/>
	</radialGradient>
	<path class="st35" d="M253,380c-8.8-10.2-21.8-16.7-36.3-16.7h-19c-17.9,8.3-45.3,24.8-68.2,54.5v24.7c0,14.7,6.7,27.9,17.3,36.8
		C163.5,450.9,197.2,406.1,253,380z M264.6,408.9c-0.3-6.4-1.9-12.5-4.5-18.1c-19,10-67.2,39.6-99.8,96.3c5.2,2,10.9,3.2,16.7,3.2
		C192.8,463.7,220.8,428.2,264.6,408.9z M194.7,490.3h5.7c13-20.8,33.9-47.1,64.2-65.3v-4.3C248.7,429.4,218.6,450.1,194.7,490.3z"
		/>
	<g class="st36">
		<g>
			<path class="st7" d="M244.4,442.5c-2.9,13.9-10.5,25.9-26.1,25.3c-10.6-0.4-10.6,16.2,0,16.5c22.8,0.8,37.6-16.5,42-37.5
				C262.5,436.5,246.5,432,244.4,442.5L244.4,442.5z"/>
		</g>
		<g>
			<path class="st7" d="M243.8,416.8c-0.1,2.3,0.1,4.6-0.2,6.8c0.1-0.7,0.2-1.5,0.3-2.2v0.1c0.7-1.2,1.4-2.4,2.1-3.6l0,0
				c-1.4,1.8-2.4,3.5-2.4,5.8c0,2,0.9,4.4,2.4,5.8c3,2.8,8.8,3.6,11.7,0c1.6-1.9,2.3-3.6,2.5-6c0-0.5,0.1-0.9,0.1-1.4
				c0-1.8,0.1-3.6,0.1-5.4c0.1-4.3-3.9-8.5-8.3-8.3C247.5,408.7,244,412.1,243.8,416.8L243.8,416.8z"/>
		</g>
		<g>
			<path class="st7" d="M154.3,395.8c1.7-1.5,3.2-3.3,5-4.7c-0.6,0.4-1.2,0.9-1.8,1.3c0,0,0,0,0.1,0c-1.4,0.4-2.7,0.7-4.1,1.1l0,0
				c2.3-0.2,4.2-0.7,5.9-2.4c1.4-1.4,2.5-3.8,2.4-5.8c-0.2-4.1-3.6-8.8-8.2-8.3c-2.5,0.3-4.1,0.9-6,2.5c-0.4,0.3-0.7,0.6-1,0.9
				c-1.3,1.2-2.6,2.5-3.9,3.7c-3.2,3-3.3,8.7,0,11.7S150.9,398.9,154.3,395.8L154.3,395.8z"/>
		</g>
		<g>
			<path class="st7" d="M172.6,383.4c0.9-0.8,1.7-1.8,2.7-2.5c-0.3,0.2-0.6,0.5-1,0.7l0,0c-0.7,0.2-1.5,0.4-2.2,0.6l0,0
				c1.2-0.1,2.3-0.4,3.2-1.3c0.8-0.8,1.4-2,1.3-3.2c-0.1-2.2-2-4.8-4.5-4.5c-1.3,0.1-2.2,0.5-3.3,1.3c-0.2,0.2-0.4,0.3-0.6,0.5
				c-0.7,0.7-1.4,1.3-2.1,2c-1.7,1.6-1.8,4.7,0,6.3C168.1,385.1,170.7,385.2,172.6,383.4L172.6,383.4z"/>
		</g>
	</g>
	<polygon class="st4" points="176.6,291.1 188,287.3 195.4,292.8 213,284.2 220.1,291.1 229.2,291.1 240.1,284.2 248.2,287.7 
		233.2,284.2 225.7,294.1 214.7,291.1 201.2,284.2 194.5,291.1 187.6,289.2 	"/>
	<g>
		<g class="st37">
			<g>
				<path class="st0" d="M96.4,458.7"/>
			</g>
		</g>
	</g>
</g>
</svg>
