<?xml version="1.0" encoding="iso-8859-1"?>
<!-- Generator: Adobe Illustrator 19.0.0, SVG Export Plug-In . SVG Version: 6.00 Build 0)  -->
<svg xmlns="http://www.w3.org/2000/svg" xmlns:xlink="http://www.w3.org/1999/xlink" version="1.1" id="Layer_1" x="0px" y="0px" viewBox="0 0 512 512" style="enable-background:new 0 0 512 512;" xml:space="preserve" width="512px" height="512px">
<g>
	<g>
		<path d="M500.093,429.796H299.149c-5.522,0-10,4.478-10,10c0,9.188-7.475,16.663-16.663,16.663h-33.231    c-9.188,0-16.663-7.475-16.663-16.663c0-5.522-4.478-10-10-10H56.475V172.835c0-11.489,9.348-20.837,20.837-20.837h124.715    l0.091,0.876l-20.778,19.61c-0.069,0.066-0.139,0.134-0.207,0.201c-18.161,18.163-28.163,42.311-28.163,67.994v44.653    c0,3.951,2.327,7.532,5.938,9.138c1.304,0.58,2.688,0.862,4.061,0.862c2.429,0,4.827-0.885,6.701-2.575l43.759-39.482    c1.26,2.155,3.299,3.815,5.791,4.551c11.751,3.471,23.922,5.252,36.175,5.294c0.147,0,0.295,0.001,0.443,0.001    c12.399,0,24.716-1.781,36.614-5.295c2.563-0.758,4.642-2.501,5.891-4.753l43.989,39.689c1.875,1.69,4.272,2.575,6.701,2.575    c1.373,0,2.757-0.282,4.061-0.862c3.61-1.605,5.938-5.187,5.938-9.138v-44.653c0-25.684-10.002-49.831-28.163-67.994    l-19.217-19.217l0.186-1.477h122.852c11.489,0,20.837,9.348,20.837,20.837v183.344c0,5.522,4.478,10,10,10c5.522,0,10-4.478,10-10    V172.835c0-22.518-18.319-40.837-40.837-40.837h-120.54c3.504-45.499-11.789-90.458-42.613-124.457l-1.758-1.937    C266.547,2.038,261.944,0,257.135,0c-0.042,0-0.085,0-0.127,0c-4.855,0.036-9.479,2.148-12.686,5.793l-3.313,3.764    c-29.54,33.568-44.343,77.958-40.986,122.441H77.313c-22.518,0-40.837,18.319-40.837,40.837v256.961H11.909    c-5.522,0-10,4.478-10,10v15.59C1.909,486.603,27.307,512,58.522,512h394.955c31.217,0,56.614-25.396,56.614-56.613v-15.591    C510.093,434.273,505.615,429.796,500.093,429.796z M303.707,216.456l4.776-37.864l8.243,8.242    c14.384,14.385,22.306,33.51,22.306,53.852v22.162l-36.969-33.355L303.707,216.456z M256.023,22.77l1.145-1.3    c28.413,31.625,41.652,73.905,36.329,116.108l-2.299,18.229c-0.001,0.008-0.003,0.015-0.004,0.022l-9.627,76.339    c0,0.001,0,0.001,0,0.002l-1.024,8.121c-8.097,1.88-16.377,2.83-24.704,2.83c-0.125,0-0.25,0-0.375-0.001    c-8.148-0.028-16.253-0.966-24.177-2.793l-7.879-76.047l-0.886-8.554c0-0.001,0-0.002-0.001-0.004l-2.197-21.202    C216.131,94.047,229.143,53.315,256.023,22.77z M210.043,229.392l-37.073,33.45V240.68c0-20.295,7.886-39.379,22.206-53.752    l9.536-9.001L210.043,229.392z M453.479,492H58.522c-20.189,0-36.614-16.425-36.614-36.614v-5.59h182.068    c4.363,15.372,18.526,26.663,35.277,26.663h33.231c16.751,0,30.914-11.291,35.277-26.663H490.09v5.591h0.002    C490.093,475.575,473.668,492,453.479,492z" fill="#0f7cff"/>
	</g>
</g>
<g>
	<g>
		<path d="M424.852,174.321H374.51c-5.522,0-10,4.478-10,10c0,5.522,4.478,10,10,10h40.342v193.741H100.506V194.321h31.718    c5.522,0,10-4.478,10-10c0-5.522-4.478-10-10-10H90.506c-5.522,0-10,4.478-10,10v213.741c0,5.522,4.478,10,10,10h334.345    c5.522,0,10-4.478,10-10V184.321C434.852,178.799,430.374,174.321,424.852,174.321z" fill="#0f7cff"/>
	</g>
</g>
<g>
	<g>
		<circle cx="256.001" cy="105.57" r="10" fill="#0f7cff"/>
	</g>
</g>
<g>
	<g>
		<circle cx="465.531" cy="399.77" r="10" fill="#0f7cff"/>
	</g>
</g>
<g>
	<g>
		<path d="M229.998,277.651c-5.522,0-10,4.478-10,10v40.705c0,5.522,4.478,10,10,10c5.522,0,10-4.477,10-10v-40.705    C239.998,282.129,235.521,277.651,229.998,277.651z" fill="#0f7cff"/>
	</g>
</g>
<g>
	<g>
		<path d="M280.803,275.333c-5.522,0-10,4.478-10,10v60.026c0,5.522,4.478,10,10,10c5.522,0,10-4.477,10-10v-60.026    C290.803,279.811,286.325,275.333,280.803,275.333z" fill="#0f7cff"/>
	</g>
</g>
<g>
</g>
<g>
</g>
<g>
</g>
<g>
</g>
<g>
</g>
<g>
</g>
<g>
</g>
<g>
</g>
<g>
</g>
<g>
</g>
<g>
</g>
<g>
</g>
<g>
</g>
<g>
</g>
<g>
</g>
</svg>
