<?xml version="1.0" encoding="iso-8859-1"?>
<!-- Generator: Adobe Illustrator 19.0.0, SVG Export Plug-In . SVG Version: 6.00 Build 0)  -->
<svg xmlns="http://www.w3.org/2000/svg" xmlns:xlink="http://www.w3.org/1999/xlink" version="1.1" id="Layer_1" x="0px" y="0px" viewBox="0 0 512 512" style="enable-background:new 0 0 512 512;" xml:space="preserve" width="512px" height="512px">
<g>
	<g>
		<path d="M437.433,263.396l-31.064-56.746v-38.896C406.369,75.254,331.114,0,238.614,0S70.86,75.254,70.859,167.754v28.807    c0,35.784,10.758,70.014,31.144,99.213v82.576c0,5.523,4.478,10,10,10c5.522,0,10-4.477,10-10v-85.772    c0-2.111-0.668-4.168-1.908-5.876c-19.126-26.336-29.235-57.506-29.235-90.141v-28.807C90.86,86.282,157.142,20,238.615,20    c81.472,0,147.754,66.282,147.754,147.754v41.455c0,1.678,0.423,3.33,1.229,4.802l32.293,58.99    c2.44,4.458,0.688,8.321-0.178,9.776c-0.863,1.449-3.413,4.811-8.46,4.811c-0.017,0-0.034,0-0.052,0l-14.786-0.068    c-0.016,0-0.031,0-0.046,0c-2.644,0-5.181,1.047-7.055,2.913c-1.885,1.877-2.945,4.427-2.945,7.087v44.629    c0,23.848-19.402,43.25-43.251,43.25h-30.021c-13.624,0-24.708,11.084-24.708,24.708v76.435l-135.941-61.101    c-5.039-2.265-10.957-0.017-13.221,5.021c-2.264,5.038-0.016,10.957,5.021,13.221l150.041,67.438    c1.31,0.588,2.706,0.879,4.099,0.879c1.9,0,3.789-0.541,5.432-1.604c2.848-1.842,4.568-5.003,4.568-8.396v-91.894    c0-2.596,2.112-4.708,4.708-4.708h30.021c34.877,0,63.251-28.374,63.251-63.25v-34.583l4.74,0.022c0.048,0,0.095,0,0.143,0    c10.623,0,20.202-5.441,25.643-14.576C442.361,283.835,442.562,272.764,437.433,263.396z" fill="#0f7cff"/>
	</g>
</g>
<g>
	<g>
		<path d="M336.354,133.243L336.354,133.243l-6.713-0.794c-0.43-1.09-0.878-2.172-1.346-3.246l4.185-5.309    c7.867-9.978,7.666-23.637-0.468-31.773l-17.527-17.527c-8.136-8.136-21.796-8.336-31.774-0.468l-5.309,4.186    c-1.073-0.467-2.156-0.916-3.246-1.345l-0.794-6.712c-1.493-12.619-11.295-22.135-22.8-22.135h-24.786    c-11.504,0-21.306,9.517-22.799,22.138l-0.793,6.711c-1.089,0.429-2.17,0.877-3.243,1.344l-5.308-4.186    c-9.979-7.868-23.637-7.668-31.774,0.468l-17.528,17.528c-8.134,8.135-8.335,21.795-0.467,31.772l4.185,5.308    c-0.468,1.075-0.917,2.157-1.346,3.247l-6.713,0.794c-12.62,1.493-22.137,11.294-22.137,22.799v24.787    c0,11.505,9.517,21.306,22.136,22.799l6.712,0.794c0.43,1.09,0.878,2.173,1.346,3.247l-4.186,5.309    c-7.868,9.979-7.667,23.639,0.468,31.774l17.527,17.527c8.133,8.135,21.793,8.337,31.772,0.469l5.309-4.186    c1.074,0.468,2.156,0.917,3.246,1.346l0.794,6.712c1.493,12.62,11.295,22.137,22.799,22.137h24.786    c11.505,0,21.307-9.516,22.8-22.137l0.794-6.711c1.092-0.431,2.176-0.88,3.251-1.348l5.309,4.185    c9.977,7.867,23.636,7.666,31.773-0.469l17.526-17.526c8.135-8.135,8.336-21.796,0.468-31.775l-4.186-5.308    c0.468-1.074,0.916-2.157,1.346-3.247l6.712-0.794c12.619-1.493,22.136-11.295,22.136-22.799v-24.787    C358.492,144.537,348.974,134.736,336.354,133.243z M338.49,180.83c0,1.005-1.706,2.609-4.485,2.938l-12.873,1.522    c-3.897,0.461-7.165,3.16-8.354,6.9c-1.333,4.191-3.035,8.295-5.056,12.197c-1.807,3.487-1.406,7.709,1.026,10.792l8.029,10.182    c1.733,2.198,1.806,4.539,1.095,5.25l-17.525,17.526c-0.712,0.71-3.054,0.636-5.249-1.095l-10.184-8.028    c-3.084-2.431-7.304-2.831-10.792-1.026c-3.903,2.022-8.009,3.724-12.2,5.057c-3.74,1.189-6.438,4.457-6.899,8.355l-1.522,12.872    c-0.329,2.779-1.933,4.486-2.938,4.486h-24.786c-1.005,0-2.609-1.707-2.938-4.485l-1.521-12.873    c-0.461-3.898-3.159-7.167-6.9-8.356c-4.187-1.332-8.292-3.033-12.197-5.056c-1.451-0.752-3.029-1.121-4.598-1.121    c-2.204,0-4.393,0.728-6.193,2.148l-10.183,8.029c-2.197,1.732-4.537,1.805-5.248,1.095l-17.526-17.527    c-0.711-0.711-0.637-3.052,1.095-5.249l8.029-10.183c2.431-3.084,2.833-7.305,1.026-10.792c-2.022-3.903-3.723-8.006-5.056-12.197    c-1.189-3.74-4.457-6.439-8.354-6.9l-12.873-1.522c-2.779-0.33-4.485-1.933-4.485-2.938v-24.787c0-1.005,1.707-2.609,4.485-2.938    l12.873-1.522c3.898-0.461,7.166-3.159,8.355-6.9c1.332-4.187,3.034-8.29,5.057-12.196c1.807-3.487,1.406-7.708-1.026-10.792    l-8.028-10.184c-1.733-2.198-1.805-4.538-1.095-5.248l17.527-17.527c0.711-0.711,3.05-0.637,5.248,1.095l10.184,8.029    c3.083,2.431,7.303,2.833,10.792,1.026c3.9-2.021,8.003-3.722,12.191-5.054c3.741-1.19,6.439-4.458,6.9-8.356l1.521-12.872    c0.33-2.779,1.933-4.486,2.938-4.486h24.786c1.004,0,2.609,1.707,2.938,4.485l1.522,12.873c0.461,3.897,3.159,7.165,6.899,8.355    c4.19,1.333,8.294,3.034,12.197,5.056c3.485,1.806,7.708,1.405,10.791-1.027l10.183-8.029c2.197-1.733,4.54-1.806,5.249-1.095    l17.526,17.526c0.711,0.711,0.638,3.052-1.094,5.249l-8.028,10.183c-2.431,3.084-2.833,7.306-1.026,10.792    c2.022,3.902,3.723,8.006,5.057,12.198c1.19,3.74,4.458,6.438,8.355,6.898l12.873,1.522c2.778,0.33,4.485,1.933,4.485,2.938    V180.83z" fill="#0f7cff"/>
	</g>
</g>
<g>
	<g>
		<path d="M238.173,117.85c-27.896,0-50.59,22.694-50.59,50.59s22.694,50.59,50.59,50.59c27.895,0,50.591-22.695,50.591-50.59    C288.764,140.545,266.069,117.85,238.173,117.85z M238.173,199.03c-16.867,0-30.59-13.723-30.59-30.59s13.723-30.59,30.59-30.59    c16.868,0,30.59,13.722,30.591,30.59C268.764,185.307,255.041,199.03,238.173,199.03z" fill="#0f7cff"/>
	</g>
</g>
<g>
	<g>
		<circle cx="112.911" cy="417.49" r="10" fill="#0f7cff"/>
	</g>
</g>
<g>
</g>
<g>
</g>
<g>
</g>
<g>
</g>
<g>
</g>
<g>
</g>
<g>
</g>
<g>
</g>
<g>
</g>
<g>
</g>
<g>
</g>
<g>
</g>
<g>
</g>
<g>
</g>
<g>
</g>
</svg>
