<?xml version="1.0" encoding="iso-8859-1"?>
<!-- Generator: Adobe Illustrator 19.0.0, SVG Export Plug-In . SVG Version: 6.00 Build 0)  -->
<svg xmlns="http://www.w3.org/2000/svg" xmlns:xlink="http://www.w3.org/1999/xlink" version="1.1" id="Capa_1" x="0px" y="0px" viewBox="0 0 512 512" style="enable-background:new 0 0 512 512;" xml:space="preserve" width="512px" height="512px">
<g>
	<g>
		<path d="M236.069,356.91c-1.859-1.87-4.439-2.93-7.069-2.93s-5.21,1.06-7.07,2.93c-1.86,1.86-2.93,4.43-2.93,7.07    c0,2.63,1.069,5.21,2.93,7.07c1.86,1.86,4.44,2.93,7.07,2.93s5.21-1.07,7.069-2.93c1.86-1.86,2.931-4.44,2.931-7.07    S237.93,358.77,236.069,356.91z" fill="#0f7cff"/>
	</g>
</g>
<g>
	<g>
		<path d="M448,268.01c-5.522,0-10,4.477-10,10v43.979H266v-24.683c0-38.026-28.594-69.478-65.405-74.04    c7.275-8.978,11.646-20.401,11.646-32.831v-70.35c0-5.523-4.478-10-10-10h-52.322c-23.246,0-42.158,18.912-42.158,42.158v38.192    c0,12.429,4.37,23.852,11.646,32.831C82.594,227.829,54,259.281,54,297.307v24.683H20V81.744c0-4.276,3.501-7.754,7.805-7.754    h207.862c5.522,0,10-4.477,10-10s-4.478-10-10-10H27.805C12.474,53.99,0,66.44,0,81.744v296.492    c0,15.304,12.474,27.754,27.805,27.754H179.98v46.194C154.753,454.739,135,476.101,135,501.99c0,5.523,4.478,10,10,10h168    c5.522,0,10-4.477,10-10c0-25.888-19.753-47.25-44.979-49.806V405.99h152.175c15.331,0,27.805-12.45,27.805-27.754V278.01    C458,272.488,453.522,268.01,448,268.01z M127.76,152.245c0-12.218,9.94-22.158,22.158-22.158h42.322v15.966    c0,7.932-6.453,14.385-14.386,14.385H127.76V152.245z M127.76,180.438h50.095c5.135,0,10.006-1.139,14.386-3.166v13.165h-0.001    c0,17.777-14.463,32.24-32.24,32.24c-17.777,0-32.24-14.463-32.24-32.24V180.438z M171.669,242.677L160,254.346l-11.669-11.669    H171.669z M74,297.307c0-27.407,20.29-50.159,46.636-54.04l32.292,32.292c1.953,1.953,4.512,2.929,7.071,2.929    s5.118-0.976,7.071-2.929l32.292-32.292C225.71,247.148,246,269.9,246,297.307v24.683H74V297.307z M301.289,491.99h-144.58    c4.13-11.676,15.279-20.063,28.353-20.063h4.918h78.041h4.916C286.01,471.927,297.159,480.313,301.289,491.99z M199.98,451.927    V405.99h58.041v45.937H199.98z M438,378.236c0,4.275-3.501,7.754-7.805,7.754H27.805c-4.304,0-7.805-3.479-7.805-7.754V341.99h418    V378.236z" fill="#0f7cff"/>
	</g>
</g>
<g>
	<g>
		<path d="M455.069,233.27c-1.859-1.86-4.439-2.93-7.069-2.93s-5.21,1.07-7.07,2.93c-1.86,1.87-2.93,4.44-2.93,7.07    c0,2.64,1.069,5.21,2.93,7.07c1.86,1.87,4.44,2.93,7.07,2.93s5.21-1.06,7.069-2.93c1.86-1.86,2.931-4.43,2.931-7.07    C458,237.71,456.93,235.13,455.069,233.27z" fill="#0f7cff"/>
	</g>
</g>
<g>
	<g>
		<path d="M448,47.01h-75c-5.522,0-10,4.477-10,10s4.478,10,10,10h75c5.522,0,10-4.477,10-10S453.522,47.01,448,47.01z" fill="#0f7cff"/>
	</g>
</g>
<g>
	<g>
		<path d="M339.069,49.94c-1.859-1.86-4.439-2.93-7.069-2.93s-5.21,1.07-7.07,2.93c-1.86,1.86-2.93,4.44-2.93,7.07    s1.069,5.21,2.93,7.07c1.861,1.86,4.44,2.93,7.07,2.93s5.21-1.07,7.069-2.93c1.86-1.86,2.931-4.44,2.931-7.07    S340.93,51.8,339.069,49.94z" fill="#0f7cff"/>
	</g>
</g>
<g>
	<g>
		<path d="M448,91.01H332c-5.522,0-10,4.477-10,10s4.478,10,10,10h116c5.522,0,10-4.477,10-10S453.522,91.01,448,91.01z" fill="#0f7cff"/>
	</g>
</g>
<g>
	<g>
		<path d="M448,135.01H332c-5.522,0-10,4.477-10,10c0,5.523,4.478,10,10,10h116c5.522,0,10-4.477,10-10    C458,139.487,453.522,135.01,448,135.01z" fill="#0f7cff"/>
	</g>
</g>
<g>
	<g>
		<path d="M462,0.01H318c-27.57,0-50,22.43-50,50v107c0,25.655,19.42,46.859,44.333,49.681v25.985c0,4.044,2.437,7.691,6.173,9.239    c1.237,0.513,2.537,0.762,3.825,0.762c2.603,0,5.16-1.017,7.073-2.929l32.737-32.738H462c27.57,0,50-22.43,50-50v-107    C512,22.44,489.57,0.01,462,0.01z M492,157.01c0,16.542-13.458,30-30,30H358c-2.652,0-5.195,1.054-7.071,2.929l-18.596,18.596    V197.01c0-5.523-4.478-10-10-10H318c-16.542,0-30-13.458-30-30v-107c0-16.542,13.458-30,30-30h144c16.542,0,30,13.458,30,30    V157.01z" fill="#0f7cff"/>
	</g>
</g>
<g>
</g>
<g>
</g>
<g>
</g>
<g>
</g>
<g>
</g>
<g>
</g>
<g>
</g>
<g>
</g>
<g>
</g>
<g>
</g>
<g>
</g>
<g>
</g>
<g>
</g>
<g>
</g>
<g>
</g>
</svg>
