<?xml version="1.0" encoding="iso-8859-1"?>
<!-- Generator: Adobe Illustrator 19.0.0, SVG Export Plug-In . SVG Version: 6.00 Build 0)  -->
<svg xmlns="http://www.w3.org/2000/svg" xmlns:xlink="http://www.w3.org/1999/xlink" version="1.1" id="Capa_1" x="0px" y="0px" viewBox="0 0 512.001 512.001" style="enable-background:new 0 0 512.001 512.001;" xml:space="preserve" width="512px" height="512px">
<g>
	<g>
		<path d="M236.07,356.899c-1.86-1.869-4.43-2.93-7.07-2.93c-2.63,0-5.21,1.061-7.07,2.93c-1.86,1.86-2.93,4.431-2.93,7.07    c0,2.63,1.07,5.21,2.93,7.07c1.86,1.859,4.44,2.93,7.07,2.93s5.21-1.07,7.07-2.93s2.93-4.44,2.93-7.07    C239,361.33,237.93,358.76,236.07,356.899z" fill="#0f7cff"/>
	</g>
</g>
<g>
	<g>
		<path d="M430.195,53.996H328.5c-5.523,0-10,4.478-10,10c0,5.522,4.477,10,10,10h101.695c4.304,0,7.805,3.479,7.805,7.754V157    c0,5.522,4.477,10,10,10s10-4.478,10-10V81.75C458,66.446,445.528,53.996,430.195,53.996z" fill="#0f7cff"/>
	</g>
</g>
<g>
	<g>
		<path d="M299.07,56.92c-1.86-1.86-4.44-2.92-7.07-2.92s-5.21,1.06-7.07,2.92C283.07,58.79,282,61.359,282,64    c0,2.63,1.07,5.21,2.93,7.069C286.791,72.93,289.37,74,292,74s5.21-1.07,7.07-2.931C300.93,69.21,302,66.63,302,64    C302,61.359,300.93,58.79,299.07,56.92z" fill="#0f7cff"/>
	</g>
</g>
<g>
	<g>
		<path d="M427.057,322.305c12.735-12.479,20.656-29.853,20.656-49.048V200c0-5.522-4.477-10-10-10h-72.726    c-30.161,0-54.698,24.537-54.698,54.697v28.56c0,19.026,7.777,36.268,20.315,48.723H266v-20.376    c0-38.026-28.594-69.479-65.405-74.04c7.275-8.978,11.645-20.401,11.645-32.83v-41.042c0-0.399-0.03-0.79-0.075-1.177    c0.045-0.717,0.075-1.437,0.075-2.165v-25.966c0-5.522-4.477-10-10-10h-52.322c-23.246,0-42.157,18.912-42.157,42.157v9.894v8.3    v19.999c0,12.429,4.37,23.852,11.645,32.83C82.594,232.125,54,263.577,54,301.604v20.376H20V81.75    c0-4.275,3.501-7.754,7.805-7.754h11.862c5.523,0,10-4.478,10-10c0-5.522-4.477-10-10-10H27.805C12.474,53.996,0,66.446,0,81.75    v296.476c0,15.304,12.473,27.754,27.805,27.754h152.174v46.215C154.753,454.75,135,476.112,135,502.001c0,5.522,4.477,10,10,10    H502c5.523,0,10-4.478,10-10v-87.224C512,366.251,474.563,326.311,427.057,322.305z M330.289,273.257v-28.56    c0-19.132,15.565-34.697,34.698-34.697h62.726v63.257c0,26.859-21.852,48.712-48.712,48.712    C352.141,321.969,330.289,300.116,330.289,273.257z M127.76,156.541c0-12.218,9.939-22.157,22.157-22.157h42.322v15.966    c0,7.932-6.453,14.385-14.385,14.385H127.76V156.541z M127.76,184.734h50.094c5.134,0,10.005-1.139,14.385-3.165v13.164h0.001    c0,17.776-14.463,32.239-32.24,32.239c-17.777,0-32.24-14.463-32.24-32.239V184.734z M171.669,246.973L171.669,246.973    L160,258.642l-11.669-11.669H171.669z M74,301.604c0-27.408,20.29-50.16,46.636-54.04l32.292,32.292    c1.953,1.952,4.512,2.929,7.071,2.929s5.119-0.977,7.071-2.929l32.292-32.292c26.346,3.88,46.636,26.632,46.636,54.04v20.376H74    V301.604z M246,492h-89.292c4.13-11.676,15.28-20.062,28.353-20.062H246V492z M246,414.776v37.161h-46.021v-45.958h46.441    C246.146,408.876,246,411.809,246,414.776z M27.805,385.98c-4.304-0.001-7.805-3.479-7.805-7.754V341.98h261.307    c-14.165,11.213-24.991,26.465-30.728,44H27.805z M492,451.937h-76.5c-5.523,0-10,4.478-10,10c0,5.522,4.477,10,10,10H492V492H266    v-77.224c0-40.005,32.433-72.567,72.384-72.797H368c0.072,0,0.141-0.009,0.213-0.011h50.979c40.146,0,72.808,32.661,72.808,72.808    V451.937z" fill="#0f7cff"/>
	</g>
</g>
<g>
	<g>
		<path d="M160.203,0c-5.523,0-10,4.478-10,10v54c0,5.522,4.477,10,10,10s10-4.478,10-10V10C170.203,4.478,165.727,0,160.203,0z" fill="#0f7cff"/>
	</g>
</g>
<g>
	<g>
		<path d="M244.979,39.226c-3.905-3.904-10.237-3.904-14.143,0L213.26,56.803c-3.905,3.905-3.905,10.237,0,14.143    c1.953,1.951,4.512,2.928,7.072,2.928c2.559,0,5.119-0.977,7.071-2.929l17.576-17.576    C248.885,49.464,248.885,43.132,244.979,39.226z" fill="#0f7cff"/>
	</g>
</g>
<g>
	<g>
		<path d="M106.909,56.923L89.164,39.179c-3.906-3.903-10.237-3.904-14.142,0c-3.905,3.905-3.906,10.237,0,14.143l17.744,17.744    c1.953,1.952,4.512,2.929,7.071,2.929c2.559,0,5.119-0.977,7.071-2.929C110.813,67.161,110.815,60.829,106.909,56.923z" fill="#0f7cff"/>
	</g>
</g>
<g>
	<g>
		<path d="M386.07,454.87c-1.86-1.87-4.44-2.931-7.07-2.931s-5.21,1.061-7.07,2.931c-1.86,1.859-2.93,4.43-2.93,7.069    c0,2.63,1.07,5.21,2.93,7.07s4.44,2.93,7.07,2.93s5.21-1.069,7.07-2.93c1.86-1.861,2.93-4.44,2.93-7.07    C389,459.299,387.93,456.729,386.07,454.87z" fill="#0f7cff"/>
	</g>
</g>
<g>
</g>
<g>
</g>
<g>
</g>
<g>
</g>
<g>
</g>
<g>
</g>
<g>
</g>
<g>
</g>
<g>
</g>
<g>
</g>
<g>
</g>
<g>
</g>
<g>
</g>
<g>
</g>
<g>
</g>
</svg>
