<?xml version="1.0" encoding="utf-8"?>
<!-- Generator: Adobe Illustrator 19.0.0, SVG Export Plug-In . SVG Version: 6.00 Build 0)  -->
<svg version="1.1" id="Calque_1" xmlns="http://www.w3.org/2000/svg" xmlns:xlink="http://www.w3.org/1999/xlink" x="0px" y="0px"
	 viewBox="0 0 250 250" style="enable-background:new 0 0 250 250;" xml:space="preserve">
<style type="text/css">
	.st0{fill:#FFFFFF;}
	.st1{fill:#7AB8E6;stroke:#256E9D;stroke-width:4;stroke-miterlimit:10;}
</style>
<rect id="XMLID_142_" class="st0" width="250" height="250"/>
<g id="XMLID_4_">
	<circle id="XMLID_2_" class="st1" cx="125" cy="125" r="66.2"/>
	<circle id="XMLID_3_" class="st1" cx="125" cy="125" r="49.1"/>
	<g id="XMLID_5_">
		<path id="XMLID_6_" class="st1" d="M122.1,145v-5.2c-3.7-0.2-7.2-1.1-9.3-2.3l1.6-6.4c2.3,1.3,5.5,2.4,9.1,2.4
			c3.1,0,5.2-1.2,5.2-3.4c0-2.1-1.7-3.4-5.8-4.7c-5.8-2-9.8-4.7-9.8-10c0-4.8,3.4-8.6,9.2-9.7v-5.2h5.3v4.8c3.7,0.2,6.1,0.9,7.9,1.8
			l-1.6,6.2c-1.4-0.6-3.9-1.9-7.9-1.9c-3.5,0-4.7,1.5-4.7,3.1c0,1.8,1.9,2.9,6.5,4.7c6.5,2.3,9.1,5.3,9.1,10.2c0,4.9-3.4,9-9.7,10.1
			v5.6H122.1z"/>
	</g>
</g>
</svg>
