<?xml version="1.0" encoding="utf-8"?>
<!-- Generator: Adobe Illustrator 19.0.0, SVG Export Plug-In . SVG Version: 6.00 Build 0)  -->
<svg version="1.1" id="Capa_1" xmlns="http://www.w3.org/2000/svg" xmlns:xlink="http://www.w3.org/1999/xlink" x="0px" y="0px"
	 viewBox="109 -108.3 467.3 467.3" style="enable-background:new 109 -108.3 467.3 467.3;" xml:space="preserve">
<style type="text/css">
	.st0{fill:#6EBDFF;}
</style>
<g>
	<path class="st0" d="M546.4,122.7c0.1-0.2,0.1-0.4,0.2-0.6c0-0.1,0-0.2,0.1-0.3c0-0.2,0.1-0.5,0.1-0.7c0-0.1,0-0.2,0-0.3
		c0-0.3,0-0.5,0-0.8c0,0,0,0,0-0.1c0-58.4-15.5-110.3-44.7-150.1c-26.1-35.5-63-60.8-104-71.3c-18-4.6-36.6-6.9-55.4-6.9
		c-18.8,0-37.4,2.3-55.4,6.9c0,0,0,0,0,0c-41,10.5-77.9,35.8-104,71.3C154,9.7,138.5,61.6,138.5,120c0,0,0,0,0,0.1
		c0,0.3,0,0.5,0,0.8c0,0.1,0,0.2,0,0.3c0,0.2,0.1,0.5,0.1,0.7c0,0.1,0,0.2,0.1,0.3c0,0.2,0.1,0.4,0.2,0.6c0,0.1,0.1,0.3,0.1,0.4
		c0,0,0,0,0,0.1l76.3,229c1.4,4.1,5.2,6.8,9.5,6.8h195.6c0,0,0,0,0,0c0,0,0,0,0,0h40c4.3,0,8.1-2.8,9.5-6.8l76.3-229c0,0,0,0,0-0.1
		C546.3,123,546.3,122.9,546.4,122.7z M385.6-83.8V-8h-85.8v-75.8c14-3,28.4-4.5,42.9-4.5C357.2-88.3,371.6-86.8,385.6-83.8z
		 M279.7-78.2V2c0,5.5,4.5,10,10,10h105.8c5.5,0,10-4.5,10-10v-80.2c57.8,20.4,119.6,81.1,121.2,193.8l-103,94.3
		c-1.9,1.7-3,4.1-3.2,6.6l-4.1,53.8l-14.4,4.8l-5.3-15c-1.4-4-5.2-6.6-9.4-6.6H298c-4.2,0-8,2.7-9.4,6.6l-5.3,15l-14.4-4.8
		l-4.1-53.8c-0.2-2.5-1.3-4.9-3.2-6.6l-103-94.3C160.1,2.9,222-57.8,279.7-78.2z M274.1,339l-3.6-47l15.7,5.2
		c5.2,1.7,10.8-1,12.6-6.1l6.3-17.6h75.1l6.3,17.6c1.5,4.1,5.3,6.6,9.4,6.6c1,0,2.1-0.2,3.2-0.5l15.7-5.2l-3.6,47L274.1,339
		L274.1,339z M170.2,153.4l75,68.6l4.3,56.4c0,0,0,0.1,0,0.1L254,339h-22L170.2,153.4z M453.3,339h-22l4.6-60.4c0,0,0-0.1,0-0.1
		l4.3-56.4l75-68.6L453.3,339z"/>
	<path class="st0" d="M311.1,135.9c2.5,0,5-0.9,6.8-2.7c2-1.9,3.2-4.5,3.2-7.3V90.7h43v35.2c0,2.8,1.2,5.4,3.2,7.3
		c1.9,1.7,4.3,2.7,6.8,2.7c0.2,0,0.5,0,0.7,0l78.4-5.7c5.2-0.4,9.3-4.7,9.3-10V90.7h10c5.5,0,10-4.5,10-10s-4.5-10-10-10h-20h-78.4
		h-63h-78.4h-20c-5.5,0-10,4.5-10,10s4.5,10,10,10h10v29.4c0,5.2,4,9.6,9.3,10l78.4,5.7C310.6,135.9,310.9,135.9,311.1,135.9z
		 M442.6,90.7v20.2l-58.4,4.3V90.7H442.6z M301.1,115.1l-58.4-4.3V90.7h58.4V115.1z"/>
</g>
</svg>
