<?xml version="1.0" encoding="utf-8"?>
<!-- Generator: Adobe Illustrator 19.0.0, SVG Export Plug-In . SVG Version: 6.00 Build 0)  -->
<svg version="1.1" id="Capa_1" xmlns="http://www.w3.org/2000/svg" xmlns:xlink="http://www.w3.org/1999/xlink" x="0px" y="0px"
	 viewBox="105 -105 460 460" style="enable-background:new 105 -105 460 460;" xml:space="preserve">
<style type="text/css">
	.st0{fill:#6EBDFF;}
</style>
<g>
	<path class="st0" d="M466.9,133.6c-0.7-0.2-17.6-5.9-39.8-5.9c-29.9,0-55.5,10.2-74,29.6c-3.1,3.2-3.7,8.1-1.4,11.9
		c11.7,20,33.4,32.5,56.8,32.5c4.5,0,9-0.5,13.4-1.4c27.8-5.7,48.7-28.3,51.9-56.2C474.2,139.5,471.4,135.1,466.9,133.6z
		 M417.7,180.8c-3.1,0.6-6.2,1-9.3,1c-13.6,0-26.4-6-35-16.2c14.1-11.9,32.1-17.9,53.7-17.9c10,0,18.8,1.4,24.9,2.6
		C447.1,165.6,434.2,177.4,417.7,180.8z"/>
	<path class="st0" d="M242.9,127.7c-22.2,0-39.1,5.7-39.8,5.9c-4.5,1.5-7.3,5.9-6.7,10.6c3.2,27.9,24,50.5,51.9,56.2
		c4.4,0.9,8.9,1.4,13.3,1.4c23.4,0,45.1-12.4,56.8-32.5c2.2-3.9,1.7-8.7-1.4-11.9C298.5,137.9,272.9,127.7,242.9,127.7z
		 M261.6,181.7c-3.1,0-6.3-0.3-9.3-1c-16.4-3.4-29.3-15.2-34.2-30.5c6-1.3,14.8-2.6,24.9-2.6c21.5,0,39.5,6,53.7,17.9
		C288,175.7,275.2,181.7,261.6,181.7z"/>
	<path class="st0" d="M558.5-23.4c-3.9-1.5-8.3-0.4-11,2.7L483,52c-4.8-6.3-9.9-12.4-15.4-18c-17.5-18.2-38-32.4-60.9-42.2
		C383.9-18,359.7-23,335-23s-48.9,5-71.7,14.8c-22.9,9.8-43.3,24-60.9,42.2c-5.5,5.7-10.6,11.7-15.4,18l-64.6-72.7
		c-2.8-3.1-7.1-4.2-11-2.7c-3.9,1.5-6.4,5.2-6.4,9.3v97.7c0,2.9,1.3,5.7,3.5,7.6l43,36.4c-4.6,18.6-7,38.3-7,58.6
		c0,25.6,3.7,51.7,10.9,77.4c1,3.7,4.1,6.4,7.8,7.1c12.1,2.3,23.8,3.4,34.6,3.4c42.6,0,68.9-17.5,90-31.6
		c16.6-11.1,29.7-19.8,47.1-19.8s30.5,8.8,47.2,19.8c21.1,14.1,47.4,31.6,90,31.6c0,0,0,0,0,0c10.9,0,22.5-1.1,34.6-3.4
		c3.7-0.7,6.8-3.5,7.8-7.1c7.2-25.7,10.9-51.8,10.9-77.4c0-20.3-2.4-40-7-58.6l43-36.4c2.2-1.9,3.5-4.7,3.5-7.6v-97.7
		C565-18.2,562.4-22,558.5-23.4z M125,78.9V58.6l12.3,12.1c1.9,1.9,4.5,2.9,7,2.9c2.6,0,5.2-1,7.1-3c3.9-3.9,3.8-10.3-0.1-14.1
		l-26.4-26V12.2l50.5,56.9c-7,11.8-13,24.3-17.7,37.5L125,78.9z M496.9,252.1c-8.7,1.3-17,2-24.8,2c0,0,0,0,0,0
		c-36.5,0-58.1-14.4-78.9-28.2c-17.9-11.9-34.8-23.2-58.3-23.2c-23.5,0-40.4,11.3-58.2,23.2c-20.8,13.9-42.3,28.2-78.9,28.2
		c-7.8,0-16.1-0.7-24.8-2c-5.7-22-8.5-44.1-8.5-65.9c0-20.9,2.5-40.1,7.2-57.7c0.6-1.2,1-2.5,1-3.8c5.2-18.2,12.6-34.6,21.8-49.1
		c0,0,0,0,0,0c1.4-1.2,2.3-2.7,2.8-4.3C230.5,22.5,283.7-3,335-3s104.5,25.5,137.6,74.3c0.5,1.6,1.5,3.1,2.8,4.3c0,0,0,0,0,0
		c9.2,14.4,16.6,30.8,21.8,49.1c0.1,1.3,0.4,2.6,1,3.8c4.6,17.6,7.2,36.8,7.2,57.7C505.5,208,502.6,230.1,496.9,252.1z M512.1,106.7
		c-4.7-13.2-10.6-25.8-17.7-37.5L545,12.2v18.3l-26.4,26c-3.9,3.9-4,10.2-0.1,14.1c2,2,4.5,3,7.1,3c2.5,0,5.1-1,7-2.9L545,58.6v20.3
		L512.1,106.7z"/>
	<path class="st0" d="M359.1,105.1c1.5,4,5.3,6.4,9.3,6.4c1.2,0,2.4-0.2,3.6-0.7c5.1-2,7.7-7.8,5.7-12.9l-25.4-65.6
		c-1.5-3.9-5.2-6.4-9.3-6.4h-16c-4.1,0-7.8,2.5-9.3,6.4l-25.4,65.6c-2,5.2,0.6,10.9,5.7,12.9c5.1,2,10.9-0.6,12.9-5.7l8.2-21.3h31.7
		L359.1,105.1z M326.9,63.8l7-18h2.3l7,18H326.9z"/>
</g>
</svg>
