<?xml version="1.0" encoding="iso-8859-1"?>
<!-- Generator: Adobe Illustrator 19.0.0, SVG Export Plug-In . SVG Version: 6.00 Build 0)  -->
<svg xmlns="http://www.w3.org/2000/svg" xmlns:xlink="http://www.w3.org/1999/xlink" version="1.1" id="Capa_1" x="0px" y="0px" viewBox="0 0 512 512" style="enable-background:new 0 0 512 512;" xml:space="preserve" width="512px" height="512px">
<g>
	<g>
		<path d="M235.5,37.272H69.636C31.239,37.272,0,68.512,0,106.909v89.454C0,234.761,31.239,266,69.636,266h35.659v21.67    c-23.057,5.706-40.205,26.561-40.205,51.356v10.728c0,12.432,4.321,23.868,11.526,32.909h-19.66    C25.551,382.663,0,408.214,0,439.62V502c0,5.522,4.477,10,10,10h216c5.523,0,10-4.478,10-10v-62.38    c0-31.406-25.551-56.957-56.957-56.957h-19.66c7.205-9.041,11.526-20.477,11.526-32.909v-10.728    c0-23.567-15.492-43.577-36.825-50.401L156.71,266h78.79c38.397,0,69.636-31.239,69.636-69.637v-89.454    C305.136,68.512,273.897,37.272,235.5,37.272z M179.043,402.663c20.378,0,36.957,16.579,36.957,36.957V492H20v-52.38    c0-20.378,16.579-36.957,36.957-36.957H108v20.264c0,5.522,4.477,10,10,10s10-4.478,10-10v-20.264H179.043z M150.909,339.026    v10.728c0,18.146-14.763,32.909-32.909,32.909S85.091,367.9,85.091,349.754v-10.728c0-18.146,14.763-32.908,32.909-32.908    S150.909,320.881,150.909,339.026z M285.136,196.363c0,27.37-22.267,49.637-49.636,49.637h-82.932    c-2.652,0-5.196,1.054-7.071,2.929l-20.202,20.202V256c0-5.522-4.477-10-10-10H69.636C42.267,246,20,223.733,20,196.363v-89.454    c0-27.37,22.267-49.637,49.636-49.637H235.5c27.37,0,49.636,22.267,49.636,49.637V196.363z" fill="#0f7cff"/>
	</g>
</g>
<g>
	<g>
		<path d="M455.043,382.663h-19.66c7.205-9.041,11.526-20.477,11.526-32.909v-10.728c0-29.174-23.735-52.908-52.909-52.908    s-52.909,23.734-52.909,52.908v10.728c0,12.432,4.321,23.868,11.526,32.909h-19.66c-31.406,0-56.957,25.551-56.957,56.957V502    c0,5.522,4.477,10,10,10h216c5.523,0,10-4.478,10-10v-62.38C512,408.214,486.449,382.663,455.043,382.663z M361.091,339.026    c0-18.146,14.763-32.908,32.909-32.908s32.909,14.763,32.909,32.908v10.728c0,18.146-14.763,32.909-32.909,32.909    s-32.909-14.763-32.909-32.909V339.026z M492,492H296v-52.38c0-20.378,16.579-36.957,36.957-36.957H384v25.381    c0,5.522,4.477,10,10,10s10-4.478,10-10v-25.381h51.043c20.378,0,36.957,16.579,36.957,36.957V492z" fill="#0f7cff"/>
	</g>
</g>
<g>
	<g>
		<path d="M125.07,452.6c-1.86-1.871-4.44-2.93-7.07-2.93s-5.21,1.06-7.07,2.93c-1.86,1.86-2.93,4.431-2.93,7.07    c0,2.63,1.07,5.21,2.93,7.07c1.86,1.859,4.44,2.93,7.07,2.93s5.21-1.07,7.07-2.93s2.93-4.44,2.93-7.07    C128,457.03,126.93,454.46,125.07,452.6z" fill="#0f7cff"/>
	</g>
</g>
<g>
	<g>
		<path d="M442.364,0H276.5c-5.523,0-10,4.478-10,10s4.477,10,10,10h165.864C469.733,20,492,42.267,492,69.637v89.454    c0,27.37-22.267,49.637-49.636,49.637h-45.659c-5.523,0-10,4.478-10,10v13.131l-20.202-20.202    c-1.875-1.875-4.418-2.929-7.071-2.929h-21.765c-5.523,0-10,4.478-10,10c0,5.522,4.477,10,10,10h17.623l34.344,34.344    c1.913,1.913,4.47,2.929,7.073,2.929c1.288,0,2.587-0.249,3.824-0.761c3.737-1.548,6.173-5.194,6.173-9.239v-27.272h35.659    c38.397,0,69.636-31.239,69.636-69.637V69.637C512,31.239,480.761,0,442.364,0z" fill="#0f7cff"/>
	</g>
</g>
<g>
	<g>
		<path d="M222.006,90.846h-22.407c-5.523,0-10,4.478-10,10c0,4.975,3.637,9.09,8.396,9.86l-36.575,36.575l-22.199-22.199    c-3.905-3.904-10.237-3.904-14.142,0l-57.026,57.025c-3.905,3.905-3.906,10.237,0,14.143c1.953,1.952,4.512,2.929,7.071,2.929    c2.559,0,5.119-0.977,7.071-2.929l49.955-49.955l22.198,22.198c3.905,3.904,10.237,3.904,14.142,0l43.654-43.653    c0.762,4.766,4.881,8.412,9.862,8.412c5.523,0,10-4.478,10-10v-22.406C232.006,95.324,227.529,90.846,222.006,90.846z" fill="#0f7cff"/>
	</g>
</g>
<g>
	<g>
		<path d="M384,150h-48.689c-5.523,0-10,4.478-10,10c0,5.522,4.477,10,10,10H384c5.523,0,10-4.478,10-10    C394,154.478,389.523,150,384,150z" fill="#0f7cff"/>
	</g>
</g>
<g>
	<g>
		<path d="M433.07,152.93c-1.86-1.86-4.44-2.93-7.07-2.93s-5.21,1.069-7.07,2.93c-1.86,1.86-2.93,4.44-2.93,7.07    s1.07,5.21,2.93,7.069c1.86,1.86,4.44,2.931,7.07,2.931s5.21-1.07,7.07-2.931c1.86-1.859,2.93-4.439,2.93-7.069    S434.93,154.79,433.07,152.93z" fill="#0f7cff"/>
	</g>
</g>
<g>
	<g>
		<path d="M448,54H335.311c-5.523,0-10,4.478-10,10s4.477,10,10,10H448c5.523,0,10-4.478,10-10C458,58.478,453.523,54,448,54z" fill="#0f7cff"/>
	</g>
</g>
<g>
	<g>
		<path d="M448,102H335.311c-5.523,0-10,4.478-10,10c0,5.522,4.477,10,10,10H448c5.523,0,10-4.478,10-10    C458,106.478,453.523,102,448,102z" fill="#0f7cff"/>
	</g>
</g>
<g>
</g>
<g>
</g>
<g>
</g>
<g>
</g>
<g>
</g>
<g>
</g>
<g>
</g>
<g>
</g>
<g>
</g>
<g>
</g>
<g>
</g>
<g>
</g>
<g>
</g>
<g>
</g>
<g>
</g>
</svg>
