<?xml version="1.0" encoding="iso-8859-1"?>
<!-- Generator: Adobe Illustrator 19.0.0, SVG Export Plug-In . SVG Version: 6.00 Build 0)  -->
<svg xmlns="http://www.w3.org/2000/svg" xmlns:xlink="http://www.w3.org/1999/xlink" version="1.1" id="Layer_1" x="0px" y="0px" viewBox="0 0 512 512" style="enable-background:new 0 0 512 512;" xml:space="preserve" width="512px" height="512px">
<g>
	<g>
		<circle cx="61.02" cy="236.43" r="10" fill="#0f7cff"/>
	</g>
</g>
<g>
	<g>
		<circle cx="105.14" cy="236.43" r="10" fill="#0f7cff"/>
	</g>
</g>
<g>
	<g>
		<circle cx="150.48" cy="236.43" r="10" fill="#0f7cff"/>
	</g>
</g>
<g>
	<g>
		<circle cx="322.67" cy="230.77" r="10" fill="#0f7cff"/>
	</g>
</g>
<g>
	<g>
		<circle cx="416.12" cy="190.04" r="10" fill="#0f7cff"/>
	</g>
</g>
<g>
	<g>
		<circle cx="460.24" cy="190.04" r="10" fill="#0f7cff"/>
	</g>
</g>
<g>
	<g>
		<circle cx="61.02" cy="422.74" r="10" fill="#0f7cff"/>
	</g>
</g>
<g>
	<g>
		<circle cx="105.14" cy="422.74" r="10" fill="#0f7cff"/>
	</g>
</g>
<g>
	<g>
		<circle cx="438.16" cy="54.775" r="10" fill="#0f7cff"/>
	</g>
</g>
<g>
	<g>
		<path d="M502,134.347H374.318c-5.523,0-10,4.478-10,10v117.271H180.682c-5.523,0-10,4.478-10,10v154.937c0,5.522,4.477,10,10,10    H312.67v48.371H20V27.075h292.669v162.97c0,5.522,4.477,10,10,10s10-4.478,10-10V17.075c0-5.522-4.477-10-10-10H10    c-5.523,0-10,4.478-10,10v477.85c0,5.522,4.477,10,10,10h312.669c5.523,0,10-4.478,10-10v-58.371h113.202c5.523,0,10-4.478,10-10    v-96.785H502c5.523,0,10-4.478,10-10V144.347C512,138.824,507.523,134.347,502,134.347z M410.042,281.617l-96.765,55.919    l-96.765-55.919H410.042z M435.871,416.554H190.682v0V289.79l117.591,67.954c1.548,0.895,3.275,1.342,5.003,1.342    c1.728,0,3.456-0.447,5.003-1.342l117.592-67.954V416.554z M492,309.769h-36.128v-38.151c0-5.522-4.477-10-10-10h-61.553V154.347    H492V309.769z" fill="#0f7cff"/>
	</g>
</g>
<g>
	<g>
		<path d="M89.521,114.813c-23.499,0-42.617,19.117-42.617,42.616c0,23.499,19.118,42.616,42.617,42.616    c23.499,0,42.617-19.117,42.617-42.616C132.138,133.93,113.02,114.813,89.521,114.813z M89.521,180.045    c-12.471,0-22.617-10.146-22.617-22.616c0-12.47,10.146-22.616,22.617-22.616s22.617,10.145,22.617,22.616    C112.138,169.9,101.992,180.045,89.521,180.045z" fill="#0f7cff"/>
	</g>
</g>
<g>
	<g>
		<path d="M502,7.075H374.318c-5.523,0-10,4.478-10,10v75.4c0,5.522,4.477,10,10,10H502c5.523,0,10-4.478,10-10v-75.4    C512,11.553,507.523,7.075,502,7.075z M492,82.476H384.318v-55.4H492V82.476z" fill="#0f7cff"/>
	</g>
</g>
<g>
	<g>
		<path d="M270.502,69.069H55.765c-5.523,0-10,4.478-10,10c0,5.522,4.477,10,10,10h214.738c5.522,0,9.999-4.477,9.999-10    C280.502,73.547,276.025,69.069,270.502,69.069z" fill="#0f7cff"/>
	</g>
</g>
<g>
</g>
<g>
</g>
<g>
</g>
<g>
</g>
<g>
</g>
<g>
</g>
<g>
</g>
<g>
</g>
<g>
</g>
<g>
</g>
<g>
</g>
<g>
</g>
<g>
</g>
<g>
</g>
<g>
</g>
</svg>
