<?xml version="1.0" encoding="iso-8859-1"?>
<!-- Generator: Adobe Illustrator 19.0.0, SVG Export Plug-In . SVG Version: 6.00 Build 0)  -->
<svg xmlns="http://www.w3.org/2000/svg" xmlns:xlink="http://www.w3.org/1999/xlink" version="1.1" id="Capa_1" x="0px" y="0px" viewBox="0 0 512 512" style="enable-background:new 0 0 512 512;" xml:space="preserve" width="512px" height="512px">
<g>
	<g>
		<path d="M454.254,258.609l-55.703-86.019c-4.317-6.667-11.637-10.648-19.58-10.648H133.204c-7.931,0-15.244,3.971-19.563,10.621    l-55.876,86.03c-5.71,8.79-4.828,20.396,2.145,28.222l178.662,200.58c4.422,4.964,10.77,7.812,17.418,7.812c0.001,0,0,0,0.001,0    c6.647,0,12.997-2.847,17.419-7.811l178.682-200.592C459.055,278.987,459.944,267.393,454.254,258.609z M367.687,181.941    l-46.846,72.44l-46.874-72.44H367.687z M302.462,262.793h-92.944l46.472-71.819L302.462,262.793z M238.013,181.943l-46.745,72.241    l-46.729-72.241H238.013z M126.048,190.178l46.97,72.615H78.885L126.048,190.178z M83.109,282.793h100.645l53.216,172.735    L83.109,282.793z M255.99,449.336l-51.309-166.543h102.618L255.99,449.336z M275.009,455.534l53.218-172.74h100.654    L275.009,455.534z M339.22,262.793l46.927-72.565l46.989,72.565H339.22z" fill="#a40ee8"/>
	</g>
</g>
<g>
	<g>
		<path d="M30.333,262.793H10c-5.522,0-10,4.477-10,10s4.478,10,10,10h20.333c5.522,0,10-4.477,10-10S35.855,262.793,30.333,262.793    z" fill="#a40ee8"/>
	</g>
</g>
<g>
	<g>
		<path d="M502,262.793h-20.333c-5.522,0-10,4.477-10,10s4.478,10,10,10H502c5.522,0,10-4.477,10-10S507.522,262.793,502,262.793z" fill="#a40ee8"/>
	</g>
</g>
<g>
	<g>
		<path d="M437.146,91.826c-3.906-3.905-10.236-3.905-14.143,0l-33.217,33.217c-3.905,3.905-3.905,10.237,0,14.142    c1.954,1.953,4.513,2.929,7.072,2.929c2.56,0,5.118-0.977,7.071-2.929l33.217-33.217    C441.051,102.063,441.051,95.732,437.146,91.826z" fill="#a40ee8"/>
	</g>
</g>
<g>
	<g>
		<path d="M122.646,124.865L89.43,91.647c-3.904-3.905-10.234-3.905-14.143,0c-3.905,3.905-3.905,10.237,0,14.142l33.217,33.217    c1.953,1.953,4.512,2.929,7.071,2.929c2.559,0,5.118-0.977,7.071-2.929C126.551,135.102,126.551,128.769,122.646,124.865z" fill="#a40ee8"/>
	</g>
</g>
<g>
	<g>
		<path d="M256.254,16.793c-5.522,0-10,4.477-10,10v65.168c0,5.523,4.477,10,10,10c5.522,0,10-4.477,10-10V26.793    C266.254,21.271,261.776,16.793,256.254,16.793z" fill="#a40ee8"/>
	</g>
</g>
<g>
	<g>
		<path d="M263.319,118.72c-1.859-1.86-4.439-2.93-7.069-2.93s-5.21,1.07-7.07,2.93c-1.86,1.86-2.93,4.44-2.93,7.07    c0,2.64,1.069,5.21,2.93,7.07c1.86,1.87,4.44,2.93,7.07,2.93s5.21-1.06,7.069-2.93c1.87-1.86,2.931-4.44,2.931-7.07    S265.189,120.581,263.319,118.72z" fill="#a40ee8"/>
	</g>
</g>
<g>
</g>
<g>
</g>
<g>
</g>
<g>
</g>
<g>
</g>
<g>
</g>
<g>
</g>
<g>
</g>
<g>
</g>
<g>
</g>
<g>
</g>
<g>
</g>
<g>
</g>
<g>
</g>
<g>
</g>
</svg>
