<?xml version="1.0" encoding="utf-8"?>
<!-- Generator: Adobe Illustrator 19.0.0, SVG Export Plug-In . SVG Version: 6.00 Build 0)  -->
<svg version="1.1" id="Calque_1" xmlns="http://www.w3.org/2000/svg" xmlns:xlink="http://www.w3.org/1999/xlink" x="0px" y="0px"
	 viewBox="1093.6 922.3 111 68.4" style="enable-background:new 1093.6 922.3 111 68.4;" xml:space="preserve">
<style type="text/css">
	.st0{fill:#EEF4FF;}
</style>
<g id="BACKGROUND">
</g>
<g id="DESIGN">
</g>
<path class="st0" d="M1200,926.4c-5.9-5.6-15.2-5.4-20.8,0.5l-22.3,23.4v-10.4l0,0c-0.1-3.7-1.7-7.4-4.6-10.2
	c-5.9-5.6-15.2-5.4-20.8,0.5l-33.9,35.6c-5.6,5.9-5.4,15.2,0.5,20.8c5.9,5.6,15.2,5.4,20.8-0.5l22.3-23.4l0,8.8
	c-0.1,0.8-0.1,1.5,0,2.3l0,0.2l0,0c0.3,3.5,1.8,6.8,4.5,9.4l0,0c5.9,5.6,15.2,5.4,20.8-0.5l33.9-35.6
	C1206.1,941.3,1205.9,932,1200,926.4z"/>
</svg>
