<?xml version="1.0" encoding="iso-8859-1"?>
<!-- Generator: Adobe Illustrator 19.0.0, SVG Export Plug-In . SVG Version: 6.00 Build 0)  -->
<svg xmlns="http://www.w3.org/2000/svg" xmlns:xlink="http://www.w3.org/1999/xlink" version="1.1" id="Capa_1" x="0px" y="0px" viewBox="0 0 512 512" style="enable-background:new 0 0 512 512;" xml:space="preserve" width="512px" height="512px">
<g>
	<g>
		<path d="M461.052,266.408c-1.859-1.86-4.429-2.93-7.068-2.93c-2.63,0-5.21,1.07-7.069,2.93c-1.86,1.86-2.93,4.44-2.93,7.069    c0,2.63,1.069,5.21,2.93,7.069s4.44,2.93,7.069,2.93c2.63,0,5.21-1.07,7.068-2.93c1.86-1.86,2.931-4.44,2.931-7.069    C463.982,270.847,462.913,268.267,461.052,266.408z" fill="#0f7cff"/>
	</g>
</g>
<g>
	<g>
		<path d="M413.987,39.997h-4v-6C409.987,15.251,394.736,0,375.99,0s-33.997,15.251-33.997,33.997v6h-75.994v-6    C265.999,15.251,250.748,0,232.002,0c-18.746,0-33.997,15.251-33.997,33.997v6h-75.994v-6C122.011,15.251,106.76,0,88.014,0    C69.268,0,54.017,15.251,54.017,33.997v6h-4c-27.568,0-49.996,22.428-49.996,49.996v279.977c0,16.541,13.457,29.997,29.997,29.997    h220.648c5.522,0,9.999-4.477,9.999-9.999s-4.477-9.999-9.999-9.999H30.019c-5.514,0-9.999-4.486-9.999-9.999V89.992    c0-16.541,13.457-29.997,29.997-29.997h51.996v7.167c0,7.719-6.279,13.999-13.999,13.999c-5.522,0-9.999,4.477-9.999,9.999    s4.478,9.999,9.999,9.999c18.746,0,33.997-15.251,33.997-33.997v-7.167h123.99v7.167c0,7.719-6.279,13.999-13.999,13.999    c-5.522,0-9.999,4.477-9.999,9.999s4.478,9.999,9.999,9.999c18.746,0,33.997-15.251,33.997-33.997v-7.167h123.99v7.167    c0,7.719-6.279,13.999-13.999,13.999c-5.522,0-9.999,4.477-9.999,9.999s4.478,9.999,9.999,9.999    c18.746,0,33.997-15.251,33.997-33.997v-7.167h4c16.541,0,29.997,13.457,29.997,29.997v27.998H94.014    c-5.522,0-9.999,4.477-9.999,9.999c0,5.523,4.478,9.999,9.999,9.999h349.971v92.492c0,5.523,4.478,9.999,9.999,9.999    s9.999-4.477,9.999-9.999V89.992C463.982,62.425,441.554,39.997,413.987,39.997z M102.013,39.997H74.015v-6    c0-7.719,6.279-13.999,13.999-13.999s13.999,6.279,13.999,13.999V39.997z M246.001,39.997h-27.998v-6    c0-7.719,6.279-13.999,13.999-13.999c7.719,0,13.999,6.279,13.999,13.999V39.997z M389.989,39.997h-27.998v-6    c0-7.719,6.279-13.999,13.999-13.999s13.999,6.279,13.999,13.999V39.997z" fill="#0f7cff"/>
	</g>
</g>
<g>
	<g>
		<path d="M92.014,275.977c-20.951,0-37.997,17.046-37.997,37.997c0,20.951,17.046,37.997,37.997,37.997    s37.997-17.046,37.997-37.997C130.011,293.022,112.966,275.977,92.014,275.977z M92.014,331.972    c-9.924,0-17.998-8.074-17.998-17.998c0-9.924,8.074-17.999,17.998-17.999c9.924,0,17.999,8.074,17.999,17.999    C110.012,323.898,101.938,331.972,92.014,331.972z" fill="#0f7cff"/>
	</g>
</g>
<g>
	<g>
		<path d="M185.339,275.977c-20.951,0-37.997,17.046-37.997,37.997c0,20.951,17.046,37.997,37.997,37.997    s37.997-17.046,37.997-37.997C223.336,293.022,206.291,275.977,185.339,275.977z M185.339,331.972    c-9.924,0-17.998-8.074-17.998-17.998c0-9.924,8.074-17.999,17.998-17.999c9.924,0,17.998,8.074,17.998,17.999    C203.337,323.898,195.263,331.972,185.339,331.972z" fill="#0f7cff"/>
	</g>
</g>
<g>
	<g>
		<path d="M278.665,275.977c-20.951,0-37.997,17.046-37.997,37.997c0,20.951,17.046,37.997,37.997,37.997    s37.997-17.046,37.997-37.997C316.662,293.022,299.616,275.977,278.665,275.977z M278.665,331.972    c-9.924,0-17.998-8.074-17.998-17.998c0-9.924,8.074-17.999,17.998-17.999c9.924,0,17.998,8.074,17.998,17.999    C296.664,323.898,288.589,331.972,278.665,331.972z" fill="#0f7cff"/>
	</g>
</g>
<g>
	<g>
		<path d="M92.014,171.986c-20.951,0-37.997,17.046-37.997,37.997s17.046,37.997,37.997,37.997s37.997-17.046,37.997-37.997    S112.966,171.986,92.014,171.986z M92.014,227.981c-9.924,0-17.998-8.074-17.998-17.998c0-9.924,8.074-17.998,17.998-17.998    c9.924,0,17.999,8.074,17.999,17.998C110.012,219.906,101.938,227.981,92.014,227.981z" fill="#0f7cff"/>
	</g>
</g>
<g>
	<g>
		<path d="M278.665,171.986c-20.951,0-37.997,17.046-37.997,37.997s17.046,37.997,37.997,37.997    c20.951,0,37.997-17.046,37.997-37.997S299.616,171.986,278.665,171.986z M278.665,227.981c-9.924,0-17.998-8.074-17.998-17.998    c0-9.924,8.074-17.998,17.998-17.998c9.924,0,17.998,8.074,17.998,17.998C296.664,219.906,288.589,227.981,278.665,227.981z" fill="#0f7cff"/>
	</g>
</g>
<g>
	<g>
		<path d="M371.99,171.986c-20.951,0-37.997,17.046-37.997,37.997s17.046,37.997,37.997,37.997s37.997-17.046,37.997-37.997    S392.941,171.986,371.99,171.986z M371.99,227.981c-9.924,0-17.998-8.074-17.998-17.998c0-9.924,8.074-17.998,17.998-17.998    c9.924,0,17.998,8.074,17.998,17.998C389.989,219.906,381.914,227.981,371.99,227.981z" fill="#0f7cff"/>
	</g>
</g>
<g>
	<g>
		<path d="M185.339,171.986c-20.951,0-37.997,17.046-37.997,37.997s17.046,37.997,37.997,37.997s37.997-17.046,37.997-37.997    S206.291,171.986,185.339,171.986z M185.339,227.981c-9.924,0-17.998-8.074-17.998-17.998c0-9.924,8.074-17.998,17.998-17.998    c9.924,0,17.998,8.074,17.998,17.998C203.337,219.906,195.263,227.981,185.339,227.981z" fill="#0f7cff"/>
	</g>
</g>
<g>
	<g>
		<path d="M62.086,120.92c-1.859-1.86-4.439-2.93-7.068-2.93c-2.63,0-5.21,1.07-7.069,2.93c-1.86,1.86-2.93,4.44-2.93,7.069    c0,2.63,1.069,5.21,2.93,7.069s4.44,2.93,7.069,2.93c2.63,0,5.209-1.07,7.068-2.93c1.86-1.86,2.931-4.44,2.931-7.069    C65.017,125.359,63.947,122.78,62.086,120.92z" fill="#0f7cff"/>
	</g>
</g>
<g>
	<g>
		<path d="M401.988,292.018c-60.649,0-109.991,49.342-109.991,109.991c0,60.649,49.342,109.991,109.991,109.991    c60.649,0,109.991-49.342,109.991-109.991C511.978,341.36,462.638,292.018,401.988,292.018z M401.988,492.002    c-49.622,0-89.992-40.371-89.992-89.992s40.371-89.992,89.992-89.992c49.622,0,89.992,40.371,89.992,89.992    S451.61,492.002,401.988,492.002z" fill="#0f7cff"/>
	</g>
</g>
<g>
	<g>
		<path d="M458.983,362.969h-21.998c-5.522,0-9.999,4.477-9.999,9.999c0,4.473,2.938,8.257,6.987,9.535l-27.319,27.319    l-22.094-22.094c-3.906-3.905-10.235-3.905-14.142,0l-33.497,33.497c-3.905,3.905-3.905,10.236,0,14.142    c1.953,1.953,4.512,2.929,7.07,2.929c2.559,0,5.118-0.976,7.07-2.929l26.427-26.427l22.094,22.094    c3.906,3.905,10.235,3.905,14.142,0l35.298-35.298c0.394,5.161,4.698,9.229,9.96,9.229c5.522,0,9.999-4.477,9.999-9.999v-21.998    C468.982,367.446,464.505,362.969,458.983,362.969z" fill="#0f7cff"/>
	</g>
</g>
<g>
</g>
<g>
</g>
<g>
</g>
<g>
</g>
<g>
</g>
<g>
</g>
<g>
</g>
<g>
</g>
<g>
</g>
<g>
</g>
<g>
</g>
<g>
</g>
<g>
</g>
<g>
</g>
<g>
</g>
</svg>
