<?xml version="1.0" encoding="utf-8"?>
<!-- Generator: Adobe Illustrator 19.0.0, SVG Export Plug-In . SVG Version: 6.00 Build 0)  -->
<svg version="1.1" id="Layer_1" xmlns="http://www.w3.org/2000/svg" xmlns:xlink="http://www.w3.org/1999/xlink" x="0px" y="0px"
	 viewBox="131 -131 512 512" style="enable-background:new 131 -131 512 512;" xml:space="preserve">
<style type="text/css">
	.st0{fill:#7F00FF;}
	.st1{fill:#6B05E2;}
	.st2{fill:#E6F3FF;}
	.st3{fill:#CFDBE6;}
</style>
<path class="st0" d="M387,381c-0.9,0-1.8-0.1-2.8-0.2C260.1,360.1,170,253.7,170,127.8V-47.5c0-9.2,7.5-16.7,16.7-16.7
	c78.9,0,133.5-25.6,191.1-64c5.6-3.7,12.9-3.7,18.5,0c57.6,38.4,112.1,64,191.1,64c9.2,0,16.7,7.5,16.7,16.7v175.3
	c0,125.9-90.1,232.3-214.3,253C388.8,380.9,387.9,381,387,381z"/>
<g>
	<path class="st1" d="M389.8,380.8C513.9,360.1,604,253.7,604,127.8V-47.5c0-9.2-7.5-16.7-16.7-16.7c-78.9,0-133.5-25.6-191.1-64
		c-2.8-1.9-6-2.8-9.3-2.8v512C387.9,381,388.8,380.9,389.8,380.8z"/>
	<path class="st1" d="M387,269.7c-82.9,0-150.3-67.4-150.3-150.3S304.1-30.8,387-30.8s150.3,67.4,150.3,150.3S469.9,269.7,387,269.7
		z"/>
</g>
<path class="st0" d="M537.3,119.4c0-82.9-67.4-150.3-150.3-150.3v300.5C469.9,269.7,537.3,202.3,537.3,119.4z"/>
<path class="st2" d="M423.6,162.9c14.9-11.2,24.6-29,24.6-49c0-33.8-27.5-61.2-61.2-61.2s-61.2,27.5-61.2,61.2
	c0,20,9.7,37.8,24.6,49c-31,7.7-58.9,25.3-80.1,51.1c27.6,34,69.6,55.7,116.7,55.7S476.1,248,503.7,214
	C482.6,188.2,454.6,170.6,423.6,162.9z"/>
<path class="st3" d="M423.6,162.9c14.9-11.2,24.6-29,24.6-49c0-33.8-27.5-61.2-61.2-61.2c0,41.2,0,171.6,0,217
	c47,0,89.1-21.7,116.7-55.7C482.6,188.2,454.6,170.6,423.6,162.9z"/>
</svg>
