<?xml version="1.0" encoding="utf-8"?>
<!-- Generator: Adobe Illustrator 19.0.0, SVG Export Plug-In . SVG Version: 6.00 Build 0)  -->
<svg version="1.1" id="Calque_1" xmlns="http://www.w3.org/2000/svg" xmlns:xlink="http://www.w3.org/1999/xlink" x="0px" y="0px"
	 viewBox="-299 301 200 200" style="enable-background:new -299 301 200 200;" xml:space="preserve">
<style type="text/css">
	.st0{display:none;}
	.st1{fill:none;stroke:#C0D7F1;stroke-width:3;stroke-linecap:round;stroke-miterlimit:10;}
	.st2{fill:none;stroke:#C0D7F1;stroke-width:3;stroke-linecap:round;stroke-linejoin:round;stroke-miterlimit:10;}
	.st3{fill:none;stroke:#7E50FF;stroke-width:3;stroke-linecap:round;stroke-linejoin:round;stroke-miterlimit:10;}
	.st4{fill:none;stroke:#7E50FF;stroke-width:2;stroke-linecap:round;stroke-linejoin:round;stroke-miterlimit:10;}
	.st5{fill:none;stroke:#C0D7F1;stroke-linecap:round;stroke-miterlimit:10;}
	.st6{fill:none;stroke:#7E50FF;stroke-linecap:round;stroke-linejoin:round;stroke-miterlimit:10;}
</style>
<g id="Layer_1_4_">
	<g id="XMLID_79_" class="st0">
	</g>
</g>
<g id="eye-close_4_">
</g>
<g id="eye-reader_4_">
</g>
<g id="thump-block_4_">
</g>
<g id="thump-locker_4_">
</g>
<g id="locker-block_4_">
</g>
<g id="locker-large_4_">
</g>
<g id="locker-no_4_">
</g>
<g id="locker-2_4_">
</g>
<g id="partsal-2_4_">
</g>
<g id="partsal_4_">
</g>
<g id="wallet-close_4_">
</g>
<g id="wallet-check_4_">
</g>
<g id="wallet-notify_4_">
</g>
<g id="wallet-add_4_">
</g>
<g id="wallet-1_4_">
</g>
<g id="wallet_4_">
</g>
<g id="files-3_4_">
</g>
<g id="dollar-bill_4_">
</g>
<g id="report-up_4_">
</g>
<g id="report-down_4_">
</g>
<g id="progress-bar-1_4_">
</g>
<g id="progres-bar_4_">
</g>
<g id="save-dollar_4_">
</g>
<g id="save_4_">
</g>
<g id="cash_4_">
</g>
<g id="report_4_">
</g>
<g id="report-1_4_">
</g>
<g id="bank-1_4_">
</g>
<g id="locker_4_">
</g>
<g id="bank-2_4_">
</g>
<g id="shopping-bag_9_">
</g>
<g id="card-cart_5_">
</g>
<g id="fill-cart_4_">
</g>
<g id="cart_4_">
</g>
<g id="card-reload_4_">
</g>
<g id="card-unloack_4_">
</g>
<g id="card-lock_4_">
</g>
<g id="card-close_4_">
</g>
<g id="card-pass_4_">
</g>
<g id="signature_4_">
</g>
<g id="secreat-number_4_">
</g>
<g id="credit-card_4_">
</g>
<g id="amex-card_4_">
</g>
<g id="visa-card_4_">
</g>
<g id="brocken-card_4_">
</g>
<g id="code-card_4_">
</g>
<g id="card_4_">
</g>
<g id="single-delivery_4_">
</g>
<g id="delivery_4_">
</g>
<g id="vehicle_4_">
</g>
<g id="truck_4_">
</g>
<g id="hundred_4_">
</g>
<g id="percentage_4_">
</g>
<g id="offer-dollar_4_">
</g>
<g id="dollar_9_">
</g>
<g id="dollar-out_4_">
</g>
<g id="dollar-in_4_">
</g>
<g id="money-exchange-2_4_">
</g>
<g id="money-exchange_4_">
</g>
<g id="money-rotate-2_4_">
</g>
<g id="money-rotate_4_">
</g>
<g id="mocey-bag_4_">
</g>
<g id="currency-ten_4_">
</g>
<g id="currency-one_4_">
</g>
<g id="currency-head_4_">
</g>
<g id="currency-bitcoin_4_">
</g>
<g id="currency_14_">
</g>
<g id="currency_13_">
</g>
<g id="currency-2_4_">
</g>
<g id="coin-4_9_">
</g>
<g id="coin-3_4_">
</g>
<g id="coin-1_4_">
</g>
<g id="coin-2_4_">
</g>
<g id="coins-s_4_">
</g>
<g id="doller-q-2_4_">
</g>
<g id="coins-q_4_">
</g>
<g id="dollers-2_4_">
</g>
<g id="dollers-1_4_">
</g>
<g id="dollers_4_">
</g>
<g id="dollar_8_">
</g>
<g id="coins_4_">
</g>
<g id="coin_4_">
</g>
<g id="offer-bag_4_">
</g>
<g id="shopping-bag_8_">
</g>
<g id="s-calculater_4_">
</g>
<g id="calculater_4_">
</g>
<g id="into-divider_4_">
</g>
<g id="add-minus_4_">
</g>
<g id="digital-calculater_4_">
</g>
<g id="adding_4_">
</g>
<g id="galexy_4_">
</g>
<g id="abacus_4_">
</g>
<g id="coin-4_8_">
</g>
<g id="bitcoin_4_">
</g>
<g id="currency_12_">
</g>
<g id="currency-100_4_">
</g>
<g id="dollar-bag_4_">
</g>
<g id="files_4_">
</g>
<g>
	<line id="XMLID_78_" class="st1" x1="-243.1" y1="369.8" x2="-243.1" y2="468.4"/>
	<line id="XMLID_77_" class="st1" x1="-232.4" y1="369.8" x2="-232.4" y2="468.4"/>
	<line id="XMLID_76_" class="st1" x1="-221.7" y1="369.8" x2="-221.7" y2="468.4"/>
	<line id="XMLID_75_" class="st1" x1="-211.1" y1="369.8" x2="-211.1" y2="468.4"/>
	<line id="XMLID_74_" class="st1" x1="-200.4" y1="369.8" x2="-200.4" y2="468.4"/>
	<path id="XMLID_73_" class="st1" d="M-253.7,471.1v-98.7c0-2.9,2.4-5.3,5.3-5.3h53.3c2.9,0,5.3,2.4,5.3,5.3v98.7"/>
	<polyline id="XMLID_71_" class="st2" points="-232.9,367.1 -232.9,359.1 -208.4,359.1 -208.4,367.1 	"/>
	<line id="XMLID_70_" class="st2" x1="-221.7" y1="351.1" x2="-221.7" y2="356.4"/>
	<path id="XMLID_69_" class="st3" d="M-149.7,424.4c0-0.5-0.1-0.9-0.1-1.3c0.1-0.4,0.1-0.9,0.1-1.3c0-3-1.4-5.6-3.6-7.3
		c0.6-1,0.9-2.1,0.9-3.4c0-2.9-1.8-5.3-4.4-6.2c1.1-1.2,1.7-2.7,1.7-4.4c0-3.7-3-6.7-6.7-6.7s-6.7,3-6.7,6.7c0,2.9,1.8,5.3,4.4,6.2
		c-0.1,0.1-0.3,0.3-0.4,0.5c-1.2-1.6-3.1-2.7-5.3-2.7c-3.7,0-6.7,3-6.7,6.7c0,1.9,0.8,3.6,2.1,4.8c-1.3,1.6-2.1,3.6-2.1,5.8
		c0,2,0.7,3.9,1.8,5.4c-2.7,1.6-4.4,4.6-4.4,7.9c0,5.2,4.2,9.3,9.3,9.3c1.3,0,2.4-0.3,3.5-0.7c1.7,2,4.3,3.4,7.1,3.4
		c5.2,0,9.3-4.2,9.3-9.3c0-2.6-1.1-5-2.8-6.7C-150.8,429.4-149.7,427-149.7,424.4z"/>
	<line id="XMLID_68_" class="st3" x1="-163.1" y1="447.1" x2="-163.1" y2="471.1"/>
	<path id="XMLID_67_" class="st3" d="M-168.4,428.4c0,0-1.6,4.2,2.7,5.3"/>
	<path id="XMLID_66_" class="st3" d="M-163.1,417.8c0,0,1.3,0.3,2.7,2.7"/>
	<line id="XMLID_72_" class="st1" x1="-261.7" y1="471.1" x2="-144.4" y2="471.1"/>
	<path id="XMLID_40_" class="st4" d="M-199.6,349.5c-0.2-0.2-0.4-0.5-0.5-0.8c-0.2-0.5-0.4-1.1-0.4-1.7c0-2.3,1.9-4.1,4.1-4.1
		s4.1,1.9,4.1,4.1c0,2.3-1.9,4.1-4.1,4.1"/>
	<path id="XMLID_39_" class="st5" d="M-161.2,358.1c-0.1-0.2-0.2-0.4-0.3-0.5c-0.2-0.4-0.2-0.7-0.2-1.2c0-1.5,1.3-2.8,2.8-2.8
		s2.8,1.3,2.8,2.8s-1.3,2.8-2.8,2.8"/>
	<path id="XMLID_38_" class="st5" d="M-168,324.9c-0.1-0.2-0.2-0.4-0.3-0.5c-0.2-0.4-0.2-0.7-0.2-1.2c0-1.5,1.3-2.8,2.8-2.8
		s2.8,1.3,2.8,2.8s-1.3,2.8-2.8,2.8"/>
	<path id="XMLID_37_" class="st6" d="M-178.7,370.5c0.2,0,0.4,0.1,0.6,0.2c0.4,0.1,0.7,0.3,1,0.6c1.1,1.1,1.1,2.9,0,3.9
		c-1.1,1.1-2.9,1.1-3.9,0c-1.1-1.1-1.1-2.9,0-3.9"/>
	<path id="XMLID_34_" class="st4" d="M-143.6,381.5c-0.2-0.2-0.4-0.5-0.5-0.8c-0.2-0.5-0.4-1.1-0.4-1.7c0-2.3,1.9-4.1,4.1-4.1
		c2.3,0,4.1,1.9,4.1,4.1c0,2.3-1.9,4.1-4.1,4.1"/>
</g>
</svg>
