<?xml version="1.0" encoding="utf-8"?>
<!-- Generator: Adobe Illustrator 19.0.0, SVG Export Plug-In . SVG Version: 6.00 Build 0)  -->
<svg version="1.1" id="OBJECTS" xmlns="http://www.w3.org/2000/svg" xmlns:xlink="http://www.w3.org/1999/xlink" x="0px" y="0px"
	 viewBox="0 0 519 321.3" style="enable-background:new 0 0 519 321.3;" xml:space="preserve">
<style type="text/css">
	.st0{fill:#DCA86E;}
	.st1{fill:url(#SVGID_1_);}
	.st2{fill:#2167BE;}
	.st3{fill:url(#SVGID_2_);}
	.st4{fill:#277FD9;}
	.st5{fill:#FEC4AD;}
	.st6{fill:#00B289;}
	.st7{fill:url(#SVGID_3_);}
	.st8{fill:#F8D2A1;}
	.st9{fill:none;stroke:#D4DBE2;stroke-width:0.25;stroke-miterlimit:10;}
	.st10{fill:#FFBA01;}
	.st11{fill:#D2DCEB;}
	.st12{fill:none;stroke:#A6AEBA;stroke-width:0.5;stroke-miterlimit:10;}
	.st13{fill:#50CC85;}
	.st14{fill:#77E6A6;}
	.st15{fill:#F3BA7A;}
	.st16{fill:#A6AEBA;}
	.st17{fill:#B6BFCC;}
	.st18{fill:#FFFFFF;}
</style>
<g>
	<g>
		<polygon class="st0" points="408,235.5 436.2,296.3 439.4,296.3 415,231.5 		"/>
		<polygon class="st0" points="378.9,236.8 350.8,296.3 347.6,296.3 371.9,235.4 		"/>
		
			<linearGradient id="SVGID_1_" gradientUnits="userSpaceOnUse" x1="338.1477" y1="275.1902" x2="362.901" y2="275.1902" gradientTransform="matrix(0.8061 0.5918 -0.5918 0.8061 172.8058 -146.66)">
			<stop  offset="0" style="stop-color:#343A44"/>
			<stop  offset="0.3009" style="stop-color:#232D3E"/>
			<stop  offset="0.6391" style="stop-color:#182439"/>
			<stop  offset="1" style="stop-color:#142138"/>
		</linearGradient>
		<path class="st1" d="M307.4,283.3l-14.3,12.5l-16.9-11.9c0,0,5.7-1.9,15.6,0.7l10.1-8.5L307.4,283.3z"/>
		<path class="st2" d="M390.2,214.2c0,0-31.6,16.2-42.8,21.1c-11.2,4.9-49.2,42.9-49.2,42.9s4.9,9.9,7.3,8.2
			c21.5-15.3,41.2-29.1,54-33.9c25.2-9.5,32.2-11.6,38.6-19C398.1,233.5,394.3,224.5,390.2,214.2z"/>
		<g>
			<linearGradient id="SVGID_2_" gradientUnits="userSpaceOnUse" x1="316.1771" y1="285.1427" x2="340.9307" y2="285.1427">
				<stop  offset="0" style="stop-color:#343A44"/>
				<stop  offset="0.3009" style="stop-color:#232D3E"/>
				<stop  offset="0.6391" style="stop-color:#182439"/>
				<stop  offset="1" style="stop-color:#142138"/>
			</linearGradient>
			<path class="st3" d="M340.9,276.9l-4.1,18.6l-20.6,0.4c0,0,3.5-5,13-8.7l3.1-12.8L340.9,276.9z"/>
			<path class="st4" d="M391,210.1c0,0-29.4,3.2-40.2,9c-10.7,5.8-19.3,58.7-19.3,58.7s8.3,4.5,9.4,1.7
				c8.3-22.7,17.6-40.4,17.6-40.4c10.6-1.9,35.1,10,52.8-7.4C411.2,231.6,395.9,220,391,210.1z"/>
		</g>
		<g>
			<path class="st5" d="M441.7,174.3c0,0-2.1,3.5-3.5,7.9l-12.1-1.1c0,0,6.2-9.5,5.8-15.2L441.7,174.3z"/>
			<g>
				<path class="st5" d="M439.1,154.8c-0.7-0.2-3.3-0.9-3.8-0.7c-0.7,0.3,0.1,1.2-0.4,1.8c-0.8,0.9-2.5,1-3.5,1.5
					c-1.3,0.7-2.3,1.6-2.9,2.6c-1,1.7,2.6,5.6,3.2,8.5c1.2,6.1,8.8,7,15.1,5.1c2.2-0.7,4.3-2.7,5.5-4.6c1.4-2.3,0.6-6.1-0.6-8.4
					c-0.7-1.4-2.1-2.5-3.4-3.4c-1.1-0.8-1.4-4-2.8-4.2C445.5,153.1,440.6,155.2,439.1,154.8z"/>
			</g>
			<path class="st6" d="M456.5,171c0,0-0.2-1,1.5-2.7c5.8-5.5-0.4-16.2-6.7-18c-3.2-1-5.3,0.1-6.5-3.2c0.1,0.2-1.3,0.8-1.4,0.9
				c-0.8,0.6-1.1,1.1-1.1,2.2c-0.1,4.7,4.1,9,7.2,12c1.4,1.3-2.1,0.4-3.5,0.7c-0.9,0.2-3.3,2.7-3.8,3.1c1.3,1.7,2.5,0.2,4.3,1
				c1.7,0.7,0.6,2.8-0.9,3.1c-2.4,0.4-3.4-1.2-3.4-1.2c-1.1,0.6-1.3,4.1-2.1,5.1c1.2,0.7,8.1,1.9,9.7,1.8
				C453.2,175.7,455.3,173.8,456.5,171z"/>
		</g>
		<path class="st6" d="M441.3,176.2c2.5,28.3-30.1,55.4-30.1,55.4s-21.3,0.8-20.3-21.6c0,0,1.7-4.1,14.8-16c8.8-8,15-19.9,21.2-19.6
			C443.9,175.1,441.3,176.2,441.3,176.2z"/>
		<linearGradient id="SVGID_3_" gradientUnits="userSpaceOnUse" x1="362.2491" y1="207.9274" x2="444.3172" y2="207.9274">
			<stop  offset="0" style="stop-color:#343A44"/>
			<stop  offset="0.3009" style="stop-color:#232D3E"/>
			<stop  offset="0.6391" style="stop-color:#182439"/>
			<stop  offset="1" style="stop-color:#142138"/>
		</linearGradient>
		<path class="st7" d="M362.2,233.2c0,0,19.6,7.3,45.8-2.6c26.2-9.9,33.3-56.3,33.3-56.3l3,1.5c0,0-2.9,51.1-37.4,62.2
			c-26.3,8.5-44.7-1.6-44.7-1.6V233.2z"/>
		<g>
			<path class="st8" d="M438.1,204.5c0,0,3.1,10.9,3.3,16.3c0.2,5.4-2.1,23.8-2.1,23.8l5,0.6c0,0,4.4-21.9,4.5-29.1
				c0.1-7.1-4-18.7-4-18.7L438.1,204.5z"/>
			<path class="st6" d="M437.8,204.9c3.6,15.8,2.1,37,2.1,37l5.4,0.3c5.9-12.4,5.4-39.9,2.2-51.5c-1.8-6.8-2.9-13.6-7.5-14.7
				c-2.9-0.7-8.8,1.4-9.6,4.3C428.8,186.6,436.1,197.2,437.8,204.9z"/>
			<path class="st8" d="M437.1,247.3c-1.2,2.3-1.7,3.9-1,4.5c0.5,0.4,1.3-1.8,2.2-2.6c0.3,0.9,0.3,2.6-0.3,4.1
				c-0.7,1.6-0.6,3,0.6,3.2c1.2,0.1,3.3,0,3.7-1c0.4-1,1.5-5.3,2-6.8c0.6-1.4-0.2-3.1,0-3.9c0.2-0.8-3.7-2.2-3.7-2.2
				c-0.2,0.3-1.4,2-1.4,2s-1,1.2-1.4,1.4C437.6,246.2,437.1,247.3,437.1,247.3z"/>
		</g>
	</g>
	<g>
		<line class="st9" x1="407.6" y1="25" x2="407.6" y2="62.7"/>
		<circle class="st10" cx="407.6" cy="76.7" r="6.6"/>
		<polygon class="st11" points="438.8,79.5 376.3,79.5 403.7,59.6 411.4,59.6 		"/>
	</g>
	<g>
		<line class="st9" x1="113.6" y1="25" x2="113.6" y2="62.7"/>
		<circle class="st10" cx="113.7" cy="76.7" r="6.6"/>
		<polygon class="st11" points="144.8,79.5 82.4,79.5 109.7,59.6 117.5,59.6 		"/>
	</g>
	<line class="st12" x1="46" y1="296" x2="473" y2="296"/>
	<g>
		<g>
			<g>
				<path class="st13" d="M201.2,164.9c0,0,1.3-3.2,3.7-6.1c2.4-2.9,6-7.7,6-7.7s-1.7,3.4-4.1,7.3
					C204.4,162.2,201.2,164.9,201.2,164.9z"/>
				<path class="st13" d="M203.7,159.2c0,0,2.6-2.1,4.2-6.5c1.6-4.4,3-7.8,3-7.8s-3.4,4.9-4.9,8.3
					C204.6,156.7,203.7,159.2,203.7,159.2z"/>
				<path class="st13" d="M201.4,164.2c0,0,1.4-5,1.7-9.1c0.3-4,0.2-6.5,0.2-6.5s-1.7,7.3-2.3,10.4
					C200.5,162.1,201.4,164.2,201.4,164.2z"/>
				<path class="st13" d="M200.2,167.6c0,0,0.4-5.2-1-9.8c-1.5-4.6-1.5-7.6-1.5-7.6s-0.7,4.9,0.1,9.1
					C198.6,163.4,200.2,167.6,200.2,167.6z"/>
				<path class="st13" d="M200.6,166.4c0,0,3.7-3.1,5.6-3.9c1.9-0.7,4.5-2.9,4.5-2.9s-3.2,4.1-5,4.9
					C203.9,165.4,200.6,166.4,200.6,166.4z"/>
				<path class="st13" d="M199.4,170.8c0,0,0.4-2.8-1.3-6.9c-1.6-4-2-6-2-6s-0.1,5.5,1,7.5C198.1,167.5,199.4,170.8,199.4,170.8z"/>
				<path class="st13" d="M199.7,168.8c0,0,2.1-1.4,4.2-1.7c2-0.3,2.6-0.6,2.6-0.6s-1,1.9-3.6,2.2
					C200.4,169,199.7,168.8,199.7,168.8z"/>
				<path class="st13" d="M198.3,173.5c0.5-1.8,1-4.5,1.7-6.4c1.3-4.1,4.5-9.3,4.5-9.3c-1.9,4.3-3.4,6.8-4.4,10.5
					c-0.4,1.5-1.1,3.5-1.4,4.9C198.7,173.6,198.4,173.9,198.3,173.5z"/>
			</g>
			<g>
				<path class="st14" d="M199.3,166.3c0,0-0.2-3.7-1.6-7.4c-1.4-3.7-3.3-9.8-3.3-9.8s0.6,4,1.6,8.7
					C197,162.5,199.3,166.3,199.3,166.3z"/>
				<path class="st14" d="M198.7,159.8c0,0-1.9-3-2-8c-0.1-5-0.4-8.9-0.4-8.9s1.8,6.1,2.1,10.1C198.7,157,198.7,159.8,198.7,159.8z"
					/>
				<path class="st14" d="M199.3,165.6c0,0,0.4-5.5,1.5-9.7c1.1-4.1,2-6.7,2-6.7s-0.8,7.9-1.3,11.2
					C200.9,163.8,199.3,165.6,199.3,165.6z"/>
				<path class="st14" d="M199.3,169.4c0,0,1.3-5.4,4.4-9.5c3.1-4.2,4.2-7.1,4.2-7.1s-1,5.1-3.3,9.1
					C202.4,165.7,199.3,169.4,199.3,169.4z"/>
				<path class="st14" d="M199.3,168.1c0,0-2.6-4.4-4.2-5.8s-3.5-4.5-3.5-4.5s1.8,5.2,3.3,6.7C196.4,165.9,199.3,168.1,199.3,168.1z
					"/>
				<path class="st14" d="M199.1,173c0,0,0.6-3,3.7-6.4c3-3.5,4.1-5.3,4.1-5.3s-1.8,5.5-3.6,7.2C201.5,170.1,199.1,173,199.1,173z"
					/>
				<path class="st14" d="M199.4,170.8c0,0-1.6-2.2-3.6-3.1c-2-1-2.4-1.5-2.4-1.5s0.4,2.3,2.8,3.4
					C198.7,170.8,199.4,170.8,199.4,170.8z"/>
				<path class="st13" d="M199.2,176c0.2-1.9,0.5-4.9,0.5-7c0.1-4.5-1.3-10.9-1.3-10.9c0.5,5,1.1,8,0.7,12c-0.1,1.6-0.2,3.9-0.3,5.4
					C198.8,176,199,176.4,199.2,176z"/>
			</g>
			<g>
				<path class="st13" d="M196.5,167.1c0,0-1.3-3.2-3.7-6.1c-2.4-2.9-6-7.7-6-7.7s1.7,3.4,4.1,7.3
					C193.3,164.4,196.5,167.1,196.5,167.1z"/>
				<path class="st13" d="M194,161.5c0,0-2.6-2.1-4.2-6.5c-1.6-4.4-3-7.8-3-7.8s3.4,4.9,4.9,8.3C193.1,158.9,194,161.5,194,161.5z"
					/>
				<path class="st13" d="M196.3,166.4c0,0-1.4-5-1.7-9.1c-0.3-4-0.2-6.5-0.2-6.5s1.7,7.3,2.3,10.4
					C197.2,164.3,196.3,166.4,196.3,166.4z"/>
				<path class="st13" d="M197.5,169.8c0,0-0.4-5.2,1-9.8c1.5-4.6,1.5-7.6,1.5-7.6s0.7,4.9-0.1,9.1
					C199.1,165.6,197.5,169.8,197.5,169.8z"/>
				<path class="st13" d="M197,168.6c0,0-3.7-3.1-5.6-3.9c-1.9-0.7-4.5-2.9-4.5-2.9s3.2,4.1,5,4.9C193.8,167.6,197,168.6,197,168.6z
					"/>
				<path class="st13" d="M198.3,173.1c0,0-0.4-2.8,1.3-6.9c1.6-4,2-6,2-6s0.1,5.5-1,7.5C199.6,169.7,198.3,173.1,198.3,173.1z"/>
				<path class="st13" d="M198,171c0,0-2.1-1.4-4.2-1.7c-2-0.3-2.6-0.6-2.6-0.6s1,1.9,3.6,2.2C197.3,171.2,198,171,198,171z"/>
				<path class="st13" d="M199.4,175.8c-0.5-1.8-1-4.5-1.7-6.4c-1.3-4.1-4.5-9.3-4.5-9.3c1.9,4.3,3.4,6.8,4.4,10.5
					c0.4,1.5,1.1,3.5,1.4,4.9C199,175.8,199.3,176.1,199.4,175.8z"/>
			</g>
			<polygon class="st11" points="204,188.2 194,188.2 191,170.6 207.5,170.6 			"/>
		</g>
		<g>
			<g>
				<polygon class="st0" points="318.3,193 334.7,296.1 337.9,296.1 324.9,193 				"/>
				<polygon class="st0" points="204.6,193.1 183.1,296.3 178.9,296.3 195.7,193.1 				"/>
			</g>
			<rect x="170.8" y="187" class="st0" width="177.4" height="7.9"/>
			<rect x="162.3" y="187" class="st15" width="194.4" height="5.3"/>
		</g>
		<g>
			<g>
				<polygon class="st16" points="302.3,184.2 295.4,184.2 288.5,140.2 293.8,140.2 				"/>
				<polygon class="st11" points="300.4,184.2 273.4,184.2 266.5,140.2 293.5,140.2 				"/>
				<rect x="273.1" y="183.2" class="st11" width="29.3" height="3.3"/>
				<rect x="302.3" y="183.2" class="st16" width="36.9" height="3.3"/>
				<path class="st16" d="M285.6,164.4c0.8,3.4,0.2,7-1.2,8.1c-1.5,1.1-3.3-0.7-4-4.1c-0.8-3.4-0.2-7,1.2-8.1
					C283,159.2,284.8,161,285.6,164.4z"/>
			</g>
		</g>
		<g>
			<path class="st16" d="M243.7,186.4h-3.8c-1.6,0-2.9-1.2-3.2-2.7l-1.5-9.8h13.2l-1.5,9.8C246.6,185.2,245.3,186.4,243.7,186.4z"/>
			<g>
				<path class="st16" d="M247.2,184.3c-0.1,0-0.3,0-0.4,0l-0.2,0l-0.1-0.1c-0.1-0.1-2.3-1.8-2.3-4.3c0-2.6,1.7-4.6,3.8-4.6
					c1.3,0,2.4,0.5,3.1,1.3c0.5,0.6,1,1.7,0.7,3.4l0,0C251.2,182.7,249.6,184.3,247.2,184.3z M247.1,183.1c2.4,0.1,3.2-1.8,3.5-3.4
					l0,0c0.2-1,0-1.9-0.4-2.5c-0.5-0.6-1.2-0.9-2.2-0.9c-1.4,0-2.6,1.5-2.6,3.4C245.4,181.4,246.6,182.7,247.1,183.1z"/>
			</g>
		</g>
		<polygon class="st11" points="233.9,187.2 250.6,187.2 253.2,184.3 231.2,184.3 		"/>
	</g>
	<g>
		<rect x="65.2" y="123" class="st17" width="80" height="173.1"/>
		<rect x="74.4" y="130.5" class="st11" width="61.6" height="18.2"/>
		<path class="st18" d="M112.5,141.8H97.9c-0.4,0-0.8-0.4-0.8-0.8v-2.8c0-0.4,0.4-0.8,0.8-0.8h14.5c0.4,0,0.8,0.4,0.8,0.8v2.8
			C113.3,141.5,112.9,141.8,112.5,141.8z"/>
		<rect x="74.4" y="153.6" class="st11" width="61.6" height="18.2"/>
		<path class="st18" d="M112.5,164.9H97.9c-0.4,0-0.8-0.4-0.8-0.8v-2.8c0-0.4,0.4-0.8,0.8-0.8h14.5c0.4,0,0.8,0.4,0.8,0.8v2.8
			C113.3,164.6,112.9,164.9,112.5,164.9z"/>
		<rect x="74.4" y="176.7" class="st11" width="61.6" height="18.2"/>
		<path class="st18" d="M112.5,188H97.9c-0.4,0-0.8-0.4-0.8-0.8v-2.8c0-0.4,0.4-0.8,0.8-0.8h14.5c0.4,0,0.8,0.4,0.8,0.8v2.8
			C113.3,187.7,112.9,188,112.5,188z"/>
		<rect x="74.4" y="200.1" class="st11" width="61.6" height="89"/>
		<path class="st18" d="M112.5,211.4H97.9c-0.4,0-0.8-0.4-0.8-0.8v-2.8c0-0.4,0.4-0.8,0.8-0.8h14.5c0.4,0,0.8,0.4,0.8,0.8v2.8
			C113.3,211,112.9,211.4,112.5,211.4z"/>
	</g>
</g>
</svg>
