<?xml version="1.0" encoding="utf-8"?>
<!-- Generator: Adobe Illustrator 19.0.0, SVG Export Plug-In . SVG Version: 6.00 Build 0)  -->
<svg version="1.1" id="OBJECTS" xmlns="http://www.w3.org/2000/svg" xmlns:xlink="http://www.w3.org/1999/xlink" x="0px" y="0px"
	 viewBox="0 0 519 321.3" style="enable-background:new 0 0 519 321.3;" xml:space="preserve">
<style type="text/css">
	.st0{fill-rule:evenodd;clip-rule:evenodd;fill:#2A0159;}
	.st1{fill-rule:evenodd;clip-rule:evenodd;fill:#B988FF;}
	.st2{fill-rule:evenodd;clip-rule:evenodd;fill:#9539FF;}
	.st3{fill-rule:evenodd;clip-rule:evenodd;fill:#E2D2F9;}
	.st4{fill-rule:evenodd;clip-rule:evenodd;fill:#5628AF;}
	.st5{fill-rule:evenodd;clip-rule:evenodd;fill:#7C2FEA;}
</style>
<g>
	<g>
		<path class="st0" d="M232,218.3c-15,0-30,0-45,0c-0.7,0-0.9-0.1-0.9-0.8c0.1-5.9,0.1-11.9,0.2-17.8c0-5.6,0-11.3,0-16.9
			c0-8.4,0-16.8,0-25.3c0-1.3,0.4-2.2,1.4-3c10-8.2,20-16.4,29.4-25.2c1-1,2.3-1.2,3.6-1.2c3.8,0,7.6-0.1,11.4,0
			c0.9,0,1.2-0.2,1.1-1.1c-0.1-1.7,0-3.5,0-5.2c0-0.7-0.1-0.9-0.9-1c-8.4-0.6-16.9-1.3-25.3-1.9c-1.1-0.1-2.2-0.2-3.3-0.4
			c-1.3-0.2-1.9-0.9-1.8-2.3c0.2-4.7,0.4-9.5,0.5-14.3c0.2-10.9,1.1-21.7,2.1-32.5c0.1-0.9,0.2-1.8,0.3-2.6c0.2-2.1,1.4-3.6,3.2-4.7
			c8.4-5.3,16.8-10.7,25.2-16.1c0.2-0.1,0.4-0.3,0.6-0.4c3.1-2.5,6.5-3.8,10.6-3.2c1.4,0.2,2.9,0,4.4,0c0.8,0,1.3-0.3,1.7-1
			c2.4-4.7,6-8,11.1-9.7c0.1,0,0.2-0.1,0.3-0.1c1-0.6,1-5.1,0.1-5.7c-4.4-2.9-4.8-8.8-0.8-12.5c2.3-2.1,4.9-2.8,7.8-1.8
			c3.1,1,4.3,3.6,4.8,6.6c0.6,3.1-0.4,5.8-2.8,7.9c-2.1,1.9-1.7,4.9,0.9,5.9c4.1,1.5,6.6,4.5,8.1,8.5c0.7,1.8,1.2,2.1,3.1,2.1
			c11.2,0,22.4-0.1,33.6-0.1c3.8,0,4.3,0.3,4.4,4.2c0.2,9.9-0.3,19.7-0.7,29.5c-0.2,3.6-0.1,7.2,0,10.7c0.1,3.1-1.1,5.5-3.4,7.5
			c-10,8.7-19.9,17.3-29.9,26c-0.8,0.7-1.7,1-2.8,1c-4.3,0-8.5,0.1-12.8,0.2c-0.9,0-1.3,0.2-1.3,1.2c0,1.6-0.1,3.3-0.3,4.9
			c-0.1,0.9,0.1,1.1,1,1.1c11,0,22.1,0,33.1,0c1.7,0,3.4,0,5.1,0.1c1.6,0,1.9,0.3,1.9,1.9c0,11.5,0,23,0,34.5c0,7.9-0.1,15.8,0,23.8
			c0,1.4-0.5,2.5-1.6,3.4c-9.8,8.4-19.6,16.9-29.4,25.4c-1.3,1.1-2.6,1.3-4.2,1.3c-6-0.2-11.9-0.3-17.9-0.4c-8.7-0.1-17.3,0-26,0
			C232,218.5,232,218.4,232,218.3z"/>
		<path class="st1" d="M285.6,68.3c0,6.8-0.3,13.6-0.5,20.4c-0.2,5.4-0.2,10.8-0.3,16.1c-0.1,4.3-0.2,8.7-0.2,13
			c0,0.8-0.1,1.2-1.1,1.3c-10.7,0.1-21.4,0.5-32.2,0.2c-10.4-0.3-20.7-1-31.1-1.7c-4.9-0.3-9.8-0.7-14.7-1.1c-0.2,0-0.4-0.1-0.6-0.2
			c1-0.5,1.2-1.5,1.4-2.5c1.2-7.2,2.2-14.5,2.7-21.8c0.2-2.5,0.4-5,0.3-7.4c-0.1-4.5,0.3-8.9,0.3-13.4c0-1.7,0.3-2,2.1-2.1
			c6.9-0.3,13.7-0.3,20.6-0.6c7.2-0.3,14.4-0.7,21.6-0.3c7.9,0.4,15.8,0.4,23.7,0.4c2.2,0,4.5-0.2,6.7-0.4
			C284.7,68.2,285.2,68.1,285.6,68.3z"/>
		<path class="st1" d="M191.6,157.5c3.9,0,7.8,0,11.7,0c8.7,0.1,17.3,0.2,26,0.2c15.1,0.1,30.1,0.2,45.2,0.3c2.5,0,2.5,0,2.5,2.5
			c0,18.2,0,36.5,0,54.7c0,1.1-0.2,1.4-1.3,1.4c-13.3-0.1-26.7-0.2-40-0.3c-11.1-0.1-22.1-0.1-33.2-0.3c-3.6-0.1-7.2,0.1-10.8-0.2
			c-0.5-0.5-0.5-1.2-0.5-1.8c0-18.3,0-36.5,0-54.8C191.2,158.7,191.1,158,191.6,157.5z"/>
		<path class="st2" d="M319.1,45.7c0,2.3,0,4.6,0,6.9c0.1,8-0.3,16-0.6,24c-0.1,4-0.3,8.1-0.4,12.1c0,1.2-0.5,2-1.4,2.8
			c-8.3,7.8-17,15.1-25.6,22.5c-1.3,1.1-2.7,2.3-4.2,3.6c0-2.6,0-4.8,0-7c0.1-6.9,0.2-13.9,0.3-20.8c0.1-3.5,0.6-7,0.5-10.6
			c-0.1-3.6,0-7.2-0.1-10.9c0-2,0.7-3.5,2.4-4.6c9.3-5.9,18.6-11.8,27.9-17.7C318.2,45.9,318.5,45.6,319.1,45.7z"/>
		<path class="st2" d="M308.9,132.1c0,5.1,0,9.8,0,14.6c0,13.6-0.1,27.2-0.1,40.8c0,1.7-0.5,2.9-1.8,4c-8.8,7.5-17.6,15.1-26.4,22.6
			c-0.4,0.3-0.8,1-1.3,0.8c-0.5-0.2-0.2-1-0.2-1.5c0-0.8,0-1.6,0-2.4c0.1-15.8,0.1-31.7,0.2-47.5c0-1.4,0-2.9-0.1-4.3
			c0-1.2,0.4-2.1,1.3-2.9c9.4-7.7,18.3-15.9,27.5-23.7C308.2,132.5,308.5,132.4,308.9,132.1z"/>
		<path class="st1" d="M233.3,133.2c0.2,3.4,0.2,6.7,0,10.1c-0.1,2,0.8,3.2,2.5,4.1c4.3,2.1,8.9,2.9,13.7,3c6.3,0.2,12.4-1.2,18.4-3
			c1.4-0.4,1.9-1.2,1.9-2.9c0-3.6,0-7.1,0-10.7c0-0.2,0-0.3,0-0.5c0.3-0.3,0.8-0.3,1.2-0.3c1.4,0.1,2.8,0.1,4.2,0.1
			c6.4,0,12.8,0,19.2,0c2.6,0,5.2-0.4,7.8-0.2c0.6,0,1.3-0.1,1.8,0.4c-2.7,2.7-5.7,5.1-8.6,7.6c-5.1,4.4-10.2,8.8-15.3,13.2
			c-1.8,1.6-3.9,2.3-6.4,2.2c-6.7-0.1-13.4-0.2-20.1-0.3c-10.9-0.1-21.9-0.2-32.8-0.3c-9.2-0.1-18.4-0.2-27.6-0.1
			c-0.6,0-1.2,0.1-1.7-0.2c0.6-0.6,1.3-0.4,1.9-0.4c0.8,0,1.5-0.2,2.2-0.7c4.8-3.5,9.1-7.5,13.4-11.7c3.1-3.1,6.5-5.9,9.6-8.9
			c0.6-0.6,1.4-0.7,2.2-0.7c3.3-0.2,6.6,0.4,9.9,0.3C231.7,133.1,232.5,132.7,233.3,133.2z"/>
		<path class="st1" d="M311,47.9c-3.6,2.3-7.2,4.7-10.8,7c-4.2,2.7-8.5,5.4-12.8,8.1c-0.9,0.6-1.8,0.8-2.8,0.8
			c-8.2,0-16.4,0.1-24.6,0.1c-11.4,0-22.8,0-34.2,0c-2.9,0-5.9-0.1-8.8-0.2c-0.1-0.6,0.4-0.9,0.8-1.1c7.3-4.8,14.4-9.9,21.5-15.1
			c0.4-0.3,0.8-0.6,1.3-0.7c2.7-0.2,5.3,0.1,8,0.3c-0.1,1.4-0.5,2.7-0.9,4c-0.4,1.8-0.3,2.2,1.4,3.1c3,1.6,6.3,2.1,9.7,2.4
			c7.2,0.7,14.2-0.4,21.2-2.1c2.7-0.7,2.7-0.1,2.6-3.6c0-1.4-0.3-2.8-0.4-4.1c2,0,3.9,0.4,5.9,0.4c5.7,0.1,11.4,0.7,17.1,0.2
			c1.5-0.1,3.1-0.1,4.7,0C310.2,47.4,310.6,47.4,311,47.9z"/>
		<path class="st2" d="M265.1,33.6c5.7-0.7,9.4,1,11.7,5.1c2.1,3.7,3.4,7.7,3.5,12c0,1-0.3,1.6-1.3,1.9c-7.7,1.8-15.4,2.8-23.2,1.5
			c-1.7-0.3-3.5-0.7-5-1.5c1.1-3.3,2.2-6.6,4.1-9.6c2.1-3.2,4.5-5.9,8.3-7c0.7-0.2,1.3-0.7,2-1.1C266,34.5,265.9,34.1,265.1,33.6z"
			/>
		<path class="st3" d="M285.6,68.3c-1.8,0.7-3.6,0.6-5.5,0.7c-6.1,0.1-12.1,0.3-18.2,0c-7-0.3-13.9-0.5-20.9-0.4
			c-5.8,0.1-11.6,0.4-17.4,0.6c-2.5,0-5,0.1-7.4,0.2c-1.8,0-3.6,0.4-5.4,0.3c-0.8-0.1-0.8,0.5-0.8,1.1c0,4.9-0.2,9.8-0.3,14.7
			c-0.1,4.5-0.4,8.9-0.9,13.4c-0.6,5.5-1.4,11-2.3,16.4c-0.2,1.3-0.9,1-1.6,1.1c-1-0.2-0.8-1-0.8-1.6c0.2-5,0.4-10,0.7-15
			c0.3-6.8,0.6-13.5,1.1-20.3c0.3-4.2,0.7-8.3,1-12.4c0.1-0.7,0.3-1,1-0.9c0.2,0,0.4,0,0.6,0c25,0,49.9,0,74.9,0
			C285.7,66.1,285.7,66.1,285.6,68.3z"/>
		<path class="st2" d="M239.1,126.5c6.2,0.7,12.5,0.9,18.8,0.7c2.9-0.1,5.7-0.4,8.5-0.9c1.1-0.2,1.4,0.1,1.3,1.2
			c-0.1,1.4-0.1,2.8,0,4.2c0.1,1.1-0.5,1.5-1.5,1.6c-4.5,0.3-9,0.8-13.5,0.9c-4.5,0.1-8.9-0.2-13.3-0.8c-0.2,0-0.4-0.1-0.6-0.2
			c-0.2-1.8-0.1-3.6-0.1-5.4C238.7,127.2,238.8,126.8,239.1,126.5z"/>
		<path class="st2" d="M239.1,134.7c4.9,0.5,9.8,0.9,14.7,0.7c4.2-0.2,8.4-0.4,12.6-0.7c1.1-0.1,1.4,0.2,1.3,1.3
			c-0.1,1.1,0,2.2,0,3.3c0,0.8-0.4,1.1-1.1,1.2c-6.8,1-13.6,1.9-20.5,1.5c-2.4-0.1-4.8-0.3-7.1-1c-0.3-0.3-0.4-0.6-0.4-1
			C238.8,138.3,238.2,136.4,239.1,134.7z"/>
		<path class="st3" d="M191.6,157.5c0,19.4,0,38.9,0,58.3c-3,0.2-3,0.2-3-2.7c0-18.1,0-36.1,0-54.2c0-1.3,0.3-1.8,1.6-1.5
			C190.6,157.5,191.1,157.5,191.6,157.5z"/>
		<path class="st3" d="M233.3,133.2c-4.1,0.7-8.3-0.2-12.4,0c-0.9,0-1.5,0.3-2.2,0.9c-5.2,4.6-10.1,9.4-15.2,14.2
			c-2.5,2.4-5.3,4.5-8.1,6.6c-0.4,0.3-0.7,0.4-1.2,0.4c-0.9,0-1.8,0-2.6,0c-0.9-0.4-0.2-0.6,0.1-0.8c2.2-1.9,4.4-3.7,6.5-5.6
			c6.6-5.7,13.2-11.5,19.7-17.3c1-0.9,2.1-1.4,3.5-1.3c3.4,0.1,6.9,0.1,10.3,0.1c1.3,0,1.8,0.4,1.6,1.7
			C233.3,132.4,233.3,132.8,233.3,133.2z"/>
		<path class="st2" d="M250,148.2c-4.3,0.2-8.9-1-13.4-2.8c-1.1-0.5-1.7-2.4-1-3.3c0.2-0.3,0.5-0.2,0.8-0.1
			c8.4,2.6,16.9,1.9,25.4,0.8c1.7-0.2,3.4-0.4,5.1-0.7c0.6-0.1,0.8,0.1,0.8,0.7c0.1,2.3,0,2.5-2.2,3.1
			C260.7,147.3,255.7,148.3,250,148.2z"/>
		<path class="st2" d="M252.8,125.8c-5.4,0.1-10.8-0.4-16.2-1.1c-0.9-0.1-1.1-0.4-1-1.3c0.2-2.4,0.1-2.4,2.5-2.3
			c9.6,0.2,19.2,0.5,28.8,0.7c0.6,0,1.3-0.2,1.3,0.8c0,0.9,0.1,1.8-1,2c-1.7,0.3-3.5,0.5-5.2,0.7
			C258.8,125.7,255.8,125.8,252.8,125.8z"/>
		<path class="st3" d="M248.5,47.1c-2,0.6-4-0.1-6-0.1c-1.5,0-2.7,0.4-3.9,1.3c-6.9,5.2-13.9,10.2-21.1,14.8
			c-0.2,0.2-0.5,0.3-0.6,0.6c-2.2,0-4.4,0-6.7,0c0.3-0.5,0.7-0.7,1-0.9c8.4-5.4,16.9-10.8,25.3-16.2c2.1-1.3,4.3-2,6.8-1.8
			c1.5,0.1,3.1,0.1,4.7,0c1-0.1,1.2,0.3,0.9,1.1C248.7,46.3,248.6,46.7,248.5,47.1z"/>
		<path class="st3" d="M311,47.9c-4.8-0.2-9.6,0.5-14.4,0.2c-4.4-0.3-8.8-0.2-13.1-0.7c-0.5-0.1-0.9-0.3-1.3-0.5c-0.5-2-0.5-2,1.5-2
			c10.3,0,20.7,0,31,0c0.2,0,0.3,0,0.6,0.1C313.9,46.1,312.5,47.1,311,47.9z"/>
		<path class="st3" d="M304.1,133.2c-5.9,0-11.8,0.4-17.8,0.3c-4.8-0.1-9.6,0-14.5,0c-0.6,0-1.2-0.2-1.9-0.2
			c-0.1-2.2-0.1-2.2,2.1-2.2c10.9,0,21.7,0,32.6,0c0.3,0,0.7,0,1,0c0.2,0,0.5,0,0.5,0.2c0,0.1-0.1,0.3-0.2,0.4
			C305.3,132.2,304.7,132.7,304.1,133.2z"/>
		<path class="st1" d="M266.4,13.4c1.8-0.3,3.2,0.4,4.2,1.9c1.7,2.5,1.4,5.2,0.2,7.8c-0.3,0.6-0.8,1-1.4,1.1c-1.6,0.4-3.1,0.5-4.7,0
			c0.1-0.6,0-1.2-0.4-1.8c-1.9-2.6-1.5-5.6,1-7.8C265.7,14.4,266.5,14.3,266.4,13.4z"/>
		<path class="st1" d="M265.1,33.6c0.5,0.2,1.2-0.2,1.4,0.3c0.2,0.6-0.6,1-1,1.3c-0.6,0.5-1.2,1-1.9,1.1c-4.1,1.1-6.6,4-8.7,7.4
			c-1.5,2.4-2.5,5-3.3,7.7c-0.2,0.5-0.3,0.9-0.8,1.2c-0.8-0.1-0.9-0.7-0.8-1.3c1-6,2.9-11.6,8.1-15.3
			C260.1,34.5,262.5,33.7,265.1,33.6z"/>
		<path class="st3" d="M266.4,13.4c0.5,0.1,0.9,0.1,0.3,0.7c-0.7,0.7-1.6,1.3-2.3,2.2c-1,1.4-1.1,2.8-1,4.4c0.1,0.7,0.7,1.1,1.1,1.6
			c0.5,0.6,1.2,1.3,0.1,2c-3.4-0.9-5-4.9-3.1-7.8C262.7,14.8,264.1,13.5,266.4,13.4z"/>
		<path class="st1" d="M239.1,126.5c0,2,0,4,0.1,6c0,0.3-0.1,0.5-0.4,0.5c-3.3-0.3-3.3-0.3-3.3-3.5c0-0.9,0-1.8,0-2.8
			c0-0.5,0.1-0.8,0.7-0.7C237.2,126.3,238.2,126.3,239.1,126.5z"/>
		<path class="st1" d="M239.1,134.7c0,2.1,0,4.2,0,6.3c0,0-0.1,0-0.1,0c-4.1-1.1-3.4-0.3-3.4-4.4c0-2.9,0-2.9,2.8-2.1
			C238.6,134.6,238.9,134.7,239.1,134.7z"/>
		<path class="st3" d="M267.7,29.2c0,0.1,0,0.2,0,0.2c0.1,1.8-0.5,2.2-2.2,1.8c-0.5-0.1-0.5-0.4-0.5-0.7c0-0.7,0-1.3,0-2
			c0-1.7,0-1.7,1.6-1.7c0.7,0,1.1,0.2,1,1C267.6,28.3,267.6,28.7,267.7,29.2C267.7,29.2,267.7,29.2,267.7,29.2z"/>
		<path class="st0" d="M254,109.4c-0.8,0-1.7,0-2.5,0c-1,0-1.6-0.5-1.7-1.5c-0.2-1.5-0.5-3.1-0.7-4.6c-0.1-0.9-0.4-1.8-0.8-2.7
			c-0.6-1.3-1.4-1.5-2.6-0.8c-0.6,0.4-0.9,0.9-1.2,1.6c-0.7,1.9-1.1,3.8-1.5,5.7c-0.4,1.6-0.8,2-2.4,1.9c-1.3,0-2.5,0-3.8-0.1
			c-1,0-1.7-0.6-1.6-1.7c0.3-3.5,0.7-7,2.3-10.3c2-4.1,6.1-6.4,10.7-6c3.5,0.3,7.4,3.8,8.6,8c0.8,2.9,1,5.9,1.4,8.8
			c0.1,0.9-0.3,1.3-1.1,1.3C256,109.2,255,109.2,254,109.4C254,109.3,254,109.3,254,109.4z"/>
		<path class="st0" d="M257.2,86.7c0.2-5.5,3.8-9.1,8.9-9c5.3,0.2,8.8,3.9,8.6,9.4c-0.1,5-3.7,8-9.1,7.8
			C260.3,94.8,257.1,91.6,257.2,86.7z"/>
		<path class="st0" d="M234.9,87c-0.1,5.1-3.4,8.1-8.9,8c-5.5-0.1-8.6-3.2-8.6-8.5c0.1-5.2,3.8-8.9,8.9-8.8
			C231.6,77.8,235,81.5,234.9,87z"/>
		<path class="st0" d="M232.7,210c-9.6,0-19.1,0-28.7,0c-1.9,0-3.8,0-5.7-0.1c-1.8,0-2.2-0.4-2.2-2.3c0-3.3,0-6.6,0-10
			c0-9.9,0-19.9-0.1-29.8c0-0.9-0.1-1.8-0.2-2.8c-0.1-1,0.3-1.6,1.5-1.6c11.4,0,22.8-0.2,34.2,0.1c9.2,0.2,18.4,0.3,27.6,0.5
			c2.5,0.1,5,0.1,7.6,0.2c1.2,0,1.7,0.5,1.7,1.7c0,0.2,0,0.4,0,0.6c0,8.4,0.1,16.8,0.1,25.3c0,5.8,0.1,11.5,0.1,17.3
			c0,1.5-0.1,1.7-1.7,1.6c-11.4-0.2-22.9-0.4-34.3-0.6C232.7,210.1,232.7,210.1,232.7,210z"/>
		<path class="st0" d="M302.6,171.6c0,2.1-0.5,4.7-1.2,7.3c-0.6,2.1-2,3.7-4,4.7c-2.2,1.1-4.8,0.2-6.3-2.1c-1.5-2.3-2.1-4.9-2.1-7.5
			c-0.1-2.5,0.2-5,1.2-7.4c1-2.3,2.6-4,5.1-4.5c3.5-0.7,6.3,1.2,7,4.8C302.6,168.2,302.6,169.6,302.6,171.6z"/>
		<path class="st4" d="M255.6,104.9c-0.2,0.5,0.5,1.3-0.2,1.6c-0.9,0.4-1.9,0.6-2.8,0.4c-0.6-0.1-0.7-0.7-0.8-1.2
			c-0.4-1.8-0.8-3.7-1.2-5.5c-0.5-1.9-1.8-3-3.6-3.1c-2.1-0.1-3.5,0.7-4.3,2.7c-0.8,1.9-1.2,3.8-1.7,5.8c-0.3,1-2.4,1.7-3.2,1.1
			c-0.3-0.2-0.2-0.5-0.2-0.7c0.3-3.1,0.8-6.1,2.4-8.8c2.6-4.3,8.8-5.2,12-1.6c2.1,2.4,3.3,5.2,3.6,8.4
			C255.6,104.2,255.6,104.5,255.6,104.9z"/>
		<path class="st4" d="M265.9,92.6c-4.3,0-6.4-2-6.4-6.2c0-4,2.5-6.4,6.6-6.4c3.8,0,6.3,2.7,6.2,6.7C272.4,90.5,270,92.7,265.9,92.6
			z"/>
		<path class="st4" d="M226,92.6c-4.2,0-6.3-2.1-6.3-6.3c0-3.9,2.7-6.3,6.9-6.3c3.7,0,6,2.7,6,6.9C232.5,90.6,230.2,92.7,226,92.6z"
			/>
		<path class="st2" d="M215.9,165.8c2.5-0.1,5-0.2,7.6,0c2.3,0.2,3.4,1.5,3.2,3.8c-0.1,1.9,0,2,1.9,2c0.7,0,1.1,0.2,1.5,0.8
			c0.9,1.6,1.7,3.2,2.6,4.8c0.6,1.1,0.4,1.9-0.7,2.5c-0.6,0.4-1.2,0.8-1.8,1.2c-0.6,0.5-0.6,1.1,0.1,1.5c0.7,0.4,1.5,0.8,2.2,1.2
			c0.7,0.3,0.9,0.8,0.6,1.5c-0.6,1.5-1.2,3-1.8,4.6c-0.2,0.5-0.6,0.8-1.1,1c-0.6,0.2-1.1,0.4-1.7,0.5c-1.8,0.6-2,1-0.6,2.3
			c0.4,0.4,0.6,0.7,0.2,1.3c-1.3,1.8-3.3,2.6-5.2,3.6c-0.6,0.3-1.1-0.4-1.6-0.8c-0.4-0.4-0.8-1-1.5-0.8c-0.7,0.2-0.7,0.9-0.7,1.5
			c0,1-0.6,1.5-1.5,1.7c-1.7,0.2-3.4,0.2-5,0.1c-1.4-0.2-2-1.1-2.3-2.3c-0.5-2.3-0.8-2.5-2.8-1.3c-1,0.6-1.7,0.6-2.5-0.2
			c-0.8-0.7-1.7-1.4-2.6-2c-0.8-0.5-1-1.2-0.9-2.2c0.3-1.7,0.1-2-1.6-2c-1.2,0-1.5-0.4-1.5-1.6c0.1-4.2,0.1-8.3,0-12.5
			c0-1.9,0.8-3.3,1.9-4.6c0.6-0.7,1.3-0.5,1.9,0c0.7,0.5,1.6,1.2,2.4,0.6c0.8-0.6,0.5-1.8,0-2.6c-0.7-1.4-0.1-2,1-2.7
			c1.3-0.8,2.6-1.1,4.1-1C211.8,165.8,213.9,165.8,215.9,165.8z"/>
		<path class="st2" d="M235.8,166.1c1.2,0,2.4,0,3.7-0.1c0.9,0,1,0.3,0.9,1.1c-0.7,4.3,1,7.8,3.7,10.8c2.8,3.2,6.6,3.3,10.4,2.3
			c4.8-1.3,7.4-4.9,7.5-9.8c0-0.8,0.1-1.6,0-2.4c-0.1-1.1,0.3-1.6,1.4-1.6c0.7,0,1.4,0.1,2.1,0.1c0.6,0,0.7,0.4,0.8,1
			c0.2,2.7,0.3,5.4,0.1,8.1c-0.1,1.1-0.6,2-1.1,2.9c-0.3,0.6-0.8,0.5-1.3,0.4c-1.1-0.2-1.6,0.4-1.4,1.3c0.6,2.4-0.7,3.5-2.6,4.3
			c-1.1,0.5-2.1,1.1-3.1,1.7c-0.9,0.5-1.6,0.6-2.4-0.2c-0.2-0.2-0.5-0.4-0.8-0.6c-1.2-0.9-1.6-0.8-2.1,0.6c-0.4,1.1-1.1,1.4-2.1,1.1
			c-1.9-0.4-3.7-0.7-5.6-1c-1-0.2-1.6-0.7-1.5-1.8c0-0.7,0-1.3-0.1-2c-0.1-1-0.7-1.2-1.6-0.8c-2.6,1.2-2.8,1.1-4.3-1.4
			c-0.4-0.6-0.7-1.3-1.1-2c-0.6-1.2-0.9-2.2-0.1-3.5c0.8-1.2,0.4-1.5-1.4-2.1c0.8-0.7,0.9-1.7,0.9-2.7
			C234.7,168.4,235,167.2,235.8,166.1z"/>
		<path class="st2" d="M241.9,188.8c0.5,0.5,1,1,1.6,1.5c0.7,0.6,1.1,0.5,1.6-0.3c0.9-1.7,1-1.8,2.8-1.1c1.8,0.7,3.6,1.2,5.3,2.3
			c0.9,0.5,1,1.1,0.9,2c-0.1,0.4-0.2,0.9-0.2,1.4c0,1.2,0.4,1.5,1.6,1.2c1.6-0.4,2.1-0.2,3,1.2c1,1.5,1.2,3.2,1.5,4.9
			c0.1,0.6-0.3,0.9-0.7,1.3c-1.3,1.2-1.2,1.6,0.4,2.5c0.3,0.2,0.7,0.3,1,0.6c0.4,0.4,0.5,0.9,0.4,1.5c-0.1,0.5-0.5,0.7-0.9,0.7
			c-1.9,0-3.8,0-5.7,0c0.9-7-4-12.3-11-12.7c-5.8-0.3-11.2,5.2-10.6,10.6c0.1,1.3-0.2,1.8-1.6,1.6c-1.6-0.1-3.2,0-4.8,0
			c-0.4,0-1.1,0.3-1.2-0.5c-0.1-0.7,0-1.3,0.7-1.7c0.2-0.1,0.3-0.2,0.5-0.2c0.5-0.1,0.9-0.4,1-0.9c0.1-0.6-0.4-0.9-0.8-1.1
			c-1.2-0.5-1.2-1.3-0.5-2.2c0.4-0.6,0.8-1.3,1.2-1.9c1-1.8,2.4-2.8,4.5-2.5c0.9,0.1,1.5-0.2,1.2-1.3c2.3-1.2,4.3-2.9,6.8-3.6
			C241.2,191.3,241.8,190.3,241.9,188.8z"/>
		<path class="st4" d="M224.9,199.4c-0.3,0.8-0.6,1.4-0.9,2c-0.3,0.7-0.4,1.4,0,2.2c0.5,1-0.4,1.8-0.4,2.7c0,1.4-1.1,1.3-2,1.3
			c-6.3,0-12.5,0-18.8,0.1c-1.1,0-2.3,0-3.4,0c-0.5,0-1-0.1-1-0.8c0-4.7,0.1-9.3,0.1-14c0-0.6-0.1-1.2,0.8-1.1
			c0.8,0.1,0.4,0.6,0.4,1c-0.1,1,0.3,1.7,1.1,2.3c1.5,1,2.9,2,4.2,3.2c0.7,0.7,1.5,0.6,2.3,0c0.8-0.6,1.4-0.8,1.6,0.6
			c0.2,1.6,1.4,2.3,2.9,2.6c2.4,0.4,5,0.5,7.2-0.4c1.5-0.6,2.7-1.1,4.2-0.9C223.7,200.2,224.2,199.8,224.9,199.4z"/>
		<path class="st4" d="M255.6,193.8c0.7-2.2-0.4-3.4-2.2-4.2c-0.6-0.2-1.1-0.6-0.7-1.4c0.3-0.7,0.5-1.3,1.4-0.5c0.9,0.8,2,0.7,3,0.2
			c2.2-1.1,4.3-2.3,6.4-3.6c0.9-0.5,1.2-1.4,0.8-2.4c-0.1-0.4-0.2-0.8,0.3-1c0.6-0.2,1.1-0.5,1.7-0.4c0.3,0,0.2,0.7,0.2,1
			c0,7.4,0,14.7,0,22.1c0,1.3,0,2.6,0,3.9c0,0.7-0.2,0.9-0.9,0.9c-0.2,0-0.3,0-0.5,0c-2.2,0-2.2,0-2.6-2.1c-0.1-0.8-0.7-1.2-1.2-1.7
			c-0.4-0.3-0.6-0.5-0.1-0.9c0.4-0.3,0.5-0.7,0.4-1.1c-0.5-2.6-0.7-5.3-2.7-7.4C257.7,193.8,257.3,193.5,255.6,193.8z"/>
		<path class="st2" d="M242.4,166.4c0.6-0.5,1.2-0.2,1.8-0.2c1.9,0,3.8,0,5.9,0c-0.5,0.7-1,1.2-1.4,1.7c-1.3,1.8-1.2,3.4,0.2,4.7
			c1.3,1.2,3.3,1.3,4.6,0.1c1.5-1.3,1.7-3.3,0.4-5c-0.3-0.4-0.7-0.8-1.2-1.3c2.2,0,4.4,0,6.5,0c0.8,0,1,0.7,1.1,1.3
			c1.5,6.1-3.7,12.1-10,11.5c-2.4-1.4-4.5-3.2-6.1-5.5c-1.2-1.7-1.3-3.6-1-5.6C243.5,167.2,243.3,166.6,242.4,166.4z"/>
		<path class="st2" d="M242.9,197.2c5.6-0.3,10.5,4.3,10.1,9.4c-0.1,1.1-0.5,1.7-1.7,1.5c-1-0.1-2.1-0.1-3.2,0
			c-0.9,0-1.1-0.3-0.9-1.1c0.3-1.3,0.1-2.4-1.1-3.2c-1.1-0.8-2.3-1.3-3.7-0.7c-1.4,0.7-2.1,2-2.1,3.5c0,1.1-0.3,1.4-1.4,1.3
			c-1.1-0.1-2.2,0.1-3.3-0.1c0.5-1.1,0.6-2.2,0.8-3.4c0.4-3.1,1.9-5.4,4.9-6.4C242,197.8,242.5,197.5,242.9,197.2z"/>
		<path class="st4" d="M233,190.4c0.7-1.8,1.3-3.3,1.6-4.9c0.5-2,0.3-2.3-1.5-3.2c-0.3-0.2-0.7-0.3-0.9-0.6c0,0,0-0.1,0.1-0.1
			c1.9-1.6,1.9-1.5,3.6,0.2c0.4,0.4,0.8,0.8,1.2,1.3c0.9,1,1.9,1.3,3,0.6c0.7-0.4,0.9-0.2,0.9,0.5c0,0.2,0,0.3,0,0.5
			c-0.1,0.7,0.7,1.4,0.1,2c-0.5,0.5-1.3,0.6-1.9,0.9C237.2,188.5,235.2,189.4,233,190.4z"/>
		<path class="st1" d="M241.9,188.8c0.4,1.6,0.2,2.4-1.3,2.9c-2.4,0.8-4.3,2.2-6.5,3.3c-0.4,0.2-0.8,0.5-1.3,0.4
			c-0.8-1.2-0.4-2.2,0.6-3.1c2.1-1.9,4.7-2.8,7.3-3.7C241.1,188.5,241.6,188.4,241.9,188.8z"/>
		<path class="st1" d="M242.9,197.2c-0.1,0.7-0.6,1-1.2,1.2c-3.5,1.1-4.7,3.7-4.9,6.8c-0.1,1,0,2-1.1,2.6c-1.1,0.2-1.5-0.3-1.7-1.4
			C233.7,201.5,237.9,197,242.9,197.2z"/>
		<path class="st1" d="M242.4,166.4c0.3,0,0.7,0,1,0c0.6,0,0.6,0.2,0.5,0.7c-1,4.2,0.7,7.3,3.9,9.9c0.9,0.7,1.9,1.3,2.6,2.3
			c-1.8,0-3.5-0.5-4.8-1.8c-2.5-2.4-3.9-5.3-4-8.8C241.7,167.8,241.7,166.9,242.4,166.4z"/>
		<path class="st4" d="M203.5,165.9c-1.4,1.3-1.1,2.6-0.4,3.9c-1,0-1.6-0.9-2.5-0.5c-0.8,0.3-1.3,1.1-2.2,1.5c0-1.5,0-2.9,0-4.3
			c0-0.5,0.3-0.7,0.7-0.6C200.5,165.9,201.9,165.9,203.5,165.9z"/>
		<path class="st1" d="M235.8,166.1c-0.4,1.7-0.9,3.3-0.8,5.1c0.1,0.7-0.4,1.3-1.3,1.3c-1.1-0.1-1.5-0.7-1.4-1.8
			c0.1-0.5,0.1-1.1,0.1-1.6C232.7,166.3,233.1,165.9,235.8,166.1z"/>
		<path class="st4" d="M229.3,165.9c0.1,0,0.3,0,0.4,0c1.8,0,1.9,0.1,1.5,1.9c-0.1,0.3-0.1,0.7-0.2,1c-0.1,1.1-0.4,1.8-1.8,1.4
			c-0.6-0.2-1.1-0.2-0.8-1c0.2-0.8-0.1-1.5-0.5-2.1c-0.6-0.8-0.5-1.2,0.6-1.1C228.8,165.9,229,165.9,229.3,165.9z"/>
		<path class="st4" d="M300.3,171.1c0,2-0.3,3.9-0.8,5.8c-0.4,1.5-1.1,2.8-2.3,3.8c-1.5,1.4-2.9,1.3-4.1-0.4
			c-1.1-1.5-1.4-3.3-1.8-5.1c-0.5-2.8,0.2-5.5,1.1-8.1c0.7-2.3,2.7-3.4,5-2.9c1.4,0.3,2.1,1.5,2.5,2.8
			C300.4,168.4,300.3,169.8,300.3,171.1z"/>
		<path class="st0" d="M215.7,192.9c-5.7,0-10.8-5.5-10.7-11.7c0-5.6,4.5-10.2,10-10.2c7.6,0,11.9,5,12.1,10.7
			C227.3,188.4,222.4,192.9,215.7,192.9z"/>
		<path class="st2" d="M215.1,172.6c3.7-0.3,7.8,2,9.5,5.4c1.5,2.9,0.8,7.8-1.4,10.3c-2.3,2.5-7.1,3.7-10.4,2.5
			c0.1-0.7-0.4-1.3-0.9-1.7c-3.6-3.4-3.7-7.5-2.2-11.8c0.5-1.6,1.7-2.6,3.2-3.4C213.7,173.5,214.4,173.1,215.1,172.6z"/>
		<path class="st1" d="M215.1,172.6c-0.2,0.5-0.5,0.9-1.1,1.1c-3.1,1.2-4.4,3.7-4.7,6.8c-0.4,3.4,0.6,6.3,3.2,8.6
			c0.4,0.4,1.4,0.9,0.3,1.7c-0.6-0.1-1.1-0.4-1.6-0.7c-3.2-2-5.4-7.5-4.5-11.2C207.7,175.3,211.4,172.5,215.1,172.6z"/>
		<path class="st0" d="M216.2,185.7c-2.1-0.1-3.7-1.7-3.7-3.7c0.1-1.9,1.9-3.8,3.7-3.7c1.9,0,3.5,1.7,3.4,3.6
			C219.7,184.2,218.2,185.7,216.2,185.7z"/>
	</g>
	<g>
		<path class="st0" d="M264.5,234.2c0,4.2,0,7.4-0.8,10.5c-1,3.7-2.7,7-6.1,8.9c-3.9,2.1-8.1,2-12.2,0.5c-1.4-0.5-2.3-1.6-3.2-2.8
			c-0.6-0.8-1.3-1.2-2.3-1.3c-9.7-0.4-19.3-1.7-28.9-3.4c-11.3-2-22.4-4.8-33.7-7.1c-1-0.2-2-0.3-3-0.6c-2-0.5-3.3-1.8-3.9-3.8
			c-1.5-5.7-1.6-11.4-0.2-17.1c0.9-3.6,3.5-5.8,6.3-8c0.6-0.5,1.3-0.1,1.9,0.1c9.7,3,19.2,6.6,28.7,10.2c11,4.1,22,8.2,33,12.3
			c0.9,0.4,1.2,0.3,1.4-0.8c1.4-7.3,4.7-13.7,8.4-20c1-1.6,2.6-2.6,4.3-3.3c1.7-0.6,3.2-0.1,4.5,1.1c1.8,1.7,2.7,3.8,3.3,6.1
			C263.7,222.3,264.4,228.7,264.5,234.2z"/>
		<path class="st0" d="M360.4,235.5c-5.6,0-10.7-0.9-15.2-3.8c-2.1-1.3-4.6-1.3-6.9-1.6c-13.4-1.7-26.8-3.2-40.2-4.7
			c-2.8-0.3-5.5-0.6-8.3-0.8c-2.2-0.2-3.8-1.2-4.7-3.2c-1.3-2.8-1.9-5.7-1.6-8.7c0.3-3.2,0.4-6.4,2-9.3c1.6-2.9,3.1-3.7,6.4-3
			c14.8,2.9,29.5,5.6,44.1,9.6c3,0.8,5.9,1.5,8.9,2.3c1.7,0.4,3.1,0,4.3-1.2c6.1-6.1,13.5-7.3,21.7-6.2c1.5,0.2,2,0.8,1.9,2.3
			c-0.2,2.8-0.9,5.5-1.5,8.2c-0.2,0.9-1,1.2-1.8,1.3c-2,0.2-4,0.4-6,0.7c-2.6,0.4-4.1,1.9-4.3,4.2c-0.2,1.5,0.5,2.3,2,2.4
			c2.5,0.2,5,0.3,7.6,0.4c1.1,0,1.5,0.6,1.4,1.6c-0.3,2.5-0.7,4.9-1.2,7.3c-0.2,1-1,1.4-1.9,1.7
			C364.6,235.5,362.3,235.5,360.4,235.5z"/>
		<path class="st0" d="M283.1,300.3c-3.5,0-6.9-0.1-10.4,0c-8.7,0.2-17.4-0.1-26.1-0.5c-1.8-0.1-3.5-0.2-5.3-0.4
			c-0.8-0.1-1.4,0.1-1.7,0.8c-3.3,7.2-9.4,8.9-16.6,8.1c-2.1-0.2-4.2-0.5-6.3-0.7c-0.8-0.1-1.4-0.4-1.4-1.3c-0.1-3-0.4-6-0.3-9
			c0.1-1.6,0.3-1.9,2-1.8c1.7,0.1,3.4,0.2,5.2,0.4c0.5,0,1,0.1,1.5,0.1c1.7,0,2.6-0.5,2.9-1.7c0.4-1.7-0.2-3.3-1.7-3.9
			c-2.5-1-5-2.2-7.8-2.2c-1.3,0-1.8-0.6-1.9-1.9c-0.1-2.8-0.1-5.6-0.1-8.3c0-0.9,0.5-1.5,1.4-1.7c8.6-1.9,16.2,0.7,21,8.1
			c0.8,1.2,1.8,1.7,3.3,1.5c7.8-1,15.7-2,23.5-3c7.5-0.9,14.9-1.8,22.4-2.7c2.2-0.3,4.3-0.6,6.5-0.6c1.5,0,2.5,0.6,3.1,2
			c2.3,5.8,1.6,11.5-0.3,17.1c-0.4,1.1-1.4,1.5-2.5,1.5C290.2,300.3,286.6,300.3,283.1,300.3z"/>
		<path class="st0" d="M146.4,196.3c0.1-3.7,0.4-6.5,0.9-9.4c0.3-1.5,1.1-2.4,2.6-2.7c1.4-0.2,2.9-0.3,4.3-0.2
			c2,0.2,3.4,1.6,3.7,3.6c0.2,1.3,0.7,1.6,2,1.7c4.9,0.4,9.9,1,14.8,1.5c1.6,0.2,2,0.6,2.3,2.2c0.5,3.4-0.1,6.7-0.8,10
			c-0.2,1.1-1.2,1.2-2.1,1.1c-4.9-0.5-9.8-0.9-14.7-1.6c-0.4-0.1-0.8-0.1-1.1-0.2c-0.8-0.3-1.1,0-1.1,0.8c0,0.3-0.1,0.7-0.2,1
			c-0.5,2.2-1.6,2.9-3.8,2.7c-0.7-0.1-1.4-0.3-2.1-0.3c-2.1-0.1-3.1-1.4-3.6-3.3C146.6,200.8,146.3,198.2,146.4,196.3z"/>
		<path class="st0" d="M329,187.6c2.9,0,5.3,0,7.8,0c1.1,0,1.6-0.3,1.6-1.5c0-2.9,1-3.9,3.9-4c1.3-0.1,2.5-0.1,3.8-0.1
			c1.3,0,2,0.6,2.3,1.8c0.7,2.7,0.8,5.6,1.2,8.4c0.3,2.3,0.4,4.6,0.6,6.9c0.3,3-0.5,4-3.4,4.8c-0.8,0.2-1.7,0.3-2.5,0.3
			c-2.3,0-3-0.6-3.6-2.7c-0.5-1.5-0.9-1.7-2.5-1.6c-3.9,0.4-7.8,1.1-11.8,0.4c-2.1-0.3-2.7-0.8-3.1-2.8c-0.4-2.3-1-4.5-0.9-6.9
			c0.1-1.6,0.7-2.4,2.3-2.6C326.2,187.7,327.8,187.7,329,187.6z"/>
		<path class="st2" d="M262.2,234.3c0,3.4-0.1,6.1-0.5,8.8c-0.3,1.9-1,3.6-2,5.1c-1.3,2-3.9,1.8-5.1-0.5c-1.4-2.7-2.3-5.6-2.4-8.7
			c-0.3-6.4,0.2-12.7,2-18.8c0.6-2.1,1.5-4,2.9-5.7c1-1.3,1.8-1.2,2.4,0.4c1.2,3.6,1.7,7.4,2.2,11.1
			C262.1,228.9,262.3,232,262.2,234.3z"/>
		<path class="st5" d="M252.9,217.2c-1.2,3.9-2.3,7.9-2.7,12c-0.5,5.6-0.4,11.2,1.2,16.7c0.8,2.5,1.9,4.8,4.7,5.7
			c-3.1,1.8-8.5,1.6-10.9-0.2c-0.4-0.3-0.8-0.6-1-1.1c0.3-1.4-0.2-2.7-0.2-4c-0.3-4.9-0.8-9.9,0.6-14.6c1.5-4.9,3.4-9.8,7-13.7
			C251.9,217.6,252.2,217,252.9,217.2z"/>
		<path class="st2" d="M181.5,219.4c-2,6-2.1,12.1-0.7,18.5c-2.3-0.5-4.4-0.9-6.5-1.4c-1-0.2-1.4-1-1.7-1.9
			c-1.4-4.3-1.3-8.8-0.8-13.2c0.2-2.1,0.8-4,2.2-5.7c0.8,0.1,1.5,0.6,2.2,1C177.9,217.6,179.8,218.3,181.5,219.4z"/>
		<path class="st2" d="M201.8,226c-0.9,4.7-0.9,8.9,1.2,16.6c-1,0.1-2-0.3-2.9-0.5c-1.8-0.3-3.5-0.7-5.3-1.1c-0.9-0.2-1.7-0.6-2-1.5
			c-1.6-5.3-1.7-10.6,0.2-15.8c0.4-0.3,0.9-0.2,1.3-0.1c1.9,0.4,3.8,0.9,5.5,1.7C200.4,225.7,201.1,225.7,201.8,226z"/>
		<path class="st2" d="M191.4,223.2c-1.7,5.6-1.8,11.2,0,16.9c-1.1,0.1-1.9-0.3-2.8-0.5c-1.3-0.3-2.5-0.6-3.8-0.8
			c-1.8-0.4-2.5-0.9-2.8-2.7c-0.6-3.6-0.8-7.2-0.2-10.8c0.3-1.7,0.5-3.3,1.2-4.9c0.2-0.2,0.5-0.2,0.7-0.1c2.3,0.7,4.6,1.3,6.8,2.1
			C190.8,222.6,191.2,222.8,191.4,223.2z"/>
		<path class="st2" d="M211.6,229.6c-0.7,4.8,0.3,9.4,1.4,13.9c0.2,1,0,1.2-0.9,1c-2-0.4-4-0.7-5.9-1.1c-0.9-0.2-1.5-0.7-1.7-1.5
			c-1.6-5-2.4-10-1.3-15.3c0-0.1,0.1-0.1,0.1-0.2C205.9,227.9,208.6,229.1,211.6,229.6z"/>
		<path class="st2" d="M222.7,232.8c-0.5,4.1-0.1,8.2,0.5,12.3c0.1,0.9,0,1.2-1,1c-2-0.4-4.1-0.7-6.1-1c-0.6-0.1-1.1-0.3-1.3-0.9
			c-1.7-4.8-2.4-9.8-1.7-14.9c0.5,0.7,1.3,1,2.1,1.2c1.9,0.5,3.8,1,5.6,1.7C221.5,232.7,222.1,232.6,222.7,232.8z"/>
		<path class="st2" d="M231.8,236.1c-0.2,3.5-0.1,7.1,0.7,10.5c0.1,0.6-0.1,0.6-0.6,0.6c-2-0.2-3.9-0.5-5.9-0.7
			c-0.8-0.1-1.1-0.7-1.3-1.4c-0.8-2.6-0.7-5.2-0.7-7.9c0-1.5-0.2-3,0.2-4.5c1.5,1.6,3.6,1.9,5.5,2.5
			C230.5,235.5,231.3,235.4,231.8,236.1z"/>
		<path class="st2" d="M252.9,217.2c-2.5,2.6-4.7,5.5-5.8,9c-0.7,2.2-2.2,4.2-2.4,6.6c-0.1,1.1-0.4,2.2-0.4,3.4
			c0.1,2.4-0.2,4.8,0,7.3c0.2,1.8,0.2,3.7,0.5,5.5c0.1,0.5,0.4,1.2-0.5,1.5c-1.4-1.7-1.6-3.8-1.7-5.8c-0.4-8.4,1.8-16.2,5.2-23.8
			c1.4-3.1,3-6,5.2-8.6c1.3-1.5,2.6-1.7,4.3-0.6C255,212.9,253.9,215,252.9,217.2z"/>
		<path class="st2" d="M240.7,237.1c-0.4,3.3-0.3,6.5-0.2,9.8c0,0.7-0.2,0.9-0.8,0.8c-1.4-0.1-2.8-0.2-4.3-0.3
			c-0.6,0-1.1-0.2-1.3-0.8c-0.8-3.4-1.3-6.8-0.7-10.2c1.1-0.3,2.1,0.2,3.2,0.3C237.9,236.9,239.3,237.4,240.7,237.1z"/>
		<path class="st1" d="M191.4,223.2c-2.8-0.9-5.7-1.8-8.5-2.8c0.3-1.7,1.1-3.2,1.8-4.7c0.4-0.7,0.9-1,1.8-0.7
			c2.2,0.8,4.4,1.6,6.6,2.4c0.5,0.2,0.8,0.4,0.4,1C192.6,219.9,192,221.6,191.4,223.2z"/>
		<path class="st1" d="M222.7,232.8c-0.6,0.4-1.2,0.3-1.8,0.1c-2.2-0.9-4.4-1.4-6.7-2.1c-0.8-0.2-1.1-0.6-1.1-1.4
			c0.1-1.4,0.7-2.7,1-4c0.1-0.5,0.4-0.4,0.7-0.3c2.7,1,5.4,2.1,8.1,3.1c0.5,0.2,0.5,0.5,0.4,0.9
			C223.1,230.5,222.9,231.7,222.7,232.8z"/>
		<path class="st1" d="M201.8,226c-0.7,0.5-1.4,0-2-0.3c-2.2-1-4.5-1.5-6.9-2c0.3-1.8,1.2-3.4,1.9-5.1c0.2-0.4,0.4-0.4,0.8-0.3
			c2.4,0.9,4.9,1.8,7.3,2.6c0.6,0.2,0.6,0.5,0.4,0.9C202.6,223.1,202.2,224.6,201.8,226z"/>
		<path class="st1" d="M211.6,229.6c-0.2,0.2-0.3,0.5-0.8,0.4c-2.4-0.7-4.6-1.6-6.9-2.6c-0.4-0.2-0.6-0.5-0.6-0.9
			c0.2-1.4,0.7-2.7,1.2-3.9c0.3-0.6,0.7-0.8,1.3-0.6c2.2,0.8,4.4,1.6,6.6,2.4c0.5,0.2,0.5,0.4,0.3,0.9
			C212.2,226.6,211.9,228.1,211.6,229.6z"/>
		<path class="st1" d="M181.5,219.4c-1.1-0.1-2-0.6-2.9-1.1c-1.5-0.9-3.3-1.4-4.7-2.7c0.6-1.1,1.6-1.9,2.6-2.7
			c0.5-0.4,1.1-0.5,1.8-0.3c1.6,0.4,3.2,0.9,4.9,1.3c0.6,0.2,0.7,0.4,0.4,0.9C182.9,216.4,182.2,217.9,181.5,219.4z"/>
		<path class="st1" d="M231.8,236.1c-2.2-0.5-4.4-1.1-6.6-2c-0.7-0.3-1-0.7-1-1.4c0-1.2,0.4-2.4,0.6-3.7c2.4,0.9,4.8,1.9,7.2,2.8
			c0.5,0.2,0.4,0.5,0.3,0.9C232.2,233.9,232,235,231.8,236.1z"/>
		<path class="st1" d="M240.7,237.1c-0.3,0.5-0.8,0.6-1.3,0.5c-2-0.5-4-0.6-6-1.3c0.1-3.8,0.2-3.9,3.7-2.6c0.7,0.3,1.4,0.6,2.1,0.8
			C240.5,235,241,235.8,240.7,237.1z"/>
		<path class="st2" d="M370.3,207.8c-0.1,1.9-0.7,3.7-1,5.6c-0.1,0.8-0.8,0.9-1.5,1c-1.9,0.2-3.9,0.3-5.7,0.8
			c-3.6,0.9-5.8,4.1-5.1,7.6c0.3,1.9,1.4,3,3.3,3.2c2.1,0.3,4.3,0.4,6.4,0.5c0.9,0,1.1,0.3,0.9,1.1c-0.3,1.3-0.5,2.6-0.7,3.8
			c-0.1,0.7-0.4,1.3-1.2,1.4c-6.4,1-12.6,0.4-18.4-2.6c-0.9-0.5-1.1-0.9-0.6-1.8c1.8-3.4,2.7-7,2.5-10.8c0-0.7-0.2-1.5-0.3-2.2
			c1.5-1.5,3.2-3,5.2-3.8c4.4-2,9.1-3.2,13.9-4C368.7,207.4,369.6,207.1,370.3,207.8z"/>
		<path class="st2" d="M318.7,210.6c-0.5,4.6-1,9.2-1.4,13.8c-0.1,0.7-0.3,0.8-0.9,0.7c-2.2-0.2-4.4-0.4-6.7-0.6
			c-1-0.1-1.7-0.5-2-1.6c-1.3-4.8-1.2-9.6,0.2-14.4c3.2,0.5,6.5,1.1,9.7,1.6C318,210.2,318.4,210.3,318.7,210.6z"/>
		<path class="st2" d="M306.2,208.8c-0.2,1.2-0.3,2.5-0.5,3.7c-0.5,3.9-0.2,7.8,1,11.7c-2.9-0.4-5.6-0.8-8.3-1.2
			c-0.6-0.1-0.9-0.6-1.2-1.1c-1.2-2-1.7-4.1-1.7-6.4c0-2.9-0.1-5.8,0.9-8.6c0.3-0.2,0.6-0.2,1-0.2c2.6,0.3,5.1,0.5,7.6,1.2
			C305.4,208.2,305.9,208.4,306.2,208.8z"/>
		<path class="st2" d="M294.8,206.6c-0.2,1.9-0.7,3.8-0.8,5.7c-0.2,3.3,0.2,6.4,1.3,9.5c0.1,0.3,0.2,0.5,0.3,0.9
			c-2.3-0.2-4.4-0.3-6.6-0.8c-0.9-0.2-1.4-1-1.8-1.7c-1-1.7-1.4-3.6-1.4-5.5c0-2.7,0.1-5.5,0.7-8.1c0.3-1.2,0.7-2.2,1.5-3.1
			c1.7,1.1,3.7,1.3,5.4,2.2C293.9,205.9,294.5,206.1,294.8,206.6z"/>
		<path class="st2" d="M328.9,211.3c0.5,1.9,0.2,3.8-0.1,5.7c-0.4,2.7-1.2,5.3-2,7.9c-0.3,0.9-0.8,1.3-1.8,1.1
			c-1.8-0.3-3.6-0.4-5.4-0.6c-0.5-0.1-1-0.1-0.9-0.8c0.5-4.6,1-9.2,1.5-13.7c0.5-0.5,1.2-0.3,1.8-0.3c1.7,0.2,3.3,0.8,5,1
			C327.8,211.7,328.4,211.7,328.9,211.3z"/>
		<path class="st2" d="M338.5,213.6c0.6,3.7-0.3,7.3-1.6,10.7c-1.2,3.1-1.3,3.1-4.6,2.8c-1.4-0.1-2.8-0.4-4.4-0.6
			c1.3-4.5,2.7-8.9,2.8-13.6c0.4-0.4,0.9-0.3,1.4-0.2C334.3,212.9,336.4,213.3,338.5,213.6z"/>
		<path class="st2" d="M346.8,218.8c0.2,2.9-0.6,5.6-1.9,8.2c-0.5,1-1.2,1.5-2.4,1.3c-1.4-0.2-2.9-0.4-4.4-0.6
			c-0.9-0.1-1.1-0.4-0.7-1.3c1.7-3.4,2.7-7,2.6-10.9c-0.1-2.3,0-2.4,2.3-1.8c0.8,0.2,1.5,0.4,2.3,0.5c1.4,0.2,2,1.1,2,2.4
			C346.9,217.4,346.8,218.1,346.8,218.8z"/>
		<path class="st1" d="M370.3,207.8c-2.1-0.2-4.1,0.5-6.2,0.9c-3.3,0.7-6.5,1.8-9.7,3.1c-1.4,0.6-2.5,1.4-3.6,2.3
			c-0.6,0.5-1.3,1-2,1.3c-0.2-1,0.4-1.6,1-2.2c4.2-4.4,9.5-6.3,15.5-6.6c1.3,0,2.7,0,4,0.1C370,206.9,370.4,207.1,370.3,207.8z"/>
		<path class="st1" d="M306.2,208.8c-2.8-0.8-5.7-1.2-8.6-1.5c-0.4,0-0.8-0.2-1.2-0.2c0-1,0.5-1.8,0.9-2.6c0.3-0.6,0.8-0.9,1.5-0.7
			c2.5,0.5,5.1,1,7.6,1.5c0.6,0.1,0.7,0.3,0.6,0.8C306.6,207,306.4,207.9,306.2,208.8z"/>
		<path class="st1" d="M318.7,210.6c-2.6,0-5-0.8-7.5-1.1c-0.9-0.1-1.7-0.3-2.6-0.4c-0.4,0-0.6-0.2-0.7-0.6c0.1-0.5,0.2-1,0.3-1.5
			c0.2-1,0.8-1.3,1.8-1.1c2.6,0.6,5.2,1.1,7.8,1.6c1.1,0.2,1.4,0.6,1.1,1.7C318.8,209.7,318.8,210.1,318.7,210.6z"/>
		<path class="st1" d="M294.8,206.6c-2-0.7-4-1.4-6-2.1c-0.4-0.2-0.8-0.4-0.9-1c0.6-1.1,1.5-1.5,2.7-1.3c1.5,0.3,3,0.6,4.6,0.8
			c0.6,0.1,0.7,0.3,0.5,0.8C295.4,204.7,295.1,205.7,294.8,206.6z"/>
		<path class="st1" d="M328.9,211.3c0,0.8-0.3,1-1.1,0.9c-2.5-0.4-4.9-1.3-7.5-1.3c0-2.6,0-2.6,2.5-2c1.7,0.4,3.3,0.9,5,1.2
			C328.5,210.2,328.9,210.6,328.9,211.3z"/>
		<path class="st1" d="M338.5,213.6c-1.2,0.7-2.4,0-3.5-0.1c-1.5-0.1-2.9-0.4-4.3-0.6c-0.2-2.3-0.2-2.3,1.9-1.7
			c1.6,0.5,3.3,0.9,4.9,1.4C338.1,212.7,338.6,212.9,338.5,213.6z"/>
		<path class="st2" d="M228.6,295.8c1.1-4.1,0-6.5-4-8.3c-2-0.9-4-1.4-6.2-1.6c-0.6,0-1-0.2-1-0.8c0-2.1,0-4.3,0-6.4
			c0-0.1,0.1-0.2,0.2-0.3c0.6,0.6,0.3,1.4,0.4,2.2c0,0.7,0.3,1,1,0.8c3-0.8,6-0.7,9-0.6c1.7,0,3,1,4.4,1.6c0.3,0.1,0.5,0.3,0.8,0.3
			c2.4,1.9,3.7,4.4,4.4,7.3c1,3.7,0.9,7.3-0.9,10.8c-1.7,3.1-4.3,4.8-7.8,5.2c-3.5,0.4-7-0.2-10.4-0.3c-0.8,0-1.2-0.5-1.1-1.3
			c0.1-1.2,0-2.4,0-3.7c0.5-0.2,0.9,0,1.3,0.1c1.9,0.5,3.8,0.8,5.8,0.3c1.6-0.4,2.8-1.3,3.3-3C228.2,297.3,228.5,296.6,228.6,295.8z
			"/>
		<path class="st2" d="M285.9,284.9c0.9,3.5,0.4,7-0.4,10.5c-0.7,3.1-0.4,2.8-3.5,2.8c-2.1,0-4.2,0-6.3,0c-0.5,0-0.9,0-0.7-0.7
			c1.4-3.7,1.2-7.4,0.6-11.2c0.4-0.5,0.9-0.5,1.5-0.6c2.3-0.4,4.6-0.7,6.9-1C284.8,284.5,285.4,284.4,285.9,284.9z"/>
		<path class="st2" d="M294.8,283.1c1,1.9,0.9,3.9,0.9,5.9c0,2.6-0.2,5.1-1.1,7.6c-0.4,1-0.8,1.5-2,1.5c-2-0.1-4,0-6.2,0
			c1.2-4.5,1.7-9,1-13.6c1-0.7,2.3-0.5,3.4-0.7C292.2,283.5,293.5,283.4,294.8,283.1z"/>
		<path class="st2" d="M274.1,285.9c0.8,3.7,0.9,7.5-0.3,11.1c-0.3,0.9-0.9,1.3-1.8,1.2c-1.9-0.1-3.9-0.1-5.8-0.1
			c-0.9,0-1-0.4-0.9-1.1c0.4-3,0.5-6.1,0-9.1c1.4-0.9,3.1-0.8,4.7-1.1C271.3,286.5,272.8,286.5,274.1,285.9z"/>
		<path class="st2" d="M263.7,288.1c0.8,3,0.6,6-0.2,8.9c-0.1,0.6-0.5,0.9-1.2,0.9c-2.2,0-4.4,0-6.8,0c0.7-2.8,1.1-5.5,1-8.3
			c0.1-0.2,0.3-0.5,0.5-0.5C259.4,288.8,261.5,288.1,263.7,288.1z"/>
		<path class="st2" d="M255.1,290c0.3,2.4-0.2,4.8-0.8,7.1c-0.1,0.5-0.4,0.6-0.8,0.6c-1.7,0-3.5,0-5.2,0c-0.5,0-0.7-0.2-0.7-0.7
			c0-3.1,0-6.2,0-9.3c0-0.1,0.1-0.1,0.2-0.2c0.5,0.5,0.4,1.2,0.4,1.8c0.1,1.4,0.1,1.5,1.5,1.3c1.3-0.2,2.5-0.5,3.8-0.7
			C254,289.7,254.6,289.5,255.1,290z"/>
		<path class="st1" d="M233.4,282.7c-1.1,0.2-2-0.4-2.9-0.8c-0.9-0.5-1.8-0.8-2.9-0.7c-3.1,0-6.1-0.2-9.1,0.9
			c-0.7,0.2-0.8-0.1-0.8-0.7c0-1,0-1.9,0-2.9C223.6,277.3,229,278.2,233.4,282.7z"/>
		<path class="st1" d="M228.6,295.8c0.4,1.9-1.1,4.6-2.9,5.3c-2.8,1.1-5.5,0.6-8.2-0.5c-0.1-2.7-0.1-2.7,2.6-2.6
			c1.3,0.1,2.5,0.2,3.8,0.2C225.8,298.2,227.6,297.6,228.6,295.8z"/>
		<path class="st2" d="M246.2,291.7c0.2,1.6,0.2,3.2-0.1,4.9c-0.1,0.6-0.3,0.8-0.9,0.7c-1.3-0.1-2.5-0.2-3.8-0.2
			c-0.7,0-1.1-0.3-1.1-1.1c-0.1-1.6-0.1-3.2-0.2-4.8C242.2,291.3,244.2,291,246.2,291.7z"/>
		<path class="st1" d="M274.1,285.9c-0.1,0.3,0,0.7-0.5,0.8c-2.8,0.4-5.6,0.9-8.4,1.3c-0.8-3.1-0.8-3.1,2.3-3.5
			c1.4-0.2,2.7-0.4,4.1-0.5C273.8,283.7,273.9,283.8,274.1,285.9z"/>
		<path class="st1" d="M255.1,290c-2.1,0.4-4.2,0.7-6.2,1.2c-0.9,0.2-1-0.1-1-0.9c0-0.9,0-1.8,0-2.8c2-0.4,4-0.7,6.1-1.1
			c0.4-0.1,0.7,0,0.8,0.5C254.9,288,255.2,288.9,255.1,290z"/>
		<path class="st1" d="M285.9,284.9c-3,0.1-5.9,0.8-8.8,1.1c-0.5,0.1-0.9,0.1-1.4,0.2c0-0.1-0.1-0.1-0.1-0.2
			c-0.3-2.5-0.3-2.5,2.3-2.8c1.9-0.2,3.8-0.4,5.6-0.5C285.5,282.5,285.8,282.9,285.9,284.9z"/>
		<path class="st1" d="M263.7,288.1c-2,0.8-4.1,0.9-6.1,1.3c-0.3,0.1-0.6,0.2-1,0.2c-0.1-0.3-0.1-0.7-0.2-1c-0.4-2.7-0.4-2.7,2.3-3
			c0.9-0.1,1.8-0.2,2.7-0.4c1-0.2,1.5,0.1,1.8,1C263.4,286.9,263.6,287.5,263.7,288.1z"/>
		<path class="st1" d="M246.2,291.7c-2-0.1-4.1,0.3-6.1-0.5c-0.4-3.9-0.7-3,2.6-3.2c3.5-0.3,3-0.7,3.4,3.1
			C246.3,291.3,246.2,291.5,246.2,291.7z"/>
		<path class="st1" d="M294.8,283.1c-0.1,0.4-0.3,0.5-0.7,0.6c-2.2,0.2-4.4,0.7-6.6,0.7c-0.7-2.2-0.7-2.2,1.6-2.2
			c1.4-0.1,2.8-0.1,4.2-0.2C294.1,282,294.6,282.2,294.8,283.1z"/>
		<path class="st2" d="M155.5,192.7c-0.3,3.6-0.6,7.1-0.8,10.7c-0.1,1.1-0.7,1.4-1.7,1.4c-2.6,0-3.1-0.4-3.7-2.8
			c-1.1-4.1-0.8-8.2-0.1-12.4C152.3,189.2,154.3,190.2,155.5,192.7z"/>
		<path class="st2" d="M172.1,202c-1.7,0-1.7,0-1.6-1.8c0.2-2.2,0.3-4.4,0.3-6.5c0-0.7,0.1-1,1-0.9c2.8,0.4,2.8,0.4,2.6,3.2
			c-0.1,1.4-0.2,2.8-0.3,4.1C174,202,174,202,172.1,202z"/>
		<path class="st2" d="M165.1,193.8c-0.1,2.1-0.3,4.2-0.4,6.3c0,0.8-0.3,1-1.1,0.9c-2.3-0.2-2.6-0.5-2.3-2.8
			c0.2-1.8,0.3-3.5,0.4-5.3c0-0.9,0.2-1.4,1.3-1.1c0.2,0.1,0.4,0,0.6,0.1C165,192.1,165.2,192.3,165.1,193.8z"/>
		<path class="st2" d="M169.4,194.5c-0.1,1.9-0.4,3.9-0.4,5.8c0,1.2-0.6,1.2-1.5,1.2c-1,0-1.5-0.4-1.4-1.4c0.1-2,0.2-4,0.4-6
			c0.1-1.7,0.7-2,2.4-1.6c0.4,0.1,0.6,0.3,0.5,0.7C169.5,193.6,169.5,194.1,169.4,194.5C169.5,194.5,169.5,194.5,169.4,194.5z"/>
		<path class="st1" d="M155.5,192.7c-0.6-0.3-0.8-0.9-1.3-1.4c-1-1-2.2-1.4-3.5-1.4c-0.5,0-1.1,0.2-1.5-0.3c0-0.3,0-0.6,0-0.9
			c0.1-2.1,0.5-2.4,2.6-2.4c3.8,0.1,4.1,0.5,3.9,4.3C155.6,191.3,155.6,192,155.5,192.7z"/>
		<path class="st2" d="M160.1,193.2c-0.2,2.2-0.4,4.2-0.5,6.3c0,0.5-0.1,0.9-0.7,0.7c-0.6-0.2-1.6,0.2-1.6-0.8
			c0.1-2.5,0.3-4.9,0.4-7.4c0-0.7,0.6-0.6,1-0.6c0.6,0,1.2-0.1,1.3,0.8C160.2,192.6,160.1,193,160.1,193.2z"/>
		<path class="st2" d="M346.6,186.3c0.3,3,0.7,6.1,1,9.1c0.1,1.3,0.2,2.7,0.4,4c0.1,1.2-0.4,1.9-1.6,2.2c-0.5,0.1-0.9,0.2-1.4,0.3
			c-1.3,0.2-2.2-0.3-2.4-1.6c-0.6-3.1-1-6.1-1.5-9.2c0.8-0.2,0.6-1,0.7-1.6c0.5-2,0.5-2.1,2.6-2.5C345.2,187,346,187.1,346.6,186.3z
			"/>
		<path class="st1" d="M346.6,186.3c0,0.9-0.4,1.1-1.2,1.1c-0.7,0-1.5,0.1-2.2,0.3c-0.6,0.1-0.8,0.5-0.9,1.1
			c-0.1,0.8-0.3,1.6-0.5,2.4c0,0.2-0.2,0.4-0.3,0.6c-0.2-0.3-0.3-0.5-0.5-0.7c-0.2-1.6-0.4-3.2-0.6-4.8c-0.1-1.7,0.1-1.9,1.7-2
			c0.7-0.1,1.4-0.1,2.1-0.1C346.3,184.2,346.5,184.3,346.6,186.3z"/>
		<path class="st2" d="M324.4,192.3c0-1.9,0.4-2.3,1.5-2.3c0.5,0,0.9,0.2,1,0.8c0.3,1.9,0.7,3.8,1,5.7c0.1,0.5,0.6,1.2-0.2,1.4
			c-0.7,0.2-1.6,0.3-2.2-0.5c-0.2-0.2-0.3-0.5-0.4-0.8C324.9,195.1,324.6,193.4,324.4,192.3z"/>
		<path class="st2" d="M331.7,197.3c0,0.2,0.2,0.8-0.7,0.9c-0.8,0.1-1.2-0.2-1.3-0.9c-0.4-2.1-0.9-4.2-1.3-6.3
			c-0.1-0.6-0.3-1.3,0.8-1.3c0.9,0,1.8-0.3,2,1.1C331.3,192.9,331.5,194.9,331.7,197.3z"/>
		<path class="st2" d="M335.5,195.9c-0.1,0.8,0.4,1.8-0.8,2c-0.9,0.1-1.4,0-1.5-1.1c-0.1-1.9-0.4-3.8-0.6-5.7
			c-0.1-0.7-0.1-1.2,0.9-1.3c0.8,0,1.5,0,1.6,1.1C335.1,192.6,335.3,194.3,335.5,195.9z"/>
		<path class="st2" d="M338.4,197.4c-1,0.2-1.3-0.2-1.4-1.2c-0.1-1.8-0.3-3.7-0.5-5.5c-0.1-1.1,0.7-0.9,1.3-1c0.7-0.1,1,0.1,1.1,0.8
			c0.2,1.9,0.4,3.8,0.8,5.6C339.9,197.4,339.5,197.7,338.4,197.4z"/>
	</g>
	<path class="st0" d="M294.9,244.2c-1-1-2.8-1.3-3.8-0.3c-0.2,0.2-0.3,0.9-0.2,1.3c0.8,3.2,0.9,6.3,0.3,9.5c-0.1,0.7-0.3,1.3-0.5,2
		c-0.3,0.9-1,1.5-1.9,1.3c-0.6-0.2-1.5-0.8-1.6-1.3c-0.3-1.8-0.6-3.7-0.4-5.6c0.3-2.2,1.1-4.3,1.8-6.4c0.3-0.9-0.1-1.2-0.8-1.1
		c-0.6,0.1-1.3,0.5-1.8,0.9c-1.3,1.1-1.9,2.6-2.1,4.2c-0.3,2.4-0.5,4.8-0.7,7.3c-0.1,0.6-0.1,1.3-0.8,1.1c-0.3-0.1-0.7-0.8-0.7-1.2
		c0.2-2.5,0.4-4.9,0.7-7.4c0.3-2.4,1.3-4.4,3.5-5.8c1.1-0.7,2.3-0.9,3.5-0.2c0.3,0.2,0.8,0.1,1.2,0c1.8-0.7,3.6-1.1,5.3,0.4
		c0.2,0.2,0.6,0.1,0.8,0.1c1-0.3,2.1-0.6,3.1-0.8c1.4-0.3,2,1,2.7,1.7c0.9-0.3,1.8-0.7,2.7-0.9c1.3-0.3,1.4,1.1,1.9,1.7
		c1.1-0.4,2.1-1.1,3.1-1.2c1,0,2,0.7,3.2,1.2c0.6-0.9,1.8-1.7,3.2-1.4c1.2,0.3,2.2,1.3,3.4,2c1.9-1.8,2.5-1.7,5.5,0.6
		c2.3-2.1,4-0.6,5.6,1.2c2.5-1.8,3.4-1.5,4.1,1.4c0.8,3.4,0.2,6.7-1,9.8c-0.2,0.5-0.9,0.7-1.5,1c-0.1,0.1-0.5-0.2-0.6-0.4
		c-0.1-0.2,0-0.5,0.1-0.8c0.4-0.8,1-1.5,1.2-2.2c0.4-1.7,0.6-3.5,0.7-5.2c0-1-0.4-2.1-0.6-3.2c-1.1,0.3-1.1,0.9-1.2,1.8
		c-0.1,2.2-0.4,4.3-0.9,6.5c-0.2,0.8-0.9,1.6-1.6,2.1c-1,0.8-2.2,0.3-2.4-1c-0.1-0.6-0.1-1.4,0.1-2c0.7-1.9,1.6-3.6,2.4-5.5
		c0.2-0.4,0.3-1.2,0-1.4c-0.6-0.6-1.4-1.3-2.2-1.5c-0.6-0.1-1.4,0.4-1.1,1.5c1.1,3.4-0.4,6.4-1.6,9.4c-0.4,1-1.4,2-2.6,1.7
		c-1.3-0.4-1.3-1.7-1.3-2.8c0-1,0.3-2.1,0.7-3c0.7-1.8,1.5-3.6,2.4-5.4c0.7-1.3-0.5-1.6-1.1-2.1c-0.3-0.2-1.2,0-1.6,0.3
		c-0.7,0.6-1,1.4-0.7,2.4c0.8,2.8,0.4,5.5-0.4,8.2c-0.3,1.1-0.9,2-2.1,2.3c-0.9,0.3-1.7,0-1.8-0.9c-0.2-1.1-0.3-2.3,0-3.4
		c0.6-2.2,1.4-4.3,2.2-6.5c0.5-1.3-0.3-2.8-1.9-3.4c-0.8-0.3-2.3,0.6-2.5,1.6c-0.1,0.5,0.1,1.2,0.2,1.7c0.8,2.6,0.9,5.3-0.5,7.7
		c-0.5,0.8-1.4,1.5-2.3,1.9c-0.9,0.4-1.7-0.1-1.9-1.1c-0.2-0.8-0.3-1.8-0.1-2.6c0.6-2.3,1.3-4.5,2.1-6.7c0.3-0.8,0.3-1.4-0.3-1.8
		c-0.5-0.3-1.3-0.6-1.8-0.4c-1.3,0.3-1.9,1.5-1.6,2.9c0.5,2.4,0.8,4.9,0.1,7.4c-0.1,0.5-0.3,1.1-0.6,1.4c-0.5,0.4-1.2,0.7-1.8,0.7
		c-0.4,0-0.9-0.8-1-1.3c-0.2-0.6-0.3-1.4-0.1-2c0.4-2.2,0.9-4.4,1.4-6.6c0.3-1.1,0-1.9-0.6-2.7c-0.1-0.2-0.7-0.3-0.9-0.2
		c-0.5,0.5-1.1,1-1.3,1.7c-0.2,0.4,0.2,1.1,0.2,1.6c0.1,2.1,0.2,4.1,0.2,6.2c0,1.2-0.8,2.1-1.8,2.7c-1.2,0.8-2.1,0.5-2.5-0.9
		c-0.2-0.6-0.3-1.3-0.3-1.9c0.2-2.7,0.6-5.4,1.9-7.9c0.2-0.5,0.1-1.2-0.1-1.7c-0.3-0.7-0.9-1-1.7-0.7c-0.3,0.1-0.6,0.1-0.9,0.2
		c-0.9,0.2-1.3,0.6-1.1,1.7c0.6,2.6,1,5.2,0.3,7.8c-0.2,0.9-0.6,1.8-1,2.7c-0.5,0.9-1.3,1.3-2.3,1.1c-1-0.2-1.6-1-1.6-1.9
		c0-1.9,0-3.9,0.4-5.8C293.4,247.6,294.3,245.9,294.9,244.2z M295.8,246.6c-0.1,0-0.2,0-0.3,0c-0.4,1.4-1,2.8-1.3,4.2
		c-0.2,1.3-0.1,2.7-0.1,4c0,0.2,0.3,0.6,0.4,0.6c0.3,0,0.6-0.2,0.8-0.4c0.3-0.3,0.5-0.8,0.6-1.2
		C296.5,251.5,296.4,249.1,295.8,246.6z M289.5,246.7c-0.9,3.2-2.2,6.3-0.6,9.7C290.2,253.2,290.4,250,289.5,246.7z M311.1,256
		c2.1-0.6,3-4.7,1.7-7.5C311.8,251,310.8,253.4,311.1,256z M324.9,249c-0.9,2.9-2.8,5.2-2.3,8.5C324.2,256.2,325.7,251,324.9,249z
		 M301.7,248.1c-0.7,2.5-1.3,4.8-0.9,7.3C302.4,254.3,302.8,250.8,301.7,248.1z M317.6,257.2c1.3-0.9,2.2-5,1.6-6.8
		C318.7,252.6,317.2,254.6,317.6,257.2z M328.4,256.2c0.2,0.1,0.3,0.1,0.5,0.2c1.6-1.4,1.4-3.4,1.8-5.1c-0.1-0.1-0.3-0.1-0.4-0.1
		C329.7,252.8,329,254.5,328.4,256.2z M305.9,255.3c0.2,0,0.5,0.1,0.7,0.1c0.2-1.5,0.3-3,0.5-4.5c-0.2,0-0.3,0-0.5-0.1
		C306.4,252.4,306.2,253.9,305.9,255.3z"/>
	<path class="st0" d="M171.6,263.8c0.4,2.4,0.9,4.5,1.1,6.8c0.1,0.9-0.2,1.9-0.6,2.7c-0.5,1-1.6,1.1-2.4,0.1
		c-0.4-0.5-0.8-1.2-0.8-1.8c0-2.4,0.1-4.8,0.3-7.1c0.1-0.8,0.2-1.5-0.5-1.7c-0.6-0.2-1.5,0-2,0.4c-0.4,0.3-0.7,1.1-0.7,1.7
		c0,2.3,0,4.5,0.1,6.8c0,0.3,0.4,0.7,0.5,1c0.1,0.4,0,0.8,0,1.2c-0.4,0-1,0.1-1.3-0.1c-0.3-0.2-0.6-0.8-0.7-1.2
		c-0.6-2.8-0.8-5.7-0.1-8.6c0.4-1.8,1.4-2.7,3.2-3c0.9-0.1,1.7,0,2.3,0.8c0.4,0.6,0.9,0.6,1.6,0.4c1.6-0.4,3.2-0.6,4.1,1.2
		c2.1-1.2,2.5-1.1,5.1,1.3c2-2,4.1-1.7,6,0.1c2.1-2,2.4-2,5.7,0c1.2-1.2,2.6-1.3,4-0.5c0.7,0.4,1.3,0.4,2.1,0.1
		c2.5-1.1,4.4,0,4.7,2.7c0.1,0.7,0.1,1.4,0.3,2.1c0.6,2.1-0.2,3.9-1.2,5.6c-0.5,0.9-1.3,1.4-2.3,1c-0.3-0.1-0.5-0.5-0.6-0.8
		c0-0.1,0.3-0.4,0.5-0.6c0.4-0.2,1-0.2,1.1-0.5c0.5-1,1-2,1-3c0.1-1.4-0.3-2.9-0.5-4.3c-0.2-1.1-1.1-1.1-2-1
		c-0.9,0.1-1.2,0.5-1.1,1.5c0.1,1.9,0,3.8-0.1,5.7c0,0.5-0.3,1.3-0.8,1.6c-0.6,0.4-1.4,0.7-2,0.6c-0.4-0.1-1-0.9-1-1.5
		c-0.4-2.4,0.8-4.5,1.5-6.7c0.1-0.2,0.2-0.4,0.4-0.8c-0.4-0.2-0.8-0.5-1.3-0.6c-0.4-0.1-1.1-0.1-1.3,0.2c-0.3,0.3-0.4,0.9-0.4,1.4
		c0.2,1.3,0.6,2.6,0.7,3.9c0,1.1-0.2,2.3-0.7,3.3c-0.2,0.5-1.1,1.1-1.7,1.1c-0.5,0-1.2-0.8-1.3-1.4c-0.7-2.2,0-4.3,0.7-6.4
		c0.4-1.2-0.8-2.8-2-2.7c-0.8,0.1-1.3,1.2-1.1,2.2c0.3,1.4,0.6,2.9,0.7,4.4c0.1,0.8-0.1,1.7-0.4,2.3c-0.3,0.5-1.2,1.1-1.8,1.1
		c-0.5,0-1.1-0.8-1.3-1.4c-0.6-2,0-3.9,0.5-5.8c0.4-1.3,0.2-1.7-1.2-2.4c-0.9-0.5-2.2-0.3-2.7,0.6c-0.2,0.4-0.2,1.1,0,1.5
		c0.7,2.2,1.3,4.4,0.1,6.6c-0.3,0.5-0.8,1.1-1.2,1.1c-0.5,0-1.2-0.6-1.4-1.1c-0.3-0.8-0.5-1.8-0.4-2.7c0.1-1.1,0.4-2.3,0.6-3.4
		c0.3-1.3-0.2-2.6-1.4-3.2c-0.3-0.2-1-0.2-1.3,0c-0.3,0.2-0.4,0.8-0.3,1.2c0.2,1.5,0.7,2.9,0.8,4.3c0.1,0.8-0.2,1.8-0.7,2.6
		c-0.3,0.4-1.2,0.7-1.8,0.6c-0.4,0-0.9-0.7-1-1.1c-0.5-2.1-0.7-4.2,0.1-6.3c0.3-0.7,0.5-1.5-0.2-1.9c-0.5-0.3-1.2-0.3-1.8-0.4
		C172.1,263.6,171.8,263.7,171.6,263.8z M170.9,272.1c0.7-1.8,0-3.5-0.4-5.2C170.4,268.7,170,270.5,170.9,272.1z M196.4,273.5
		c1.1-1.4,0.8-2.9,0.8-4.5C196.6,270.5,196,271.9,196.4,273.5z M191.9,273.5c0.3,0,0.5,0,0.8,0c0.1-1.4,0.1-2.8,0.2-4.2
		c-0.2,0-0.4,0-0.6,0C192.1,270.7,192,272.1,191.9,273.5z M175.7,267.6c-0.1,0-0.3,0-0.4,0c0.1,1.3,0.1,2.6,0.2,3.9
		c0.2,0,0.3,0,0.5,0C176.4,270.2,176.1,268.9,175.7,267.6z M187.3,269.8c-0.2,0-0.3,0-0.5,0c0,1.1-0.1,2.1-0.1,3.2
		c0.2,0,0.4,0,0.6,0C187.4,271.9,187.3,270.8,187.3,269.8z M180.6,272.7c0.2,0,0.4,0,0.6,0c0-1,0.1-2,0.1-3c-0.1,0-0.3,0-0.4,0
		C180.8,270.7,180.7,271.7,180.6,272.7z"/>
</g>
</svg>
