<?xml version="1.0" encoding="utf-8"?>
<!-- Generator: Adobe Illustrator 19.0.0, SVG Export Plug-In . SVG Version: 6.00 Build 0)  -->
<svg version="1.1" id="Calque_1" xmlns="http://www.w3.org/2000/svg" xmlns:xlink="http://www.w3.org/1999/xlink" x="0px" y="0px"
	 viewBox="0 0 180 170" style="enable-background:new 0 0 180 170;" xml:space="preserve">
<style type="text/css">
	.st0{fill:none;stroke:#4C616D;stroke-width:5;stroke-miterlimit:10;}
	.st1{fill:none;stroke:#1CAE88;stroke-width:4;stroke-linecap:round;stroke-linejoin:round;stroke-miterlimit:10;}
</style>
<g id="cloud">
	<path id="XMLID_192_" class="st0" d="M148.2,149H31.8c-3.2,0-5.8-2.6-5.8-5.8V26.8c0-3.2,2.6-5.8,5.8-5.8h116.4
		c3.2,0,5.8,2.6,5.8,5.8v116.4C154,146.4,151.4,149,148.2,149z"/>
	<circle id="XMLID_191_" class="st0" cx="37.6" cy="32.6" r="1.5"/>
	<circle id="XMLID_190_" class="st0" cx="49.3" cy="32.6" r="1.5"/>
	<circle id="XMLID_189_" class="st0" cx="60.9" cy="32.6" r="1.5"/>
	<line id="XMLID_188_" class="st0" x1="26" y1="44.3" x2="154" y2="44.3"/>
	<path id="XMLID_187_" class="st1" d="M104.5,122.8c9.6,0,17.5-7.9,17.5-17.5c0-5.2-2.3-10.2-6.1-13.4c0.3-1.2,0.3-2.6,0.3-4.1
		c0-11.3-9-20.4-20.4-20.4s-20.4,9-20.4,20.4v0.3c-0.9-0.3-2-0.3-2.9-0.3c-9.6,0-17.5,7.9-17.5,17.5s7.9,17.5,17.5,17.5H104.5z"/>
</g>
</svg>
