<?xml version="1.0" encoding="utf-8"?>
<!-- Generator: Adobe Illustrator 19.0.0, SVG Export Plug-In . SVG Version: 6.00 Build 0)  -->
<svg version="1.1" id="Calque_1" xmlns="http://www.w3.org/2000/svg" xmlns:xlink="http://www.w3.org/1999/xlink" x="0px" y="0px"
	 viewBox="0 0 180 170" style="enable-background:new 0 0 180 170;" xml:space="preserve">
<style type="text/css">
	.st0{opacity:0.3;fill:none;stroke:#0E0E0E;stroke-width:5;stroke-linecap:round;stroke-linejoin:round;stroke-miterlimit:10;}
	.st1{opacity:0.3;fill:none;stroke:#0E0E0E;stroke-width:5;stroke-linejoin:round;stroke-miterlimit:10;}
	.st2{fill:none;stroke:#19AD87;stroke-width:4;stroke-linecap:round;stroke-linejoin:round;stroke-miterlimit:10;}
</style>
<g id="XMLID_1732_">
	<g id="home_85_">
	</g>
	<g id="home-1_85_">
	</g>
	<g id="home-2_85_">
	</g>
	<g id="home-3_85_">
	</g>
	<g id="home-4_85_">
	</g>
	<g id="door_85_">
	</g>
	<g id="window_85_">
	</g>
	<g id="home-5_85_">
	</g>
	<g id="home-6_85_">
	</g>
	<g id="home-7_85_">
	</g>
	<g id="home-8_85_">
	</g>
	<g id="office_85_">
	</g>
	<g id="four-floors_85_">
	</g>
	<g id="classic-pillers_85_">
	</g>
	<g id="church_85_">
	</g>
	<g id="detached-church_85_">
	</g>
	<g id="wind-mill_85_">
	</g>
	<g id="light-house_171_">
	</g>
	<g id="light-house_170_">
	</g>
	<g id="light-house-2_85_">
	</g>
	<g id="Trash_House-shutter_85_">
	</g>
	<g id="Trash_House_85_">
	</g>
	<g id="Layer_1_85_">
	</g>
	<g id="tree-3_85_">
	</g>
	<g id="tree-2_85_">
	</g>
	<g id="tree-1_85_">
	</g>
	<g id="tree_85_">
	</g>
	<g id="round-tree-1_85_">
	</g>
	<g id="round-tree_85_">
	</g>
	<g id="triangle-tree-1_85_">
	</g>
	<g id="triangle-tree_85_">
	</g>
	<g id="ellips-tree-1_85_">
	</g>
	<g id="ellipse-tree_85_">
	</g>
	<g id="skyscraper-3_85_">
	</g>
	<g id="long-story-house_85_">
	</g>
	<g id="skyscrapers-1_85_">
	</g>
	<g id="skyscraper_85_">
	</g>
	<g id="large-building-7_85_">
		<path id="XMLID_1750_" class="st0" d="M36.2,111c0,0,8.1-10.2,23-10.2c14.5,0,17.6,2.6,28.2,2.6c16.9,0,26.7-10.2,43.5-10.2
			c12.4,0,12.8,5.4,12.8,5.1v51.2H36.2V111z"/>
		<path id="XMLID_1749_" class="st0" d="M36.2,123.8c0,0,8.1-10.2,23-10.2c14.5,0,17.6,2.6,28.2,2.6c16.9,0,26.7-10.2,43.5-10.2
			c12.4,0,12.8,5.4,12.8,5.1"/>
		<path id="XMLID_1748_" class="st0" d="M36.2,136.6c0,0,8.1-10.2,23-10.2c14.5,0,17.6,2.6,28.2,2.6c16.9,0,26.7-10.2,43.5-10.2
			c12.4,0,12.8,5.4,12.8,5.1"/>
		<path id="XMLID_1747_" class="st0" d="M36.2,149.4c0,0,8.1-10.2,23-10.2c14.5,0,17.6,2.6,28.2,2.6c16.9,0,26.7-10.2,43.5-10.2
			c12.4,0,12.8,5.4,12.8,5.1"/>
		<line id="XMLID_1746_" class="st1" x1="128.4" y1="131.4" x2="128.4" y2="149.4"/>
		<line id="XMLID_1745_" class="st1" x1="115.6" y1="134" x2="115.6" y2="149.4"/>
		<line id="XMLID_1744_" class="st1" x1="102.8" y1="139.1" x2="102.8" y2="149.4"/>
		<line id="XMLID_1743_" class="st1" x1="87.4" y1="141.7" x2="87.4" y2="149.4"/>
		<line id="XMLID_1742_" class="st1" x1="72.1" y1="139.1" x2="72.1" y2="149.4"/>
		<line id="XMLID_1741_" class="st1" x1="56.7" y1="139.1" x2="56.7" y2="149.4"/>
		<path id="XMLID_1740_" class="st0" d="M79.7,100.7V44.4c0,0,26.2-10.2,41-10.2c9.6,0,10.2,5.1,10.2,5.1V93"/>
		<line id="XMLID_1739_" class="st0" x1="120.7" y1="36.7" x2="120.7" y2="93"/>
		<line id="XMLID_1738_" class="st0" x1="110.5" y1="36.7" x2="110.5" y2="95.6"/>
		<line id="XMLID_1737_" class="st0" x1="100.2" y1="39.3" x2="100.2" y2="100.7"/>
		<line id="XMLID_1736_" class="st0" x1="90" y1="41.8" x2="90" y2="100.7"/>
		<path id="XMLID_1735_" class="st0" d="M79.7,85.3c0,0-0.5,2.6-17.9,2.6C50.9,87.9,49,93,49,93v7.7"/>
		<path id="XMLID_1734_" class="st2" d="M59.3,87.9V62.3c0,0-3-2.9-10.2,2.6c-3.7,2.8-7.7,5.1-7.7,5.1v5.1c0,0,5.3,3.1,10.2,0
			c6.5-4.1,7.7-2.6,7.7-2.6"/>
		<path id="XMLID_1733_" class="st2" d="M69.5,85.3V36.7c0,0-3-2.9-10.2,2.6c-3.7,2.8-7.7,5.1-7.7,5.1v5.1c0,0,5.3,3.1,10.2,0
			c6.5-4.1,7.7-2.6,7.7-2.6"/>
	</g>
	<g id="larg-building-6_85_">
	</g>
	<g id="small-flat_85_">
	</g>
	<g id="green-building_85_">
	</g>
	<g id="squar-building_85_">
	</g>
	<g id="bank_85_">
	</g>
	<g id="gate-house-2_85_">
	</g>
	<g id="gate-house_85_">
	</g>
	<g id="pak-mahal_85_">
	</g>
	<g id="Indian-mahal_85_">
	</g>
	<g id="chinees-arch_85_">
	</g>
	<g id="cathedral_85_">
	</g>
	<g id="pizza_85_">
	</g>
	<g id="chinees_85_">
	</g>
	<g id="large-factory_85_">
	</g>
	<g id="factory_85_">
	</g>
	<g id="villa_85_">
	</g>
	<g id="shope-2_85_">
	</g>
	<g id="shop_85_">
	</g>
	<g id="snow-home-3_85_">
	</g>
	<g id="snow-home-2_85_">
	</g>
	<g id="snow-home_85_">
	</g>
	<g id="small-store_85_">
	</g>
	<g id="frontage-mid_85_">
	</g>
	<g id="bricks-house_85_">
	</g>
	<g id="old-house_85_">
	</g>
	<g id="pillers-gate-2_85_">
	</g>
	<g id="pillers-gate-1_85_">
	</g>
	<g id="pillers-gate_85_">
	</g>
	<g id="dome-pillers_85_">
	</g>
	<g id="garden-piller-1_85_">
	</g>
	<g id="graden-pillers_85_">
	</g>
	<g id="temple-gate_85_">
	</g>
	<g id="chinees-gate_85_">
	</g>
	<g id="central-museum_85_">
	</g>
	<g id="mosque_85_">
	</g>
	<g id="garden-wall_85_">
	</g>
	<g id="fire_85_">
	</g>
	<g id="pyramid_85_">
	</g>
	<g id="large-building-5_85_">
	</g>
	<g id="large-building-4_85_">
	</g>
	<g id="large-buildin-3_85_">
	</g>
	<g id="large-building-2_85_">
	</g>
	<g id="large-building-1_85_">
	</g>
	<g id="large-building_85_">
	</g>
	<g id="facto-house-1_85_">
	</g>
	<g id="facto-house_85_">
	</g>
	<g id="golf-area_85_">
	</g>
	<g id="playground_85_">
	</g>
	<g id="block-store_85_">
	</g>
	<g id="favorite_85_">
	</g>
	<g id="open-store_85_">
	</g>
	<g id="close-store_85_">
	</g>
	<g id="locate-house_85_">
	</g>
	<g id="store_85_">
	</g>
	<g id="block-house_85_">
	</g>
	<g id="success-house_85_">
	</g>
	<g id="load-house_85_">
	</g>
	<g id="move-house_85_">
	</g>
	<g id="close-house_85_">
	</g>
	<g id="add-house_85_">
	</g>
	<g id="house_85_">
	</g>
	<g id="Trash_House-door_85_">
	</g>
	<g id="verticle-wall_85_">
	</g>
</g>
</svg>
