<?xml version="1.0" encoding="utf-8"?>
<!-- Generator: Adobe Illustrator 19.0.0, SVG Export Plug-In . SVG Version: 6.00 Build 0)  -->
<svg version="1.1" id="Calque_1" xmlns="http://www.w3.org/2000/svg" xmlns:xlink="http://www.w3.org/1999/xlink" x="0px" y="0px"
	 viewBox="0 0 180 170" style="enable-background:new 0 0 180 170;" xml:space="preserve">
<style type="text/css">
	.st0{fill:none;stroke:#4C616D;stroke-width:5;stroke-miterlimit:10;}
	.st1{fill:none;stroke:#1CAE88;stroke-width:4;stroke-linecap:round;stroke-linejoin:round;stroke-miterlimit:10;}
</style>
<path id="XMLID_239_" class="st0" d="M150.2,151.8H29.8c-3.3,0-6-2.7-6-6V25.3c0-3.3,2.7-6,6-6h120.5c3.3,0,6,2.7,6,6v120.5
	C156.3,149,153.5,151.8,150.2,151.8z"/>
<circle id="XMLID_238_" class="st0" cx="35.8" cy="31.3" r="1.5"/>
<circle id="XMLID_237_" class="st0" cx="47.8" cy="31.3" r="1.5"/>
<circle id="XMLID_236_" class="st0" cx="59.9" cy="31.3" r="1.5"/>
<line id="XMLID_235_" class="st0" x1="23.8" y1="43.3" x2="156.3" y2="43.3"/>
<line id="XMLID_234_" class="st0" x1="53.9" y1="43.3" x2="53.9" y2="151.8"/>
<line id="XMLID_233_" class="st0" x1="35.8" y1="61.4" x2="41.8" y2="61.4"/>
<line id="XMLID_232_" class="st0" x1="35.8" y1="76.5" x2="41.8" y2="76.5"/>
<line id="XMLID_231_" class="st0" x1="35.8" y1="91.5" x2="41.8" y2="91.5"/>
<line id="XMLID_230_" class="st0" x1="35.8" y1="106.6" x2="41.8" y2="106.6"/>
<line id="XMLID_229_" class="st0" x1="35.8" y1="121.6" x2="41.8" y2="121.6"/>
<line id="XMLID_228_" class="st0" x1="35.8" y1="136.7" x2="41.8" y2="136.7"/>
<rect id="XMLID_227_" x="68.9" y="61.4" class="st1" width="27.1" height="27.1"/>
<rect id="XMLID_226_" x="114.1" y="61.4" class="st1" width="27.1" height="27.1"/>
<rect id="XMLID_225_" x="68.9" y="106.6" class="st1" width="27.1" height="27.1"/>
<rect id="XMLID_224_" x="114.1" y="106.6" class="st1" width="27.1" height="27.1"/>
</svg>
