<?xml version="1.0" encoding="utf-8"?>
<!-- Generator: Adobe Illustrator 19.0.0, SVG Export Plug-In . SVG Version: 6.00 Build 0)  -->
<svg version="1.1" id="Calque_1" xmlns="http://www.w3.org/2000/svg" xmlns:xlink="http://www.w3.org/1999/xlink" x="0px" y="0px"
	 viewBox="0 0 89.8 122.2" style="enable-background:new 0 0 89.8 122.2;" xml:space="preserve">
<style type="text/css">
	.st0{fill:none;stroke:#CDCCCC;stroke-width:4;stroke-miterlimit:10;}
	.st1{fill:none;stroke:#CDCCCC;stroke-miterlimit:10;}
	.st2{fill:none;stroke:#CDCCCC;stroke-width:2;stroke-miterlimit:10;}
	.st3{fill:#FFFFFF;stroke:#1DAE88;stroke-miterlimit:10;}
	.st4{opacity:0.2;fill:none;stroke:#514F4F;stroke-width:2;stroke-linejoin:round;stroke-miterlimit:10;}
	.st5{fill:none;stroke:#CDCCCC;stroke-width:2;stroke-linecap:round;stroke-miterlimit:10;}
</style>
<g id="XMLID_53_">
	<path id="XMLID_392_" class="st0" d="M76.5,113.6H13.3c-3.6,0-6.5-2.9-6.5-6.5V15.1c0-3.6,2.9-6.5,6.5-6.5h63.2
		c3.6,0,6.5,2.9,6.5,6.5V107C83,110.7,80.1,113.6,76.5,113.6z"/>
	<rect id="XMLID_393_" x="13.8" y="19" class="st1" width="62.1" height="79.1"/>
	<circle id="XMLID_394_" class="st1" cx="44.9" cy="104.7" r="3.9"/>
	<polyline id="XMLID_409_" class="st2" points="13.7,67.8 35.1,54.8 55.2,64.4 80,47.4 	"/>
	<circle id="XMLID_408_" class="st3" cx="34.9" cy="55.7" r="2.9"/>
	<circle id="XMLID_407_" class="st3" cx="55.7" cy="64" r="2.9"/>
	<polygon id="XMLID_406_" class="st3" points="83,46.7 55.8,46.7 55.8,54.5 67.9,54.5 69.5,57.3 71.1,54.5 83,54.5 	"/>
	<line id="XMLID_405_" class="st4" x1="58.4" y1="49.3" x2="66.8" y2="49.3"/>
	<line id="XMLID_404_" class="st4" x1="58.4" y1="52.2" x2="80.4" y2="52.2"/>
	<polygon id="XMLID_403_" class="st3" points="66.2,26.5 38.9,26.5 38.9,34.3 51.2,34.3 52.8,37.1 54.4,34.3 66.2,34.3 	"/>
	<line id="XMLID_402_" class="st4" x1="63.6" y1="31.7" x2="55.1" y2="31.7"/>
	<line id="XMLID_401_" class="st4" x1="63.6" y1="28.8" x2="41.5" y2="28.8"/>
	<polygon id="XMLID_400_" class="st3" points="22.7,74.3 49.9,74.3 49.9,66.5 37.7,66.5 36.1,63.7 34.5,66.5 22.7,66.5 	"/>
	<line id="XMLID_399_" class="st4" x1="25.3" y1="69.1" x2="33.7" y2="69.1"/>
	<line id="XMLID_398_" class="st4" x1="25.3" y1="72" x2="47.4" y2="72"/>
	<polygon id="XMLID_397_" class="st3" points="37.9,40.9 11,40.9 11,48.7 22.7,48.7 24.7,52.1 26.7,48.7 37.9,48.7 	"/>
	<line id="XMLID_396_" class="st4" x1="13.3" y1="43.5" x2="22.1" y2="43.5"/>
	<line id="XMLID_395_" class="st4" x1="13.3" y1="46.1" x2="35.7" y2="46.1"/>
	<line id="XMLID_121_" class="st5" x1="41.6" y1="14.7" x2="48.2" y2="14.7"/>
</g>
</svg>
