<?xml version="1.0" encoding="utf-8"?>
<!-- Generator: Adobe Illustrator 19.0.0, SVG Export Plug-In . SVG Version: 6.00 Build 0)  -->
<svg version="1.1" id="Layer_1" xmlns="http://www.w3.org/2000/svg" xmlns:xlink="http://www.w3.org/1999/xlink" x="0px" y="0px"
	 viewBox="-68 340.9 474.1 113.1" style="enable-background:new -68 340.9 474.1 113.1;" xml:space="preserve">
<style type="text/css">
	.st0{fill:#FFFFFF;}
</style>
<path class="st0" d="M29.8,425.7v-56.5L-19.1,341L-68,369.2v56.5l48.9,28.2L29.8,425.7z M-48,380.8l28.9-16.7l28.9,16.7v33.4
	l-28.9,16.7L-48,414.2V380.8z M-19.1,413.5l-13.9-8v-16l13.9-8l13.9,8v16L-19.1,413.5z"/>
<g>
	<path class="st0" d="M47.9,377.5v51.4h-6.2V366h4.8l41.6,52.3v-52.2h6.2v62.8h-5.4L47.9,377.5z"/>
	<path class="st0" d="M152.3,423.4v5.5H110V366h41.4v5.5h-35.2v22.7H147v5.2h-30.7v24H152.3z"/>
	<path class="st0" d="M164,428.8V366h26c2.7,0,5.2,0.6,7.5,1.7c2.3,1.2,4.2,2.7,5.9,4.5c1.7,1.9,3,4,3.9,6.3
		c0.9,2.4,1.4,4.8,1.4,7.2c0,2.6-0.4,5.1-1.3,7.5c-0.9,2.4-2.1,4.5-3.7,6.3c-1.6,1.8-3.5,3.3-5.7,4.4c-2.2,1.1-4.7,1.7-7.4,1.7
		h-20.4v23.2H164z M170.2,400.2h20.1c1.8,0,3.5-0.4,5-1.2c1.5-0.8,2.8-1.9,3.9-3.2c1.1-1.3,1.9-2.9,2.5-4.6c0.6-1.7,0.9-3.6,0.9-5.4
		c0-1.9-0.3-3.8-1-5.5c-0.7-1.7-1.6-3.3-2.7-4.6c-1.2-1.3-2.5-2.3-4.1-3.1c-1.6-0.7-3.2-1.1-4.9-1.1h-19.6V400.2z"/>
	<path class="st0" d="M268.6,366v62.9h-6.1v-29.4h-37.3v29.4H219V366h6.2v28h37.3v-28H268.6z"/>
	<path class="st0" d="M309.7,429.3c-4.4,0-8.4-0.9-12-2.7c-3.6-1.8-6.7-4.2-9.3-7.2c-2.6-3-4.6-6.4-6-10.2
		c-1.4-3.8-2.1-7.8-2.1-11.8c0-4.2,0.8-8.2,2.3-12c1.5-3.8,3.6-7.2,6.2-10.2c2.7-3,5.8-5.3,9.4-7c3.6-1.7,7.5-2.6,11.7-2.6
		c4.4,0,8.4,0.9,12,2.8c3.6,1.9,6.7,4.3,9.3,7.3c2.6,3,4.6,6.4,6,10.2c1.4,3.8,2.1,7.7,2.1,11.6c0,4.2-0.8,8.2-2.3,12
		c-1.5,3.8-3.6,7.2-6.2,10.1c-2.6,2.9-5.7,5.3-9.3,7C317.8,428.4,313.9,429.3,309.7,429.3z M286.4,397.4c0,3.4,0.6,6.7,1.7,9.9
		c1.1,3.2,2.7,6,4.8,8.4c2.1,2.5,4.5,4.4,7.4,5.8c2.8,1.4,6,2.2,9.5,2.2c3.5,0,6.8-0.8,9.7-2.3c2.9-1.5,5.3-3.5,7.3-6
		c2-2.5,3.6-5.3,4.6-8.4c1.1-3.1,1.6-6.3,1.6-9.6c0-3.4-0.6-6.7-1.7-9.9c-1.2-3.2-2.8-5.9-4.8-8.4c-2.1-2.4-4.5-4.4-7.3-5.8
		c-2.8-1.4-6-2.2-9.4-2.2c-3.5,0-6.8,0.8-9.7,2.3c-2.9,1.5-5.3,3.5-7.3,6c-2,2.5-3.6,5.3-4.6,8.4C287,391,286.4,394.2,286.4,397.4z"
		/>
	<path class="st0" d="M387.6,377.7c-1.8-2-4.1-3.6-7.1-4.9c-3-1.2-6.3-1.9-10.1-1.9c-5.5,0-9.6,1-12.1,3.1c-2.5,2.1-3.8,4.9-3.8,8.5
		c0,1.9,0.3,3.4,1,4.6c0.7,1.2,1.7,2.3,3.1,3.1c1.4,0.9,3.2,1.7,5.4,2.3c2.2,0.7,4.8,1.3,7.8,1.9c3.4,0.7,6.4,1.5,9.1,2.4
		c2.7,0.9,5,2,6.9,3.3c1.9,1.3,3.3,2.9,4.3,4.8c1,1.9,1.5,4.3,1.5,7.1c0,2.9-0.6,5.4-1.7,7.5c-1.1,2.1-2.7,3.9-4.7,5.3
		c-2,1.4-4.4,2.5-7.2,3.1c-2.8,0.7-5.8,1-9.1,1c-9.7,0-18.2-3-25.2-9.1l3.1-5c1.1,1.2,2.5,2.3,4,3.4s3.3,2,5.2,2.8
		c1.9,0.8,4,1.4,6.2,1.9c2.2,0.4,4.5,0.7,6.9,0.7c5,0,8.9-0.9,11.7-2.7c2.8-1.8,4.2-4.5,4.2-8.2c0-1.9-0.4-3.6-1.2-4.9
		c-0.8-1.3-2-2.5-3.6-3.5c-1.6-1-3.6-1.8-5.9-2.5c-2.4-0.7-5.1-1.4-8.2-2.1c-3.3-0.8-6.2-1.6-8.7-2.4c-2.5-0.8-4.6-1.9-6.3-3.1
		c-1.7-1.2-3-2.7-3.9-4.5c-0.9-1.7-1.3-3.9-1.3-6.4c0-2.9,0.5-5.5,1.6-7.7c1.1-2.3,2.6-4.2,4.6-5.7c2-1.5,4.4-2.7,7.1-3.5
		c2.7-0.8,5.7-1.2,9-1.2c4.2,0,7.9,0.6,11.2,1.9c3.3,1.3,6.2,3.1,8.9,5.4L387.6,377.7z"/>
</g>
</svg>
