<?xml version="1.0" encoding="iso-8859-1"?>
<!-- Generator: Adobe Illustrator 19.0.0, SVG Export Plug-In . SVG Version: 6.00 Build 0)  -->
<svg version="1.1" id="Capa_1" xmlns="http://www.w3.org/2000/svg" xmlns:xlink="http://www.w3.org/1999/xlink" x="0px" y="0px"
	 viewBox="0 0 511.879 511.879" style="enable-background:new 0 0 511.879 511.879;" xml:space="preserve">
<rect x="315.93" y="431.9" style="fill:#5C9EFF;" width="47.988" height="23.995"/>
<path style="fill:#94C1FF;" d="M451.894,391.908c-30.923,0-55.987,25.064-55.987,55.987c0,30.922,25.064,55.986,55.987,55.986
	c30.922,0,55.986-25.064,55.986-55.986C507.88,416.972,482.816,391.908,451.894,391.908z M451.894,487.885
	c-22.081,0-39.991-17.91-39.991-39.99c0-22.081,17.91-39.991,39.991-39.991s39.99,17.91,39.99,39.991
	C491.884,469.975,473.975,487.885,451.894,487.885z"/>
<rect x="411.9" y="303.93" style="fill:#5C9EFF;" width="25.12" height="36.633"/>
<g>
	<path style="fill:#D7E9FF;" d="M423.018,351.597c-0.719,0.164-62.626,13.356-73.896,80.301c-0.484,2.562-0.805,5.202-1.125,7.999
		h-0.157c0,4.396-3.522,7.998-7.92,7.998s-7.998-3.602-7.998-7.998c0.242-2.719,0.562-5.358,0.961-7.999
		c11.919-80.941,87.018-95.978,87.018-95.978l10.717-2.241l1.844,15.918L423.018,351.597z"/>
	<path style="fill:#D7E9FF;" d="M451.894,391.908c16.316,0,30.961,7.021,41.193,18.159l9.7-13.082
		c-13.02-13.021-31.016-21.073-50.894-21.073c-39.765,0-71.983,32.219-71.983,71.983h15.996
		C395.907,416.972,420.971,391.908,451.894,391.908z"/>
</g>
<path style="fill:#94C1FF;" d="M47.989,415.902c-24.291,0-43.99,19.698-43.99,43.989c0,24.292,19.699,43.99,43.99,43.99
	c24.292,0,43.99-19.698,43.99-43.99C91.979,435.6,72.281,415.902,47.989,415.902z M48.552,487.878
	c-15.45,0.312-28.244-11.974-28.548-27.424c-0.312-15.449,11.974-28.243,27.424-28.548c15.449-0.312,28.243,11.974,28.548,27.424
	C76.288,474.779,64.002,487.573,48.552,487.878z"/>
<path style="fill:#D7E9FF;" d="M11.998,459.891c0-22.939,17.574-41.763,39.991-43.786c-1.32-0.117-2.648-0.203-3.999-0.203
	C23.699,415.901,4,435.599,4,459.891c0,24.292,19.699,43.99,43.99,43.99c1.351,0,2.679-0.086,3.999-0.203
	C29.572,501.655,11.998,482.832,11.998,459.891z"/>
<path style="fill:#5C9EFF;" d="M83.981,459.891c0,22.94-17.574,41.764-39.991,43.787c1.32,0.117,2.648,0.203,3.999,0.203
	c24.292,0,43.99-19.698,43.99-43.99c0-24.291-19.698-43.989-43.99-43.989c-1.351,0-2.679,0.086-3.999,0.203
	C66.407,418.128,83.981,436.952,83.981,459.891z"/>
<path style="fill:#94C1FF;" d="M399.984,7.999c11.122,0,20.159,9.037,20.159,20.159c0,11.115-9.037,20.073-20.159,20.073
	c-11.036,0-20.073-8.958-20.073-20.073C379.911,17.036,388.948,7.999,399.984,7.999z"/>
<path style="fill:#D7E9FF;" d="M387.909,28.158c0-9.748,6.943-17.886,16.09-19.753c-1.296-0.266-2.64-0.406-4.015-0.406
	c-11.036,0-20.073,9.037-20.073,20.159c0,11.115,9.037,20.073,20.073,20.073c1.375,0,2.719-0.141,4.015-0.398
	C394.852,45.982,387.909,37.898,387.909,28.158z"/>
<path style="fill:#5C9EFF;" d="M412.145,28.072c0,9.748-6.943,17.887-16.09,19.753c1.297,0.266,2.641,0.406,4.015,0.406
	c11.036,0,20.073-9.037,20.073-20.159c0-11.114-9.037-20.073-20.073-20.073c-1.374,0-2.718,0.141-4.015,0.398
	C405.202,10.248,412.145,18.332,412.145,28.072z"/>
<polygon style="fill:#D7E9FF;" points="35.992,455.893 363.915,455.893 363.915,479.887 67.985,479.887 "/>
<path style="fill:#48CFAD;" d="M16.879,428.79c7.959-7.959,18.964-12.888,31.11-12.888c22.94,0,41.764,17.574,43.787,39.991h15.996
	c-2.062-31.259-28.001-55.987-59.783-55.987c-16.59,0-31.602,6.733-42.458,17.613l11.349,11.263L16.879,428.79L16.879,428.79z"/>
<g>
	<path style="fill:#D7E9FF;" d="M16.879,428.79c7.959-7.959,18.964-12.888,31.11-12.888c22.94,0,41.764,17.574,43.787,39.991h15.996
		c-2.062-31.259-28.001-55.987-59.783-55.987c-16.59,0-31.602,6.733-42.458,17.613l11.349,11.263L16.879,428.79L16.879,428.79z"/>
	<polygon style="fill:#D7E9FF;" points="428.055,191.955 414.145,191.955 397.266,48.004 409.787,45.646 	"/>
</g>
<polygon style="fill:#FFFFFF;" points="363.915,463.868 46.623,463.868 35.992,455.893 363.915,455.893 "/>
<path style="fill:#94C1FF;" d="M428.055,191.955l31.837,255.94c0,4.396-3.601,7.998-7.998,7.998s-7.998-3.602-7.998-7.998
	l-29.751-255.94L428.055,191.955L428.055,191.955z"/>
<path style="fill:#5C9EFF;" d="M456.667,392.15c1.476,0.141,2.929,0.336,4.373,0.57l0.258,2.069
	c22.386,7.318,38.585,28.275,38.585,53.105c0,29.57-22.939,53.729-51.987,55.783c1.328,0.094,2.647,0.203,3.999,0.203
	c30.922,0,55.986-25.064,55.986-55.986C507.88,418.581,485.347,394.579,456.667,392.15z"/>
<path style="fill:#D7E9FF;" d="M403.905,447.895c0-20.059,10.568-37.594,26.424-47.466l-0.469-4.007
	c-19.964,8.561-33.953,28.376-33.953,51.473c0,30.922,25.064,55.986,55.987,55.986c1.351,0,2.671-0.109,3.999-0.203
	C426.845,501.624,403.905,477.465,403.905,447.895z"/>
<g>
	<path style="fill:#116FFF;" d="M400.273,32.118c-2.21,0-4.038-1.789-4.038-3.999s1.75-3.999,3.952-3.999h0.086
		c2.203,0,3.999,1.789,3.999,3.999S402.476,32.118,400.273,32.118z"/>
	<path style="fill:#116FFF;" d="M451.894,507.88c-33.078,0-59.986-26.907-59.986-59.985c0-22.44,12.372-42.834,32.29-53.223
		c1.952-1,4.381-0.266,5.396,1.695c1.023,1.961,0.258,4.374-1.695,5.397c-17.269,9.005-27.993,26.681-27.993,46.13
		c0,28.664,23.323,51.987,51.988,51.987s51.987-23.323,51.987-51.987c0-24.042-16.285-44.811-39.607-50.512
		c-2.141-0.523-3.453-2.688-2.93-4.835c0.523-2.132,2.664-3.46,4.835-2.929c26.908,6.568,45.7,30.539,45.7,58.275
		C511.879,480.973,484.972,507.88,451.894,507.88z"/>
	<path style="fill:#116FFF;" d="M451.894,491.884c-24.253,0-43.989-19.737-43.989-43.989c0-13.849,6.646-27.057,17.776-35.328
		c1.742-1.312,4.257-0.969,5.593,0.828c1.32,1.766,0.945,4.272-0.828,5.592c-9.107,6.772-14.543,17.574-14.543,28.908
		c0,19.847,16.145,35.991,35.991,35.991s35.991-16.145,35.991-35.991c0-14.497-8.631-27.518-21.995-33.164
		c-2.03-0.867-2.983-3.211-2.124-5.249c0.867-2.039,3.202-2.991,5.248-2.117c16.325,6.905,26.869,22.815,26.869,40.53
		C495.883,472.147,476.146,491.884,451.894,491.884z"/>
	<path style="fill:#116FFF;" d="M379.903,451.893L379.903,451.893c-2.21,0-3.999-1.788-3.999-3.998
		c0.008-20.293,7.912-39.374,22.261-53.73c7.076-7.068,15.293-12.582,24.424-16.395c2.015-0.851,4.374,0.102,5.225,2.148
		c0.852,2.039-0.109,4.374-2.147,5.226c-8.162,3.413-15.512,8.35-21.847,14.676c-12.832,12.841-19.909,29.915-19.917,48.075
		C383.902,450.105,382.114,451.893,379.903,451.893z"/>
	<path style="fill:#116FFF;" d="M502.788,400.992c-1.022,0-2.046-0.391-2.827-1.172c-10.239-10.247-23.182-16.84-37.429-19.081
		c-2.187-0.344-3.679-2.391-3.335-4.569c0.344-2.195,2.515-3.647,4.569-3.335c15.941,2.507,30.406,9.88,41.85,21.33
		c1.562,1.562,1.562,4.094,0,5.655C504.835,400.601,503.811,400.992,502.788,400.992z"/>
	<path style="fill:#116FFF;" d="M47.989,507.88C21.527,507.88,0,486.354,0,459.891c0-26.462,21.526-47.988,47.989-47.988
		c19.917,0,37.468,11.981,44.724,30.532c0.804,2.054-0.211,4.374-2.273,5.179c-2.038,0.812-4.374-0.211-5.178-2.273
		c-6.045-15.449-20.675-25.439-37.272-25.439c-22.049,0-39.991,17.941-39.991,39.99c0,22.05,17.941,39.991,39.991,39.991
		c10.255,0,20.011-3.882,27.462-10.919c1.609-1.523,4.132-1.438,5.655,0.156c1.515,1.608,1.445,4.139-0.156,5.654
		C72,503.225,60.299,507.88,47.989,507.88z"/>
	<path style="fill:#116FFF;" d="M105.812,447.895c-1.757,0-3.367-1.164-3.858-2.938c-2.554-9.279-7.522-17.809-14.372-24.658
		c-21.823-21.822-57.346-21.822-79.185,0c-1.562,1.562-4.093,1.562-5.655,0s-1.562-4.093,0-5.654
		c24.947-24.947,65.547-24.947,90.494,0c7.827,7.826,13.512,17.573,16.434,28.188c0.586,2.132-0.671,4.335-2.796,4.921
		C106.515,447.848,106.163,447.895,105.812,447.895z"/>
	<path style="fill:#116FFF;" d="M459.884,451.893c-1.984,0-3.71-1.483-3.96-3.507L407.499,58.604
		c-0.273-2.191,1.28-4.187,3.476-4.46c2.155-0.316,4.187,1.281,4.46,3.476l48.426,389.783c0.273,2.187-1.281,4.186-3.476,4.459
		C460.22,451.885,460.048,451.893,459.884,451.893z"/>
	<path style="fill:#116FFF;" d="M443.888,451.893c-2,0-3.726-1.499-3.968-3.538L394.899,60.666c-0.25-2.194,1.32-4.179,3.516-4.433
		c2.14-0.292,4.171,1.312,4.436,3.511l45.021,387.69c0.25,2.194-1.32,4.178-3.516,4.436
		C444.2,451.885,444.044,451.893,443.888,451.893z"/>
	<path style="fill:#116FFF;" d="M331.93,443.895c-0.125,0-0.25-0.008-0.367-0.016c-2.203-0.203-3.827-2.147-3.624-4.342
		c8.178-89.917,90.346-107.373,91.182-107.537c2.062-0.453,4.265,0.96,4.702,3.132c0.43,2.163-0.969,4.272-3.133,4.71
		c-3.147,0.633-77.161,16.559-84.784,100.413C335.718,442.334,333.968,443.895,331.93,443.895z"/>
	<path style="fill:#116FFF;" d="M347.864,445.34c-0.125,0-0.25-0.008-0.367-0.016c-2.203-0.203-3.819-2.148-3.624-4.343
		c7.076-77.825,77.653-93.149,78.364-93.298c2.195-0.453,4.272,0.961,4.718,3.116s-0.945,4.272-3.108,4.718
		c-0.648,0.141-65.492,14.48-72.007,86.183C351.652,443.778,349.903,445.34,347.864,445.34z"/>
	<path style="fill:#116FFF;" d="M363.915,459.891H35.992c-2.21,0-3.999-1.788-3.999-3.998c0-2.211,1.789-4,3.999-4h327.922
		c2.211,0,3.999,1.789,3.999,4C367.914,458.103,366.126,459.891,363.915,459.891z"/>
	<path style="fill:#116FFF;" d="M363.915,483.886H67.985c-2.211,0-3.999-1.789-3.999-3.999c0-2.211,1.788-3.999,3.999-3.999h295.93
		c2.211,0,3.999,1.788,3.999,3.999C367.914,482.097,366.126,483.886,363.915,483.886z"/>
	<path style="fill:#116FFF;" d="M67.985,483.886c-0.836,0-1.68-0.258-2.398-0.797l-31.992-23.994
		c-1.765-1.328-2.125-3.835-0.805-5.601c1.336-1.766,3.843-2.117,5.601-0.805l31.992,23.994c1.766,1.328,2.125,3.836,0.805,5.601
		C70.398,483.332,69.195,483.886,67.985,483.886z"/>
	<path style="fill:#116FFF;" d="M363.915,435.897h-14.84c-2.211,0-4-1.788-4-3.999c0-2.21,1.789-3.999,4-3.999h14.84
		c2.211,0,3.999,1.789,3.999,3.999C367.914,434.109,366.126,435.897,363.915,435.897z"/>
	<path style="fill:#116FFF;" d="M315.926,451.893c-2.211,0-3.999-1.788-3.999-3.998v-15.997c0-2.21,1.788-3.999,3.999-3.999
		c2.21,0,3.999,1.789,3.999,3.999v15.997C319.925,450.105,318.136,451.893,315.926,451.893z"/>
	<path style="fill:#116FFF;" d="M363.915,451.893c-2.211,0-3.999-1.788-3.999-3.998v-15.997c0-2.21,1.788-3.999,3.999-3.999
		s3.999,1.789,3.999,3.999v15.997C367.914,450.105,366.126,451.893,363.915,451.893z"/>
	<path style="fill:#116FFF;" d="M339.92,451.862c-6.6,0-11.966-5.365-11.966-11.965c0-2.211,1.788-4,3.999-4
		c2.21,0,3.999,1.789,3.999,4c0,2.187,1.78,3.967,3.968,3.967c2.187,0,3.968-1.78,3.968-3.967c0-2.211,1.788-4,3.999-4
		s3.999,1.789,3.999,4C351.886,446.497,346.52,451.862,339.92,451.862z"/>
	<path style="fill:#116FFF;" d="M332.876,435.897h-16.949c-2.211,0-3.999-1.788-3.999-3.999c0-2.21,1.788-3.999,3.999-3.999h16.949
		c2.21,0,3.998,1.789,3.998,3.999C336.874,434.109,335.086,435.897,332.876,435.897z"/>
	<path style="fill:#116FFF;" d="M363.915,483.886c-2.211,0-3.999-1.789-3.999-3.999v-23.994c0-2.211,1.788-4,3.999-4
		s3.999,1.789,3.999,4v23.994C367.914,482.097,366.126,483.886,363.915,483.886z"/>
	<path style="fill:#116FFF;" d="M493.127,414.02c-0.828,0-1.664-0.258-2.383-0.789c-1.772-1.312-2.147-3.819-0.827-5.593
		l9.661-13.028c1.32-1.765,3.819-2.132,5.593-0.828c1.773,1.312,2.147,3.82,0.828,5.593l-9.662,13.028
		C495.555,413.458,494.344,414.02,493.127,414.02z"/>
	<path style="fill:#116FFF;" d="M395.907,451.893h-16.004c-2.21,0-3.999-1.788-3.999-3.998c0-2.211,1.789-4,3.999-4h16.004
		c2.211,0,3.999,1.789,3.999,4C399.906,450.105,398.118,451.893,395.907,451.893z"/>
	<path style="fill:#116FFF;" d="M451.894,459.891c-6.616,0-11.997-5.381-11.997-11.996c0-2.211,1.788-4,3.999-4
		c2.21,0,3.999,1.789,3.999,4c0,2.202,1.796,3.998,3.999,3.998c2.202,0,3.999-1.796,3.999-3.998c0-2.211,1.788-4,3.999-4
		c2.21,0,3.999,1.789,3.999,4C463.891,454.51,458.509,459.891,451.894,459.891z"/>
	<path style="fill:#116FFF;" d="M483.886,451.893h-7.998c-2.21,0-3.999-1.788-3.999-3.998c0-2.211,1.789-4,3.999-4h7.998
		c2.21,0,3.999,1.789,3.999,4C487.885,450.105,486.096,451.893,483.886,451.893z"/>
	<path style="fill:#116FFF;" d="M427.899,451.893h-7.998c-2.21,0-3.998-1.788-3.998-3.998c0-2.211,1.788-4,3.998-4h7.998
		c2.211,0,4,1.789,4,4C431.899,450.105,430.11,451.893,427.899,451.893z"/>
	<path style="fill:#116FFF;" d="M467.89,479.605c-1.383,0-2.726-0.719-3.468-2l-3.999-6.936c-1.102-1.914-0.445-4.358,1.468-5.468
		c1.914-1.093,4.358-0.445,5.468,1.469l3.999,6.936c1.102,1.914,0.445,4.358-1.469,5.468
		C469.256,479.434,468.57,479.605,467.89,479.605z"/>
	<path style="fill:#116FFF;" d="M435.881,479.605c-0.687,0-1.374-0.172-1.999-0.539c-1.913-1.109-2.569-3.554-1.46-5.46l4.014-6.936
		c1.109-1.929,3.578-2.562,5.46-1.461c1.914,1.109,2.569,3.554,1.461,5.46l-4.015,6.936
		C438.6,478.887,437.256,479.605,435.881,479.605z"/>
	<path style="fill:#116FFF;" d="M16.887,432.789c-1.023,0-2.046-0.391-2.827-1.171L2.742,420.299c-1.562-1.562-1.562-4.093,0-5.654
		c1.562-1.562,4.093-1.562,5.655,0l11.318,11.317c1.562,1.562,1.562,4.093,0,5.655C18.934,432.398,17.911,432.789,16.887,432.789z"
		/>
	<path style="fill:#116FFF;" d="M400.031,52.238c-13.302,0-24.119-10.821-24.119-24.119S386.729,4,400.031,4
		s24.12,10.821,24.12,24.119S413.333,52.238,400.031,52.238z M400.031,11.998c-8.888,0-16.121,7.232-16.121,16.121
		s7.233,16.121,16.121,16.121c8.889,0,16.122-7.232,16.122-16.121S408.919,11.998,400.031,11.998z"/>
	<path style="fill:#116FFF;" d="M419.901,307.927h-7.998c-2.21,0-3.998-1.788-3.998-3.999c0-2.21,1.788-3.999,3.998-3.999h7.998
		c2.211,0,4,1.789,4,3.999C423.901,306.139,422.112,307.927,419.901,307.927z"/>
	<path style="fill:#116FFF;" d="M411.903,331.922c-2.21,0-3.998-1.789-3.998-4v-23.994c0-2.21,1.788-3.999,3.998-3.999
		c2.211,0,4,1.789,4,3.999v23.994C415.903,330.133,414.114,331.922,411.903,331.922z"/>
	<path style="fill:#116FFF;" d="M435.679,195.954h-31.774c-2.21,0-3.999-1.789-3.999-3.999s1.789-3.999,3.999-3.999h31.774
		c2.21,0,3.999,1.789,3.999,3.999S437.889,195.954,435.679,195.954z"/>
	<path style="fill:#116FFF;" d="M47.989,491.884c-17.644,0-31.993-14.349-31.993-31.993s14.349-31.992,31.993-31.992
		c10.443,0,20.253,5.124,26.251,13.708c1.266,1.812,0.82,4.304-0.992,5.569c-1.789,1.249-4.296,0.836-5.569-0.992
		c-4.499-6.443-11.856-10.287-19.691-10.287c-13.231,0-23.995,10.764-23.995,23.994c0,13.231,10.764,23.995,23.995,23.995
		c2.585,0,5.116-0.406,7.522-1.203c2.085-0.703,4.358,0.445,5.053,2.538c0.695,2.094-0.445,4.358-2.539,5.054
		C54.808,491.345,51.426,491.884,47.989,491.884z"/>
</g>
<g>
</g>
<g>
</g>
<g>
</g>
<g>
</g>
<g>
</g>
<g>
</g>
<g>
</g>
<g>
</g>
<g>
</g>
<g>
</g>
<g>
</g>
<g>
</g>
<g>
</g>
<g>
</g>
<g>
</g>
</svg>
