<?xml version="1.0" encoding="utf-8"?>
<!-- Generator: Adobe Illustrator 19.0.0, SVG Export Plug-In . SVG Version: 6.00 Build 0)  -->
<svg version="1.1" id="Calque_1" xmlns="http://www.w3.org/2000/svg" xmlns:xlink="http://www.w3.org/1999/xlink" x="0px" y="0px"
	 viewBox="-299 301 200 200" style="enable-background:new -299 301 200 200;" xml:space="preserve">
<style type="text/css">
	.st0{fill:none;stroke:#C0D7F1;stroke-width:3;stroke-miterlimit:10;}
	.st1{fill:none;stroke:#4FC1EA;stroke-width:3;stroke-linecap:round;stroke-linejoin:round;stroke-miterlimit:10;}
	.st2{fill:none;stroke:#4FC1EA;stroke-width:2;stroke-linecap:round;stroke-linejoin:round;stroke-miterlimit:10;}
	.st3{fill:none;stroke:#C0D7F1;stroke-linecap:round;stroke-linejoin:round;stroke-miterlimit:10;}
	.st4{fill:none;stroke:#C0D7F1;stroke-miterlimit:10;}
	.st5{fill:#4FC1EA;}
	.st6{fill:#C0D7F1;}
</style>
<g id="Layer_1_99_">
</g>
<g id="processor_1_">
</g>
<g id="cpu_1_">
</g>
<g id="printer_1_">
</g>
<g id="box_1_">
</g>
<g id="touch-pad_1_">
</g>
<g id="keyboard_1_">
</g>
<g id="cam-6_1_">
</g>
<g id="headphone_1_">
</g>
<g id="floppy_1_">
</g>
<g id="flat-wifi_1_">
</g>
<g id="two-line-wifi_1_">
</g>
<g id="i-phone-iol_1_">
</g>
<g id="responsive_1_">
</g>
<g id="tabs_1_">
</g>
<g id="wide_1_">
</g>
<g id="rotate_1_">
</g>
<g id="storager-load_1_">
</g>
<g id="storager-close_1_">
</g>
<g id="storager-download_2_">
</g>
<g id="storager-upload_1_">
</g>
<g id="storager-setting_1_">
</g>
<g id="storager-unloack_1_">
</g>
<g id="storager-lock_1_">
</g>
<g id="storager-refresh_1_">
</g>
<g id="storager_1_">
</g>
<g id="microsim_1_">
</g>
<g id="game-remote-3_1_">
</g>
<g id="game-remote-2_1_">
</g>
<g id="game-remote-1_1_">
</g>
<g id="game-remote_1_">
</g>
<g id="nano-sim_1_">
</g>
<g id="sim-card_1_">
</g>
<g id="plug-2_1_">
</g>
<g id="plug_1_">
</g>
<g id="wifi-adaptor-s_1_">
</g>
<g id="wifi-adaptor-r_1_">
</g>
<g id="socket_1_">
</g>
<g id="broken-link_1_">
</g>
<g id="link_1_">
</g>
<g id="network-tred_1_">
</g>
<g id="cloud-down_1_">
</g>
<g id="cloud-success_1_">
</g>
<g id="channel_1_">
</g>
<g id="locate-network_1_">
</g>
<g id="group-share_1_">
</g>
<g id="network-desktop_1_">
</g>
<g id="network-3_1_">
</g>
<g id="network-2_1_">
</g>
<g id="network-1_1_">
</g>
<g id="home-adaptor_1_">
</g>
<g id="wifi-adaptor_1_">
</g>
<g id="adoptor_1_">
</g>
<g id="drive-shelve_1_">
</g>
<g id="drive-3_1_">
</g>
<g id="drive_1_">
</g>
<g id="wifi-laptop_1_">
</g>
<g id="wifi-tab_1_">
</g>
<g id="wifi-mob_1_">
</g>
<g id="wifi_1_">
</g>
<g id="laptop-1_1_">
</g>
<g id="computer-2_1_">
</g>
<g id="old-computer_1_">
</g>
<g id="battery-connected_1_">
</g>
<g id="charging-3_1_">
</g>
<g id="charging-2_1_">
</g>
<g id="charging-1_1_">
</g>
<g id="battery_1_">
</g>
<g id="cam-4_1_">
</g>
<g id="radio-2_1_">
</g>
<g id="radio-1_1_">
</g>
<g id="radio_1_">
</g>
<g id="tape_1_">
</g>
<g id="magic-mouse_1_">
</g>
<g id="pendrive_1_">
</g>
<g id="button-mouse_1_">
</g>
<g id="ipod-pack_1_">
</g>
<g id="i-pod_1_">
</g>
<g id="flat-tv_1_">
</g>
<g id="watch-2_1_">
</g>
<g id="watch_1_">
</g>
<g id="cam-2_1_">
</g>
<g id="cam-1_1_">
</g>
<g id="tv_1_">
</g>
<g id="wirellesss_1_">
</g>
<g id="small-phone_1_">
</g>
<g id="phone_3_">
</g>
<g id="android-phone_1_">
</g>
<g id="i-phone_1_">
</g>
<g id="large_phone_1_">
</g>
<g id="i-pad_1_">
</g>
<g id="tesktop_1_">
</g>
<g id="laptop_1_">
</g>
<g id="cloud-close_1_">
</g>
<g id="plug-1_1_">
</g>
<g id="storager-leg_1_">
</g>
<g id="phone_2_">
</g>
<g id="cold-wifi_1_">
</g>
<g id="handycam_1_">
</g>
<g id="Layer_1_2_">
</g>
<g id="medium-box_2_">
</g>
<g id="minuse_2_">
</g>
<g id="timer_2_">
</g>
<g id="drawer-2_2_">
</g>
<g id="trash-box_2_">
</g>
<g id="book-label_2_">
</g>
<g id="folder-label_2_">
</g>
<g id="page-back_2_">
</g>
<g id="close-page_5_">
</g>
<g id="pages_2_">
</g>
<g id="list_2_">
</g>
<g id="wave_2_">
</g>
<g id="close-page_4_">
</g>
<g id="add-page_2_">
</g>
<g id="code_2_">
</g>
<g id="shift-mode_2_">
</g>
<g id="bookmarks_5_">
</g>
<g id="bookmarks_4_">
</g>
<g id="open-pages_2_">
</g>
<g id="note_2_">
</g>
<g id="locater_2_">
</g>
<g id="navigater_2_">
</g>
<g id="alarm_2_">
</g>
<g id="clock_2_">
</g>
<g id="time-3_2_">
</g>
<g id="time-1_2_">
</g>
<g id="time_2_">
</g>
<g id="downloads_2_">
</g>
<g id="uploads_2_">
</g>
<g id="drawer-1_2_">
</g>
<g id="mail_drawer_2_">
</g>
<g id="drawer_2_">
</g>
<g id="mail_5_">
</g>
<g id="mail-open_2_">
</g>
<g id="open_2_">
</g>
<g id="card_2_">
</g>
<g id="mails_2_">
</g>
<g id="mail_4_">
</g>
<g id="drag-l-t_2_">
</g>
<g id="comment_2_">
</g>
<g id="folder_2_">
</g>
<g id="trash_2_">
</g>
<g id="report-flag_2_">
</g>
<g id="setting-roll_2_">
</g>
<g id="spects_2_">
</g>
<g id="search_5_">
</g>
<g id="game-2_2_">
</g>
<g id="game_2_">
</g>
<g id="unloack_2_">
</g>
<g id="loack_2_">
</g>
<g id="settings-ui_2_">
</g>
<g id="abacuse_2_">
</g>
<g id="browser-check-box_2_">
</g>
<g id="browser-reload_2_">
</g>
<g id="browser-check_2_">
</g>
<g id="browser-close_2_">
</g>
<g id="browser-inus_2_">
</g>
<g id="browser-add_2_">
</g>
<g id="flowtting_2_">
</g>
<g id="popup_2_">
</g>
<g id="latter_2_">
</g>
<g id="details_2_">
</g>
<g id="blocks_2_">
</g>
<g id="locate_2_">
</g>
<g id="parabolla_2_">
</g>
<g id="check-box_2_">
</g>
<g id="slide-nav_2_">
</g>
<g id="share_2_">
</g>
<g id="profile_2_">
</g>
<g id="settings_2_">
</g>
<g id="expand_2_">
</g>
<g id="image_2_">
</g>
<g id="pause_2_">
</g>
<g id="player_2_">
</g>
<g id="imager_2_">
</g>
<g id="slider_2_">
</g>
<g id="slide-count_2_">
</g>
<g id="progress-bar_2_">
</g>
<g id="graph_2_">
</g>
<g id="statistics_2_">
</g>
<g id="cloud-reload_2_">
</g>
<g id="cloud-down_3_">
</g>
<g id="cloud-up_2_">
</g>
<g id="cloud_2_">
</g>
<g id="masonary_2_">
</g>
<g id="column_2_">
</g>
<g id="grid-block_2_">
</g>
<g id="horizontal_2_">
</g>
<g id="_x35_-column_2_">
</g>
<g id="_x31_-column_2_">
</g>
<g id="_x33_-column_2_">
</g>
<g id="sidebar_3_">
</g>
<g id="favorite_2_">
</g>
<g id="load_2_">
</g>
<g id="search-list_2_">
</g>
<g id="search_4_">
</g>
<g id="browser_3_">
</g>
<g id="change-mode_2_">
</g>
<g id="tick_2_">
</g>
<g>
	<path id="XMLID_25_" class="st0" d="M-153.5,464.4h-91c-2.5,0-4.5-2-4.5-4.5v-91c0-2.5,2-4.5,4.5-4.5h90.9c2.5,0,4.5,2,4.5,4.5
		v90.9C-149,462.3-151,464.4-153.5,464.4z"/>
	<circle id="XMLID_24_" class="st0" cx="-239.9" cy="373.5" r="1.1"/>
	<circle id="XMLID_23_" class="st0" cx="-230.8" cy="373.5" r="1.1"/>
	<circle id="XMLID_22_" class="st0" cx="-221.7" cy="373.5" r="1.1"/>
	<line id="XMLID_21_" class="st0" x1="-249" y1="382.6" x2="-149" y2="382.6"/>
	<g id="XMLID_13_">
		<line id="XMLID_8_" class="st1" x1="-178.4" y1="340.2" x2="-178.4" y2="347.3"/>
		<line id="XMLID_2_" class="st1" x1="-174.9" y1="343.8" x2="-182" y2="343.8"/>
	</g>
	<g id="XMLID_17_">
		<line id="XMLID_27_" class="st2" x1="-225.9" y1="329.9" x2="-225.9" y2="335.9"/>
		<line id="XMLID_26_" class="st2" x1="-222.9" y1="332.9" x2="-228.9" y2="332.9"/>
	</g>
	<g id="XMLID_28_">
		<line id="XMLID_30_" class="st3" x1="-202.7" y1="351.1" x2="-202.7" y2="354.3"/>
		<line id="XMLID_29_" class="st3" x1="-201.1" y1="352.7" x2="-204.3" y2="352.7"/>
	</g>
	<path id="XMLID_14_" class="st4" d="M-205.9,326.3c-0.1,0-0.2,0.1-0.3,0.1c-0.2,0-0.4,0-0.7,0c-0.8-0.2-1.3-1.1-1.1-1.9
		s1.1-1.3,1.9-1.1c0.8,0.2,1.3,1.1,1.1,1.9"/>
	<path id="XMLID_16_" class="st4" d="M-163.8,327.9c-0.1,0-0.2,0.1-0.3,0.1c-0.2,0-0.4,0-0.5,0c-0.7-0.2-1.1-0.9-0.9-1.6
		c0.2-0.7,0.9-1.1,1.6-0.9s1.1,0.9,0.9,1.6"/>
	<g>
		<g>
			<g>
				<path class="st5" d="M-175.3,400.2c-6-6-13.9-9.3-22.4-9.3s-16.4,3.3-22.4,9.3s-9.3,13.9-9.3,22.4s3.3,16.4,9.3,22.4
					s13.9,9.3,22.4,9.3s16.4-3.3,22.4-9.3s9.3-13.9,9.3-22.4C-166,414.2-169.3,406.2-175.3,400.2z M-170.4,412.7l-12.6,4
					c-1.6-3.9-4.7-7-8.7-8.7l4-12.6C-179.7,398.3-173.4,404.7-170.4,412.7z M-184.5,422.6c0,7.3-5.9,13.2-13.2,13.2
					s-13.2-5.9-13.2-13.2c0-7.3,5.9-13.2,13.2-13.2C-190.4,409.5-184.5,415.4-184.5,422.6z M-197.7,393.6c2.6,0,5.1,0.3,7.4,1
					l-4,12.6c-1.1-0.3-2.3-0.4-3.5-0.4s-2.4,0.1-3.5,0.4l-4-12.6C-202.7,394-200.2,393.6-197.7,393.6z M-207.6,395.4l4,12.6
					c-3.9,1.6-7,4.7-8.7,8.7l-12.6-4C-222,404.7-215.6,398.3-207.6,395.4z M-226.7,422.6c0-2.6,0.3-5.1,1-7.4l12.6,4
					c-0.3,1.1-0.4,2.3-0.4,3.5s0.1,2.4,0.4,3.5l-12.6,4C-226.4,427.7-226.7,425.2-226.7,422.6z M-224.9,432.6l12.6-4
					c1.6,3.9,4.7,7,8.7,8.7l-4,12.6C-215.6,447-222,440.6-224.9,432.6z M-197.7,451.7c-2.6,0-5.1-0.3-7.4-1l4-12.6
					c1.1,0.3,2.3,0.4,3.5,0.4s2.4-0.1,3.5-0.4l2.4,7.5c-1.9,0.5-3.8,0.7-5.8,0.7c-0.7,0-1.3,0.6-1.3,1.3c0,0.7,0.6,1.3,1.3,1.3
					c2.3,0,4.5-0.3,6.6-0.8l0.8,2.5C-192.6,451.3-195.1,451.7-197.7,451.7z M-187.7,449.9l-0.8-2.5c4.4-1.6,8.3-4.4,11.3-8.1
					c0.5-0.6,0.4-1.4-0.2-1.9c-0.6-0.5-1.4-0.4-1.9,0.2c-2.7,3.3-6.2,5.8-10,7.2l-2.4-7.6c3.9-1.6,7-4.7,8.7-8.7l12.6,4
					C-173.4,440.6-179.7,447-187.7,449.9z M-182.2,426.1c0.3-1.1,0.4-2.3,0.4-3.5s-0.1-2.4-0.4-3.5l12.6-4c0.6,2.4,1,4.9,1,7.4
					c0,2.6-0.3,5.1-1,7.4L-182.2,426.1z"/>
				<path class="st6" d="M-209.1,400.3c-0.4-0.6-1.2-0.9-1.8-0.5c-2.8,1.6-5.2,3.7-7.3,6.2c-0.5,0.6-0.4,1.4,0.2,1.9
					c0.2,0.2,0.5,0.3,0.8,0.3c0.4,0,0.8-0.2,1-0.5c1.8-2.3,4-4.1,6.5-5.6C-208.9,401.7-208.7,400.9-209.1,400.3z"/>
				<path class="st6" d="M-176.6,436.4c0.2,0.1,0.4,0.2,0.7,0.2c0.5,0,0.9-0.2,1.2-0.7l0,0c0.4-0.6,0.2-1.5-0.5-1.8
					c-0.6-0.4-1.5-0.2-1.8,0.5v0.1C-177.5,435.2-177.3,436-176.6,436.4z"/>
				<path class="st6" d="M-218.7,408.9c-0.6-0.4-1.5-0.1-1.8,0.5l0,0c-0.4,0.6-0.2,1.4,0.5,1.8c0.2,0.1,0.4,0.2,0.7,0.2
					c0.5,0,0.9-0.2,1.2-0.7v-0.1C-217.8,410.1-218.1,409.3-218.7,408.9z"/>
			</g>
		</g>
	</g>
</g>
</svg>
