<?xml version="1.0" encoding="utf-8"?>
<!-- Generator: Adobe Illustrator 19.0.0, SVG Export Plug-In . SVG Version: 6.00 Build 0)  -->
<svg version="1.1" xmlns="http://www.w3.org/2000/svg" xmlns:xlink="http://www.w3.org/1999/xlink" x="0px" y="0px"
	 viewBox="0 0 450 450" style="enable-background:new 0 0 450 450;" xml:space="preserve">
<style type="text/css">
	.st0{fill:#FFFFFF;stroke:#6EBDFF;stroke-miterlimit:10;}
	.st1{fill:#36AAEA;stroke:#6EBDFF;stroke-miterlimit:10;}
	.st2{fill:#C5EDF9;stroke:#6EBDFF;stroke-linecap:round;stroke-miterlimit:10;}
	.st3{fill:none;stroke:#6EBDFF;stroke-miterlimit:10;}
	.st4{fill:#6EBDFF;stroke:#6EBDFF;stroke-miterlimit:10;}
	.st5{fill:#A2DFFE;stroke:#6EBDFF;stroke-miterlimit:10;}
	.st6{fill:#B8DFF2;}
	.st7{fill:#236D9B;}
	.st8{fill:none;stroke:#6EBDFF;stroke-linecap:round;stroke-miterlimit:10;}
	.st9{fill:#6EBDFF;stroke:#236D9B;stroke-miterlimit:10;}
	.st10{fill:#FFFFFF;stroke:#236D9B;stroke-linecap:round;stroke-miterlimit:10;}
	.st11{fill:#B9E5EF;stroke:#236D9B;stroke-linecap:round;stroke-miterlimit:10;}
	.st12{fill:none;stroke:#236D9B;stroke-linecap:round;stroke-miterlimit:10;}
	.st13{fill:#A2DFFE;stroke:#236D9B;stroke-miterlimit:10;}
	.st14{fill:none;stroke:#236D9B;stroke-miterlimit:10;}
	.st15{fill:#C5EDF9;stroke:#236D9B;stroke-linecap:round;stroke-miterlimit:10;}
	.st16{fill:#FFFFFF;}
	.st17{fill:#36AAEA;stroke:#236D9B;stroke-miterlimit:10;}
	.st18{fill:#FFFFFF;stroke:#236D9B;stroke-miterlimit:10;}
	.st19{fill:#6EBDFF;stroke:#236D9B;stroke-linecap:round;stroke-miterlimit:10;}
</style>
<g id="Calque_5">
</g>
<g id="Calque_6">
</g>
<g id="Calque_7">
</g>
<g id="Calque_8">
</g>
<g id="Calque_9">
	<g>
		<g>
			<rect x="228.4" y="111.2" class="st0" width="142.6" height="109.3"/>
			<rect x="225.5" y="105.1" class="st1" width="148.3" height="6.1"/>
			<rect x="225.1" y="220.5" class="st1" width="149.1" height="2.6"/>
			<circle class="st2" cx="265.8" cy="133.4" r="14.5"/>
			<rect x="299.8" y="144.4" class="st3" width="50.2" height="2.6"/>
			<rect x="302.7" y="124.4" class="st4" width="11" height="20.1"/>
			<rect x="319.2" y="118.9" class="st5" width="10.3" height="25.5"/>
			<rect x="334.7" y="122.5" class="st2" width="10.8" height="21.9"/>
			<path class="st6" d="M281.2,153.6h-31.4c-0.3,0-0.5-0.2-0.5-0.5v-0.3c0-0.3,0.2-0.5,0.5-0.5h31.4c0.3,0,0.5,0.2,0.5,0.5v0.3
				C281.7,153.3,281.5,153.6,281.2,153.6z"/>
			<path class="st6" d="M349.4,153.6h-50.3c-0.3,0-0.5-0.2-0.5-0.5v-0.3c0-0.3,0.2-0.5,0.5-0.5h50.3c0.3,0,0.5,0.2,0.5,0.5v0.3
				C349.9,153.3,349.7,153.6,349.4,153.6z"/>
			<path class="st6" d="M349.4,181.4h-99.7c-0.3,0-0.5-0.2-0.5-0.5v-0.3c0-0.3,0.2-0.5,0.5-0.5h99.7c0.3,0,0.5,0.2,0.5,0.5v0.3
				C349.9,181.2,349.7,181.4,349.4,181.4z"/>
			<path class="st6" d="M349.4,157.3h-50.3c-0.3,0-0.5-0.2-0.5-0.5v-0.3c0-0.3,0.2-0.5,0.5-0.5h50.3c0.3,0,0.5,0.2,0.5,0.5v0.3
				C349.9,157.1,349.7,157.3,349.4,157.3z"/>
			<path class="st6" d="M349.4,161h-50.3c-0.3,0-0.5-0.2-0.5-0.5v-0.3c0-0.3,0.2-0.5,0.5-0.5h50.3c0.3,0,0.5,0.2,0.5,0.5v0.3
				C349.9,160.8,349.7,161,349.4,161z"/>
			<path class="st6" d="M349.4,164.7h-50.3c-0.3,0-0.5-0.2-0.5-0.5v-0.3c0-0.3,0.2-0.5,0.5-0.5h50.3c0.3,0,0.5,0.2,0.5,0.5v0.3
				C349.9,164.5,349.7,164.7,349.4,164.7z"/>
			<path class="st6" d="M349.4,168.5h-50.3c-0.3,0-0.5-0.2-0.5-0.5v-0.3c0-0.3,0.2-0.5,0.5-0.5h50.3c0.3,0,0.5,0.2,0.5,0.5v0.3
				C349.9,168.2,349.7,168.5,349.4,168.5z"/>
			<path class="st6" d="M329.6,172.2h-30.4c-0.3,0-0.5-0.2-0.5-0.5v-0.3c0-0.3,0.2-0.5,0.5-0.5h30.4c0.3,0,0.5,0.2,0.5,0.5v0.3
				C330.1,171.9,329.9,172.2,329.6,172.2z"/>
			<path class="st6" d="M281.2,157.3h-31.4c-0.3,0-0.5-0.2-0.5-0.5v-0.3c0-0.3,0.2-0.5,0.5-0.5h31.4c0.3,0,0.5,0.2,0.5,0.5v0.3
				C281.7,157.1,281.5,157.3,281.2,157.3z"/>
			<path class="st6" d="M281.2,161h-31.4c-0.3,0-0.5-0.2-0.5-0.5v-0.3c0-0.3,0.2-0.5,0.5-0.5h31.4c0.3,0,0.5,0.2,0.5,0.5v0.3
				C281.7,160.8,281.5,161,281.2,161z"/>
			<path class="st6" d="M317.3,185.9h-67.5c-0.3,0-0.5-0.2-0.5-0.5v-0.3c0-0.3,0.2-0.5,0.5-0.5h67.5c0.3,0,0.5,0.2,0.5,0.5v0.3
				C317.8,185.7,317.6,185.9,317.3,185.9z"/>
			<path class="st6" d="M266.1,164.7h-16.3c-0.3,0-0.5-0.2-0.5-0.5v-0.3c0-0.3,0.2-0.5,0.5-0.5h16.3c0.3,0,0.5,0.2,0.5,0.5v0.3
				C266.6,164.5,266.4,164.7,266.1,164.7z"/>
			<rect x="250.3" y="191" class="st6" width="11.3" height="5.6"/>
			<rect x="250.3" y="202.3" class="st6" width="11.3" height="5.3"/>
			<rect x="267.4" y="191" class="st6" width="11.3" height="5.6"/>
			<rect x="267.4" y="202.3" class="st6" width="11.3" height="5.3"/>
			<rect x="284.4" y="191" class="st7" width="11.3" height="5.6"/>
			<rect x="284.4" y="202.3" class="st7" width="11.3" height="5.3"/>
			<rect x="301.4" y="191" class="st6" width="11.3" height="5.6"/>
			<rect x="301.4" y="202.3" class="st6" width="11.3" height="5.3"/>
			<rect x="318.5" y="191" class="st6" width="11.3" height="5.6"/>
			<rect x="318.5" y="202.3" class="st6" width="11.3" height="5.3"/>
			<rect x="335.5" y="191" class="st6" width="11.3" height="5.6"/>
			<rect x="335.5" y="202.3" class="st6" width="11.3" height="5.3"/>
			<circle class="st3" cx="115.5" cy="130.4" r="17.4"/>
			<path class="st3" d="M117.9,130.4c0,1.3-1.1,2.4-2.4,2.4s-2.4-1.1-2.4-2.4c0-1.3,1.1-2.4,2.4-2.4c0.5,0,0.9,0.1,1.3,0.4
				C117.5,128.8,117.9,129.6,117.9,130.4z"/>
			<line class="st8" x1="116.8" y1="128.4" x2="119.5" y2="125.9"/>
			<line class="st8" x1="116.8" y1="132.4" x2="121.5" y2="136.8"/>
			<circle class="st0" cx="265.8" cy="133.4" r="9"/>
		</g>
		<g>
			<path class="st9" d="M99.5,203.2c0,0-4.4,2.5-5.7,1.6c-1.3-0.9-2.1-5.1-2.3-6.7c-0.2-1.5-2-5.3-1.9-7.8c0.1-2.5,0-12.1,12.1-15
				c0,0,5.8-1.2,15.9-0.6c0,0,1.5,0.6,0,4.9c0,0,2.2,3.3,1.8,6.3c-0.4,3-2.8,10.3-2.8,10.3l-9.7,2.4L99.5,203.2z"/>
			<polygon class="st10" points="99.5,214.7 100.7,204.8 109.4,206.5 110.4,207.2 109.9,215.6 			"/>
			<path class="st11" d="M113.4,213.6c0,0,4.9-2.1,8.3-1.5s9.2,6.9,9.2,6.9l6.8,10.1l-3.9,15.8l-26.2-6.1L113.4,213.6z"/>
			<path class="st9" d="M86.9,275.2c0,0-2.4,11.5,10.7,18.9c0,0,4.2,1,6.5,1s35.6,0,35.6,0l16.8,44.7h20.9l-27.2-59.6l-25-1.7
				L86.9,275.2z"/>
			<path class="st9" d="M169.7,121.5l12.7,7.3l16.7-6.7c0,0-0.1-8,0-12.2c0.1-4.2-5.1-5.8-6.4-6.3c-1.2-0.5-10.5-1.6-10.5-1.6
				c-0.9-1.2-6.4-1.3-6.4-1.3v3.2c-4.7,1.2-5.9,4.6-5.9,4.6l-0.3,13.5"/>
			<polygon class="st10" points="174.4,152.5 180.1,140 189.6,140 193.2,154.6 178.3,158.4 			"/>
			<path class="st9" d="M356.6,216.4l0.4-30.6c0,0,2.3-12.3,15.5-13.6c0,0,14.2-0.5,17.7,14v33.1l-14.7,2.3l-16.7-2.4L356.6,216.4z"
				/>
			<polygon class="st10" points="368.7,203.5 368.7,215.2 379.4,215.2 378.3,202.7 			"/>
			<polygon class="st9" points="203.7,225.7 204.7,338.6 191.3,338.6 185.8,249 174.8,332.1 174.8,338.6 163.9,337.3 162.2,221.8 
							"/>
			<path class="st10" d="M177.3,110.9h14.6c0,0,5.4,2.8,4.9,6.1l-0.3,16.7c0,0-1.1,9.9-12,11.6c0,0-8.5,0.1-11.9-10.3l-0.5-19.2
				C172,115.7,173.4,110.9,177.3,110.9z"/>
			<path class="st12" d="M172.2,121.6c0,0-3.6-0.5-3.8,3.2c-0.2,3.7,1.4,5.5,1.4,5.5l2.4,1.4"/>
			<path class="st12" d="M196.7,121.5c0,0,3.6-0.3,3.7,2.6c0,2.9-0.6,5.5-0.6,5.5s-1.1,2.1-3,2"/>
			<line class="st8" x1="175.5" y1="123.3" x2="180" y2="123.2"/>
			<line class="st8" x1="188.5" y1="123.3" x2="193.5" y2="123.3"/>
			<path class="st12" d="M186.1,124.5v9.7c0,0-3,2.7-3.5-0.6"/>
			<circle class="st7" cx="177.9" cy="127.1" r="1.1"/>
			<circle class="st7" cx="190.7" cy="127.1" r="1"/>
			<path class="st12" d="M180.7,138.4c0,0,2.8,1.3,7,0"/>
			<path class="st10" d="M204,260.1c0,0,6.9-5.8,8.1-9.2s-0.6-12.1-0.6-12.1h-6.7l0.1,13.2c0,0,0.2,3,2.9,0.5l0.1-6.7"/>
			<path class="st13" d="M204.7,349h-13.5l0.1-10.5h13.4c0,0,2.3,5.2,2.7,7.3c0.4,2.2,0,3.1,0,3.1H204.7z"/>
			<path class="st14" d="M176.7,107.8c0,0-0.8-2.1-0.8-3.8"/>
			<path class="st11" d="M325.3,252.2l25.9-35.5c0,0,5.3-6.6,9.2-2.4c3.9,4.2,2.9,13.2,2.9,13.2l-5.9,1.3l-15,20.5h6l0.1,11.1h-23.2
				C325.3,260.4,321.6,255.3,325.3,252.2z"/>
			<path class="st15" d="M392.4,248.1l0.3-16.6l12.6,17.6l-12.8-0.5l-4.9-0.2v12l26.5,0.2c10.8-3.1,5.3-11.5,5.3-11.5L400.5,223
				c-4.5-9.7-12.8-11-12.8-11s-17.3,0.3-24.7,0c-7.4-0.3-8.6,6.8-8.6,6.8v58.5h38.2l0.2-16"/>
			<path class="st10" d="M348.4,251.9c0,0,4-0.7,5.4,0c1.5,0.7,6.8,4.5,7.8,7.5c1,3,0,1.3,0,1.3l-13.1-0.3L348.4,251.9z"/>
			<path class="st10" d="M329.5,295.1l-3.2,2.1l-19.9,36.1l0.2,6.5c0,0-15.2,3.5-16.4,3.2s-2.1-2.2-2.1-2.2s5.9-6,8.7-8.1
				c2.7-2.1,14.9-46.5,14.9-46.5s13.8-8.9,16.2-9c2.4-0.1,19.9,0,19.9,0l-2.6,8.5"/>
			<path class="st13" d="M288,340.8c0,0-5.7,3.9-6.1,4.9c-0.3,1-0.2,2.5-0.2,2.5s20.5-1.3,24.1-2.7c3.6-1.4,0.7-5.8,0.7-5.8
				l-16.4,3.2C290.2,342.9,287.6,341.2,288,340.8z"/>
			<path class="st15" d="M394.5,301.6h-51c-0.8,0-1.5-0.7-1.5-1.5v-6c0-0.8,0.7-1.5,1.5-1.5h51c0.8,0,1.5,0.7,1.5,1.5v6
				C396,300.9,395.3,301.6,394.5,301.6z"/>
			<path class="st15" d="M374.5,310.9H364c-0.2,0-0.3-0.1-0.3-0.3v-8.6c0-0.2,0.1-0.3,0.3-0.3h10.5c0.2,0,0.3,0.1,0.3,0.3v8.6
				C374.8,310.7,374.7,310.9,374.5,310.9z"/>
			<rect x="364.9" y="310.9" class="st9" width="8.2" height="18.3"/>
			<rect x="363.7" y="329.1" class="st15" width="11.2" height="6.8"/>
			<path class="st9" d="M344.6,339.9c0,0-0.1-3.3,3.5-3.7c3.6-0.4,42.9-0.3,42.9-0.3s3.4,1.5,3,4H344.6z"/>
			<circle class="st9" cx="348.4" cy="344.8" r="3.7"/>
			<circle class="st9" cx="369.3" cy="344.8" r="3.7"/>
			<circle class="st9" cx="390" cy="344.8" r="3.7"/>
			<path class="st15" d="M135.1,304.5h-51c-0.8,0-1.5-0.7-1.5-1.5v-6c0-0.8,0.7-1.5,1.5-1.5h51c0.8,0,1.5,0.7,1.5,1.5v6
				C136.6,303.8,135.9,304.5,135.1,304.5z"/>
			<path class="st15" d="M115.2,310.9h-10.5c-0.2,0-0.3-0.1-0.3-0.3v-5.8c0-0.2,0.1-0.3,0.3-0.3h10.5c0.2,0,0.3,0.1,0.3,0.3v5.8
				C115.5,310.7,115.3,310.9,115.2,310.9z"/>
			<rect x="105.6" y="310.9" class="st9" width="8.2" height="18.3"/>
			<rect x="104.3" y="329.1" class="st15" width="11.2" height="6.8"/>
			<path class="st9" d="M85.2,339.9c0,0-0.1-3.3,3.5-3.7s42.9-0.3,42.9-0.3s3.4,1.5,3,4H85.2z"/>
			<circle class="st9" cx="89" cy="344.8" r="3.7"/>
			<circle class="st9" cx="109.9" cy="344.8" r="3.7"/>
			<path class="st10" d="M344,260.4c0,0,0.6-4.8,5.8-4.8c5.2,0.1,41.8,0,41.8,0v5L344,260.4z"/>
			<circle class="st9" cx="130.6" cy="344.8" r="3.7"/>
			<line class="st14" x1="382" y1="197.7" x2="383.4" y2="197.6"/>
			<path class="st10" d="M381.7,193l1.6-0.2c-0.3,0-2.5-0.6-3.6-6c-1-5.2-7.4-5.4-7.4-5.4c-2.8,5.4-10,5.2-10,5.2v12.2
				c0,0,1.7,8.5,10.7,8.7c9.1,0.2,10.4-8.4,10.4-8.4v-1.6c0,0,2.4-0.2,2-2.8c-0.3-2.6-2.2-2-2.2-2"/>
			<path class="st8" d="M374.8,190.6c0,0,2.4-0.6,3.2,0"/>
			<path class="st8" d="M364.6,190.5c0,0,3.1-0.4,3.5,0"/>
			<path class="st14" d="M369.8,202.3c0,0,0.8,1.3,4.5,0"/>
			<path class="st14" d="M369.8,197.7c0,0,0.8,0.7,2.5,0"/>
			<circle class="st7" cx="366.7" cy="193.7" r="0.7"/>
			<circle class="st7" cx="376.2" cy="193.7" r="0.8"/>
			<path class="st14" d="M372.3,178.3"/>
			<path class="st14" d="M360,186.5"/>
			<path class="st14" d="M385.2,189.7"/>
			<path class="st14" d="M370.8,181.8"/>
			<path class="st15" d="M86.9,261.3V278l38.3,0.5v-58.9c0,0,1.3-6.2-7.1-7.7c-8.4-1.6-27,0-27,0s-5.2,1.5-10.1,8.1
				s-20.9,29.4-20.9,29.4s-3.7,5.1,1.3,8.9c0,0,0,1.1,4.2,2.3l26.5,0.2v-11.6l-17.7,0.2L87,232.3v16.6"/>
			<line class="st14" x1="168.9" y1="339.8" x2="159.6" y2="312.9"/>
			<path class="st10" d="M92,249.2h4.7l7.3,6.8c0,0-0.2,2.6-1.4,2.7s-2.6,1.1-3.6,0.6c-1-0.6-1.7,0.7-2.8,0.2s-2.3,0.6-2.3,0.6H92
				v-10.3V249.2z"/>
			<line class="st14" x1="95.4" y1="252.9" x2="99.6" y2="259"/>
			<line class="st14" x1="94.1" y1="255.4" x2="96.1" y2="259"/>
			<path class="st10" d="M120.4,260.8H168l8.2-35c0,0-46.1-0.3-48,0c-1.9,0.3-3.4,4.8-3.4,4.8l-5.2,30.2h-9h-5.4l-0.7-3.3l11.7-0.3
				l5.4-28.4c0,0,1.3-5.5,11.5-3.9"/>
			<path class="st10" d="M116.8,187.4l0.5,6.8c0,0,2.4,0.4,2.1,2.7c-0.3,2.4-2.6,2.9-2.6,2.9c-0.5,4.5-4,6.7-4,6.7
				s-4.4,3.4-10.3,1.9c-5.9-1.5-7-9-7-9s-1.1-0.3-1.2-2.3c-0.1-2,1.2-2.6,1.2-2.6l-0.1-5.3c0,0,1.2-3.1,4.1-3.8
				c2.9-0.7,7.6,0.6,11.1-0.4c3.5-1.1,4-1.9,4-1.9S117.1,185.9,116.8,187.4z"/>
			<circle class="st7" cx="103.6" cy="195.2" r="0.9"/>
			<circle class="st7" cx="112.7" cy="195.2" r="0.9"/>
			<line class="st8" x1="101.1" y1="191.6" x2="105.3" y2="191.6"/>
			<line class="st8" x1="111.2" y1="192" x2="114.6" y2="192"/>
			<path class="st14" d="M108.7,192.6l1.7,5.7c0,0,0.6,2.2-0.3,2.2c-0.9,0-2.2,0-2.2,0"/>
			<line class="st12" x1="95.5" y1="194.7" x2="97.6" y2="194.7"/>
			<line class="st12" x1="95.5" y1="199.5" x2="97" y2="199.5"/>
			<path class="st14" d="M114.6,183.3c0,0,1.2-1.1,1.7-2.2"/>
			<path class="st14" d="M104.5,203.1c0,0,2.1,1.8,4.9,0.4"/>
			<path class="st10" d="M372.4,257.2l6.2-7.8h9.1v11l-6.2,0.2l0-1.1c0,0-1.8,0-2-1.5l-1.4,1.6c0,0-2,0.4-2.3-1.3
				C375.8,258.4,372.3,259.8,372.4,257.2z"/>
			<line class="st14" x1="375.8" y1="258.4" x2="379.9" y2="252.9"/>
			<line class="st14" x1="379.4" y1="258.1" x2="383.1" y2="252.9"/>
			<line class="st14" x1="381.5" y1="259.6" x2="385.1" y2="254.8"/>
			<path class="st9" d="M340.7,277.3h51.9c0,0,1.1,12.7-13.9,14.6h-38.1V277.3z"/>
			<path class="st13" d="M303.6,341.8c0,0-5.7,2.5-5.9,4.5c-0.2,2,5.9,1.9,5.9,1.9l14.7-2c0,0,6.5-4.4,7-4.9
				c0.5-0.6-3.1-5.6-3.2-6.1"/>
			<path class="st10" d="M303.6,341.8c0,0,4.7-5.7,9.1-6.6l14.6-50.6c0,0,3.2-8.3,13.4-7.3v14.6c0,0-18.3,40-18.5,41s0,3.1,0,3.1
				s-11.1,7.1-15.3,7S303.6,341.8,303.6,341.8z"/>
			<path class="st10" d="M156.5,193.8l1.8-37.4c0,0,2.1-5.3,5.7-5.3s38.3,0,38.3,0s6.5,1.5,6.5,8.4c0,7,3.6,79.2,3.6,79.2h-7.1
				l-0.5-5h-48.2V193.8z"/>
			<line class="st12" x1="202.7" y1="160.9" x2="204.7" y2="233.8"/>
			<line class="st12" x1="165.1" y1="164.4" x2="163.9" y2="216.3"/>
			<path class="st9" d="M182.8,159.7l-2.6-2.8c0,0-0.1-0.7,0-1.9c0.1-1.2,3.6-2.5,3.6-2.5s3.7,1.6,3.6,3.3c-0.1,1.7-2.3,3.8-2.3,3.8
				l1.5,2.5c0,0-1.2,25.7-2.2,27.2s-2.4-0.6-2.4-0.6s-1.6-24.4-1.9-25.9C179.8,161.3,182.8,159.7,182.8,159.7z"/>
		</g>
		<path class="st14" d="M374.3,177c0,0,0.3,2.2-2.3,4.9"/>
		<path class="st16" d="M122.8,246.8c0,0,2.2-20.6,5.5-20.3c3.3,0.3,4.5,0,4.5,0l-7.5,20.6L122.8,246.8z"/>
		<g>
			<rect x="53.4" y="260" class="st10" width="351.4" height="9.5"/>
			<line class="st12" x1="59.2" y1="269.5" x2="59.2" y2="349.2"/>
			<line class="st12" x1="69.5" y1="269.5" x2="69.5" y2="349.2"/>
			<line class="st12" x1="379.1" y1="269.5" x2="379.1" y2="348.9"/>
			<line class="st12" x1="389.6" y1="269.5" x2="389.6" y2="348.9"/>
			<path class="st15" d="M334.4,203.2c0,0,7.1-0.9,8.3,3.5v35.1c0,0-2.2,5.3-7.7,3.5c-5.5-1.8-16.3-14.1-16.3-14.1L334.4,203.2z"/>
			<polygon class="st12" points="321.8,242.8 321.8,249.3 329.8,258 330.2,260 295.8,260 304.5,240.6 			"/>
			<path class="st10" d="M277,209.2v36.1H335c0,0,4.9-0.8,4-7l0.1-31.4c0,0-0.8-3.9-4.7-3.8c-3.9,0.1-55,0-55,0s-2.5,0.9-2.5,3.5
				C277,209.2,277,209.2,277,209.2z"/>
		</g>
		<g>
			<polygon class="st13" points="244.3,342.7 267,334.9 270.8,334.9 273.9,348.3 244.3,348.7 			"/>
			<path class="st10" d="M200.1,226.2c0,0,1.4-2,2.1-2.5c0.7-0.6,8.6-4.9,8.6-4.9s0.6-0.3,1.2,0c0.6,0.3,5.3-3.3,5.3-3.3
				s2.8-1.8,2.7,2.1c0,0-6.4,6.9-8.1,7.8s-4.3,2.4-4.3,2.4l-2.8,3.4L200.1,226.2z"/>
			<path class="st12" d="M206.9,224.5l5.1-3.3c0,0,0.7-1.7,0-2.5"/>
			<path class="st10" d="M158.8,289.4l14.2-0.5c0,0-8.1,42.3-8.7,44c-0.6,1.7,10.7,6.7,10,8.2c-0.6,1.5-16.8-2.4-16.8-2.4l-2-2.4
				c0,0,0.9-41.8,1.8-43.3c1-1.5,1.2-4.1,1.2-4.1"/>
			<path class="st10" d="M178.2,281.6c0,0,6.5-2.2,11.4,2.6c5,4.7-3.4,30.4-3.4,30.4l-3.3,18.3l9.4,8.4c0,0-0.4,1.4-2.9,1.4
				s-15-5.8-15-5.8l1.8-50.3L178.2,281.6z"/>
			<path class="st13" d="M155.5,336.3l-0.6,12h3.1l1-4.3c0,0,11.4,6.3,20.7,4.5c0,0,1.8-3.9-2.2-6c-4-2.1-4.1-2.9-4.1-2.9
				s2.7,2-0.6,1.7c-3.3-0.3-15.2-2.7-15.2-2.7L155.5,336.3z"/>
			<path class="st10" d="M148.7,214.2v-14.4l-3.4-13.8l16.3-7.1l5.4,0.8l3.4,12.7l-2.6,1.8c0,0-0.1,1.5-0.4,2.4
				c-0.3,0.9,0.4,5.3-5.2,6c-5.6,0.8-1.5,2.3-1.5,2.3L160,215L148.7,214.2z"/>
			<path class="st9" d="M167.4,174.5c0,0-6.3-5.5-17.9-3.2c-11.6,2.3-13.4,20.3-13.4,20.3s-0.3,11.3,0.6,14.6c0,0,25.3,1.9,29,0.3
				c0,0-2.7-11.4-2.3-12.5c0,0-1.7-1.1-1.6-3.7c0.2-2.6,2.1-2.7,2.1-2.7s-0.1-5.8,4.2-8.8C168.1,178.9,169.1,176.5,167.4,174.5z"/>
			<path class="st12" d="M221.4,256.8c0,0-0.9,3.4,0,3.4c0.9,0,16.8,0,16.8,0v-2.7l-3.7-1.2L221.4,256.8z"/>
			<path class="st10" d="M223.5,254.2c0.4-0.2,10.3-3.8,10.3-3.8l6.6,0.6l0.6,5.7c0,0-4.1,0.8-6.6,0.5c-2.5-0.3-6.1,1.1-6.1,1.1
				l-2.3-1l-3.3-1.3L223.5,254.2z"/>
			<line class="st10" x1="225.2" y1="257" x2="234.5" y2="253.6"/>
			<path class="st17" d="M261.9,288l-1.5,48.9h12.3c0,0,6.1-46.4,5.2-50.2C277,282.8,261.9,288,261.9,288z"/>
			<path class="st13" d="M218.9,345.1c0.3-0.4,24.5-9.6,24.5-9.6l7.1-0.6l1.3,4.3v9.6l-32.2-0.5C219.5,348.3,217,347.4,218.9,345.1z
				"/>
			<path class="st10" d="M284.4,213.1l0.4-6.6c0,0-6.8-2.6-7.4-9.8c0,0-2.4-0.9-2.7-2.4c-0.4-1.5,3.1-7.7,3.1-7.7l-1.1-2.1
				c0,0-0.4-6.3,2.7-8.1s16.8-1.9,16.8-1.9l5.8,5.6l-0.9,17.3l-4.4,3.9l-0.1,13l-11.4,1.2L284.4,213.1z"/>
			<path class="st12" d="M290.3,207.7c0,0-4.8-0.3-5.5-1.2"/>
			<path class="st12" d="M281.7,198.9c0,0-0.5,1-3.6,0.9"/>
			<line class="st8" x1="278.8" y1="184.5" x2="284" y2="184.3"/>
			<circle class="st7" cx="282" cy="188.5" r="1.2"/>
			<path class="st9" d="M275.3,167.6c0,0-2.7,7.8,3.9,10.8l11.6,0.4c0,0,4.9,5.7,3.3,9.7l-0.1,1.2c0,0,5.9,2,0.7,5.7
				c0,0-0.3,5.8-1.1,7.2c-0.8,1.4,7.7,1,9.5-1.1c1.8-2.1,3.2-9.8,3.2-9.8s3.9-8.8-0.5-16.1s-12.3-8.4-12.3-8.4l-17.9-0.2
				L275.3,167.6z"/>
			<path class="st9" d="M129,275.5l-1.8,13.1l6.5,6.6h42l6.6-14.2c0,0-28.6-4.9-33.5-5.5c-4.9-0.6-13.7,0-13.7,0H129z"/>
			<path class="st13" d="M174.4,336.9l-0.4,11.3h3.8l0.2-4.3c0,0,9.8,4.9,15.4,4.3c5.6-0.5,5.6-0.5,5.6-0.5s0.9-3.9-3.5-5.1
				s-3.2-1.2-3.2-1.2s-0.8,1.5-2.9,1.4C187.2,342.6,174.4,336.9,174.4,336.9z"/>
			<path class="st9" d="M239.4,337.9h12.9c0,0,4-40.9,3.9-42.7c-0.2-1.8,56.6,0,56.6,0v-25.5l-36.7-1.3l-5.4,10.1h-19.9
				c0,0-10.3,5.3-9.4,13.5C242.4,300.3,239.4,337.9,239.4,337.9z"/>
			<path class="st15" d="M270.7,278.5h43.9v-58.9c0,0-0.1-7.4-11.2-8.4c-11.2-1.1-28.8,0-28.8,0s-5.7,2.7-6.6,8.7
				c-0.9,5.9-11.5,27.2-11.5,27.2s-14,2.5-18.8,1.9c0,0,0.9,10.3,0.3,11s25.4,0.3,25.4,0.3s5.9-5,7.1-7.4c1.2-2.4,1.2,3.6,1.2,3.6
				L270.7,278.5z"/>
			<line class="st12" x1="282.6" y1="228.1" x2="270.5" y2="252.7"/>
			<line class="st12" x1="164.9" y1="231" x2="168.8" y2="240.1"/>
			<path class="st15" d="M125.2,282.1l9.3-63.2c0,0,3.8-7.2,10.5-7.4s24.9,0,24.9,0s4.6,2.4,5.6,5.9s10.8,24.3,10.8,24.3l11.9-17.6
				l7.8,7.9c0,0-12.3,22.2-13.2,23.6s-3.7,4.9-8.2,4.9c-4.5,0-7.9-3.8-7.9-3.8l-7.8-16.6c0,0-3,5.7-5.9,7.2l-4.2,29.4l-17.2-0.5
				L125.2,282.1z"/>
		</g>
		<line class="st15" x1="164.9" y1="228.5" x2="168.8" y2="240.6"/>
		<polygon class="st18" points="129.1,301.1 129.7,348.4 132.2,348.4 134.3,299.8 		"/>
		<polygon class="st18" points="158.9,301.3 160.6,349 163.1,349 163.1,300.9 		"/>
		<path class="st13" d="M116.6,250.8l6,50.3c0,0-0.3,4.3,4.3,4l38.8,0c0,0,2.5-0.7,2.5-3.6c0.1-2.9,0-3.7,0-3.7s0-2.7-3.4-2.6
			c-3.4,0.1-6.3,0.2-6.3,0.2l-9.2-45.6c0,0-0.4-2.6-4.1-2.2c-3.8,0.4-26.9,0-26.9,0S116,247.7,116.6,250.8z"/>
		<line class="st14" x1="159.4" y1="299.2" x2="158.5" y2="295.4"/>
		<path class="st13" d="M318.9,304.9h-47.8c0,0-3.3-0.1-3-3.3c0.3-3.2,0-3.5,0-3.5s0.2-3,3.5-2.7c3.3,0.3,14.5,0,14.5,0l9.5-45.5
			c0,0,0.7-2.4,3.2-2.3c2.5,0.2,28.3,0.4,28.3,0.4s1.7,0.2,1.2,3.3c-0.5,3.1-6.3,50.8-6.3,50.8S322,305.2,318.9,304.9z"/>
		<line class="st14" x1="285" y1="298.9" x2="286.1" y2="295.4"/>
		<path class="st13" d="M300.2,311.9h-10.5c-0.1,0-0.3-0.1-0.3-0.3v-6.4c0-0.1,0.1-0.3,0.3-0.3h10.5c0.1,0,0.3,0.1,0.3,0.3v6.4
			C300.5,311.8,300.3,311.9,300.2,311.9z"/>
		<rect x="291" y="311.9" class="st9" width="8.1" height="17.9"/>
		<path class="st13" d="M300,336.4h-10.2c-0.2,0-0.4-0.2-0.4-0.4v-5.8c0-0.2,0.2-0.4,0.4-0.4H300c0.2,0,0.4,0.2,0.4,0.4v5.8
			C300.5,336.2,300.3,336.4,300,336.4z"/>
		<path class="st13" d="M270.4,340.7c0,0,1.2-4.3,4.1-4.3s42.3,0,42.3,0s2.8,1.3,3.1,4.1L270.4,340.7z"/>
		<circle class="st13" cx="274.4" cy="344.7" r="3.2"/>
		<circle class="st13" cx="295.2" cy="344.7" r="3.2"/>
		<circle class="st13" cx="315.9" cy="344.7" r="3.2"/>
		<line class="st19" x1="15" y1="349.2" x2="435" y2="349.2"/>
	</g>
</g>
</svg>
