<?xml version="1.0" encoding="utf-8"?>
<!-- Generator: Adobe Illustrator 19.0.0, SVG Export Plug-In . SVG Version: 6.00 Build 0)  -->
<svg version="1.1" xmlns="http://www.w3.org/2000/svg" xmlns:xlink="http://www.w3.org/1999/xlink" x="0px" y="0px"
	 viewBox="-674 376 450 450" style="enable-background:new -674 376 450 450;" xml:space="preserve">
<style type="text/css">
	.st0{clip-path:url(#SVGID_2_);}
	.st1{fill:none;stroke:#236D9B;stroke-linecap:round;stroke-miterlimit:10;}
	.st2{fill:#6EBDFF;stroke:#236D9B;stroke-miterlimit:10;}
	.st3{fill:#FFFFFF;stroke:#236D9B;stroke-linecap:round;stroke-miterlimit:10;}
	.st4{fill:#C5EDF9;stroke:#236D9B;stroke-linecap:round;stroke-miterlimit:10;}
	.st5{fill:#236D9B;}
	.st6{fill:#A5D1F6;stroke:#236D9B;stroke-linecap:round;stroke-miterlimit:10;}
	.st7{fill:none;stroke:#236D9B;stroke-miterlimit:10;}
	.st8{fill:#A2DFFE;stroke:#236D9B;stroke-miterlimit:10;}
	.st9{clip-path:url(#SVGID_2_);fill:#FFFFFF;stroke:#236D9B;stroke-width:1.6;stroke-linecap:round;stroke-miterlimit:10;}
	.st10{clip-path:url(#SVGID_2_);fill:#6EBDFF;stroke:#236D9B;stroke-width:1.6;stroke-miterlimit:10;}
	.st11{clip-path:url(#SVGID_2_);fill:#C5EDF9;stroke:#236D9B;stroke-width:1.6;stroke-linecap:round;stroke-miterlimit:10;}
	.st12{clip-path:url(#SVGID_2_);fill:none;stroke:#236D9B;stroke-width:1.6;stroke-miterlimit:10;}
	.st13{clip-path:url(#SVGID_2_);fill:#236D9B;}
	.st14{clip-path:url(#SVGID_2_);fill:#6EBDFF;}
	.st15{clip-path:url(#SVGID_2_);fill:#C5EDF9;}
</style>
<g id="Calque_2">
</g>
<g id="Calque_3">
</g>
<g id="Calque_4">
</g>
<g id="Calque_5_1_">
	<g>
		<defs>
			<rect id="SVGID_1_" x="-647.3" y="455.1" width="396.7" height="291.7"/>
		</defs>
		<clipPath id="SVGID_2_">
			<use xlink:href="#SVGID_1_"  style="overflow:visible;"/>
		</clipPath>
		<g class="st0">
			<line class="st1" x1="-569.5" y1="571.5" x2="-570.3" y2="642.2"/>
			<path class="st2" d="M-613.5,568.5v-35.3c0,0,4.6-19.3,21.4-18.1c0,0,15.7,0.2,19.2,16.5l0.7,37.3L-613.5,568.5z"/>
			<polygon class="st3" points="-597.2,746.9 -594.7,707.5 -609.5,707.5 -609,746.9 -608.8,750 -597.6,750 			"/>
			<polygon class="st3" points="-577.1,746.9 -574.6,707.5 -589.4,707.5 -588.9,746.9 -588.8,750 -577.5,750 			"/>
			<path class="st3" d="M-562.5,660.9c0,0,1.8,10-7.6,9.2c-9.3-0.8-5.7-9.2-5.7-9.2H-562.5z"/>
			<polygon class="st3" points="-599.3,564.6 -598.5,551.5 -586.5,553.3 -587,565.6 			"/>
			<path class="st1" d="M-580.8,523.2"/>
			<line class="st1" x1="-604.9" y1="545.8" x2="-603.4" y2="545.8"/>
			<polygon class="st2" points="-614.1,707.5 -616.3,638 -569.9,639.5 -570.3,707.5 -609.5,707.5 			"/>
			<line class="st1" x1="-605.4" y1="536.4" x2="-607.3" y2="536.4"/>
			<path class="st1" d="M-579.6,532.6c0,0,0.8,0.4,2.2,0"/>
			<path class="st1" d="M-589.7,526.6c0,0-1.1-3.8-1.6-4.8"/>
			<path class="st4" d="M-623.9,660.9l4.2-90.8c0,0-0.3-5.8,7.1-7.6s40.7,0,40.7,0s6.6,1,7,8.3c0.4,7.3,4.6,90,4.6,90h-9.5
				l-0.4-18.8l-36.6-0.1l-1,18.9v1L-623.9,660.9z"/>
			<line class="st1" x1="-603.4" y1="571.5" x2="-606.8" y2="642"/>
			<path class="st3" d="M-622.3,661c0,0-1.1,8.9,5,8.9c0,0,8.5,1.5,7.8-8L-622.3,661z"/>
			<line class="st3" x1="-570.3" y1="642.2" x2="-572.2" y2="573.4"/>
			<path class="st3" d="M-605.4,540c0,0-2.1,0-1.9,2.6s2.3,3.1,2.3,3.1c0.3,10.4,12,11.7,12,11.7c10.4,0.7,13.4-11.5,13.4-11.5
				v-13.3c0,0-9.4-2.9-10.2-6.1c0,0-6.5,10.6-15.6,9.9V540h1.9"/>
			<line class="st1" x1="-595.7" y1="537.7" x2="-592.9" y2="537.7"/>
			<line class="st1" x1="-585.6" y1="537.7" x2="-583.3" y2="537.7"/>
			<path class="st1" d="M-594,550.3c0,0,2.4,1.8,5.7,0.2"/>
			<path class="st1" d="M-589,538.1l2,6c0,0,0.8,2-0.4,2.5c-1.3,0.5-2.3,0-2.3,0"/>
		</g>
		<g class="st0">
			<polygon class="st3" points="-406.9,555.9 -406.9,572.6 -394,572.6 -394.7,556.7 			"/>
			<path class="st2" d="M-413.3,555.1c0,0-6.4-8.5-6-17.4c0.4-8.9,4.8-13.2,4.8-13.2s6.9-7.1,16.3-5.3c9.5,1.9,11.7,10.1,11.7,10.1
				s0.9,7.6-1.5,10.8C-390.5,543.4-402.5,559.6-413.3,555.1z"/>
			<polygon class="st4" points="-377.9,642.2 -377.9,746.9 -392.5,746.9 -398.9,663.5 -403.7,663.5 -410.4,748.3 -429.5,746.9 
				-429.5,642 			"/>
			<line class="st1" x1="-394" y1="663.4" x2="-409.1" y2="663.4"/>
			<path class="st3" d="M-413.4,548c0,0-1.1,14.2,13.7,12.8c14.8-1.4,13.2-14.6,13.2-14.6l-0.3-13.2c0,0,0.8-7.1-15.2-5.8
				c0,0-10.3,4.1-11.4,13.4l-0.2,1.3c0,0-2.2,1.3-1.9,3.7C-415.2,548-413.4,548-413.4,548z"/>
			<path class="st1" d="M-396.8,540.2c0,0.1,2.7,8.3,2.7,8.3s-0.3,1.4-0.9,1.6c-0.6,0.3-3-0.5-3-0.5"/>
			<path class="st1" d="M-401.1,554.1c0,0,3.3,1,5.4,0"/>
			<circle class="st5" cx="-402.4" cy="540.2" r="0.7"/>
			<circle class="st5" cx="-391.6" cy="540.2" r="0.6"/>
			<line class="st3" x1="-413.7" y1="541.9" x2="-410.9" y2="541.9"/>
			<line class="st3" x1="-413.4" y1="548" x2="-412" y2="548"/>
			<path class="st3" d="M-426.6,566.7h42.1c0,0,9.8,2.2,12.5,3.5c2.7,1.2,4.1,79.8,4.1,79.8h-71.7L-426.6,566.7z"/>
		</g>
		<g class="st0">
			<path class="st2" d="M-538.4,550.5c0,0-4.6,1-6.5-2.6c-2-3.6-3.1-13.4-3.1-13.4s0.3-9.4,7.1-14.1c6.8-4.7,11.1-3.3,11.1-3.3
				s11.8,0.2,13.8,0.1c2-0.1-1,7.8-1,7.8s2.4,4.2,1.7,6.4C-516,533.7-538.4,550.5-538.4,550.5z"/>
			<polygon class="st3" points="-535.7,552.4 -536.1,564.8 -523.5,564.8 -523.5,553 			"/>
			<path class="st3" d="M-500.8,660.7c0,0,1.5,9.8-5.8,9.5s-8.3-8.5-8.3-8.5L-500.8,660.7z"/>
			<polygon class="st2" points="-553.6,633.7 -554.7,751.2 -540.2,751.2 -534.3,654.6 -530.2,655.2 -524.1,751.2 -509.7,751.2 
				-509.7,633.7 			"/>
			<path class="st3" d="M-558.6,660.7l3.9-90.5c0,0,1.6-8.4,9.7-7.6l35.7-0.1c0,0,6.9,2.9,6,9.4c-0.8,6.6,4.2,88.7,4.2,88.7h-9.9
				l-0.7-19.2h-31.8l-0.8,20.2L-558.6,660.7z"/>
			<polyline class="st3" points="-538,571.3 -541.5,641.5 -542.4,661.6 			"/>
			<line class="st3" x1="-510.6" y1="573" x2="-509.7" y2="641.5"/>
			<path class="st1" d="M-530.2,655.2c0,0,4.7,0.7,5.7,0"/>
			<path class="st3" d="M-556.7,660.8c0,0-1.7,8.9,5.1,9.4c0,0,8.4,0.4,7.5-8.6L-556.7,660.8z"/>
			<polygon class="st6" points="-531,567.5 -526.7,564.1 -523,568 -526.4,572.1 			"/>
			<polygon class="st6" points="-526.4,572.1 -530.2,575.4 -528.3,605.6 -526.4,606.9 -524.8,605.2 -523,575.6 			"/>
			<path class="st3" d="M-541.5,548.6c0,0,2.3,7.8,12.3,8.9c0,0,8.7,0.3,12.4-8.9c0,0,1.4-14.8,0.7-17.3c0,0-1.9-3.9-2.4-4.2
				c-0.6-0.3-2.6,2.9-7.5,2.7c-4.9-0.2-9.6,0-10.6,0.4c-1,0.4-4.5,1.9-4.8,4.6s0,4.8,0,4.8s-2.1,0.4-2.2,3c0,2.6,1.3,3.2,1.3,3.2
				l0.7,0.2L-541.5,548.6z"/>
			<line class="st1" x1="-541.5" y1="539.5" x2="-539.7" y2="539.5"/>
			<line class="st1" x1="-541.6" y1="545.9" x2="-540.1" y2="546.1"/>
			<path class="st1" d="M-526,537.5l2.5,7.4c0,0,0,2-1.3,1.9c-1.3-0.1-1.5-0.2-1.5-0.2"/>
			<path class="st1" d="M-530.5,550.2c0,0,1.9,1.7,5.6,0.7"/>
			<circle class="st5" cx="-530.5" cy="537.5" r="1"/>
			<circle class="st5" cx="-521.6" cy="537.5" r="1"/>
			<path class="st4" d="M-531.8,709.9h-39c-2.5,0-4.5-2-4.5-4.5v-27.6c0-2.5,2-4.5,4.5-4.5h8.3h30.8c2.5,0,4.5,2,4.5,4.5v27.6
				C-527.4,707.9-529.4,709.9-531.8,709.9z"/>
			<path class="st7" d="M-562.6,673.4V669c0,0,0.1-2,2.7-2s19,0.3,19,0.3s2.1,0.4,2,2l0,4.2"/>
			<polygon class="st2" points="-575.3,679.9 -527.4,680.3 -527.4,701.9 -575.3,700.8 			"/>
			<path class="st8" d="M-575.3,682.1l4.3,8.8c0,0,0.7,2.1,3.2,2.1s34.7,0.3,34.7,0.3s1.3,0.1,1.9-1.6c0.6-1.7,3.8-9.5,3.8-9.5v-4.3
				c0,0,0-4.1-4.3-4.5c-4.3-0.4-40.3,0.1-40.3,0.1s-3,0.5-3.4,4.3V682.1z"/>
			<path class="st4" d="M-547.5,698h-7.2c-1.3,0-2.4-1.1-2.4-2.4v-3.9c0-1.3,1.1-2.4,2.4-2.4h7.2c1.3,0,2.4,1.1,2.4,2.4v3.9
				C-545,696.9-546.1,698-547.5,698z"/>
			<path class="st5" d="M-550.1,694.7h-1.8c-0.5,0-1-0.4-1-1v-0.4c0-0.5,0.4-1,1-1h1.8c0.5,0,1,0.4,1,1v0.4
				C-549.1,694.3-549.5,694.7-550.1,694.7z"/>
		</g>
		<g class="st0">
			<path class="st2" d="M-363.6,531c0,0-0.6-6.9,0.8-8.4c1.4-1.5-0.5-1.8-0.5-1.8s-1.8-6.4,4.7-7.5c6.5-1.1,10.9,0.3,12.6,0
				c1.7-0.3,11.8,2.1,15.1,11.3c3.3,9.2,0.7,13.9,0.7,13.9s-2.3,7.9-2.2,8.9c0.1,1-3.6,4.3-8.3,4C-345.4,551-363.6,531-363.6,531z"
				/>
			<path class="st3" d="M-380.6,660.7c0,0-1.8,8.5,5.7,9.6s8.3-5.6,8.3-5.6v-3.5L-380.6,660.7z"/>
			<polygon class="st2" points="-372.1,641.5 -372.7,752.5 -356.4,752.5 -350.6,661.2 -345.7,661.2 -339.6,752.5 -323.9,752.5 
				-323.9,643.6 			"/>
			<line class="st7" x1="-356.4" y1="661.2" x2="-350.6" y2="661.2"/>
			<path class="st3" d="M-331.6,660.7c0,0-1.4,7.9,5.1,9.5c6.5,1.6,8.6-4.3,8.6-4.3l0.1-5.2H-331.6z"/>
			<polygon class="st3" points="-355.5,565.8 -355.2,552.8 -342.1,552.8 -342.1,565.8 			"/>
			<path class="st3" d="M-349.5,556.8c0,0,9.3-0.4,13-8.5c0,0,0.8-2.7,0.8-4.3c0,0,2-1.2,1.5-3.1c0,0,0.2-2.7-2.4-3.2l0.1-6
				c0,0-1.4-5.3-6.9-5.3c-5.4,0-12-0.2-13.4-1c-1.5-0.8-4.1-1.6-4.3-2.3c0,0-2.5,5.4-2.5,7.5s0,14.7,0,14.7
				S-361.6,556.6-349.5,556.8z"/>
			<line class="st7" x1="-338.4" y1="537.9" x2="-336.5" y2="537.8"/>
			<line class="st7" x1="-338" y1="544.3" x2="-335.7" y2="544.1"/>
			<path class="st7" d="M-350.4,534h8.5v3.9c0,0-1,1.7-2.3,1.7s-3.9,0-3.9,0s-1.5-0.6-2-1.9C-350.4,536.2-350.4,534-350.4,534z"/>
			<path class="st7" d="M-363.6,534h7.4l0.2,2.8c0,0-0.8,2.5-2,2.5c-1.1,0-4.5,0-4.5,0s-1.4-1.2-1.3-1.7
				C-363.6,536.9-363.6,534-363.6,534z"/>
			<line class="st7" x1="-350.4" y1="535.6" x2="-356" y2="535.6"/>
			<line class="st7" x1="-341.8" y1="535.6" x2="-336.7" y2="537.8"/>
			<path class="st7" d="M-353.2,536.7l-1.8,5.7c0,0-0.6,0.8-0.2,1.9c0.3,1.1,2.6,1.2,2.6,1.2"/>
			<path class="st7" d="M-354.2,549.5c0,0,2.1,1.6,5.9-0.2"/>
			<g>
				<path class="st4" d="M-372.1,648.1v13.2l-11.1-0.7l4.5-90.3c0,0,0.7-6.8,7.5-7.6s44.3,0,44.3,0s6.3,4.4,7.5,9.6
					c1.1,5.1,3.5,88.5,3.5,88.5h-17.6l-1.1-12.8L-372.1,648.1z"/>
				<line class="st7" x1="-338.4" y1="577.7" x2="-334.5" y2="647.9"/>
				<polyline class="st7" points="-373.4,576.2 -373.4,647.9 -372.1,648.1 				"/>
			</g>
		</g>
		<g class="st0">
			<line class="st1" x1="-318.2" y1="571.5" x2="-317.4" y2="642.2"/>
			<path class="st2" d="M-274.2,568.5v-35.3c0,0-4.6-19.3-21.4-18.1c0,0-15.7,0.2-19.2,16.5l-0.7,37.3L-274.2,568.5z"/>
			<polygon class="st3" points="-290.5,746.9 -293,707.5 -278.2,707.5 -278.7,746.9 -278.9,750 -290.1,750 			"/>
			<polygon class="st3" points="-310.6,746.9 -313.1,707.5 -298.3,707.5 -298.8,746.9 -298.9,750 -310.2,750 			"/>
			<path class="st3" d="M-325.2,660.9c0,0-1.8,10,7.6,9.2c9.3-0.8,5.7-9.2,5.7-9.2H-325.2z"/>
			<polygon class="st3" points="-288.4,564.6 -289.2,551.5 -301.1,553.3 -300.7,565.6 			"/>
			<path class="st1" d="M-306.9,523.2"/>
			<line class="st1" x1="-282.8" y1="545.8" x2="-284.3" y2="545.8"/>
			<polygon class="st4" points="-273.6,707.5 -271.4,638 -317.8,639.5 -317.4,707.5 -278.2,707.5 			"/>
			<line class="st1" x1="-282.3" y1="536.4" x2="-280.4" y2="536.4"/>
			<path class="st1" d="M-308.1,532.6c0,0-0.8,0.4-2.2,0"/>
			<path class="st1" d="M-298,526.6c0,0,1.1-3.8,1.6-4.8"/>
			<path class="st2" d="M-263.8,660.9l-4.2-90.8c0,0,0.3-5.8-7.1-7.6s-40.7,0-40.7,0s-6.6,1-7,8.3c-0.4,7.3-4.6,90-4.6,90h9.5
				l0.4-18.8l36.6-0.1l1,18.9v1L-263.8,660.9z"/>
			<line class="st1" x1="-284.2" y1="571.5" x2="-280.9" y2="642"/>
			<path class="st3" d="M-265.4,661c0,0,1.1,8.9-5,8.9c0,0-8.5,1.5-7.8-8L-265.4,661z"/>
			<line class="st3" x1="-317.4" y1="642.2" x2="-315.5" y2="573.4"/>
			<path class="st3" d="M-282.3,540c0,0,2.1,0,1.9,2.6c-0.2,2.6-2.3,3.1-2.3,3.1c-0.3,10.4-12,11.7-12,11.7
				c-10.4,0.7-13.4-11.5-13.4-11.5v-13.3c0,0,9.4-2.9,10.2-6.1c0,0,6.5,10.6,15.6,9.9V540h-1.9"/>
			<line class="st1" x1="-292" y1="537.7" x2="-294.8" y2="537.7"/>
			<line class="st1" x1="-302.1" y1="537.7" x2="-304.4" y2="537.7"/>
			<path class="st1" d="M-293.7,550.3c0,0-2.4,1.8-5.7,0.2"/>
			<path class="st1" d="M-298.7,538.1l-2,6c0,0-0.8,2,0.4,2.5s2.3,0,2.3,0"/>
		</g>
		<path class="st9" d="M-464.8,547.9c0,0,6.6-4.2,6.6-15.1h16.9c0,0,0.8,15.1,5.6,16C-430.9,549.6-464.8,547.9-464.8,547.9z"/>
		<path class="st10" d="M-472.8,506.1V483c0,0,1.4-7.2,9.3-9.1l0.2-4.5c0,0,12.2,2.4,15.8,2c0,0,12.5,1,15.6,3.9s5.6,4.4,5.4,11
			c-0.1,6.6-0.3,20.2-0.3,20.2L-472.8,506.1z"/>
		<path class="st11" d="M-484.1,581.6v70.8v11.5h69.1v-80.1l17.4,24.7l-18.9,44.3l18.9,6l21.9-46.7c0,0,1.9-7.2-2-11.7
			s-32.1-45-32.1-45s-8.6-9.9-21.9-10c-13.2-0.1-40.9,0.4-40.9,0.4s-8.3,0-17.6,8.9s-32,44.8-32,44.8s-5.7,6.7-2.2,14.8
			c3.5,8.1,22.3,44.6,22.3,44.6l19-6.4l-20.3-43.8L-484.1,581.6z"/>
		<line class="st12" x1="-480.7" y1="577" x2="-484.1" y2="581.6"/>
		<line class="st12" x1="-419.7" y1="577.4" x2="-415" y2="583.8"/>
		<path class="st9" d="M-486.6,653.6c0,0,6.2,18.1,6.2,19.8c0,0,0.3,2.8-1.6,3.3c-1.9,0.5-1.9,0-1.9,0l6,7.7l-1.5,4.6
			c0,0-14.1-11.6-15.5-16.7v-8.6l-3.3-6.2L-486.6,653.6z"/>
		<path class="st12" d="M-488.5,664.4l2.9,10.7c0,0,0.6,1.9,2.6,1.7"/>
		<path class="st9" d="M-414.3,653.6c0,0-6.2,18.1-6.2,19.8c0,0-0.3,2.8,1.6,3.3c1.9,0.5,1.9,0,1.9,0l-6,7.7l1.5,4.6
			c0,0,14.1-11.6,15.5-16.7v-8.6l3.3-6.2L-414.3,653.6z"/>
		<path class="st12" d="M-412.4,664.4l-2.9,10.7c0,0-0.6,1.9-2.6,1.7"/>
		<polygon class="st10" points="-484.1,656.6 -484.1,750.9 -458.5,750.9 -453.3,681.7 -447.1,682.2 -442.2,750.9 -416.9,750.9 
			-416.9,658.4 		"/>
		<line class="st12" x1="-439.5" y1="682.2" x2="-447.1" y2="682.2"/>
		<rect x="-462.7" y="575.8" class="st13" width="12.2" height="12.2"/>
		<rect x="-449" y="575.8" class="st13" width="12.2" height="12.2"/>
		<rect x="-462.7" y="589.3" class="st13" width="12.2" height="12.2"/>
		<rect x="-449" y="589.3" class="st14" width="12.2" height="12.2"/>
		<path class="st9" d="M-469.4,492.9v26.1c0,0,3.6,19,18.9,19.6c15.2,0.6,19.7-17.4,19.7-17.4l0.5-28.7c0,0-2.6-6.8-9.8-7.8h-21.9
			C-461.9,484.7-467.9,485.1-469.4,492.9z"/>
		<path class="st9" d="M-430.5,501l3.6,0.2c0,0,2.8,1.7,2.3,2.9l-1.3,9.2c0,0-2.1,4.3-4.9,3.9L-430.5,501z"/>
		<path class="st9" d="M-469.4,501h-3.3c0,0-2.8,1.3-2.5,4.2c0.3,3,1.6,8.7,1.6,8.7s1.3,2.9,4.2,3V501z"/>
		<path class="st12" d="M-447.1,506.1v14.4c0,0-1.1,2.3-2.7,2c0,0-2.1,0.1-2.5-1.7l-0.2-1.8"/>
		<path class="st12" d="M-455.6,527.9c0,0,5.4,3.7,12,0"/>
		<line class="st12" x1="-464.2" y1="503.8" x2="-456.3" y2="503.8"/>
		<line class="st12" x1="-443.2" y1="503.8" x2="-435.5" y2="503.8"/>
		<circle class="st13" cx="-459.8" cy="509.9" r="1.8"/>
		<circle class="st13" cx="-440" cy="509.9" r="1.8"/>
		<path class="st9" d="M-462.5,477.6c0,0-1.1-2.1-1-3.7"/>
		<polygon class="st15" points="-415.8,652.3 -414.4,649.1 -413.4,653.2 		"/>
		<polygon class="st15" points="-484.7,650.5 -484,652.1 -485.5,652.6 		"/>
	</g>
</g>
</svg>
