<?xml version="1.0" encoding="utf-8"?>
<!-- Generator: Adobe Illustrator 19.0.0, SVG Export Plug-In . SVG Version: 6.00 Build 0)  -->
<svg version="1.1" id="Layer_1" xmlns="http://www.w3.org/2000/svg" xmlns:xlink="http://www.w3.org/1999/xlink" x="0px" y="0px"
	 viewBox="0 0 900 415.5" style="enable-background:new 0 0 900 415.5;" xml:space="preserve">
<style type="text/css">
	.st0{fill:#00EDB1;stroke:#236D9B;stroke-width:3;stroke-linecap:round;stroke-miterlimit:10;}
	.st1{fill:#FFFFFF;}
	.st2{fill:#EDEDED;}
	.st3{fill:none;stroke:#236D9B;stroke-width:3;stroke-miterlimit:10;}
	.st4{fill:#FF9F36;stroke:#640917;stroke-width:3;stroke-linecap:round;stroke-miterlimit:10;}
	.st5{fill:#F4891E;}
	.st6{fill:none;stroke:#640917;stroke-width:3;stroke-linecap:round;stroke-miterlimit:10;}
	.st7{fill:#FFFFFF;stroke:#236D9B;stroke-width:3;stroke-linecap:round;stroke-miterlimit:10;}
	.st8{fill:#FF9F36;stroke:#00EDB1;stroke-width:1.7993;stroke-linecap:round;stroke-miterlimit:10;}
	.st9{fill:#236D9B;stroke:#236D9B;stroke-width:3;stroke-linecap:round;stroke-miterlimit:10;}
	.st10{fill:#00EDB1;}
	.st11{fill:none;stroke:#00EDB1;stroke-width:1.7993;stroke-linecap:round;stroke-miterlimit:10;}
	.st12{fill:#236D9B;}
	.st13{fill:none;stroke:#236D9B;stroke-width:3;stroke-linecap:round;stroke-miterlimit:10;}
	.st14{fill:#FFFFFF;stroke:#236D9B;stroke-width:3;stroke-miterlimit:10;}
	.st15{fill:#FFFFFF;stroke:#640917;stroke-width:3;stroke-linecap:round;stroke-miterlimit:10;}
	.st16{fill:#6EBDFF;stroke:#350A63;stroke-width:3;stroke-linecap:round;stroke-miterlimit:10;}
	.st17{fill:none;stroke:#FFFFFF;stroke-width:4;stroke-linecap:round;stroke-miterlimit:10;}
</style>
<path id="XMLID_2176_" class="st0" d="M329,110.6h-17.2c-3.8,0-6.8-3-6.8-6.8v-8.4c0-3.8,3-6.8,6.8-6.8h18.7c3.8,0,6.8,3,6.8,6.8
	v8.4c0,3.8-3,6.8-6.8,6.8H329"/>
<g id="XMLID_6411_">
	<path id="XMLID_2185_" class="st1" d="M319.1,343c0,7-2.8,13.4-7.5,18c-4.6,4.6-11,7.5-18,7.5H170.8c-14.1,0-25.4-11.4-25.4-25.5
		c0-7,2.8-13.4,7.5-18c3.9-3.9,9.1-6.6,14.9-7.3c1-0.1,2-0.2,3-0.2h122.9C307.7,317.5,319.1,328.9,319.1,343z"/>
	<path id="XMLID_2184_" class="st1" d="M595.4,181.5v154.1h-80.9c-7.9,0-15.7,2-22.7,5.8c-23.6,12.6-49.1,21-75.4,24.8
		c-10.9,1.6-21.9,2.4-33,2.4h-20.3v-169h43.1c0,0-4.3-4,13.9-4.1l-41.7-87l-35.5-8.5l-24.7-5.9l-0.4-0.1c-5.1-1.2-9.9-3.2-14.2-5.7
		c-17.4-10.3-27.4-30.1-24.9-50.5c0.7-5.6,6.1-9.3,11.6-8l101.3,24.3c12.9,3.1,24.2,10.7,31.9,21.4l68.2,94.9
		c4.9,6.9,12.9,10.9,21.3,10.9H595.4z"/>
	<path id="XMLID_2183_" class="st1" d="M292.2,31.3L292.2,31.3c2.8,5.7,7.9,9.9,14.1,11.5l25.1,6.3l2.3-7.7"/>
	<path id="XMLID_2182_" class="st2" d="M473.9,246.8c0,48.3-22.4,91.3-57.4,119.3c-10.9,1.6-21.9,2.4-33,2.4h-20.3v-169h43.1
		c0,0-4.3-4,13.9-4.1l-41.7-88.7C378.4,106.8,473.9,143.1,473.9,246.8z"/>
	<path id="XMLID_2181_" class="st2" d="M337.3,343c0,7-2.8,13.4-7.5,18c-4.6,4.6-11,7.5-18,7.5h-83c-17.8-13.5-32.5-30.8-42.9-50.7
		c1-0.1,2-0.2,3-0.2h122.9C325.9,317.5,337.3,328.9,337.3,343z"/>
	<path id="XMLID_2180_" class="st3" d="M319.1,343c0,7-2.8,13.4-7.5,18c-4.6,4.6-11,7.5-18,7.5H170.8c-14.1,0-25.4-11.4-25.4-25.5
		c0-7,2.8-13.4,7.5-18c3.9-3.9,9.1-6.6,14.9-7.3c1-0.1,2-0.2,3-0.2h122.9C307.7,317.5,319.1,328.9,319.1,343z"/>
	<path id="XMLID_2179_" class="st3" d="M595.4,181.5h-82.3c-8.4,0-16.4-4.1-21.3-10.9l-68.2-94.9c-7.7-10.8-19.1-18.4-31.9-21.4
		L290.4,29.9c-5.5-1.3-10.9,2.4-11.6,8c-3.1,25.4,13.1,50,39.1,56.2l60.5,14.4l41.7,87c-18.1,0-13.9,4.1-13.9,4.1h-43.1v169h20.3
		c37.9,0,75.1-9.4,108.4-27.2c7-3.7,14.8-5.8,22.7-5.8h80.9V181.5z"/>
	<polyline id="XMLID_2178_" class="st4" points="329.4,110.6 329.4,123.4 313,123.4 313,117.2 313,110.6 	"/>
	<rect id="XMLID_2177_" x="313" y="110.6" class="st5" width="16.4" height="6.4"/>
	<polyline id="XMLID_2175_" class="st6" points="329.4,110.6 329.4,123.2 313,123.2 313,117 313,110.6 	"/>
	<path class="st0" d="M457.3,246.8c0,75.2-61,136.1-136.1,136.1c-44.9,0-84.7-21.8-109.5-55.3c-11-14.8-19-32-23.2-50.6
		c0-0.1,0-0.2-0.1-0.3c-2.2-9.6-3.3-19.6-3.3-29.9c0-25.6,7-49.5,19.3-69.9c23.8-39.7,67.2-66.2,116.8-66.2
		C396.3,110.7,457.3,171.6,457.3,246.8z"/>
	<circle id="XMLID_2173_" class="st7" cx="321.2" cy="246.8" r="117"/>
	<path class="st2" d="M247.3,302.2c0,14.1-11.4,25.5-25.5,25.5h-10.2c-11-14.8-19-32-23.2-50.6c1.3-0.2,2.7-0.3,4.1-0.3h-4.2
		c-2.2-9.6-3.3-19.6-3.3-29.9c0-25.6,7-49.5,19.3-69.9h13.9c14.1,0,25.5,11.4,25.5,25.4v0c0,12.4-8.9,22.7-20.6,25
		c4.9,1.8,9.1,5,12.1,9.2c3,4.2,4.7,9.3,4.7,14.8c0,14.1-11.4,25.5-25.4,25.5h7.4c7,0,13.4,2.9,18,7.5
		C244.4,288.8,247.3,295.1,247.3,302.2z"/>
	<line id="XMLID_2172_" class="st8" x1="282.9" y1="284.1" x2="380.6" y2="189.1"/>
	<circle id="XMLID_2171_" class="st9" cx="321.2" cy="246.8" r="6.4"/>
	<circle id="XMLID_2169_" class="st10" cx="279.7" cy="286.8" r="4"/>
	<line id="XMLID_2168_" class="st11" x1="314.7" y1="177.2" x2="332.1" y2="192.7"/>
	<g id="XMLID_2131_">
		<g id="XMLID_2150_">
			<g id="XMLID_2151_">
				<g id="XMLID_2166_">
					<path id="XMLID_2167_" class="st12" d="M359.4,155.9c-1,0-2.1-0.4-2.8-1.2c-0.7-0.7-1.2-1.8-1.2-2.8c0-1,0.4-2.1,1.2-2.8
						c0.7-0.7,1.8-1.2,2.8-1.2c1,0,2.1,0.4,2.8,1.2c0.7,0.7,1.2,1.8,1.2,2.8c0,1-0.4,2.1-1.2,2.8
						C361.5,155.5,360.5,155.9,359.4,155.9z"/>
				</g>
				<g id="XMLID_2164_">
					<path id="XMLID_2165_" class="st12" d="M415.3,210.7c-1,0-2.1-0.4-2.8-1.2c-0.7-0.7-1.2-1.8-1.2-2.8c0-1,0.4-2.1,1.2-2.8
						c0.7-0.7,1.8-1.2,2.8-1.2c1,0,2.1,0.4,2.8,1.2c0.7,0.7,1.2,1.8,1.2,2.8c0,1-0.4,2.1-1.2,2.8
						C417.3,210.3,416.3,210.7,415.3,210.7z"/>
				</g>
				<g id="XMLID_2162_">
					<path id="XMLID_2163_" class="st12" d="M416,289c-1,0-2.1-0.4-2.8-1.2c-0.7-0.7-1.2-1.8-1.2-2.8c0-1,0.4-2.1,1.2-2.8
						c0.7-0.7,1.8-1.2,2.8-1.2c1,0,2.1,0.4,2.8,1.2c0.7,0.7,1.2,1.8,1.2,2.8c0,1-0.4,2.1-1.2,2.8C418.1,288.6,417,289,416,289z"/>
				</g>
				<g id="XMLID_2160_">
					<path id="XMLID_2161_" class="st12" d="M361.2,344.9c-1,0-2.1-0.4-2.8-1.2c-0.7-0.7-1.2-1.8-1.2-2.8c0-1,0.4-2.1,1.2-2.8
						c0.7-0.7,1.8-1.2,2.8-1.2c1,0,2.1,0.4,2.8,1.2c0.7,0.7,1.2,1.8,1.2,2.8c0,1-0.4,2.1-1.2,2.8
						C363.2,344.4,362.2,344.9,361.2,344.9z"/>
				</g>
				<g id="XMLID_2158_">
					<path id="XMLID_2159_" class="st12" d="M282.9,345.6c-1,0-2.1-0.4-2.8-1.2c-0.7-0.7-1.2-1.8-1.2-2.8c0-1,0.4-2.1,1.2-2.8
						c0.7-0.7,1.8-1.2,2.8-1.2c1,0,2.1,0.4,2.8,1.2c0.7,0.7,1.2,1.8,1.2,2.8c0,1-0.4,2.1-1.2,2.8C285,345.2,283.9,345.6,282.9,345.6
						z"/>
				</g>
				<g id="XMLID_2156_">
					<path id="XMLID_2157_" class="st4" d="M227,290.8c-1,0-2.1-0.4-2.8-1.2c-0.7-0.7-1.2-1.8-1.2-2.8c0-1,0.4-2.1,1.2-2.8
						c0.7-0.7,1.8-1.2,2.8-1.2c1,0,2.1,0.4,2.8,1.2c0.7,0.7,1.2,1.8,1.2,2.8c0,1-0.4,2.1-1.2,2.8C229.1,290.3,228.1,290.8,227,290.8
						z"/>
				</g>
				<g id="XMLID_2154_">
					<path id="XMLID_2155_" class="st12" d="M226.3,212.5c-1,0-2.1-0.4-2.8-1.2c-0.7-0.7-1.2-1.8-1.2-2.8c0-1,0.4-2.1,1.2-2.8
						c0.7-0.7,1.8-1.2,2.8-1.2c1,0,2.1,0.4,2.8,1.2c0.7,0.7,1.2,1.8,1.2,2.8c0,1-0.4,2.1-1.2,2.8
						C228.4,212.1,227.4,212.5,226.3,212.5z"/>
				</g>
				<g id="XMLID_2152_">
					<path id="XMLID_2153_" class="st12" d="M281.2,156.6c-1,0-2.1-0.4-2.8-1.2c-0.7-0.7-1.2-1.8-1.2-2.8c0-1,0.4-2.1,1.2-2.8
						c0.7-0.7,1.8-1.2,2.8-1.2c1,0,2.1,0.4,2.8,1.2c0.7,0.7,1.2,1.8,1.2,2.8c0,1-0.4,2.1-1.2,2.8
						C283.2,156.2,282.2,156.6,281.2,156.6z"/>
				</g>
			</g>
		</g>
		<g id="XMLID_2132_">
			<g id="XMLID_2133_">
				<g id="XMLID_2148_">
					<path id="XMLID_2149_" class="st12" d="M321.2,148.5c-1,0-2.1-0.4-2.8-1.2c-0.7-0.7-1.2-1.8-1.2-2.8c0-1,0.4-2.1,1.2-2.8
						c0.7-0.7,1.8-1.2,2.8-1.2c1,0,2.1,0.4,2.8,1.2c0.7,0.7,1.2,1.8,1.2,2.8c0,1-0.4,2.1-1.2,2.8
						C323.2,148.1,322.2,148.5,321.2,148.5z"/>
				</g>
				<g id="XMLID_2146_">
					<path id="XMLID_2147_" class="st12" d="M393.5,178.4c-1,0-2.1-0.4-2.8-1.2c-0.7-0.7-1.2-1.8-1.2-2.8c0-1,0.4-2.1,1.2-2.8
						c0.7-0.7,1.8-1.2,2.8-1.2c1,0,2.1,0.4,2.8,1.2c0.7,0.7,1.2,1.8,1.2,2.8c0,1-0.4,2.1-1.2,2.8C395.5,178,394.5,178.4,393.5,178.4
						z"/>
				</g>
				<g id="XMLID_2144_">
					<path id="XMLID_2145_" class="st12" d="M423.4,250.7c-1,0-2.1-0.4-2.8-1.2c-0.7-0.7-1.2-1.8-1.2-2.8c0-1,0.4-2.1,1.2-2.8
						c0.7-0.7,1.8-1.2,2.8-1.2c1,0,2.1,0.4,2.8,1.2c0.7,0.7,1.2,1.8,1.2,2.8c0,1-0.4,2.1-1.2,2.8
						C425.5,250.3,424.5,250.7,423.4,250.7z"/>
				</g>
				<g id="XMLID_2142_">
					<path id="XMLID_2143_" class="st12" d="M393.5,323.1c-1,0-2.1-0.4-2.8-1.2c-0.7-0.7-1.2-1.8-1.2-2.8c0-1,0.4-2.1,1.2-2.8
						c0.7-0.7,1.8-1.2,2.8-1.2c1,0,2.1,0.4,2.8,1.2c0.7,0.7,1.2,1.8,1.2,2.8c0,1-0.4,2.1-1.2,2.8
						C395.5,322.6,394.5,323.1,393.5,323.1z"/>
				</g>
				<g id="XMLID_2140_">
					<path id="XMLID_2141_" class="st12" d="M321.2,353c-1,0-2.1-0.4-2.8-1.2c-0.7-0.7-1.2-1.8-1.2-2.8c0-1,0.4-2.1,1.2-2.8
						c0.7-0.7,1.8-1.2,2.8-1.2c1,0,2.1,0.4,2.8,1.2c0.7,0.7,1.2,1.8,1.2,2.8c0,1-0.4,2.1-1.2,2.8C323.2,352.6,322.2,353,321.2,353z"
						/>
				</g>
				<g id="XMLID_2138_">
					<path id="XMLID_2139_" class="st12" d="M248.9,323.1c-1,0-2.1-0.4-2.8-1.2c-0.7-0.7-1.2-1.8-1.2-2.8c0-1,0.4-2.1,1.2-2.8
						c0.7-0.7,1.8-1.2,2.8-1.2c1,0,2.1,0.4,2.8,1.2c0.7,0.7,1.2,1.8,1.2,2.8c0,1-0.4,2.1-1.2,2.8
						C250.9,322.6,249.9,323.1,248.9,323.1z"/>
				</g>
				<g id="XMLID_2136_">
					<path id="XMLID_2137_" class="st4" d="M218.9,250.7c-1,0-2.1-0.4-2.8-1.2c-0.7-0.7-1.2-1.8-1.2-2.8c0-1,0.4-2.1,1.2-2.8
						c0.7-0.7,1.8-1.2,2.8-1.2c1,0,2.1,0.4,2.8,1.2c0.7,0.7,1.2,1.8,1.2,2.8c0,1-0.4,2.1-1.2,2.8C221,250.3,219.9,250.7,218.9,250.7
						z"/>
				</g>
				<g id="XMLID_2134_">
					<path id="XMLID_2135_" class="st12" d="M248.9,178.4c-1,0-2.1-0.4-2.8-1.2c-0.7-0.7-1.2-1.8-1.2-2.8c0-1,0.4-2.1,1.2-2.8
						c0.7-0.7,1.8-1.2,2.8-1.2c1,0,2.1,0.4,2.8,1.2c0.7,0.7,1.2,1.8,1.2,2.8c0,1-0.4,2.1-1.2,2.8C250.9,178,249.9,178.4,248.9,178.4
						z"/>
				</g>
			</g>
		</g>
	</g>
	<circle id="XMLID_2130_" class="st9" cx="321.2" cy="183" r="4.7"/>
	<circle id="XMLID_2129_" class="st13" cx="321.2" cy="183" r="20.3"/>
	<path id="XMLID_2128_" class="st14" d="M203.2,214.7h-29.3c-14.1,0-25.5-11.4-25.5-25.5v0c0-14.1,11.4-25.5,25.5-25.5h29.3
		c14.1,0,25.5,11.4,25.5,25.5v0C228.6,203.3,217.2,214.7,203.2,214.7z"/>
	<path id="XMLID_2127_" class="st1" d="M202.1,205.6h-13.6v-32.6h13.6c9,0,16.3,7.3,16.3,16.3l0,0
		C218.4,198.2,211.1,205.6,202.1,205.6z"/>
	<rect id="XMLID_2126_" x="513.1" y="181.5" class="st15" width="43.6" height="175"/>
	<rect id="XMLID_2124_" x="531.6" y="181.5" class="st2" width="43.6" height="175"/>
	<path id="XMLID_2122_" class="st14" d="M206.7,317.5h-29.3c-14.1,0-25.5-11.4-25.5-25.5v0c0-14.1,11.4-25.5,25.5-25.5h29.3
		c14.1,0,25.5,11.4,25.5,25.5v0C232.2,306.1,220.8,317.5,206.7,317.5z"/>
	<path id="XMLID_2121_" class="st14" d="M199.4,266.6h-29.3c-14.1,0-25.5-11.4-25.5-25.5l0,0c0-14.1,11.4-25.5,25.5-25.5h29.3
		c14.1,0,25.5,11.4,25.5,25.5v0C224.8,255.2,213.4,266.6,199.4,266.6z"/>
	<rect id="XMLID_2120_" x="513.1" y="181.5" class="st13" width="43.6" height="175"/>
	<rect id="XMLID_2119_" x="546.3" y="172.9" class="st16" width="209.1" height="211.3"/>
	<path id="XMLID_2118_" class="st1" d="M200.3,257.5h-15.6v-32.6h15.6c9,0,16.3,7.3,16.3,16.3l0,0
		C216.6,250.2,209.3,257.5,200.3,257.5z"/>
	<path id="XMLID_2117_" class="st1" d="M207,308.4h-14.9v-32.6H207c9,0,16.3,7.3,16.3,16.3v0C223.4,301.1,216.1,308.4,207,308.4z"/>
	<circle id="XMLID_2043_" class="st13" cx="584.1" cy="353" r="10.3"/>
	<path id="XMLID_2042_" class="st13" d="M754.8,384.2H546.3V172.9h209.1v210.6C755.4,383.9,755.1,384.2,754.8,384.2z"/>
</g>
<path class="st17" d="M244.9,144.6c13.9-10.4,29.9-18,47.3-22"/>
<path class="st17" d="M226.9,160.9c2.9-3.1,5.9-6.1,9-9"/>
</svg>
