<?xml version="1.0" encoding="utf-8"?>
<!-- Generator: Adobe Illustrator 19.0.0, SVG Export Plug-In . SVG Version: 6.00 Build 0)  -->
<svg version="1.1" id="Calque_1" xmlns="http://www.w3.org/2000/svg" xmlns:xlink="http://www.w3.org/1999/xlink" x="0px" y="0px"
	 viewBox="-124 126 200 200" style="enable-background:new -124 126 200 200;" xml:space="preserve">
<style type="text/css">
	.st0{fill:none;stroke:#7700F4;stroke-width:3;stroke-linecap:round;stroke-linejoin:round;stroke-miterlimit:10;}
	.st1{fill:none;stroke:#7700F4;stroke-width:2;stroke-linecap:round;stroke-linejoin:round;stroke-miterlimit:10;}
	.st2{fill:none;stroke:#C0D7F1;stroke-linecap:round;stroke-linejoin:round;stroke-miterlimit:10;}
	.st3{fill:none;stroke:#C0D7F1;stroke-miterlimit:10;}
	.st4{fill:#C0D7F1;}
	.st5{fill:none;}
	.st6{fill:#7700F4;}
	.st7{fill:#FFFFFF;}
</style>
<g id="Layer_1_99_">
</g>
<g id="processor_1_">
</g>
<g id="cpu_1_">
</g>
<g id="printer_1_">
</g>
<g id="box_1_">
</g>
<g id="touch-pad_1_">
</g>
<g id="keyboard_1_">
</g>
<g id="cam-6_1_">
</g>
<g id="headphone_1_">
</g>
<g id="floppy_1_">
</g>
<g id="flat-wifi_1_">
</g>
<g id="two-line-wifi_1_">
</g>
<g id="i-phone-iol_1_">
</g>
<g id="responsive_1_">
</g>
<g id="tabs_1_">
</g>
<g id="wide_1_">
</g>
<g id="rotate_1_">
</g>
<g id="storager-load_1_">
</g>
<g id="storager-close_1_">
</g>
<g id="storager-download_2_">
</g>
<g id="storager-upload_1_">
</g>
<g id="storager-setting_1_">
</g>
<g id="storager-unloack_1_">
</g>
<g id="storager-lock_1_">
</g>
<g id="storager-refresh_1_">
</g>
<g id="storager_1_">
</g>
<g id="microsim_1_">
</g>
<g id="game-remote-3_1_">
</g>
<g id="game-remote-2_1_">
</g>
<g id="game-remote-1_1_">
</g>
<g id="game-remote_1_">
</g>
<g id="nano-sim_1_">
</g>
<g id="sim-card_1_">
</g>
<g id="plug-2_1_">
</g>
<g id="plug_1_">
</g>
<g id="wifi-adaptor-s_1_">
</g>
<g id="wifi-adaptor-r_1_">
</g>
<g id="socket_1_">
</g>
<g id="broken-link_1_">
</g>
<g id="link_1_">
</g>
<g id="network-tred_1_">
</g>
<g id="cloud-down_1_">
</g>
<g id="cloud-success_1_">
</g>
<g id="channel_1_">
</g>
<g id="locate-network_1_">
</g>
<g id="group-share_1_">
</g>
<g id="network-desktop_1_">
</g>
<g id="network-3_1_">
</g>
<g id="network-2_1_">
</g>
<g id="network-1_1_">
</g>
<g id="home-adaptor_1_">
</g>
<g id="wifi-adaptor_1_">
</g>
<g id="adoptor_1_">
</g>
<g id="drive-shelve_1_">
</g>
<g id="drive-3_1_">
</g>
<g id="drive_1_">
</g>
<g id="wifi-laptop_1_">
</g>
<g id="wifi-tab_1_">
</g>
<g id="wifi-mob_1_">
</g>
<g id="wifi_1_">
</g>
<g id="laptop-1_1_">
</g>
<g id="computer-2_1_">
</g>
<g id="old-computer_1_">
</g>
<g id="battery-connected_1_">
</g>
<g id="charging-3_1_">
</g>
<g id="charging-2_1_">
</g>
<g id="charging-1_1_">
</g>
<g id="battery_1_">
</g>
<g id="cam-4_1_">
</g>
<g id="radio-2_1_">
</g>
<g id="radio-1_1_">
</g>
<g id="radio_1_">
</g>
<g id="tape_1_">
</g>
<g id="magic-mouse_1_">
</g>
<g id="pendrive_1_">
</g>
<g id="button-mouse_1_">
</g>
<g id="ipod-pack_1_">
</g>
<g id="i-pod_1_">
</g>
<g id="flat-tv_1_">
</g>
<g id="watch-2_1_">
</g>
<g id="watch_1_">
</g>
<g id="cam-2_1_">
</g>
<g id="cam-1_1_">
</g>
<g id="tv_1_">
</g>
<g id="wirellesss_1_">
</g>
<g id="small-phone_1_">
</g>
<g id="phone_3_">
</g>
<g id="android-phone_1_">
</g>
<g id="i-phone_1_">
</g>
<g id="large_phone_1_">
</g>
<g id="i-pad_1_">
</g>
<g id="tesktop_1_">
</g>
<g id="laptop_1_">
</g>
<g id="cloud-close_1_">
</g>
<g id="plug-1_1_">
</g>
<g id="storager-leg_1_">
</g>
<g id="phone_2_">
</g>
<g id="cold-wifi_1_">
</g>
<g id="handycam_1_">
</g>
<g id="Layer_1_2_">
</g>
<g id="medium-box_2_">
</g>
<g id="minuse_2_">
</g>
<g id="timer_2_">
</g>
<g id="drawer-2_2_">
</g>
<g id="trash-box_2_">
</g>
<g id="book-label_2_">
</g>
<g id="folder-label_2_">
</g>
<g id="page-back_2_">
</g>
<g id="close-page_5_">
</g>
<g id="pages_2_">
</g>
<g id="list_2_">
</g>
<g id="wave_2_">
</g>
<g id="close-page_4_">
</g>
<g id="add-page_2_">
</g>
<g id="code_2_">
</g>
<g id="shift-mode_2_">
</g>
<g id="bookmarks_5_">
</g>
<g id="bookmarks_4_">
</g>
<g id="open-pages_2_">
</g>
<g id="note_2_">
</g>
<g id="locater_2_">
</g>
<g id="navigater_2_">
</g>
<g id="alarm_2_">
</g>
<g id="clock_2_">
</g>
<g id="time-3_2_">
</g>
<g id="time-1_2_">
</g>
<g id="time_2_">
</g>
<g id="downloads_2_">
</g>
<g id="uploads_2_">
</g>
<g id="drawer-1_2_">
</g>
<g id="mail_drawer_2_">
</g>
<g id="drawer_2_">
</g>
<g id="mail_5_">
</g>
<g id="mail-open_2_">
</g>
<g id="open_2_">
</g>
<g id="card_2_">
</g>
<g id="mails_2_">
</g>
<g id="mail_4_">
</g>
<g id="drag-l-t_2_">
</g>
<g id="comment_2_">
</g>
<g id="folder_2_">
</g>
<g id="trash_2_">
</g>
<g id="report-flag_2_">
</g>
<g id="setting-roll_2_">
</g>
<g id="spects_2_">
</g>
<g id="search_5_">
</g>
<g id="game-2_2_">
</g>
<g id="game_2_">
</g>
<g id="unloack_2_">
</g>
<g id="loack_2_">
</g>
<g id="settings-ui_2_">
</g>
<g id="abacuse_2_">
</g>
<g id="browser-check-box_2_">
</g>
<g id="browser-reload_2_">
</g>
<g id="browser-check_2_">
</g>
<g id="browser-close_2_">
</g>
<g id="browser-inus_2_">
</g>
<g id="browser-add_2_">
</g>
<g id="flowtting_2_">
</g>
<g id="popup_2_">
</g>
<g id="latter_2_">
</g>
<g id="details_2_">
</g>
<g id="blocks_2_">
</g>
<g id="locate_2_">
</g>
<g id="parabolla_2_">
</g>
<g id="check-box_2_">
</g>
<g id="slide-nav_2_">
</g>
<g id="share_2_">
</g>
<g id="profile_2_">
</g>
<g id="settings_2_">
</g>
<g id="expand_2_">
</g>
<g id="image_2_">
</g>
<g id="pause_2_">
</g>
<g id="player_2_">
</g>
<g id="imager_2_">
</g>
<g id="slider_2_">
</g>
<g id="slide-count_2_">
</g>
<g id="progress-bar_2_">
</g>
<g id="graph_2_">
</g>
<g id="statistics_2_">
</g>
<g id="cloud-reload_2_">
</g>
<g id="cloud-down_3_">
</g>
<g id="cloud-up_2_">
</g>
<g id="cloud_2_">
</g>
<g id="masonary_2_">
</g>
<g id="column_2_">
</g>
<g id="grid-block_2_">
</g>
<g id="horizontal_2_">
</g>
<g id="_x35_-column_2_">
</g>
<g id="_x31_-column_2_">
</g>
<g id="_x33_-column_2_">
</g>
<g id="sidebar_3_">
</g>
<g id="favorite_2_">
</g>
<g id="load_2_">
</g>
<g id="search-list_2_">
</g>
<g id="search_4_">
</g>
<g id="browser_3_">
</g>
<g id="change-mode_2_">
</g>
<g id="tick_2_">
</g>
<g id="XMLID_13_">
	<line id="XMLID_8_" class="st0" x1="-28.7" y1="158.1" x2="-28.7" y2="164"/>
	<line id="XMLID_2_" class="st0" x1="-25.8" y1="161.1" x2="-31.6" y2="161.1"/>
</g>
<g id="XMLID_17_">
	<line id="XMLID_27_" class="st1" x1="-67.8" y1="149.7" x2="-67.8" y2="154.6"/>
	<line id="XMLID_26_" class="st1" x1="-65.3" y1="152.1" x2="-70.3" y2="152.1"/>
</g>
<g id="XMLID_28_">
	<line id="XMLID_30_" class="st2" x1="-48.7" y1="167.1" x2="-48.7" y2="169.8"/>
	<line id="XMLID_29_" class="st2" x1="-47.4" y1="168.4" x2="-50" y2="168.4"/>
</g>
<path id="XMLID_14_" class="st3" d="M-51.3,146.7c-0.1,0-0.2,0.1-0.2,0.1c-0.2,0-0.3,0-0.6,0c-0.7-0.2-1.1-0.9-0.9-1.6
	s0.9-1.1,1.6-0.9c0.7,0.2,1.1,0.9,0.9,1.6"/>
<path id="XMLID_16_" class="st3" d="M-16.7,148c-0.1,0-0.2,0.1-0.2,0.1c-0.2,0-0.3,0-0.4,0c-0.6-0.2-0.9-0.7-0.7-1.3
	c0.2-0.6,0.7-0.9,1.3-0.7c0.6,0.2,0.9,0.7,0.7,1.3"/>
<g>
	<g>
		<path class="st4" d="M27,170c-1,0-1.9-0.8-1.9-1.9v-8.3c0-1,0.8-1.9,1.9-1.9c1,0,1.9,0.8,1.9,1.9v8.3C28.9,169.2,28.1,170,27,170
			L27,170z"/>
	</g>
	<g>
		<path class="st4" d="M31.2,165.9h-8.3c-1,0-1.9-0.8-1.9-1.9c0-1,0.8-1.9,1.9-1.9h8.3c1,0,1.9,0.8,1.9,1.9
			C33.1,165,32.2,165.9,31.2,165.9L31.2,165.9z"/>
	</g>
</g>
<line class="st5" x1="81.9" y1="220.6" x2="81.9" y2="-334.2"/>
<path class="st5" d="M636.7,220.6"/>
<line class="st5" x1="-90.2" y1="220.6" x2="-90.2" y2="-334.2"/>
<g>
	<path class="st6" d="M-24,297.6c-31,0-56.3-25.3-56.3-56.3S-55,185-24,185s56.3,25.3,56.3,56.3S7,297.6-24,297.6z M-24,187.6
		c-29.6,0-53.7,24.1-53.7,53.7c0,29.6,24.1,53.7,53.7,53.7c29.6,0,53.7-24.1,53.7-53.7C29.7,211.7,5.6,187.6-24,187.6z"/>
	<path class="st6" d="M-24,297.6c-0.7,0-1.3-0.6-1.3-1.3v-73.4c0-0.7,0.6-1.3,1.3-1.3s1.3,0.6,1.3,1.3v73.4
		C-22.7,297-23.3,297.6-24,297.6z"/>
	<path class="st7" d="M-13.9,222.9c0,5.6-4.5,10.1-10.1,10.1s-10.1-4.5-10.1-10.1c0-5.6,4.5-10.1,10.1-10.1
		C-18.4,212.8-13.9,217.3-13.9,222.9z"/>
	<path class="st6" d="M-24,234.3c-6.3,0-11.4-5.1-11.4-11.4s5.1-11.4,11.4-11.4s11.4,5.1,11.4,11.4S-17.7,234.3-24,234.3z
		 M-24,214.1c-4.8,0-8.8,3.9-8.8,8.8s3.9,8.8,8.8,8.8s8.8-3.9,8.8-8.8S-19.1,214.1-24,214.1z"/>
	<path class="st6" d="M-10.2,295.8c-0.7,0-1.3-0.6-1.3-1.3v-45.9c0-0.4,0.1-0.7,0.4-0.9l14.9-14.9c0.5-0.5,1.3-0.5,1.8,0
		c0.5,0.5,0.5,1.3,0,1.8l-14.5,14.5v45.3C-8.9,295.2-9.5,295.8-10.2,295.8z"/>
	<path class="st6" d="M3.5,290.2c-0.7,0-1.3-0.6-1.3-1.3v-24.8c0-0.6,0.4-1.1,1-1.3l16.8-4.6c0.7-0.2,1.4,0.2,1.6,0.9
		c0.2,0.7-0.2,1.4-0.9,1.6l-15.8,4.3v23.8C4.8,289.6,4.2,290.2,3.5,290.2z"/>
	<path class="st7" d="M14.8,233.8c0,5.6-4.5,10.1-10.1,10.1s-10.1-4.5-10.1-10.1s4.5-10.1,10.1-10.1
		C10.3,223.7,14.8,228.2,14.8,233.8z"/>
	<path class="st6" d="M4.7,245.2c-6.3,0-11.4-5.1-11.4-11.4s5.1-11.4,11.4-11.4s11.4,5.1,11.4,11.4C16.1,240,11,245.2,4.7,245.2z
		 M4.7,225c-4.9,0-8.8,3.9-8.8,8.8s3.9,8.8,8.8,8.8c4.8,0,8.8-3.9,8.8-8.8S9.5,225,4.7,225z"/>
	<path class="st7" d="M30.4,259.6c0,5.6-4.5,10.1-10.1,10.1s-10.1-4.5-10.1-10.1c0-5.6,4.5-10.1,10.1-10.1S30.4,254,30.4,259.6z"/>
	<path class="st6" d="M20.3,271c-6.3,0-11.4-5.1-11.4-11.4s5.1-11.4,11.4-11.4s11.4,5.1,11.4,11.4C31.7,265.9,26.6,271,20.3,271z
		 M20.3,250.8c-4.8,0-8.8,3.9-8.8,8.8c0,4.8,3.9,8.8,8.8,8.8c4.8,0,8.8-3.9,8.8-8.8C29.1,254.7,25.1,250.8,20.3,250.8z"/>
	<path class="st6" d="M-37.8,295.8c-0.7,0-1.3-0.6-1.3-1.3v-45.3l-14.5-14.5c-0.5-0.5-0.5-1.3,0-1.8s1.3-0.5,1.8,0l14.9,14.9
		c0.3,0.3,0.4,0.6,0.4,0.9v45.9C-36.5,295.2-37.1,295.8-37.8,295.8z"/>
	<path class="st6" d="M-51.5,290.2c-0.7,0-1.3-0.6-1.3-1.3v-23.8l-15.9-4.3c-0.7-0.2-1.1-0.9-0.9-1.6c0.2-0.7,0.9-1.1,1.6-0.9
		l16.8,4.6c0.5,0.2,1,0.7,1,1.3v24.8C-50.2,289.6-50.8,290.2-51.5,290.2z"/>
	<path class="st7" d="M-62.8,233.8c0,5.6,4.5,10.1,10.1,10.1s10.1-4.5,10.1-10.1s-4.5-10.1-10.1-10.1S-62.8,228.2-62.8,233.8z"/>
	<path class="st6" d="M-52.7,245.2c-6.3,0-11.4-5.1-11.4-11.4s5.1-11.4,11.4-11.4s11.4,5.1,11.4,11.4
		C-41.3,240-46.4,245.2-52.7,245.2z M-52.7,225c-4.9,0-8.8,3.9-8.8,8.8s3.9,8.8,8.8,8.8c4.8,0,8.8-3.9,8.8-8.8S-47.8,225-52.7,225z"
		/>
	<path class="st7" d="M-78.4,259.6c0,5.6,4.5,10.1,10.1,10.1s10.1-4.5,10.1-10.1c0-5.6-4.5-10.1-10.1-10.1S-78.4,254-78.4,259.6z"/>
	<path class="st6" d="M-68.3,271c-6.3,0-11.4-5.1-11.4-11.4s5.1-11.4,11.4-11.4c6.3,0,11.4,5.1,11.4,11.4
		C-56.9,265.9-62,271-68.3,271z M-68.3,250.8c-4.8,0-8.8,3.9-8.8,8.8c0,4.8,3.9,8.8,8.8,8.8c4.8,0,8.8-3.9,8.8-8.8
		C-59.5,254.7-63.4,250.8-68.3,250.8z"/>
</g>
</svg>
