<?xml version="1.0" encoding="utf-8"?>
<!-- Generator: Adobe Illustrator 19.0.0, SVG Export Plug-In . SVG Version: 6.00 Build 0)  -->
<svg version="1.1" id="Calque_1" xmlns="http://www.w3.org/2000/svg" xmlns:xlink="http://www.w3.org/1999/xlink" x="0px" y="0px"
	 viewBox="-599 686 800 600" style="enable-background:new -599 686 800 600;" xml:space="preserve">
<style type="text/css">
	.st0{fill:#FFFFFF;stroke:#7F00FF;stroke-width:5;stroke-miterlimit:10;}
	.st1{fill:#F6F6F6;}
	.st2{fill:none;stroke:#7F00FF;stroke-width:5;stroke-miterlimit:10;}
	.st3{fill:none;stroke:#7F00FF;stroke-width:5;stroke-linecap:round;stroke-miterlimit:10;}
</style>
<path class="st0" d="M42.7,1217.4h-495.4c-1.3,0-2.3-1-2.3-2.3V756.9c0-1.3,1-2.3,2.3-2.3H54.7c1.3,0,2.3,1,2.3,2.3v446.2
	C57,1211.1,50.6,1217.4,42.7,1217.4z"/>
<rect id="XMLID_5_" x="-410" y="860.3" class="st1" width="235.6" height="19.5"/>
<rect id="XMLID_1_" x="-410" y="895.2" class="st1" width="394.1" height="18.2"/>
<rect id="XMLID_2_" x="-410" y="922.8" class="st1" width="304" height="20.3"/>
<rect id="XMLID_3_" x="-410" y="952.8" class="st1" width="358.2" height="19.9"/>
<line class="st2" x1="-455" y1="812" x2="57" y2="812"/>
<line class="st2" x1="-455" y1="1026.1" x2="57" y2="1026.1"/>
<line class="st2" x1="-455" y1="1090.1" x2="57" y2="1090.1"/>
<line class="st2" x1="-455" y1="1151.3" x2="57" y2="1151.3"/>
<g>
	<line class="st3" x1="12.5" y1="1060.8" x2="-7.9" y2="1060.8"/>
	<line class="st3" x1="2.3" y1="1071.1" x2="2.3" y2="1050.7"/>
</g>
<g>
	<line class="st3" x1="9.5" y1="791.2" x2="-4.9" y2="776.8"/>
	<line class="st3" x1="-4.9" y1="791.2" x2="9.5" y2="776.8"/>
</g>
<g>
	<line class="st3" x1="12.7" y1="1120.8" x2="-7.7" y2="1120.8"/>
	<line class="st3" x1="2.5" y1="1131.1" x2="2.5" y2="1110.7"/>
</g>
<g>
	<line class="st3" x1="12.5" y1="1181.3" x2="-7.9" y2="1181.3"/>
	<line class="st3" x1="2.3" y1="1191.4" x2="2.3" y2="1171.1"/>
</g>
</svg>
