<?xml version="1.0" encoding="utf-8"?>
<!-- Generator: Adobe Illustrator 19.0.0, SVG Export Plug-In . SVG Version: 6.00 Build 0)  -->
<svg version="1.1" id="Calque_1" xmlns="http://www.w3.org/2000/svg" xmlns:xlink="http://www.w3.org/1999/xlink" x="0px" y="0px"
	 viewBox="94 97 800 600" style="enable-background:new 94 97 800 600;" xml:space="preserve">
<style type="text/css">
	.st0{fill:#FFFFFF;stroke:#7F00FF;stroke-width:5;stroke-miterlimit:10;}
	.st1{fill:#EFEFEF;}
	.st2{fill:#FFFFFF;stroke:#7F00FF;stroke-width:5;stroke-linecap:round;stroke-linejoin:round;stroke-miterlimit:10;}
</style>
<path class="st0" d="M782.5,627h-577c-9.9,0-18-8.1-18-18V185c0-9.9,8.1-18,18-18h577c9.9,0,18,8.1,18,18v424
	C800.5,618.9,792.4,627,782.5,627z"/>
<line class="st0" x1="187.5" y1="225" x2="800.5" y2="225"/>
<g>
	<rect x="439" y="346.3" class="st1" width="31.6" height="19.7"/>
	<rect x="362.9" y="346.3" class="st1" width="31.6" height="19.7"/>
	<rect x="516.1" y="346.3" class="st1" width="31.6" height="19.7"/>
	<rect x="593.3" y="346.3" class="st1" width="31.6" height="19.7"/>
	<rect x="439" y="416.1" class="st1" width="31.6" height="19.7"/>
	<rect x="362.9" y="416.1" class="st1" width="31.6" height="19.7"/>
	<rect x="516.1" y="416.1" class="st1" width="31.6" height="19.7"/>
	<rect x="593.3" y="416.1" class="st1" width="31.6" height="19.7"/>
	<rect x="439" y="485.4" class="st1" width="31.6" height="19.7"/>
	<rect x="362.9" y="485.4" class="st1" width="31.6" height="19.7"/>
	<rect x="516.1" y="485.4" class="st1" width="31.6" height="19.7"/>
	<rect x="593.3" y="485.4" class="st1" width="31.6" height="19.7"/>
	<rect x="668.4" y="346.3" class="st1" width="31.6" height="19.7"/>
	<rect x="668.4" y="416.1" class="st1" width="31.6" height="19.7"/>
	<rect x="668.4" y="485.4" class="st1" width="31.6" height="19.7"/>
	<rect x="288" y="346.3" class="st1" width="31.6" height="19.7"/>
	<rect x="439" y="285.5" class="st1" width="31.6" height="19.7"/>
	<rect x="362.9" y="285.5" class="st1" width="31.6" height="19.7"/>
	<rect x="516.1" y="285.5" class="st1" width="31.6" height="19.7"/>
	<rect x="593.3" y="285.5" class="st1" width="31.6" height="19.7"/>
	<rect x="668.4" y="285.5" class="st1" width="31.6" height="19.7"/>
	<rect x="288" y="285.5" class="st1" width="31.6" height="19.7"/>
	<rect x="439" y="544.8" class="st1" width="31.6" height="19.7"/>
	<rect x="362.9" y="544.8" class="st1" width="31.6" height="19.7"/>
	<rect x="516.1" y="544.8" class="st1" width="31.6" height="19.7"/>
	<rect x="593.3" y="544.8" class="st1" width="31.6" height="19.7"/>
	<rect x="668.4" y="544.8" class="st1" width="31.6" height="19.7"/>
	<rect x="288" y="544.8" class="st1" width="31.6" height="19.7"/>
	<rect x="288" y="416.1" class="st1" width="31.6" height="19.7"/>
	<rect x="288" y="485.4" class="st1" width="31.6" height="19.7"/>
</g>
<polyline class="st2" points="222.2,204.3 212.9,195 222.2,185.8 "/>
<polyline class="st2" points="762.2,185.8 771.5,195 762.2,204.3 "/>
<circle class="st0" cx="532.1" cy="355" r="16"/>
</svg>
