<?xml version="1.0" encoding="utf-8"?>
<!-- Generator: Adobe Illustrator 19.0.0, SVG Export Plug-In . SVG Version: 6.00 Build 0)  -->
<svg version="1.1" id="Calque_1" xmlns="http://www.w3.org/2000/svg" xmlns:xlink="http://www.w3.org/1999/xlink" x="0px" y="0px"
	 viewBox="-599 686 800 600" style="enable-background:new -599 686 800 600;" xml:space="preserve">
<style type="text/css">
	.st0{fill:#FFFFFF;stroke:#7F00FF;stroke-width:5;stroke-miterlimit:10;}
	.st1{fill:none;stroke:#7F00FF;stroke-width:5;stroke-miterlimit:10;}
	.st2{fill:#FFFFFF;stroke:#7F00FF;stroke-width:3;stroke-linecap:round;stroke-linejoin:round;stroke-miterlimit:10;}
</style>
<path class="st0" d="M27.9,889.5h18.7c4.8,0,8.6,3.9,8.6,8.6v307c0,4.8-3.9,8.6-8.6,8.6h-300.9c-4.8,0-8.6-3.9-8.6-8.6v-307
	c0-4.8,3.9-8.6,8.6-8.6h233.7h9.2c0.4,0,0.7-0.2,1-0.5l12.3-17.3c0.5-0.7,1.5-0.7,2,0l10.8,16.7c0.2,0.3,0.6,0.5,1,0.5L27.9,889.5z"
	/>
<rect x="-453.3" y="758.3" class="st0" width="508.5" height="85.5"/>
<circle class="st0" cx="-189" cy="976.2" r="29.2"/>
<circle class="st0" cx="-392.3" cy="801" r="19.2"/>
<circle class="st0" cx="-189" cy="1053.9" r="29.2"/>
<circle class="st0" cx="-189" cy="1131.5" r="29.2"/>
<line class="st1" x1="-131" y1="976.2" x2="1" y2="976.2"/>
<line class="st1" x1="-328.9" y1="801" x2="-196.9" y2="801"/>
<line class="st1" x1="-131" y1="1053.9" x2="1" y2="1053.9"/>
<line class="st1" x1="-131" y1="1131.5" x2="1" y2="1131.5"/>
<polyline class="st2" points="-15.5,797.1 -8.3,805 -2,797.1 "/>
</svg>
