<?xml version="1.0" encoding="utf-8"?>
<!-- Generator: Adobe Illustrator 19.0.0, SVG Export Plug-In . SVG Version: 6.00 Build 0)  -->
<svg version="1.1" id="Calque_1" xmlns="http://www.w3.org/2000/svg" xmlns:xlink="http://www.w3.org/1999/xlink" x="0px" y="0px"
	 viewBox="-599 686 800 600" style="enable-background:new -599 686 800 600;" xml:space="preserve">
<style type="text/css">
	.st0{fill:#FFFFFF;stroke:#7F00FF;stroke-width:5;stroke-miterlimit:10;}
	.st1{fill:none;stroke:#7F00FF;stroke-width:5;stroke-linecap:round;stroke-miterlimit:10;}
</style>
<path class="st0" d="M68.7,1037.9h-533.6c-28.7,0-52-23.3-52-52l0,0c0-28.7,23.3-52,52-52H68.7c28.7,0,52,23.3,52,52l0,0
	C120.6,1014.8,97.4,1037.9,68.7,1037.9z"/>
<path class="st0" d="M63.2,1024.1h-93c-21,0-38-17-38-38l0,0c0-21,17-38,38-38h93c21,0,38,17,38,38l0,0
	C101.2,1007,84.2,1024.1,63.2,1024.1z"/>
<g>
	<circle class="st0" cx="-455.9" cy="981" r="23"/>
	<line class="st1" x1="-424" y1="1014" x2="-439" y2="996.6"/>
</g>
</svg>
