<?xml version="1.0" encoding="utf-8"?>
<!-- Generator: Adobe Illustrator 19.0.0, SVG Export Plug-In . SVG Version: 6.00 Build 0)  -->
<svg version="1.1" id="Calque_1" xmlns="http://www.w3.org/2000/svg" xmlns:xlink="http://www.w3.org/1999/xlink" x="0px" y="0px"
	 viewBox="-599 686 800 600" style="enable-background:new -599 686 800 600;" xml:space="preserve">
<style type="text/css">
	.st0{fill:#FFFFFF;stroke:#7F00FF;stroke-width:5;stroke-miterlimit:10;}
	.st1{fill:#EDEDEF;}
	.st2{fill:none;stroke:#7F00FF;stroke-width:2;stroke-linecap:round;stroke-linejoin:round;stroke-miterlimit:10;}
</style>
<path class="st0" d="M19.2,879.2h-436.4c-2.6,0-4.8-2.1-4.8-4.8V762.6c0-2.6,2.1-4.8,4.8-4.8H19.3c2.6,0,4.8,2.1,4.8,4.8v111.8
	C24,877,21.9,879.2,19.2,879.2z"/>
<path class="st0" d="M19.2,1046.7h-436.4c-2.6,0-4.8-2.1-4.8-4.8V930.1c0-2.6,2.1-4.8,4.8-4.8H19.3c2.6,0,4.8,2.1,4.8,4.8v111.8
	C24,1044.5,21.9,1046.7,19.2,1046.7z"/>
<path class="st0" d="M19.2,1214.2h-436.4c-2.6,0-4.8-2.1-4.8-4.8v-111.8c0-2.6,2.1-4.8,4.8-4.8H19.3c2.6,0,4.8,2.1,4.8,4.8v111.8
	C24,1212,21.9,1214.2,19.2,1214.2z"/>
<rect x="-392" y="784" class="st1" width="111" height="17"/>
<rect x="-392" y="815.2" class="st1" width="353" height="17"/>
<rect x="-392" y="839.8" class="st1" width="232.3" height="17"/>
<rect x="-392" y="949.6" class="st1" width="111" height="17"/>
<rect x="-392" y="980.8" class="st1" width="353" height="17"/>
<rect x="-392" y="1005.4" class="st1" width="232.3" height="17"/>
<rect x="-392" y="1115.2" class="st1" width="111" height="17"/>
<rect x="-392" y="1146.3" class="st1" width="353" height="17"/>
<rect x="-392" y="1171" class="st1" width="232.3" height="17"/>
<g>
	<line class="st2" x1="7.5" y1="770.7" x2="-1.5" y2="779.8"/>
	<line class="st2" x1="7.5" y1="779.8" x2="-1.5" y2="770.7"/>
</g>
<g>
	<line class="st2" x1="7.5" y1="940.5" x2="-1.5" y2="949.6"/>
	<line class="st2" x1="7.5" y1="949.6" x2="-1.5" y2="940.5"/>
</g>
<g>
	<line class="st2" x1="7.5" y1="1110.2" x2="-1.5" y2="1119.4"/>
	<line class="st2" x1="7.5" y1="1119.4" x2="-1.5" y2="1110.2"/>
</g>
</svg>
