<?xml version="1.0" encoding="utf-8"?>
<!-- Generator: Adobe Illustrator 19.0.0, SVG Export Plug-In . SVG Version: 6.00 Build 0)  -->
<svg version="1.1" id="Calque_1" xmlns="http://www.w3.org/2000/svg" xmlns:xlink="http://www.w3.org/1999/xlink" x="0px" y="0px"
	 viewBox="0 0 180 170" style="enable-background:new 0 0 180 170;" xml:space="preserve">
<style type="text/css">
	.st0{fill:none;stroke:#4C626E;stroke-width:5;stroke-miterlimit:10;}
	.st1{fill:none;stroke:#19AD87;stroke-width:4;stroke-linecap:round;stroke-linejoin:round;stroke-miterlimit:10;}
</style>
<g id="card-lock">
	<line id="XMLID_452_" class="st0" x1="24.8" y1="58.2" x2="155.2" y2="58.2"/>
	<line id="XMLID_451_" class="st0" x1="24.8" y1="79.4" x2="155.2" y2="79.4"/>
	<path id="XMLID_453_" class="st0" d="M91.5,128H36.9c-6.7,0-12.1-5.4-12.1-12.1V46.1c0-6.7,5.4-12.1,12.1-12.1h106.2
		c6.7,0,12.1,5.4,12.1,12.1v42.5"/>
	<line id="XMLID_450_" class="st0" x1="97.6" y1="67.3" x2="97.6" y2="70.3"/>
	<line id="XMLID_449_" class="st0" x1="109.7" y1="67.3" x2="109.7" y2="70.3"/>
	<line id="XMLID_448_" class="st0" x1="121.9" y1="67.3" x2="121.9" y2="70.3"/>
	<line id="XMLID_447_" class="st0" x1="134" y1="67.3" x2="134" y2="70.3"/>
	<path id="XMLID_446_" class="st1" d="M143.1,146.2h-24.3c-3.4,0-6.1-2.7-6.1-6.1v-18.2h36.4v18.2
		C149.2,143.5,146.4,146.2,143.1,146.2z"/>
	<path id="XMLID_166_" class="st1" d="M114.3,118.1c0-9.2,7.5-16.7,16.7-16.7s16.7,7.5,16.7,16.7"/>
</g>
</svg>
