<?xml version="1.0" encoding="utf-8"?>
<!-- Generator: Adobe Illustrator 19.0.0, SVG Export Plug-In . SVG Version: 6.00 Build 0)  -->
<svg version="1.1" id="Calque_1" xmlns="http://www.w3.org/2000/svg" xmlns:xlink="http://www.w3.org/1999/xlink" x="0px" y="0px"
	 viewBox="-79 170 453 453" style="enable-background:new -79 170 453 453;" xml:space="preserve">
<style type="text/css">
	.st0{fill:#D4E1F4;}
	.st1{fill:#FF2E83;}
	.st2{fill:#0068FF;}
</style>
<path class="st0" d="M182.5,324.2v150.6c0,12.6-10.2,22.8-22.8,22.8H-67v20h246.6c12.6,0,22.8-10.2,22.8-22.8v-170H185
	C184.1,324.8,183.3,324.6,182.5,324.2z"/>
<path class="st0" d="M182.3,262.6c0.1,0.9-0.7,50.2,0.2,50.2h20v-27.5C202.5,273.7,193.8,264,182.3,262.6z"/>
<g>
	<path class="st1" d="M214.5,494.8V285.3c0-19.2-15.6-34.8-34.8-34.8H-74.9v12h254.5c12.6,0,22.8,10.2,22.8,22.8v27.5H185
		c-3.3,0-6,2.7-6,6c0,3.3,2.7,6,6,6h17.4v170c0,12.6-10.2,22.8-22.8,22.8H-74.9v12h254.5C198.9,529.7,214.5,514.1,214.5,494.8z"/>
	<path class="st1" d="M59.5,453.2c0,14.8,7.6,28.6,20.1,36.5c12.5,7.9,28.2,8.8,41.6,2.4c18.1,8.6,39.8,3.6,52.3-12.1
		c12.5-15.7,12.5-38,0-53.7c-12.5-15.7-34.2-20.7-52.3-12.1c-13.4-6.4-29-5.5-41.6,2.4C67.1,424.6,59.5,438.4,59.5,453.2z
		 M108.6,453.2c0-9.8,4.7-19.1,12.6-25c7.9,5.9,12.6,15.1,12.6,25c0,9.8-4.7,19.1-12.6,25C113.3,472.3,108.6,463,108.6,453.2
		L108.6,453.2z M170.8,453.2c0,9.4-4.2,18.3-11.6,24.2c-7.3,5.9-16.9,8.2-26.1,6.2c16.8-16.8,16.8-44,0-60.8
		c9.2-2,18.8,0.3,26.1,6.2C166.6,434.9,170.9,443.8,170.8,453.2z M102.6,422.1c2.2,0,4.4,0.2,6.6,0.7c-16.8,16.8-16.8,44,0,60.8
		c-11.6,2.5-23.7-1.8-31-11.2c-7.4-9.4-8.7-22.1-3.5-32.8C79.9,428.8,90.7,422.1,102.6,422.1z"/>
	<path class="st1" d="M162.2,324.8c3.3,0,6-2.7,6-6c0-3.3-2.7-6-6-6h-33.7c-3.3,0-6,2.7-6,6c0,3.3,2.7,6,6,6H162.2z"/>
	<path class="st1" d="M106.6,324.8c3.3,0,6-2.7,6-6c0-3.3-2.7-6-6-6h-5.6c-3.3,0-6,2.7-6,6c0,3.3,2.7,6,6,6H106.6z"/>
	<path class="st1" d="M78.5,312.8H-70c-3.3,0-6,2.7-6,6c0,3.3,2.7,6,6,6H78.5c3.3,0,6-2.7,6-6C84.5,315.5,81.8,312.8,78.5,312.8z"/>
	<path class="st1" d="M266.5,195.7l-24-24c-2.4-2.3-6.1-2.2-8.4,0.1c-2.3,2.3-2.3,6.1-0.1,8.4l13.8,13.8h-81.3c-3.3,0-6,2.7-6,6
		s2.7,6,6,6h81.3l-13.8,13.8c-1.5,1.5-2.1,3.7-1.6,5.8c0.6,2.1,2.2,3.7,4.3,4.3c2.1,0.6,4.3-0.1,5.8-1.6l24-24
		C268.8,201.9,268.8,198.1,266.5,195.7z"/>
	<path class="st1" d="M92.7,194h-1.1c-3.3,0-6,2.7-6,6s2.7,6,6,6h1.1c3.3,0,6-2.7,6-6S96,194,92.7,194z"/>
	<path class="st1" d="M111.6,206h0.7c3.3,0,6-2.7,6-6s-2.7-6-6-6h-0.7c-3.3,0-6,2.7-6,6S108.3,206,111.6,206z"/>
	<path class="st1" d="M139.5,194c-3.3,0-6,2.7-6,6s2.7,6,6,6h0.3c3.3,0,6-2.7,6-6s-2.7-6-6-6H139.5z"/>
	<path class="st1" d="M253.6,564.7c-1.5-1.6-3.7-2.2-5.8-1.6c-2.1,0.6-3.7,2.2-4.3,4.3c-0.6,2.1,0.1,4.3,1.6,5.8l13.8,13.8H129.5
		c-3.3,0-6,2.7-6,6c0,3.3,2.7,6,6,6h129.4l-13.8,13.8c-2.3,2.3-2.3,6.1,0,8.5c2.3,2.3,6.1,2.3,8.5,0l24-24c2.3-2.3,2.3-6.1,0-8.5
		L253.6,564.7z"/>
	<path class="st1" d="M55.8,587h-1.1c-3.3,0-6,2.7-6,6c0,3.3,2.7,6,6,6h1.1c3.3,0,6-2.7,6-6C61.8,589.6,59.1,587,55.8,587z"/>
	<path class="st1" d="M75.4,587h-0.7c-3.3,0-6,2.7-6,6c0,3.3,2.7,6,6,6h0.7c3.3,0,6-2.7,6-6C81.4,589.6,78.7,587,75.4,587L75.4,587z
		"/>
	<path class="st1" d="M102.9,587h-0.3c-3.3,0-6,2.7-6,6c0,3.3,2.7,6,6,6h0.3c3.3,0,6-2.7,6-6C108.9,589.6,106.2,587,102.9,587z"/>
	<path class="st1" d="M306.6,302.7c-2.3,2.3-2.3,6.1,0,8.5l13.8,13.8h-23.6c-3.3,0-6,2.7-6,6c0,3.3,2.7,6,6,6h23.6l-13.8,13.8
		c-2.3,2.3-2.3,6.1,0,8.5c2.3,2.3,6.1,2.3,8.5,0l24-24c2.3-2.3,2.3-6.1,0-8.5l-24-24C312.8,300.3,309,300.3,306.6,302.7z"/>
	<path class="st1" d="M228.8,337c3.3,0,6-2.7,6-6c0-3.3-2.7-6-6-6h-1.1c-3.3,0-6,2.7-6,6c0,3.3,2.7,6,6,6H228.8z"/>
	<path class="st1" d="M248.5,325h-0.7c-3.3,0-6,2.7-6,6c0,3.3,2.7,6,6,6h0.7c3.3,0,6-2.7,6-6C254.5,327.7,251.8,325,248.5,325z"/>
	<path class="st1" d="M275.6,325c-3.3,0-6,2.7-6,6c0,3.3,2.7,6,6,6h0.3c3.3,0,6-2.7,6-6c0-3.3-2.7-6-6-6H275.6z"/>
	<path class="st1" d="M334.5,433.7c-2.4-2.3-6.1-2.2-8.4,0.1c-2.3,2.3-2.3,6.1-0.1,8.4l13.8,13.8h-59c-3.3,0-6,2.7-6,6s2.7,6,6,6h59
		L326,481.8c-1.5,1.5-2.1,3.7-1.6,5.8c0.6,2.1,2.2,3.7,4.3,4.3c2.1,0.6,4.3-0.1,5.8-1.6l24-24c2.3-2.3,2.3-6.1,0-8.5L334.5,433.7z"
		/>
	<path class="st1" d="M231.8,468h0.7c3.3,0,6-2.7,6-6s-2.7-6-6-6h-0.7c-3.3,0-6,2.7-6,6S228.5,468,231.8,468z"/>
	<path class="st1" d="M259.7,468h0.3c3.3,0,6-2.7,6-6s-2.7-6-6-6h-0.3c-3.3,0-6,2.7-6,6S256.4,468,259.7,468z"/>
</g>
<path class="st2" d="M-45.7,178.4H-73c-3.3,0-6,2.7-6,6v411.3c0,3.3,2.7,6,6,6h27.3c3.3,0,6-2.7,6-6v-66.5h-12v60.5H-67V190.4h15.3
	V250h12v-65.6C-39.7,181.1-42.3,178.4-45.7,178.4z"/>
</svg>
