<?xml version="1.0" encoding="utf-8"?>
<!-- Generator: Adobe Illustrator 19.0.0, SVG Export Plug-In . SVG Version: 6.00 Build 0)  -->
<svg version="1.1" id="Layer_1" xmlns="http://www.w3.org/2000/svg" xmlns:xlink="http://www.w3.org/1999/xlink" x="0px" y="0px"
	 viewBox="-49 141 512 512" style="enable-background:new -49 141 512 512;" xml:space="preserve">
<style type="text/css">
	.st0{fill:#D4E1F4;}
	.st1{fill:#FF2E83;}
	.st2{fill:#0068FF;}
</style>
<path class="st0" d="M107.4,529.7c-33-21.6-59.9-70.5-59.9-108.9V255.6l171.9-80.9l-29.6-14L8.3,246.1v165.3
	c0,38.4,26.9,87.2,59.9,108.9L189.8,600l12.4-8.1L107.4,529.7z"/>
<g>
	<path class="st1" d="M256.4,482.5h7.3c3.3,0,6-2.7,6-6s-2.7-6-6-6h-1.3v-20.8h20.9c0.7,3.2,3.9,5.3,7.2,4.5c2.7-0.6,4.7-3,4.7-5.9
		v-4.7c0-3.3-2.7-6-6-6h-32.8c-3.3,0-6,2.7-6,6v32.8C250.4,479.8,253.1,482.5,256.4,482.5L256.4,482.5z"/>
	<path class="st1" d="M256.4,546.3h32.8c3.3,0,6-2.7,6-6v-32.8c0-3.3-2.7-6-6-6h-32.8c-3.3,0-6,2.7-6,6v32.8
		C250.4,543.6,253.1,546.3,256.4,546.3z M262.4,513.5h20.8v20.8h-20.8V513.5z"/>
	<path class="st1" d="M263.7,598.1h-1.3v-20.8h20.8v0.7c0,3.3,2.7,6,6,6s6-2.7,6-6l0,0v-6.7c0-3.3-2.7-6-6-6h-32.8c-3.3,0-6,2.7-6,6
		v32.8c0,3.3,2.7,6,6,6h7.3c3.3,0,6-2.7,6-6S267,598.1,263.7,598.1z"/>
	<path class="st1" d="M305.9,445.9L284.8,467l-6.9-6.9c-2.3-2.3-6.1-2.3-8.5,0c-2.3,2.3-2.3,6.1,0,8.5l11.1,11.1
		c2.3,2.3,6.1,2.3,8.5,0l25.3-25.3c2.4-2.3,2.4-6.1,0.1-8.5C312.1,443.6,308.3,443.5,305.9,445.9
		C305.9,445.9,305.9,445.9,305.9,445.9L305.9,445.9z"/>
	<path class="st1" d="M305.9,574.5l-21.1,21.1l-6.9-6.9c-2.3-2.4-6.1-2.4-8.5-0.1s-2.4,6.1-0.1,8.5c0,0,0,0,0.1,0.1l11.1,11.1
		c2.3,2.3,6.1,2.3,8.5,0l25.3-25.3c2.3-2.3,2.3-6.1,0-8.5C312,572.1,308.2,572.1,305.9,574.5L305.9,574.5L305.9,574.5z"/>
	<path class="st1" d="M376.7,454.1h-43.7c-3.3,0-6,2.7-6,6s2.7,6,6,6h43.7c3.3,0,6-2.7,6-6S380,454.1,376.7,454.1z"/>
	<path class="st1" d="M376.7,517.9h-43.7c-3.3,0-6,2.7-6,6s2.7,6,6,6h43.7c3.3,0,6-2.7,6-6S380,517.9,376.7,517.9z"/>
	<path class="st1" d="M376.7,581.7h-43.7c-3.3,0-6,2.7-6,6s2.7,6,6,6h43.7c3.3,0,6-2.7,6-6S380,581.7,376.7,581.7z"/>
</g>
<path class="st2" d="M186.5,609.4c1.2,0,2.4-0.4,3.4-1l42.7-29.1l-6.8-9.9l-39.3,26.8L73.1,518.8c-34.6-23.6-60.8-73-60.8-114.9V249
	l174.2-85.3l174.1,85.5V390h12V245.5c0-2.3-1.3-4.4-3.4-5.4l-180.1-88.5c-1.7-0.8-3.6-0.8-5.3,0L3.7,239.8c-2.1,1-3.4,3.1-3.4,5.4
	v158.7c0,45.5,28.4,99.2,66,124.8l116.8,79.6C184.1,609.1,185.3,609.4,186.5,609.4L186.5,609.4z"/>
<path class="st2" d="M328.4,371.9v-97.2c0-2.3-1.3-4.4-3.4-5.4l-135.9-66.7c-1.7-0.8-3.6-0.8-5.3,0L48,269.2c-2.1,1-3.4,3.1-3.4,5.4
	v127.3c0,32,21.5,72.6,47.9,90.6l90.6,61.8c2,1.4,4.7,1.4,6.8,0l37.3-25.5l-6.8-9.9l-34,23.2l-87.2-59.5
	c-23.1-15.8-42.7-52.7-42.7-80.7V278.3l129.9-63.6l129.9,63.8v93.4L328.4,371.9z"/>
<path class="st1" d="M384.7,384h-25.6c-2.4-10.6-11.8-18.1-22.6-18.1h-40c-10.8,0-20.2,7.5-22.6,18.1h-25.6c-16,0-28.9,13-29,29v201
	c0,16,13,28.9,29,29h136.3c16,0,28.9-13,29-29V413C413.6,397,400.7,384.1,384.7,384z M285.4,389.1c0-6.2,5-11.2,11.2-11.2h40
	c6.2,0,11.2,5,11.2,11.2v0.9c0,6.2-5,11.2-11.2,11.2h-40c-6.2,0-11.2-5-11.2-11.2V389.1z M401.6,614c0,9.4-7.6,17-17,17H248.4
	c-9.4,0-17-7.6-17-17V413c0-9.4,7.6-17,17-17h25.8c2.7,10.1,11.9,17.1,22.4,17.1h40c10.5,0,19.6-7,22.4-17.1h25.8
	c9.4,0,16.9,7.6,17,17V614z"/>
</svg>
