<?xml version="1.0" encoding="iso-8859-1"?>
<!-- Generator: Adobe Illustrator 19.0.0, SVG Export Plug-In . SVG Version: 6.00 Build 0)  -->
<svg version="1.1" id="Capa_1" xmlns="http://www.w3.org/2000/svg" xmlns:xlink="http://www.w3.org/1999/xlink" x="0px" y="0px"
	 viewBox="0 0 511.877 511.877" style="enable-background:new 0 0 511.877 511.877;" xml:space="preserve">
<path style="fill:#94C1FF;" d="M159.978,384.001c0,35.343-28.657,64.001-64,64.001s-64-28.658-64-64.001S60.635,320,95.978,320
	S159.978,348.66,159.978,384.001z"/>
<path style="fill:#D7E9FF;" d="M39.975,384.001h-7.998c0,35.343,28.657,64.001,64,64.001c1.351,0,2.671-0.117,3.999-0.203
	C66.507,445.729,39.975,417.995,39.975,384.001z"/>
<path style="fill:#5C9EFF;" d="M151.979,384.001h7.999c0,35.343-28.657,64.001-64,64.001c-1.352,0-2.671-0.117-3.999-0.203
	C125.447,445.729,151.979,417.995,151.979,384.001z"/>
<path style="fill:#D7E9FF;" d="M127.969,384.001c0,17.652-14.34,31.992-31.992,31.992s-31.992-14.34-31.992-31.992
	s14.34-31.992,31.992-31.992S127.969,366.35,127.969,384.001z"/>
<path style="fill:#94C1FF;" d="M507.895,384.001c0,35.343-28.657,64.001-64,64.001c-35.344,0-64.001-28.658-64.001-64.001
	S408.551,320,443.895,320C479.238,320.001,507.895,348.66,507.895,384.001z"/>
<path style="fill:#D7E9FF;" d="M475.887,384.001c0,17.652-14.341,31.992-31.992,31.992c-17.652,0-31.993-14.34-31.993-31.992
	s14.341-31.992,31.993-31.992C461.546,352.01,475.887,366.35,475.887,384.001z"/>
<path style="fill:#FFFFFF;" d="M419.9,384.001c0-16.285,12.248-29.595,27.994-31.587c-1.328-0.172-2.633-0.405-3.999-0.405
	c-17.652,0-31.993,14.34-31.993,31.992s14.341,31.992,31.993,31.992c1.366,0,2.671-0.234,3.999-0.406
	C432.148,413.596,419.9,400.288,419.9,384.001z"/>
<path style="fill:#94C1FF;" d="M467.889,384.001c0,16.285-12.247,29.595-27.993,31.586c1.327,0.172,2.632,0.406,3.999,0.406
	c17.651,0,31.992-14.34,31.992-31.992s-14.341-31.992-31.992-31.992c-1.367,0-2.672,0.233-3.999,0.405
	C455.642,354.408,467.889,367.717,467.889,384.001z"/>
<path style="fill:#FFFFFF;" d="M71.983,384.001h-7.998c0,17.652,14.34,31.992,31.992,31.992c1.367,0,2.671-0.234,3.999-0.406
	C84.23,413.596,71.983,400.288,71.983,384.001z"/>
<path style="fill:#94C1FF;" d="M119.971,384.001h7.998c0,17.652-14.34,31.992-31.992,31.992c-1.367,0-2.671-0.234-3.999-0.406
	C107.724,413.596,119.971,400.288,119.971,384.001z"/>
<path style="fill:#5C9EFF;" d="M493.929,344.16c-11.723-14.707-29.766-24.158-50.034-24.158c-35.344,0-64.001,28.658-64.001,64.001
	c0,3.007,0.281,5.944,0.68,8.842c5.171-12.575,18.387-38.632,42.607-49.535c8.818-3.968,19.175-5.976,30.766-5.976
	C471.005,337.333,486.525,341.699,493.929,344.16z"/>
<path style="fill:#D7E9FF;" d="M419.9,336.013c-36.233,16.316-49.59,61.588-49.59,61.588c-4.076-9.123-6.154-18.559-6.396-27.994
	c-0.32-17.675,5.835-34.952,17.277-48.387c6.639-7.842,15.113-14.316,25.111-18.878c8.803-3.999,17.996-6.077,27.11-6.319
	c28.399-0.961,55.831,14.957,68.148,42.389C501.561,338.411,456.212,319.697,419.9,336.013z"/>
<path style="fill:#94C1FF;" d="M482.456,332.71c11.45,2.578,19.105,5.702,19.105,5.702c-12.317-27.432-39.749-43.35-68.148-42.389
	c-1.812,0.047-3.632,0.227-5.444,0.422C450.377,298.984,470.865,312.082,482.456,332.71z"/>
<path style="fill:#FFFFFF;" d="M371.912,369.607c-0.32-17.675,5.835-34.952,17.277-48.387c6.639-7.842,15.113-14.316,25.111-18.878
	c7.928-3.601,16.168-5.562,24.393-6.108c-1.766-0.07-3.507-0.273-5.28-0.211c-9.114,0.242-18.308,2.32-27.11,6.319
	c-9.998,4.562-18.473,11.036-25.111,18.878c-11.442,13.435-17.598,30.712-17.277,48.387c0.242,9.436,2.32,18.871,6.396,27.994
	c0,0,1.297-4.397,4.18-10.943C372.966,381.018,372.06,375.316,371.912,369.607z"/>
<path style="fill:#5C9EFF;" d="M483.292,341.113c10.295,11.341,16.605,26.361,16.605,42.889c0,33.992-26.532,61.728-60.001,63.798
	c1.327,0.086,2.647,0.203,3.999,0.203c35.343,0,64-28.658,64-64.001c0-15.075-5.249-28.899-13.966-39.843
	C491.305,343.293,487.673,342.191,483.292,341.113z"/>
<path style="fill:#D7E9FF;" d="M387.892,384.001c0-2.257,0.133-4.476,0.359-6.671c-3.468,5.937-5.998,11.436-7.678,15.513
	c4.319,31.148,30.984,55.159,63.321,55.159c1.351,0,2.671-0.117,3.999-0.203C414.425,445.729,387.892,417.995,387.892,384.001z"/>
<path style="fill:#94C1FF;" d="M313.683,96.39c4.241-1.281,8.717,1.202,9.92,5.436c1.281,4.241-1.117,8.639-5.358,9.92
	s-8.717-1.203-9.997-5.437C307.044,102.068,309.442,97.67,313.683,96.39z"/>
<path style="fill:#5C9EFF;" d="M323.603,101.826c-1.203-4.233-5.679-6.717-9.92-5.436L348.8,86.072
	c-0.562,1.844-0.883,3.921-0.883,5.999c0,3.679,0.961,7.115,2.718,10.075l-32.391,9.6
	C322.486,110.464,324.884,106.067,323.603,101.826z"/>
<g>
	<path style="fill:#94C1FF;" d="M367.913,72.076v39.99c-2.163,0-4.163-0.32-6.077-0.961c-4.717-1.515-8.716-4.718-11.122-8.959
		h-0.078c-1.757-2.96-2.718-6.396-2.718-10.075c0-2.078,0.32-4.155,0.883-5.999h0.078C351.432,77.917,358.954,72.076,367.913,72.076
		z"/>
	<polygon style="fill:#94C1FF;" points="392.868,116.627 367.913,112.066 367.913,72.076 411.902,64.078 411.902,120.064 	"/>
</g>
<path style="fill:#5C9EFF;" d="M367.913,104.068c-2.163,0-4.163-0.32-6.077-0.961c-4.717-1.516-8.716-4.718-11.122-8.959h-0.078
	c-1.14-1.921-1.796-4.085-2.226-6.334c-0.289,1.374-0.492,2.796-0.492,4.257c0,3.679,0.961,7.115,2.718,10.075h0.078
	c2.406,4.241,6.405,7.444,11.122,8.959c1.914,0.641,3.914,0.961,6.077,0.961l24.955,4.562l19.034,3.437v-7.998l-19.034-3.437
	L367.913,104.068z"/>
<path style="fill:#D7E9FF;" d="M367.913,72.076c-8.959,0-16.48,5.842-19.034,13.996h-0.078c-0.562,1.844-0.883,3.921-0.883,5.999
	c0,1.296,0.266,2.515,0.492,3.741c0.125-0.586,0.227-1.195,0.391-1.742h0.078c2.554-8.154,10.075-13.996,19.034-13.996l43.989-7.998
	v-7.998L367.913,72.076z"/>
<path style="fill:#94C1FF;" d="M235.944,184.048v47.99c0,4.397-3.522,7.998-7.998,7.998H75.982c-4.397,0-7.998-3.601-7.998-7.998
	v-31.992c0-4.397,3.601-7.998,7.998-7.998h143.966c4.476,0,7.998-3.602,7.998-7.999h7.998V184.048z"/>
<path style="fill:#5C9EFF;" d="M227.946,184.048c0,4.397-3.522,7.999-7.998,7.999v39.99c0,4.397-3.522,7.998-7.998,7.998h15.996
	c4.476,0,7.998-3.601,7.998-7.998v-47.989H227.946z"/>
<path style="fill:#D7E9FF;" d="M83.98,232.038v-31.992c0-4.397,3.601-7.998,7.998-7.998H75.982c-4.397,0-7.998,3.601-7.998,7.998
	v31.992c0,4.397,3.601,7.998,7.998,7.998h15.996C87.581,240.036,83.98,236.435,83.98,232.038z"/>
<polygon style="fill:#94C1FF;" points="75.982,256.033 27.993,297.139 27.993,272.029 "/>
<g>
	<polygon style="fill:#D7E9FF;" points="75.982,256.033 27.993,272.029 27.993,280.027 60.696,269.124 	"/>
	<path style="fill:#D7E9FF;" d="M187.956,376.004h-28.072H32.148H3.999c0-23.112,11.279-43.911,29.274-58.463
		c16.395-13.364,38.468-21.519,62.704-21.519C146.848,296.023,187.956,331.859,187.956,376.004z"/>
</g>
<path style="fill:#94C1FF;" d="M95.977,296.023c-2.757,0-5.483,0.133-8.178,0.344c47.192,3.452,84.16,37.78,84.16,79.638h15.997
	C187.956,331.859,146.848,296.023,95.977,296.023z"/>
<path style="fill:#FFFFFF;" d="M49.269,317.542c14.528-11.841,33.523-19.565,54.526-21.175c-2.585-0.188-5.179-0.344-7.818-0.344
	c-24.236,0-46.31,8.154-62.704,21.519c-17.996,14.551-29.274,35.35-29.274,58.462h15.996
	C19.995,352.892,31.273,332.092,49.269,317.542z"/>
<path style="fill:#D7E9FF;" d="M392.868,116.627l-24.955-4.562c-2.163,0-4.163-0.32-6.077-0.961l2.078,9.521
	c9.514,57.986,7.998,156.604,7.998,167.397c0,11.677-3.522,22.394-9.521,31.273c-9.997,14.794-26.712,24.472-45.824,24.713h-0.641
	h-71.983c-22.073,0-39.99-17.917-39.99-39.99c0-39.99,23.994-47.988,23.994-47.988c0-7.998,0-15.996,0-15.996H75.982v15.996
	l-47.989,41.107l-7.999,6.881l12.154,12.153l1.125,1.367c16.395-13.364,38.468-21.519,62.704-21.519
	c50.871,0,91.979,35.836,91.979,79.981h151.963c8.795,0,16.879-2.319,23.994-6.397c-0.32-17.675,5.835-34.952,17.277-48.387
	c6.639-7.842,15.113-14.316,25.111-18.878c8.803-3.999,17.996-6.077,27.11-6.319L392.868,116.627z"/>
<g style="opacity:0.2;">
	<polygon style="fill:#94C1FF;" points="392.868,116.627 382.941,114.448 417.877,298.234 433.413,296.023 	"/>
</g>
<polygon style="fill:#FFFFFF;" points="27.61,311.635 43.989,297.139 89.713,260.406 91.978,240.036 75.982,240.036 75.982,256.033 
	27.993,297.139 19.995,304.021 "/>
<path style="fill:#5C9EFF;" d="M32.531,376.004c-0.328,2.624-0.554,5.28-0.554,7.998h128.001c0-2.718-0.227-5.374-0.555-7.998
	H32.531z"/>
<path style="fill:#94C1FF;" d="M65.117,376.004c-0.664,2.569-1.132,5.218-1.132,7.998h63.984c0-2.78-0.469-5.429-1.132-7.998H65.117
	z"/>
<g>
	<path style="fill:#116FFF;" d="M95.977,451.892c-35.843,0-65.648-27.993-67.852-63.734c-0.132-2.203,1.539-4.101,3.75-4.233
		c2.187-0.188,4.093,1.546,4.233,3.749c1.945,31.523,28.243,56.221,59.869,56.221c31.625,0,57.924-24.697,59.869-56.221
		c0.141-2.203,2.078-3.952,4.233-3.749c2.21,0.133,3.882,2.03,3.749,4.233C161.626,423.898,131.82,451.892,95.977,451.892z"/>
	<path style="fill:#116FFF;" d="M95.977,419.9c-18.121,0-33.469-13.535-35.71-31.492c-0.273-2.188,1.281-4.187,3.476-4.46
		c2.147-0.328,4.187,1.289,4.46,3.476c1.741,13.958,13.684,24.479,27.774,24.479s26.033-10.521,27.774-24.479
		c0.273-2.202,2.375-3.765,4.46-3.476c2.195,0.273,3.749,2.272,3.476,4.46C129.446,406.365,114.098,419.9,95.977,419.9z"/>
	<path style="fill:#116FFF;" d="M95.977,427.898c-2.21,0-3.999-1.788-3.999-3.999v-7.998c0-2.21,1.789-3.999,3.999-3.999
		s3.999,1.789,3.999,3.999v7.998C99.976,426.109,98.188,427.898,95.977,427.898z"/>
	<path style="fill:#116FFF;" d="M115.972,422.54c-1.375,0-2.718-0.719-3.46-2l-3.999-6.92c-1.109-1.914-0.453-4.358,1.46-5.46
		c1.875-1.117,4.343-0.453,5.459,1.461l3.999,6.92c1.109,1.913,0.453,4.358-1.46,5.46
		C117.347,422.368,116.652,422.54,115.972,422.54z"/>
	<path style="fill:#116FFF;" d="M130.609,407.902c-0.679,0-1.367-0.172-2-0.539l-6.92-3.999c-1.914-1.102-2.57-3.546-1.461-5.459
		c1.109-1.914,3.562-2.562,5.46-1.461l6.92,3.999c1.914,1.102,2.57,3.546,1.461,5.46
		C133.328,407.184,131.984,407.902,130.609,407.902z"/>
	<path style="fill:#116FFF;" d="M61.344,407.902c-1.382,0-2.726-0.719-3.468-1.999c-1.101-1.922-0.445-4.366,1.469-5.468
		l6.943-3.999c1.914-1.094,4.358-0.445,5.468,1.469c1.101,1.921,0.445,4.365-1.469,5.467l-6.943,3.999
		C62.711,407.73,62.024,407.902,61.344,407.902z"/>
	<path style="fill:#116FFF;" d="M75.982,422.54c-0.688,0-1.375-0.172-2-0.539c-1.913-1.109-2.569-3.555-1.46-5.46l4.015-6.936
		c1.109-1.93,3.577-2.57,5.459-1.461c1.914,1.109,2.57,3.554,1.461,5.46l-4.015,6.936C78.7,421.822,77.356,422.54,75.982,422.54z"/>
	<path style="fill:#116FFF;" d="M443.895,451.892c-30.884,0-57.932-20.846-65.767-50.69c-0.562-2.133,0.711-4.319,2.852-4.882
		c2.164-0.578,4.327,0.711,4.882,2.851c6.92,26.33,30.781,44.724,58.033,44.724c33.078,0,59.985-26.907,59.985-59.985
		c0-11.372-3.202-22.448-9.256-32.016c-1.179-1.867-0.625-4.343,1.242-5.522c1.852-1.164,4.327-0.633,5.522,1.242
		c6.865,10.856,10.489,23.408,10.489,36.296C511.878,421.392,481.378,451.892,443.895,451.892z"/>
	<path style="fill:#116FFF;" d="M443.895,419.9c-19.847,0-35.991-16.145-35.991-35.991s16.145-35.991,35.991-35.991
		s35.991,16.145,35.991,35.991S463.742,419.9,443.895,419.9z M443.895,355.915c-15.435,0-27.993,12.56-27.993,27.993
		s12.559,27.993,27.993,27.993c15.434,0,27.993-12.56,27.993-27.993S459.329,355.915,443.895,355.915z"/>
	<path style="fill:#116FFF;" d="M443.895,355.915c-2.211,0-3.999-1.789-3.999-3.999v-7.998c0-2.211,1.788-3.999,3.999-3.999
		c2.21,0,3.999,1.788,3.999,3.999v7.998C447.894,354.126,446.105,355.915,443.895,355.915z"/>
	<path style="fill:#116FFF;" d="M443.895,427.898c-2.211,0-3.999-1.788-3.999-3.999v-7.998c0-2.21,1.788-3.999,3.999-3.999
		c2.21,0,3.999,1.789,3.999,3.999v7.998C447.894,426.109,446.105,427.898,443.895,427.898z"/>
	<path style="fill:#116FFF;" d="M427.898,360.204c-1.382,0-2.726-0.719-3.459-2l-4-6.928c-1.109-1.914-0.453-4.358,1.461-5.46
		c1.906-1.117,4.358-0.453,5.46,1.461l3.999,6.928c1.109,1.914,0.453,4.358-1.461,5.46
		C429.265,360.031,428.578,360.204,427.898,360.204z"/>
	<path style="fill:#116FFF;" d="M463.89,422.54c-1.375,0-2.719-0.719-3.46-2l-3.999-6.92c-1.109-1.914-0.453-4.358,1.46-5.46
		c1.891-1.117,4.343-0.453,5.46,1.461l3.999,6.92c1.109,1.913,0.453,4.358-1.461,5.46C465.265,422.368,464.57,422.54,463.89,422.54z
		"/>
	<path style="fill:#116FFF;" d="M416.199,371.911c-0.68,0-1.367-0.172-2-0.531l-6.936-3.999c-1.914-1.109-2.57-3.554-1.469-5.468
		c1.109-1.913,3.538-2.562,5.467-1.468l6.937,3.999c1.913,1.109,2.569,3.554,1.468,5.467
		C418.924,371.193,417.581,371.911,416.199,371.911z"/>
	<path style="fill:#116FFF;" d="M478.527,407.902c-0.68,0-1.367-0.172-1.999-0.539l-6.921-3.999
		c-1.913-1.102-2.569-3.546-1.46-5.459c1.108-1.914,3.554-2.562,5.46-1.461l6.92,3.999c1.913,1.102,2.569,3.546,1.461,5.46
		C481.246,407.184,479.902,407.902,478.527,407.902z"/>
	<path style="fill:#116FFF;" d="M411.918,387.908h-8.014c-2.21,0-3.999-1.789-3.999-3.999s1.789-3.999,3.999-3.999h8.014
		c2.211,0,4,1.789,4,3.999S414.128,387.908,411.918,387.908z"/>
	<path style="fill:#116FFF;" d="M483.885,387.908h-7.99c-2.21,0-3.999-1.789-3.999-3.999s1.789-3.999,3.999-3.999h7.99
		c2.21,0,3.999,1.789,3.999,3.999S486.095,387.908,483.885,387.908z"/>
	<path style="fill:#116FFF;" d="M409.262,407.902c-1.382,0-2.726-0.719-3.46-1.999c-1.109-1.914-0.453-4.358,1.461-5.46l6.943-4.007
		c1.922-1.117,4.358-0.453,5.459,1.461c1.109,1.913,0.453,4.357-1.46,5.459l-6.944,4.007
		C410.629,407.73,409.942,407.902,409.262,407.902z"/>
	<path style="fill:#116FFF;" d="M471.607,371.911c-1.375,0-2.719-0.719-3.46-2c-1.109-1.913-0.453-4.357,1.46-5.459l6.921-3.999
		c1.882-1.117,4.351-0.453,5.46,1.46c1.108,1.914,0.452,4.358-1.461,5.46l-6.92,3.999
		C472.982,371.74,472.287,371.911,471.607,371.911z"/>
	<path style="fill:#116FFF;" d="M423.9,422.54c-0.688,0-1.375-0.172-2-0.539c-1.914-1.109-2.57-3.555-1.461-5.46l4.016-6.936
		c1.108-1.93,3.576-2.57,5.459-1.461c1.914,1.109,2.57,3.554,1.461,5.46l-4.015,6.936C426.618,421.822,425.274,422.54,423.9,422.54z
		"/>
	<path style="fill:#116FFF;" d="M459.899,360.195c-0.68,0-1.367-0.172-2-0.531c-1.913-1.109-2.569-3.554-1.468-5.468l3.991-6.92
		c1.101-1.914,3.546-2.57,5.467-1.469c1.914,1.109,2.57,3.554,1.469,5.468l-3.991,6.92
		C462.625,359.477,461.281,360.195,459.899,360.195z"/>
	<path style="fill:#116FFF;" d="M370.271,401.499c-1.562,0-2.999-0.914-3.646-2.359c-17.207-38.187-0.141-83.269,38.037-100.507
		c9.912-4.46,20.401-6.726,31.181-6.726c29.501,0,56.432,17.176,68.897,43.841c0.586,0.695,0.938,1.594,0.938,2.578
		c0,2.242-2.039,3.843-4.093,3.999c-0.719,0.117-1.078-0.094-1.586-0.305c-0.219-0.086-21.636-8.795-46.091-8.795
		c-12.153,0-23.041,2.133-32.367,6.343c-34.094,15.363-47.309,58.635-47.434,59.072c-0.477,1.601-1.898,2.733-3.57,2.851
		C370.451,401.491,370.357,401.499,370.271,401.499z M435.842,299.905c-9.639,0-19.027,2.031-27.892,6.022
		c-30.899,13.941-46.342,48.285-37.617,80.004c6.374-14.855,21.059-41.553,47.927-53.658c10.356-4.672,22.354-7.046,35.647-7.046
		c15.816,0,30.173,3.312,39.233,6.007C480.753,311.932,459.204,299.905,435.842,299.905z"/>
	<path style="fill:#116FFF;" d="M339.904,379.91h-143.95c-2.211,0-3.999-1.789-3.999-3.999s1.788-3.999,3.999-3.999h143.95
		c2.21,0,3.999,1.789,3.999,3.999S342.114,379.91,339.904,379.91z"/>
	<path style="fill:#116FFF;" d="M431.898,293.43c-1.828,0-3.484-1.258-3.898-3.116l-36.538-161.454
		c-0.491-2.156,0.859-4.296,3.016-4.78c2.179-0.531,4.296,0.859,4.78,3.015l36.538,161.454c0.491,2.156-0.859,4.296-3.016,4.78
		C432.484,293.398,432.187,293.43,431.898,293.43z"/>
	<path style="fill:#116FFF;" d="M371.912,291.93c-2.21,0-3.999-1.788-3.999-3.999l0.023-4.085
		c0.586-90.518-4.007-138.428-7.967-162.672c-0.359-2.188,1.117-4.241,3.296-4.593c2.156-0.391,4.233,1.109,4.593,3.296
		c4.015,24.557,8.67,72.943,8.076,164.023l-0.023,4.03C375.911,290.142,374.123,291.93,371.912,291.93z"/>
	<path style="fill:#116FFF;" d="M203.952,307.926c-2.211,0-3.999-1.788-3.999-3.999c0-34.671,17.152-47.02,23.994-50.573v-5.413
		c0-2.21,1.789-3.999,3.999-3.999s3.999,1.789,3.999,3.999v7.998c0,1.719-1.102,3.249-2.733,3.796
		c-0.844,0.297-21.261,7.873-21.261,44.192C207.951,306.138,206.162,307.926,203.952,307.926z"/>
	<path style="fill:#116FFF;" d="M19.995,307.926c-1.125,0-2.241-0.476-3.038-1.397c-1.437-1.672-1.242-4.202,0.438-5.64
		l54.589-46.785v-6.163c0-2.21,1.788-3.999,3.999-3.999c2.21,0,3.999,1.789,3.999,3.999v7.998c0,1.164-0.508,2.273-1.398,3.038
		l-55.986,47.989C21.846,307.607,20.917,307.926,19.995,307.926z"/>
	<path style="fill:#116FFF;" d="M67.984,235.943c-2.211,0-3.999-1.789-3.999-3.999v-31.992c0-2.211,1.788-3.999,3.999-3.999
		c2.21,0,3.999,1.788,3.999,3.999v31.992C71.983,234.154,70.194,235.943,67.984,235.943z"/>
	<path style="fill:#116FFF;" d="M235.944,235.943c-2.21,0-3.999-1.789-3.999-3.999v-47.988c0-2.211,1.789-4,3.999-4
		s3.999,1.789,3.999,4v47.988C239.943,234.154,238.154,235.943,235.944,235.943z"/>
	<path style="fill:#116FFF;" d="M227.946,211.949H75.982c-2.211,0-3.999-1.789-3.999-3.999c0-2.211,1.788-3.999,3.999-3.999h151.964
		c2.21,0,3.999,1.788,3.999,3.999C231.945,210.16,230.156,211.949,227.946,211.949z"/>
	<path style="fill:#116FFF;" d="M339.904,379.918c-2.211,0-3.999-1.789-3.999-3.999s1.788-3.999,3.999-3.999
		c7.756,0,15.371-2.031,22.025-5.882c1.883-1.116,4.352-0.452,5.46,1.461c1.109,1.905,0.453,4.358-1.46,5.46
		C358.064,377.51,349.066,379.918,339.904,379.918z"/>
	<path style="fill:#116FFF;" d="M315.925,347.918c-2.211,0-3.999-1.789-3.999-3.999c0-2.211,1.788-3.999,3.999-3.999
		c28.665,0,51.987-23.323,51.987-51.988c0-2.21,1.789-3.999,3.999-3.999c2.211,0,3.999,1.789,3.999,3.999
		C375.911,321.009,349.003,347.918,315.925,347.918z"/>
	<path style="fill:#116FFF;" d="M243.942,347.918c-24.252,0-43.989-19.738-43.989-43.99c0-2.21,1.788-3.999,3.999-3.999
		c2.21,0,3.999,1.789,3.999,3.999c0,19.848,16.145,35.992,35.991,35.992c2.21,0,3.999,1.788,3.999,3.999
		C247.941,346.128,246.152,347.918,243.942,347.918z"/>
	<path style="fill:#116FFF;" d="M316.55,347.918h-72.608c-2.21,0-3.999-1.789-3.999-3.999c0-2.211,1.789-3.999,3.999-3.999h72.608
		c2.21,0,3.998,1.788,3.998,3.999C320.548,346.128,318.76,347.918,316.55,347.918z"/>
	<path style="fill:#116FFF;" d="M219.948,195.953H75.982c-2.211,0-3.999-1.789-3.999-3.999c0-2.211,1.788-3.999,3.999-3.999h143.966
		c2.21,0,3.999,1.788,3.999,3.999C223.947,194.164,222.158,195.953,219.948,195.953z"/>
	<path style="fill:#116FFF;" d="M67.984,203.951c-2.211,0-3.999-1.789-3.999-3.999c0-6.616,5.381-11.997,11.997-11.997
		c2.21,0,3.999,1.788,3.999,3.999c0,2.21-1.789,3.999-3.999,3.999c-2.203,0-3.999,1.796-3.999,3.999
		C71.983,202.162,70.194,203.951,67.984,203.951z"/>
	<path style="fill:#116FFF;" d="M75.982,243.933c-6.616,0-11.997-5.382-11.997-11.997c0-2.211,1.788-3.999,3.999-3.999
		c2.21,0,3.999,1.788,3.999,3.999c0,2.202,1.796,3.999,3.999,3.999c2.21,0,3.999,1.788,3.999,3.999
		C79.981,242.144,78.192,243.933,75.982,243.933z"/>
	<path style="fill:#116FFF;" d="M227.954,243.925c-2.21,0-3.999-1.789-3.999-3.999c0-2.211,1.789-3.999,3.999-3.999
		c2.203,0,3.999-1.797,3.999-3.999c0-2.211,1.789-3.999,3.999-3.999s3.999,1.788,3.999,3.999
		C239.951,238.543,234.569,243.925,227.954,243.925z"/>
	<path style="fill:#116FFF;" d="M219.956,195.953c-2.21,0-3.999-1.789-3.999-3.999c0-2.211,1.789-3.999,3.999-3.999
		c2.203,0,3.999-1.797,3.999-3.999c0-2.211,1.789-4,3.999-4s3.999,1.789,3.999,4C231.953,190.571,226.571,195.953,219.956,195.953z"
		/>
	<path style="fill:#116FFF;" d="M235.944,187.955h-7.99c-2.21,0-3.999-1.789-3.999-3.999c0-2.211,1.789-4,3.999-4h7.99
		c2.21,0,3.999,1.789,3.999,4C239.943,186.166,238.154,187.955,235.944,187.955z"/>
	<path style="fill:#116FFF;" d="M227.954,243.925H75.982c-2.211,0-3.999-1.789-3.999-3.999c0-2.211,1.788-3.999,3.999-3.999h151.972
		c2.21,0,3.999,1.788,3.999,3.999C231.953,242.136,230.164,243.925,227.954,243.925z"/>
	<path style="fill:#116FFF;" d="M27.993,315.924c-1.023,0-2.046-0.391-2.828-1.172l-7.998-7.998c-1.562-1.562-1.562-4.093,0-5.655
		s4.093-1.562,5.655,0l7.998,7.998c1.562,1.562,1.562,4.093,0,5.655C30.04,315.535,29.016,315.924,27.993,315.924z"/>
	<path style="fill:#116FFF;" d="M187.956,379.918H3.999c-2.21,0-3.999-1.789-3.999-3.999c0-46.31,43.053-83.988,95.978-83.988
		s95.978,37.679,95.978,83.988C191.955,378.128,190.166,379.918,187.956,379.918z M8.115,371.919h175.724
		c-2.414-40.053-40.905-71.991-87.862-71.991C49.019,299.928,10.529,331.867,8.115,371.919z"/>
	<path style="fill:#116FFF;" d="M367.913,115.971c-13.231,0-23.994-10.763-23.994-23.994s10.763-23.994,23.994-23.994
		c2.21,0,3.999,1.788,3.999,3.999c0,2.21-1.789,3.999-3.999,3.999c-8.818,0-15.996,7.178-15.996,15.996s7.178,15.996,15.996,15.996
		c2.21,0,3.999,1.788,3.999,3.999C371.912,114.182,370.123,115.971,367.913,115.971z"/>
	<path style="fill:#116FFF;" d="M367.905,75.981c-1.89,0-3.577-1.352-3.929-3.281c-0.391-2.179,1.047-4.257,3.218-4.654
		l43.989-7.998c2.141-0.352,4.258,1.038,4.656,3.218c0.391,2.179-1.047,4.257-3.219,4.655l-43.989,7.998
		C368.389,75.958,368.147,75.981,367.905,75.981z"/>
	<path style="fill:#116FFF;" d="M411.91,123.969c-0.242,0-0.484-0.023-0.727-0.062l-43.989-7.998
		c-2.171-0.398-3.608-2.476-3.218-4.655c0.398-2.179,2.5-3.562,4.655-3.218l43.989,7.998c2.172,0.398,3.609,2.476,3.219,4.655
		C415.488,122.618,413.8,123.969,411.91,123.969z"/>
	<path style="fill:#116FFF;" d="M411.902,123.969c-2.21,0-3.998-1.789-3.998-3.999V63.984c0-2.211,1.788-3.999,3.998-3.999
		c2.211,0,4,1.788,4,3.999v55.986C415.902,122.18,414.113,123.969,411.902,123.969z"/>
	<path style="fill:#116FFF;" d="M315.918,115.971c-5.288,0-10.014-3.546-11.498-8.623c-1.858-6.35,1.781-13.021,8.123-14.879
		c6.155-1.82,13.091,1.937,14.888,8.115c0.906,3.077,0.562,6.318-0.961,9.13c-1.53,2.812-4.077,4.858-7.162,5.765
		C318.206,115.807,317.066,115.971,315.918,115.971z M315.957,99.967c-0.391,0-0.773,0.062-1.156,0.172
		c-2.117,0.617-3.327,2.843-2.711,4.96c0.609,2.069,2.914,3.335,4.961,2.71c1.038-0.305,1.882-0.984,2.39-1.922
		c0.508-0.929,0.625-2.015,0.32-3.054C319.26,101.124,317.729,99.967,315.957,99.967z"/>
	<path style="fill:#116FFF;" d="M318.182,115.643c-1.726,0-3.319-1.125-3.835-2.866c-0.625-2.125,0.586-4.343,2.703-4.968
		l32.477-9.568c2.14-0.602,4.342,0.586,4.967,2.703c0.625,2.124-0.586,4.343-2.702,4.967l-32.477,9.568
		C318.932,115.588,318.557,115.643,318.182,115.643z"/>
	<path style="fill:#116FFF;" d="M313.668,100.303c-1.726,0-3.327-1.125-3.835-2.867c-0.625-2.124,0.586-4.342,2.702-4.967
		l35.188-10.357c2.148-0.602,4.351,0.586,4.968,2.703c0.624,2.124-0.586,4.342-2.702,4.967l-35.188,10.357
		C314.418,100.249,314.043,100.303,313.668,100.303z"/>
	<path style="fill:#116FFF;" d="M27.993,275.934c-1.671,0-3.234-1.062-3.796-2.733c-0.695-2.094,0.438-4.358,2.531-5.062
		l23.994-7.998c2.093-0.688,4.358,0.438,5.062,2.53c0.695,2.094-0.438,4.358-2.531,5.062l-23.994,7.998
		C28.836,275.872,28.415,275.934,27.993,275.934z"/>
	<path style="fill:#116FFF;" d="M27.993,291.93c-2.21,0-4-1.788-4-3.999v-15.996c0-2.211,1.789-3.999,4-3.999
		c2.211,0,3.999,1.788,3.999,3.999v15.996C31.992,290.142,30.204,291.93,27.993,291.93z"/>
	<path style="fill:#116FFF;" d="M367.913,115.971c-2.21,0-3.999-1.789-3.999-3.999v-39.99c0-2.211,1.789-3.999,3.999-3.999
		s3.999,1.788,3.999,3.999v39.99C371.912,114.182,370.123,115.971,367.913,115.971z"/>
</g>
<g>
</g>
<g>
</g>
<g>
</g>
<g>
</g>
<g>
</g>
<g>
</g>
<g>
</g>
<g>
</g>
<g>
</g>
<g>
</g>
<g>
</g>
<g>
</g>
<g>
</g>
<g>
</g>
<g>
</g>
</svg>
