<?xml version="1.0" encoding="utf-8"?>
<!-- Generator: Adobe Illustrator 19.0.0, SVG Export Plug-In . SVG Version: 6.00 Build 0)  -->
<svg version="1.1" id="Calque_1" xmlns="http://www.w3.org/2000/svg" xmlns:xlink="http://www.w3.org/1999/xlink" x="0px" y="0px"
	 viewBox="2247.9 -60.8 870.2 586" style="enable-background:new 2247.9 -60.8 870.2 586;" xml:space="preserve">
<style type="text/css">
	.st0{fill:#FFFFFF;}
	.st1{fill:#F4F3F3;}
	.st2{fill:#E95155;}
	.st3{fill:#F0E419;}
	.st4{fill:#14D4B4;}
	.st5{fill:#C7DBFE;}
	.st6{fill:#DFDFDF;}
	.st7{fill:#0F7CFF;}
	.st8{fill:#FAFAFA;}
	.st9{fill:#F4A57F;}
	.st10{fill:#020303;}
</style>
<g id="BACKGROUND">
</g>
<g id="DESIGN">
</g>
<g id="XMLID_609_">
	<defs>
		<rect id="XMLID_610_" x="572.7" y="-261.4" width="952.2" height="927.3"/>
	</defs>
	<clipPath id="XMLID_3_">
		<use xlink:href="#XMLID_610_"  style="overflow:visible;"/>
	</clipPath>
</g>
<g id="XMLID_740_">
	<g id="XMLID_751_">
		
			<image style="overflow:visible;opacity:0.1;" width="718" height="502" xlink:href="F78968D1.png"  transform="matrix(1 0 0 1 2260.5164 -19)">
		</image>
		<g>
			<path class="st0" d="M2959.8,464.5h-687.1V-2.2c0-2.2,1.8-4,4-4h679.1c2.2,0,4,1.8,4,4V464.5z"/>
		</g>
	</g>
	<path id="XMLID_473_" class="st1" d="M2959.8,27.8h-687.1v-30c0-2.2,1.8-4,4-4h679.1c2.2,0,4,1.8,4,4V27.8z"/>
	<circle id="XMLID_481_" class="st2" cx="2301.5" cy="11" r="8.1"/>
	<circle id="XMLID_728_" class="st3" cx="2323.4" cy="11" r="8.1"/>
	<circle id="XMLID_729_" class="st4" cx="2345.3" cy="11" r="8.1"/>
	<rect id="XMLID_482_" x="2554.5" y="135.8" class="st5" width="123.8" height="13"/>
	<rect id="XMLID_732_" x="2461.8" y="194.8" class="st6" width="138.6" height="13"/>
	<rect id="XMLID_736_" x="2461.8" y="224.1" class="st6" width="308.6" height="13"/>
	<rect id="XMLID_737_" x="2461.8" y="253.1" class="st6" width="308.6" height="13"/>
	<rect id="XMLID_734_" x="2631.7" y="194.8" class="st4" width="138.6" height="13"/>
	<rect id="XMLID_731_" x="2554.5" y="317.4" class="st7" width="123.8" height="19.5"/>
	<circle id="XMLID_730_" class="st1" cx="2956" cy="248.9" r="113.1"/>
	<circle id="XMLID_738_" class="st4" cx="3058.3" cy="194.3" r="34.9"/>
	<g id="XMLID_468_">
		<g id="XMLID_739_">
			<rect id="XMLID_752_" x="3055.9" y="182.7" class="st8" width="4.7" height="20.3"/>
		</g>
		<g id="XMLID_743_">
			<rect id="XMLID_749_" x="3048.1" y="190.5" class="st8" width="20.3" height="4.7"/>
		</g>
	</g>
	<ellipse id="XMLID_744_" class="st9" cx="2958.5" cy="191.5" rx="24.6" ry="26.5"/>
	<polygon id="XMLID_745_" class="st9" points="2946,209.1 2946.9,250.3 2969.8,250.3 2969.8,208.3 	"/>
	<path id="XMLID_747_" class="st10" d="M2944.4,166.5c0,0,16.6-10.5,29.5-4.7s8,15.7,8,15.7s4.3,19.3-1.9,25.6l-0.2-2.8
		c0,0,2.3-0.9,1.8-4.2c-0.5-3.3-2.5-2.7-2.5-2.7s-3-11.5-7.5-12.1c-4.4-0.5-9.9,4.7-24.5,1.9c0,0-1.9-0.5-2.1-0.9s-1.9,0.2-2.5,1.2
		c-0.7,1-4.3,7.2-4.7,8.7c-0.4,1.6-0.4,1.6-0.4,1.6s-2.3,0.1-2.2,2.7c0.1,2.7,2.1,3.6,2.1,3.6l0.1,2.9c0,0-5.3-3.6-6-13.4
		c0,0-1.9-13.1,0.9-19.3C2935.1,164.1,2944.4,166.5,2944.4,166.5z"/>
	<path id="XMLID_748_" class="st7" d="M2957.9,240.9l-11.9-18.1c0,0-33.8,8.7-38.5,45.8V319h103.8v-53.9c0,0-9.1-37.9-41.5-42.2
		L2957.9,240.9z"/>
	<polygon id="XMLID_746_" class="st8" points="2937.1,226.5 2945.4,244.8 2955.1,236.8 2946,222.9 	"/>
	<path id="XMLID_750_" class="st8" d="M2961.7,235.2l9.8,9.6c0,0,8.1-14.5,8.2-19.4l-9.9-2.6L2961.7,235.2z"/>
</g>
</svg>
