<?xml version="1.0" encoding="utf-8"?>
<!-- Generator: Adobe Illustrator 19.0.0, SVG Export Plug-In . SVG Version: 6.00 Build 0)  -->
<svg version="1.1" id="Hero" xmlns="http://www.w3.org/2000/svg" xmlns:xlink="http://www.w3.org/1999/xlink" x="0px" y="0px"
	 viewBox="-235.4 382.9 76 76" style="enable-background:new -235.4 382.9 76 76;" xml:space="preserve">
<style type="text/css">
	.st0{fill:#DFFFDC;}
	.st1{fill:#D3E6F8;}
	.st2{fill:#A4CFF2;}
	.st3{fill:#FF5555;}
	.st4{fill:#4C4372;}
	.st5{fill:#7BABF1;}
</style>
<g>
	<title>056 robot 16</title>
	<g>
		<path class="st0" d="M-166.7,420.9c0,17-13.8,30.7-30.7,30.7s-30.7-13.8-30.7-30.7c0-17,13.8-30.7,30.7-30.7
			S-166.7,403.9-166.7,420.9z"/>
		<path class="st1" d="M-161.1,408.8l-4-5.9c0-5.1-4.2-9.3-9.3-9.3c-5.1,0-9.3,4.2-9.3,9.3c0,3.4,1.9,6.4,4.6,8l0,0l0,0
			c0.9,0.5,2,0.9,3,1.1l9.7,3.5c2.2,0.8,4.6-0.2,5.6-2.3C-160,411.9-160.1,410.2-161.1,408.8L-161.1,408.8z"/>
		<path class="st1" d="M-187.4,411.5c-2.8,0-5.4,1.1-7.2,3h-16.2c-2.1-2.6-5.3-4.3-9-4.3c-6.3,0-11.5,5.1-11.5,11.5
			c0,5.5,3.8,10,8.9,11.2l-1.9-9.6c-0.4-1.8,0.8-3.6,2.6-4c1.9-0.4,3.7,0.8,4,2.7l2,10.4c1.4-0.6,2.8-1.5,3.9-2.6h18.1
			c0.5,0.4,1,0.7,1.5,0.9l2.5-9.6c0.5-1.8,2.3-2.9,4.1-2.4c1.8,0.5,2.9,2.3,2.5,4.1l-2.3,8.9c4.6-1,8.1-5,8.1-10
			C-177.3,416.1-181.8,411.5-187.4,411.5L-187.4,411.5z"/>
		<path class="st2" d="M-187.4,411.5c-0.9,0-1.7,0.1-2.5,0.3c4.4,1.1,7.7,5.1,7.7,9.9c0,2.3-0.8,4.5-2.1,6.2l-1,3.8
			c4.6-0.9,8.1-5,8.1-10C-177.3,416.1-181.8,411.5-187.4,411.5L-187.4,411.5z"/>
		<path class="st3" d="M-195.6,424h-14.1c-1.1,0-2,0.9-2,2v3.8h18.1V426C-193.6,424.9-194.5,424-195.6,424z"/>
		<path class="st4" d="M-222.4,433.8c-0.1,0-0.1,0-0.2,0c-2.7-0.6-5.1-2.1-6.9-4.3c-1.8-2.2-2.7-4.9-2.7-7.8
			c0-6.8,5.5-12.3,12.3-12.3c3.6,0,7,1.6,9.4,4.3h15.5c2.1-1.9,4.7-3,7.6-3c6.1,0,11,5,11,11c0,5.2-3.7,9.8-8.8,10.8
			c-0.5,0.1-0.9-0.2-1-0.7c0-0.1,0-0.3,0-0.4l2.3-8.9c0.2-0.7,0.1-1.3-0.3-1.9c-0.3-0.6-0.9-1-1.6-1.2c-0.2,0-0.4-0.1-0.6-0.1
			c-1.1,0-2.1,0.8-2.4,1.9l-2.5,9.6c-0.1,0.5-0.6,0.7-1.1,0.6c-0.1,0-0.1,0-0.2-0.1c-0.5-0.2-0.9-0.5-1.4-0.9h-17.4
			c-1.1,1.1-2.4,1.9-3.9,2.5c-0.2,0.1-0.5,0.1-0.7,0c-0.2-0.1-0.4-0.3-0.4-0.6l-2-10.4c-0.2-1.2-1.3-2-2.5-2c-0.2,0-0.4,0-0.5,0.1
			c-1.3,0.3-2.2,1.6-1.9,2.9l1.8,9.6c0,0.1,0,0.2,0,0.2C-221.5,433.4-221.9,433.8-222.4,433.8L-222.4,433.8L-222.4,433.8z
			 M-219.9,411.1c-5.8,0-10.6,4.8-10.6,10.6c0,4.5,2.9,8.4,6.9,10l-1.6-8.2c-0.4-2.3,1-4.5,3.3-5c0.3-0.1,0.6-0.1,0.9-0.1
			c2,0,3.8,1.4,4.2,3.4l1.8,9.3c1-0.5,1.8-1.2,2.6-1.9c0.2-0.2,0.4-0.3,0.6-0.3h18.1c0.2,0,0.4,0.1,0.5,0.2c0.1,0.1,0.3,0.2,0.4,0.3
			l2.2-8.5c0.5-1.9,2.2-3.2,4.1-3.2c0.3,0,0.7,0,1,0.1c1.1,0.3,2,1,2.6,2c0.6,1,0.7,2.1,0.5,3.2l-1.9,7.4c3.6-1.3,6-4.8,6-8.7
			c0-5.1-4.2-9.3-9.3-9.3c-2.5,0-4.8,1-6.6,2.7c-0.2,0.2-0.4,0.3-0.6,0.3h-16.2c-0.3,0-0.5-0.1-0.7-0.3
			C-213.6,412.6-216.6,411.1-219.9,411.1L-219.9,411.1z"/>
		<path class="st2" d="M-179.5,454.6h-7.9c-1.6,0-2.9-1.1-3.3-2.6l-3.1-13c-0.1-0.6-0.1-1.3,0-1.9l4.1-16c0.5-1.8,2.3-2.9,4.1-2.4
			c1.8,0.5,2.9,2.3,2.5,4.1l-3.7,14.4c-0.2,0.6-0.2,1.3,0,1.9l2.1,8.7h0.6c2.5,0,4.6,2.1,4.6,4.6V454.6z"/>
		<path class="st2" d="M-213.4,454.6h-9.8c-2.4,0-4.1-2.5-3.1-4.7l4.5-10.3c0.3-0.8,0.4-1.6,0.3-2.5l-2.7-13.9
			c-0.4-1.8,0.8-3.6,2.6-4c1.9-0.4,3.7,0.8,4,2.7l3.1,15.9c0.2,0.8,0.1,1.7-0.3,2.5l-3.3,7.5c2.5,0,4.6,2.1,4.6,4.6V454.6z"/>
		<path class="st3" d="M-228.3,405.9c0,1.7-1.4,3.1-3.1,3.1s-3.1-1.4-3.1-3.1c0-1.7,1.4-3.1,3.1-3.1
			C-229.7,402.7-228.3,404.1-228.3,405.9z"/>
		<path class="st2" d="M-161.1,408.8l-4-5.9c0-5.1-4.2-9.3-9.3-9.3c-0.7,0-1.4,0.1-2.1,0.2c4.1,0.9,7.2,4.6,7.2,9.1l4,5.9
			c0.9,1.3,1.1,3.1,0.3,4.6c-0.4,0.9-1.2,1.6-2.1,2.1l0.5,0.2c2.2,0.8,4.6-0.2,5.6-2.3C-160,411.9-160.1,410.2-161.1,408.8z"/>
		<path class="st5" d="M-169.4,407.5l9.2,3.5c-0.1-0.8-0.3-1.6-0.8-2.2l-4-5.9c0-0.4,0-0.8-0.1-1.2l-8.5-3.9
			C-175.2,401.7-173.3,406-169.4,407.5L-169.4,407.5z"/>
		<path class="st5" d="M-179.1,411L-179.1,411L-179.1,411c-1.5-0.9-2.8-2.2-3.6-3.8l-2.9,4.5c2.3,0.4,4.4,1.7,5.9,3.4l2.2-3.4
			C-178,411.5-178.6,411.3-179.1,411L-179.1,411z"/>
		<path class="st5" d="M-175.8,393.8l-1.2-6.6c0,0-5.8,1.5-5.8,10.4c0,0.4,0,0.8,0.1,1.2C-181.3,396.1-178.8,394.2-175.8,393.8
			L-175.8,393.8z"/>
		<g>
			<path class="st4" d="M-229.2,407.5l2.1,5.8l-1.6,0.6l-2.1-5.8L-229.2,407.5z"/>
			<path class="st4" d="M-231.4,409.9c-2.2,0-4-1.8-4-4c0-2.2,1.8-4,4-4c2.2,0,4,1.8,4,4C-227.4,408.1-229.2,409.9-231.4,409.9
				L-231.4,409.9z M-231.4,403.6c-1.2,0-2.3,1-2.3,2.3c0,1.2,1,2.3,2.3,2.3s2.3-1,2.3-2.3C-229.1,404.6-230.2,403.6-231.4,403.6z"/>
			<path class="st4" d="M-179.7,416c-0.3,0-0.5-0.1-0.7-0.3c-1.4-1.6-3.3-2.7-5.4-3.1c-0.5-0.1-0.8-0.5-0.7-1c0-0.1,0.1-0.2,0.1-0.3
				l2.9-4.5c0.2-0.3,0.5-0.4,0.8-0.4c0.3,0,0.6,0.2,0.7,0.5c0.7,1.4,1.9,2.6,3.2,3.4l0,0c0.5,0.3,0.9,0.5,1.4,0.7
				c0.5,0.2,0.7,0.7,0.5,1.1c0,0.1-0.1,0.1-0.1,0.2l-2.2,3.4C-179.1,415.9-179.4,416-179.7,416L-179.7,416z M-184.1,411.2
				c1.6,0.5,3.1,1.4,4.3,2.6l1-1.6c-0.2-0.1-0.5-0.2-0.7-0.4c0,0,0,0,0,0c-1.2-0.7-2.3-1.7-3.2-2.9L-184.1,411.2z"/>
			<path class="st4" d="M-182.7,399.6c-0.1,0-0.1,0-0.2,0c-0.4-0.1-0.7-0.4-0.7-0.8c0-0.4-0.1-0.8-0.1-1.3c0-4.9,1.7-7.7,3.2-9.1
				c1.6-1.6,3.2-2.1,3.3-2.1c0.2-0.1,0.5,0,0.7,0.1c0.2,0.1,0.3,0.3,0.4,0.6l1.2,6.6c0,0.2,0,0.5-0.2,0.7c-0.1,0.2-0.3,0.3-0.6,0.4
				c-2.7,0.4-5,2.1-6.3,4.5C-182,399.4-182.3,399.6-182.7,399.6L-182.7,399.6z M-177.6,388.4c-1.3,0.7-3.8,2.7-4.2,7.6
				c1.3-1.4,3.1-2.5,5-2.9L-177.6,388.4z"/>
			<path class="st4" d="M-179.5,455.5h-7.9c-2,0-3.7-1.3-4.1-3.3l-3.1-13c-0.2-0.8-0.2-1.5,0-2.3l4.1-16c0.5-1.9,2.2-3.2,4.1-3.2
				c0.3,0,0.7,0,1,0.1c1.1,0.3,2,1,2.6,2c0.6,1,0.7,2.1,0.5,3.2l-3.7,14.4c-0.1,0.5-0.1,1,0,1.5l1.9,8.1c3,0,5.4,2.5,5.4,5.5v2.2
				C-178.7,455.1-179.1,455.5-179.5,455.5L-179.5,455.5L-179.5,455.5z M-186.4,419.5c-1.1,0-2.1,0.8-2.4,1.9l-4.1,16
				c-0.1,0.5-0.1,1,0,1.5l3.1,13c0.3,1.1,1.3,1.9,2.4,1.9h7v-1.3c0-2.1-1.7-3.7-3.7-3.7h-0.6c-0.4,0-0.8-0.3-0.8-0.7l-2.1-8.7
				c-0.2-0.8-0.2-1.5,0-2.3l3.7-14.4c0.2-0.7,0.1-1.3-0.3-1.9c-0.3-0.6-0.9-1-1.6-1.2C-186,419.5-186.2,419.5-186.4,419.5
				L-186.4,419.5z"/>
			<path class="st4" d="M-213.4,455.5h-9.8c-1.4,0-2.8-0.7-3.6-1.9c-0.8-1.2-0.9-2.7-0.3-4l4.5-10.3c0.3-0.6,0.3-1.3,0.2-1.9l0,0
				l-2.7-13.9c-0.4-2.3,1-4.5,3.3-5c0.3-0.1,0.6-0.1,0.9-0.1c2,0,3.8,1.4,4.2,3.4l3.1,15.9c0.2,1,0.1,2.1-0.3,3l-2.8,6.4
				c2.4,0.6,4.2,2.7,4.2,5.3v2.2C-212.6,455.1-213,455.5-213.4,455.5L-213.4,455.5z M-220.7,437c0.2,1,0.1,2.1-0.3,3l-4.5,10.3
				c-0.3,0.8-0.3,1.7,0.2,2.4c0.5,0.7,1.2,1.1,2.1,1.1h9v-1.3c0-2.1-1.7-3.7-3.7-3.7c-0.3,0-0.6-0.1-0.7-0.4
				c-0.2-0.2-0.2-0.6-0.1-0.8l3.3-7.5c0.3-0.6,0.3-1.3,0.2-1.9c0,0,0,0,0,0l-3.1-15.9c-0.2-1.2-1.3-2-2.5-2c-0.2,0-0.4,0-0.5,0.1
				c-1.3,0.3-2.2,1.6-1.9,2.9L-220.7,437z"/>
			<path class="st4" d="M-193.6,430.7h-18.1c-0.5,0-0.9-0.4-0.9-0.9V426c0-1.6,1.3-2.9,2.9-2.9h14.1c1.6,0,2.9,1.3,2.9,2.9v3.8
				C-192.7,430.3-193.1,430.7-193.6,430.7L-193.6,430.7z M-210.8,428.9h16.3V426c0-0.6-0.5-1.1-1.1-1.1h-14.1
				c-0.6,0-1.1,0.5-1.1,1.1L-210.8,428.9z"/>
			<path class="st4" d="M-160.3,411.9c-0.1,0-0.2,0-0.3-0.1l-9.2-3.5c-2.1-0.8-3.7-2.4-4.6-4.4c-0.9-2-1-4.3-0.1-6.4
				c0.1-0.2,0.3-0.4,0.5-0.5c0.2-0.1,0.5-0.1,0.7,0l8.5,3.9c0.3,0.1,0.5,0.4,0.5,0.7c0,0.4,0.1,0.7,0.1,1.1l3.9,5.6
				c0.5,0.8,0.9,1.7,0.9,2.6C-159.4,411.4-159.7,411.9-160.3,411.9C-160.2,411.9-160.2,411.9-160.3,411.9z M-173.2,399
				c-0.3,1.4-0.2,2.8,0.4,4.2c0.7,1.6,2,2.9,3.7,3.5l7.5,2.9c-0.1-0.1-0.1-0.2-0.2-0.3l-4-5.9c-0.1-0.1-0.2-0.3-0.2-0.5
				c0-0.2,0-0.4,0-0.6L-173.2,399z"/>
			<path class="st4" d="M-164.8,416.8L-164.8,416.8c-0.6,0-1.3-0.1-1.9-0.3l-9.6-3.5c-1.1-0.2-2.2-0.6-3.2-1.2c0,0,0,0,0,0
				c-3.1-1.8-5-5.2-5-8.8c0-5.6,4.6-10.2,10.2-10.2c5.5,0,10,4.4,10.2,9.9l3.9,5.6c1.1,1.6,1.3,3.7,0.4,5.4
				C-160.8,415.6-162.7,416.8-164.8,416.8L-164.8,416.8z M-178.6,410.2c0.9,0.5,1.8,0.8,2.8,1c0.1,0,0.1,0,0.1,0l9.7,3.5
				c0.4,0.1,0.8,0.2,1.3,0.2c1.4,0,2.7-0.8,3.3-2.1c0.6-1.2,0.5-2.6-0.3-3.7l-4-5.9c-0.1-0.1-0.2-0.3-0.2-0.5c0-4.6-3.8-8.4-8.4-8.4
				c-4.6,0-8.4,3.8-8.4,8.4C-182.8,405.9-181.2,408.7-178.6,410.2z"/>
			<path class="st4" d="M-214.4,440.1c0,0-0.1,0-0.1,0l-7.1-1.2c-0.5-0.1-0.8-0.5-0.7-1c0.1-0.5,0.5-0.8,1-0.7c0,0,0,0,0,0l7.1,1.2
				c0.5,0.1,0.8,0.5,0.7,1C-213.6,439.8-214,440.1-214.4,440.1L-214.4,440.1z"/>
			<path class="st4" d="M-186.9,438.9h-7c-0.5,0-0.9-0.4-0.9-0.9c0-0.5,0.4-0.9,0.9-0.9h7c0.5,0,0.9,0.4,0.9,0.9
				C-186,438.5-186.4,438.9-186.9,438.9L-186.9,438.9z"/>
			<path class="st4" d="M-226.3,453.6c-0.5,0-0.9-0.4-0.9-0.9c0-0.2,0-0.3,0.1-0.5c3.4-5.4,8.8-5.3,9-5.3c0.5,0,0.9,0.4,0.8,0.9
				c0,0,0,0,0,0c0,0.5-0.4,0.9-0.9,0.8c-0.2,0-4.7,0-7.5,4.5C-225.7,453.4-226,453.6-226.3,453.6z"/>
			<path class="st4" d="M-190.4,453.7c-0.5,0-0.9-0.4-0.9-0.9c0-0.1,0-0.3,0.1-0.4c2.3-4.6,6.1-5.5,6.3-5.5c0.5-0.1,0.9,0.2,1,0.7
				c0.1,0.5-0.2,0.9-0.7,1c-0.1,0-3.2,0.7-5.1,4.5C-189.8,453.5-190.1,453.7-190.4,453.7L-190.4,453.7z"/>
		</g>
	</g>
</g>
</svg>
