<?xml version="1.0" encoding="utf-8"?>
<!-- Generator: Adobe Illustrator 19.0.0, SVG Export Plug-In . SVG Version: 6.00 Build 0)  -->
<svg version="1.1" id="Hero" xmlns="http://www.w3.org/2000/svg" xmlns:xlink="http://www.w3.org/1999/xlink" x="0px" y="0px"
	 viewBox="100.5 -3313.5 99.2 76" style="enable-background:new 100.5 -3313.5 99.2 76;" xml:space="preserve">
<style type="text/css">
	.st0{fill:#E6E9ED;}
	.st1{fill:#FFCE54;}
	.st2{fill:#FFFFFF;}
	.st3{fill:#FC6E51;}
	.st4{fill:#5D9CEC;}
	.st5{fill:#3A3847;}
	.st6{fill:#A0D468;}
	.st7{fill:#F7B7A4;}
	.st8{fill:#FCCEC3;}
	.st9{fill:#D7E9FF;}
	.st10{fill:#F4876E;}
	.st11{fill:#FCE7E3;}
	.st12{fill:#FF5310;}
</style>
<g>
	<g>
		<g>
			<rect id="SVGCleanerId_0_6_" x="101.6" y="-3303.3" class="st0" width="97.3" height="64.9"/>
		</g>
		<g>
			<rect id="SVGCleanerId_0_2_" x="101.6" y="-3303.3" class="st0" width="97.3" height="64.9"/>
		</g>
	</g>
	<g>
		<polygon class="st1" points="120.1,-3244.6 113.9,-3238.4 101.5,-3238.4 101.5,-3263.1 101.6,-3263.1 		"/>
		<polygon class="st1" points="163.4,-3244.6 157.2,-3238.4 151,-3238.4 132.7,-3256.7 126.5,-3250.5 106.2,-3270.9 121.6,-3286.4 
					"/>
	</g>
	
		<rect x="103.7" y="-3278.9" transform="matrix(0.7071 -0.7071 0.7071 0.7071 2351.3748 -878.9717)" class="st2" width="21.9" height="2.2"/>
	<polygon class="st3" points="138.6,-3240 137.1,-3238.4 124.7,-3238.4 132.4,-3246.2 	"/>
	<polygon class="st2" points="134,-3244.6 132.4,-3246.2 124.7,-3238.4 127.8,-3238.4 	"/>
	<polygon class="st4" points="198.9,-3247.7 198.9,-3238.4 189.7,-3238.4 	"/>
	<polygon class="st5" points="198.9,-3244.6 198.9,-3247.7 189.7,-3238.4 192.7,-3238.4 	"/>
	<polygon class="st6" points="198.9,-3258.5 198.9,-3247.7 189.7,-3238.4 178.8,-3238.4 	"/>
	<g>
		<polygon class="st2" points="198.9,-3258.5 178.8,-3238.4 181.9,-3238.4 198.9,-3255.4 		"/>
		<polygon class="st2" points="178.8,-3238.4 171.1,-3238.4 175.7,-3243.1 130.9,-3287.9 130.9,-3289.4 138.6,-3289.4 
			138.6,-3287.9 179.6,-3246.9 198.9,-3266.3 198.9,-3258.5 		"/>
	</g>
	<polygon class="st3" points="198.9,-3291 198.9,-3278.6 195.8,-3275.5 189.7,-3281.7 	"/>
	<polygon class="st2" points="198.9,-3291 189.7,-3281.7 191.2,-3280.2 198.9,-3287.9 	"/>
	
		<rect x="165.8" y="-3290.1" transform="matrix(0.7071 -0.7071 0.7071 0.7071 2366.3904 -836.5366)" class="st1" width="15.3" height="30.6"/>
	
		<rect x="155.7" y="-3285.9" transform="matrix(0.7071 -0.7071 0.7071 0.7071 2370.5645 -846.5758)" class="st2" width="15.3" height="2.2"/>
	<polygon class="st3" points="101.6,-3298.7 101.5,-3277.1 112.3,-3287.9 	"/>
	<g>
		<rect id="SVGCleanerId_0_1_" x="101.6" y="-3303.3" class="st7" width="97.3" height="64.9"/>
	</g>
	<polygon class="st8" points="152.2,-3290.6 152.2,-3297.7 150.3,-3303.3 164.9,-3303.3 	"/>
	<g>
		<polygon class="st1" points="120.1,-3244.6 113.9,-3238.4 101.5,-3238.4 101.5,-3263.1 101.6,-3263.1 		"/>
		<polygon class="st1" points="163.4,-3244.6 157.2,-3238.4 151,-3238.4 132.7,-3256.7 126.5,-3250.5 106.2,-3270.9 121.6,-3286.4 
					"/>
	</g>
	
		<rect x="103.7" y="-3278.9" transform="matrix(0.7071 -0.7071 0.7071 0.7071 2351.3748 -878.9717)" class="st2" width="21.9" height="2.2"/>
	<polygon class="st3" points="138.6,-3240 137.1,-3238.4 124.7,-3238.4 132.4,-3246.2 	"/>
	<polygon class="st2" points="134,-3244.6 132.4,-3246.2 124.7,-3238.4 127.8,-3238.4 	"/>
	<polygon class="st4" points="198.9,-3247.7 198.9,-3238.4 189.7,-3238.4 	"/>
	<polygon class="st5" points="198.9,-3244.6 198.9,-3247.7 189.7,-3238.4 192.7,-3238.4 	"/>
	<polygon class="st6" points="198.9,-3258.5 198.9,-3247.7 189.7,-3238.4 178.8,-3238.4 	"/>
	<g>
		<polygon class="st2" points="198.9,-3258.5 178.8,-3238.4 181.9,-3238.4 198.9,-3255.4 		"/>
		<polygon class="st2" points="178.8,-3238.4 171.1,-3238.4 175.7,-3243.1 130.9,-3287.9 130.9,-3289.4 138.6,-3289.4 
			138.6,-3287.9 179.6,-3246.9 198.9,-3266.3 198.9,-3258.5 		"/>
	</g>
	<polygon class="st3" points="198.9,-3291 198.9,-3278.6 195.8,-3275.5 189.7,-3281.7 	"/>
	<polygon class="st2" points="198.9,-3291 189.7,-3281.7 191.2,-3280.2 198.9,-3287.9 	"/>
	<polygon class="st3" points="101.6,-3298.7 101.5,-3277.1 112.3,-3287.9 	"/>
	<g>
		<polygon class="st8" points="120.1,-3244.6 113.9,-3238.4 101.5,-3238.4 101.5,-3263.1 101.6,-3263.1 		"/>
		<polygon class="st8" points="138.6,-3240 137.1,-3238.4 124.7,-3238.4 132.4,-3246.2 		"/>
	</g>
	<polygon class="st9" points="134,-3244.6 132.4,-3246.2 124.7,-3238.4 127.8,-3238.4 	"/>
	<polygon class="st2" points="198.9,-3247.7 198.9,-3238.4 189.7,-3238.4 	"/>
	<polygon class="st8" points="198.9,-3258.5 198.9,-3247.7 189.7,-3238.4 178.8,-3238.4 	"/>
	<polygon class="st8" points="198.9,-3291 198.9,-3278.6 195.8,-3275.5 189.7,-3281.7 	"/>
	<polygon class="st9" points="198.9,-3291 189.7,-3281.7 191.2,-3280.2 198.9,-3287.9 	"/>
	<polygon class="st8" points="101.6,-3298.7 101.5,-3277.1 112.3,-3287.9 	"/>
	<path class="st2" d="M134-3312.6c10.3,0,18.5,8.3,18.5,18.5c0,10.2-14.5,30.9-18.5,30.9c-2.8,0-10.5-9.8-15.1-19.2
		c-1-2.1-1.9-4.3-2.5-6.3c-0.6-2-1-3.8-1-5.4C115.4-3304.3,123.7-3312.6,134-3312.6z"/>
	<path class="st10" d="M146.3-3307.9c2.9,3.3,4.7,7.6,4.7,12.3c0,10.2-14.5,30.9-18.5,30.9c-0.7,0-1.7-0.6-2.9-1.7
		c1.9,2,3.5,3.3,4.5,3.3c4,0,18.5-20.7,18.5-30.9C152.6-3299.5,150.1-3304.5,146.3-3307.9z"/>
	<path class="st7" d="M120.5-3280.8c-1-2.1-1.9-4.3-2.5-6.3c-0.6-2-1-3.8-1-5.4c0-10.3,8.3-18.5,18.5-18.5c4.7,0,9,1.8,12.3,4.7
		c-3.4-3.8-8.3-6.2-13.9-6.2c-10.3,0-18.5,8.3-18.5,18.5c0,1.6,0.3,3.4,1,5.4c0.6,2,1.5,4.1,2.5,6.3c3.4,7.1,8.6,14.3,12.1,17.5
		C127.7-3268.5,123.4-3274.7,120.5-3280.8z"/>
	<path class="st2" d="M179.6-3246.9l-32.2-32.2c-0.9,1.7-1.9,3.3-2.9,4.8l31.2,31.2l-4.6,4.6h7.7l20.1-20.1v-7.7L179.6-3246.9z"/>
	<path class="st8" d="M139.9-3268c-2.5,3-4.7,5-6,5c-2.8,0-10.5-9.8-15.1-19.2c-0.2-0.3-0.3-0.6-0.4-0.9l-12.3,12.3l20.3,20.3
		l6.2-6.2l18.3,18.3h6.2l6.2-6.2L139.9-3268z"/>
	<path class="st11" d="M118.9-3282.3c-0.2-0.3-0.3-0.6-0.4-0.9l-12.3,12.3l1.5,1.5l11.8-11.8
		C119.3-3281.5,119.1-3281.9,118.9-3282.3z"/>
	<polygon class="st8" points="186.6,-3287.8 178.8,-3295.6 186.6,-3303.3 198.9,-3303.3 198.9,-3300.2 	"/>
	<g>
		<polygon class="st11" points="186.6,-3303.3 178.8,-3295.6 180.4,-3294 189.7,-3303.3 		"/>
		<polygon class="st7" points="143.2,-3295.2 134,-3303.3 124.7,-3295.2 124.7,-3283.2 143.2,-3283.2 		"/>
	</g>
	<polygon class="st2" points="124.7,-3295.2 124.7,-3283.2 126.2,-3283.2 126.2,-3296.5 	"/>
	<g>
		<polygon class="st8" points="143.3,-3295.2 143.3,-3283.2 141.7,-3283.2 141.7,-3296.5 		"/>
		<rect x="127.8" y="-3292.5" class="st8" width="6.2" height="4.6"/>
		<rect x="137.1" y="-3289.4" class="st8" width="3.1" height="6.1"/>
	</g>
	<g>
		<path class="st12" d="M171.1-3237.6c-0.2,0-0.4-0.1-0.5-0.2c-0.3-0.3-0.3-0.8,0-1.1l4.6-4.6c0.3-0.3,0.8-0.3,1.1,0
			c0.3,0.3,0.3,0.8,0,1.1l-4.6,4.6C171.5-3237.6,171.3-3237.6,171.1-3237.6z"/>
		<path class="st12" d="M179.6-3246.1c-0.2,0-0.4-0.1-0.5-0.2c-0.3-0.3-0.3-0.8,0-1.1l19.3-19.3c0.3-0.3,0.8-0.3,1.1,0
			c0.3,0.3,0.3,0.8,0,1.1l-19.3,19.3C180-3246.2,179.8-3246.1,179.6-3246.1z"/>
		<path class="st12" d="M178.8-3237.6c-0.2,0-0.4-0.1-0.5-0.2c-0.3-0.3-0.3-0.8,0-1.1l20.1-20.1c0.3-0.3,0.8-0.3,1.1,0
			c0.3,0.3,0.3,0.8,0,1.1l-20.1,20.1C179.2-3237.6,179-3237.6,178.8-3237.6z"/>
		<path class="st12" d="M179.6-3246.1c-0.2,0-0.4-0.1-0.5-0.2l-28.6-28.6c-0.3-0.3-0.3-0.8,0-1.1c0.3-0.3,0.8-0.3,1.1,0l28.6,28.6
			c0.3,0.3,0.3,0.8,0,1.1C180-3246.2,179.8-3246.1,179.6-3246.1z"/>
		<path class="st12" d="M175.7-3242.2c-0.2,0-0.4-0.1-0.5-0.2l-27.8-27.8c-0.3-0.3-0.3-0.8,0-1.1c0.3-0.3,0.8-0.3,1.1,0l27.8,27.8
			c0.3,0.3,0.3,0.8,0,1.1C176.1-3242.3,175.9-3242.2,175.7-3242.2z"/>
	</g>
	
		<rect x="165.8" y="-3290.1" transform="matrix(0.7071 -0.7071 0.7071 0.7071 2366.3904 -836.5366)" class="st8" width="15.3" height="30.6"/>
	
		<rect x="155.7" y="-3285.9" transform="matrix(0.7071 -0.7071 0.7071 0.7071 2370.5645 -846.5758)" class="st11" width="15.3" height="2.2"/>
	<g>
		<path class="st12" d="M190.2-3269.8L190.2-3269.8l-21.6-21.7l0,0c-0.2-0.2-0.6-0.3-0.8-0.2c-0.1,0-0.2,0.1-0.3,0.2l0,0l-10.8,10.8
			l0,0c-0.3,0.3-0.3,0.8,0,1.1l21.6,21.6c0.2,0.2,0.3,0.2,0.5,0.2c0.1,0,0.1,0,0.2,0c0.2,0,0.3-0.1,0.4-0.2l10.8-10.8l0,0
			c0.2-0.2,0.2-0.3,0.2-0.5S190.3-3269.7,190.2-3269.8z M178.8-3259.5l-20.6-20.6l9.7-9.7l20.6,20.6L178.8-3259.5z"/>
		<path class="st12" d="M195.8-3274.7c-0.2,0-0.4-0.1-0.5-0.2c-0.3-0.3-0.3-0.8,0-1.1l3.1-3.1c0.3-0.3,0.8-0.3,1.1,0
			c0.3,0.3,0.3,0.8,0,1.1l-3.1,3.1C196.2-3274.8,196-3274.7,195.8-3274.7z"/>
		<path class="st12" d="M195.8-3274.7c-0.2,0-0.4-0.1-0.5-0.2l-6.2-6.2c-0.3-0.3-0.3-0.8,0-1.1c0.3-0.3,0.8-0.3,1.1,0l6.2,6.2
			c0.3,0.3,0.3,0.8,0,1.1C196.2-3274.8,196-3274.7,195.8-3274.7z"/>
		<path class="st12" d="M189.6-3280.9c-0.2,0-0.4-0.1-0.5-0.2c-0.3-0.3-0.3-0.8,0-1.1l9.3-9.3c0.3-0.3,0.8-0.3,1.1,0
			c0.3,0.3,0.3,0.8,0,1.1l-9.3,9.3C190-3281,189.8-3280.9,189.6-3280.9z"/>
		<path class="st12" d="M163.3-3243.8c-0.2,0-0.4-0.1-0.5-0.2l-20.1-20.1c-0.3-0.3-0.3-0.8,0-1.1c0.3-0.3,0.8-0.3,1.1,0l20.1,20.1
			c0.3,0.3,0.3,0.8,0,1.1C163.7-3243.8,163.5-3243.8,163.3-3243.8z"/>
		<path class="st12" d="M157.2-3237.6c-0.2,0-0.4-0.1-0.5-0.2c-0.3-0.3-0.3-0.8,0-1.1l6.2-6.2c0.3-0.3,0.8-0.3,1.1,0
			c0.3,0.3,0.3,0.8,0,1.1l-6.2,6.2C157.5-3237.6,157.3-3237.6,157.2-3237.6z"/>
		<path class="st12" d="M106.1-3270c-0.2,0-0.4-0.1-0.5-0.2c-0.3-0.3-0.3-0.8,0-1.1l9.3-9.3c0.3-0.3,0.8-0.3,1.1,0
			c0.3,0.3,0.3,0.8,0,1.1l-9.3,9.3C106.5-3270.1,106.3-3270,106.1-3270z"/>
		<path class="st12" d="M126.5-3249.7c-0.2,0-0.4-0.1-0.5-0.2l-20.3-20.3c-0.3-0.3-0.3-0.8,0-1.1c0.3-0.3,0.8-0.3,1.1,0L127-3251
			c0.3,0.3,0.3,0.8,0,1.1C126.9-3249.8,126.7-3249.7,126.5-3249.7z"/>
		<path class="st12" d="M126.5-3249.7c-0.2,0-0.4-0.1-0.5-0.2c-0.3-0.3-0.3-0.8,0-1.1l6.2-6.2c0.3-0.3,0.8-0.3,1.1,0
			c0.3,0.3,0.3,0.8,0,1.1l-6.2,6.2C126.9-3249.8,126.7-3249.7,126.5-3249.7z"/>
		<path class="st12" d="M151-3237.6c-0.2,0-0.4-0.1-0.5-0.2l-18.3-18.3c-0.3-0.3-0.3-0.8,0-1.1c0.3-0.3,0.8-0.3,1.1,0l18.3,18.3
			c0.3,0.3,0.3,0.8,0,1.1C151.4-3237.6,151.2-3237.6,151-3237.6z"/>
		<path class="st12" d="M137-3237.6c-0.2,0-0.4-0.1-0.5-0.2c-0.3-0.3-0.3-0.8,0-1.1l1.5-1.5c0.3-0.3,0.8-0.3,1.1,0
			c0.3,0.3,0.3,0.8,0,1.1l-1.5,1.5C137.4-3237.6,137.3-3237.6,137-3237.6z"/>
		<path class="st12" d="M138.6-3239.1c-0.2,0-0.4-0.1-0.5-0.2l-6.2-6.2c-0.3-0.3-0.3-0.8,0-1.1c0.3-0.3,0.8-0.3,1.1,0l6.2,6.2
			c0.3,0.3,0.3,0.8,0,1.1C139-3239.2,138.8-3239.1,138.6-3239.1z"/>
		<path class="st12" d="M124.7-3237.6c-0.2,0-0.4-0.1-0.5-0.2c-0.3-0.3-0.3-0.8,0-1.1l7.7-7.7c0.3-0.3,0.8-0.3,1.1,0
			c0.3,0.3,0.3,0.8,0,1.1l-7.7,7.7C125.1-3237.6,124.9-3237.6,124.7-3237.6z"/>
		<path class="st12" d="M120-3243.8c-0.2,0-0.4-0.1-0.5-0.2l-18.5-18.5c-0.3-0.3-0.3-0.8,0-1.1c0.3-0.3,0.8-0.3,1.1,0l18.5,18.5
			c0.3,0.3,0.3,0.8,0,1.1C120.4-3243.8,120.2-3243.8,120-3243.8z"/>
		<path class="st12" d="M113.8-3237.6c-0.2,0-0.4-0.1-0.5-0.2c-0.3-0.3-0.3-0.8,0-1.1l6.2-6.2c0.3-0.3,0.8-0.3,1.1,0
			c0.3,0.3,0.3,0.8,0,1.1l-6.2,6.2C114.3-3237.6,114-3237.6,113.8-3237.6z"/>
		<path class="st12" d="M112.3-3287.1c-0.2,0-0.4-0.1-0.5-0.2l-10.8-10.8c-0.3-0.3-0.3-0.8,0-1.1c0.3-0.3,0.8-0.3,1.1,0l10.8,10.8
			c0.3,0.3,0.3,0.8,0,1.1C112.7-3287.1,112.5-3287.1,112.3-3287.1z"/>
		<path class="st12" d="M101.5-3276.2c-0.2,0-0.4-0.1-0.5-0.2c-0.3-0.3-0.3-0.8,0-1.1l10.8-10.8c0.3-0.3,0.8-0.3,1.1,0
			c0.3,0.3,0.3,0.8,0,1.1l-10.8,10.8C101.9-3276.3,101.7-3276.2,101.5-3276.2z"/>
		<path class="st12" d="M178.8-3294.8c-0.2,0-0.4-0.1-0.5-0.2c-0.3-0.3-0.3-0.8,0-1.1l7.7-7.7c0.3-0.3,0.8-0.3,1.1,0
			c0.3,0.3,0.3,0.8,0,1.1l-7.7,7.7C179.2-3294.9,179-3294.8,178.8-3294.8z"/>
		<path class="st12" d="M157.2-3294.8c-0.2,0-0.4-0.1-0.5-0.2c-0.3-0.3-0.3-0.8,0-1.1l7.7-7.7c0.3-0.3,0.8-0.3,1.1,0
			c0.3,0.3,0.3,0.8,0,1.1l-7.7,7.7C157.5-3294.9,157.3-3294.8,157.2-3294.8z"/>
		<path class="st12" d="M189.6-3237.6c-0.2,0-0.4-0.1-0.5-0.2c-0.3-0.3-0.3-0.8,0-1.1l9.3-9.3c0.3-0.3,0.8-0.3,1.1,0
			c0.3,0.3,0.3,0.8,0,1.1l-9.3,9.3C190-3237.6,189.8-3237.6,189.6-3237.6z"/>
		<path class="st12" d="M186.5-3287.1c-0.2,0-0.4-0.1-0.5-0.2l-7.7-7.7c-0.3-0.3-0.3-0.8,0-1.1c0.3-0.3,0.8-0.3,1.1,0l7.7,7.7
			c0.3,0.3,0.3,0.8,0,1.1C186.9-3287.1,186.7-3287.1,186.5-3287.1z"/>
		<path class="st12" d="M186.5-3287.1c-0.2,0-0.4-0.1-0.5-0.2c-0.3-0.3-0.3-0.8,0-1.1l12.4-12.4c0.3-0.3,0.8-0.3,1.1,0
			c0.3,0.3,0.3,0.8,0,1.1l-12.4,12.4C186.9-3287.1,186.7-3287.1,186.5-3287.1z"/>
		<path class="st12" d="M198.9-3237.6h-97.3c-0.4,0-0.8-0.3-0.8-0.8v-64.9c0-0.4,0.3-0.8,0.8-0.8c0.4,0,0.8,0.3,0.8,0.8v64.2h95.8
			v-64.2c0-0.4,0.3-0.8,0.8-0.8s0.8,0.3,0.8,0.8v64.9C199.7-3237.9,199.3-3237.6,198.9-3237.6z"/>
		<path class="st12" d="M134-3262.3c-4.6,0-19.3-21-19.3-31.7c0-10.7,8.7-19.3,19.3-19.3c10.7,0,19.3,8.7,19.3,19.3
			C153.3-3283.3,138.5-3262.3,134-3262.3z M134-3311.8c-9.8,0-17.8,8-17.8,17.8c0,10.4,14.4,30.2,17.8,30.2
			c3.3,0,17.8-19.8,17.8-30.1C151.7-3303.8,143.8-3311.8,134-3311.8z"/>
		<path class="st12" d="M112.3-3302.5h-10.8c-0.4,0-0.8-0.3-0.8-0.8c0-0.4,0.3-0.8,0.8-0.8h10.8c0.4,0,0.8,0.3,0.8,0.8
			C113.1-3302.9,112.7-3302.5,112.3-3302.5z"/>
		<path class="st12" d="M198.9-3302.5h-43.3c-0.4,0-0.8-0.3-0.8-0.8c0-0.4,0.3-0.8,0.8-0.8h43.3c0.4,0,0.8,0.3,0.8,0.8
			C199.7-3302.9,199.3-3302.5,198.9-3302.5z"/>
		<path class="st12" d="M121.6-3291.7c-0.2,0-0.4-0.1-0.6-0.3c-0.3-0.3-0.3-0.8,0.1-1.1l12.4-10.8c0.3-0.3,0.8-0.3,1.1,0.1
			c0.3,0.3,0.3,0.8-0.1,1.1l-12.4,10.8C122-3291.8,121.8-3291.7,121.6-3291.7z"/>
		<path class="st12" d="M146.3-3291.7c-0.2,0-0.4-0.1-0.5-0.2l-12.4-10.8c-0.3-0.3-0.3-0.8-0.1-1.1c0.3-0.3,0.8-0.3,1.1-0.1
			l12.4,10.8c0.3,0.3,0.3,0.8,0.1,1.1C146.7-3291.8,146.5-3291.7,146.3-3291.7z"/>
		<path class="st12" d="M124.7-3282.4c-0.4,0-0.8-0.3-0.8-0.8v-9.3c0-0.4,0.3-0.8,0.8-0.8c0.4,0,0.8,0.3,0.8,0.8v9.3
			C125.5-3282.8,125.1-3282.4,124.7-3282.4z"/>
		<path class="st12" d="M143.2-3282.4h-18.5c-0.4,0-0.8-0.3-0.8-0.8s0.3-0.8,0.8-0.8h18.5c0.4,0,0.8,0.3,0.8,0.8
			S143.7-3282.4,143.2-3282.4z"/>
		<path class="st12" d="M143.2-3282.4c-0.4,0-0.8-0.3-0.8-0.8v-9.3c0-0.4,0.3-0.8,0.8-0.8s0.8,0.3,0.8,0.8v9.3
			C144-3282.8,143.7-3282.4,143.2-3282.4z"/>
		<path class="st12" d="M137-3282.4c-0.4,0-0.8-0.3-0.8-0.8v-6.2c0-0.4,0.3-0.8,0.8-0.8c0.4,0,0.8,0.3,0.8,0.8v6.2
			C137.8-3282.8,137.5-3282.4,137-3282.4z"/>
		<path class="st12" d="M140.1-3282.4c-0.4,0-0.8-0.3-0.8-0.8v-6.2c0-0.4,0.3-0.8,0.8-0.8c0.4,0,0.8,0.3,0.8,0.8v6.2
			C140.9-3282.8,140.6-3282.4,140.1-3282.4z"/>
		<path class="st12" d="M134-3287.1h-6.2c-0.4,0-0.8-0.3-0.8-0.8v-4.6c0-0.4,0.3-0.8,0.8-0.8h6.2c0.4,0,0.8,0.3,0.8,0.8v4.6
			C134.7-3287.4,134.4-3287.1,134-3287.1z M128.5-3288.6h4.6v-3.1h-4.6V-3288.6z"/>
		<path class="st12" d="M140.1-3288.6H137c-0.4,0-0.8-0.3-0.8-0.8s0.3-0.8,0.8-0.8h3.1c0.4,0,0.8,0.3,0.8,0.8
			S140.6-3288.6,140.1-3288.6z"/>
	</g>
</g>
</svg>
