<?xml version="1.0" encoding="utf-8"?>
<!-- Generator: Adobe Illustrator 19.0.0, SVG Export Plug-In . SVG Version: 6.00 Build 0)  -->
<svg version="1.1" id="Hero" xmlns="http://www.w3.org/2000/svg" xmlns:xlink="http://www.w3.org/1999/xlink" x="0px" y="0px"
	 viewBox="-235.4 382.9 76 76" style="enable-background:new -235.4 382.9 76 76;" xml:space="preserve">
<style type="text/css">
	.st0{fill:#DFFFDC;}
	.st1{fill:#D3E6F8;}
	.st2{fill:#A4CFF2;}
	.st3{fill:#FFFFFF;}
	.st4{fill:#7BABF1;}
	.st5{fill:#FF3131;}
	.st6{fill:#FF5555;}
	.st7{fill:#4C4372;}
</style>
<g>
	<title>024 robot</title>
	<g>
		<path class="st0" d="M-166.7,420.9c0,17-13.8,30.7-30.7,30.7s-30.7-13.8-30.7-30.7s13.8-30.7,30.7-30.7S-166.7,403.9-166.7,420.9z
			"/>
		<path class="st1" d="M-177.5,457.1h-21.4v-57.2h21.4c2.6,0,4.6,2.1,4.6,4.6v48C-172.9,455-174.9,457.1-177.5,457.1z"/>
		<path class="st2" d="M-177.5,399.9h-5.1c2.6,0,4.6,2.1,4.6,4.6v48c0,2.6-2.1,4.6-4.6,4.6h5.1c2.6,0,4.6-2.1,4.6-4.6v-48
			C-172.9,401.9-174.9,399.9-177.5,399.9z"/>
		<path class="st3" d="M-198.9,440.2h11c1.3,0,2.4,1.1,2.4,2.4v3c0,1.3-1.1,2.4-2.4,2.4h-11L-198.9,440.2z"/>
		<path class="st4" d="M-166,436.1h-6.9v-17.5h6.9c1.7,0,3,1.3,3,3v11.5C-163,434.8-164.3,436.1-166,436.1L-166,436.1z"/>
		<path class="st5" d="M-160.3,409.6c0,1.5-1.2,2.7-2.7,2.7c-1.5,0-2.7-1.2-2.7-2.7c0-1.5,1.2-2.7,2.7-2.7S-160.3,408.1-160.3,409.6
			L-160.3,409.6z"/>
		<path class="st6" d="M-178.6,423.6c0,4-3.2,7.2-7.2,7.2c-4,0-7.2-3.2-7.2-7.2s3.2-7.2,7.2-7.2
			C-181.9,416.4-178.6,419.6-178.6,423.6L-178.6,423.6z"/>
		<path class="st3" d="M-198.9,457.1h-7.2c-10.2,0-18.5-8.3-18.5-18.5V409c0-5,4.1-9.1,9.1-9.1h16.5L-198.9,457.1z"/>
		<path class="st3" d="M-226.7,434.2h2.2v-15.6h-2.2c-4.3,0-7.8,3.5-7.8,7.8S-231,434.2-226.7,434.2z"/>
		<path class="st2" d="M-214.1,384.7c-9.6,0-17.5,7.8-17.5,17.5v18.2c1.3-1.1,3-1.7,4.9-1.7h2.2V409c0-5,4.1-9.1,9.1-9.1h16.5v-15.2
			L-214.1,384.7z"/>
		<path class="st4" d="M-180,399.9h-18.9v-11.2h13.5c2.9,0,5.3,2.4,5.3,5.3V399.9z"/>
		<path class="st4" d="M-209.5,428.8c-1.7,0-3-1.3-3-3v-4.2c0-1.7,1.3-3,3-3s3,1.3,3,3v4.2C-206.5,427.4-207.8,428.8-209.5,428.8
			L-209.5,428.8z"/>
		<g>
			<path class="st7" d="M-177.5,458h-21.4c-0.5,0-0.9-0.4-0.9-0.9l0,0v-57.2c0-0.5,0.4-0.9,0.9-0.9h0h21.4c3,0,5.5,2.5,5.5,5.5v48
				C-172,455.5-174.5,458-177.5,458L-177.5,458z M-198,456.2h20.5c2.1,0,3.8-1.7,3.8-3.8v-48c0-2.1-1.7-3.8-3.8-3.8H-198V456.2z"/>
			<path class="st7" d="M-166,437h-6.9c-0.5,0-0.9-0.4-0.9-0.9v0v-17.5c0-0.5,0.4-0.9,0.9-0.9l0,0h6.9c2.1,0,3.9,1.7,3.9,3.9v11.5
				C-162.1,435.3-163.8,437-166,437z M-172,435.3h6c1.2,0,2.1-1,2.1-2.1v-11.5c0-1.2-1-2.1-2.1-2.1h-6V435.3z"/>
			<path class="st7" d="M-163,426c-0.5,0-0.9-0.4-0.9-0.9l0,0v-12.9c0-0.5,0.4-0.9,0.9-0.9s0.9,0.4,0.9,0.9v12.9
				C-162.1,425.7-162.5,426-163,426L-163,426z"/>
			<path class="st7" d="M-163,413.2c-2,0-3.6-1.6-3.6-3.6c0-2,1.6-3.6,3.6-3.6c2,0,3.6,1.6,3.6,3.6
				C-159.4,411.6-161,413.2-163,413.2z M-163,407.8c-1,0-1.8,0.8-1.8,1.8c0,1,0.8,1.8,1.8,1.8c1,0,1.8-0.8,1.8-1.8
				C-161.1,408.6-162,407.8-163,407.8z"/>
			<path class="st7" d="M-166,433.2c-0.5,0-0.9-0.4-0.9-0.9c0,0,0,0,0,0v-10c0-0.5,0.4-0.9,0.9-0.9c0.5,0,0.9,0.4,0.9,0.9v10
				C-165.1,432.8-165.5,433.2-166,433.2C-166,433.2-166,433.2-166,433.2L-166,433.2z"/>
			<path class="st7" d="M-198.9,458h-7.2c-10.7,0-19.3-8.7-19.3-19.3V409c0-5.5,4.5-10,10-10h16.5c0.5,0,0.9,0.4,0.9,0.9v0v57.2
				C-198,457.6-198.4,458-198.9,458L-198.9,458z M-215.4,400.7c-4.5,0-8.2,3.7-8.2,8.2v29.7c0,9.7,7.9,17.6,17.6,17.6h6.3v-55.5
				H-215.4z"/>
			<path class="st7" d="M-231.6,421.2c-0.5,0-0.9-0.4-0.9-0.9v-18.2c0-10.1,8.2-18.3,18.3-18.3h15.3c0.5,0,0.9,0.4,0.9,0.9v0v15.2
				c0,0.5-0.4,0.9-0.9,0.9h0h-16.5c-4.5,0-8.2,3.7-8.2,8.2v9.6c0,0.5-0.4,0.9-0.9,0.9h0h-2.2c-1.6,0-3.1,0.5-4.3,1.5
				C-231.2,421.1-231.4,421.2-231.6,421.2L-231.6,421.2z M-214.1,385.5c-9.2,0-16.6,7.4-16.6,16.6v16.6c1.2-0.6,2.6-1,4-1h1.4V409
				c0-5.5,4.5-10,10-10h15.6v-13.4H-214.1z"/>
			<path class="st7" d="M-224.5,435.1h-2.2c-4.8,0-8.7-3.9-8.7-8.7c0-4.8,3.9-8.7,8.7-8.7h2.2c0.5,0,0.9,0.4,0.9,0.9l0,0v15.6
				C-223.6,434.7-224,435.1-224.5,435.1L-224.5,435.1z M-226.7,419.5c-3.8,0-6.9,3.1-6.9,6.9c0,3.8,3.1,6.9,6.9,6.9h1.4v-13.9
				H-226.7z"/>
			<path class="st7" d="M-180,400.7h-18.9c-0.5,0-0.9-0.4-0.9-0.9c0,0,0,0,0,0v-11.2c0-0.5,0.4-0.9,0.9-0.9l0,0h13.5
				c3.4,0,6.2,2.8,6.2,6.2v5.9C-179.1,400.3-179.5,400.7-180,400.7L-180,400.7L-180,400.7z M-198,399h17.1v-5c0-2.5-2-4.5-4.5-4.5
				H-198L-198,399z"/>
			<path class="st7" d="M-185.9,431.8c-4.5,0-8.1-3.6-8.1-8.1c0-4.5,3.6-8.1,8.1-8.1c4.5,0,8.1,3.6,8.1,8.1
				C-177.7,428.1-181.4,431.8-185.9,431.8z M-185.9,417.3c-3.5,0-6.4,2.9-6.4,6.4c0,3.5,2.9,6.4,6.4,6.4c3.5,0,6.4-2.9,6.4-6.4
				C-179.5,420.1-182.3,417.3-185.9,417.3L-185.9,417.3z"/>
			<path class="st7" d="M-187.9,448.7h-11c-0.5,0-0.9-0.4-0.9-0.9l0,0v-7.7c0-0.5,0.4-0.9,0.9-0.9h0h11c1.8,0,3.2,1.5,3.2,3.2v3
				C-184.7,447.3-186.1,448.7-187.9,448.7L-187.9,448.7z M-198,447h10.1c0.8,0,1.5-0.7,1.5-1.5v-3c0-0.8-0.7-1.5-1.5-1.5H-198V447z"
				/>
			<path class="st7" d="M-185.5,444.9H-207c-1.8,0-3.3-1.5-3.3-3.3v-1.4c0-0.5,0.4-0.9,0.9-0.9s0.9,0.4,0.9,0.9v1.4
				c0,0.9,0.7,1.6,1.6,1.6h21.5c0.5,0,0.9,0.4,0.9,0.9C-184.7,444.5-185.1,444.9-185.5,444.9z"/>
			<path class="st7" d="M-194.2,448.7c-0.5,0-0.9-0.4-0.9-0.9v0v-7.7c0-0.5,0.4-0.9,0.9-0.9c0.5,0,0.9,0.4,0.9,0.9v7.7
				C-193.4,448.3-193.8,448.7-194.2,448.7L-194.2,448.7L-194.2,448.7z"/>
			<path class="st7" d="M-189.7,448.7c-0.5,0-0.9-0.4-0.9-0.9l0,0v-7.7c0-0.5,0.4-0.9,0.9-0.9c0.5,0,0.9,0.4,0.9,0.9v7.7
				C-188.9,448.3-189.2,448.7-189.7,448.7z"/>
			<path class="st7" d="M-209.5,429.6c-2.1,0-3.9-1.7-3.9-3.9v-4.2c0-2.1,1.7-3.9,3.9-3.9s3.9,1.7,3.9,3.9v4.2
				C-205.6,427.9-207.3,429.6-209.5,429.6L-209.5,429.6z M-209.5,419.4c-1.2,0-2.1,1-2.1,2.1v4.2c0,1.2,1,2.1,2.1,2.1
				c1.2,0,2.1-1,2.1-2.1v-4.2C-207.3,420.3-208.3,419.4-209.5,419.4L-209.5,419.4z"/>
		</g>
	</g>
</g>
</svg>
