<?xml version="1.0" encoding="utf-8"?>
<!-- Generator: Adobe Illustrator 19.0.0, SVG Export Plug-In . SVG Version: 6.00 Build 0)  -->
<svg version="1.1" id="Hero" xmlns="http://www.w3.org/2000/svg" xmlns:xlink="http://www.w3.org/1999/xlink" x="0px" y="0px"
	 viewBox="-235.4 382.9 76 76" style="enable-background:new -235.4 382.9 76 76;" xml:space="preserve">
<style type="text/css">
	.st0{fill:#DFFFDC;}
	.st1{fill:#D3E6F8;}
	.st2{fill:#FF5555;}
	.st3{fill:#FF3131;}
	.st4{fill:#A4CFF2;}
	.st5{fill:#7BABF1;}
	.st6{fill:#FFFFFF;}
	.st7{fill:#4C4372;}
</style>
<g>
	<title>025 bionic arm</title>
	<g>
		<path class="st0" d="M-166.7,420.9c0,16.9-13.7,30.7-30.7,30.7s-30.7-13.7-30.7-30.7s13.7-30.7,30.7-30.7S-166.7,404-166.7,420.9z
			"/>
		<path class="st1" d="M-182.8,444.1h-21.7c-2.4,0-4.4-2-4.4-4.4v-25.5h30.4v25.5C-178.4,442.2-180.3,444.1-182.8,444.1
			L-182.8,444.1z"/>
		<path class="st2" d="M-178.4,414.3h-7.6v-20c0-2.1,1.7-3.8,3.8-3.8c2.1,0,3.8,1.7,3.8,3.8V414.3z"/>
		<path class="st2" d="M-186,414.3h-7.6v-24c0-2.1,1.7-3.8,3.8-3.8c2.1,0,3.8,1.7,3.8,3.8V414.3z"/>
		<path class="st2" d="M-193.6,414.3h-7.6v-26.6c0-2.1,1.7-3.8,3.8-3.8c2.1,0,3.8,1.7,3.8,3.8L-193.6,414.3L-193.6,414.3z"/>
		<path class="st2" d="M-208.8,437.3c-4.2,0-7.6-3.4-7.6-7.6v-16.8c0-2.1,1.7-3.8,3.8-3.8c2.1,0,3.8,1.7,3.8,3.8V437.3z"/>
		<path class="st3" d="M-207.5,437.3v-24.4c0-2.1-1.7-3.8-3.8-3.8v27.2C-210.1,436.9-208.8,437.3-207.5,437.3z"/>
		<path class="st3" d="M-180.5,390.5v23.8h2.1v-20C-178.4,392.3-179.9,390.7-180.5,390.5z"/>
		<path class="st3" d="M-188.2,386.5v27.8h2.2v-24.6C-186.3,387.9-187.7,386.6-188.2,386.5z"/>
		<path class="st2" d="M-201.2,414.3h-7.6v-24c0-2.1,1.7-3.8,3.8-3.8s3.8,1.7,3.8,3.8V414.3z"/>
		<path class="st3" d="M-203.4,386.5v27.8h3.5v-24.6C-200.2,387.9-201.6,386.6-203.4,386.5L-203.4,386.5z"/>
		<path class="st3" d="M-195.8,383.8v30.4h3.5v-27.1C-192.5,385.4-193.9,384-195.8,383.8L-195.8,383.8z"/>
		<path class="st4" d="M-182.1,444.1c2.1-0.3,3.7-2.1,3.7-4.3v-25.5h-3.7V444.1z"/>
		<path class="st5" d="M-183.6,449.8H-204c-0.9,0-1.6-0.7-1.6-1.6c0,0,0,0,0,0V444h23.5v4.3C-182.1,449.1-182.8,449.8-183.6,449.8z"
			/>
		<path class="st4" d="M-200,449.8h12.4v8.1H-200L-200,449.8z"/>
		<path class="st6" d="M-193.7,422.3c-3.7,0-6.7,3-6.7,6.7v15.2h13.4v-15.2C-187,425.3-190,422.3-193.7,422.3L-193.7,422.3z"/>
		<g>
			<path class="st7" d="M-182.8,445h-21.7c-2.9,0-5.2-2.3-5.2-5.2v-25.5c0-0.5,0.4-0.9,0.9-0.9h0h30.4c0.5,0,0.9,0.4,0.9,0.9
				c0,0,0,0,0,0v25.5C-177.5,442.6-179.9,445-182.8,445L-182.8,445z M-208,415.1v24.6c0,1.9,1.6,3.5,3.5,3.5h21.7
				c1.9,0,3.5-1.6,3.5-3.5v-24.6H-208z"/>
			<path class="st7" d="M-178.4,415.1h-7.6c-0.5,0-0.9-0.4-0.9-0.9v0v-20c0-2.6,2.1-4.7,4.7-4.7c2.6,0,4.7,2.1,4.7,4.7v20
				C-177.5,414.7-177.9,415.1-178.4,415.1L-178.4,415.1L-178.4,415.1z M-185.1,413.4h5.9v-19.1c0-1.6-1.3-2.9-2.9-2.9
				s-2.9,1.3-2.9,2.9V413.4z"/>
			<path class="st7" d="M-186,415.1h-7.6c-0.5,0-0.9-0.4-0.9-0.9v0v-24c0-2.6,2.1-4.7,4.7-4.7c2.6,0,4.7,2.1,4.7,4.7v24
				C-185.1,414.7-185.5,415.1-186,415.1L-186,415.1L-186,415.1z M-192.7,413.4h5.9v-23.1c0-1.6-1.3-2.9-2.9-2.9
				c-1.6,0-2.9,1.3-2.9,2.9V413.4z"/>
			<path class="st7" d="M-193.6,415.1h-7.6c-0.5,0-0.9-0.4-0.9-0.9v0v-26.6c0-2.6,2.1-4.7,4.7-4.7c2.6,0,4.7,2.1,4.7,4.7v26.6
				C-192.7,414.7-193.1,415.1-193.6,415.1L-193.6,415.1L-193.6,415.1z M-200.4,413.4h5.9v-25.8c0-1.6-1.3-2.9-2.9-2.9
				s-2.9,1.3-2.9,2.9V413.4z"/>
			<path class="st7" d="M-208.8,438.1c-4.7,0-8.4-3.8-8.4-8.4v-16.8c0-2.6,2.1-4.7,4.7-4.7c2.6,0,4.7,2.1,4.7,4.7v24.4
				C-208,437.7-208.4,438.1-208.8,438.1L-208.8,438.1L-208.8,438.1z M-212.6,409.9c-1.6,0-2.9,1.3-2.9,2.9v16.8
				c0,3.4,2.5,6.2,5.8,6.7v-23.5C-209.7,411.2-211,409.9-212.6,409.9L-212.6,409.9z"/>
			<path class="st7" d="M-201.2,415.1h-7.6c-0.5,0-0.9-0.4-0.9-0.9v0v-24c0-2.6,2.1-4.7,4.7-4.7c2.6,0,4.7,2.1,4.7,4.7v24
				C-200.4,414.7-200.7,415.1-201.2,415.1L-201.2,415.1L-201.2,415.1z M-208,413.4h5.9v-23.1c0-1.6-1.3-2.9-2.9-2.9
				c-1.6,0-2.9,1.3-2.9,2.9V413.4z"/>
			<path class="st7" d="M-183.6,450.7H-204c-1.3,0-2.4-1.1-2.4-2.4V444c0-0.5,0.4-0.9,0.9-0.9h23.5c0.5,0,0.9,0.4,0.9,0.9v4.3
				C-181.2,449.6-182.3,450.7-183.6,450.7L-183.6,450.7z M-204.7,444.8v3.4c0,0.4,0.3,0.7,0.7,0.7h20.4c0.4,0,0.7-0.3,0.7-0.7v-3.4
				H-204.7z"/>
			<path class="st7" d="M-187.7,458.8H-200c-0.5,0-0.9-0.4-0.9-0.9l0,0v-8.1c0-0.5,0.4-0.9,0.9-0.9l0,0h12.4c0.5,0,0.9,0.4,0.9,0.9
				v0v8.1C-186.8,458.4-187.2,458.8-187.7,458.8L-187.7,458.8z M-199.1,457.1h10.6v-6.4h-10.6V457.1z"/>
			<path class="st7" d="M-187,445h-13.4c-0.5,0-0.9-0.4-0.9-0.9l0,0v-15.2c0-4.2,3.4-7.5,7.5-7.5c4.2,0,7.5,3.4,7.5,7.5v15.2
				C-186.2,444.6-186.5,445-187,445z M-199.5,443.2h11.6v-14.3c0-3.2-2.6-5.8-5.8-5.8s-5.8,2.6-5.8,5.8V443.2z"/>
			<path class="st7" d="M-201.2,394.4h-7.6c-0.5,0-0.9-0.4-0.9-0.9c0-0.5,0.4-0.9,0.9-0.9c0,0,0,0,0,0h7.6c0.5,0,0.9,0.4,0.9,0.9
				C-200.4,394.1-200.7,394.4-201.2,394.4C-201.2,394.4-201.2,394.4-201.2,394.4z"/>
			<path class="st7" d="M-193.6,393.3h-7.6c-0.5,0-0.9-0.4-0.9-0.9c0-0.5,0.4-0.9,0.9-0.9c0,0,0,0,0,0h7.6c0.5,0,0.9,0.4,0.9,0.9
				C-192.7,392.9-193.1,393.3-193.6,393.3C-193.6,393.3-193.6,393.3-193.6,393.3z"/>
			<path class="st7" d="M-186,394.4h-7.6c-0.5,0-0.9-0.4-0.9-0.9c0-0.5,0.4-0.9,0.9-0.9c0,0,0,0,0,0h7.6c0.5,0,0.9,0.4,0.9,0.9
				C-185.1,394.1-185.5,394.4-186,394.4C-186,394.4-186,394.4-186,394.4z"/>
			<path class="st7" d="M-178.4,398.9h-7.6c-0.5,0-0.9-0.4-0.9-0.9s0.4-0.9,0.9-0.9h7.6c0.5,0,0.9,0.4,0.9,0.9
				S-177.9,398.9-178.4,398.9z"/>
			<path class="st7" d="M-208.8,417h-7.6c-0.5,0-0.9-0.4-0.9-0.9s0.4-0.9,0.9-0.9c0,0,0,0,0,0h7.6c0.5,0,0.9,0.4,0.9,0.9
				C-208,416.6-208.3,417-208.8,417C-208.8,417-208.8,417-208.8,417z"/>
			<path class="st7" d="M-184.6,446.9c0,0.7-0.5,1.2-1.2,1.2s-1.2-0.5-1.2-1.2c0,0,0,0,0,0c0-0.7,0.5-1.2,1.2-1.2
				C-185.1,445.7-184.6,446.2-184.6,446.9L-184.6,446.9z"/>
		</g>
	</g>
</g>
</svg>
