<?xml version="1.0" encoding="utf-8"?>
<!-- Generator: Adobe Illustrator 19.0.0, SVG Export Plug-In . SVG Version: 6.00 Build 0)  -->
<svg version="1.1" id="Hero" xmlns="http://www.w3.org/2000/svg" xmlns:xlink="http://www.w3.org/1999/xlink" x="0px" y="0px"
	 viewBox="123.5 -3313.5 76.2 76" style="enable-background:new 123.5 -3313.5 76.2 76;" xml:space="preserve">
<style type="text/css">
	.st0{fill:#F7B7A4;}
	.st1{fill:#F4876E;}
	.st2{fill:#FCE7E3;}
	.st3{fill:#FFFFFF;}
	.st4{opacity:0.3;}
	.st5{fill:#FF5310;}
</style>
<g>
	<polygon class="st0" points="153.2,-3264.2 150.8,-3261.8 153.2,-3259.4 152,-3257.1 153.2,-3254.7 150.8,-3252.3 153.2,-3250 
		153.2,-3242.9 142.5,-3238.1 137.8,-3244.1 137.8,-3272.7 153.2,-3272.7 	"/>
	<path class="st1" d="M137.8-3271.6c2.4,0.9,4.9,1.5,7.6,1.5c2.7,0,5.3-0.5,7.7-1.5v-1.2h-15.4V-3271.6z"/>
	<path class="st2" d="M140.1-3270.8c-0.8-0.2-1.6-0.5-2.4-0.8v27.5l4.7,5.9l1.7-0.8l-4.1-5.1L140.1-3270.8L140.1-3270.8z"/>
	<path class="st1" d="M150.8-3264.2l-2.4,2.4l2.4,2.4l-1.2,2.4l1.2,2.4l-2.4,2.4l2.4,2.4v7.1l-8.9,4l0.6,0.8l10.6-4.7v-7.1l-2.4-2.4
		l2.4-2.4l-1.2-2.4l1.2-2.4l-2.4-2.4l2.4-2.4v-7.4c-0.8,0.3-1.6,0.6-2.4,0.8V-3264.2z"/>
	<path class="st3" d="M189.8-3291.7l-14.2-5.2l-8.2,12.7l8.3,24.7l22.4-7.5L189.8-3291.7z M178.2-3287.9c-0.7,0-1.2-0.5-1.2-1.2
		c0-0.7,0.5-1.2,1.2-1.2c0.7,0,1.2,0.5,1.2,1.2C179.4-3288.4,178.8-3287.9,178.2-3287.9z"/>
	<g>
		<polygon class="st1" points="189.8,-3291.7 175.6,-3296.9 175.3,-3296.5 188.6,-3291.7 196.9,-3267 175.5,-3259.8 175.7,-3259.5 
			198.1,-3267 		"/>
	</g>
	<g class="st4">
		<polygon class="st3" points="168.6,-3284.1 176.5,-3296.5 175.6,-3296.9 167.4,-3284.1 175.7,-3259.5 176.7,-3259.8 		"/>
	</g>
	<polygon class="st0" points="190.6,-3278.2 180.1,-3283.4 174.9,-3272.9 175.6,-3270.7 180.8,-3281.2 191.3,-3276 	"/>
	<path class="st0" d="M145.4-3312.6c-11.4,0-20.7,9.3-20.7,20.7s9.3,20.7,20.7,20.7c11.4,0,20.7-9.3,20.7-20.7
		S156.9-3312.6,145.4-3312.6z M145.5-3299.6c-2.3,0-4.1-1.9-4.1-4.1s1.9-4.1,4.1-4.1s4.1,1.9,4.1,4.1S147.8-3299.6,145.5-3299.6z"/>
	<path class="st2" d="M127.1-3292c0-11,8.6-20,19.5-20.6c-0.4,0-0.8-0.1-1.2-0.1c-11.4,0-20.7,9.3-20.7,20.7s9.3,20.7,20.7,20.7
		c0.4,0,0.8,0,1.2-0.1C135.7-3271.9,127.1-3280.9,127.1-3292z"/>
	<path class="st1" d="M163.7-3292c0,11-8.6,20-19.5,20.6c0.4,0,0.8,0.1,1.2,0.1c11.4,0,20.7-9.3,20.7-20.7s-9.3-20.7-20.7-20.7
		c-0.4,0-0.8,0-1.2,0.1C155.1-3312,163.7-3303,163.7-3292z"/>
	<polygon class="st0" points="191,-3269.6 179.8,-3265.8 177.1,-3273.7 180.8,-3281.2 188.3,-3277.4 	"/>
	<g>
		<path class="st5" d="M145.5-3270.7c-11.7,0-21.3-9.5-21.3-21.3c0-11.7,9.5-21.3,21.3-21.3c11,0,20.3,8.5,21.2,19.5
			c0,0.3-0.2,0.6-0.5,0.6c-0.3,0-0.6-0.2-0.6-0.5c-0.9-10.3-9.7-18.4-20-18.4c-11.1,0-20.1,9-20.1,20.1s9,20.1,20.1,20.1
			c9.9,0,18.5-7.4,19.9-17.2c0-0.3,0.4-0.6,0.7-0.5c0.3,0,0.5,0.3,0.5,0.7C165.1-3278.5,156-3270.7,145.5-3270.7z"/>
		<path class="st5" d="M145.5-3299c-2.6,0-4.7-2.1-4.7-4.7c0-2.6,2.1-4.7,4.7-4.7c2.6,0,4.7,2.1,4.7,4.7c0,0.3-0.3,0.6-0.6,0.6
			c-0.3,0-0.6-0.3-0.6-0.6c0-2-1.6-3.5-3.5-3.5s-3.5,1.6-3.5,3.5s1.6,3.5,3.5,3.5c0.5,0,1-0.1,1.5-0.3c0.3-0.1,0.6,0,0.8,0.3
			c0.1,0.3,0,0.6-0.3,0.8C146.9-3299.2,146.2-3299,145.5-3299z"/>
		<path class="st5" d="M137.8-3243.5c-0.3,0-0.6-0.3-0.6-0.6v-26c0-0.3,0.3-0.6,0.6-0.6c0.3,0,0.6,0.3,0.6,0.6v26
			C138.4-3243.7,138.1-3243.5,137.8-3243.5z"/>
		<path class="st5" d="M153.2-3242.3c-0.3,0-0.6-0.3-0.6-0.6v-6.9l-2.2-2.2c-0.2-0.2-0.2-0.6,0-0.8l2.1-2.1l-1-2
			c-0.1-0.2-0.1-0.4,0-0.5l1-2l-2.1-2.1c-0.2-0.2-0.2-0.6,0-0.8l2.2-2.2v-5.7c0-0.3,0.3-0.6,0.6-0.6c0.3,0,0.6,0.3,0.6,0.6v5.9
			c0,0.2-0.1,0.3-0.2,0.4l-1.9,1.9l1.9,1.9c0.2,0.2,0.2,0.5,0.1,0.7l-1.1,2.1l1.1,2.1c0.1,0.2,0.1,0.5-0.1,0.7l-1.9,1.9l1.9,1.9
			c0.1,0.1,0.2,0.3,0.2,0.4v7.1C153.7-3242.5,153.5-3242.3,153.2-3242.3z"/>
		<path class="st5" d="M142.5-3237.6c-0.2,0-0.3-0.1-0.5-0.2l-4.7-5.9c-0.2-0.3-0.2-0.6,0.1-0.8c0.3-0.2,0.6-0.2,0.8,0.1l4.7,5.9
			c0.2,0.3,0.2,0.6-0.1,0.8C142.8-3237.6,142.6-3237.6,142.5-3237.6z"/>
		<path class="st5" d="M142.5-3237.6c-0.2,0-0.4-0.1-0.5-0.4c-0.1-0.3,0-0.6,0.3-0.8l10.6-4.7c0.3-0.1,0.6,0,0.8,0.3
			c0.1,0.3,0,0.6-0.3,0.8l-10.6,4.7C142.7-3237.6,142.6-3237.6,142.5-3237.6z"/>
		<path class="st5" d="M142.5-3242.3c-0.3,0-0.6-0.3-0.6-0.6v-26c0-0.3,0.3-0.6,0.6-0.6c0.3,0,0.6,0.3,0.6,0.6v26
			C143.1-3242.5,142.8-3242.3,142.5-3242.3z"/>
		<path class="st5" d="M175.7-3258.9c-0.2,0-0.5-0.2-0.6-0.4l-8.3-24.7c-0.1-0.2,0-0.4,0.1-0.5l2.3-3.6c0.2-0.3,0.5-0.4,0.8-0.2
			c0.3,0.2,0.4,0.5,0.2,0.8l-2.2,3.4l8,23.8l21.3-7.2l-8-23.8l-13.5-4.9l-3.3,5.1c-0.2,0.3-0.5,0.4-0.8,0.2
			c-0.3-0.2-0.4-0.5-0.2-0.8l3.5-5.5c0.2-0.2,0.4-0.3,0.7-0.2l14.2,5.2c0.2,0.1,0.3,0.2,0.4,0.4l8.3,24.7c0.1,0.1,0,0.3,0,0.5
			c-0.1,0.1-0.2,0.2-0.3,0.3l-22.4,7.5C175.8-3258.9,175.7-3258.9,175.7-3258.9z"/>
		<path class="st5" d="M179.8-3265.2c-0.1,0-0.2,0-0.3-0.1c-0.1-0.1-0.2-0.2-0.3-0.3l-1.9-5.6c-0.1-0.3,0.1-0.6,0.4-0.7
			c0.3-0.1,0.6,0.1,0.7,0.4l1.7,5l10.1-3.4l-1.7-5c-0.1-0.3,0.1-0.6,0.4-0.7c0.3-0.1,0.6,0.1,0.7,0.4l1.9,5.6
			c0.1,0.3-0.1,0.6-0.4,0.7l-11.2,3.8C179.9-3265.3,179.8-3265.2,179.8-3265.2z"/>
		<path class="st5" d="M174.9-3272.3c-0.1,0-0.2,0-0.3-0.1c-0.3-0.1-0.4-0.5-0.3-0.8l5.2-10.5c0.1-0.3,0.5-0.4,0.8-0.3
			c0.3,0.1,0.4,0.5,0.3,0.8l-5.2,10.5C175.3-3272.5,175.1-3272.3,174.9-3272.3z"/>
		<path class="st5" d="M190.6-3277.6c-0.1,0-0.2,0-0.3-0.1l-10.5-5.2c-0.3-0.1-0.4-0.5-0.3-0.8c0.1-0.3,0.5-0.4,0.8-0.3l10.5,5.2
			c0.3,0.1,0.4,0.5,0.3,0.8C191-3277.7,190.8-3277.6,190.6-3277.6z"/>
		<path class="st5" d="M175.6-3270.1c-0.1,0-0.2,0-0.3-0.1c-0.3-0.1-0.4-0.5-0.3-0.8l5.2-10.5c0.1-0.3,0.5-0.4,0.8-0.3
			c0.3,0.1,0.4,0.5,0.3,0.8l-5.2,10.5C176.1-3270.2,175.8-3270.1,175.6-3270.1z"/>
		<path class="st5" d="M191.3-3275.4c-0.1,0-0.2,0-0.3-0.1l-10.5-5.2c-0.3-0.1-0.4-0.5-0.3-0.8c0.1-0.3,0.5-0.4,0.8-0.3l10.5,5.2
			c0.3,0.1,0.4,0.5,0.3,0.8C191.7-3275.5,191.5-3275.4,191.3-3275.4z"/>
		<path class="st5" d="M185.4-3267.1c-0.2,0-0.5-0.2-0.6-0.4l-0.8-2.2c-0.1-0.3,0.1-0.6,0.4-0.7c0.3-0.1,0.6,0.1,0.7,0.4l0.8,2.2
			c0.1,0.3-0.1,0.6-0.4,0.7C185.5-3267.1,185.4-3267.1,185.4-3267.1z"/>
		<path class="st5" d="M178.6-3287.4c-0.2,0-0.5-0.2-0.6-0.4c-0.1-0.3,0.1-0.6,0.4-0.7c0.3-0.1,0.5-0.4,0.4-0.7
			c-0.1-0.3-0.4-0.5-0.7-0.4c-0.3,0.1-0.6-0.1-0.7-0.4c-0.1-0.3,0.1-0.6,0.4-0.7c0.9-0.3,1.9,0.2,2.2,1.1c0.2,0.5,0.1,0.9-0.1,1.4
			c-0.2,0.4-0.6,0.7-1,0.9C178.7-3287.4,178.6-3287.4,178.6-3287.4z"/>
		<path class="st5" d="M176.8-3288.4C176.8-3288.4,176.8-3288.4,176.8-3288.4c-23.9-1.3-29.9-13.9-30.2-14.5c-0.1-0.3,0-0.6,0.3-0.8
			c0.3-0.1,0.6,0,0.8,0.3c0.1,0.1,6,12.6,29.1,13.8c0.3,0,0.6,0.3,0.6,0.6C177.4-3288.7,177.1-3288.4,176.8-3288.4z"/>
		<path class="st5" d="M172.1-3294.7c-0.1,0-0.2,0-0.4-0.1c-1.4-1-3-2-4.7-2.9c-0.3-0.2-0.4-0.5-0.3-0.8c0.2-0.3,0.5-0.4,0.8-0.3
			c1.7,0.9,3.4,1.9,4.8,3c0.3,0.2,0.3,0.6,0.1,0.8C172.4-3294.8,172.3-3294.7,172.1-3294.7z"/>
	</g>
</g>
</svg>
