<?xml version="1.0" encoding="utf-8"?>
<!-- Generator: Adobe Illustrator 19.0.0, SVG Export Plug-In . SVG Version: 6.00 Build 0)  -->
<svg version="1.1" id="Hero" xmlns="http://www.w3.org/2000/svg" xmlns:xlink="http://www.w3.org/1999/xlink" x="0px" y="0px"
	 viewBox="100.5 -3313.5 71.2 76" style="enable-background:new 100.5 -3313.5 71.2 76;" xml:space="preserve">
<style type="text/css">
	.st0{fill:#F7B7A4;}
	.st1{fill:#FFFFFF;}
	.st2{fill:#FCCEC3;}
	.st3{fill:#F4876E;}
	.st4{fill:#FF5310;}
</style>
<g>
	<polygon class="st0" points="101.1,-3308.3 105.8,-3313 149.8,-3313 156.9,-3305.9 156.9,-3243 152.1,-3238.1 101.1,-3238.1 	"/>
	<g>
		<polygon class="st1" points="156.9,-3243 105.8,-3243 105.8,-3313 149.8,-3313 156.9,-3305.9 		"/>
		<polygon class="st1" points="156.9,-3304.7 148.6,-3304.7 148.6,-3313 149.8,-3313 156.9,-3305.9 		"/>
	</g>
	<polygon class="st0" points="168.7,-3253.7 168.7,-3252.5 169.9,-3248.9 167.6,-3245.4 165.2,-3248.9 166.4,-3252.5 166.4,-3253.7 
			"/>
	<polygon class="st1" points="167.6,-3247.8 165.7,-3250.5 165.2,-3248.9 167.6,-3245.4 169.9,-3248.9 169.4,-3250.5 	"/>
	<polygon class="st0" points="169.9,-3260.8 169.9,-3253.7 168.7,-3253.7 166.4,-3253.7 165.2,-3253.7 165.2,-3260.8 	"/>
	<rect x="165.2" y="-3263.2" class="st0" width="4.7" height="2.4"/>
	<path class="st0" d="M171.1-3292.9l-1.2,29.7h-4.7l-1.2-29.7c0-2.6,0.9-4.7,3.6-4.7h0.1C170.2-3297.5,171.1-3295.5,171.1-3292.9z"
		/>
	<path class="st2" d="M166.4-3263.2l-1.2-29.7c0-2.4,0.8-4.4,3-4.7c-0.2,0-0.3-0.1-0.5-0.1h-0.1c-2.6,0-3.6,2.1-3.6,4.7l1.2,29.7
		v2.4v7.1h1.2v-7.1L166.4-3263.2L166.4-3263.2z"/>
	<path class="st3" d="M168.7-3263.2l1.2-29.7c0-2.4-0.8-4.4-3-4.7c0.2,0,0.3-0.1,0.5-0.1h0.1c2.6,0,3.6,2.1,3.6,4.7l-1.2,29.7v2.4
		v7.1h-1.2v-7.1V-3263.2L168.7-3263.2z"/>
	<rect x="166.4" y="-3253.7" class="st3" width="2.4" height="1.2"/>
	<g>
		<polygon class="st0" points="105.8,-3243 101.1,-3238.3 101.1,-3308.3 105.8,-3313 		"/>
		<polygon class="st0" points="127.2,-3296.2 121.3,-3302.4 115.3,-3296.4 115.3,-3289.3 127.2,-3289.3 		"/>
	</g>
	<polygon class="st1" points="115.3,-3296.4 115.3,-3289.3 116.5,-3289.3 116.5,-3297.6 	"/>
	<g>
		<polygon class="st3" points="127.2,-3296.4 127.2,-3289.3 126,-3289.3 126,-3297.6 		"/>
		<polygon class="st3" points="121.3,-3304.7 113,-3296.4 113,-3294 121.3,-3302.4 129.6,-3294 129.6,-3296.4 		"/>
	</g>
	<rect x="165.2" y="-3263.2" class="st1" width="1.2" height="2.4"/>
	<rect x="168.7" y="-3263.2" class="st3" width="1.2" height="2.4"/>
	<g>
		<path class="st4" d="M127.2-3288.6h-11.9c-0.3,0-0.6-0.3-0.6-0.6v-4.7c0-0.3,0.3-0.6,0.6-0.6c0.3,0,0.6,0.3,0.6,0.6v4.2h10.7v-4.2
			c0-0.3,0.3-0.6,0.6-0.6c0.3,0,0.6,0.3,0.6,0.6v4.7C127.8-3288.9,127.5-3288.6,127.2-3288.6z"/>
		<path class="st4" d="M113-3295.7c-0.2,0-0.3-0.1-0.4-0.2c-0.2-0.2-0.2-0.6,0-0.8l8.3-8.3c0.2-0.2,0.6-0.2,0.8,0
			c0.2,0.2,0.2,0.6,0,0.8l-8.3,8.3C113.3-3295.8,113.1-3295.7,113-3295.7z"/>
		<path class="st4" d="M129.6-3295.7c-0.2,0-0.3-0.1-0.4-0.2l-8.3-8.3c-0.2-0.2-0.2-0.6,0-0.8c0.2-0.2,0.6-0.2,0.8,0l8.3,8.3
			c0.2,0.2,0.2,0.6,0,0.8C129.9-3295.8,129.7-3295.7,129.6-3295.7z"/>
		<path class="st4" d="M113-3293.4c-0.2,0-0.3-0.1-0.4-0.2c-0.2-0.2-0.2-0.6,0-0.8l8.3-8.3c0.2-0.2,0.6-0.2,0.8,0
			c0.2,0.2,0.2,0.6,0,0.8l-8.3,8.3C113.3-3293.4,113.1-3293.4,113-3293.4z"/>
		<path class="st4" d="M129.6-3293.4c-0.2,0-0.3-0.1-0.4-0.2l-8.3-8.3c-0.2-0.2-0.2-0.6,0-0.8c0.2-0.2,0.6-0.2,0.8,0l8.3,8.3
			c0.2,0.2,0.2,0.6,0,0.8C129.9-3293.4,129.7-3293.4,129.6-3293.4z"/>
		<path class="st4" d="M121.3-3288.6c-0.3,0-0.6-0.3-0.6-0.6v-2.4c0-0.3,0.3-0.6,0.6-0.6c0.3,0,0.6,0.3,0.6,0.6v2.4
			C121.9-3288.9,121.6-3288.6,121.3-3288.6z"/>
		<path class="st4" d="M149.8-3250.6h-16.6c-0.3,0-0.6-0.3-0.6-0.6c0-0.3,0.3-0.6,0.6-0.6h16.6c0.3,0,0.6,0.3,0.6,0.6
			C150.3-3250.9,150.1-3250.6,149.8-3250.6z"/>
		<path class="st4" d="M142.6-3249.4c-0.1,0-0.1,0-0.2,0c-0.3-0.1-0.4-0.3-0.4-0.6v-2.2c-0.9,0.8-2.3,1.7-3.5,1.5
			c-0.3-0.1-0.8-0.2-1.1-0.7c-0.5,0.6-1,1.2-1.4,1.7c-0.2,0.2-0.6,0.3-0.8,0.1c-0.2-0.2-0.3-0.6-0.1-0.8c0.6-0.7,1.2-1.4,1.7-2.1
			c-0.4-1.6,0.1-3,0.7-3.6c0.5-0.5,1.2-0.6,1.8-0.4c0.3,0.1,0.5,0.3,0.5,0.6c0.2,0.7-0.7,2.2-1.7,3.6c0.2,0.4,0.5,0.5,0.6,0.5
			c1.1,0.2,3.1-1.6,3.5-2.1c0.2-0.2,0.4-0.3,0.7-0.2c0.2,0.1,0.4,0.3,0.4,0.6v1.6l1.3-1.9c0.1-0.2,0.3-0.3,0.5-0.3h2.4
			c0.3,0,0.6,0.3,0.6,0.6c0,0.3-0.3,0.6-0.6,0.6h-2.1l-2.2,3.3C143-3249.5,142.8-3249.4,142.6-3249.4z M138.6-3255.4
			c-0.1,0-0.2,0.1-0.3,0.2c-0.3,0.3-0.5,0.7-0.5,1.3C138.2-3254.6,138.5-3255.1,138.6-3255.4z"/>
		<path class="st4" d="M167.6-3244.7c-0.2,0-0.4-0.1-0.5-0.3l-2.4-3.6c-0.1-0.2-0.1-0.3-0.1-0.5l1.2-3.5v-1.1c0-0.3,0.3-0.6,0.6-0.6
			s0.6,0.3,0.6,0.6v1.2c0,0.1,0,0.1,0,0.2l-1.1,3.3l2.2,3.3c0.2,0.3,0.1,0.6-0.2,0.8C167.8-3244.7,167.7-3244.7,167.6-3244.7z"/>
		<path class="st4" d="M167.6-3244.7c-0.1,0-0.2,0-0.3-0.1c-0.3-0.2-0.3-0.5-0.2-0.8l2.2-3.3l-1.1-3.3c0-0.1,0-0.1,0-0.2v-1.2
			c0-0.3,0.3-0.6,0.6-0.6s0.6,0.3,0.6,0.6v1.1l1.2,3.5c0.1,0.2,0,0.4-0.1,0.5l-2.4,3.6C167.9-3244.8,167.8-3244.7,167.6-3244.7z"/>
		<path class="st4" d="M169.9-3262.5h-4.7c-0.3,0-0.6-0.3-0.6-0.6s0.3-0.6,0.6-0.6h4.7c0.3,0,0.6,0.3,0.6,0.6
			S170.3-3262.5,169.9-3262.5z"/>
		<path class="st4" d="M165.2-3262.5c-0.3,0-0.6-0.3-0.6-0.6l-1.2-29.7c0-0.3,0.2-0.6,0.6-0.6c0.3,0,0.6,0.2,0.6,0.6l1.2,29.7
			C165.8-3262.8,165.5-3262.5,165.2-3262.5C165.2-3262.5,165.2-3262.5,165.2-3262.5z"/>
		<path class="st4" d="M169.9-3262.5C169.9-3262.5,169.9-3262.5,169.9-3262.5c-0.4,0-0.6-0.3-0.6-0.6l1.2-29.7
			c0-0.3,0.3-0.6,0.6-0.6c0.3,0,0.6,0.3,0.6,0.6l-1.2,29.7C170.5-3262.7,170.3-3262.5,169.9-3262.5z"/>
		<path class="st4" d="M171.1-3292.2c-0.3,0-0.6-0.3-0.6-0.6c0-2.8-1-4.2-3-4.2c-2,0-3,1.4-3,4.2c0,0.3-0.3,0.6-0.6,0.6
			s-0.6-0.3-0.6-0.6c0-3.4,1.5-5.3,4.2-5.3c2.6,0,4.2,1.9,4.2,5.3C171.7-3292.4,171.5-3292.2,171.1-3292.2z"/>
		<path class="st4" d="M168.7-3296.9h-2.4c-0.3,0-0.6-0.3-0.6-0.6s0.3-0.6,0.6-0.6h2.4c0.3,0,0.6,0.3,0.6,0.6
			S169.1-3296.9,168.7-3296.9z"/>
		<path class="st4" d="M167.6-3276.7c-0.3,0-0.6-0.3-0.6-0.6v-17.8c0-0.3,0.3-0.6,0.6-0.6c0.3,0,0.6,0.3,0.6,0.6v17.8
			C168.2-3277,167.9-3276.7,167.6-3276.7z"/>
		<path class="st4" d="M169.9-3260.1h-4.7c-0.3,0-0.6-0.3-0.6-0.6c0-0.3,0.3-0.6,0.6-0.6h4.7c0.3,0,0.6,0.3,0.6,0.6
			C170.5-3260.4,170.3-3260.1,169.9-3260.1z"/>
		<path class="st4" d="M169.9-3260.1c-0.3,0-0.6-0.3-0.6-0.6v-2.4c0-0.3,0.3-0.6,0.6-0.6c0.3,0,0.6,0.3,0.6,0.6v2.4
			C170.5-3260.4,170.3-3260.1,169.9-3260.1z"/>
		<path class="st4" d="M165.2-3260.1c-0.3,0-0.6-0.3-0.6-0.6v-2.4c0-0.3,0.3-0.6,0.6-0.6c0.3,0,0.6,0.3,0.6,0.6v2.4
			C165.8-3260.4,165.5-3260.1,165.2-3260.1z"/>
		<path class="st4" d="M169.9-3253h-4.7c-0.3,0-0.6-0.3-0.6-0.6c0-0.3,0.3-0.6,0.6-0.6h4.7c0.3,0,0.6,0.3,0.6,0.6
			C170.5-3253.3,170.3-3253,169.9-3253z"/>
		<path class="st4" d="M169.9-3253c-0.3,0-0.6-0.3-0.6-0.6v-7.1c0-0.3,0.3-0.6,0.6-0.6c0.3,0,0.6,0.3,0.6,0.6v7.1
			C170.5-3253.3,170.3-3253,169.9-3253z"/>
		<path class="st4" d="M165.2-3253c-0.3,0-0.6-0.3-0.6-0.6v-7.1c0-0.3,0.3-0.6,0.6-0.6c0.3,0,0.6,0.3,0.6,0.6v7.1
			C165.8-3253.3,165.5-3253,165.2-3253z"/>
		<path class="st4" d="M156.9-3242.3c-0.3,0-0.6-0.3-0.6-0.6v-62.9c0-0.3,0.3-0.6,0.6-0.6s0.6,0.3,0.6,0.6v62.9
			C157.5-3242.6,157.2-3242.3,156.9-3242.3z"/>
		<path class="st4" d="M156.9-3242.3h-51c-0.3,0-0.6-0.3-0.6-0.6s0.3-0.6,0.6-0.6h51c0.3,0,0.6,0.3,0.6,0.6
			S157.2-3242.3,156.9-3242.3z"/>
		<path class="st4" d="M105.8-3242.3c-0.3,0-0.6-0.3-0.6-0.6v-70c0-0.3,0.3-0.6,0.6-0.6c0.3,0,0.6,0.3,0.6,0.6v70
			C106.4-3242.6,106.2-3242.3,105.8-3242.3z"/>
		<path class="st4" d="M149.8-3312.4h-43.9c-0.3,0-0.6-0.3-0.6-0.6s0.3-0.6,0.6-0.6h43.9c0.3,0,0.6,0.3,0.6,0.6
			C150.3-3312.6,150.1-3312.4,149.8-3312.4z"/>
		<path class="st4" d="M156.9-3305.2c-0.2,0-0.3-0.1-0.4-0.2l-7.1-7.1c-0.2-0.2-0.2-0.6,0-0.8c0.2-0.2,0.6-0.2,0.8,0l7.1,7.1
			c0.2,0.2,0.2,0.6,0,0.8C157.2-3305.3,157-3305.2,156.9-3305.2z"/>
		<path class="st4" d="M148.6-3304c-0.3,0-0.6-0.3-0.6-0.6v-5.9c0-0.3,0.3-0.6,0.6-0.6c0.3,0,0.6,0.3,0.6,0.6v5.9
			C149.2-3304.3,148.9-3304,148.6-3304z"/>
		<path class="st4" d="M154.5-3304h-5.9c-0.3,0-0.6-0.3-0.6-0.6s0.3-0.6,0.6-0.6h5.9c0.3,0,0.6,0.3,0.6,0.6S154.8-3304,154.5-3304z"
			/>
		<path class="st4" d="M149.8-3280.3H113c-0.3,0-0.6-0.3-0.6-0.6c0-0.3,0.3-0.6,0.6-0.6h36.8c0.3,0,0.6,0.3,0.6,0.6
			C150.3-3280.6,150.1-3280.3,149.8-3280.3z"/>
		<path class="st4" d="M149.8-3275.5H113c-0.3,0-0.6-0.3-0.6-0.6c0-0.3,0.3-0.6,0.6-0.6h36.8c0.3,0,0.6,0.3,0.6,0.6
			C150.3-3275.8,150.1-3275.5,149.8-3275.5z"/>
		<path class="st4" d="M149.8-3270.8H113c-0.3,0-0.6-0.3-0.6-0.6c0-0.3,0.3-0.6,0.6-0.6h36.8c0.3,0,0.6,0.3,0.6,0.6
			C150.3-3271.1,150.1-3270.8,149.8-3270.8z"/>
		<path class="st4" d="M149.8-3266.1H113c-0.3,0-0.6-0.3-0.6-0.6s0.3-0.6,0.6-0.6h36.8c0.3,0,0.6,0.3,0.6,0.6
			C150.3-3266.3,150.1-3266.1,149.8-3266.1z"/>
		<path class="st4" d="M131.9-3261.3h-19c-0.3,0-0.6-0.3-0.6-0.6c0-0.3,0.3-0.6,0.6-0.6h19c0.3,0,0.6,0.3,0.6,0.6
			C132.5-3261.6,132.3-3261.3,131.9-3261.3z"/>
		<path class="st4" d="M103.5-3239.9c-0.3,0-0.6-0.3-0.6-0.6v-70c0-0.3,0.3-0.6,0.6-0.6c0.3,0,0.6,0.3,0.6,0.6v70
			C104-3240.2,103.8-3239.9,103.5-3239.9z"/>
		<path class="st4" d="M154.5-3239.9h-51c-0.3,0-0.6-0.3-0.6-0.6s0.3-0.6,0.6-0.6h51c0.3,0,0.6,0.3,0.6,0.6
			S154.8-3239.9,154.5-3239.9z"/>
		<path class="st4" d="M152.1-3237.6h-51c-0.3,0-0.6-0.3-0.6-0.6c0-0.3,0.3-0.6,0.6-0.6h51c0.3,0,0.6,0.3,0.6,0.6
			C152.7-3237.8,152.5-3237.6,152.1-3237.6z"/>
		<path class="st4" d="M101.1-3237.6c-0.3,0-0.6-0.3-0.6-0.6v-70c0-0.3,0.3-0.6,0.6-0.6c0.3,0,0.6,0.3,0.6,0.6v70
			C101.7-3237.8,101.4-3237.6,101.1-3237.6z"/>
	</g>
</g>
</svg>
