<?xml version="1.0" encoding="utf-8"?>
<!-- Generator: Adobe Illustrator 19.0.0, SVG Export Plug-In . SVG Version: 6.00 Build 0)  -->
<svg version="1.1" id="Calque_1" xmlns="http://www.w3.org/2000/svg" xmlns:xlink="http://www.w3.org/1999/xlink" x="0px" y="0px"
	 viewBox="360 -290 900 650" style="enable-background:new 360 -290 900 650;" xml:space="preserve">
<style type="text/css">
	.st0{clip-path:url(#SVGID_2_);}
	.st1{fill:#FFFFFF;}
	.st2{fill:#0178B2;}
	.st3{fill:#2F88BC;}
	.st4{fill:#91501C;}
	.st5{fill:#FFAB44;}
	.st6{fill:#B16827;}
	.st7{fill:#C2EEFC;}
	.st8{opacity:0.25;fill:#5D5D5D;}
	.st9{fill:#FBEBBA;}
	.st10{fill:#CABC9C;}
	.st11{fill:#8F8676;}
	.st12{fill:#8C8C8C;}
	.st13{fill:#C1A9A9;}
	.st14{fill:#CDCACA;}
	.st15{fill:#00844A;}
	.st16{fill:#00C147;}
	.st17{fill:#A2E04D;}
	.st18{fill:#357315;}
	.st19{fill:#5ECC2E;}
	.st20{opacity:0.25;}
	.st21{fill:#85361F;}
	.st22{fill:#FF7D43;}
	.st23{fill:#46D1FA;}
	.st24{fill:#E85E3C;}
	.st25{fill:#EFC73E;}
	.st26{fill:#7F714C;}
	.st27{fill:#D85D00;}
	.st28{fill:#FF7B00;}
	.st29{fill:#FFECAB;}
	.st30{fill:#A14407;}
	.st31{fill:#242221;}
	.st32{fill:#5D2E07;}
	.st33{fill:#00A615;}
</style>
<g>
	<defs>
		<rect id="SVGID_1_" x="360" y="-191" width="900" height="551"/>
	</defs>
	<clipPath id="SVGID_2_">
		<use xlink:href="#SVGID_1_"  style="overflow:visible;"/>
	</clipPath>
	<g id="XMLID_640_" class="st0">
		<g id="XMLID_644_">
			<path id="XMLID_648_" class="st1" d="M509.6-49l-1.8-0.8l0.5-1.9c3.2-13.4-4.8-23.8-14.2-28.2c-6.2-2.8-13.1-3.3-19.4-1.2
				c-5.6,1.9-10.5,5.5-14.4,10.9l-1.2,1.7l-1.8-1c-2.9-1.6-6.2-2.5-9.4-2.5c-3,0-5.9,0.7-8.5,2.2c-2.2,1.2-9.2,6-8.6,16.8l0.1,1.9
				l-1.8,0.5c-12.6,3.7-17.6,14.5-17,23.5c0.7,10,8.6,20.8,24.2,20.8c25.6,0,67.8-0.1,68.6-0.1c10.1,0,18.5-7.5,20.1-17.8
				C526.3-32.4,522.9-43.2,509.6-49z"/>
			<path id="XMLID_645_" class="st1" d="M513.3-52.5c2.6-15.1-6.9-26.9-17.2-31.7c-7.3-3.4-15.4-3.8-22.9-1.4
				c-5.9,2-11.2,5.8-15.5,11c-6.7-3-14.5-2.8-20.7,0.6c-6.9,3.8-11,11-11.1,19.4c-13.9,4.9-19.4,17.4-18.6,27.8
				c0.9,12.1,10.3,25.2,29,25.2c25.6,0,67.8-0.1,68.6-0.1c12.4,0,22.8-9.2,24.8-21.9C531.1-32.6,527.6-45.4,513.3-52.5z M525-24.3
				C523.4-14,515-6.5,504.9-6.5c-0.8,0-43,0.1-68.6,0.1c-15.6,0-23.5-10.8-24.2-20.8c-0.7-9,4.3-19.8,17-23.5l1.8-0.5l-0.1-1.9
				c-0.6-10.8,6.5-15.6,8.6-16.8c2.6-1.4,5.5-2.2,8.5-2.2c3.2,0,6.5,0.9,9.4,2.5l1.8,1l1.2-1.7c3.9-5.4,8.7-9,14.4-10.9
				c6.3-2.1,13.3-1.7,19.4,1.2c9.4,4.3,17.4,14.7,14.2,28.2l-0.5,1.9l1.8,0.8C522.9-43.2,526.3-32.4,525-24.3z"/>
		</g>
		<path id="XMLID_641_" class="st1" d="M447.8-72c-3,0-5.9,0.7-8.5,2.2c-2.2,1.2-9.2,6-8.6,16.8l0.1,1.9l-1.8,0.5
			c-12.6,3.7-17.6,14.5-17,23.5c0.7,10,8.6,20.8,24.2,20.8c25.6,0,67.8-0.1,68.6-0.1c10.1,0,18.5-7.5,20.1-17.8
			c1.3-8.1-2.1-18.9-15.4-24.7l-1.8-0.8l0.5-1.9c3.2-13.4-4.8-23.8-14.2-28.2c-6.2-2.8-13.1-3.3-19.4-1.2
			c-5.6,1.9-10.5,5.5-14.4,10.9l-1.2,1.7l-1.8-1C454.3-71.1,451.1-72,447.8-72z"/>
	</g>
	<g id="XMLID_631_" class="st0">
		<g id="XMLID_635_">
			<path id="XMLID_639_" class="st1" d="M856.6-129.8l-1.8-0.8l0.5-1.9c3.2-13.4-4.8-23.8-14.2-28.2c-6.2-2.8-13.1-3.3-19.4-1.2
				c-5.6,1.9-10.5,5.5-14.4,10.9l-1.2,1.7l-1.8-1c-2.9-1.6-6.2-2.5-9.4-2.5c-3,0-5.9,0.7-8.5,2.2c-2.2,1.2-9.2,6-8.6,16.8l0.1,1.9
				l-1.8,0.5c-12.6,3.7-17.6,14.5-17,23.5c0.7,10,8.6,20.8,24.2,20.8c25.6,0,67.8-0.1,68.6-0.1c10.1,0,18.5-7.5,20.1-17.8
				C873.2-113.2,869.8-124,856.6-129.8z"/>
			<path id="XMLID_636_" class="st1" d="M860.2-133.3c2.6-15.1-6.9-26.9-17.2-31.7c-7.3-3.4-15.4-3.8-22.9-1.4
				c-5.9,2-11.2,5.8-15.5,11c-6.7-3-14.5-2.8-20.7,0.6c-6.9,3.8-11,11-11.1,19.4c-13.9,4.9-19.4,17.4-18.6,27.8
				c0.9,12.1,10.3,25.2,29,25.2c25.6,0,67.8-0.1,68.6-0.1c12.4,0,22.8-9.2,24.8-21.9C878-113.4,874.5-126.2,860.2-133.3z M872-105.1
				c-1.6,10.3-10,17.8-20.1,17.8c-0.8,0-43,0.1-68.6,0.1c-15.6,0-23.5-10.8-24.2-20.8c-0.7-9,4.3-19.8,17-23.5l1.8-0.5l-0.1-1.9
				c-0.6-10.8,6.5-15.6,8.6-16.8c2.6-1.4,5.5-2.2,8.5-2.2c3.2,0,6.5,0.9,9.4,2.5l1.8,1l1.2-1.7c3.9-5.4,8.7-9,14.4-10.9
				c6.3-2.1,13.3-1.7,19.4,1.2c9.4,4.3,17.4,14.7,14.2,28.2l-0.5,1.9l1.8,0.8C869.8-124,873.2-113.2,872-105.1z"/>
		</g>
		<path id="XMLID_632_" class="st1" d="M794.8-152.8c-3,0-5.9,0.7-8.5,2.2c-2.2,1.2-9.2,6-8.6,16.8l0.1,1.9l-1.8,0.5
			c-12.6,3.7-17.6,14.5-17,23.5c0.7,10,8.6,20.8,24.2,20.8c25.6,0,67.8-0.1,68.6-0.1c10.1,0,18.5-7.5,20.1-17.8
			c1.3-8.1-2.1-18.9-15.4-24.7l-1.8-0.8l0.5-1.9c3.2-13.4-4.8-23.8-14.2-28.2c-6.2-2.8-13.1-3.3-19.4-1.2
			c-5.6,1.9-10.5,5.5-14.4,10.9l-1.2,1.7l-1.8-1C801.3-151.9,798-152.8,794.8-152.8z"/>
	</g>
	<g id="XMLID_622_" class="st0">
		<g id="XMLID_626_">
			<path id="XMLID_630_" class="st1" d="M954.4,19.5l1.8-0.8l-0.5-1.9c-3.2-13.4,4.8-23.8,14.2-28.2c6.2-2.8,13.1-3.3,19.4-1.2
				c5.6,1.9,10.5,5.5,14.4,10.9l1.2,1.7l1.8-1c2.9-1.6,6.2-2.5,9.4-2.5c3,0,5.9,0.7,8.5,2.2c2.2,1.2,9.2,6,8.6,16.8l-0.1,1.9
				l1.8,0.5c12.6,3.7,17.6,14.5,17,23.5c-0.7,10-8.6,20.8-24.2,20.8c-25.6,0-67.8-0.1-68.6-0.1c-10.1,0-18.5-7.5-20.1-17.8
				C937.8,36.1,941.2,25.3,954.4,19.5z"/>
			<path id="XMLID_627_" class="st1" d="M934.4,44.9c1.9,12.7,12.4,21.9,24.8,21.9c0.8,0,43,0.1,68.6,0.1c18.6,0,28.1-13.1,29-25.2
				c0.8-10.5-4.7-22.9-18.6-27.8c-0.1-8.4-4.2-15.5-11.1-19.4c-6.2-3.4-14-3.6-20.7-0.6c-4.3-5.3-9.6-9-15.5-11
				c-7.5-2.5-15.6-2-22.9,1.4c-10.3,4.8-19.8,16.6-17.2,31.7C936.5,23.1,933,35.9,934.4,44.9z M954.4,19.5l1.8-0.8l-0.5-1.9
				c-3.2-13.4,4.8-23.8,14.2-28.2c6.2-2.8,13.1-3.3,19.4-1.2c5.6,1.9,10.5,5.5,14.4,10.9l1.2,1.7l1.8-1c2.9-1.6,6.2-2.5,9.4-2.5
				c3,0,5.9,0.7,8.5,2.2c2.2,1.2,9.2,6,8.6,16.8l-0.1,1.9l1.8,0.5c12.6,3.7,17.6,14.5,17,23.5c-0.7,10-8.6,20.8-24.2,20.8
				c-25.6,0-67.8-0.1-68.6-0.1c-10.1,0-18.5-7.5-20.1-17.8C937.8,36.1,941.2,25.3,954.4,19.5z"/>
		</g>
		<path id="XMLID_623_" class="st1" d="M1006.8-1l-1.8,1l-1.2-1.7c-3.9-5.4-8.7-9-14.4-10.9c-6.3-2.1-13.3-1.7-19.4,1.2
			c-9.4,4.3-17.4,14.7-14.2,28.2l0.5,1.9l-1.8,0.8c-13.2,5.8-16.6,16.6-15.4,24.7c1.6,10.3,10,17.8,20.1,17.8c0.8,0,43,0.1,68.6,0.1
			c15.6,0,23.5-10.8,24.2-20.8c0.7-9-4.3-19.8-17-23.5l-1.8-0.5l0.1-1.9c0.6-10.8-6.5-15.6-8.6-16.8c-2.6-1.4-5.5-2.2-8.5-2.2
			C1013-3.5,1009.7-2.6,1006.8-1z"/>
	</g>
	<g class="st0">
		<g>
			<rect x="360" y="60.7" class="st2" width="87.4" height="273.2"/>
			<rect x="1172.6" y="60.7" class="st2" width="87.4" height="273.2"/>
			<rect x="598.6" y="90.3" class="st2" width="87.4" height="243.6"/>
			<rect x="830.3" y="152.2" class="st2" width="163" height="181.7"/>
			<rect x="1011.1" y="207" class="st2" width="138.3" height="126.9"/>
			<rect x="1065.6" y="163.5" class="st2" width="77.7" height="115.9"/>
			<polygon class="st2" points="800.1,331.4 712.8,331.4 713.8,-45.3 800.1,17.9 			"/>
			<rect x="416.3" y="181.5" class="st2" width="87.4" height="152.4"/>
			<rect x="546.9" y="213.4" class="st3" width="87.4" height="120.5"/>
			<rect x="764.9" y="213.4" class="st2" width="87.4" height="120.5"/>
			<rect x="967.4" y="280.5" class="st2" width="87.4" height="53.4"/>
			<rect x="1113.1" y="240.4" class="st2" width="87.4" height="93.6"/>
			<rect x="675.8" y="171.3" class="st2" width="87.4" height="162.6"/>
			<polygon class="st2" points="572.2,333.9 484.9,333.9 484.9,-20.9 528.6,-70.9 572.2,-20.9 			"/>
			<rect x="481.1" y="-20.3" class="st2" width="94.5" height="6.8"/>
			<rect x="481.1" y="16.5" class="st2" width="94.5" height="6.8"/>
			<rect x="481.1" y="53.2" class="st2" width="94.5" height="6.8"/>
			<rect x="481.1" y="90" class="st2" width="94.5" height="6.8"/>
			<rect x="595" y="89" class="st2" width="94.5" height="7.6"/>
			<rect x="826" y="148.4" class="st2" width="174.1" height="7.6"/>
			<rect x="1059.4" y="163.1" class="st2" width="87.8" height="7.6"/>
			<rect x="1109.2" y="136.3" class="st3" width="33.2" height="7.6"/>
			<rect x="1113.1" y="140.1" class="st2" width="25.7" height="28.4"/>
			<rect x="1221" y="-0.1" class="st2" width="33.2" height="7.6"/>
			<rect x="1224.9" y="3.7" class="st2" width="25.7" height="61.9"/>
			<rect x="1221" y="44.4" class="st2" width="6.6" height="16.3"/>
			<rect x="1245.2" y="44.4" class="st2" width="6.6" height="16.3"/>
			<rect x="481.1" y="126.7" class="st2" width="94.5" height="6.8"/>
			<rect x="481.1" y="163.5" class="st2" width="94.5" height="6.8"/>
			<rect x="481.1" y="200.2" class="st2" width="94.5" height="6.8"/>
			<rect x="481.1" y="237" class="st2" width="94.5" height="6.8"/>
			<rect x="481.1" y="273.7" class="st2" width="94.5" height="6.8"/>
			<rect x="481.1" y="310.5" class="st3" width="94.5" height="6.8"/>
			<rect x="546.9" y="-60.4" class="st2" width="14.6" height="27.2"/>
			<rect x="768.8" y="-13.5" class="st2" width="14.6" height="27.2"/>
		</g>
		<rect x="360" y="310.5" class="st2" width="900" height="49.5"/>
		<path class="st1" d="M1167.8-274.3"/>
		<g>
			<g>
				<polygon class="st4" points="980.6,174.3 880.9,174.3 980.6,122.3 				"/>
				<rect x="897.2" y="118.2" class="st4" width="38.7" height="48.6"/>
				<rect x="843.6" y="175.4" class="st5" width="145.8" height="184.6"/>
				<rect x="837.8" y="173.8" class="st6" width="157.4" height="13.2"/>
				<rect x="837.8" y="224.8" class="st6" width="157.4" height="13.2"/>
				<rect x="837.8" y="275.8" class="st6" width="157.4" height="13.2"/>
				<g>
					<rect x="853.6" y="299.5" class="st7" width="56.4" height="60.8"/>
					<rect x="851" y="296.8" class="st6" width="4.1" height="63.4"/>
					<rect x="909.1" y="296.8" class="st6" width="4.1" height="63.4"/>
					<rect x="880.8" y="296.8" class="st6" width="2.1" height="63.4"/>
					<rect x="851" y="296.1" class="st6" width="62.2" height="4.5"/>
				</g>
				<g>
					<rect x="854.1" y="245.1" class="st7" width="22.5" height="24.2"/>
					<rect x="853.1" y="244" class="st6" width="1.6" height="25.3"/>
					<rect x="876.2" y="244" class="st6" width="1.6" height="25.3"/>
					<rect x="864.9" y="244" class="st6" width="0.8" height="25.3"/>
					<rect x="853.1" y="243.7" class="st6" width="24.8" height="1.8"/>
					<rect x="853.1" y="267.6" class="st6" width="24.8" height="1.8"/>
				</g>
				<g>
					<rect x="888.8" y="245.1" class="st7" width="22.5" height="24.2"/>
					<rect x="887.8" y="244" class="st6" width="1.6" height="25.3"/>
					<rect x="910.9" y="244" class="st6" width="1.6" height="25.3"/>
					<rect x="899.6" y="244" class="st6" width="0.8" height="25.3"/>
					<rect x="887.8" y="243.7" class="st6" width="24.8" height="1.8"/>
					<rect x="887.8" y="267.6" class="st6" width="24.8" height="1.8"/>
				</g>
				<g>
					<rect x="919.6" y="245.1" class="st7" width="22.5" height="24.2"/>
					<rect x="918.5" y="244" class="st6" width="1.6" height="25.3"/>
					<rect x="941.7" y="244" class="st6" width="1.6" height="25.3"/>
					<rect x="930.4" y="244" class="st6" width="0.8" height="25.3"/>
					<rect x="918.5" y="243.7" class="st6" width="24.8" height="1.8"/>
					<rect x="918.5" y="267.6" class="st6" width="24.8" height="1.8"/>
				</g>
				<g>
					<rect x="954.4" y="245.1" class="st7" width="22.5" height="24.2"/>
					<rect x="953.4" y="244" class="st6" width="1.6" height="25.3"/>
					<rect x="976.5" y="244" class="st6" width="1.6" height="25.3"/>
					<rect x="965.2" y="244" class="st6" width="0.8" height="25.3"/>
					<rect x="953.4" y="243.7" class="st6" width="24.8" height="1.8"/>
					<rect x="953.4" y="267.6" class="st6" width="24.8" height="1.8"/>
				</g>
				<g>
					<rect x="921" y="299.5" class="st7" width="56.4" height="60.8"/>
					<rect x="918.5" y="296.8" class="st6" width="4.1" height="63.4"/>
					<rect x="976.6" y="296.8" class="st6" width="4.1" height="63.4"/>
					<rect x="948.2" y="296.8" class="st6" width="2.1" height="63.4"/>
					<rect x="918.5" y="296.1" class="st6" width="62.2" height="4.5"/>
				</g>
				<rect x="843.6" y="192.6" class="st7" width="145.8" height="26.4"/>
				<rect x="842.6" y="189.5" class="st6" width="146.8" height="4.6"/>
				<rect x="842.6" y="215.6" class="st6" width="146.8" height="4.6"/>
				<rect x="849.1" y="192.3" class="st6" width="2" height="24.8"/>
				<rect x="875.2" y="192.3" class="st6" width="2" height="24.8"/>
				<rect x="901.4" y="192.3" class="st6" width="2" height="24.8"/>
				<rect x="927.6" y="192.3" class="st6" width="2" height="24.8"/>
				<rect x="953.8" y="192.3" class="st6" width="2" height="24.8"/>
				<rect x="980" y="192.3" class="st6" width="2" height="24.8"/>
			</g>
			<polygon class="st8" points="921,360.3 922.6,360.3 948.2,360.3 950.3,360.3 976.6,360.3 977.5,360.3 980.7,360.3 980.7,360 
				989.4,360 989.4,289 995.2,289 995.2,275.8 989.4,275.8 989.4,238 995.2,238 995.2,224.8 989.4,224.8 989.4,220.2 989.4,219 
				989.4,215.6 989.4,194.1 989.4,192.6 989.4,189.5 989.4,186.9 995.2,186.9 995.2,173.8 980.6,173.8 980.6,122.3 935.9,145.6 
				935.9,118.2 916.5,118.2 916.5,360 918.5,360 918.5,360.3 			"/>
		</g>
		<g>
			<g>
				<rect x="515.1" y="349.5" class="st9" width="185.3" height="10.8"/>
				<rect x="522.9" y="241.7" class="st9" width="171.7" height="118.6"/>
				<rect x="572" y="152.7" class="st9" width="68.9" height="73.7"/>
				<circle class="st9" cx="606.4" cy="152.7" r="34.4"/>
				<ellipse class="st9" cx="608.7" cy="241.3" rx="85.9" ry="20.8"/>
				<polygon class="st9" points="595.7,122.3 606.4,53.2 617.2,122.3 				"/>
				<rect x="566.5" y="152.9" class="st10" width="80.1" height="8.8"/>
				<rect x="566.5" y="159.1" class="st11" width="80.1" height="2.6"/>
				<rect x="570.8" y="143.6" class="st10" width="71.9" height="2.5"/>
				<rect x="576.4" y="131.3" class="st10" width="61.1" height="2.5"/>
				<rect x="588.5" y="119.8" class="st10" width="36.9" height="2.4"/>
				<rect x="566.5" y="213.5" class="st10" width="80.1" height="8.8"/>
				<rect x="521" y="239.4" class="st10" width="174.7" height="8.8"/>
				<rect x="521" y="249.6" class="st10" width="174.7" height="4.4"/>
				<rect x="576.4" y="157.4" class="st10" width="8.6" height="61.6"/>
				<rect x="528" y="241.3" class="st10" width="8.6" height="42.6"/>
				<rect x="553.1" y="241.3" class="st10" width="8.6" height="42.6"/>
				<rect x="578.2" y="241.3" class="st10" width="8.6" height="42.6"/>
				<rect x="603.2" y="241.3" class="st10" width="8.6" height="42.6"/>
				<rect x="628.3" y="241.3" class="st10" width="8.6" height="42.6"/>
				<rect x="653.4" y="241.3" class="st10" width="8.6" height="42.6"/>
				<rect x="678.4" y="241.3" class="st10" width="8.6" height="42.6"/>
				<rect x="593.6" y="157.4" class="st10" width="8.6" height="61.6"/>
				<rect x="610.9" y="157.4" class="st10" width="8.6" height="61.6"/>
				<rect x="628.1" y="157.4" class="st10" width="8.6" height="61.6"/>
				<path class="st10" d="M595,121.1c0,0-9.8,11.9-11.3,31.9h3.3c0,0,1.3-17.5,9.8-31.9H595z"/>
				<path class="st10" d="M616.8,121.1c0,0,9.8,11.9,11.3,31.9h-3.3c0,0-1.3-17.5-9.8-31.9H616.8z"/>
				<rect x="604.3" y="121.4" class="st10" width="2.3" height="31.5"/>
				<rect x="566.5" y="220.5" class="st11" width="80.1" height="2.6"/>
				<rect x="521" y="245.4" class="st11" width="174.7" height="2.8"/>
				<rect x="521" y="279.7" class="st10" width="174.7" height="8.8"/>
				<g>
					<rect x="532.3" y="287.7" class="st10" width="17.5" height="72.5"/>
					<polygon class="st10" points="528,288.5 532.3,295 549.8,295 554,288.4 					"/>
					<polygon class="st10" points="554,360.2 549.7,353.7 532.2,353.7 528,360.3 					"/>
					<path class="st11" d="M537.5,352.7c0,0.6-0.5,1.1-1.1,1.1l0,0c-0.6,0-1.1-0.5-1.1-1.1V297c0-0.6,0.5-1.1,1.1-1.1l0,0
						c0.6,0,1.1,0.5,1.1,1.1V352.7z"/>
					<path class="st11" d="M545.5,352.7c0,0.6-0.5,1.1-1.1,1.1l0,0c-0.6,0-1.1-0.5-1.1-1.1V297c0-0.6,0.5-1.1,1.1-1.1l0,0
						c0.6,0,1.1,0.5,1.1,1.1V352.7z"/>
				</g>
				<g>
					<rect x="565" y="287.7" class="st10" width="17.5" height="72.5"/>
					<polygon class="st10" points="560.7,288.5 565,295 582.5,295 586.6,288.4 					"/>
					<polygon class="st10" points="586.6,360.2 582.3,353.7 564.8,353.7 560.7,360.3 					"/>
					<path class="st11" d="M570.2,352.7c0,0.6-0.5,1.1-1.1,1.1l0,0c-0.6,0-1.1-0.5-1.1-1.1V297c0-0.6,0.5-1.1,1.1-1.1l0,0
						c0.6,0,1.1,0.5,1.1,1.1V352.7z"/>
					<path class="st11" d="M578.2,352.7c0,0.6-0.5,1.1-1.1,1.1l0,0c-0.6,0-1.1-0.5-1.1-1.1V297c0-0.6,0.5-1.1,1.1-1.1l0,0
						c0.6,0,1.1,0.5,1.1,1.1V352.7z"/>
				</g>
				<g>
					<rect x="634.1" y="287.7" class="st10" width="17.5" height="72.5"/>
					<polygon class="st10" points="629.8,288.5 634.1,295 651.6,295 655.8,288.4 					"/>
					<polygon class="st10" points="655.8,360.2 651.5,353.7 634,353.7 629.8,360.3 					"/>
					<path class="st11" d="M639.3,352.7c0,0.6-0.5,1.1-1.1,1.1l0,0c-0.6,0-1.1-0.5-1.1-1.1V297c0-0.6,0.5-1.1,1.1-1.1l0,0
						c0.6,0,1.1,0.5,1.1,1.1V352.7z"/>
					<path class="st11" d="M647.4,352.7c0,0.6-0.5,1.1-1.1,1.1l0,0c-0.6,0-1.1-0.5-1.1-1.1V297c0-0.6,0.5-1.1,1.1-1.1l0,0
						c0.6,0,1.1,0.5,1.1,1.1V352.7z"/>
				</g>
				<g>
					<rect x="666.8" y="287.7" class="st10" width="17.5" height="72.5"/>
					<polygon class="st10" points="662.5,288.5 666.8,295 684.3,295 688.4,288.4 					"/>
					<polygon class="st10" points="688.4,360.2 684.1,353.7 666.7,353.7 662.5,360.3 					"/>
					<path class="st11" d="M672,352.7c0,0.6-0.5,1.1-1.1,1.1l0,0c-0.6,0-1.1-0.5-1.1-1.1V297c0-0.6,0.5-1.1,1.1-1.1l0,0
						c0.6,0,1.1,0.5,1.1,1.1V352.7z"/>
					<path class="st11" d="M680,352.7c0,0.6-0.5,1.1-1.1,1.1l0,0c-0.6,0-1.1-0.5-1.1-1.1V297c0-0.6,0.5-1.1,1.1-1.1l0,0
						c0.6,0,1.1,0.5,1.1,1.1V352.7z"/>
				</g>
				<rect x="521" y="285.7" class="st11" width="174.7" height="2.8"/>
				<rect x="588.8" y="353.7" class="st10" width="39.3" height="6.5"/>
				<rect x="597.1" y="350" class="st10" width="22.8" height="3.8"/>
				<rect x="601.1" y="346.4" class="st10" width="14.8" height="3.6"/>
				<polygon class="st10" points="613.8,346.4 602.9,346.4 602.9,306.9 608.3,302.2 613.8,306.9 				"/>
			</g>
			<path class="st8" d="M607.2,360.3h20.9h6h17.5h15.2h17.5h10.3h5.8v-10.8h-5.8v-61h1.1v-2.8v-6h-1.1V254h1.1v-4.4h-1.1v-1.4h1.1
				v-2.8v-6h-1.5c-2.8-7.4-21.4-13.6-47.6-16.7v-0.4v-1.8v-7h-5.7v-51.8h5.7v-2.6v-6.2h-5.7c0-0.1,0-0.2,0-0.3
				c0-2.3-0.2-4.5-0.6-6.6h2.4v-2.5h-3c-1-3.5-2.5-6.8-4.4-9.8h2.3v-2.5h-4.1c-2.9-3.7-6.6-6.8-10.8-9h2.7v-2.4h-8.5
				c0,0-0.1,0-0.1,0l-9.6-61.7V360.3z"/>
			<circle class="st10" cx="606.4" cy="54" r="2.6"/>
		</g>
		<rect x="360" y="381.5" class="st12" width="900" height="129.6"/>
		<rect x="360" y="388.7" class="st1" width="900" height="6.4"/>
		<rect x="360" y="450.6" class="st1" width="900" height="6.4"/>
		<rect x="387.4" y="418.1" class="st1" width="22.7" height="3.8"/>
		<rect x="463.9" y="418.1" class="st1" width="22.7" height="3.8"/>
		<rect x="540.4" y="418.1" class="st1" width="22.7" height="3.8"/>
		<rect x="616.9" y="418.1" class="st1" width="22.7" height="3.8"/>
		<rect x="693.4" y="418.1" class="st1" width="22.7" height="3.8"/>
		<rect x="770" y="418.1" class="st1" width="22.7" height="3.8"/>
		<rect x="846.5" y="418.1" class="st1" width="22.7" height="3.8"/>
		<rect x="923" y="418.1" class="st1" width="22.7" height="3.8"/>
		<rect x="999.5" y="418.1" class="st1" width="22.7" height="3.8"/>
		<rect x="1076" y="418.1" class="st1" width="22.7" height="3.8"/>
		<rect x="1152.5" y="418.1" class="st1" width="22.7" height="3.8"/>
		<rect x="1229" y="418.1" class="st1" width="22.7" height="3.8"/>
		<rect x="360" y="375.1" class="st13" width="900" height="6.4"/>
		<rect x="360" y="360" class="st14" width="900" height="15.1"/>
		<rect x="360" y="461.7" class="st14" width="900" height="15.1"/>
		<rect x="360" y="476.8" class="st15" width="900" height="34.3"/>
		<rect x="360" y="485.1" class="st16" width="900" height="60.3"/>
		<g>
			<rect x="1018.2" y="293.6" class="st17" width="105.2" height="66.4"/>
			<polygon class="st18" points="1123.5,267.2 1072.8,267.2 1067.5,267.2 1016.9,267.2 1004.3,298.2 1067.5,298.2 1072.8,298.2 
				1136.1,298.2 			"/>
			<rect x="1004.3" y="289" class="st19" width="131.8" height="9.3"/>
			<rect x="1092.5" y="308.6" class="st18" width="25.1" height="51.4"/>
			<circle class="st17" cx="1113.2" cy="333.9" r="3"/>
			<rect x="1023.6" y="308.6" class="st7" width="64" height="42.4"/>
			<rect x="1023.6" y="346.6" class="st19" width="64" height="4.4"/>
			<ellipse class="st19" cx="1010.8" cy="298.3" rx="6.6" ry="6.4"/>
			<ellipse class="st19" cx="1024.1" cy="298.3" rx="6.6" ry="6.4"/>
			<ellipse class="st19" cx="1037.4" cy="298.3" rx="6.6" ry="6.4"/>
			<ellipse class="st19" cx="1050.5" cy="298.3" rx="6.6" ry="6.4"/>
			<ellipse class="st19" cx="1063.4" cy="298.3" rx="6.6" ry="6.4"/>
			<ellipse class="st19" cx="1076.4" cy="298.3" rx="6.6" ry="6.4"/>
			<ellipse class="st19" cx="1090" cy="298.3" rx="6.6" ry="6.4"/>
			<ellipse class="st19" cx="1103" cy="298.3" rx="6.6" ry="6.4"/>
			<ellipse class="st19" cx="1116.2" cy="298.3" rx="6.6" ry="6.4"/>
			<ellipse class="st19" cx="1129.5" cy="298.3" rx="6.6" ry="6.4"/>
			<rect x="1017.4" y="237" class="st19" width="105.4" height="22.9"/>
			<polygon class="st18" points="1025,237 1034.5,217.1 1041.3,217.1 1045.4,224.8 1039.2,224.8 1037.4,220.5 1029.1,237 			"/>
			<polygon class="st18" points="1059.9,237 1069.4,217.1 1076.2,217.1 1080.3,224.8 1074.1,224.8 1072.3,220.5 1064,237 			"/>
			<polygon class="st18" points="1094.8,237 1104.3,217.1 1111.1,217.1 1115.2,224.8 1109,224.8 1107.2,220.5 1098.9,237 			"/>
			<rect x="1039.6" y="259.9" class="st18" width="5.8" height="7.3"/>
			<rect x="1094.8" y="259.9" class="st18" width="5.8" height="7.3"/>
			<g class="st20">
				<path class="st21" d="M1123.5,267.2h-22.9v-7.3h22.2V237h-23.9l8.3-16.5l1.8,4.3h6.2l-4.1-7.7h-6.8l-9.6,19.9h-23.9v22.9h23.9
					v7.3h-22h-2V360h21.6h25.1h5.9v-59.4c1,2.4,3.3,4,6.1,4c3.6,0,6.6-2.9,6.6-6.4V289h-3.7L1123.5,267.2z"/>
				<polygon class="st21" points="1080.3,224.8 1076.2,217.1 1070.8,217.1 1070.8,223.4 1072.3,220.5 1074.1,224.8 				"/>
			</g>
		</g>
		<g>
			<rect x="800.8" y="199.5" class="st21" width="13.7" height="10.9"/>
			<rect x="798.8" y="194.1" class="st21" width="17.6" height="5.5"/>
			<rect x="713" y="237" class="st22" width="105.2" height="123.3"/>
			<polygon class="st21" points="818.2,210.5 767.6,210.5 762.3,210.5 711.6,210.5 699,241.6 762.3,241.6 767.6,241.6 830.8,241.6 
							"/>
			<rect x="702.6" y="290.3" class="st21" width="126" height="9.3"/>
			<g>
				<circle class="st21" cx="730.2" cy="264.1" r="13.6"/>
				<circle class="st23" cx="730.2" cy="264.1" r="10.6"/>
				<rect x="728.9" y="252.6" class="st21" width="2.6" height="22.9"/>
				<rect x="718.8" y="262.8" class="st21" width="22.9" height="2.6"/>
			</g>
			<g>
				<circle class="st21" cx="765.1" cy="264.1" r="13.6"/>
				<circle class="st23" cx="765.1" cy="264.1" r="10.6"/>
				<rect x="763.8" y="252.6" class="st21" width="2.6" height="22.9"/>
				<rect x="753.7" y="262.8" class="st21" width="22.9" height="2.6"/>
			</g>
			<g>
				<circle class="st21" cx="800.1" cy="264.1" r="13.6"/>
				<circle class="st23" cx="800.1" cy="264.1" r="10.6"/>
				<rect x="798.8" y="252.6" class="st21" width="2.6" height="22.9"/>
				<rect x="788.6" y="262.8" class="st21" width="22.9" height="2.6"/>
			</g>
			<rect x="699" y="232.3" class="st24" width="131.8" height="9.3"/>
			<g>
				<rect x="718.7" y="308.6" class="st9" width="56.9" height="37.9"/>
				<rect x="722.7" y="312.4" class="st23" width="49" height="30.5"/>
				<rect x="745.2" y="308.6" class="st9" width="4.2" height="36.8"/>
			</g>
			<rect x="783.3" y="310.5" class="st21" width="25.1" height="49.5"/>
			<circle class="st22" cx="803.2" cy="333.9" r="3"/>
			<polygon class="st8" points="818.2,210.5 814.5,210.5 814.5,199.5 816.4,199.5 816.4,194.1 798.8,194.1 798.8,199.5 800.8,199.5 
				800.8,210.5 767.6,210.5 763.8,210.5 763.8,360.3 818.2,360.3 818.2,299.5 828.6,299.5 828.6,290.3 818.2,290.3 818.2,241.6 
				830.8,241.6 830.8,232.3 827.1,232.3 			"/>
		</g>
		<g>
			<rect x="378.8" y="294.9" class="st25" width="121.5" height="65.3"/>
			<rect x="398.3" y="245.9" class="st25" width="82.6" height="44.4"/>
			<rect x="376.4" y="290.3" class="st9" width="126" height="9.3"/>
			<rect x="377.6" y="355.9" class="st9" width="46.1" height="4.3"/>
			<rect x="454" y="355.9" class="st9" width="47.5" height="4.3"/>
			<rect x="394.3" y="237" class="st9" width="90.3" height="9.3"/>
			<g>
				<rect x="403.3" y="255" class="st9" width="28.1" height="18.7"/>
				<rect x="405.2" y="256.8" class="st23" width="24.2" height="15.1"/>
				<rect x="416.4" y="255" class="st9" width="2.1" height="18.2"/>
			</g>
			<g>
				<rect x="384.3" y="311.6" class="st9" width="38.1" height="25.4"/>
				<rect x="386.9" y="314.1" class="st23" width="32.8" height="20.4"/>
				<rect x="402.1" y="311.6" class="st9" width="2.8" height="24.6"/>
			</g>
			<g>
				<rect x="455" y="311.6" class="st9" width="38.1" height="25.4"/>
				<rect x="457.7" y="314.1" class="st23" width="32.8" height="20.4"/>
				<rect x="472.8" y="311.6" class="st9" width="2.8" height="24.6"/>
			</g>
			<g>
				<rect x="447.9" y="255" class="st9" width="28.1" height="18.7"/>
				<rect x="449.9" y="256.8" class="st23" width="24.2" height="15.1"/>
				<rect x="461" y="255" class="st9" width="2.1" height="18.2"/>
			</g>
			<path class="st9" d="M450.5,360.3h-22.2v-31.7c0-6.1,5-11.1,11.1-11.1l0,0c6.1,0,11.1,5,11.1,11.1V360.3z"/>
			<circle class="st26" cx="446.8" cy="339.6" r="2.4"/>
			<rect x="463.1" y="226" class="st9" width="13.7" height="10.9"/>
			<rect x="461" y="220.6" class="st9" width="17.6" height="5.5"/>
			<polygon class="st8" points="480.8,246.2 484.5,246.2 484.5,237 476.7,237 476.7,226 478.6,226 478.6,220.6 461,220.6 461,226 
				463.1,226 463.1,237 439.5,237 439.5,360.3 450.5,360.3 454,360.3 500.3,360.3 501.6,360.3 501.6,355.9 500.3,355.9 500.3,299.5 
				502.4,299.5 502.4,290.3 480.8,290.3 			"/>
		</g>
		<g>
			<rect x="1222.2" y="351.8" class="st27" width="13.1" height="6.8"/>
			<g>
				<polygon class="st27" points="1139.6,119.4 1139.6,111 1238.9,111 1238.9,119.4 				"/>
				<polygon class="st27" points="1144,117.3 1151.9,117.3 1151.9,146.3 1144,146.3 				"/>
				<polygon class="st27" points="1164.6,117.3 1172.6,117.3 1172.6,146.3 1164.7,146.3 				"/>
				<polygon class="st27" points="1185.3,117.3 1193.2,117.3 1193.2,146.3 1185.3,146.3 				"/>
				<polygon class="st27" points="1205.9,117.3 1213.8,117.3 1213.8,146.3 1205.9,146.3 				"/>
				<polygon class="st27" points="1226.5,117.3 1234.4,117.3 1234.4,146.3 1226.5,146.3 				"/>
				<polygon class="st28" points="1143.1,360.3 1143.1,143.9 1235.4,143.9 1235.4,360 				"/>
				<polygon class="st29" points="1139.6,147 1139.6,139.1 1238.9,139.1 1238.9,147 				"/>
				<polygon class="st29" points="1139.6,221.1 1139.6,213.2 1238.9,213.2 1238.9,221.1 				"/>
				<polygon class="st29" points="1139.6,295.1 1139.6,287.2 1238.9,287.2 1238.9,295.1 				"/>
				<rect x="1143.1" y="166.9" class="st27" width="13.1" height="6.8"/>
				<rect x="1149.7" y="173.6" class="st27" width="13.1" height="6.8"/>
				<rect x="1215.7" y="197.6" class="st27" width="13.1" height="6.8"/>
				<rect x="1222.2" y="204.4" class="st27" width="13.1" height="6.8"/>
				<rect x="1143.1" y="240.5" class="st27" width="13.1" height="6.8"/>
				<rect x="1149.7" y="247.3" class="st27" width="13.1" height="6.8"/>
				<rect x="1215.7" y="271.3" class="st27" width="13.1" height="6.8"/>
				<rect x="1222.2" y="278.1" class="st27" width="13.1" height="6.8"/>
				<rect x="1143.1" y="314.2" class="st27" width="13.1" height="6.8"/>
				<rect x="1149.7" y="321" class="st27" width="13.1" height="6.8"/>
				<rect x="1215.7" y="345" class="st27" width="13.1" height="6.8"/>
				<g>
					<rect x="1149" y="155.6" class="st9" width="23.6" height="35.4"/>
					<rect x="1151.3" y="158.1" class="st23" width="19" height="30.5"/>
					<rect x="1149.7" y="172.2" class="st9" width="22.9" height="2.6"/>
				</g>
				<g>
					<rect x="1177.3" y="155.6" class="st9" width="23.6" height="35.4"/>
					<rect x="1179.6" y="158.1" class="st23" width="19" height="30.5"/>
					<rect x="1177.9" y="172.2" class="st9" width="22.9" height="2.6"/>
				</g>
				<g>
					<rect x="1205.5" y="155.6" class="st9" width="23.6" height="35.4"/>
					<rect x="1207.8" y="158.1" class="st23" width="19" height="30.5"/>
					<rect x="1206.2" y="172.2" class="st9" width="22.9" height="2.6"/>
				</g>
				<g>
					<rect x="1149" y="230.7" class="st9" width="23.6" height="35.4"/>
					<rect x="1151.3" y="233.2" class="st23" width="19" height="30.5"/>
					<rect x="1149.7" y="247.2" class="st9" width="22.9" height="2.6"/>
				</g>
				<g>
					<rect x="1149" y="309.1" class="st9" width="23.6" height="35.4"/>
					<rect x="1151.3" y="311.6" class="st23" width="19" height="30.5"/>
					<rect x="1149.7" y="325.6" class="st9" width="22.9" height="2.6"/>
				</g>
				<g>
					<rect x="1205.5" y="309.1" class="st9" width="23.6" height="35.4"/>
					<rect x="1207.8" y="311.6" class="st23" width="19" height="30.5"/>
					<rect x="1206.2" y="325.6" class="st9" width="22.9" height="2.6"/>
				</g>
				<g>
					<rect x="1177.3" y="230.7" class="st9" width="23.6" height="35.4"/>
					<rect x="1179.6" y="233.2" class="st23" width="19" height="30.5"/>
					<rect x="1177.9" y="247.2" class="st9" width="22.9" height="2.6"/>
				</g>
				<g>
					<rect x="1205.5" y="230.7" class="st9" width="23.6" height="35.4"/>
					<rect x="1207.8" y="233.2" class="st23" width="19" height="30.5"/>
					<rect x="1206.2" y="247.2" class="st9" width="22.9" height="2.6"/>
				</g>
				<g>
					<polygon class="st30" points="1206.2,338.2 1206.2,331.4 1247,331.4 1247,338.2 					"/>
					<polygon class="st30" points="1208.7,336.4 1214.3,336.4 1214.3,359.7 1208.7,359.7 					"/>
					<polygon class="st30" points="1223.4,336.4 1229.1,336.4 1229.1,359.7 1223.4,359.7 					"/>
					<polygon class="st30" points="1238.1,336.4 1243.8,336.4 1243.8,359.7 1238.1,359.7 					"/>
					<polygon class="st30" points="1131.6,338.2 1131.6,331.4 1172.6,331.4 1172.6,338.2 					"/>
					<polygon class="st30" points="1134.8,336.4 1140.5,336.4 1140.5,359.7 1134.8,359.7 					"/>
					<polygon class="st30" points="1149.6,336.4 1155.2,336.4 1155.2,359.7 1149.6,359.7 					"/>
					<polygon class="st30" points="1164.3,336.4 1170,336.4 1170,359.7 1164.3,359.7 					"/>
				</g>
				<path class="st30" d="M1200.2,360.3h-22.2V318c0-6.1,5-11.1,11.1-11.1l0,0c6.1,0,11.1,5,11.1,11.1V360.3z"/>
				<circle class="st28" cx="1195.2" cy="336.9" r="2"/>
			</g>
			<path class="st8" d="M1200.2,360.1l35.2-0.1v-21.8h2.8l0,21.5h5.7v-21.5l3.2,0v-6.8h-11.6v-36.3h3.6v-7.9h-3.6v-2.4v-6.8v-57h3.6
				v-7.9h-3.6v-2v-6.8V147h3.6v-7.9h-4.5v-19.7h4.5V111h-49.9v249.3h11.1V360.1z M1213.8,119.4l12.7,0l0,19.7h-12.7V119.4z
				 M1193.2,119.4l12.7,0l0,19.7h-12.7V119.4z"/>
		</g>
		<g>
			<rect x="375.4" y="301.4" class="st31" width="4.5" height="66.2"/>
			<path class="st31" d="M372.7,367.6h9.8C382.5,367.6,377.6,358.6,372.7,367.6z"/>
			<polygon class="st31" points="384.8,293.1 383.9,293.1 371.4,293.1 370.4,293.1 374.9,304.4 375,304.9 375.1,304.9 380.2,304.9 
				380.2,304.9 380.4,304.4 			"/>
			<rect x="369.6" y="291.2" class="st31" width="15.6" height="1.8"/>
			<rect x="376.5" y="283.7" class="st31" width="1.8" height="15.6"/>
			<ellipse class="st31" cx="377.5" cy="291.2" rx="7.1" ry="6.1"/>
			<polygon class="st25" points="371.5,293.1 377.2,293.1 377.2,304.4 376.3,304.4 			"/>
			<polygon class="st25" points="383.8,293.1 378.1,293.1 378.1,304.4 379,304.4 			"/>
		</g>
		<g>
			<rect x="531" y="301.4" class="st31" width="4.5" height="66.2"/>
			<path class="st31" d="M528.3,367.6h9.8C538.1,367.6,533.3,358.6,528.3,367.6z"/>
			<polygon class="st31" points="540.5,293.1 539.5,293.1 527,293.1 526.1,293.1 530.5,304.4 530.6,304.9 530.7,304.9 535.8,304.9 
				535.9,304.9 536,304.4 			"/>
			<rect x="525.3" y="291.2" class="st31" width="15.6" height="1.8"/>
			<rect x="532.1" y="283.7" class="st31" width="1.8" height="15.6"/>
			<ellipse class="st31" cx="533.2" cy="291.2" rx="7.1" ry="6.1"/>
			<polygon class="st25" points="527.2,293.1 532.8,293.1 532.8,304.4 531.9,304.4 			"/>
			<polygon class="st25" points="539.4,293.1 533.7,293.1 533.7,304.4 534.6,304.4 			"/>
		</g>
		<g>
			<rect x="686.6" y="301.4" class="st31" width="4.5" height="66.2"/>
			<path class="st31" d="M683.9,367.6h9.8C693.8,367.6,688.9,358.6,683.9,367.6z"/>
			<polygon class="st31" points="696.1,293.1 695.2,293.1 682.6,293.1 681.7,293.1 686.1,304.4 686.3,304.9 686.3,304.9 
				691.5,304.9 691.5,304.9 691.7,304.4 			"/>
			<rect x="680.9" y="291.2" class="st31" width="15.6" height="1.8"/>
			<rect x="687.8" y="283.7" class="st31" width="1.8" height="15.6"/>
			<ellipse class="st31" cx="688.8" cy="291.2" rx="7.1" ry="6.1"/>
			<polygon class="st25" points="682.8,293.1 688.5,293.1 688.5,304.4 687.5,304.4 			"/>
			<polygon class="st25" points="695,293.1 689.4,293.1 689.4,304.4 690.3,304.4 			"/>
		</g>
		<g>
			<rect x="842.3" y="301.4" class="st31" width="4.5" height="66.2"/>
			<path class="st31" d="M839.5,367.6h9.8C849.4,367.6,844.5,358.6,839.5,367.6z"/>
			<polygon class="st31" points="851.7,293.1 850.8,293.1 838.3,293.1 837.3,293.1 841.8,304.4 841.9,304.9 842,304.9 847.1,304.9 
				847.1,304.9 847.3,304.4 			"/>
			<rect x="836.5" y="291.2" class="st31" width="15.6" height="1.8"/>
			<rect x="843.4" y="283.7" class="st31" width="1.8" height="15.6"/>
			<ellipse class="st31" cx="844.4" cy="291.2" rx="7.1" ry="6.1"/>
			<polygon class="st25" points="838.4,293.1 844.1,293.1 844.1,304.4 843.2,304.4 			"/>
			<polygon class="st25" points="850.7,293.1 845,293.1 845,304.4 845.9,304.4 			"/>
		</g>
		<g>
			<rect x="997.9" y="301.4" class="st31" width="4.5" height="66.2"/>
			<path class="st31" d="M995.2,367.6h9.8C1005,367.6,1000.1,358.6,995.2,367.6z"/>
			<polygon class="st31" points="1007.3,293.1 1006.4,293.1 993.9,293.1 993,293.1 997.4,304.4 997.5,304.9 997.6,304.9 
				1002.7,304.9 1002.8,304.9 1002.9,304.4 			"/>
			<rect x="992.1" y="291.2" class="st31" width="15.6" height="1.8"/>
			<rect x="999" y="283.7" class="st31" width="1.8" height="15.6"/>
			<ellipse class="st31" cx="1000.1" cy="291.2" rx="7.1" ry="6.1"/>
			<polygon class="st25" points="994,293.1 999.7,293.1 999.7,304.4 998.8,304.4 			"/>
			<polygon class="st25" points="1006.3,293.1 1000.6,293.1 1000.6,304.4 1001.5,304.4 			"/>
		</g>
		<g>
			<rect x="1153.5" y="301.4" class="st31" width="4.5" height="66.2"/>
			<path class="st31" d="M1150.8,367.6h9.8C1160.6,367.6,1155.8,358.6,1150.8,367.6z"/>
			<polygon class="st31" points="1163,293.1 1162,293.1 1149.5,293.1 1148.6,293.1 1153,304.4 1153.2,304.9 1153.2,304.9 
				1158.4,304.9 1158.4,304.9 1158.6,304.4 			"/>
			<rect x="1147.8" y="291.2" class="st31" width="15.6" height="1.8"/>
			<rect x="1154.7" y="283.7" class="st31" width="1.8" height="15.6"/>
			<ellipse class="st31" cx="1155.7" cy="291.2" rx="7.1" ry="6.1"/>
			<polygon class="st25" points="1149.7,293.1 1155.4,293.1 1155.4,304.4 1154.4,304.4 			"/>
			<polygon class="st25" points="1161.9,293.1 1156.3,293.1 1156.3,304.4 1157.2,304.4 			"/>
		</g>
		<g>
			<g>
				<path class="st32" d="M407.9,534.1c0,1.9-1.5,3.4-3.4,3.4l0,0c-1.9,0-3.4-1.5-3.4-3.4v-53.2c0-1.9,1.5-3.4,3.4-3.4l0,0
					c1.9,0,3.4,1.5,3.4,3.4V534.1z"/>
				<circle class="st33" cx="405" cy="473.7" r="24"/>
				<circle class="st33" cx="390.1" cy="488" r="14.5"/>
				<circle class="st33" cx="418.2" cy="485.6" r="17"/>
			</g>
			<path class="st8" d="M404.5,537.4c1.9,0,3.4-1.5,3.4-3.4v-34.9c2.9,2.2,6.4,3.5,10.3,3.5c9.4,0,17-7.6,17-17
				c0-5.3-2.5-10.1-6.3-13.2c-0.7-12.6-11.2-22.6-23.9-22.6c-0.1,0-0.3,0-0.4,0V537.4z"/>
		</g>
		<g>
			<g>
				<path class="st32" d="M488.4,534.1c0,1.9-1.5,3.4-3.4,3.4l0,0c-1.9,0-3.4-1.5-3.4-3.4v-53.2c0-1.9,1.5-3.4,3.4-3.4l0,0
					c1.9,0,3.4,1.5,3.4,3.4V534.1z"/>
				<circle class="st33" cx="485.4" cy="473.7" r="24"/>
				<circle class="st33" cx="470.6" cy="488" r="14.5"/>
				<circle class="st33" cx="498.6" cy="485.6" r="17"/>
			</g>
			<path class="st8" d="M485,537.4c1.9,0,3.4-1.5,3.4-3.4v-34.9c2.9,2.2,6.4,3.5,10.3,3.5c9.4,0,17-7.6,17-17
				c0-5.3-2.5-10.1-6.3-13.2c-0.7-12.6-11.2-22.6-23.9-22.6c-0.2,0-0.3,0-0.4,0V537.4z"/>
		</g>
		<g>
			<g>
				<path class="st32" d="M568.9,534.1c0,1.9-1.5,3.4-3.4,3.4l0,0c-1.9,0-3.4-1.5-3.4-3.4v-53.2c0-1.9,1.5-3.4,3.4-3.4l0,0
					c1.9,0,3.4,1.5,3.4,3.4V534.1z"/>
				<circle class="st33" cx="565.9" cy="473.7" r="24"/>
				<circle class="st33" cx="551.1" cy="488" r="14.5"/>
				<circle class="st33" cx="579.1" cy="485.6" r="17"/>
			</g>
			<path class="st8" d="M565.5,537.4c1.9,0,3.4-1.5,3.4-3.4v-34.9c2.9,2.2,6.4,3.5,10.3,3.5c9.4,0,17-7.6,17-17
				c0-5.3-2.5-10.1-6.3-13.2c-0.7-12.6-11.2-22.6-23.9-22.6c-0.2,0-0.3,0-0.4,0V537.4z"/>
		</g>
		<g>
			<g>
				<path class="st32" d="M649.3,534.1c0,1.9-1.5,3.4-3.4,3.4l0,0c-1.9,0-3.4-1.5-3.4-3.4v-53.2c0-1.9,1.5-3.4,3.4-3.4l0,0
					c1.9,0,3.4,1.5,3.4,3.4V534.1z"/>
				<circle class="st33" cx="646.4" cy="473.7" r="24"/>
				<circle class="st33" cx="631.6" cy="488" r="14.5"/>
				<circle class="st33" cx="659.6" cy="485.6" r="17"/>
			</g>
			<path class="st8" d="M646,537.4c1.9,0,3.4-1.5,3.4-3.4v-34.9c2.9,2.2,6.4,3.5,10.3,3.5c9.4,0,17-7.6,17-17
				c0-5.3-2.5-10.1-6.3-13.2c-0.7-12.6-11.2-22.6-23.9-22.6c-0.1,0-0.3,0-0.4,0V537.4z"/>
		</g>
		<g>
			<g>
				<path class="st32" d="M729.8,534.1c0,1.9-1.5,3.4-3.4,3.4l0,0c-1.9,0-3.4-1.5-3.4-3.4v-53.2c0-1.9,1.5-3.4,3.4-3.4l0,0
					c1.9,0,3.4,1.5,3.4,3.4V534.1z"/>
				<circle class="st33" cx="726.9" cy="473.7" r="24"/>
				<circle class="st33" cx="712" cy="488" r="14.5"/>
				<circle class="st33" cx="740.1" cy="485.6" r="17"/>
			</g>
			<path class="st8" d="M726.4,537.4c1.9,0,3.4-1.5,3.4-3.4v-34.9c2.9,2.2,6.4,3.5,10.3,3.5c9.4,0,17-7.6,17-17
				c0-5.3-2.5-10.1-6.3-13.2c-0.7-12.6-11.2-22.6-23.9-22.6c-0.1,0-0.3,0-0.4,0V537.4z"/>
		</g>
		<g>
			<g>
				<path class="st32" d="M810.3,534.1c0,1.9-1.5,3.4-3.4,3.4l0,0c-1.9,0-3.4-1.5-3.4-3.4v-53.2c0-1.9,1.5-3.4,3.4-3.4l0,0
					c1.9,0,3.4,1.5,3.4,3.4V534.1z"/>
				<circle class="st33" cx="807.4" cy="473.7" r="24"/>
				<circle class="st33" cx="792.5" cy="488" r="14.5"/>
				<circle class="st33" cx="820.6" cy="485.6" r="17"/>
			</g>
			<path class="st8" d="M806.9,537.4c1.9,0,3.4-1.5,3.4-3.4v-34.9c2.9,2.2,6.4,3.5,10.3,3.5c9.4,0,17-7.6,17-17
				c0-5.3-2.5-10.1-6.3-13.2c-0.7-12.6-11.2-22.6-23.9-22.6c-0.2,0-0.3,0-0.4,0V537.4z"/>
		</g>
		<g>
			<g>
				<path class="st32" d="M890.8,534.1c0,1.9-1.5,3.4-3.4,3.4l0,0c-1.9,0-3.4-1.5-3.4-3.4v-53.2c0-1.9,1.5-3.4,3.4-3.4l0,0
					c1.9,0,3.4,1.5,3.4,3.4V534.1z"/>
				<circle class="st33" cx="887.8" cy="473.7" r="24"/>
				<circle class="st33" cx="873" cy="488" r="14.5"/>
				<circle class="st33" cx="901" cy="485.6" r="17"/>
			</g>
			<path class="st8" d="M887.4,537.4c1.9,0,3.4-1.5,3.4-3.4v-34.9c2.9,2.2,6.4,3.5,10.3,3.5c9.4,0,17-7.6,17-17
				c0-5.3-2.5-10.1-6.3-13.2c-0.7-12.6-11.2-22.6-23.9-22.6c-0.1,0-0.3,0-0.4,0V537.4z"/>
		</g>
		<g>
			<g>
				<path class="st32" d="M971.3,534.1c0,1.9-1.5,3.4-3.4,3.4l0,0c-1.9,0-3.4-1.5-3.4-3.4v-53.2c0-1.9,1.5-3.4,3.4-3.4l0,0
					c1.9,0,3.4,1.5,3.4,3.4V534.1z"/>
				<circle class="st33" cx="968.3" cy="473.7" r="24"/>
				<circle class="st33" cx="953.5" cy="488" r="14.5"/>
				<circle class="st33" cx="981.5" cy="485.6" r="17"/>
			</g>
			<path class="st8" d="M967.9,537.4c1.9,0,3.4-1.5,3.4-3.4v-34.9c2.9,2.2,6.4,3.5,10.3,3.5c9.4,0,17-7.6,17-17
				c0-5.3-2.5-10.1-6.3-13.2c-0.7-12.6-11.2-22.6-23.9-22.6c-0.2,0-0.3,0-0.4,0V537.4z"/>
		</g>
		<g>
			<g>
				<path class="st32" d="M1051.7,534.1c0,1.9-1.5,3.4-3.4,3.4l0,0c-1.9,0-3.4-1.5-3.4-3.4v-53.2c0-1.9,1.5-3.4,3.4-3.4l0,0
					c1.9,0,3.4,1.5,3.4,3.4V534.1z"/>
				<circle class="st33" cx="1048.8" cy="473.7" r="24"/>
				<circle class="st33" cx="1034" cy="488" r="14.5"/>
				<circle class="st33" cx="1062" cy="485.6" r="17"/>
			</g>
			<path class="st8" d="M1048.4,537.4c1.9,0,3.4-1.5,3.4-3.4v-34.9c2.9,2.2,6.4,3.5,10.3,3.5c9.4,0,17-7.6,17-17
				c0-5.3-2.5-10.1-6.3-13.2c-0.7-12.6-11.2-22.6-23.9-22.6c-0.2,0-0.3,0-0.4,0V537.4z"/>
		</g>
		<g>
			<g>
				<path class="st32" d="M1132.2,534.1c0,1.9-1.5,3.4-3.4,3.4l0,0c-1.9,0-3.4-1.5-3.4-3.4v-53.2c0-1.9,1.5-3.4,3.4-3.4l0,0
					c1.9,0,3.4,1.5,3.4,3.4V534.1z"/>
				<circle class="st33" cx="1129.3" cy="473.7" r="24"/>
				<circle class="st33" cx="1114.5" cy="488" r="14.5"/>
				<circle class="st33" cx="1142.5" cy="485.6" r="17"/>
			</g>
			<path class="st8" d="M1128.8,537.4c1.9,0,3.4-1.5,3.4-3.4v-34.9c2.9,2.2,6.4,3.5,10.3,3.5c9.4,0,17-7.6,17-17
				c0-5.3-2.5-10.1-6.3-13.2c-0.7-12.6-11.2-22.6-23.9-22.6c-0.2,0-0.3,0-0.4,0V537.4z"/>
		</g>
		<g>
			<g>
				<path class="st32" d="M1212.7,534.1c0,1.9-1.5,3.4-3.4,3.4l0,0c-1.9,0-3.4-1.5-3.4-3.4v-53.2c0-1.9,1.5-3.4,3.4-3.4l0,0
					c1.9,0,3.4,1.5,3.4,3.4V534.1z"/>
				<circle class="st33" cx="1209.8" cy="473.7" r="24"/>
				<circle class="st33" cx="1194.9" cy="488" r="14.5"/>
				<circle class="st33" cx="1223" cy="485.6" r="17"/>
			</g>
			<path class="st8" d="M1209.3,537.4c1.9,0,3.4-1.5,3.4-3.4v-34.9c2.9,2.2,6.4,3.5,10.3,3.5c9.4,0,17-7.6,17-17
				c0-5.3-2.5-10.1-6.3-13.2c-0.7-12.6-11.2-22.6-23.9-22.6c-0.2,0-0.3,0-0.4,0V537.4z"/>
		</g>
	</g>
</g>
</svg>
