<?xml version="1.0" encoding="utf-8"?>
<!-- Generator: Adobe Illustrator 19.0.0, SVG Export Plug-In . SVG Version: 6.00 Build 0)  -->
<svg version="1.1" id="OBJECTS" xmlns="http://www.w3.org/2000/svg" xmlns:xlink="http://www.w3.org/1999/xlink" x="0px" y="0px"
	 viewBox="-211 -567.3 858 858" style="enable-background:new -211 -567.3 858 858;" xml:space="preserve">
<style type="text/css">
	.st0{fill:#1F1F30;}
	.st1{fill:#D8D8E9;}
	.st2{fill:#DDDDEC;}
	.st3{fill:#0068FF;}
	.st4{fill:#FAFAFA;}
	.st5{clip-path:url(#SVGID_2_);}
	.st6{fill:#FFFFFF;}
	.st7{clip-path:url(#SVGID_4_);}
	.st8{fill:url(#path10283_2_);}
</style>
<g>
	<g>
		<g>
			
				<image style="overflow:visible;opacity:0.12;" width="722" height="621" xlink:href="ACF0B658.png"  transform="matrix(1 0 0 1 -175 -551)">
			</image>
			<g>
				<path class="st0" d="M346.7,13.5l-466-210.5c-7.5-3.4-10.9-12.3-7.5-19.8L1.4-500.6c3.4-7.5,12.3-10.9,19.8-7.5l466,210.5
					c7.5,3.4,10.9,12.3,7.5,19.8L366.5,6C363.1,13.5,354.2,16.9,346.7,13.5z"/>
			</g>
		</g>
		<path class="st1" d="M22.3-287.3l-49.2-22.2c-3.5-1.6-5.1-5.7-3.5-9.3l19.1-42.2c1.6-3.5,5.7-5.1,9.3-3.5l49.2,22.2
			c3.5,1.6,5.1,5.7,3.5,9.3l-19.1,42.2C30-287.2,25.8-285.7,22.3-287.3z"/>
		<path class="st2" d="M19.7-293.1l-40.4-18.3c-3.5-1.6-5.1-5.7-3.5-9.3l15.6-34.4c1.6-3.5,5.7-5.1,9.3-3.5L41-340.3
			c3.5,1.6,5.1,5.7,3.5,9.3l-15.6,34.4C27.3-293.1,23.2-291.6,19.7-293.1z"/>
		<g id="XMLID_2_">
			<path id="XMLID_6_" class="st3" d="M418.1-280.3l16.5,7.5c0.2,0.1,0.3,0.3,0.2,0.5L427-255c-0.1,0.2-0.3,0.3-0.5,0.2l-16.5-7.5
				c-0.2-0.1-0.3-0.3-0.2-0.5l7.8-17.3C417.7-280.3,417.9-280.3,418.1-280.3z"/>
			<path id="XMLID_5_" class="st3" d="M409.2-260.6l16.5,7.5c0.2,0.1,0.3,0.3,0.2,0.5l-8,17.7c-0.1,0.2-0.3,0.3-0.5,0.2l-16.5-7.5
				c-0.2-0.1-0.3-0.3-0.2-0.5l8-17.7C408.9-260.6,409.1-260.7,409.2-260.6z"/>
			<path id="XMLID_4_" class="st3" d="M399.5-288.7l16.5,7.5c0.2,0.1,0.3,0.3,0.2,0.5l-7.8,17.3c-0.1,0.2-0.3,0.3-0.5,0.2l-16.5-7.5
				c-0.2-0.1-0.3-0.3-0.2-0.5l7.8-17.3C399.1-288.7,399.3-288.7,399.5-288.7z"/>
			<path id="XMLID_3_" class="st3" d="M390.6-269l16.5,7.5c0.2,0.1,0.3,0.3,0.2,0.5l-8,17.7c-0.1,0.2-0.3,0.3-0.5,0.2l-16.5-7.5
				c-0.2-0.1-0.3-0.3-0.2-0.5l8-17.7C390.3-269,390.5-269.1,390.6-269z"/>
		</g>
		<g>
			<path class="st4" d="M-63.2-219.1l-6.8-3.1l-2.9,6.3l7.6,3.4l-0.9,1.9L-76-215l7.9-17.6l9.5,4.3l-0.9,1.9l-7.2-3.3l-2.5,5.6
				l6.8,3.1L-63.2-219.1z"/>
			<path class="st4" d="M-42.8-209.3c1-2.5,2.2-5.5,3.2-7.7l-0.1,0c-1.5,1.8-3.3,3.7-5.2,5.7l-7,7.1l-1.7-0.8l0.9-9.7
				c0.3-2.9,0.6-5.4,1.1-7.8l-0.1,0c-1,2.2-2.5,5.1-3.9,7.6l-3.9,7.3l-2.2-1l9.2-17l2.9,1.3l-0.8,9.9c-0.2,2.5-0.5,4.7-0.9,6.7
				l0.1,0c1.2-1.6,2.7-3.2,4.5-5.1l7-7.1l2.9,1.3l-6.8,18.1l-2.2-1L-42.8-209.3z"/>
			<path class="st4" d="M-19.8-198.8c1-2.5,2.2-5.5,3.2-7.7l-0.1,0c-1.5,1.8-3.3,3.7-5.2,5.7l-7,7.1l-1.7-0.8l0.9-9.7
				c0.3-2.9,0.6-5.4,1.1-7.8l-0.1,0c-1,2.2-2.5,5.1-3.9,7.6l-3.9,7.3l-2.2-1l9.2-17l2.9,1.3l-0.8,9.9c-0.2,2.5-0.5,4.7-0.9,6.7
				l0.1,0c1.2-1.6,2.7-3.2,4.5-5.1l7-7.1l2.9,1.3l-6.8,18.1l-2.2-1L-19.8-198.8z"/>
			<path class="st4" d="M-9.9-191.8l-4.3,4.7l-2.3-1.1L-2.7-203l2.7,1.2l-1.9,20.3l-2.4-1.1l0.6-6.4L-9.9-191.8z M-3.4-190.9
				l0.6-5.8c0.1-1.3,0.3-2.5,0.5-3.6l-0.1,0c-0.7,0.9-1.5,1.9-2.3,2.8l-4,4.3L-3.4-190.9z"/>
			<path class="st4" d="M11.3-178.8c0.7,1.1,2,2.3,3.6,3c2.3,1,4.2,0.4,5-1.3c0.7-1.6,0.2-3-1.7-5c-2.4-2.3-3.5-4.6-2.4-7.1
				c1.2-2.7,4.4-3.7,7.8-2.2c1.8,0.8,2.9,1.8,3.5,2.6l-1.5,1.6c-0.4-0.6-1.4-1.6-3-2.3c-2.4-1.1-4-0.1-4.5,1.1c-0.7,1.6,0,2.9,2,5
				c2.5,2.5,3.3,4.6,2.2,7.2c-1.2,2.7-4.3,4.2-8.4,2.3c-1.7-0.8-3.3-2.1-4-3.1L11.3-178.8z"/>
			<path class="st4" d="M35.8-183.3l-5.3-2.4l0.9-1.9l13,5.9l-0.9,1.9l-5.4-2.4L31-166.6l-2.3-1L35.8-183.3z"/>
			<path class="st4" d="M48.2-179.7c1.3,0.3,3,0.9,4.5,1.6c2.4,1.1,3.8,2.2,4.4,3.7c0.5,1.2,0.5,2.6-0.1,4c-1,2.3-3.2,3.2-5.3,3
				l0,0.1c1.1,1.1,1.4,2.7,1,4.7c-0.5,2.7-0.9,4.6-0.8,5.4l-2.3-1.1c-0.1-0.6,0.2-2.3,0.7-4.7c0.6-2.7,0-4-2-5l-2.1-1l-3.4,7.6
				l-2.3-1L48.2-179.7z M46.9-170.7l2.3,1c2.4,1.1,4.6,0.5,5.5-1.5c1-2.3-0.2-4-2.6-5.1c-1.1-0.5-1.9-0.7-2.3-0.8L46.9-170.7z"/>
			<path class="st4" d="M62-159.3l-4.3,4.7l-2.3-1.1l13.9-14.9l2.7,1.2L70-149l-2.4-1.1l0.6-6.4L62-159.3z M68.6-158.4l0.6-5.8
				c0.1-1.3,0.3-2.5,0.5-3.6l-0.1,0c-0.7,0.9-1.5,1.9-2.3,2.8l-4,4.3L68.6-158.4z"/>
			<path class="st4" d="M84.2-163.7l-4.7,10.4c-1.8,3.9-0.8,6.4,1.6,7.5c2.6,1.2,5.1,0.2,6.8-3.7l4.7-10.4l2.3,1l-4.6,10.3
				c-2.4,5.4-6.3,6.3-10.1,4.6c-3.6-1.6-5.4-4.9-2.9-10.4l4.7-10.4L84.2-163.7z"/>
			<path class="st4" d="M93.9-141.5c0.7,1.1,2,2.3,3.6,3c2.3,1,4.2,0.4,5-1.3c0.7-1.6,0.2-3-1.7-5c-2.4-2.3-3.5-4.6-2.4-7.1
				c1.2-2.7,4.4-3.7,7.8-2.2c1.8,0.8,2.9,1.8,3.5,2.6l-1.5,1.6c-0.4-0.6-1.4-1.6-3-2.3c-2.4-1.1-4-0.1-4.5,1.1c-0.7,1.6,0,2.9,2,5
				c2.5,2.5,3.3,4.6,2.2,7.2c-1.2,2.7-4.3,4.2-8.4,2.3c-1.7-0.8-3.3-2.1-4-3.1L93.9-141.5z"/>
			<path class="st4" d="M108.8-134.8c0.7,1.1,2,2.3,3.6,3c2.3,1,4.2,0.4,5-1.3c0.7-1.6,0.2-3-1.7-5c-2.4-2.3-3.5-4.6-2.4-7.1
				c1.2-2.7,4.4-3.7,7.8-2.2c1.8,0.8,2.9,1.8,3.5,2.6l-1.5,1.6c-0.4-0.6-1.4-1.6-3-2.3c-2.4-1.1-4-0.1-4.5,1.1c-0.7,1.6,0,2.9,2,5
				c2.5,2.5,3.3,4.6,2.2,7.2c-1.2,2.7-4.3,4.2-8.4,2.3c-1.7-0.8-3.3-2.1-4-3.1L108.8-134.8z"/>
		</g>
		<g id="layer1_1_" transform="translate(-333.70157,-536.42431)">
			<g id="g10267_1_" transform="matrix(4.9846856,0,0,-4.9846856,-1470.1185,1039.6264)">
				<g>
					<defs>
						<path id="SVGID_1_" d="M421.4,115.4c-0.4-0.9,0.2-1.7,0.6-2.3c0.5-0.6,0.6-0.9,0.5-1.1c-0.2-0.4-0.8-0.4-1.2-0.2
							c-0.8,0.3-1.2,0.8-1.4,1.1l-0.9-1.2c0.3-0.3,0.9-0.8,1.6-1.1c1.7-0.7,3.1-0.4,3.7,0.8c0.7,1.6-1.5,2.7-1.1,3.4
							c0.1,0.2,0.4,0.4,0.9,0.2c0.2-0.1,0.9-0.3,1.4-1l0.9,1.2c-0.3,0.3-0.7,0.7-1.4,0.9C423.4,116.9,421.9,116.5,421.4,115.4
							 M429.1,114.2c-0.3,0.1-0.6,0.1-0.9-0.1l-4.9-4.6l1.7-0.7l0.7,0.8l2-0.9l-0.2-1l1.5-0.7l1.5,6.7L429.1,114.2 M428.5,112.4
							l-0.6-2.5l-1.3,0.6L428.5,112.4 M420.3,118.2l-4.1-5.5l1.6-0.7l4.1,5.5L420.3,118.2 M417.9,119.2l-3.5-3.4l0.9,3.8
							c0.1,0.4-0.1,0.8-0.4,0.9l-2.7,1.2l-0.1-0.2c0.5-0.4,1-0.8,1.3-1.2c0.2-0.2,0.2-0.4,0.1-0.7l-0.9-5.4l1.7-0.8l5.3,4.9
							L417.9,119.2"/>
					</defs>
					<use xlink:href="#SVGID_1_"  style="overflow:visible;fill:#FAFAFA;"/>
					<clipPath id="SVGID_2_">
						<use xlink:href="#SVGID_1_"  style="overflow:visible;"/>
					</clipPath>
					<g id="g10269_1_" class="st5">
						<g id="g10275_1_" transform="translate(351.611,96.896)">
							<path id="path10283_1_" class="st4" d="M58.2,25.2l22.4-1.6l-1-13.8l-22.4,1.6"/>
						</g>
					</g>
				</g>
			</g>
		</g>
	</g>
	<g>
		<g>
			
				<image style="overflow:visible;opacity:0.12;" width="722" height="621" xlink:href="ACF0B659.png"  transform="matrix(1 0 0 1 -107 -333)">
			</image>
			<g>
				<path class="st6" d="M414.7,231.5L-51.2,21c-7.5-3.4-10.9-12.3-7.5-19.8L69.5-282.6c3.4-7.5,12.3-10.9,19.8-7.5l466,210.5
					c7.5,3.4,10.9,12.3,7.5,19.8L434.6,224C431.2,231.6,422.3,234.9,414.7,231.5z"/>
			</g>
		</g>
		<path class="st1" d="M90.3-69.2L41.1-91.5c-3.5-1.6-5.1-5.7-3.5-9.3L56.7-143c1.6-3.5,5.7-5.1,9.3-3.5l49.2,22.2
			c3.5,1.6,5.1,5.7,3.5,9.3L99.6-72.7C98-69.2,93.9-67.6,90.3-69.2z"/>
		<path class="st2" d="M87.7-75.1L47.3-93.4c-3.5-1.6-5.1-5.7-3.5-9.3l15.6-34.4c1.6-3.5,5.7-5.1,9.3-3.5l40.4,18.3
			c3.5,1.6,5.1,5.7,3.5,9.3L97-78.6C95.4-75.1,91.2-73.5,87.7-75.1z"/>
		<g id="XMLID_10_">
			<path id="XMLID_22_" class="st1" d="M486.2-62.2l16.5,7.5c0.2,0.1,0.3,0.3,0.2,0.5L495.1-37c-0.1,0.2-0.3,0.3-0.5,0.2l-16.5-7.5
				c-0.2-0.1-0.3-0.3-0.2-0.5l7.8-17.3C485.8-62.2,486-62.3,486.2-62.2z"/>
			<path id="XMLID_1_" class="st1" d="M477.3-42.6l16.5,7.5c0.2,0.1,0.3,0.3,0.2,0.5L486-17c-0.1,0.2-0.3,0.3-0.5,0.2L469-24.3
				c-0.2-0.1-0.3-0.3-0.2-0.5l8-17.7C476.9-42.6,477.1-42.7,477.3-42.6z"/>
			<path id="XMLID_17_" class="st1" d="M467.6-70.6l16.5,7.5c0.2,0.1,0.3,0.3,0.2,0.5l-7.8,17.3c-0.1,0.2-0.3,0.3-0.5,0.2l-16.5-7.5
				c-0.2-0.1-0.3-0.3-0.2-0.5l7.8-17.3C467.2-70.6,467.4-70.7,467.6-70.6z"/>
			<path id="XMLID_16_" class="st1" d="M458.7-51l16.5,7.5c0.2,0.1,0.3,0.3,0.2,0.5l-8,17.7c-0.1,0.2-0.3,0.3-0.5,0.2l-16.5-7.5
				c-0.2-0.1-0.3-0.3-0.2-0.5l8-17.7C458.3-51,458.5-51.1,458.7-51z"/>
		</g>
		<g>
			<path d="M-5.1,4.4l3.5-19.6l2.4,1.1l-1.9,9.8c-0.5,2.4-1,4.8-1.4,6.7l0.1,0C-1.5,0.8,0-1.1,1.6-3.1L8-10.9l2.4,1.1L8.5,0.1
				C8,2.4,7.5,4.7,7,6.6l0.1,0c1.2-1.8,2.6-3.5,4.2-5.4l6.3-7.8l2.3,1L6.9,9.8L4.5,8.7L6.5-1.4c0.5-2.5,0.9-4.4,1.4-6.3l-0.1,0
				C6.7-6.1,5.6-4.6,3.9-2.6l-6.6,8L-5.1,4.4z"/>
			<path d="M20,9.1l-4.3,4.7l-2.3-1.1L27.3-2.2L30-0.9l-1.9,20.3l-2.4-1.1l0.6-6.4L20,9.1z M26.6,9.9L27.2,4
				c0.1-1.3,0.3-2.5,0.5-3.6l-0.1,0c-0.7,0.9-1.5,1.9-2.3,2.8l-4,4.3L26.6,9.9z"/>
			<path d="M40.7,3.9l2.3,1l-7.1,15.7l7.5,3.4l-0.9,1.9l-9.8-4.4L40.7,3.9z"/>
			<path d="M55.2,12.8l-5.3-2.4l0.9-1.9l13,5.9l-0.9,1.9l-5.4-2.4l-7.1,15.7l-2.3-1L55.2,12.8z"/>
			<path d="M72.7,29.6l-6.8-3.1L63,32.8l7.6,3.4l-0.9,1.9l-9.9-4.5l7.9-17.6l9.5,4.3l-0.9,1.9l-7.2-3.3l-2.5,5.6l6.8,3.1L72.7,29.6z
				"/>
			<path d="M82.6,23.1c1.3,0.3,3,0.9,4.5,1.6c2.4,1.1,3.8,2.2,4.4,3.7c0.5,1.2,0.5,2.6-0.1,4c-1,2.3-3.2,3.2-5.3,3l0,0.1
				c1.1,1.1,1.4,2.7,1,4.7c-0.5,2.7-0.9,4.6-0.8,5.4l-2.3-1.1c-0.1-0.6,0.2-2.3,0.7-4.7c0.6-2.7,0-4-2-5l-2.1-1l-3.4,7.6l-2.3-1
				L82.6,23.1z M81.3,32.2l2.3,1c2.4,1.1,4.6,0.5,5.5-1.5c1-2.3-0.2-4-2.6-5.1c-1.1-0.5-1.9-0.7-2.3-0.8L81.3,32.2z"/>
			<path d="M100.5,52.1l3.5-19.6l2.4,1.1l-1.9,9.8c-0.5,2.4-1,4.8-1.4,6.7l0.1,0c1.1-1.6,2.6-3.5,4.2-5.5l6.4-7.8l2.4,1.1l-1.9,9.9
				c-0.4,2.3-0.9,4.6-1.5,6.6l0.1,0c1.2-1.8,2.6-3.5,4.2-5.4l6.3-7.8l2.3,1l-12.9,15.3l-2.4-1.1l1.9-10.2c0.5-2.5,0.9-4.4,1.4-6.3
				l-0.1,0c-1.1,1.6-2.3,3.2-3.9,5.1l-6.6,8L100.5,52.1z"/>
			<path d="M132,45.1l-3.3,7.4l8.5,3.8l3.3-7.4l2.3,1l-7.9,17.6l-2.3-1l3.7-8.2l-8.5-3.8l-3.7,8.2l-2.3-1l7.9-17.6L132,45.1z"/>
			<path d="M151.1,53.7l-7.9,17.6l-2.3-1l7.9-17.6L151.1,53.7z"/>
			<path d="M159.6,59.9l-5.3-2.4l0.9-1.9l13,5.9l-0.9,1.9l-5.4-2.4l-7.1,15.7l-2.3-1L159.6,59.9z"/>
			<path d="M177,76.7l-6.8-3.1l-2.9,6.3l7.6,3.4l-0.9,1.9l-9.9-4.5l7.9-17.6l9.5,4.3l-0.9,1.9l-7.2-3.3l-2.5,5.6l6.8,3.1L177,76.7z"
				/>
		</g>
		<g id="layer1" transform="translate(-333.70157,-536.42431)">
			<g id="g10267" transform="matrix(4.9846856,0,0,-4.9846856,-1470.1185,1039.6264)">
				<g>
					<defs>
						<path id="SVGID_3_" d="M435,71.6c-0.4-0.9,0.2-1.7,0.6-2.3c0.5-0.6,0.6-0.9,0.5-1.1c-0.2-0.4-0.8-0.4-1.2-0.2
							c-0.8,0.3-1.2,0.8-1.4,1.1l-0.9-1.2c0.3-0.3,0.9-0.8,1.6-1.1c1.7-0.7,3.1-0.4,3.7,0.8c0.7,1.6-1.5,2.7-1.1,3.4
							c0.1,0.2,0.4,0.4,0.9,0.2c0.2-0.1,0.9-0.3,1.4-1l0.9,1.2c-0.3,0.3-0.7,0.7-1.4,0.9C437.1,73.1,435.6,72.8,435,71.6
							 M442.7,70.5c-0.3,0.1-0.6,0.1-0.9-0.1l-4.9-4.6l1.7-0.7l0.7,0.8l2-0.9l-0.2-1l1.5-0.7l1.5,6.7L442.7,70.5 M442.2,68.7
							l-0.6-2.5l-1.3,0.6L442.2,68.7 M433.9,74.4l-4.1-5.5l1.6-0.7l4.1,5.5L433.9,74.4 M431.6,75.5l-3.5-3.4l0.9,3.8
							c0.1,0.4-0.1,0.8-0.4,0.9l-2.7,1.2l-0.1-0.2c0.5-0.4,1-0.8,1.3-1.2c0.2-0.2,0.2-0.4,0.1-0.7l-0.9-5.4l1.7-0.8l5.3,4.9
							L431.6,75.5"/>
					</defs>
					<clipPath id="SVGID_4_">
						<use xlink:href="#SVGID_3_"  style="overflow:visible;"/>
					</clipPath>
					<g id="g10269" class="st7">
						<g id="g10275" transform="translate(351.611,96.896)">
							
								<linearGradient id="path10283_2_" gradientUnits="userSpaceOnUse" x1="-8.1167" y1="-43.0897" x2="-7.9025" y2="-43.0897" gradientTransform="matrix(446.1232 -31.9459 -31.9459 -446.1232 2317.7739 -19508.2109)">
								<stop  offset="0" style="stop-color:#222357"/>
								<stop  offset="1" style="stop-color:#254AA5"/>
							</linearGradient>
							<path id="path10283" class="st8" d="M71.9-18.5l22.4-1.6l-1-13.8l-22.4,1.6"/>
						</g>
					</g>
				</g>
			</g>
		</g>
	</g>
</g>
</svg>
