<?xml version="1.0" encoding="utf-8"?>
<!-- Generator: Adobe Illustrator 19.0.0, SVG Export Plug-In . SVG Version: 6.00 Build 0)  -->
<svg version="1.1" id="OBJECTS" xmlns="http://www.w3.org/2000/svg" xmlns:xlink="http://www.w3.org/1999/xlink" x="0px" y="0px"
	 viewBox="0 0 750 480.1" style="enable-background:new 0 0 750 480.1;" xml:space="preserve">
<style type="text/css">
	.st0{fill:url(#SVGID_1_);}
	.st1{clip-path:url(#SVGID_3_);fill:#59A1E5;}
	.st2{clip-path:url(#SVGID_3_);fill:url(#SVGID_4_);}
	.st3{clip-path:url(#SVGID_3_);}
	.st4{fill:url(#SVGID_5_);}
	.st5{fill:#FFFFFF;}
	.st6{opacity:0.25;clip-path:url(#SVGID_3_);fill:url(#SVGID_6_);}
	.st7{clip-path:url(#SVGID_3_);fill:url(#SVGID_7_);}
	.st8{clip-path:url(#SVGID_3_);fill:url(#SVGID_8_);}
	.st9{clip-path:url(#SVGID_3_);fill:url(#SVGID_9_);}
	.st10{clip-path:url(#SVGID_3_);fill:url(#SVGID_10_);}
	.st11{fill:url(#SVGID_11_);}
	.st12{opacity:0.15;fill:url(#SVGID_12_);}
	.st13{fill:#BCE0ED;}
	.st14{fill:#9BCFDD;}
	.st15{fill:#383838;}
	.st16{fill:#FCFCFC;}
	.st17{fill:#F0F1F2;}
	.st18{opacity:0.25;fill:url(#SVGID_13_);}
	.st19{fill:url(#SVGID_14_);}
	.st20{opacity:0.25;fill:url(#SVGID_15_);}
	.st21{opacity:0.25;fill:url(#SVGID_16_);}
	.st22{fill:url(#SVGID_17_);}
	.st23{opacity:0.25;fill:url(#SVGID_18_);}
	.st24{opacity:9.000000e-002;fill:url(#SVGID_19_);}
	.st25{fill:url(#SVGID_20_);}
	.st26{opacity:0.25;fill:url(#SVGID_21_);}
	.st27{fill:url(#SVGID_22_);}
	.st28{fill:url(#SVGID_23_);}
	.st29{fill:url(#SVGID_24_);}
	.st30{opacity:0.11;fill:url(#SVGID_25_);}
</style>
<g>
	<linearGradient id="SVGID_1_" gradientUnits="userSpaceOnUse" x1="375" y1="480.0912" x2="375" y2="-3.972349e-006">
		<stop  offset="0" style="stop-color:#FFFFFF"/>
		<stop  offset="0.1324" style="stop-color:#FBFEFF"/>
		<stop  offset="0.277" style="stop-color:#EDF9FF"/>
		<stop  offset="0.4274" style="stop-color:#D8F2FF"/>
		<stop  offset="0.5817" style="stop-color:#B9E8FF"/>
		<stop  offset="0.7391" style="stop-color:#92DCFF"/>
		<stop  offset="0.8969" style="stop-color:#62CCFF"/>
		<stop  offset="1" style="stop-color:#3FC1FF"/>
	</linearGradient>
	<rect x="0" y="0" class="st0" width="750" height="480.1"/>
	<g>
		<defs>
			<rect id="SVGID_2_" x="0" y="0" width="750" height="480.1"/>
		</defs>
		<clipPath id="SVGID_3_">
			<use xlink:href="#SVGID_2_"  style="overflow:visible;"/>
		</clipPath>
		<path class="st1" d="M822.7,406.8c2.2-51.8-10-109.7-49.8-142.2c-96.8-18.2-199.4,7.2-297.6,8.8c-43.3,0.7-71.7,3-114.8,7.8
			c-41,4.6-94.3-16.4-133.3,1.5c-55.1,25.3-93.3,18.1-186.6,19c-47.6,0.4-84.3-14.9-108-3.5c-9,4.3-5.8,40.4-1.6,72.2
			c-2.3,29.8,9.9,92.9,10.7,105c1.1,16.8-1.3,32.1,7.5,46.4c12.3,20.1,40.1,22.3,63.7,22.2c172.9-0.8,345.6-9.9,518.4-12.6
			c96.5-1.5,194.1,11.4,285.4-6.6C826.4,492.8,830.6,448.1,822.7,406.8z"/>
		<linearGradient id="SVGID_4_" gradientUnits="userSpaceOnUse" x1="-71.4616" y1="393.3361" x2="828.5541" y2="393.3361">
			<stop  offset="0" style="stop-color:#3FC1FF"/>
			<stop  offset="1" style="stop-color:#009AE9"/>
		</linearGradient>
		<path class="st2" d="M824.4,399.1c2.2-51.8-10-109.7-49.8-142.2c-96.8-18.2-199.4,7.2-297.6,8.8c-43.3,0.7-72.6,19.4-115.6,24.3
			c-41,4.6-84-0.2-130.3,1.9c-60.5,2.8-95.5,1.3-188.8,2.2c-47.6,0.4-84.3-14.9-108-3.5c-9,4.3-5.8,40.4-1.6,72.2
			c-2.3,29.8,9.9,92.9,10.7,105c1.1,16.8-1.3,32.1,7.5,46.4c12.3,20.1,40.1,22.3,63.7,22.2c172.9-0.8,345.6-9.9,518.4-12.6
			c96.5-1.5,194.1,11.4,285.4-6.6C828.1,485,832.3,440.4,824.4,399.1z"/>
		<g class="st3">
			<linearGradient id="SVGID_5_" gradientUnits="userSpaceOnUse" x1="287.1102" y1="189.2873" x2="817.0165" y2="189.2873">
				<stop  offset="0" style="stop-color:#FFFFFF"/>
				<stop  offset="0.1324" style="stop-color:#FBFEFF"/>
				<stop  offset="0.277" style="stop-color:#EDF9FF"/>
				<stop  offset="0.4274" style="stop-color:#D8F2FF"/>
				<stop  offset="0.5817" style="stop-color:#B9E8FF"/>
				<stop  offset="0.7391" style="stop-color:#92DCFF"/>
				<stop  offset="0.8969" style="stop-color:#62CCFF"/>
				<stop  offset="1" style="stop-color:#3FC1FF"/>
			</linearGradient>
			<polygon class="st4" points="817,288.9 616.7,149.9 598.9,160.1 528.6,88.4 460.8,167.6 436.6,157.3 379.6,209.5 366.3,197.4 
				329.9,243.9 287.1,290.2 			"/>
			<path class="st5" d="M615.1,151.1l-1.6,74.5l-33.9,18.6l-11.1,39.4c0,0-216.7-2.5-263.5,0c25.4-35.4,62.7-81.5,62.7-81.5
				l14.9,12.3l58.2-52.2l19.4,7.5l68.6-79.6L502,183.4l-21,52.2l61.4-49.7l38.8,3.7L615.1,151.1z"/>
		</g>
		<linearGradient id="SVGID_6_" gradientUnits="userSpaceOnUse" x1="361.9936" y1="584.2889" x2="361.9936" y2="298.8903">
			<stop  offset="0" style="stop-color:#3FC1FF"/>
			<stop  offset="1" style="stop-color:#009AE9"/>
		</linearGradient>
		<path class="st6" d="M800.7,447c1.1-26,24.8-87.9,17-113c-12.3-39.4-65.8-32-106.9-34.3c-28.6-1.6-88,5.1-126.7,5.8
			c-16.9,0.3-26.5-7.7-39.2-6.5c-24.8,2.4-17.7,3.5-42.3,5.4c-16.8,1.3-30.2-2.8-46.8-2.5c-28.8,0.5-60.7-7.5-71.9,2.9
			c-5.9,5.5,7,3.3-4.9,11.7c-14.2,10-31.2,9.2-57.1,11.7c-23,2.2-36.1-14.2-59.6-15c-28.9-1-68.6,6.1-84.2,5.2
			c-21-1.2-42.9-2.9-57-4.5c-6.8-0.8-14.7-11.6-21.4-12.3c-24-2.6-41.1,3.4-91.4,3.9c-47.6,0.4-74,21.6-97.6,33.1
			c-9,4.3-5.8,40.4-1.6,72.2c-2.3,29.8,9.9,92.9,10.7,105c1.1,16.8-1.3,32.1,7.5,46.4c12.3,20.1,40.1,22.3,63.7,22.2
			c172.9-0.8,345.6-9.9,518.4-12.6c96.5-1.5,194.1,11.4,285.4-6.6C804.4,532.9,808.5,488.3,800.7,447z"/>
		<linearGradient id="SVGID_7_" gradientUnits="userSpaceOnUse" x1="367.1781" y1="595.5221" x2="367.1781" y2="308.5006">
			<stop  offset="0" style="stop-color:#0063E9"/>
			<stop  offset="0.5027" style="stop-color:#3FC1FF"/>
			<stop  offset="1" style="stop-color:#009AE9"/>
		</linearGradient>
		<path class="st7" d="M805.8,458.2c1.1-26,24.8-87.9,17-113c-12.3-39.4-85.2-28.4-126.4-30.8c-28.6-1.6-68.6,1.6-107.3,2.3
			c-16.9,0.3-26.5-7.7-39.2-6.5c-24.8,2.4-17.7,3.5-42.3,5.4c-16.8,1.3-21.4-5-38-4.8c-43.3,0.7-32.8-11.6-68.3,13.4
			c-14.2,10-48.4,12.7-74.4,15.2c-23,2.2-47.1-7.7-70.6-8.5c-28.9-1-56.3,6.7-71.9,5.8c-21-1.2-43.7,3.3-57.9,1.7
			c-6.8-0.8-12.6-10.7-19.2-11.4c-24-2.6-43.7-1.5-94-1.1c-47.6,0.4-74,12.3-97.6,23.8c-9,4.3-5.8,40.4-1.6,72.2
			c-2.3,29.8,9.9,92.9,10.7,105c1.1,16.8-1.3,32.1,7.5,46.4c12.3,20.1,40.1,22.3,63.7,22.2c172.9-0.8,345.6-9.9,518.4-12.6
			c96.5-1.5,194.1,11.4,285.4-6.6C809.6,544.2,813.7,499.6,805.8,458.2z"/>
		<linearGradient id="SVGID_8_" gradientUnits="userSpaceOnUse" x1="380.4464" y1="519.2704" x2="915.5516" y2="519.2704">
			<stop  offset="0" style="stop-color:#FFFFFF"/>
			<stop  offset="0.1324" style="stop-color:#FBFEFF"/>
			<stop  offset="0.277" style="stop-color:#EDF9FF"/>
			<stop  offset="0.4274" style="stop-color:#D8F2FF"/>
			<stop  offset="0.5817" style="stop-color:#B9E8FF"/>
			<stop  offset="0.7391" style="stop-color:#92DCFF"/>
			<stop  offset="0.8969" style="stop-color:#62CCFF"/>
			<stop  offset="1" style="stop-color:#3FC1FF"/>
		</linearGradient>
		<path class="st8" d="M456,525.6c13.6-5.8,18.1-18.5,30.5-26.6c24.6-16.2,35.3-6.8,51.2-12.3c22.2-7.8,41.7-12.4,64.2-19.3
			c30.2-9.2,63.3,4.9,94.6,0.5c34.3-4.9,68.1,9.7,102.4,4.8c17.2-2.5,51.3-25.5,68.3-21.6c24.6,5.7,27.2,7.3,37.8,30.2
			s12.4,49.2,9.1,74.2c-1.1,8.3-3,17.1-8.8,23.3c-8.4,9-22.3,9.9-34.6,8.6c-12.3-1.3-24.5-0.8-36.8-0.8c0,0-451.6,0-451.7,0
			c-5,0,2.6-19.6,4-21.7c4.6-6.6,41.7-13.8,48.1-18.7C447.4,536,440.8,532.2,456,525.6z"/>
		<linearGradient id="SVGID_9_" gradientUnits="userSpaceOnUse" x1="-26.7924" y1="343.6316" x2="36.7992" y2="343.6316">
			<stop  offset="0" style="stop-color:#FFFFFF"/>
			<stop  offset="0.3945" style="stop-color:#FDFEFF"/>
			<stop  offset="0.5366" style="stop-color:#F6FCFF"/>
			<stop  offset="0.6379" style="stop-color:#EBF8FF"/>
			<stop  offset="0.7199" style="stop-color:#DAF3FF"/>
			<stop  offset="0.7901" style="stop-color:#C4ECFF"/>
			<stop  offset="0.8522" style="stop-color:#A8E3FF"/>
			<stop  offset="0.9083" style="stop-color:#88D9FF"/>
			<stop  offset="0.9583" style="stop-color:#64CDFF"/>
			<stop  offset="1" style="stop-color:#3FC1FF"/>
		</linearGradient>
		<path class="st9" d="M36.8,350.9c-7.6-0.4-14.2-5.2-20.7-9.2c-6.5-4-14.3-7.5-21.6-5.1c-4.6,1.5-7.9,5-11.6,8
			c-2.8,2.3-7.9,4.1-9.7,6.9C-5.5,351.1,15.5,349.6,36.8,350.9z"/>
		<linearGradient id="SVGID_10_" gradientUnits="userSpaceOnUse" x1="713.305" y1="339.5271" x2="776.8966" y2="339.5271">
			<stop  offset="0" style="stop-color:#FFFFFF"/>
			<stop  offset="0.3945" style="stop-color:#FDFEFF"/>
			<stop  offset="0.5366" style="stop-color:#F6FCFF"/>
			<stop  offset="0.6379" style="stop-color:#EBF8FF"/>
			<stop  offset="0.7199" style="stop-color:#DAF3FF"/>
			<stop  offset="0.7901" style="stop-color:#C4ECFF"/>
			<stop  offset="0.8522" style="stop-color:#A8E3FF"/>
			<stop  offset="0.9083" style="stop-color:#88D9FF"/>
			<stop  offset="0.9583" style="stop-color:#64CDFF"/>
			<stop  offset="1" style="stop-color:#3FC1FF"/>
		</linearGradient>
		<path class="st10" d="M776.9,346.7c-7.6-0.4-14.2-5.2-20.7-9.2c-6.5-4-14.3-7.5-21.6-5.1c-4.6,1.5-7.9,5-11.6,8
			c-2.8,2.3-7.9,4.1-9.7,6.9C734.6,347,755.6,345.5,776.9,346.7z"/>
		<g class="st3">
			<g>
				<linearGradient id="SVGID_11_" gradientUnits="userSpaceOnUse" x1="261.2041" y1="461.1597" x2="796.3044" y2="461.1597">
					<stop  offset="0" style="stop-color:#FFFFFF"/>
					<stop  offset="0.3945" style="stop-color:#FDFEFF"/>
					<stop  offset="0.5366" style="stop-color:#F6FCFF"/>
					<stop  offset="0.6379" style="stop-color:#EBF8FF"/>
					<stop  offset="0.7199" style="stop-color:#DAF3FF"/>
					<stop  offset="0.7901" style="stop-color:#C4ECFF"/>
					<stop  offset="0.8522" style="stop-color:#A8E3FF"/>
					<stop  offset="0.9083" style="stop-color:#88D9FF"/>
					<stop  offset="0.9583" style="stop-color:#64CDFF"/>
					<stop  offset="1" style="stop-color:#3FC1FF"/>
				</linearGradient>
				<path class="st11" d="M794.8,497.4c-1.1,8.3-3,17.1-8.7,23.3c-8.4,9-22.3,9.9-34.6,8.6c-12.3-1.3-24.5-0.8-36.8-0.8
					c0,0-451.6,0-451.7,0c-5,0,2.6-19.6,4-21.7c3.7-5.2,27.8-10.9,40.7-15.4c3.4-1.2,6-2.3,7.3-3.3c13.2-10.1,6.6-14,21.8-20.5
					c13.5-5.8,18.1-18.5,30.5-26.6c24.6-16.2,35.3-6.8,51.2-12.3c10.8-3.8,20.9-6.8,31.1-9.7c10.8-3.1,21.6-6,33.2-9.6
					c1.1-0.3,2.1-0.6,3.2-0.9c7.3-1.8,14.7-2.4,22.2-2.3c22.8,0.3,46.4,6.9,69.1,3.6c34.3-4.9,68.1,9.7,102.4,4.8
					c10.4-1.5,27.2-10.6,42.5-16.7c4.4-1.7,8.6-3.2,12.6-4.2c5-1.2,9.5-1.6,13.2-0.8c24.6,5.7,27.2,7.3,37.8,30.2
					C796.3,446.1,798.1,472.4,794.8,497.4z"/>
			</g>
			<linearGradient id="SVGID_12_" gradientUnits="userSpaceOnUse" x1="449.4664" y1="419.4056" x2="734.6537" y2="419.4056">
				<stop  offset="0" style="stop-color:#3FC1FF"/>
				<stop  offset="1" style="stop-color:#009AE9"/>
			</linearGradient>
			<path class="st12" d="M734.7,393.8c-3.7,7.7-4.6,16.4-6.8,24.6c-2.3,8.5-6.6,17.3-14.5,21c-5.5,2.6-11.8,2.3-17.8,1.9
				c-32.3-2.3-64.9-8-96.9-3c-20.8,3.2-42.3,10.8-62.3,4.2c-15.1-5-28.2-17.8-44-16.8c-6,0.4-11.7,2.8-17.4,4.5
				c-5.8,1.7-12.1,2.7-17.7,0.3c-4.5-1.9-8-6.8-7.7-11.4c10.8-3.1,21.6-6,33.2-9.6c1.1-0.3,2.1-0.6,3.2-0.9
				c7.3-1.8,14.7-2.4,22.2-2.3c22.8,0.3,46.4,6.9,69.1,3.6c34.3-4.9,68.1,9.7,102.4,4.8c10.4-1.5,27.2-10.6,42.5-16.7
				C726.4,396.2,730.7,394.8,734.7,393.8z"/>
		</g>
	</g>
	<g>
		<path class="st5" d="M545.8,371.4c-0.1,0.9-0.1,1.8-0.1,2.7c-0.2,4.3-0.5,8.6-3.8,11.8c-1.3,1.3-2.9,2.4-4.6,3.3
			c-2.1,1.1-4.4,1.8-6.7,2.5c-2.4,0.7-4.8,1.2-7.1,1.9c-1.2,0.4-2.5,0.8-3.6,1.3c-1.5,0.7-1.6,0.8-2,2.5c0,0.1,0,0.2-0.1,0.3
			c-0.2,0.2-0.5-0.2-0.5-0.4c-0.3-1.6-3.4,1.8-3.9,2.4c-1.5,1.9-2.9,4.4-2.4,6.9c-0.8-0.3-1.9,1.8-2.7,2.3c-1.1,0.7-2.4,0.7-3.7,0.5
			c-0.2,0-0.4-0.1-0.6-0.1c-3.6-1-7.4-3.6-10.1-6.8c-0.7-0.9-1.3-1.8-1.9-2.7c-1.3-2.4-2-5.1-1.6-7.8c0.6-4.1,3.5-7.1,6.9-9.5
			c-0.3-0.2-0.6-0.3-0.9-0.5c1-0.1,2-0.5,3-0.9l0,0c2-0.9,3.9-2.3,5.6-3.4c2.4-1.5,5.2-3.2,7.7-5.2c1.3-1.1,2.5-2.2,3.5-3.4
			c2.7-3.4,3.9-8.4,4.9-12.5c1-4.1,3-4.6,7.6-4.4c3.9,0.2,7.7,1.6,10.7,4.1C543.7,359.5,546.2,365.6,545.8,371.4z"/>
		<path class="st13" d="M545.8,371.4c-0.1,0.9-0.1,1.8-0.1,2.7c-0.2,4.3-0.5,8.6-3.8,11.8c-1.3,1.3-2.9,2.4-4.6,3.3L512.7,372
			c1.3-1.1,2.5-2.2,3.5-3.4c2.7-3.4,3.9-8.4,4.9-12.5c1-4.1,3-4.6,7.6-4.4c3.9,0.2,7.7,1.6,10.7,4.1
			C543.7,359.5,546.2,365.6,545.8,371.4z"/>
		<path class="st5" d="M662,382.4c0.2,2.6-3.4,7.7-6,10.9c-0.5,0.6-1,1.2-1.4,1.6c-5.4,6.1-8,9.4-9.5,11.7c-1.3,2-1.8,3.3-2.6,5
			c-0.3,0.7-0.6,1.4-0.7,2.1c-1,4.5,1.1,8.3-2.4,8.6c-1.3,0.1-7.8,1.7-14.8,1.8c-4.1,0.1-8.7-0.2-11.9-0.9c-1.1-0.2-2.2-0.4-3.1-0.6
			c-3.8-0.7-6.1-1-6.1-3.6c0-0.7,0.3-1.3,0.7-1.7c0.9-0.9,2.6-1.2,3.9-1.4c2.5-0.3,4.9,0,7-1.7c2.9-2.3,4.3-6,5.4-9.5
			c-0.3-0.1-0.6-0.2-1-0.3c1.3-2.3,2.3-4.1,2.8-6.7c0.1-0.3,0.1-0.5,0.1-0.8c0.3-1.8,0.4-3.5,0.2-5.1c-0.5-3.6-2.7-8.2-4.9-12.6
			c-2.3-4.7-4.5-9.3-4.7-12.8c-0.6-9.1,6.8-11.5,11.4-11.9C631.8,354.1,660.4,363.4,662,382.4z"/>
		<path class="st14" d="M662,382.4c0.2,2.6-3.4,7.7-6,10.9c-0.5,0.6-1,1.2-1.4,1.6c-5.4,6.1-8,9.4-9.5,11.7c-0.5-0.4-1-0.8-1.5-1.1
			c-2.9-2.4-6.1-4.3-9.5-5.7c-3.1-1.3-6.3-2.1-9.6-2.6c-0.8-0.1-1.5-0.2-2.2-0.2c0.3-1.8,0.4-3.5,0.2-5.1c-0.5-3.6-2.7-8.2-4.9-12.6
			c-2.3-4.7-4.5-9.3-4.7-12.8c-0.6-9.1,6.8-11.5,11.4-11.9C631.8,354.1,660.4,363.4,662,382.4z"/>
		<path class="st5" d="M512.9,347.3c-0.2,0.4-0.5,0.7-0.8,1.1c-3.4,4.8-7.6,8.8-12.8,9.3c-0.8,0.1-1.2-0.1-1.6,0.5
			c-0.1,0.2-0.4,1.6-0.3,1.8c-0.4-1.4-4.1-5-5.7-3.2c-0.2,0.2-0.2,1.3,0,1.4c-1.4-0.7-2.7-1.7-3.8-2.8c-0.2-0.2-2.6-3.6-3-3
			c-0.3,0.4-0.4,1-0.6,1.5c-1.2-1.1-2.5-2.3-3.7-3.4c-0.4-0.3-1-1.2-1.5-1.1c-0.5,0.1-0.8,0.6-0.6,1.1c-0.4-0.8-1-2.8-1.9-3
			c-0.9-0.2-1.6,0.8-1.5,1.6c-0.5-3.8-3.6-4.4-6.6-5.9c-2.1-1-4.1-2.2-5.8-3.7c-0.7-0.6-1.5-1.3-2.1-2.1c-0.1-0.2-0.3-0.3-0.4-0.5
			c-0.2-0.3-0.3-0.5-0.5-0.8c-0.1-0.2-0.2-0.4-0.3-0.6c-0.2-0.4-0.3-0.9-0.4-1.3c0-0.2-0.1-0.4-0.1-0.6c0-0.3-0.1-0.5-0.1-0.8
			c0-0.2,0-0.5,0-0.7c0-0.2,0-0.3,0-0.5c0-0.1,0-0.2,0-0.4c0.1-0.8,0.3-1.5,0.5-2.2c0.1-0.3,0.2-0.5,0.4-0.7
			c0.1-0.1,0.1-0.2,0.2-0.2c0.1-0.1,0.2-0.2,0.3-0.2c0.1-0.1,0.2-0.2,0.4-0.2c0.1-0.1,0.2-0.1,0.4-0.2c0.1-0.1,0.3-0.1,0.4-0.2
			c0.2-0.1,0.3-0.1,0.5-0.1c0.3-0.1,0.7-0.2,1.1-0.2c0.5-0.1,1.1-0.1,1.7-0.2c2.4-0.1,5.4,0,8.4-0.3c0.3,0,0.6-0.1,0.8-0.1
			c1.8-0.5,2.8-1.8,5.1-2.3c9-1.7,19.2-1.1,27.5,0.2c1.1,0.2,2.1,0.4,3.1,0.6c2.2,0.4,4.2,0.9,5.9,1.4c0.3,0.1,0.6,0.2,0.8,0.4
			C519.9,328.7,518.5,338.9,512.9,347.3z"/>
		<path class="st5" d="M688.7,354.1L688.7,354.1c-0.8-7-4-13.8-7.8-19.7c-2.4-3.7-5.1-7.1-8.2-10.2c-1.5-1.5-9.7-6.8-8.5-8.7
			c-4.6-0.8-8.8-2.7-13.2-4.1c0.2-0.4,0.3-0.7,0.5-1.1c-1.4,0.2-2.8,0.2-4.2,0.1c-0.3-0.1-0.7-0.1-1-0.2l0.6,0.2
			c-2.8-0.2-5.6-0.8-8.5-0.8c-1.9,0-4,0.2-6.5,0.5c-7.6,0.9-17.8,3-28.2,4.6c-7.2,1.1-14.4,1.9-21,1.9c-7.2,0-11.9-1.5-16.1-3
			c-2.8-1-5.2-2-8.1-2.5c-2.8-0.5-5.8-0.5-9.8,0.3c-0.9,0.2-1.9,0.4-2.8,0.6c-3.2,0.8-6,2.2-9,3.6c-2.1,0.9-4.2,1.7-6.4,2.3
			c-1.8,0.6-3.7,1.1-5.6,1.5c-2,0.5-4.4,1.6-6.4,1.6c-0.1-0.3-0.2-0.7-0.3-1c-2.8,2.1-6.1,2.3-9.4,3c-0.1,0-0.1,0-0.2,0
			c-1.7,0.3-3.3,0.9-4.7,1.6c-0.8,0.4-1.5,0.8-2.2,1.3c-6.5,4.6-8.7,13.1-8.7,19.6c0,3,0.9,5.9,2.4,8.5c0.8,1.4,1.9,2.7,3,3.9
			c0.3,0.3,0.6,0.7,0.9,1.1c0,0.1,0.1,0.1,0.1,0.2c0.3,0.4,0.6,0.9,0.8,1.3c0.3,0.5,0.5,1,0.7,1.5c0.4,0.7,0.5,0,1-0.1
			c1-0.4,2.2,0.9,2.9,1.4c1,0.7,2.1,1.3,3.1,1.9c0.4,0.2,1.1,0.4,1.5,0.8c0.4,0.4,0.4,1,0.8,1.3c0.7,0.5,1.4-0.1,2.1,0
			c0.8,0.1,1.7,0.7,2.4,1.1c0.4,0.2,0.8,0.3,1.3,0.5c1.4,0.5,2.8,1.1,4.2,1.5c4,1.4,8.2,2.5,12.3,3.5c0.7,0.2,1.5,0.3,2.2,0.5
			c0.3,0.1,0.7,0.2,1,0.2c2.9,0.7,6,1.3,9.1,1.9c0.2,0,0.5,0.1,0.7,0.1c11,2.2,23.1,4.5,36,8.4c0.6,0.2,1.3,0.4,1.9,0.6c0,0,0,0,0,0
			c0.3,0.1,0.5,0.2,0.8,0.2c1.2,0.4,2.3,0.7,3.5,1.2c0.7,0.2,1.4,0.5,2.1,0.7c1.5,0.5,2.9,1,4.4,1.6c1.5,0.6,2,1.6,3,2.9
			c-0.5-0.8,0.8-1.3,1.2-1.2c0.8,0.1,1.9,1.4,2.4,2c0-0.5,0.1-1,0.1-1.5l-0.5-0.1c1.4,0.3,2.8,0.6,4.2,0.9c0.5,0.1,1.5,0,2,0.3
			c0.5,0.3,0.8,1,1.4,1.3c0.4-1.4,0.7-1.1,2.2-1c1.1,0.1,2.1,0,3.1,0.4c1.1,0.4,2.1,1.2,3,1.9c-0.7-0.6,0.3-1.9,0.9-2
			c1.9-0.5,3.5,0.4,4.9,1.7c0.1-0.9,0-1.4,0.8-1.6c0.9-0.3,2.7-0.2,3.5,0.3c1.1,0.6,1.6,1.9,2.9,2.3c-0.7-0.2-1.7-1.8-1.1-2.4
			c0.5-0.5,3,0,3.7,0c3.6,0.2,7,0.4,10.2,0.4h0.3c0.6,0,1.2,0,1.8,0c1.8,0,3.5,0,5.2,0c2.4-0.1,4.8-0.2,7-0.4
			c1.3-0.1,2.5-0.3,3.8-0.4c12.7-1.8,21.9-6.3,27.3-14.7c0.3-0.4,0.5-0.9,0.7-1.4C690.1,371.6,689.7,362.4,688.7,354.1z
			 M598.1,390.8c0.4,0,1,0.2,1.4,0.4L598.1,390.8z"/>
		
			<ellipse transform="matrix(0.945 0.3272 -0.3272 0.945 134.5894 -140.1184)" class="st15" cx="483.7" cy="329.9" rx="2" ry="1.3"/>
		<path class="st5" d="M591.6,412.7c0.2,6-7.1,12.9-10.7,14.8c-1.6,0.8-9,1.8-15.8,1.9c-1.4,0-2.8,0-4.1-0.1
			c-5.7-0.3-7.6-0.2-8.9-3.1c-0.4-1-0.2-1.9,0.5-2.7c2.3-2.7,9.5-4.4,9.5-7.4c-0.1-4.5-5.7-12.4-9.5-18.2c-0.1,0.5-0.1,1-0.2,1.5
			c-1.7-6.3-6.2-11.1-10.5-16.1c-2.4-2.8-4.7-5.7-6.3-8.9c0-0.1-0.1-0.2-0.1-0.2c-3.4-6.8,2.1-13.4,6.4-16.7
			c0.9-0.7,1.7-1.2,2.4-1.6c6.7-3.6,21.7-10.1,30.7,6.7c1.5,2.8,2.5,9.5,3.8,12.8v0c1.4,3.4,2.9,6.7,4.4,10c0.7,1.4,1.3,2.9,2,4.3
			c1,2.1,1.9,4.2,2.7,6.3c0.8,2.1,1.3,4.3,3.4,5.5c-2.1,0.9-0.8,2.6-0.5,4.5C591.3,408.2,591.5,410.4,591.6,412.7z"/>
		
			<ellipse transform="matrix(0.9449 0.3272 -0.3272 0.9449 134.5602 -140.399)" class="st16" cx="484.5" cy="329.7" rx="0.7" ry="0.5"/>
		<path class="st13" d="M509.3,342c-0.7,0.6-1.7,0.1-1.7-0.8c-0.1-3.7-0.1-11.2,1.6-12.7C511.4,326.6,524.4,329.5,509.3,342z"/>
		<path class="st15" d="M510.8,337.8c-0.5,0.5-1.4,0.1-1.4-0.6c0-1.9,0.1-4.7,0.8-5.3C511.2,331,517.1,332.3,510.8,337.8z"/>
		<path class="st13" d="M474.1,326.1c-0.1,0.4-0.2,0.8-0.3,1.1c-0.9,2.3-3.4,2.6-4.9,4.4c-0.8,1-1.2,2.3-1.3,3.6
			c-0.1,1.3,0,2.7,0.3,4c0.3,1.3,0.9,2.5,0.7,3.9c-2.1-1-4.1-2.2-5.8-3.7c-0.7-0.6-1.5-1.3-2.1-2.1c-0.1-0.2-0.3-0.3-0.4-0.5
			c-0.2-0.3-0.3-0.5-0.5-0.8c-0.1-0.2-0.2-0.4-0.3-0.6c-0.2-0.4-0.3-0.9-0.4-1.3c0-0.2-0.1-0.4-0.1-0.6c0-0.3-0.1-0.5-0.1-0.8
			c0-0.2,0-0.5,0-0.7c0-0.2,0-0.3,0-0.5c0-0.1,0-0.2,0-0.4c0.1-0.8,0.3-1.5,0.5-2.2c0.1-0.3,0.2-0.5,0.4-0.7
			c0.1-0.1,0.1-0.2,0.2-0.2c0.1-0.1,0.2-0.2,0.3-0.2c0.1-0.1,0.2-0.2,0.4-0.2c0.1-0.1,0.2-0.1,0.4-0.2c0.1-0.1,0.3-0.1,0.4-0.2
			c0.2-0.1,0.3-0.1,0.5-0.1c0.3-0.1,0.7-0.2,1.1-0.2c0.5-0.1,1.1-0.1,1.7-0.2c2.4-0.1,5.4,0,8.4-0.3
			C473.5,326.2,473.8,326.2,474.1,326.1z"/>
		<path class="st13" d="M649,393.9c-1.7,0-3.4,0.1-5.2,0c-0.6,0-1.2,0-1.8,0h-0.3c-3.3-0.1-6.7-0.2-10.2-0.4c-0.7,0-3.2-0.6-3.7,0
			c-0.6,0.6,0.5,2.2,1.1,2.4c-1.2-0.4-1.8-1.7-2.9-2.3c-0.8-0.5-2.6-0.6-3.5-0.3c-0.8,0.3-0.7,0.8-0.8,1.6c-1.4-1.2-3-2.1-4.9-1.7
			c-0.6,0.1-1.5,1.5-0.9,2c-0.9-0.7-1.9-1.5-3-1.9c-1-0.4-2.1-0.3-3.1-0.4c-1.4-0.1-1.7-0.4-2.2,1c-0.5-0.3-0.9-1-1.4-1.3
			c-0.5-0.3-1.4-0.2-2-0.3c-1.4-0.2-2.8-0.5-4.2-0.9l0.5,0.1c0,0.5-0.1,1-0.1,1.5c-0.4-0.6-1.6-1.9-2.4-2c-0.4,0-1.7,0.5-1.2,1.2
			c-0.9-1.4-1.4-2.3-3-2.9c-1.4-0.6-2.9-1.1-4.4-1.6c-0.7-0.2-1.4-0.5-2.1-0.7c-1.2-0.4-2.3-0.8-3.5-1.2c-0.3-0.1-0.5-0.2-0.8-0.2
			l-0.2-0.3l-4.4-10c0.7,0.4,27.2,16.2,62,9.2C645.8,391.7,648.1,393.5,649,393.9z"/>
		<path class="st15" d="M462.8,329.7c-0.7,2.1-2.3,3.6-3.7,3.8c0-0.3-0.1-0.5-0.1-0.8c0-0.2,0-0.5,0-0.7c0-0.2,0-0.3,0-0.5
			c0-0.1,0-0.2,0-0.4c0.1-0.8,0.3-1.5,0.5-2.2c0.1-0.3,0.2-0.5,0.4-0.7c0.1-0.1,0.1-0.2,0.2-0.2c0.1-0.1,0.2-0.2,0.3-0.2
			c0.1-0.1,0.2-0.2,0.4-0.2c0.1-0.1,0.2-0.1,0.4-0.2c0.1-0.1,0.3-0.1,0.4-0.2c0.2-0.1,0.3-0.1,0.5-0.1c0.3-0.1,0.7-0.2,1.1-0.2
			C463.3,327.6,463.2,328.6,462.8,329.7z"/>
		<path class="st5" d="M687.1,381.4c-1.5,3.2-2.6,6.8-2.4,10.3c0.2,2.7,1.5,7.5,4.5,8.1c0.3,0.1,0.7,0.1,0.9,0.3
			c0.2,0.2,0.1,0.6,0.3,0.9c0.2,0.4,1,0.7,1.3,0.9c2,1.5,4.4,3.9,6.9,4.1c-0.3,1,0.6,1.1,0.8,2c0.2,0.9,0.2,2-0.4,2.7
			c-0.6,0.8-2.3,5.9-5.7,10.2c-3.5,4.5-9.3,8-13.5,8.1c-2.3,0.1-5.3-0.1-8-0.6c-3.9-0.7-7.3-1.9-7.4-3.7c0-0.4,0.3-0.8,1-1.2
			c2.4-1.4,8.5-2.6,6.7-5.1c-1.7-2.3-4.6-4.8-7.9-7.4c-0.2,0.5-0.4,1-0.6,1.6c-0.5-1-0.9-2.3-1.6-3.2c-1-1.2-2.7-2.1-3.9-3
			c-5.9-4.6-12.6-11.3-17.9-15.6c-7.1-5.8-14.3-16.3-11.4-20c4.6-6,44.4-29,59.5-17.2c2.5,1.9,3.3,19,0,25.3c-1,2-2,3.6-0.9,5.8
			c-0.5,0-1-0.2-1.4-0.5"/>
		<path class="st15" d="M503.9,409c-3.6-1-7.4-3.6-10.1-6.8c-0.7-0.9-1.3-1.8-1.9-2.7c1.4-0.3,2.7,0.9,2.6,2.6
			c1.1-0.2,2.2-0.1,3.1,0.6c0.9,0.7,1.4,1.8,1.3,2.9c1.7-0.5,3.7,0.4,4.5,2C503.8,408,504,408.5,503.9,409z"/>
		<path class="st15" d="M565.1,429.4c-1.4,0-2.8,0-4.1-0.1c-5.7-0.3-7.6-0.2-8.9-3.1c-0.4-1-0.2-1.9,0.5-2.7c1-0.3,2-0.4,2.8,0
			c1.3,0.6,2.1,2.1,1.8,3.5c0.6-0.6,1.5-0.9,2.3-0.6c0.8,0.2,1.5,0.9,1.7,1.7c0.7-0.4,1.4-0.6,2.1-0.5c0.7,0.1,1.4,0.6,1.6,1.4
			C565.1,429,565.1,429.2,565.1,429.4z"/>
		<path class="st5" d="M691.9,349.8c1.2,1.7,2.3,3.5,2.3,5.6c0.1,2.4-1.8,4.9-4.2,4.8c-1.5-0.1-2.8-1.1-3.5-2.4
			c-0.8-1.3-1.1-2.7-1.3-4.2c-0.3-1.9-2.2-9.2-0.3-10.4C686.9,341.9,690.8,348.2,691.9,349.8z"/>
		<path class="st13" d="M631.8,310.1c-13.7,3.5-27.5,6.9-41.2,10.4c-4.5,1.1-9.2,2.3-13.7,1.2c-4-1-7.4-3.5-10.7-6
			c-1.7-1.3-3.4-2.5-5.3-3.6c-0.6-0.3-1.6-0.7-2.5-1.1c2.8,0.5,5.3,1.5,8.1,2.5c4.1,1.5,8.8,3,16.1,3c6.6,0,13.9-0.8,21-1.9
			C614,313.1,624.2,311,631.8,310.1z"/>
		<path class="st17" d="M616.7,365.8c3.2,6.5,8.7,11.8,15,15.4c-2.2-1.3-4.4-5.6-5.8-7.7c-1.9-2.9-3.5-5.8-4.9-8.9
			c-2.9-6.2-3.6-12.9-6-19C611.4,350.6,614.2,360.7,616.7,365.8z"/>
		<path class="st17" d="M529.4,356.5c0.2,2.8,1.6,5.5,3.7,7.3c-0.7-2.6-1.5-5.3-1.5-8.1c0-2.7,0.7-5.5,2.5-7.5
			C530.2,348.1,529.1,353.7,529.4,356.5z"/>
		<path class="st15" d="M609.6,422.7c-3.8-0.7-6.1-1-6.1-3.6c0-0.7,0.3-1.3,0.7-1.7c1.6,0.4,2.8,1.8,0.9,2.6c1-0.4,2.3,0.5,2.3,1.6
			c0.6-0.7,2.1-0.2,2.2,0.7C609.6,422.5,609.6,422.6,609.6,422.7z"/>
		<path class="st15" d="M671.8,428.4c-3.9-0.7-7.3-1.9-7.4-3.7c0-0.4,0.3-0.8,1-1.2c1.1,0.1,2.2,1.1,1.9,2.4
			c0.6-0.2,1.3-0.3,1.9-0.1c0.6,0.2,1.1,0.9,0.9,1.4c0.4,0,0.9,0,1.3,0.2C671.6,427.6,671.8,428,671.8,428.4z"/>
	</g>
	<g>
		<g>
			<linearGradient id="SVGID_13_" gradientUnits="userSpaceOnUse" x1="39.8589" y1="441.6001" x2="208.9314" y2="441.6001">
				<stop  offset="0" style="stop-color:#3FC1FF"/>
				<stop  offset="1" style="stop-color:#009AE9"/>
			</linearGradient>
			<path class="st18" d="M84.9,452.4c7.8,0.4,15.5-1.9,23.3-3.1c10.2-1.5,20.6-1.2,30.9-0.9c17,0.5,34,1.1,51,1.6
				c4.1,0.1,8.4,0.2,12.2-1.3c3.8-1.6,7-5.3,6.6-9.5c-51.1-9.1-103.6-10.9-155.2-5.1c-8.9,1-22.2,7.5-6.7,10.5
				C59.3,446.9,72.4,451.8,84.9,452.4z"/>
			<linearGradient id="SVGID_14_" gradientUnits="userSpaceOnUse" x1="51.5665" y1="420.2568" x2="191.1628" y2="420.2568">
				<stop  offset="0" style="stop-color:#FFFFFF"/>
				<stop  offset="0.3945" style="stop-color:#FDFEFF"/>
				<stop  offset="0.5366" style="stop-color:#F6FCFF"/>
				<stop  offset="0.6379" style="stop-color:#EBF8FF"/>
				<stop  offset="0.7199" style="stop-color:#DAF3FF"/>
				<stop  offset="0.7901" style="stop-color:#C4ECFF"/>
				<stop  offset="0.8522" style="stop-color:#A8E3FF"/>
				<stop  offset="0.9083" style="stop-color:#88D9FF"/>
				<stop  offset="0.9583" style="stop-color:#64CDFF"/>
				<stop  offset="1" style="stop-color:#3FC1FF"/>
			</linearGradient>
			<path class="st19" d="M52.1,439.6c1.3-2.1,3.5-4,5-5.9c1.8-2.1,3.2-4.8,5.4-6.5c2.2-1.8,4.4-0.9,7.2-0.5c0.4,0.1,0.8,0.1,1.1,0
				c0.3-0.2,0.6-0.5,0.8-0.8c1.5-2.6,2.2-5.9,4.5-7.9c2.5-2.2,5-0.9,7.8-0.4c3.1,0.6,4.9-2.1,7.2-4.2c2.5-2.2,5-4.4,7.5-6.7
				c2.1-1.9,5.1-6.1,7.7-7c2.5-0.9,4.3,2.3,6,3.8c2,1.8,4.3,3.4,7,3.5c5,0.2,10.5-1.6,14.9-3.8c0.8-0.4,1.7-0.8,2.5-0.5
				c0.7,0.3,1,1,1.3,1.7c1.9,4.6,3.5,10.8,6.8,14.7c3.6,5.8,10.1,9.1,16.9,8.8c10.1-0.5,20.4,0.8,28.1,7.1c1,0.8,1.6,2.1,1.3,3.4
				c-0.5,2.1-2.7,2.3-4.5,2.3c-35.9,0-71.8,0-107.8-0.1c-4.5,0-9,0-13.5,0c-4.4,0-9.4,0.6-13.8-0.1
				C51.7,440.2,51.9,439.9,52.1,439.6z"/>
			<linearGradient id="SVGID_15_" gradientUnits="userSpaceOnUse" x1="51.5665" y1="438.1461" x2="191.1627" y2="438.1461">
				<stop  offset="0" style="stop-color:#3FC1FF"/>
				<stop  offset="1" style="stop-color:#009AE9"/>
			</linearGradient>
			<path class="st20" d="M190.1,435.4c-0.7,0.2-1.5,0.2-2.3,0.2c-35.9,0-71.8,0-107.8-0.1c-4.5,0-9,0-13.5,0
				c-3.6,0-7.6,0.4-11.3,0.2c-1.2,1.3-2.4,2.6-3.3,4c-0.2,0.3-0.4,0.6-0.5,0.9c4.3,0.8,9.3,0.1,13.8,0.1c4.5,0,9,0,13.5,0
				c35.9,0,71.8,0,107.8,0.1c1.8,0,4.1-0.2,4.5-2.3C191.3,437.3,190.9,436.2,190.1,435.4z"/>
		</g>
		<g>
			<linearGradient id="SVGID_16_" gradientUnits="userSpaceOnUse" x1="208.1217" y1="351.663" x2="256.9992" y2="351.663">
				<stop  offset="0" style="stop-color:#3FC1FF"/>
				<stop  offset="1" style="stop-color:#009AE9"/>
			</linearGradient>
			<path class="st21" d="M221.1,354.4c2.3,0.1,4.5-0.5,6.7-0.8c2.9-0.4,5.9-0.3,8.9-0.2c4.9,0.1,9.8,0.3,14.7,0.4
				c1.2,0,2.4,0.1,3.5-0.3c1.1-0.4,2-1.4,1.9-2.4c-14.8-2.3-29.9-2.8-44.9-1.3c-2.6,0.3-6.4,1.9-1.9,2.7
				C213.7,353,217.5,354.3,221.1,354.4z"/>
			<linearGradient id="SVGID_17_" gradientUnits="userSpaceOnUse" x1="216.9217" y1="343.0379" x2="257.317" y2="343.0379">
				<stop  offset="0" style="stop-color:#FFFFFF"/>
				<stop  offset="0.3945" style="stop-color:#FDFEFF"/>
				<stop  offset="0.5366" style="stop-color:#F6FCFF"/>
				<stop  offset="0.6379" style="stop-color:#EBF8FF"/>
				<stop  offset="0.7199" style="stop-color:#DAF3FF"/>
				<stop  offset="0.7901" style="stop-color:#C4ECFF"/>
				<stop  offset="0.8522" style="stop-color:#A8E3FF"/>
				<stop  offset="0.9083" style="stop-color:#88D9FF"/>
				<stop  offset="0.9583" style="stop-color:#64CDFF"/>
				<stop  offset="1" style="stop-color:#3FC1FF"/>
			</linearGradient>
			<path class="st22" d="M257.3,351.5c-1-3.1-5-4-7.1-6.5c-2.7-3-2.7-8.5-6.4-10.1c-2.5-1.1-5.3,0.2-7.4,1.9
				c-2.1,1.7-3.8,3.9-6.1,5.2c-5.8,3.1-23,9.3-5.9,8.9C235.3,350.6,246.3,350.8,257.3,351.5z"/>
		</g>
		<linearGradient id="SVGID_18_" gradientUnits="userSpaceOnUse" x1="324.3146" y1="388.0262" x2="429.1072" y2="388.0262">
			<stop  offset="0" style="stop-color:#3FC1FF"/>
			<stop  offset="1" style="stop-color:#009AE9"/>
		</linearGradient>
		<path class="st23" d="M352.2,394.7c4.9,0.2,9.6-1.2,14.4-1.9c6.3-1,12.7-0.8,19.1-0.6c10.5,0.3,21.1,0.7,31.6,1
			c2.6,0.1,5.2,0.1,7.6-0.8c2.4-1,4.4-3.3,4.1-5.9c-31.7-5.7-64.2-6.7-96.2-3.2c-5.5,0.6-13.8,4.6-4.1,6.5
			C336.4,391.3,344.5,394.3,352.2,394.7z"/>
		<linearGradient id="SVGID_19_" gradientUnits="userSpaceOnUse" x1="155.8409" y1="302.3488" x2="368.9244" y2="302.3488">
			<stop  offset="0" style="stop-color:#3FC1FF"/>
			<stop  offset="1" style="stop-color:#009AE9"/>
		</linearGradient>
		<path class="st24" d="M221.1,306.4c9.6,0.9,19.2,0.7,28.7-0.7c13-1.9,25.6,0.5,38.7,0.9c21.8,0.7,17.1,8.4,38.9,9.1
			c5.3,0.2,31.5-2.7,36.4-4.7c0.6-0.3,1.2-0.6,1.8-1.1c6.6-5.4,2.6-16.3-6-16.5c-63.2-1.9-124.1-8-186.1-1.1
			c-11.4,1.3-28.5,9.6-8.5,13.4C181.9,308.9,204.9,304.9,221.1,306.4z"/>
		<linearGradient id="SVGID_20_" gradientUnits="userSpaceOnUse" x1="333.3036" y1="374.3905" x2="429.9781" y2="374.3905">
			<stop  offset="0" style="stop-color:#FFFFFF"/>
			<stop  offset="0.3945" style="stop-color:#FDFEFF"/>
			<stop  offset="0.5366" style="stop-color:#F6FCFF"/>
			<stop  offset="0.6379" style="stop-color:#EBF8FF"/>
			<stop  offset="0.7199" style="stop-color:#DAF3FF"/>
			<stop  offset="0.7901" style="stop-color:#C4ECFF"/>
			<stop  offset="0.8522" style="stop-color:#A8E3FF"/>
			<stop  offset="0.9083" style="stop-color:#88D9FF"/>
			<stop  offset="0.9583" style="stop-color:#64CDFF"/>
			<stop  offset="1" style="stop-color:#3FC1FF"/>
		</linearGradient>
		<path class="st25" d="M430,386.5c-11.6-0.7-21.6-7.9-31.5-13.9c-7.6-4.6-15.5-6.9-23.7-10.1c-2.7-1-5.8-1.6-8.4-0.4
			c-1.3,0.6-2.4,1.6-3.5,2.6c-3.1,2.9-6.1,5.7-8.9,8.8c-2.4,2.7-5.5,3.7-8.7,5.1c-3.8,1.8-9.6,5.1-12,8.7
			C365.6,386.9,397.6,384.6,430,386.5z"/>
		<linearGradient id="SVGID_21_" gradientUnits="userSpaceOnUse" x1="333.3036" y1="384.1425" x2="429.9781" y2="384.1425">
			<stop  offset="0" style="stop-color:#3FC1FF"/>
			<stop  offset="1" style="stop-color:#009AE9"/>
		</linearGradient>
		<path class="st26" d="M412.6,381c-24.7-0.5-49.2,0.9-73.9,1.4c-2.2,1.5-4.2,3.2-5.4,5c32.3-0.5,64.3-2.8,96.7-0.9
			C423.8,386.1,418.1,383.9,412.6,381z"/>
		<g>
			<linearGradient id="SVGID_22_" gradientUnits="userSpaceOnUse" x1="221.717" y1="252.2779" x2="314.4928" y2="345.0537">
				<stop  offset="0" style="stop-color:#FFFFFF"/>
				<stop  offset="0.3945" style="stop-color:#FDFEFF"/>
				<stop  offset="0.5366" style="stop-color:#F6FCFF"/>
				<stop  offset="0.6379" style="stop-color:#EBF8FF"/>
				<stop  offset="0.7199" style="stop-color:#DAF3FF"/>
				<stop  offset="0.7901" style="stop-color:#C4ECFF"/>
				<stop  offset="0.8522" style="stop-color:#A8E3FF"/>
				<stop  offset="0.9083" style="stop-color:#88D9FF"/>
				<stop  offset="0.9583" style="stop-color:#64CDFF"/>
				<stop  offset="1" style="stop-color:#3FC1FF"/>
			</linearGradient>
			<path class="st27" d="M361.7,297.8c0,0-14.7,2.2-19.4,2.2c-9.6,0-19.2-0.1-28.7-0.1h-2.8c-3.6,0-7.1,0-10.7,0c-1.9,0-3.7,0-5.6,0
				c-2.8,0-5.5,0-8.3,0c-1.9,0-3.7,0-5.5,0H280c-10.6,0.1-21.2,0.4-31.7,0.7l-11.6,0.4c-10.5,0.3-20.9,2-31.4,1.9
				c-4.7,0-9.3-0.3-14-0.5c-2.3-0.1-4.7-0.2-7-0.3c-1.6,0-6.5,0.9-7.8,0.1c-2.8-1.7,4.6-7.5,6.6-9.6c5.9-6.3,11.9-12.3,17.5-18.9
				c0.5-0.6,1-1.2,1.5-1.8c0.4-0.5,0.9-1,1.5-1.3c1.3-0.5,2.7,0.6,3.5,1.8c3.2,4.8,6.4,0.3,9.6-2.2c4.1-3.3,8.2-6.5,12.3-9.8
				c0.6-0.5,1.2-0.9,2-1c1,0,1.8,0.7,2.5,1.4c2.8,2.9,5.9,8.5,10.4,8.8c4.5,0.4,10.1-5.3,13.6-7.7c10.1-6.9,20.3-13.7,30.4-20.6
				c1.3-0.9,2.7-1.8,4.3-1.8c1.5,0,2.9,0.9,4.1,1.7c6.3,4.2,12.8,8.4,19.1,12.6c5.3,3.6,8.4,9.3,12.9,13.8
				c5.2,5.7,12.7,10.6,18.9,15C351.5,286,361.7,297.8,361.7,297.8z"/>
			<linearGradient id="SVGID_23_" gradientUnits="userSpaceOnUse" x1="341.8403" y1="269.8806" x2="272.1986" y2="269.8806">
				<stop  offset="0" style="stop-color:#FFFFFF"/>
				<stop  offset="0.1324" style="stop-color:#FBFEFF"/>
				<stop  offset="0.277" style="stop-color:#EDF9FF"/>
				<stop  offset="0.4274" style="stop-color:#D8F2FF"/>
				<stop  offset="0.5817" style="stop-color:#B9E8FF"/>
				<stop  offset="0.7391" style="stop-color:#92DCFF"/>
				<stop  offset="0.8969" style="stop-color:#62CCFF"/>
				<stop  offset="1" style="stop-color:#3FC1FF"/>
			</linearGradient>
			<path class="st28" d="M361.7,297.8c0,0-14.7,2.2-19.4,2.2c-9.6,0-19.2-0.1-28.7-0.1h-2.8l-18.7-60.2c1.5,0,2.9,0.9,4.1,1.7
				c6.3,4.2,12.8,8.4,19.1,12.6c5.3,3.6,8.4,9.3,12.9,13.8c5.2,5.7,12.7,10.6,18.9,15C351.5,286,361.7,297.8,361.7,297.8z"/>
		</g>
		<linearGradient id="SVGID_24_" gradientUnits="userSpaceOnUse" x1="353.0794" y1="321.7982" x2="285.68" y2="230.2043">
			<stop  offset="0" style="stop-color:#FFFFFF"/>
			<stop  offset="0.1324" style="stop-color:#FBFEFF"/>
			<stop  offset="0.277" style="stop-color:#EDF9FF"/>
			<stop  offset="0.4274" style="stop-color:#D8F2FF"/>
			<stop  offset="0.5817" style="stop-color:#B9E8FF"/>
			<stop  offset="0.7391" style="stop-color:#92DCFF"/>
			<stop  offset="0.8969" style="stop-color:#62CCFF"/>
			<stop  offset="1" style="stop-color:#3FC1FF"/>
		</linearGradient>
		<path class="st29" d="M361.7,297.8c0,0-14.7,2.2-19.4,2.2c-9.6,0-19.2-0.1-28.7-0.1h-2.8l-18.7-60.2c1.5,0,2.9,0.9,4.1,1.7
			c6.3,4.2,12.8,8.4,19.1,12.6c5.3,3.6,8.4,9.3,12.9,13.8c5.2,5.7,12.7,10.6,18.9,15C351.5,286,361.7,297.8,361.7,297.8z"/>
		<linearGradient id="SVGID_25_" gradientUnits="userSpaceOnUse" x1="222.4345" y1="253.0687" x2="314.4561" y2="345.0903">
			<stop  offset="0" style="stop-color:#3FC1FF"/>
			<stop  offset="1" style="stop-color:#009AE9"/>
		</linearGradient>
		<path class="st30" d="M343,292.3c-9.6,0-19.2-0.1-28.7-0.1h-2.8c-3.6,0-7.1,0-10.7,0c-1.9,0-3.7,0-5.6,0c-2.8,0-5.5,0-8.3,0
			c-1.9,0-3.7,0-5.5,0h-0.6c-10.6,0.1-21.2,0.4-31.7,0.7l-11.6,0.4c-10.5,0.3-20.9,2-31.4,1.9c-4.7,0-9.3-0.3-14-0.5
			c-2.3-0.1-4.7-0.2-7-0.3c-0.8,0-2.4,0.2-4,0.3c-2.8,2.6-6.5,6.3-4.4,7.5c1.3,0.8,6.1-0.1,7.8-0.1c2.3,0,4.7,0.1,7,0.3
			c4.7,0.2,9.3,0.5,14,0.5c10.5,0,20.9-1.6,31.4-1.9l11.6-0.4c10.6-0.3,21.1-0.6,31.7-0.7h0.6c1.8,0,3.7,0,5.5,0c2.8,0,5.5,0,8.3,0
			c1.9,0,3.8,0,5.6,0c3.6,0,7.1,0,10.7,0h2.8c9.6,0,19.2,0.1,28.7,0.1c4.7,0,19.4-2.2,19.4-2.2s-2.8-3.3-6.1-6.8
			C351.1,291.6,345.6,292.3,343,292.3z"/>
	</g>
</g>
</svg>
