<?xml version="1.0" encoding="utf-8"?>
<!-- Generator: Adobe Illustrator 19.0.0, SVG Export Plug-In . SVG Version: 6.00 Build 0)  -->
<svg version="1.1" id="Calque_1" xmlns="http://www.w3.org/2000/svg" xmlns:xlink="http://www.w3.org/1999/xlink" x="0px" y="0px"
	 viewBox="320 -55 1920 1186.8" style="enable-background:new 320 -55 1920 1186.8;" xml:space="preserve">
<style type="text/css">
	.st0{fill:#0F7CFF;}
</style>
<g id="BACKGROUND">
</g>
<g id="DESIGN">
</g>
<path class="st0" d="M2075.5,23.3c-67,29.5-120.4,65.5-120.4,65.5c-65.5,34-100.5,149-100.5,149c-17,71-78.5,156-78.5,156
	s-99,140-346,168c-189.9,21.5-234.4,124-244.8,170.2c0,0,0,0,0,0c-5.2,22.3-16.9,36.8-21.1,41.3c-28.7,30.2-53.1,41.6-59.4,44.2
	c-61.6,24.1-145,38.6-204.7,88.3c-95.3,79.3-288,83.3-288,83.3C402.8,990.5,320,1131.8,320,1131.8h1920V112.1V88.8V-54.7
	C2166-59.2,2142.5-6.2,2075.5,23.3z"/>
</svg>
